<svg xmlns="http://www.w3.org/2000/svg" xmlns:rdkit="http://www.rdkit.org/xml" xmlns:xlink="http://www.w3.org/1999/xlink" version="1.1" baseProfile="full" xml:space="preserve" width="150px" height="150px" viewBox="0 0 150 150">
<!-- END OF HEADER -->
<rect style="opacity:1.0;fill:#FFFFFF;stroke:none" width="150.0" height="150.0" x="0.0" y="0.0"> </rect>
<ellipse cx="94.5" cy="57.9" rx="9.0" ry="9.0" class="atom-1" style="fill:#CCCCCC;fill-rule:evenodd;stroke:#CCCCCC;stroke-width:1.0px;stroke-linecap:butt;stroke-linejoin:miter;stroke-opacity:1"/>
<ellipse cx="62.3" cy="89.5" rx="9.0" ry="9.0" class="atom-2" style="fill:#9999E5;fill-rule:evenodd;stroke:#9999E5;stroke-width:1.0px;stroke-linecap:butt;stroke-linejoin:miter;stroke-opacity:1"/>
<ellipse cx="73.7" cy="133.2" rx="9.0" ry="9.0" class="atom-3" style="fill:#CCCCCC;fill-rule:evenodd;stroke:#CCCCCC;stroke-width:1.0px;stroke-linecap:butt;stroke-linejoin:miter;stroke-opacity:1"/>
<ellipse cx="18.9" cy="77.5" rx="9.0" ry="9.0" class="atom-8" style="fill:#CCCCCC;fill-rule:evenodd;stroke:#CCCCCC;stroke-width:1.0px;stroke-linecap:butt;stroke-linejoin:miter;stroke-opacity:1"/>
<path class="bond-0 atom-0 atom-1" d="M 85.5,23.4 L 97.8,58.1 L 94.5,57.9 L 91.9,60.5 Z" style="fill:#E5E5E5;fill-rule:evenodd;fill-opacity:1;stroke:#E5E5E5;stroke-width:0.5px;stroke-linecap:butt;stroke-linejoin:miter;stroke-miterlimit:10;stroke-opacity:1;"/>
<path class="bond-1 atom-1 atom-2" d="M 94.5,57.9 L 62.3,89.5" style="fill:none;fill-rule:evenodd;stroke:#000000;stroke-width:2.0px;stroke-linecap:butt;stroke-linejoin:miter;stroke-opacity:1"/>
<path class="bond-2 atom-2 atom-3" d="M 62.3,89.5 L 73.7,133.2" style="fill:none;fill-rule:evenodd;stroke:#000000;stroke-width:2.0px;stroke-linecap:butt;stroke-linejoin:miter;stroke-opacity:1"/>
<path class="bond-3 atom-3 atom-4" d="M 73.7,133.2 L 79.6,116.2 L 84.9,119.1 Z" style="fill:#E5E5E5;fill-rule:evenodd;fill-opacity:1;stroke:#E5E5E5;stroke-width:0.5px;stroke-linecap:butt;stroke-linejoin:miter;stroke-miterlimit:10;stroke-opacity:1;"/>
<path class="bond-4 atom-3 atom-6" d="M 73.7,133.2 L 121.6,118.0" style="fill:none;fill-rule:evenodd;stroke:#E5E5E5;stroke-width:2.4px;stroke-linecap:butt;stroke-linejoin:miter;stroke-opacity:1"/>
<path class="bond-5 atom-2 atom-8" d="M 59.1,88.4 L 58.9,88.9" style="fill:none;fill-rule:evenodd;stroke:#000000;stroke-width:1.0px;stroke-linecap:butt;stroke-linejoin:miter;stroke-opacity:1"/>
<path class="bond-5 atom-2 atom-8" d="M 55.8,87.2 L 55.5,88.2" style="fill:none;fill-rule:evenodd;stroke:#000000;stroke-width:1.0px;stroke-linecap:butt;stroke-linejoin:miter;stroke-opacity:1"/>
<path class="bond-5 atom-2 atom-8" d="M 52.5,86.0 L 52.1,87.5" style="fill:none;fill-rule:evenodd;stroke:#000000;stroke-width:1.0px;stroke-linecap:butt;stroke-linejoin:miter;stroke-opacity:1"/>
<path class="bond-5 atom-2 atom-8" d="M 49.3,84.9 L 48.7,86.8" style="fill:none;fill-rule:evenodd;stroke:#000000;stroke-width:1.0px;stroke-linecap:butt;stroke-linejoin:miter;stroke-opacity:1"/>
<path class="bond-5 atom-2 atom-8" d="M 46.0,83.7 L 45.3,86.1" style="fill:none;fill-rule:evenodd;stroke:#000000;stroke-width:1.0px;stroke-linecap:butt;stroke-linejoin:miter;stroke-opacity:1"/>
<path class="bond-5 atom-2 atom-8" d="M 42.7,82.5 L 41.9,85.5" style="fill:none;fill-rule:evenodd;stroke:#000000;stroke-width:1.0px;stroke-linecap:butt;stroke-linejoin:miter;stroke-opacity:1"/>
<path class="bond-5 atom-2 atom-8" d="M 39.4,81.4 L 38.5,84.8" style="fill:none;fill-rule:evenodd;stroke:#000000;stroke-width:1.0px;stroke-linecap:butt;stroke-linejoin:miter;stroke-opacity:1"/>
<path class="bond-5 atom-2 atom-8" d="M 36.2,80.2 L 35.1,84.1" style="fill:none;fill-rule:evenodd;stroke:#000000;stroke-width:1.0px;stroke-linecap:butt;stroke-linejoin:miter;stroke-opacity:1"/>
<path class="bond-5 atom-2 atom-8" d="M 32.9,79.0 L 31.7,83.4" style="fill:none;fill-rule:evenodd;stroke:#000000;stroke-width:1.0px;stroke-linecap:butt;stroke-linejoin:miter;stroke-opacity:1"/>
<path class="bond-5 atom-2 atom-8" d="M 29.6,77.9 L 28.3,82.7" style="fill:none;fill-rule:evenodd;stroke:#000000;stroke-width:1.0px;stroke-linecap:butt;stroke-linejoin:miter;stroke-opacity:1"/>
<path class="bond-5 atom-2 atom-8" d="M 26.3,76.7 L 24.9,82.1" style="fill:none;fill-rule:evenodd;stroke:#000000;stroke-width:1.0px;stroke-linecap:butt;stroke-linejoin:miter;stroke-opacity:1"/>
<path class="bond-5 atom-2 atom-8" d="M 23.1,75.5 L 21.5,81.4" style="fill:none;fill-rule:evenodd;stroke:#000000;stroke-width:1.0px;stroke-linecap:butt;stroke-linejoin:miter;stroke-opacity:1"/>
<path class="bond-6 atom-8 atom-9" d="M 18.9,77.5 L 7.8,34.6" style="fill:none;fill-rule:evenodd;stroke:#E5E5E5;stroke-width:2.4px;stroke-linecap:butt;stroke-linejoin:miter;stroke-opacity:1"/>
<path class="bond-6 atom-8 atom-9" d="M 23.9,72.6 L 13.6,33.1" style="fill:none;fill-rule:evenodd;stroke:#E5E5E5;stroke-width:2.4px;stroke-linecap:butt;stroke-linejoin:miter;stroke-opacity:1"/>
<path class="bond-7 atom-1 atom-5" d="M 94.5,57.9 L 97.1,68.9 L 91.1,68.7 Z" style="fill:#E5E5E5;fill-rule:evenodd;fill-opacity:1;stroke:#E5E5E5;stroke-width:0.5px;stroke-linecap:butt;stroke-linejoin:miter;stroke-miterlimit:10;stroke-opacity:1;"/>
<path class="bond-8 atom-7 atom-1" d="M 135.1,60.4 L 94.5,57.9" style="fill:none;fill-rule:evenodd;stroke:#E5E5E5;stroke-width:2.4px;stroke-linecap:butt;stroke-linejoin:miter;stroke-opacity:1"/>
<path d="M 64.0,88.0 L 62.3,89.5 L 62.9,91.7" style="fill:none;stroke:#000000;stroke-width:2.0px;stroke-linecap:butt;stroke-linejoin:miter;stroke-miterlimit:10;stroke-opacity:1;"/>
<path d="M 73.4,132.1 L 73.7,133.2 L 74.9,132.8" style="fill:none;stroke:#000000;stroke-width:2.0px;stroke-linecap:butt;stroke-linejoin:miter;stroke-miterlimit:10;stroke-opacity:1;"/>
<path class="atom-0" d="M 80.8 12.9 L 82.6 11.0 L 80.2 10.5 L 80.5 9.2 L 82.8 10.3 L 82.5 7.8 L 83.8 7.8 L 83.5 10.3 L 85.8 9.2 L 86.2 10.5 L 83.7 10.9 L 85.5 12.9 L 84.4 13.6 L 83.1 11.3 L 81.9 13.6 L 80.8 12.9 " fill="#191919"/>
<path class="atom-0" d="M 87.5 8.0 L 89.3 8.0 L 89.3 13.4 L 95.8 13.4 L 95.8 8.0 L 97.5 8.0 L 97.5 20.8 L 95.8 20.8 L 95.8 14.9 L 89.3 14.9 L 89.3 20.8 L 87.5 20.8 L 87.5 8.0 " fill="#191919"/>
<path class="atom-4" d="M 81.0 114.2 L 82.8 112.3 L 80.4 111.8 L 80.7 110.5 L 83.0 111.7 L 82.7 109.1 L 84.1 109.1 L 83.7 111.6 L 86.0 110.6 L 86.4 111.8 L 83.9 112.2 L 85.7 114.2 L 84.6 115.0 L 83.3 112.6 L 82.1 115.0 L 81.0 114.2 " fill="#191919"/>
<path class="atom-5" d="M 91.4 76.6 L 93.3 74.7 L 90.8 74.2 L 91.1 72.9 L 93.4 74.0 L 93.1 71.5 L 94.5 71.5 L 94.1 74.0 L 96.4 72.9 L 96.8 74.2 L 94.3 74.6 L 96.1 76.5 L 95.0 77.3 L 93.7 75.0 L 92.5 77.3 L 91.4 76.6 " fill="#191919"/>
<path class="atom-6" d="M 121.4 115.9 L 123.3 114.0 L 120.8 113.5 L 121.2 112.2 L 123.5 113.4 L 123.1 110.9 L 124.5 110.9 L 124.1 113.4 L 126.4 112.3 L 126.8 113.5 L 124.3 114.0 L 126.1 115.9 L 125.0 116.7 L 123.8 114.3 L 122.5 116.7 L 121.4 115.9 " fill="#191919"/>
<path class="atom-7" d="M 137.1 59.2 L 138.9 57.3 L 136.5 56.8 L 136.8 55.5 L 139.1 56.7 L 138.8 54.2 L 140.2 54.2 L 139.8 56.7 L 142.1 55.6 L 142.5 56.8 L 140.0 57.3 L 141.8 59.2 L 140.7 60.0 L 139.4 57.6 L 138.2 60.0 L 137.1 59.2 " fill="#191919"/>
<path class="atom-9" d="M 8.1 31.7 L 10.0 29.8 L 7.5 29.3 L 7.9 28.0 L 10.2 29.2 L 9.8 26.7 L 11.2 26.6 L 10.8 29.1 L 13.1 28.1 L 13.5 29.3 L 11.0 29.8 L 12.8 31.7 L 11.7 32.5 L 10.5 30.1 L 9.2 32.5 L 8.1 31.7 " fill="#191919"/>
</svg>