<svg xmlns="http://www.w3.org/2000/svg" xmlns:rdkit="http://www.rdkit.org/xml" xmlns:xlink="http://www.w3.org/1999/xlink" version="1.1" baseProfile="full" xml:space="preserve" width="150px" height="150px" viewBox="0 0 150 150">
<!-- END OF HEADER -->
<rect style="opacity:1.0;fill:#FFFFFF;stroke:none" width="150.0" height="150.0" x="0.0" y="0.0"> </rect>
<ellipse cx="81.3" cy="60.3" rx="9.2" ry="9.2" class="atom-2" style="fill:#CCCCCC;fill-rule:evenodd;stroke:#CCCCCC;stroke-width:1.0px;stroke-linecap:butt;stroke-linejoin:miter;stroke-opacity:1"/>
<ellipse cx="50.5" cy="26.4" rx="9.2" ry="9.2" class="atom-3" style="fill:#9999E5;fill-rule:evenodd;stroke:#9999E5;stroke-width:1.0px;stroke-linecap:butt;stroke-linejoin:miter;stroke-opacity:1"/>
<ellipse cx="95.3" cy="16.7" rx="9.2" ry="9.2" class="atom-4" style="fill:#CCCCCC;fill-rule:evenodd;stroke:#CCCCCC;stroke-width:1.0px;stroke-linecap:butt;stroke-linejoin:miter;stroke-opacity:1"/>
<path class="bond-0 atom-0 atom-1" d="M 65.2,128.6 L 80.8,109.8 L 85.4,114.9 Z" style="fill:#E5E5E5;fill-rule:evenodd;fill-opacity:1;stroke:#E5E5E5;stroke-width:0.5px;stroke-linecap:butt;stroke-linejoin:miter;stroke-opacity:1;"/>
<path class="bond-1 atom-1 atom-2" d="M 89.3,97.1 L 85.3,78.7" style="fill:none;fill-rule:evenodd;stroke:#0000FF;stroke-width:2.0px;stroke-linecap:butt;stroke-linejoin:miter;stroke-opacity:1"/>
<path class="bond-1 atom-1 atom-2" d="M 85.3,78.7 L 81.3,60.3" style="fill:none;fill-rule:evenodd;stroke:#000000;stroke-width:2.0px;stroke-linecap:butt;stroke-linejoin:miter;stroke-opacity:1"/>
<path class="bond-2 atom-2 atom-3" d="M 81.3,60.3 L 50.5,26.4" style="fill:none;fill-rule:evenodd;stroke:#000000;stroke-width:2.0px;stroke-linecap:butt;stroke-linejoin:miter;stroke-opacity:1"/>
<path class="bond-3 atom-3 atom-4" d="M 50.5,26.4 L 95.3,16.7" style="fill:none;fill-rule:evenodd;stroke:#000000;stroke-width:2.0px;stroke-linecap:butt;stroke-linejoin:miter;stroke-opacity:1"/>
<path class="bond-4 atom-4 atom-2" d="M 95.3,16.7 L 81.3,60.3" style="fill:none;fill-rule:evenodd;stroke:#000000;stroke-width:2.0px;stroke-linecap:butt;stroke-linejoin:miter;stroke-opacity:1"/>
<path d="M 52.1,28.1 L 50.5,26.4 L 52.8,25.9" style="fill:none;stroke:#000000;stroke-width:2.0px;stroke-linecap:butt;stroke-linejoin:miter;stroke-opacity:1;"/>
<path d="M 93.1,17.2 L 95.3,16.7 L 94.6,18.8" style="fill:none;stroke:#000000;stroke-width:2.0px;stroke-linecap:butt;stroke-linejoin:miter;stroke-opacity:1;"/>
<path class="atom-0" d="M 45.1 134.5 L 47.0 132.5 L 44.5 132.0 L 44.9 130.7 L 47.2 131.9 L 46.9 129.3 L 48.2 129.3 L 47.9 131.8 L 50.2 130.7 L 50.6 132.0 L 48.1 132.5 L 49.9 134.4 L 48.8 135.2 L 47.5 132.8 L 46.2 135.2 L 45.1 134.5 " fill="#191919"/>
<path class="atom-0" d="M 52.0 129.5 L 53.8 129.5 L 53.8 135.0 L 60.4 135.0 L 60.4 129.5 L 62.1 129.5 L 62.1 142.5 L 60.4 142.5 L 60.4 136.5 L 53.8 136.5 L 53.8 142.5 L 52.0 142.5 L 52.0 129.5 " fill="#191919"/>
<path class="atom-1" d="M 88.2 98.6 L 92.4 105.5 Q 92.8 106.2, 93.5 107.4 Q 94.2 108.6, 94.2 108.7 L 94.2 98.6 L 95.9 98.6 L 95.9 111.6 L 94.2 111.6 L 89.6 104.1 Q 89.1 103.2, 88.5 102.2 Q 88.0 101.2, 87.8 100.9 L 87.8 111.6 L 86.1 111.6 L 86.1 98.6 L 88.2 98.6 " fill="#0000FF"/>
<path class="atom-1" d="M 98.5 98.6 L 100.2 98.6 L 100.2 104.1 L 106.9 104.1 L 106.9 98.6 L 108.6 98.6 L 108.6 111.6 L 106.9 111.6 L 106.9 105.6 L 100.2 105.6 L 100.2 111.6 L 98.5 111.6 L 98.5 98.6 " fill="#0000FF"/>
</svg>