<svg xmlns="http://www.w3.org/2000/svg" xmlns:rdkit="http://www.rdkit.org/xml" xmlns:xlink="http://www.w3.org/1999/xlink" version="1.1" baseProfile="full" xml:space="preserve" width="150px" height="150px" viewBox="0 0 150 150">
<!-- END OF HEADER -->
<rect style="opacity:1.0;fill:#FFFFFF;stroke:none" width="150.0" height="150.0" x="0.0" y="0.0"> </rect>
<ellipse cx="93.4" cy="82.9" rx="10.0" ry="10.0" class="atom-3" style="fill:#9999E5;fill-rule:evenodd;stroke:#9999E5;stroke-width:1.0px;stroke-linecap:butt;stroke-linejoin:miter;stroke-opacity:1"/>
<path class="bond-0 atom-0 atom-1" d="M 15.9,104.6 L 44.2,72.8" style="fill:none;fill-rule:evenodd;stroke:#E5E5E5;stroke-width:2.7px;stroke-linecap:butt;stroke-linejoin:miter;stroke-opacity:1"/>
<path class="bond-1 atom-1 atom-2" d="M 48.5,73.7 L 32.4,24.9" style="fill:none;fill-rule:evenodd;stroke:#E5E5E5;stroke-width:2.7px;stroke-linecap:butt;stroke-linejoin:miter;stroke-opacity:1"/>
<path class="bond-1 atom-1 atom-2" d="M 41.3,76.0 L 25.2,27.3" style="fill:none;fill-rule:evenodd;stroke:#E5E5E5;stroke-width:2.7px;stroke-linecap:butt;stroke-linejoin:miter;stroke-opacity:1"/>
<path class="bond-2 atom-1 atom-3" d="M 44.2,72.8 L 93.4,82.9" style="fill:none;fill-rule:evenodd;stroke:#000000;stroke-width:2.0px;stroke-linecap:butt;stroke-linejoin:miter;stroke-opacity:1"/>
<path class="bond-3 atom-3 atom-4" d="M 93.4,82.9 L 103.5,33.8" style="fill:none;fill-rule:evenodd;stroke:#000000;stroke-width:2.0px;stroke-linecap:butt;stroke-linejoin:miter;stroke-opacity:1"/>
<path class="bond-4 atom-3 atom-5" d="M 93.4,82.9 L 83.2,132.1" style="fill:none;fill-rule:evenodd;stroke:#000000;stroke-width:2.0px;stroke-linecap:butt;stroke-linejoin:miter;stroke-opacity:1"/>
<path class="bond-5 atom-3 atom-6" d="M 93.4,82.9 L 142.5,93.1" style="fill:none;fill-rule:evenodd;stroke:#000000;stroke-width:2.0px;stroke-linecap:butt;stroke-linejoin:miter;stroke-opacity:1"/>
<path d="M 43.5,73.6 L 44.2,72.8 L 45.5,73.0" style="fill:none;stroke:#E5E5E5;stroke-width:2.7px;stroke-linecap:butt;stroke-linejoin:miter;stroke-miterlimit:10;stroke-opacity:1;"/>
<path class="atom-0" d="M 8.2 108.7 L 10.3 106.5 L 7.5 106.0 L 7.9 104.5 L 10.5 105.8 L 10.1 103.0 L 11.6 103.0 L 11.2 105.8 L 13.8 104.6 L 14.2 106.0 L 11.4 106.5 L 13.4 108.6 L 12.2 109.5 L 10.8 106.9 L 9.4 109.5 L 8.2 108.7 " fill="#191919"/>
<path class="atom-2" d="M 25.8 23.6 L 27.9 21.4 L 25.1 20.9 L 25.5 19.4 L 28.1 20.7 L 27.7 17.9 L 29.2 17.9 L 28.8 20.7 L 31.4 19.5 L 31.8 20.9 L 29.0 21.4 L 31.0 23.5 L 29.8 24.4 L 28.4 21.8 L 27.0 24.4 L 25.8 23.6 " fill="#191919"/>
</svg>