<svg xmlns="http://www.w3.org/2000/svg" xmlns:rdkit="http://www.rdkit.org/xml" xmlns:xlink="http://www.w3.org/1999/xlink" version="1.1" baseProfile="full" xml:space="preserve" width="150px" height="150px" viewBox="0 0 150 150">
<!-- END OF HEADER -->
<rect style="opacity:1.0;fill:#FFFFFF;stroke:none" width="150.0" height="150.0" x="0.0" y="0.0"> </rect>
<ellipse cx="79.5" cy="81.4" rx="13.4" ry="13.4" class="atom-1" style="fill:#E5E533;fill-rule:evenodd;stroke:#E5E533;stroke-width:1.0px;stroke-linecap:butt;stroke-linejoin:miter;stroke-opacity:1"/>
<ellipse cx="126.3" cy="129.1" rx="13.4" ry="13.4" class="atom-2" style="fill:#9999E5;fill-rule:evenodd;stroke:#9999E5;stroke-width:1.0px;stroke-linecap:butt;stroke-linejoin:miter;stroke-opacity:1"/>
<path class="bond-0 atom-0 atom-1" d="M 102.0,19.7 L 83.6,85.6" style="fill:none;fill-rule:evenodd;stroke:#E5E5E5;stroke-width:3.6px;stroke-linecap:butt;stroke-linejoin:miter;stroke-opacity:1"/>
<path class="bond-0 atom-0 atom-1" d="M 92.3,17.0 L 73.9,82.9" style="fill:none;fill-rule:evenodd;stroke:#E5E5E5;stroke-width:3.6px;stroke-linecap:butt;stroke-linejoin:miter;stroke-opacity:1;stroke-dasharray:6,4"/>
<path class="bond-1 atom-1 atom-2" d="M 73.9,82.9 L 111.8,121.5" style="fill:none;fill-rule:evenodd;stroke:#000000;stroke-width:2.0px;stroke-linecap:butt;stroke-linejoin:miter;stroke-opacity:1"/>
<path class="bond-1 atom-1 atom-2" d="M 81.1,75.9 L 119.0,114.5" style="fill:none;fill-rule:evenodd;stroke:#000000;stroke-width:2.0px;stroke-linecap:butt;stroke-linejoin:miter;stroke-opacity:1"/>
<path class="bond-2 atom-1 atom-3" d="M 81.1,75.9 L 20.3,91.5" style="fill:none;fill-rule:evenodd;stroke:#E5E5E5;stroke-width:3.6px;stroke-linecap:butt;stroke-linejoin:miter;stroke-opacity:1"/>
<path class="bond-2 atom-1 atom-3" d="M 83.6,85.6 L 22.8,101.2" style="fill:none;fill-rule:evenodd;stroke:#E5E5E5;stroke-width:3.6px;stroke-linecap:butt;stroke-linejoin:miter;stroke-opacity:1;stroke-dasharray:6,4"/>
<path d="M 82.0,76.8 L 81.1,75.9 L 79.6,76.3" style="fill:none;stroke:#000000;stroke-width:2.0px;stroke-linecap:butt;stroke-linejoin:miter;stroke-miterlimit:10;stroke-opacity:1;"/>
<path class="atom-0" d="M 93.9 15.0 L 96.7 12.2 L 93.0 11.4 L 93.6 9.5 L 97.0 11.2 L 96.5 7.5 L 98.5 7.5 L 97.9 11.2 L 101.4 9.6 L 102.0 11.4 L 98.2 12.1 L 100.9 15.0 L 99.3 16.2 L 97.4 12.6 L 95.6 16.2 L 93.9 15.0 " fill="#191919"/>
<path class="atom-2" d="M 117.6 129.2 Q 117.6 124.7, 119.8 122.1 Q 122.1 119.6, 126.3 119.6 Q 130.5 119.6, 132.7 122.1 Q 134.9 124.7, 134.9 129.2 Q 134.9 133.8, 132.7 136.4 Q 130.4 139.0, 126.3 139.0 Q 122.1 139.0, 119.8 136.4 Q 117.6 133.8, 117.6 129.2 M 126.3 136.9 Q 129.1 136.9, 130.7 134.9 Q 132.3 133.0, 132.3 129.2 Q 132.3 125.5, 130.7 123.6 Q 129.1 121.7, 126.3 121.7 Q 123.4 121.7, 121.8 123.6 Q 120.2 125.5, 120.2 129.2 Q 120.2 133.0, 121.8 134.9 Q 123.4 136.9, 126.3 136.9 " fill="#000000"/>
<path class="atom-3" d="M 11.3 95.9 L 14.1 93.1 L 10.4 92.3 L 10.9 90.5 L 14.3 92.2 L 13.9 88.4 L 15.9 88.4 L 15.3 92.1 L 18.7 90.5 L 19.3 92.3 L 15.6 93.0 L 18.3 95.9 L 16.6 97.1 L 14.8 93.6 L 12.9 97.1 L 11.3 95.9 " fill="#191919"/>
</svg>