<?xml version="1.0" encoding="utf-8" standalone="no"?>
<!DOCTYPE svg PUBLIC "-//W3C//DTD SVG 1.1//EN"
  "http://www.w3.org/Graphics/SVG/1.1/DTD/svg11.dtd">
<svg xmlns:xlink="http://www.w3.org/1999/xlink" width="1072.825625pt" height="428.185625pt" viewBox="0 0 1072.825625 428.185625" xmlns="http://www.w3.org/2000/svg" version="1.1">
 <metadata>
  <rdf:RDF xmlns:dc="http://purl.org/dc/elements/1.1/" xmlns:cc="http://creativecommons.org/ns#" xmlns:rdf="http://www.w3.org/1999/02/22-rdf-syntax-ns#">
   <cc:Work>
    <dc:type rdf:resource="http://purl.org/dc/dcmitype/StillImage"/>
    <dc:date>2025-03-12T14:46:13.301072</dc:date>
    <dc:format>image/svg+xml</dc:format>
    <dc:creator>
     <cc:Agent>
      <dc:title>Matplotlib v3.10.0, https://matplotlib.org/</dc:title>
     </cc:Agent>
    </dc:creator>
   </cc:Work>
  </rdf:RDF>
 </metadata>
 <defs>
  <style type="text/css">*{stroke-linejoin: round; stroke-linecap: butt}</style>
 </defs>
 <g id="figure_1">
  <g id="patch_1">
   <path d="M 0 428.185625 
L 1072.825625 428.185625 
L 1072.825625 0 
L 0 0 
z
" style="fill: #ffffff"/>
  </g>
  <g id="axes_1">
   <g id="patch_2">
    <path d="M 61.065625 377.08 
L 301.480625 377.08 
L 301.480625 63.36 
L 61.065625 63.36 
z
" style="fill: #ffffff"/>
   </g>
   <g id="matplotlib.axis_1">
    <g id="xtick_1">
     <g id="line2d_1">
      <defs>
       <path id="m478cdcf4a9" d="M 0 0 
L 0 3.5 
" style="stroke: #000000; stroke-width: 0.8"/>
      </defs>
      <g>
       <use xlink:href="#m478cdcf4a9" x="71.99358" y="377.08" style="stroke: #000000; stroke-width: 0.8"/>
      </g>
     </g>
     <g id="text_1">
      <!-- 1 -->
      <g transform="translate(66.90358 396.2375) scale(0.16 -0.16)">
       <defs>
        <path id="DejaVuSans-31" d="M 794 531 
L 1825 531 
L 1825 4091 
L 703 3866 
L 703 4441 
L 1819 4666 
L 2450 4666 
L 2450 531 
L 3481 531 
L 3481 0 
L 794 0 
L 794 531 
z
" transform="scale(0.015625)"/>
       </defs>
       <use xlink:href="#DejaVuSans-31"/>
      </g>
     </g>
    </g>
    <g id="xtick_2">
     <g id="line2d_2">
      <g>
       <use xlink:href="#m478cdcf4a9" x="126.633352" y="377.08" style="stroke: #000000; stroke-width: 0.8"/>
      </g>
     </g>
     <g id="text_2">
      <!-- 2 -->
      <g transform="translate(121.543352 396.2375) scale(0.16 -0.16)">
       <defs>
        <path id="DejaVuSans-32" d="M 1228 531 
L 3431 531 
L 3431 0 
L 469 0 
L 469 531 
Q 828 903 1448 1529 
Q 2069 2156 2228 2338 
Q 2531 2678 2651 2914 
Q 2772 3150 2772 3378 
Q 2772 3750 2511 3984 
Q 2250 4219 1831 4219 
Q 1534 4219 1204 4116 
Q 875 4013 500 3803 
L 500 4441 
Q 881 4594 1212 4672 
Q 1544 4750 1819 4750 
Q 2544 4750 2975 4387 
Q 3406 4025 3406 3419 
Q 3406 3131 3298 2873 
Q 3191 2616 2906 2266 
Q 2828 2175 2409 1742 
Q 1991 1309 1228 531 
z
" transform="scale(0.015625)"/>
       </defs>
       <use xlink:href="#DejaVuSans-32"/>
      </g>
     </g>
    </g>
    <g id="xtick_3">
     <g id="line2d_3">
      <g>
       <use xlink:href="#m478cdcf4a9" x="181.273125" y="377.08" style="stroke: #000000; stroke-width: 0.8"/>
      </g>
     </g>
     <g id="text_3">
      <!-- 3 -->
      <g transform="translate(176.183125 396.2375) scale(0.16 -0.16)">
       <defs>
        <path id="DejaVuSans-33" d="M 2597 2516 
Q 3050 2419 3304 2112 
Q 3559 1806 3559 1356 
Q 3559 666 3084 287 
Q 2609 -91 1734 -91 
Q 1441 -91 1130 -33 
Q 819 25 488 141 
L 488 750 
Q 750 597 1062 519 
Q 1375 441 1716 441 
Q 2309 441 2620 675 
Q 2931 909 2931 1356 
Q 2931 1769 2642 2001 
Q 2353 2234 1838 2234 
L 1294 2234 
L 1294 2753 
L 1863 2753 
Q 2328 2753 2575 2939 
Q 2822 3125 2822 3475 
Q 2822 3834 2567 4026 
Q 2313 4219 1838 4219 
Q 1578 4219 1281 4162 
Q 984 4106 628 3988 
L 628 4550 
Q 988 4650 1302 4700 
Q 1616 4750 1894 4750 
Q 2613 4750 3031 4423 
Q 3450 4097 3450 3541 
Q 3450 3153 3228 2886 
Q 3006 2619 2597 2516 
z
" transform="scale(0.015625)"/>
       </defs>
       <use xlink:href="#DejaVuSans-33"/>
      </g>
     </g>
    </g>
    <g id="xtick_4">
     <g id="line2d_4">
      <g>
       <use xlink:href="#m478cdcf4a9" x="235.912898" y="377.08" style="stroke: #000000; stroke-width: 0.8"/>
      </g>
     </g>
     <g id="text_4">
      <!-- 4 -->
      <g transform="translate(230.822898 396.2375) scale(0.16 -0.16)">
       <defs>
        <path id="DejaVuSans-34" d="M 2419 4116 
L 825 1625 
L 2419 1625 
L 2419 4116 
z
M 2253 4666 
L 3047 4666 
L 3047 1625 
L 3713 1625 
L 3713 1100 
L 3047 1100 
L 3047 0 
L 2419 0 
L 2419 1100 
L 313 1100 
L 313 1709 
L 2253 4666 
z
" transform="scale(0.015625)"/>
       </defs>
       <use xlink:href="#DejaVuSans-34"/>
      </g>
     </g>
    </g>
    <g id="xtick_5">
     <g id="line2d_5">
      <g>
       <use xlink:href="#m478cdcf4a9" x="290.55267" y="377.08" style="stroke: #000000; stroke-width: 0.8"/>
      </g>
     </g>
     <g id="text_5">
      <!-- 5 -->
      <g transform="translate(285.46267 396.2375) scale(0.16 -0.16)">
       <defs>
        <path id="DejaVuSans-35" d="M 691 4666 
L 3169 4666 
L 3169 4134 
L 1269 4134 
L 1269 2991 
Q 1406 3038 1543 3061 
Q 1681 3084 1819 3084 
Q 2600 3084 3056 2656 
Q 3513 2228 3513 1497 
Q 3513 744 3044 326 
Q 2575 -91 1722 -91 
Q 1428 -91 1123 -41 
Q 819 9 494 109 
L 494 744 
Q 775 591 1075 516 
Q 1375 441 1709 441 
Q 2250 441 2565 725 
Q 2881 1009 2881 1497 
Q 2881 1984 2565 2268 
Q 2250 2553 1709 2553 
Q 1456 2553 1204 2497 
Q 953 2441 691 2322 
L 691 4666 
z
" transform="scale(0.015625)"/>
       </defs>
       <use xlink:href="#DejaVuSans-35"/>
      </g>
     </g>
    </g>
    <g id="text_6">
     <!-- CV Trials -->
     <g transform="translate(142.897969 417.242187) scale(0.18 -0.18)">
      <defs>
       <path id="DejaVuSans-43" d="M 4122 4306 
L 4122 3641 
Q 3803 3938 3442 4084 
Q 3081 4231 2675 4231 
Q 1875 4231 1450 3742 
Q 1025 3253 1025 2328 
Q 1025 1406 1450 917 
Q 1875 428 2675 428 
Q 3081 428 3442 575 
Q 3803 722 4122 1019 
L 4122 359 
Q 3791 134 3420 21 
Q 3050 -91 2638 -91 
Q 1578 -91 968 557 
Q 359 1206 359 2328 
Q 359 3453 968 4101 
Q 1578 4750 2638 4750 
Q 3056 4750 3426 4639 
Q 3797 4528 4122 4306 
z
" transform="scale(0.015625)"/>
       <path id="DejaVuSans-56" d="M 1831 0 
L 50 4666 
L 709 4666 
L 2188 738 
L 3669 4666 
L 4325 4666 
L 2547 0 
L 1831 0 
z
" transform="scale(0.015625)"/>
       <path id="DejaVuSans-20" transform="scale(0.015625)"/>
       <path id="DejaVuSans-54" d="M -19 4666 
L 3928 4666 
L 3928 4134 
L 2272 4134 
L 2272 0 
L 1638 0 
L 1638 4134 
L -19 4134 
L -19 4666 
z
" transform="scale(0.015625)"/>
       <path id="DejaVuSans-72" d="M 2631 2963 
Q 2534 3019 2420 3045 
Q 2306 3072 2169 3072 
Q 1681 3072 1420 2755 
Q 1159 2438 1159 1844 
L 1159 0 
L 581 0 
L 581 3500 
L 1159 3500 
L 1159 2956 
Q 1341 3275 1631 3429 
Q 1922 3584 2338 3584 
Q 2397 3584 2469 3576 
Q 2541 3569 2628 3553 
L 2631 2963 
z
" transform="scale(0.015625)"/>
       <path id="DejaVuSans-69" d="M 603 3500 
L 1178 3500 
L 1178 0 
L 603 0 
L 603 3500 
z
M 603 4863 
L 1178 4863 
L 1178 4134 
L 603 4134 
L 603 4863 
z
" transform="scale(0.015625)"/>
       <path id="DejaVuSans-61" d="M 2194 1759 
Q 1497 1759 1228 1600 
Q 959 1441 959 1056 
Q 959 750 1161 570 
Q 1363 391 1709 391 
Q 2188 391 2477 730 
Q 2766 1069 2766 1631 
L 2766 1759 
L 2194 1759 
z
M 3341 1997 
L 3341 0 
L 2766 0 
L 2766 531 
Q 2569 213 2275 61 
Q 1981 -91 1556 -91 
Q 1019 -91 701 211 
Q 384 513 384 1019 
Q 384 1609 779 1909 
Q 1175 2209 1959 2209 
L 2766 2209 
L 2766 2266 
Q 2766 2663 2505 2880 
Q 2244 3097 1772 3097 
Q 1472 3097 1187 3025 
Q 903 2953 641 2809 
L 641 3341 
Q 956 3463 1253 3523 
Q 1550 3584 1831 3584 
Q 2591 3584 2966 3190 
Q 3341 2797 3341 1997 
z
" transform="scale(0.015625)"/>
       <path id="DejaVuSans-6c" d="M 603 4863 
L 1178 4863 
L 1178 0 
L 603 0 
L 603 4863 
z
" transform="scale(0.015625)"/>
       <path id="DejaVuSans-73" d="M 2834 3397 
L 2834 2853 
Q 2591 2978 2328 3040 
Q 2066 3103 1784 3103 
Q 1356 3103 1142 2972 
Q 928 2841 928 2578 
Q 928 2378 1081 2264 
Q 1234 2150 1697 2047 
L 1894 2003 
Q 2506 1872 2764 1633 
Q 3022 1394 3022 966 
Q 3022 478 2636 193 
Q 2250 -91 1575 -91 
Q 1294 -91 989 -36 
Q 684 19 347 128 
L 347 722 
Q 666 556 975 473 
Q 1284 391 1588 391 
Q 1994 391 2212 530 
Q 2431 669 2431 922 
Q 2431 1156 2273 1281 
Q 2116 1406 1581 1522 
L 1381 1569 
Q 847 1681 609 1914 
Q 372 2147 372 2553 
Q 372 3047 722 3315 
Q 1072 3584 1716 3584 
Q 2034 3584 2315 3537 
Q 2597 3491 2834 3397 
z
" transform="scale(0.015625)"/>
      </defs>
      <use xlink:href="#DejaVuSans-43"/>
      <use xlink:href="#DejaVuSans-56" transform="translate(69.824219 0)"/>
      <use xlink:href="#DejaVuSans-20" transform="translate(138.232422 0)"/>
      <use xlink:href="#DejaVuSans-54" transform="translate(170.019531 0)"/>
      <use xlink:href="#DejaVuSans-72" transform="translate(216.353516 0)"/>
      <use xlink:href="#DejaVuSans-69" transform="translate(257.466797 0)"/>
      <use xlink:href="#DejaVuSans-61" transform="translate(285.25 0)"/>
      <use xlink:href="#DejaVuSans-6c" transform="translate(346.529297 0)"/>
      <use xlink:href="#DejaVuSans-73" transform="translate(374.3125 0)"/>
     </g>
    </g>
   </g>
   <g id="matplotlib.axis_2">
    <g id="ytick_1">
     <g id="line2d_6">
      <defs>
       <path id="m9722268767" d="M 0 0 
L -3.5 0 
" style="stroke: #000000; stroke-width: 0.8"/>
      </defs>
      <g>
       <use xlink:href="#m9722268767" x="61.065625" y="377.08" style="stroke: #000000; stroke-width: 0.8"/>
      </g>
     </g>
     <g id="text_7">
      <!-- 0.5 -->
      <g transform="translate(28.620625 383.15875) scale(0.16 -0.16)">
       <defs>
        <path id="DejaVuSans-30" d="M 2034 4250 
Q 1547 4250 1301 3770 
Q 1056 3291 1056 2328 
Q 1056 1369 1301 889 
Q 1547 409 2034 409 
Q 2525 409 2770 889 
Q 3016 1369 3016 2328 
Q 3016 3291 2770 3770 
Q 2525 4250 2034 4250 
z
M 2034 4750 
Q 2819 4750 3233 4129 
Q 3647 3509 3647 2328 
Q 3647 1150 3233 529 
Q 2819 -91 2034 -91 
Q 1250 -91 836 529 
Q 422 1150 422 2328 
Q 422 3509 836 4129 
Q 1250 4750 2034 4750 
z
" transform="scale(0.015625)"/>
        <path id="DejaVuSans-2e" d="M 684 794 
L 1344 794 
L 1344 0 
L 684 0 
L 684 794 
z
" transform="scale(0.015625)"/>
       </defs>
       <use xlink:href="#DejaVuSans-30"/>
       <use xlink:href="#DejaVuSans-2e" transform="translate(63.623047 0)"/>
       <use xlink:href="#DejaVuSans-35" transform="translate(95.410156 0)"/>
      </g>
     </g>
    </g>
    <g id="ytick_2">
     <g id="line2d_7">
      <g>
       <use xlink:href="#m9722268767" x="61.065625" y="314.336" style="stroke: #000000; stroke-width: 0.8"/>
      </g>
     </g>
     <g id="text_8">
      <!-- 0.6 -->
      <g transform="translate(28.620625 320.41475) scale(0.16 -0.16)">
       <defs>
        <path id="DejaVuSans-36" d="M 2113 2584 
Q 1688 2584 1439 2293 
Q 1191 2003 1191 1497 
Q 1191 994 1439 701 
Q 1688 409 2113 409 
Q 2538 409 2786 701 
Q 3034 994 3034 1497 
Q 3034 2003 2786 2293 
Q 2538 2584 2113 2584 
z
M 3366 4563 
L 3366 3988 
Q 3128 4100 2886 4159 
Q 2644 4219 2406 4219 
Q 1781 4219 1451 3797 
Q 1122 3375 1075 2522 
Q 1259 2794 1537 2939 
Q 1816 3084 2150 3084 
Q 2853 3084 3261 2657 
Q 3669 2231 3669 1497 
Q 3669 778 3244 343 
Q 2819 -91 2113 -91 
Q 1303 -91 875 529 
Q 447 1150 447 2328 
Q 447 3434 972 4092 
Q 1497 4750 2381 4750 
Q 2619 4750 2861 4703 
Q 3103 4656 3366 4563 
z
" transform="scale(0.015625)"/>
       </defs>
       <use xlink:href="#DejaVuSans-30"/>
       <use xlink:href="#DejaVuSans-2e" transform="translate(63.623047 0)"/>
       <use xlink:href="#DejaVuSans-36" transform="translate(95.410156 0)"/>
      </g>
     </g>
    </g>
    <g id="ytick_3">
     <g id="line2d_8">
      <g>
       <use xlink:href="#m9722268767" x="61.065625" y="251.592" style="stroke: #000000; stroke-width: 0.8"/>
      </g>
     </g>
     <g id="text_9">
      <!-- 0.7 -->
      <g transform="translate(28.620625 257.67075) scale(0.16 -0.16)">
       <defs>
        <path id="DejaVuSans-37" d="M 525 4666 
L 3525 4666 
L 3525 4397 
L 1831 0 
L 1172 0 
L 2766 4134 
L 525 4134 
L 525 4666 
z
" transform="scale(0.015625)"/>
       </defs>
       <use xlink:href="#DejaVuSans-30"/>
       <use xlink:href="#DejaVuSans-2e" transform="translate(63.623047 0)"/>
       <use xlink:href="#DejaVuSans-37" transform="translate(95.410156 0)"/>
      </g>
     </g>
    </g>
    <g id="ytick_4">
     <g id="line2d_9">
      <g>
       <use xlink:href="#m9722268767" x="61.065625" y="188.848" style="stroke: #000000; stroke-width: 0.8"/>
      </g>
     </g>
     <g id="text_10">
      <!-- 0.8 -->
      <g transform="translate(28.620625 194.92675) scale(0.16 -0.16)">
       <defs>
        <path id="DejaVuSans-38" d="M 2034 2216 
Q 1584 2216 1326 1975 
Q 1069 1734 1069 1313 
Q 1069 891 1326 650 
Q 1584 409 2034 409 
Q 2484 409 2743 651 
Q 3003 894 3003 1313 
Q 3003 1734 2745 1975 
Q 2488 2216 2034 2216 
z
M 1403 2484 
Q 997 2584 770 2862 
Q 544 3141 544 3541 
Q 544 4100 942 4425 
Q 1341 4750 2034 4750 
Q 2731 4750 3128 4425 
Q 3525 4100 3525 3541 
Q 3525 3141 3298 2862 
Q 3072 2584 2669 2484 
Q 3125 2378 3379 2068 
Q 3634 1759 3634 1313 
Q 3634 634 3220 271 
Q 2806 -91 2034 -91 
Q 1263 -91 848 271 
Q 434 634 434 1313 
Q 434 1759 690 2068 
Q 947 2378 1403 2484 
z
M 1172 3481 
Q 1172 3119 1398 2916 
Q 1625 2713 2034 2713 
Q 2441 2713 2670 2916 
Q 2900 3119 2900 3481 
Q 2900 3844 2670 4047 
Q 2441 4250 2034 4250 
Q 1625 4250 1398 4047 
Q 1172 3844 1172 3481 
z
" transform="scale(0.015625)"/>
       </defs>
       <use xlink:href="#DejaVuSans-30"/>
       <use xlink:href="#DejaVuSans-2e" transform="translate(63.623047 0)"/>
       <use xlink:href="#DejaVuSans-38" transform="translate(95.410156 0)"/>
      </g>
     </g>
    </g>
    <g id="ytick_5">
     <g id="line2d_10">
      <g>
       <use xlink:href="#m9722268767" x="61.065625" y="126.104" style="stroke: #000000; stroke-width: 0.8"/>
      </g>
     </g>
     <g id="text_11">
      <!-- 0.9 -->
      <g transform="translate(28.620625 132.18275) scale(0.16 -0.16)">
       <defs>
        <path id="DejaVuSans-39" d="M 703 97 
L 703 672 
Q 941 559 1184 500 
Q 1428 441 1663 441 
Q 2288 441 2617 861 
Q 2947 1281 2994 2138 
Q 2813 1869 2534 1725 
Q 2256 1581 1919 1581 
Q 1219 1581 811 2004 
Q 403 2428 403 3163 
Q 403 3881 828 4315 
Q 1253 4750 1959 4750 
Q 2769 4750 3195 4129 
Q 3622 3509 3622 2328 
Q 3622 1225 3098 567 
Q 2575 -91 1691 -91 
Q 1453 -91 1209 -44 
Q 966 3 703 97 
z
M 1959 2075 
Q 2384 2075 2632 2365 
Q 2881 2656 2881 3163 
Q 2881 3666 2632 3958 
Q 2384 4250 1959 4250 
Q 1534 4250 1286 3958 
Q 1038 3666 1038 3163 
Q 1038 2656 1286 2365 
Q 1534 2075 1959 2075 
z
" transform="scale(0.015625)"/>
       </defs>
       <use xlink:href="#DejaVuSans-30"/>
       <use xlink:href="#DejaVuSans-2e" transform="translate(63.623047 0)"/>
       <use xlink:href="#DejaVuSans-39" transform="translate(95.410156 0)"/>
      </g>
     </g>
    </g>
    <g id="ytick_6">
     <g id="line2d_11">
      <g>
       <use xlink:href="#m9722268767" x="61.065625" y="63.36" style="stroke: #000000; stroke-width: 0.8"/>
      </g>
     </g>
     <g id="text_12">
      <!-- 1.0 -->
      <g transform="translate(28.620625 69.43875) scale(0.16 -0.16)">
       <use xlink:href="#DejaVuSans-31"/>
       <use xlink:href="#DejaVuSans-2e" transform="translate(63.623047 0)"/>
       <use xlink:href="#DejaVuSans-30" transform="translate(95.410156 0)"/>
      </g>
     </g>
    </g>
    <g id="text_13">
     <!-- Score -->
     <g transform="translate(20.877187 245.424219) rotate(-90) scale(0.18 -0.18)">
      <defs>
       <path id="DejaVuSans-53" d="M 3425 4513 
L 3425 3897 
Q 3066 4069 2747 4153 
Q 2428 4238 2131 4238 
Q 1616 4238 1336 4038 
Q 1056 3838 1056 3469 
Q 1056 3159 1242 3001 
Q 1428 2844 1947 2747 
L 2328 2669 
Q 3034 2534 3370 2195 
Q 3706 1856 3706 1288 
Q 3706 609 3251 259 
Q 2797 -91 1919 -91 
Q 1588 -91 1214 -16 
Q 841 59 441 206 
L 441 856 
Q 825 641 1194 531 
Q 1563 422 1919 422 
Q 2459 422 2753 634 
Q 3047 847 3047 1241 
Q 3047 1584 2836 1778 
Q 2625 1972 2144 2069 
L 1759 2144 
Q 1053 2284 737 2584 
Q 422 2884 422 3419 
Q 422 4038 858 4394 
Q 1294 4750 2059 4750 
Q 2388 4750 2728 4690 
Q 3069 4631 3425 4513 
z
" transform="scale(0.015625)"/>
       <path id="DejaVuSans-63" d="M 3122 3366 
L 3122 2828 
Q 2878 2963 2633 3030 
Q 2388 3097 2138 3097 
Q 1578 3097 1268 2742 
Q 959 2388 959 1747 
Q 959 1106 1268 751 
Q 1578 397 2138 397 
Q 2388 397 2633 464 
Q 2878 531 3122 666 
L 3122 134 
Q 2881 22 2623 -34 
Q 2366 -91 2075 -91 
Q 1284 -91 818 406 
Q 353 903 353 1747 
Q 353 2603 823 3093 
Q 1294 3584 2113 3584 
Q 2378 3584 2631 3529 
Q 2884 3475 3122 3366 
z
" transform="scale(0.015625)"/>
       <path id="DejaVuSans-6f" d="M 1959 3097 
Q 1497 3097 1228 2736 
Q 959 2375 959 1747 
Q 959 1119 1226 758 
Q 1494 397 1959 397 
Q 2419 397 2687 759 
Q 2956 1122 2956 1747 
Q 2956 2369 2687 2733 
Q 2419 3097 1959 3097 
z
M 1959 3584 
Q 2709 3584 3137 3096 
Q 3566 2609 3566 1747 
Q 3566 888 3137 398 
Q 2709 -91 1959 -91 
Q 1206 -91 779 398 
Q 353 888 353 1747 
Q 353 2609 779 3096 
Q 1206 3584 1959 3584 
z
" transform="scale(0.015625)"/>
       <path id="DejaVuSans-65" d="M 3597 1894 
L 3597 1613 
L 953 1613 
Q 991 1019 1311 708 
Q 1631 397 2203 397 
Q 2534 397 2845 478 
Q 3156 559 3463 722 
L 3463 178 
Q 3153 47 2828 -22 
Q 2503 -91 2169 -91 
Q 1331 -91 842 396 
Q 353 884 353 1716 
Q 353 2575 817 3079 
Q 1281 3584 2069 3584 
Q 2775 3584 3186 3129 
Q 3597 2675 3597 1894 
z
M 3022 2063 
Q 3016 2534 2758 2815 
Q 2500 3097 2075 3097 
Q 1594 3097 1305 2825 
Q 1016 2553 972 2059 
L 3022 2063 
z
" transform="scale(0.015625)"/>
      </defs>
      <use xlink:href="#DejaVuSans-53"/>
      <use xlink:href="#DejaVuSans-63" transform="translate(63.476562 0)"/>
      <use xlink:href="#DejaVuSans-6f" transform="translate(118.457031 0)"/>
      <use xlink:href="#DejaVuSans-72" transform="translate(179.638672 0)"/>
      <use xlink:href="#DejaVuSans-65" transform="translate(218.501953 0)"/>
     </g>
    </g>
   </g>
   <g id="line2d_12">
    <path d="M 71.99358 77.392204 
L 126.633352 75.387604 
L 181.273125 71.352866 
L 235.912898 85.340382 
L 290.55267 75.349299 
" clip-path="url(#p5120504adc)" style="fill: none; stroke: #6c8ebf; stroke-width: 3; stroke-linecap: square"/>
    <defs>
     <path id="m6881fbd8e1" d="M 0 4 
C 1.060812 4 2.078319 3.578535 2.828427 2.828427 
C 3.578535 2.078319 4 1.060812 4 0 
C 4 -1.060812 3.578535 -2.078319 2.828427 -2.828427 
C 2.078319 -3.578535 1.060812 -4 0 -4 
C -1.060812 -4 -2.078319 -3.578535 -2.828427 -2.828427 
C -3.578535 -2.078319 -4 -1.060812 -4 0 
C -4 1.060812 -3.578535 2.078319 -2.828427 2.828427 
C -2.078319 3.578535 -1.060812 4 0 4 
z
" style="stroke: #6c8ebf"/>
    </defs>
    <g clip-path="url(#p5120504adc)">
     <use xlink:href="#m6881fbd8e1" x="71.99358" y="77.392204" style="fill: #6c8ebf; stroke: #6c8ebf"/>
     <use xlink:href="#m6881fbd8e1" x="126.633352" y="75.387604" style="fill: #6c8ebf; stroke: #6c8ebf"/>
     <use xlink:href="#m6881fbd8e1" x="181.273125" y="71.352866" style="fill: #6c8ebf; stroke: #6c8ebf"/>
     <use xlink:href="#m6881fbd8e1" x="235.912898" y="85.340382" style="fill: #6c8ebf; stroke: #6c8ebf"/>
     <use xlink:href="#m6881fbd8e1" x="290.55267" y="75.349299" style="fill: #6c8ebf; stroke: #6c8ebf"/>
    </g>
   </g>
   <g id="line2d_13">
    <path d="M 71.99358 182.494177 
L 126.633352 198.378734 
L 181.273125 224.242051 
L 235.912898 200.109744 
L 290.55267 159.889231 
" clip-path="url(#p5120504adc)" style="fill: none; stroke: #a20025; stroke-width: 3; stroke-linecap: square"/>
    <defs>
     <path id="m5f2837f904" d="M 0 4 
C 1.060812 4 2.078319 3.578535 2.828427 2.828427 
C 3.578535 2.078319 4 1.060812 4 0 
C 4 -1.060812 3.578535 -2.078319 2.828427 -2.828427 
C 2.078319 -3.578535 1.060812 -4 0 -4 
C -1.060812 -4 -2.078319 -3.578535 -2.828427 -2.828427 
C -3.578535 -2.078319 -4 -1.060812 -4 0 
C -4 1.060812 -3.578535 2.078319 -2.828427 2.828427 
C -2.078319 3.578535 -1.060812 4 0 4 
z
" style="stroke: #a20025"/>
    </defs>
    <g clip-path="url(#p5120504adc)">
     <use xlink:href="#m5f2837f904" x="71.99358" y="182.494177" style="fill: #a20025; stroke: #a20025"/>
     <use xlink:href="#m5f2837f904" x="126.633352" y="198.378734" style="fill: #a20025; stroke: #a20025"/>
     <use xlink:href="#m5f2837f904" x="181.273125" y="224.242051" style="fill: #a20025; stroke: #a20025"/>
     <use xlink:href="#m5f2837f904" x="235.912898" y="200.109744" style="fill: #a20025; stroke: #a20025"/>
     <use xlink:href="#m5f2837f904" x="290.55267" y="159.889231" style="fill: #a20025; stroke: #a20025"/>
    </g>
   </g>
   <g id="patch_3">
    <path d="M 61.065625 377.08 
L 61.065625 63.36 
" style="fill: none; stroke: #000000; stroke-width: 0.8; stroke-linejoin: miter; stroke-linecap: square"/>
   </g>
   <g id="patch_4">
    <path d="M 301.480625 377.08 
L 301.480625 63.36 
" style="fill: none; stroke: #000000; stroke-width: 0.8; stroke-linejoin: miter; stroke-linecap: square"/>
   </g>
   <g id="patch_5">
    <path d="M 61.065625 377.08 
L 301.480625 377.08 
" style="fill: none; stroke: #000000; stroke-width: 0.8; stroke-linejoin: miter; stroke-linecap: square"/>
   </g>
   <g id="patch_6">
    <path d="M 61.065625 63.36 
L 301.480625 63.36 
" style="fill: none; stroke: #000000; stroke-width: 0.8; stroke-linejoin: miter; stroke-linecap: square"/>
   </g>
   <g id="text_14">
    <!-- Acc -->
    <g transform="translate(165.376875 57.36) scale(0.18 -0.18)">
     <defs>
      <path id="DejaVuSans-41" d="M 2188 4044 
L 1331 1722 
L 3047 1722 
L 2188 4044 
z
M 1831 4666 
L 2547 4666 
L 4325 0 
L 3669 0 
L 3244 1197 
L 1141 1197 
L 716 0 
L 50 0 
L 1831 4666 
z
" transform="scale(0.015625)"/>
     </defs>
     <use xlink:href="#DejaVuSans-41"/>
     <use xlink:href="#DejaVuSans-63" transform="translate(66.658203 0)"/>
     <use xlink:href="#DejaVuSans-63" transform="translate(121.638672 0)"/>
    </g>
   </g>
   <g id="legend_1">
    <g id="patch_7">
     <path d="M 73.665625 368.08 
L 220.151875 368.08 
Q 223.751875 368.08 223.751875 364.48 
L 223.751875 313.43875 
Q 223.751875 309.83875 220.151875 309.83875 
L 73.665625 309.83875 
Q 70.065625 309.83875 70.065625 313.43875 
L 70.065625 364.48 
Q 70.065625 368.08 73.665625 368.08 
z
" style="fill: #ffffff; opacity: 0.8; stroke: #cccccc; stroke-linejoin: miter"/>
    </g>
    <g id="line2d_14">
     <path d="M 77.265625 324.415937 
L 95.265625 324.415937 
L 113.265625 324.415937 
" style="fill: none; stroke: #6c8ebf; stroke-width: 3; stroke-linecap: square"/>
     <g>
      <use xlink:href="#m6881fbd8e1" x="95.265625" y="324.415937" style="fill: #6c8ebf; stroke: #6c8ebf"/>
     </g>
    </g>
    <g id="text_15">
     <!-- Training -->
     <g transform="translate(127.665625 330.715937) scale(0.18 -0.18)">
      <defs>
       <path id="DejaVuSans-6e" d="M 3513 2113 
L 3513 0 
L 2938 0 
L 2938 2094 
Q 2938 2591 2744 2837 
Q 2550 3084 2163 3084 
Q 1697 3084 1428 2787 
Q 1159 2491 1159 1978 
L 1159 0 
L 581 0 
L 581 3500 
L 1159 3500 
L 1159 2956 
Q 1366 3272 1645 3428 
Q 1925 3584 2291 3584 
Q 2894 3584 3203 3211 
Q 3513 2838 3513 2113 
z
" transform="scale(0.015625)"/>
       <path id="DejaVuSans-67" d="M 2906 1791 
Q 2906 2416 2648 2759 
Q 2391 3103 1925 3103 
Q 1463 3103 1205 2759 
Q 947 2416 947 1791 
Q 947 1169 1205 825 
Q 1463 481 1925 481 
Q 2391 481 2648 825 
Q 2906 1169 2906 1791 
z
M 3481 434 
Q 3481 -459 3084 -895 
Q 2688 -1331 1869 -1331 
Q 1566 -1331 1297 -1286 
Q 1028 -1241 775 -1147 
L 775 -588 
Q 1028 -725 1275 -790 
Q 1522 -856 1778 -856 
Q 2344 -856 2625 -561 
Q 2906 -266 2906 331 
L 2906 616 
Q 2728 306 2450 153 
Q 2172 0 1784 0 
Q 1141 0 747 490 
Q 353 981 353 1791 
Q 353 2603 747 3093 
Q 1141 3584 1784 3584 
Q 2172 3584 2450 3431 
Q 2728 3278 2906 2969 
L 2906 3500 
L 3481 3500 
L 3481 434 
z
" transform="scale(0.015625)"/>
      </defs>
      <use xlink:href="#DejaVuSans-54"/>
      <use xlink:href="#DejaVuSans-72" transform="translate(46.333984 0)"/>
      <use xlink:href="#DejaVuSans-61" transform="translate(87.447266 0)"/>
      <use xlink:href="#DejaVuSans-69" transform="translate(148.726562 0)"/>
      <use xlink:href="#DejaVuSans-6e" transform="translate(176.509766 0)"/>
      <use xlink:href="#DejaVuSans-69" transform="translate(239.888672 0)"/>
      <use xlink:href="#DejaVuSans-6e" transform="translate(267.671875 0)"/>
      <use xlink:href="#DejaVuSans-67" transform="translate(331.050781 0)"/>
     </g>
    </g>
    <g id="line2d_15">
     <path d="M 77.265625 350.836562 
L 95.265625 350.836562 
L 113.265625 350.836562 
" style="fill: none; stroke: #a20025; stroke-width: 3; stroke-linecap: square"/>
     <g>
      <use xlink:href="#m5f2837f904" x="95.265625" y="350.836562" style="fill: #a20025; stroke: #a20025"/>
     </g>
    </g>
    <g id="text_16">
     <!-- Validation -->
     <g transform="translate(127.665625 357.136562) scale(0.18 -0.18)">
      <defs>
       <path id="DejaVuSans-64" d="M 2906 2969 
L 2906 4863 
L 3481 4863 
L 3481 0 
L 2906 0 
L 2906 525 
Q 2725 213 2448 61 
Q 2172 -91 1784 -91 
Q 1150 -91 751 415 
Q 353 922 353 1747 
Q 353 2572 751 3078 
Q 1150 3584 1784 3584 
Q 2172 3584 2448 3432 
Q 2725 3281 2906 2969 
z
M 947 1747 
Q 947 1113 1208 752 
Q 1469 391 1925 391 
Q 2381 391 2643 752 
Q 2906 1113 2906 1747 
Q 2906 2381 2643 2742 
Q 2381 3103 1925 3103 
Q 1469 3103 1208 2742 
Q 947 2381 947 1747 
z
" transform="scale(0.015625)"/>
       <path id="DejaVuSans-74" d="M 1172 4494 
L 1172 3500 
L 2356 3500 
L 2356 3053 
L 1172 3053 
L 1172 1153 
Q 1172 725 1289 603 
Q 1406 481 1766 481 
L 2356 481 
L 2356 0 
L 1766 0 
Q 1100 0 847 248 
Q 594 497 594 1153 
L 594 3053 
L 172 3053 
L 172 3500 
L 594 3500 
L 594 4494 
L 1172 4494 
z
" transform="scale(0.015625)"/>
      </defs>
      <use xlink:href="#DejaVuSans-56"/>
      <use xlink:href="#DejaVuSans-61" transform="translate(60.658203 0)"/>
      <use xlink:href="#DejaVuSans-6c" transform="translate(121.9375 0)"/>
      <use xlink:href="#DejaVuSans-69" transform="translate(149.720703 0)"/>
      <use xlink:href="#DejaVuSans-64" transform="translate(177.503906 0)"/>
      <use xlink:href="#DejaVuSans-61" transform="translate(240.980469 0)"/>
      <use xlink:href="#DejaVuSans-74" transform="translate(302.259766 0)"/>
      <use xlink:href="#DejaVuSans-69" transform="translate(341.46875 0)"/>
      <use xlink:href="#DejaVuSans-6f" transform="translate(369.251953 0)"/>
      <use xlink:href="#DejaVuSans-6e" transform="translate(430.433594 0)"/>
     </g>
    </g>
   </g>
  </g>
  <g id="axes_2">
   <g id="patch_8">
    <path d="M 315.780625 377.08 
L 556.195625 377.08 
L 556.195625 63.36 
L 315.780625 63.36 
z
" style="fill: #ffffff"/>
   </g>
   <g id="matplotlib.axis_3">
    <g id="xtick_6">
     <g id="line2d_16">
      <g>
       <use xlink:href="#m478cdcf4a9" x="326.70858" y="377.08" style="stroke: #000000; stroke-width: 0.8"/>
      </g>
     </g>
     <g id="text_17">
      <!-- 1 -->
      <g transform="translate(321.61858 396.2375) scale(0.16 -0.16)">
       <use xlink:href="#DejaVuSans-31"/>
      </g>
     </g>
    </g>
    <g id="xtick_7">
     <g id="line2d_17">
      <g>
       <use xlink:href="#m478cdcf4a9" x="381.348352" y="377.08" style="stroke: #000000; stroke-width: 0.8"/>
      </g>
     </g>
     <g id="text_18">
      <!-- 2 -->
      <g transform="translate(376.258352 396.2375) scale(0.16 -0.16)">
       <use xlink:href="#DejaVuSans-32"/>
      </g>
     </g>
    </g>
    <g id="xtick_8">
     <g id="line2d_18">
      <g>
       <use xlink:href="#m478cdcf4a9" x="435.988125" y="377.08" style="stroke: #000000; stroke-width: 0.8"/>
      </g>
     </g>
     <g id="text_19">
      <!-- 3 -->
      <g transform="translate(430.898125 396.2375) scale(0.16 -0.16)">
       <use xlink:href="#DejaVuSans-33"/>
      </g>
     </g>
    </g>
    <g id="xtick_9">
     <g id="line2d_19">
      <g>
       <use xlink:href="#m478cdcf4a9" x="490.627898" y="377.08" style="stroke: #000000; stroke-width: 0.8"/>
      </g>
     </g>
     <g id="text_20">
      <!-- 4 -->
      <g transform="translate(485.537898 396.2375) scale(0.16 -0.16)">
       <use xlink:href="#DejaVuSans-34"/>
      </g>
     </g>
    </g>
    <g id="xtick_10">
     <g id="line2d_20">
      <g>
       <use xlink:href="#m478cdcf4a9" x="545.26767" y="377.08" style="stroke: #000000; stroke-width: 0.8"/>
      </g>
     </g>
     <g id="text_21">
      <!-- 5 -->
      <g transform="translate(540.17767 396.2375) scale(0.16 -0.16)">
       <use xlink:href="#DejaVuSans-35"/>
      </g>
     </g>
    </g>
    <g id="text_22">
     <!-- CV Trials -->
     <g transform="translate(397.612969 417.242187) scale(0.18 -0.18)">
      <use xlink:href="#DejaVuSans-43"/>
      <use xlink:href="#DejaVuSans-56" transform="translate(69.824219 0)"/>
      <use xlink:href="#DejaVuSans-20" transform="translate(138.232422 0)"/>
      <use xlink:href="#DejaVuSans-54" transform="translate(170.019531 0)"/>
      <use xlink:href="#DejaVuSans-72" transform="translate(216.353516 0)"/>
      <use xlink:href="#DejaVuSans-69" transform="translate(257.466797 0)"/>
      <use xlink:href="#DejaVuSans-61" transform="translate(285.25 0)"/>
      <use xlink:href="#DejaVuSans-6c" transform="translate(346.529297 0)"/>
      <use xlink:href="#DejaVuSans-73" transform="translate(374.3125 0)"/>
     </g>
    </g>
   </g>
   <g id="matplotlib.axis_4">
    <g id="ytick_7">
     <g id="line2d_21">
      <g>
       <use xlink:href="#m9722268767" x="315.780625" y="377.08" style="stroke: #000000; stroke-width: 0.8"/>
      </g>
     </g>
    </g>
    <g id="ytick_8">
     <g id="line2d_22">
      <g>
       <use xlink:href="#m9722268767" x="315.780625" y="314.336" style="stroke: #000000; stroke-width: 0.8"/>
      </g>
     </g>
    </g>
    <g id="ytick_9">
     <g id="line2d_23">
      <g>
       <use xlink:href="#m9722268767" x="315.780625" y="251.592" style="stroke: #000000; stroke-width: 0.8"/>
      </g>
     </g>
    </g>
    <g id="ytick_10">
     <g id="line2d_24">
      <g>
       <use xlink:href="#m9722268767" x="315.780625" y="188.848" style="stroke: #000000; stroke-width: 0.8"/>
      </g>
     </g>
    </g>
    <g id="ytick_11">
     <g id="line2d_25">
      <g>
       <use xlink:href="#m9722268767" x="315.780625" y="126.104" style="stroke: #000000; stroke-width: 0.8"/>
      </g>
     </g>
    </g>
    <g id="ytick_12">
     <g id="line2d_26">
      <g>
       <use xlink:href="#m9722268767" x="315.780625" y="63.36" style="stroke: #000000; stroke-width: 0.8"/>
      </g>
     </g>
    </g>
   </g>
   <g id="line2d_27">
    <path d="M 326.70858 69.223925 
L 381.348352 72.034286 
L 435.988125 63.36 
L 490.627898 66.362105 
L 545.26767 71.994495 
" clip-path="url(#p7d02c2b961)" style="fill: none; stroke: #6c8ebf; stroke-width: 3; stroke-linecap: square"/>
    <g clip-path="url(#p7d02c2b961)">
     <use xlink:href="#m6881fbd8e1" x="326.70858" y="69.223925" style="fill: #6c8ebf; stroke: #6c8ebf"/>
     <use xlink:href="#m6881fbd8e1" x="381.348352" y="72.034286" style="fill: #6c8ebf; stroke: #6c8ebf"/>
     <use xlink:href="#m6881fbd8e1" x="435.988125" y="63.36" style="fill: #6c8ebf; stroke: #6c8ebf"/>
     <use xlink:href="#m6881fbd8e1" x="490.627898" y="66.362105" style="fill: #6c8ebf; stroke: #6c8ebf"/>
     <use xlink:href="#m6881fbd8e1" x="545.26767" y="71.994495" style="fill: #6c8ebf; stroke: #6c8ebf"/>
    </g>
   </g>
   <g id="line2d_28">
    <path d="M 326.70858 167.933333 
L 381.348352 178.390667 
L 435.988125 186.607143 
L 490.627898 107.134884 
L 545.26767 113.5552 
" clip-path="url(#p7d02c2b961)" style="fill: none; stroke: #a20025; stroke-width: 3; stroke-linecap: square"/>
    <g clip-path="url(#p7d02c2b961)">
     <use xlink:href="#m5f2837f904" x="326.70858" y="167.933333" style="fill: #a20025; stroke: #a20025"/>
     <use xlink:href="#m5f2837f904" x="381.348352" y="178.390667" style="fill: #a20025; stroke: #a20025"/>
     <use xlink:href="#m5f2837f904" x="435.988125" y="186.607143" style="fill: #a20025; stroke: #a20025"/>
     <use xlink:href="#m5f2837f904" x="490.627898" y="107.134884" style="fill: #a20025; stroke: #a20025"/>
     <use xlink:href="#m5f2837f904" x="545.26767" y="113.5552" style="fill: #a20025; stroke: #a20025"/>
    </g>
   </g>
   <g id="patch_9">
    <path d="M 315.780625 377.08 
L 315.780625 63.36 
" style="fill: none; stroke: #000000; stroke-width: 0.8; stroke-linejoin: miter; stroke-linecap: square"/>
   </g>
   <g id="patch_10">
    <path d="M 556.195625 377.08 
L 556.195625 63.36 
" style="fill: none; stroke: #000000; stroke-width: 0.8; stroke-linejoin: miter; stroke-linecap: square"/>
   </g>
   <g id="patch_11">
    <path d="M 315.780625 377.08 
L 556.195625 377.08 
" style="fill: none; stroke: #000000; stroke-width: 0.8; stroke-linejoin: miter; stroke-linecap: square"/>
   </g>
   <g id="patch_12">
    <path d="M 315.780625 63.36 
L 556.195625 63.36 
" style="fill: none; stroke: #000000; stroke-width: 0.8; stroke-linejoin: miter; stroke-linecap: square"/>
   </g>
   <g id="text_23">
    <!-- Prec Macro -->
    <g transform="translate(386.641406 57.36) scale(0.18 -0.18)">
     <defs>
      <path id="DejaVuSans-50" d="M 1259 4147 
L 1259 2394 
L 2053 2394 
Q 2494 2394 2734 2622 
Q 2975 2850 2975 3272 
Q 2975 3691 2734 3919 
Q 2494 4147 2053 4147 
L 1259 4147 
z
M 628 4666 
L 2053 4666 
Q 2838 4666 3239 4311 
Q 3641 3956 3641 3272 
Q 3641 2581 3239 2228 
Q 2838 1875 2053 1875 
L 1259 1875 
L 1259 0 
L 628 0 
L 628 4666 
z
" transform="scale(0.015625)"/>
      <path id="DejaVuSans-4d" d="M 628 4666 
L 1569 4666 
L 2759 1491 
L 3956 4666 
L 4897 4666 
L 4897 0 
L 4281 0 
L 4281 4097 
L 3078 897 
L 2444 897 
L 1241 4097 
L 1241 0 
L 628 0 
L 628 4666 
z
" transform="scale(0.015625)"/>
     </defs>
     <use xlink:href="#DejaVuSans-50"/>
     <use xlink:href="#DejaVuSans-72" transform="translate(58.552734 0)"/>
     <use xlink:href="#DejaVuSans-65" transform="translate(97.416016 0)"/>
     <use xlink:href="#DejaVuSans-63" transform="translate(158.939453 0)"/>
     <use xlink:href="#DejaVuSans-20" transform="translate(213.919922 0)"/>
     <use xlink:href="#DejaVuSans-4d" transform="translate(245.707031 0)"/>
     <use xlink:href="#DejaVuSans-61" transform="translate(331.986328 0)"/>
     <use xlink:href="#DejaVuSans-63" transform="translate(393.265625 0)"/>
     <use xlink:href="#DejaVuSans-72" transform="translate(448.246094 0)"/>
     <use xlink:href="#DejaVuSans-6f" transform="translate(487.109375 0)"/>
    </g>
   </g>
  </g>
  <g id="axes_3">
   <g id="patch_13">
    <path d="M 570.495625 377.08 
L 810.910625 377.08 
L 810.910625 63.36 
L 570.495625 63.36 
z
" style="fill: #ffffff"/>
   </g>
   <g id="matplotlib.axis_5">
    <g id="xtick_11">
     <g id="line2d_29">
      <g>
       <use xlink:href="#m478cdcf4a9" x="581.42358" y="377.08" style="stroke: #000000; stroke-width: 0.8"/>
      </g>
     </g>
     <g id="text_24">
      <!-- 1 -->
      <g transform="translate(576.33358 396.2375) scale(0.16 -0.16)">
       <use xlink:href="#DejaVuSans-31"/>
      </g>
     </g>
    </g>
    <g id="xtick_12">
     <g id="line2d_30">
      <g>
       <use xlink:href="#m478cdcf4a9" x="636.063352" y="377.08" style="stroke: #000000; stroke-width: 0.8"/>
      </g>
     </g>
     <g id="text_25">
      <!-- 2 -->
      <g transform="translate(630.973352 396.2375) scale(0.16 -0.16)">
       <use xlink:href="#DejaVuSans-32"/>
      </g>
     </g>
    </g>
    <g id="xtick_13">
     <g id="line2d_31">
      <g>
       <use xlink:href="#m478cdcf4a9" x="690.703125" y="377.08" style="stroke: #000000; stroke-width: 0.8"/>
      </g>
     </g>
     <g id="text_26">
      <!-- 3 -->
      <g transform="translate(685.613125 396.2375) scale(0.16 -0.16)">
       <use xlink:href="#DejaVuSans-33"/>
      </g>
     </g>
    </g>
    <g id="xtick_14">
     <g id="line2d_32">
      <g>
       <use xlink:href="#m478cdcf4a9" x="745.342898" y="377.08" style="stroke: #000000; stroke-width: 0.8"/>
      </g>
     </g>
     <g id="text_27">
      <!-- 4 -->
      <g transform="translate(740.252898 396.2375) scale(0.16 -0.16)">
       <use xlink:href="#DejaVuSans-34"/>
      </g>
     </g>
    </g>
    <g id="xtick_15">
     <g id="line2d_33">
      <g>
       <use xlink:href="#m478cdcf4a9" x="799.98267" y="377.08" style="stroke: #000000; stroke-width: 0.8"/>
      </g>
     </g>
     <g id="text_28">
      <!-- 5 -->
      <g transform="translate(794.89267 396.2375) scale(0.16 -0.16)">
       <use xlink:href="#DejaVuSans-35"/>
      </g>
     </g>
    </g>
    <g id="text_29">
     <!-- CV Trials -->
     <g transform="translate(652.327969 417.242187) scale(0.18 -0.18)">
      <use xlink:href="#DejaVuSans-43"/>
      <use xlink:href="#DejaVuSans-56" transform="translate(69.824219 0)"/>
      <use xlink:href="#DejaVuSans-20" transform="translate(138.232422 0)"/>
      <use xlink:href="#DejaVuSans-54" transform="translate(170.019531 0)"/>
      <use xlink:href="#DejaVuSans-72" transform="translate(216.353516 0)"/>
      <use xlink:href="#DejaVuSans-69" transform="translate(257.466797 0)"/>
      <use xlink:href="#DejaVuSans-61" transform="translate(285.25 0)"/>
      <use xlink:href="#DejaVuSans-6c" transform="translate(346.529297 0)"/>
      <use xlink:href="#DejaVuSans-73" transform="translate(374.3125 0)"/>
     </g>
    </g>
   </g>
   <g id="matplotlib.axis_6">
    <g id="ytick_13">
     <g id="line2d_34">
      <g>
       <use xlink:href="#m9722268767" x="570.495625" y="377.08" style="stroke: #000000; stroke-width: 0.8"/>
      </g>
     </g>
    </g>
    <g id="ytick_14">
     <g id="line2d_35">
      <g>
       <use xlink:href="#m9722268767" x="570.495625" y="314.336" style="stroke: #000000; stroke-width: 0.8"/>
      </g>
     </g>
    </g>
    <g id="ytick_15">
     <g id="line2d_36">
      <g>
       <use xlink:href="#m9722268767" x="570.495625" y="251.592" style="stroke: #000000; stroke-width: 0.8"/>
      </g>
     </g>
    </g>
    <g id="ytick_16">
     <g id="line2d_37">
      <g>
       <use xlink:href="#m9722268767" x="570.495625" y="188.848" style="stroke: #000000; stroke-width: 0.8"/>
      </g>
     </g>
    </g>
    <g id="ytick_17">
     <g id="line2d_38">
      <g>
       <use xlink:href="#m9722268767" x="570.495625" y="126.104" style="stroke: #000000; stroke-width: 0.8"/>
      </g>
     </g>
    </g>
    <g id="ytick_18">
     <g id="line2d_39">
      <g>
       <use xlink:href="#m9722268767" x="570.495625" y="63.36" style="stroke: #000000; stroke-width: 0.8"/>
      </g>
     </g>
    </g>
   </g>
   <g id="line2d_40">
    <path d="M 581.42358 77.817143 
L 636.063352 72.034286 
L 690.703125 74.872661 
L 745.342898 92.141651 
L 799.98267 71.994495 
" clip-path="url(#pfed8a03a02)" style="fill: none; stroke: #6c8ebf; stroke-width: 3; stroke-linecap: square"/>
    <g clip-path="url(#pfed8a03a02)">
     <use xlink:href="#m6881fbd8e1" x="581.42358" y="77.817143" style="fill: #6c8ebf; stroke: #6c8ebf"/>
     <use xlink:href="#m6881fbd8e1" x="636.063352" y="72.034286" style="fill: #6c8ebf; stroke: #6c8ebf"/>
     <use xlink:href="#m6881fbd8e1" x="690.703125" y="74.872661" style="fill: #6c8ebf; stroke: #6c8ebf"/>
     <use xlink:href="#m6881fbd8e1" x="745.342898" y="92.141651" style="fill: #6c8ebf; stroke: #6c8ebf"/>
     <use xlink:href="#m6881fbd8e1" x="799.98267" y="71.994495" style="fill: #6c8ebf; stroke: #6c8ebf"/>
    </g>
   </g>
   <g id="line2d_41">
    <path d="M 581.42358 120.4 
L 636.063352 131.808 
L 690.703125 167.933333 
L 745.342898 226.02963 
L 799.98267 156.314074 
" clip-path="url(#pfed8a03a02)" style="fill: none; stroke: #a20025; stroke-width: 3; stroke-linecap: square"/>
    <g clip-path="url(#pfed8a03a02)">
     <use xlink:href="#m5f2837f904" x="581.42358" y="120.4" style="fill: #a20025; stroke: #a20025"/>
     <use xlink:href="#m5f2837f904" x="636.063352" y="131.808" style="fill: #a20025; stroke: #a20025"/>
     <use xlink:href="#m5f2837f904" x="690.703125" y="167.933333" style="fill: #a20025; stroke: #a20025"/>
     <use xlink:href="#m5f2837f904" x="745.342898" y="226.02963" style="fill: #a20025; stroke: #a20025"/>
     <use xlink:href="#m5f2837f904" x="799.98267" y="156.314074" style="fill: #a20025; stroke: #a20025"/>
    </g>
   </g>
   <g id="patch_14">
    <path d="M 570.495625 377.08 
L 570.495625 63.36 
" style="fill: none; stroke: #000000; stroke-width: 0.8; stroke-linejoin: miter; stroke-linecap: square"/>
   </g>
   <g id="patch_15">
    <path d="M 810.910625 377.08 
L 810.910625 63.36 
" style="fill: none; stroke: #000000; stroke-width: 0.8; stroke-linejoin: miter; stroke-linecap: square"/>
   </g>
   <g id="patch_16">
    <path d="M 570.495625 377.08 
L 810.910625 377.08 
" style="fill: none; stroke: #000000; stroke-width: 0.8; stroke-linejoin: miter; stroke-linecap: square"/>
   </g>
   <g id="patch_17">
    <path d="M 570.495625 63.36 
L 810.910625 63.36 
" style="fill: none; stroke: #000000; stroke-width: 0.8; stroke-linejoin: miter; stroke-linecap: square"/>
   </g>
   <g id="text_30">
    <!-- Rec Macro -->
    <g transform="translate(644.274375 57.36) scale(0.18 -0.18)">
     <defs>
      <path id="DejaVuSans-52" d="M 2841 2188 
Q 3044 2119 3236 1894 
Q 3428 1669 3622 1275 
L 4263 0 
L 3584 0 
L 2988 1197 
Q 2756 1666 2539 1819 
Q 2322 1972 1947 1972 
L 1259 1972 
L 1259 0 
L 628 0 
L 628 4666 
L 2053 4666 
Q 2853 4666 3247 4331 
Q 3641 3997 3641 3322 
Q 3641 2881 3436 2590 
Q 3231 2300 2841 2188 
z
M 1259 4147 
L 1259 2491 
L 2053 2491 
Q 2509 2491 2742 2702 
Q 2975 2913 2975 3322 
Q 2975 3731 2742 3939 
Q 2509 4147 2053 4147 
L 1259 4147 
z
" transform="scale(0.015625)"/>
     </defs>
     <use xlink:href="#DejaVuSans-52"/>
     <use xlink:href="#DejaVuSans-65" transform="translate(64.982422 0)"/>
     <use xlink:href="#DejaVuSans-63" transform="translate(126.505859 0)"/>
     <use xlink:href="#DejaVuSans-20" transform="translate(181.486328 0)"/>
     <use xlink:href="#DejaVuSans-4d" transform="translate(213.273438 0)"/>
     <use xlink:href="#DejaVuSans-61" transform="translate(299.552734 0)"/>
     <use xlink:href="#DejaVuSans-63" transform="translate(360.832031 0)"/>
     <use xlink:href="#DejaVuSans-72" transform="translate(415.8125 0)"/>
     <use xlink:href="#DejaVuSans-6f" transform="translate(454.675781 0)"/>
    </g>
   </g>
  </g>
  <g id="axes_4">
   <g id="patch_18">
    <path d="M 825.210625 377.08 
L 1065.625625 377.08 
L 1065.625625 63.36 
L 825.210625 63.36 
z
" style="fill: #ffffff"/>
   </g>
   <g id="matplotlib.axis_7">
    <g id="xtick_16">
     <g id="line2d_42">
      <g>
       <use xlink:href="#m478cdcf4a9" x="836.13858" y="377.08" style="stroke: #000000; stroke-width: 0.8"/>
      </g>
     </g>
     <g id="text_31">
      <!-- 1 -->
      <g transform="translate(831.04858 396.2375) scale(0.16 -0.16)">
       <use xlink:href="#DejaVuSans-31"/>
      </g>
     </g>
    </g>
    <g id="xtick_17">
     <g id="line2d_43">
      <g>
       <use xlink:href="#m478cdcf4a9" x="890.778352" y="377.08" style="stroke: #000000; stroke-width: 0.8"/>
      </g>
     </g>
     <g id="text_32">
      <!-- 2 -->
      <g transform="translate(885.688352 396.2375) scale(0.16 -0.16)">
       <use xlink:href="#DejaVuSans-32"/>
      </g>
     </g>
    </g>
    <g id="xtick_18">
     <g id="line2d_44">
      <g>
       <use xlink:href="#m478cdcf4a9" x="945.418125" y="377.08" style="stroke: #000000; stroke-width: 0.8"/>
      </g>
     </g>
     <g id="text_33">
      <!-- 3 -->
      <g transform="translate(940.328125 396.2375) scale(0.16 -0.16)">
       <use xlink:href="#DejaVuSans-33"/>
      </g>
     </g>
    </g>
    <g id="xtick_19">
     <g id="line2d_45">
      <g>
       <use xlink:href="#m478cdcf4a9" x="1000.057898" y="377.08" style="stroke: #000000; stroke-width: 0.8"/>
      </g>
     </g>
     <g id="text_34">
      <!-- 4 -->
      <g transform="translate(994.967898 396.2375) scale(0.16 -0.16)">
       <use xlink:href="#DejaVuSans-34"/>
      </g>
     </g>
    </g>
    <g id="xtick_20">
     <g id="line2d_46">
      <g>
       <use xlink:href="#m478cdcf4a9" x="1054.69767" y="377.08" style="stroke: #000000; stroke-width: 0.8"/>
      </g>
     </g>
     <g id="text_35">
      <!-- 5 -->
      <g transform="translate(1049.60767 396.2375) scale(0.16 -0.16)">
       <use xlink:href="#DejaVuSans-35"/>
      </g>
     </g>
    </g>
    <g id="text_36">
     <!-- CV Trials -->
     <g transform="translate(907.042969 417.242187) scale(0.18 -0.18)">
      <use xlink:href="#DejaVuSans-43"/>
      <use xlink:href="#DejaVuSans-56" transform="translate(69.824219 0)"/>
      <use xlink:href="#DejaVuSans-20" transform="translate(138.232422 0)"/>
      <use xlink:href="#DejaVuSans-54" transform="translate(170.019531 0)"/>
      <use xlink:href="#DejaVuSans-72" transform="translate(216.353516 0)"/>
      <use xlink:href="#DejaVuSans-69" transform="translate(257.466797 0)"/>
      <use xlink:href="#DejaVuSans-61" transform="translate(285.25 0)"/>
      <use xlink:href="#DejaVuSans-6c" transform="translate(346.529297 0)"/>
      <use xlink:href="#DejaVuSans-73" transform="translate(374.3125 0)"/>
     </g>
    </g>
   </g>
   <g id="matplotlib.axis_8">
    <g id="ytick_19">
     <g id="line2d_47">
      <g>
       <use xlink:href="#m9722268767" x="825.210625" y="377.08" style="stroke: #000000; stroke-width: 0.8"/>
      </g>
     </g>
    </g>
    <g id="ytick_20">
     <g id="line2d_48">
      <g>
       <use xlink:href="#m9722268767" x="825.210625" y="314.336" style="stroke: #000000; stroke-width: 0.8"/>
      </g>
     </g>
    </g>
    <g id="ytick_21">
     <g id="line2d_49">
      <g>
       <use xlink:href="#m9722268767" x="825.210625" y="251.592" style="stroke: #000000; stroke-width: 0.8"/>
      </g>
     </g>
    </g>
    <g id="ytick_22">
     <g id="line2d_50">
      <g>
       <use xlink:href="#m9722268767" x="825.210625" y="188.848" style="stroke: #000000; stroke-width: 0.8"/>
      </g>
     </g>
    </g>
    <g id="ytick_23">
     <g id="line2d_51">
      <g>
       <use xlink:href="#m9722268767" x="825.210625" y="126.104" style="stroke: #000000; stroke-width: 0.8"/>
      </g>
     </g>
    </g>
    <g id="ytick_24">
     <g id="line2d_52">
      <g>
       <use xlink:href="#m9722268767" x="825.210625" y="63.36" style="stroke: #000000; stroke-width: 0.8"/>
      </g>
     </g>
    </g>
   </g>
   <g id="line2d_53">
    <path d="M 836.13858 73.550441 
L 890.778352 72.034286 
L 945.418125 69.16963 
L 1000.057898 79.52356 
L 1054.69767 71.994495 
" clip-path="url(#pc82a11e0ba)" style="fill: none; stroke: #6c8ebf; stroke-width: 3; stroke-linecap: square"/>
    <g clip-path="url(#pc82a11e0ba)">
     <use xlink:href="#m6881fbd8e1" x="836.13858" y="73.550441" style="fill: #6c8ebf; stroke: #6c8ebf"/>
     <use xlink:href="#m6881fbd8e1" x="890.778352" y="72.034286" style="fill: #6c8ebf; stroke: #6c8ebf"/>
     <use xlink:href="#m6881fbd8e1" x="945.418125" y="69.16963" style="fill: #6c8ebf; stroke: #6c8ebf"/>
     <use xlink:href="#m6881fbd8e1" x="1000.057898" y="79.52356" style="fill: #6c8ebf; stroke: #6c8ebf"/>
     <use xlink:href="#m6881fbd8e1" x="1054.69767" y="71.994495" style="fill: #6c8ebf; stroke: #6c8ebf"/>
    </g>
   </g>
   <g id="line2d_54">
    <path d="M 836.13858 145.2 
L 890.778352 156.112 
L 945.418125 177.44 
L 1000.057898 173.323711 
L 1054.69767 135.756923 
" clip-path="url(#pc82a11e0ba)" style="fill: none; stroke: #a20025; stroke-width: 3; stroke-linecap: square"/>
    <g clip-path="url(#pc82a11e0ba)">
     <use xlink:href="#m5f2837f904" x="836.13858" y="145.2" style="fill: #a20025; stroke: #a20025"/>
     <use xlink:href="#m5f2837f904" x="890.778352" y="156.112" style="fill: #a20025; stroke: #a20025"/>
     <use xlink:href="#m5f2837f904" x="945.418125" y="177.44" style="fill: #a20025; stroke: #a20025"/>
     <use xlink:href="#m5f2837f904" x="1000.057898" y="173.323711" style="fill: #a20025; stroke: #a20025"/>
     <use xlink:href="#m5f2837f904" x="1054.69767" y="135.756923" style="fill: #a20025; stroke: #a20025"/>
    </g>
   </g>
   <g id="patch_19">
    <path d="M 825.210625 377.08 
L 825.210625 63.36 
" style="fill: none; stroke: #000000; stroke-width: 0.8; stroke-linejoin: miter; stroke-linecap: square"/>
   </g>
   <g id="patch_20">
    <path d="M 1065.625625 377.08 
L 1065.625625 63.36 
" style="fill: none; stroke: #000000; stroke-width: 0.8; stroke-linejoin: miter; stroke-linecap: square"/>
   </g>
   <g id="patch_21">
    <path d="M 825.210625 377.08 
L 1065.625625 377.08 
" style="fill: none; stroke: #000000; stroke-width: 0.8; stroke-linejoin: miter; stroke-linecap: square"/>
   </g>
   <g id="patch_22">
    <path d="M 825.210625 63.36 
L 1065.625625 63.36 
" style="fill: none; stroke: #000000; stroke-width: 0.8; stroke-linejoin: miter; stroke-linecap: square"/>
   </g>
   <g id="text_37">
    <!-- F1 Macro -->
    <g transform="translate(904.421719 57.36) scale(0.18 -0.18)">
     <defs>
      <path id="DejaVuSans-46" d="M 628 4666 
L 3309 4666 
L 3309 4134 
L 1259 4134 
L 1259 2759 
L 3109 2759 
L 3109 2228 
L 1259 2228 
L 1259 0 
L 628 0 
L 628 4666 
z
" transform="scale(0.015625)"/>
     </defs>
     <use xlink:href="#DejaVuSans-46"/>
     <use xlink:href="#DejaVuSans-31" transform="translate(57.519531 0)"/>
     <use xlink:href="#DejaVuSans-20" transform="translate(121.142578 0)"/>
     <use xlink:href="#DejaVuSans-4d" transform="translate(152.929688 0)"/>
     <use xlink:href="#DejaVuSans-61" transform="translate(239.208984 0)"/>
     <use xlink:href="#DejaVuSans-63" transform="translate(300.488281 0)"/>
     <use xlink:href="#DejaVuSans-72" transform="translate(355.46875 0)"/>
     <use xlink:href="#DejaVuSans-6f" transform="translate(394.332031 0)"/>
    </g>
   </g>
  </g>
  <g id="text_38">
   <!-- Discrepancy between Train &amp; Test Performance -->
   <g transform="translate(348.080625 19.3575) scale(0.16 -0.16)">
    <defs>
     <path id="DejaVuSans-44" d="M 1259 4147 
L 1259 519 
L 2022 519 
Q 2988 519 3436 956 
Q 3884 1394 3884 2338 
Q 3884 3275 3436 3711 
Q 2988 4147 2022 4147 
L 1259 4147 
z
M 628 4666 
L 1925 4666 
Q 3281 4666 3915 4102 
Q 4550 3538 4550 2338 
Q 4550 1131 3912 565 
Q 3275 0 1925 0 
L 628 0 
L 628 4666 
z
" transform="scale(0.015625)"/>
     <path id="DejaVuSans-70" d="M 1159 525 
L 1159 -1331 
L 581 -1331 
L 581 3500 
L 1159 3500 
L 1159 2969 
Q 1341 3281 1617 3432 
Q 1894 3584 2278 3584 
Q 2916 3584 3314 3078 
Q 3713 2572 3713 1747 
Q 3713 922 3314 415 
Q 2916 -91 2278 -91 
Q 1894 -91 1617 61 
Q 1341 213 1159 525 
z
M 3116 1747 
Q 3116 2381 2855 2742 
Q 2594 3103 2138 3103 
Q 1681 3103 1420 2742 
Q 1159 2381 1159 1747 
Q 1159 1113 1420 752 
Q 1681 391 2138 391 
Q 2594 391 2855 752 
Q 3116 1113 3116 1747 
z
" transform="scale(0.015625)"/>
     <path id="DejaVuSans-79" d="M 2059 -325 
Q 1816 -950 1584 -1140 
Q 1353 -1331 966 -1331 
L 506 -1331 
L 506 -850 
L 844 -850 
Q 1081 -850 1212 -737 
Q 1344 -625 1503 -206 
L 1606 56 
L 191 3500 
L 800 3500 
L 1894 763 
L 2988 3500 
L 3597 3500 
L 2059 -325 
z
" transform="scale(0.015625)"/>
     <path id="DejaVuSans-62" d="M 3116 1747 
Q 3116 2381 2855 2742 
Q 2594 3103 2138 3103 
Q 1681 3103 1420 2742 
Q 1159 2381 1159 1747 
Q 1159 1113 1420 752 
Q 1681 391 2138 391 
Q 2594 391 2855 752 
Q 3116 1113 3116 1747 
z
M 1159 2969 
Q 1341 3281 1617 3432 
Q 1894 3584 2278 3584 
Q 2916 3584 3314 3078 
Q 3713 2572 3713 1747 
Q 3713 922 3314 415 
Q 2916 -91 2278 -91 
Q 1894 -91 1617 61 
Q 1341 213 1159 525 
L 1159 0 
L 581 0 
L 581 4863 
L 1159 4863 
L 1159 2969 
z
" transform="scale(0.015625)"/>
     <path id="DejaVuSans-77" d="M 269 3500 
L 844 3500 
L 1563 769 
L 2278 3500 
L 2956 3500 
L 3675 769 
L 4391 3500 
L 4966 3500 
L 4050 0 
L 3372 0 
L 2619 2869 
L 1863 0 
L 1184 0 
L 269 3500 
z
" transform="scale(0.015625)"/>
     <path id="DejaVuSans-26" d="M 1556 2509 
Q 1272 2256 1139 2004 
Q 1006 1753 1006 1478 
Q 1006 1022 1337 719 
Q 1669 416 2169 416 
Q 2466 416 2725 514 
Q 2984 613 3213 813 
L 1556 2509 
z
M 1997 2859 
L 3584 1234 
Q 3769 1513 3872 1830 
Q 3975 2147 3994 2503 
L 4575 2503 
Q 4538 2091 4375 1687 
Q 4213 1284 3922 891 
L 4794 0 
L 4006 0 
L 3559 459 
Q 3234 181 2878 45 
Q 2522 -91 2113 -91 
Q 1359 -91 881 339 
Q 403 769 403 1441 
Q 403 1841 612 2192 
Q 822 2544 1241 2853 
Q 1091 3050 1012 3245 
Q 934 3441 934 3628 
Q 934 4134 1281 4442 
Q 1628 4750 2203 4750 
Q 2463 4750 2720 4694 
Q 2978 4638 3244 4525 
L 3244 3956 
Q 2972 4103 2725 4179 
Q 2478 4256 2266 4256 
Q 1938 4256 1733 4082 
Q 1528 3909 1528 3634 
Q 1528 3475 1620 3314 
Q 1713 3153 1997 2859 
z
" transform="scale(0.015625)"/>
     <path id="DejaVuSans-66" d="M 2375 4863 
L 2375 4384 
L 1825 4384 
Q 1516 4384 1395 4259 
Q 1275 4134 1275 3809 
L 1275 3500 
L 2222 3500 
L 2222 3053 
L 1275 3053 
L 1275 0 
L 697 0 
L 697 3053 
L 147 3053 
L 147 3500 
L 697 3500 
L 697 3744 
Q 697 4328 969 4595 
Q 1241 4863 1831 4863 
L 2375 4863 
z
" transform="scale(0.015625)"/>
     <path id="DejaVuSans-6d" d="M 3328 2828 
Q 3544 3216 3844 3400 
Q 4144 3584 4550 3584 
Q 5097 3584 5394 3201 
Q 5691 2819 5691 2113 
L 5691 0 
L 5113 0 
L 5113 2094 
Q 5113 2597 4934 2840 
Q 4756 3084 4391 3084 
Q 3944 3084 3684 2787 
Q 3425 2491 3425 1978 
L 3425 0 
L 2847 0 
L 2847 2094 
Q 2847 2600 2669 2842 
Q 2491 3084 2119 3084 
Q 1678 3084 1418 2786 
Q 1159 2488 1159 1978 
L 1159 0 
L 581 0 
L 581 3500 
L 1159 3500 
L 1159 2956 
Q 1356 3278 1631 3431 
Q 1906 3584 2284 3584 
Q 2666 3584 2933 3390 
Q 3200 3197 3328 2828 
z
" transform="scale(0.015625)"/>
    </defs>
    <use xlink:href="#DejaVuSans-44"/>
    <use xlink:href="#DejaVuSans-69" transform="translate(77.001953 0)"/>
    <use xlink:href="#DejaVuSans-73" transform="translate(104.785156 0)"/>
    <use xlink:href="#DejaVuSans-63" transform="translate(156.884766 0)"/>
    <use xlink:href="#DejaVuSans-72" transform="translate(211.865234 0)"/>
    <use xlink:href="#DejaVuSans-65" transform="translate(250.728516 0)"/>
    <use xlink:href="#DejaVuSans-70" transform="translate(312.251953 0)"/>
    <use xlink:href="#DejaVuSans-61" transform="translate(375.728516 0)"/>
    <use xlink:href="#DejaVuSans-6e" transform="translate(437.007812 0)"/>
    <use xlink:href="#DejaVuSans-63" transform="translate(500.386719 0)"/>
    <use xlink:href="#DejaVuSans-79" transform="translate(555.367188 0)"/>
    <use xlink:href="#DejaVuSans-20" transform="translate(614.546875 0)"/>
    <use xlink:href="#DejaVuSans-62" transform="translate(646.333984 0)"/>
    <use xlink:href="#DejaVuSans-65" transform="translate(709.810547 0)"/>
    <use xlink:href="#DejaVuSans-74" transform="translate(771.333984 0)"/>
    <use xlink:href="#DejaVuSans-77" transform="translate(810.542969 0)"/>
    <use xlink:href="#DejaVuSans-65" transform="translate(892.330078 0)"/>
    <use xlink:href="#DejaVuSans-65" transform="translate(953.853516 0)"/>
    <use xlink:href="#DejaVuSans-6e" transform="translate(1015.376953 0)"/>
    <use xlink:href="#DejaVuSans-20" transform="translate(1078.755859 0)"/>
    <use xlink:href="#DejaVuSans-54" transform="translate(1110.542969 0)"/>
    <use xlink:href="#DejaVuSans-72" transform="translate(1156.876953 0)"/>
    <use xlink:href="#DejaVuSans-61" transform="translate(1197.990234 0)"/>
    <use xlink:href="#DejaVuSans-69" transform="translate(1259.269531 0)"/>
    <use xlink:href="#DejaVuSans-6e" transform="translate(1287.052734 0)"/>
    <use xlink:href="#DejaVuSans-20" transform="translate(1350.431641 0)"/>
    <use xlink:href="#DejaVuSans-26" transform="translate(1382.21875 0)"/>
    <use xlink:href="#DejaVuSans-20" transform="translate(1460.197266 0)"/>
    <use xlink:href="#DejaVuSans-54" transform="translate(1491.984375 0)"/>
    <use xlink:href="#DejaVuSans-65" transform="translate(1536.068359 0)"/>
    <use xlink:href="#DejaVuSans-73" transform="translate(1597.591797 0)"/>
    <use xlink:href="#DejaVuSans-74" transform="translate(1649.691406 0)"/>
    <use xlink:href="#DejaVuSans-20" transform="translate(1688.900391 0)"/>
    <use xlink:href="#DejaVuSans-50" transform="translate(1720.6875 0)"/>
    <use xlink:href="#DejaVuSans-65" transform="translate(1777.365234 0)"/>
    <use xlink:href="#DejaVuSans-72" transform="translate(1838.888672 0)"/>
    <use xlink:href="#DejaVuSans-66" transform="translate(1880.001953 0)"/>
    <use xlink:href="#DejaVuSans-6f" transform="translate(1915.207031 0)"/>
    <use xlink:href="#DejaVuSans-72" transform="translate(1976.388672 0)"/>
    <use xlink:href="#DejaVuSans-6d" transform="translate(2015.751953 0)"/>
    <use xlink:href="#DejaVuSans-61" transform="translate(2113.164062 0)"/>
    <use xlink:href="#DejaVuSans-6e" transform="translate(2174.443359 0)"/>
    <use xlink:href="#DejaVuSans-63" transform="translate(2237.822266 0)"/>
    <use xlink:href="#DejaVuSans-65" transform="translate(2292.802734 0)"/>
   </g>
  </g>
 </g>
 <defs>
  <clipPath id="p5120504adc">
   <rect x="61.065625" y="63.36" width="240.415" height="313.72"/>
  </clipPath>
  <clipPath id="p7d02c2b961">
   <rect x="315.780625" y="63.36" width="240.415" height="313.72"/>
  </clipPath>
  <clipPath id="pfed8a03a02">
   <rect x="570.495625" y="63.36" width="240.415" height="313.72"/>
  </clipPath>
  <clipPath id="pc82a11e0ba">
   <rect x="825.210625" y="63.36" width="240.415" height="313.72"/>
  </clipPath>
 </defs>
</svg>
