<?xml version="1.0" encoding="utf-8" standalone="no"?>
<!DOCTYPE svg PUBLIC "-//W3C//DTD SVG 1.1//EN"
  "http://www.w3.org/Graphics/SVG/1.1/DTD/svg11.dtd">
<svg xmlns:xlink="http://www.w3.org/1999/xlink" width="1073.045pt" height="426.957187pt" viewBox="0 0 1073.045 426.957187" xmlns="http://www.w3.org/2000/svg" version="1.1">
 <metadata>
  <rdf:RDF xmlns:dc="http://purl.org/dc/elements/1.1/" xmlns:cc="http://creativecommons.org/ns#" xmlns:rdf="http://www.w3.org/1999/02/22-rdf-syntax-ns#">
   <cc:Work>
    <dc:type rdf:resource="http://purl.org/dc/dcmitype/StillImage"/>
    <dc:date>2026-07-07T20:26:06.300536</dc:date>
    <dc:format>image/svg+xml</dc:format>
    <dc:creator>
     <cc:Agent>
      <dc:title>Matplotlib v3.11.0, https://matplotlib.org/</dc:title>
     </cc:Agent>
    </dc:creator>
   </cc:Work>
  </rdf:RDF>
 </metadata>
 <defs>
  <style type="text/css">*{stroke-linejoin: round; stroke-linecap: butt}</style>
 </defs>
 <g id="figure_1">
  <g id="patch_1">
   <path d="M 0 426.957187 
L 1073.045 426.957187 
L 1073.045 0 
L 0 0 
z
" style="fill: #ffffff"/>
  </g>
  <g id="axes_1">
   <g id="patch_2">
    <path d="M 61.645 374.755781 
L 301.97 374.755781 
L 301.97 63.36 
L 61.645 63.36 
z
" style="fill: #ffffff"/>
   </g>
   <g id="matplotlib.axis_1">
    <g id="xtick_1">
     <g id="line2d_1">
      <defs>
       <path id="mcfbd383578" d="M 0 0 
L 0 3.5 
" style="stroke: #000000; stroke-width: 0.8"/>
      </defs>
      <g>
       <use xlink:href="#mcfbd383578" x="72.568864" y="374.755781" style="stroke: #000000; stroke-width: 0.8"/>
      </g>
     </g>
     <g id="text_1">
      <!-- 1 -->
      <g transform="translate(67.478864 393.912031) scale(0.16 -0.16)">
       <defs>
        <path id="DejaVuSans-14" d="M 794 531 
L 1825 531 
L 1825 4091 
L 703 3866 
L 703 4441 
L 1819 4666 
L 2450 4666 
L 2450 531 
L 3481 531 
L 3481 0 
L 794 0 
L 794 531 
z
" transform="scale(0.015625)"/>
       </defs>
       <use xlink:href="#DejaVuSans-14"/>
      </g>
     </g>
    </g>
    <g id="xtick_2">
     <g id="line2d_2">
      <g>
       <use xlink:href="#mcfbd383578" x="127.188182" y="374.755781" style="stroke: #000000; stroke-width: 0.8"/>
      </g>
     </g>
     <g id="text_2">
      <!-- 2 -->
      <g transform="translate(122.098182 393.912031) scale(0.16 -0.16)">
       <defs>
        <path id="DejaVuSans-15" d="M 1228 531 
L 3431 531 
L 3431 0 
L 469 0 
L 469 531 
Q 828 903 1448 1529 
Q 2069 2156 2228 2338 
Q 2531 2678 2651 2914 
Q 2772 3150 2772 3378 
Q 2772 3750 2511 3984 
Q 2250 4219 1831 4219 
Q 1534 4219 1204 4116 
Q 875 4013 500 3803 
L 500 4441 
Q 881 4594 1212 4672 
Q 1544 4750 1819 4750 
Q 2544 4750 2975 4387 
Q 3406 4025 3406 3419 
Q 3406 3131 3298 2873 
Q 3191 2616 2906 2266 
Q 2828 2175 2409 1742 
Q 1991 1309 1228 531 
z
" transform="scale(0.015625)"/>
       </defs>
       <use xlink:href="#DejaVuSans-15"/>
      </g>
     </g>
    </g>
    <g id="xtick_3">
     <g id="line2d_3">
      <g>
       <use xlink:href="#mcfbd383578" x="181.8075" y="374.755781" style="stroke: #000000; stroke-width: 0.8"/>
      </g>
     </g>
     <g id="text_3">
      <!-- 3 -->
      <g transform="translate(176.7175 393.912031) scale(0.16 -0.16)">
       <defs>
        <path id="DejaVuSans-16" d="M 2597 2516 
Q 3050 2419 3304 2112 
Q 3559 1806 3559 1356 
Q 3559 666 3084 287 
Q 2609 -91 1734 -91 
Q 1441 -91 1130 -33 
Q 819 25 488 141 
L 488 750 
Q 750 597 1062 519 
Q 1375 441 1716 441 
Q 2309 441 2620 675 
Q 2931 909 2931 1356 
Q 2931 1769 2642 2001 
Q 2353 2234 1838 2234 
L 1294 2234 
L 1294 2753 
L 1863 2753 
Q 2328 2753 2575 2939 
Q 2822 3125 2822 3475 
Q 2822 3834 2567 4026 
Q 2313 4219 1838 4219 
Q 1578 4219 1281 4162 
Q 984 4106 628 3988 
L 628 4550 
Q 988 4650 1302 4700 
Q 1616 4750 1894 4750 
Q 2613 4750 3031 4423 
Q 3450 4097 3450 3541 
Q 3450 3153 3228 2886 
Q 3006 2619 2597 2516 
z
" transform="scale(0.015625)"/>
       </defs>
       <use xlink:href="#DejaVuSans-16"/>
      </g>
     </g>
    </g>
    <g id="xtick_4">
     <g id="line2d_4">
      <g>
       <use xlink:href="#mcfbd383578" x="236.426818" y="374.755781" style="stroke: #000000; stroke-width: 0.8"/>
      </g>
     </g>
     <g id="text_4">
      <!-- 4 -->
      <g transform="translate(231.336818 393.912031) scale(0.16 -0.16)">
       <defs>
        <path id="DejaVuSans-17" d="M 2419 4116 
L 825 1625 
L 2419 1625 
L 2419 4116 
z
M 2253 4666 
L 3047 4666 
L 3047 1625 
L 3713 1625 
L 3713 1100 
L 3047 1100 
L 3047 0 
L 2419 0 
L 2419 1100 
L 313 1100 
L 313 1709 
L 2253 4666 
z
" transform="scale(0.015625)"/>
       </defs>
       <use xlink:href="#DejaVuSans-17"/>
      </g>
     </g>
    </g>
    <g id="xtick_5">
     <g id="line2d_5">
      <g>
       <use xlink:href="#mcfbd383578" x="291.046136" y="374.755781" style="stroke: #000000; stroke-width: 0.8"/>
      </g>
     </g>
     <g id="text_5">
      <!-- 5 -->
      <g transform="translate(285.956136 393.912031) scale(0.16 -0.16)">
       <defs>
        <path id="DejaVuSans-18" d="M 691 4666 
L 3169 4666 
L 3169 4134 
L 1269 4134 
L 1269 2991 
Q 1406 3038 1543 3061 
Q 1681 3084 1819 3084 
Q 2600 3084 3056 2656 
Q 3513 2228 3513 1497 
Q 3513 744 3044 326 
Q 2575 -91 1722 -91 
Q 1428 -91 1123 -41 
Q 819 9 494 109 
L 494 744 
Q 775 591 1075 516 
Q 1375 441 1709 441 
Q 2250 441 2565 725 
Q 2881 1009 2881 1497 
Q 2881 1984 2565 2268 
Q 2250 2553 1709 2553 
Q 1456 2553 1204 2497 
Q 953 2441 691 2322 
L 691 4666 
z
" transform="scale(0.015625)"/>
       </defs>
       <use xlink:href="#DejaVuSans-18"/>
      </g>
     </g>
    </g>
    <g id="text_6">
     <!-- CV Trials -->
     <g transform="translate(143.428125 415.432969) scale(0.18 -0.18)">
      <defs>
       <path id="DejaVuSans-26" d="M 4122 4306 
L 4122 3641 
Q 3803 3938 3442 4084 
Q 3081 4231 2675 4231 
Q 1875 4231 1450 3742 
Q 1025 3253 1025 2328 
Q 1025 1406 1450 917 
Q 1875 428 2675 428 
Q 3081 428 3442 575 
Q 3803 722 4122 1019 
L 4122 359 
Q 3791 134 3420 21 
Q 3050 -91 2638 -91 
Q 1578 -91 968 557 
Q 359 1206 359 2328 
Q 359 3453 968 4101 
Q 1578 4750 2638 4750 
Q 3056 4750 3426 4639 
Q 3797 4528 4122 4306 
z
" transform="scale(0.015625)"/>
       <path id="DejaVuSans-39" d="M 1831 0 
L 50 4666 
L 709 4666 
L 2188 738 
L 3669 4666 
L 4325 4666 
L 2547 0 
L 1831 0 
z
" transform="scale(0.015625)"/>
       <path id="DejaVuSans-3" transform="scale(0.015625)"/>
       <path id="DejaVuSans-37" d="M -19 4666 
L 3928 4666 
L 3928 4134 
L 2272 4134 
L 2272 0 
L 1638 0 
L 1638 4134 
L -19 4134 
L -19 4666 
z
" transform="scale(0.015625)"/>
       <path id="DejaVuSans-55" d="M 2631 2963 
Q 2534 3019 2420 3045 
Q 2306 3072 2169 3072 
Q 1681 3072 1420 2755 
Q 1159 2438 1159 1844 
L 1159 0 
L 581 0 
L 581 3500 
L 1159 3500 
L 1159 2956 
Q 1341 3275 1631 3429 
Q 1922 3584 2338 3584 
Q 2397 3584 2469 3576 
Q 2541 3569 2628 3553 
L 2631 2963 
z
" transform="scale(0.015625)"/>
       <path id="DejaVuSans-4c" d="M 603 3500 
L 1178 3500 
L 1178 0 
L 603 0 
L 603 3500 
z
M 603 4863 
L 1178 4863 
L 1178 4134 
L 603 4134 
L 603 4863 
z
" transform="scale(0.015625)"/>
       <path id="DejaVuSans-44" d="M 2194 1759 
Q 1497 1759 1228 1600 
Q 959 1441 959 1056 
Q 959 750 1161 570 
Q 1363 391 1709 391 
Q 2188 391 2477 730 
Q 2766 1069 2766 1631 
L 2766 1759 
L 2194 1759 
z
M 3341 1997 
L 3341 0 
L 2766 0 
L 2766 531 
Q 2569 213 2275 61 
Q 1981 -91 1556 -91 
Q 1019 -91 701 211 
Q 384 513 384 1019 
Q 384 1609 779 1909 
Q 1175 2209 1959 2209 
L 2766 2209 
L 2766 2266 
Q 2766 2663 2505 2880 
Q 2244 3097 1772 3097 
Q 1472 3097 1187 3025 
Q 903 2953 641 2809 
L 641 3341 
Q 956 3463 1253 3523 
Q 1550 3584 1831 3584 
Q 2591 3584 2966 3190 
Q 3341 2797 3341 1997 
z
" transform="scale(0.015625)"/>
       <path id="DejaVuSans-4f" d="M 603 4863 
L 1178 4863 
L 1178 0 
L 603 0 
L 603 4863 
z
" transform="scale(0.015625)"/>
       <path id="DejaVuSans-56" d="M 2834 3397 
L 2834 2853 
Q 2591 2978 2328 3040 
Q 2066 3103 1784 3103 
Q 1356 3103 1142 2972 
Q 928 2841 928 2578 
Q 928 2378 1081 2264 
Q 1234 2150 1697 2047 
L 1894 2003 
Q 2506 1872 2764 1633 
Q 3022 1394 3022 966 
Q 3022 478 2636 193 
Q 2250 -91 1575 -91 
Q 1294 -91 989 -36 
Q 684 19 347 128 
L 347 722 
Q 666 556 975 473 
Q 1284 391 1588 391 
Q 1994 391 2212 530 
Q 2431 669 2431 922 
Q 2431 1156 2273 1281 
Q 2116 1406 1581 1522 
L 1381 1569 
Q 847 1681 609 1914 
Q 372 2147 372 2553 
Q 372 3047 722 3315 
Q 1072 3584 1716 3584 
Q 2034 3584 2315 3537 
Q 2597 3491 2834 3397 
z
" transform="scale(0.015625)"/>
      </defs>
      <use xlink:href="#DejaVuSans-26"/>
      <use xlink:href="#DejaVuSans-39" transform="translate(69.828125 0)"/>
      <use xlink:href="#DejaVuSans-3" transform="translate(138.234375 0)"/>
      <use xlink:href="#DejaVuSans-37" transform="translate(170.015625 0)"/>
      <use xlink:href="#DejaVuSans-55" transform="translate(216.390625 0)"/>
      <use xlink:href="#DejaVuSans-4c" transform="translate(257.5 0)"/>
      <use xlink:href="#DejaVuSans-44" transform="translate(285.28125 0)"/>
      <use xlink:href="#DejaVuSans-4f" transform="translate(346.5625 0)"/>
      <use xlink:href="#DejaVuSans-56" transform="translate(374.34375 0)"/>
     </g>
    </g>
   </g>
   <g id="matplotlib.axis_2">
    <g id="ytick_1">
     <g id="line2d_6">
      <defs>
       <path id="mdab358cfc0" d="M 0 0 
L -3.5 0 
" style="stroke: #000000; stroke-width: 0.8"/>
      </defs>
      <g>
       <use xlink:href="#mdab358cfc0" x="61.645" y="374.755781" style="stroke: #000000; stroke-width: 0.8"/>
      </g>
     </g>
     <g id="text_7">
      <!-- 0.5 -->
      <g transform="translate(29.2 380.833906) scale(0.16 -0.16)">
       <defs>
        <path id="DejaVuSans-13" d="M 2034 4250 
Q 1547 4250 1301 3770 
Q 1056 3291 1056 2328 
Q 1056 1369 1301 889 
Q 1547 409 2034 409 
Q 2525 409 2770 889 
Q 3016 1369 3016 2328 
Q 3016 3291 2770 3770 
Q 2525 4250 2034 4250 
z
M 2034 4750 
Q 2819 4750 3233 4129 
Q 3647 3509 3647 2328 
Q 3647 1150 3233 529 
Q 2819 -91 2034 -91 
Q 1250 -91 836 529 
Q 422 1150 422 2328 
Q 422 3509 836 4129 
Q 1250 4750 2034 4750 
z
" transform="scale(0.015625)"/>
        <path id="DejaVuSans-11" d="M 684 794 
L 1344 794 
L 1344 0 
L 684 0 
L 684 794 
z
" transform="scale(0.015625)"/>
       </defs>
       <use xlink:href="#DejaVuSans-13"/>
       <use xlink:href="#DejaVuSans-11" transform="translate(63.625 0)"/>
       <use xlink:href="#DejaVuSans-18" transform="translate(95.40625 0)"/>
      </g>
     </g>
    </g>
    <g id="ytick_2">
     <g id="line2d_7">
      <g>
       <use xlink:href="#mdab358cfc0" x="61.645" y="312.476625" style="stroke: #000000; stroke-width: 0.8"/>
      </g>
     </g>
     <g id="text_8">
      <!-- 0.6 -->
      <g transform="translate(29.2 318.55475) scale(0.16 -0.16)">
       <defs>
        <path id="DejaVuSans-19" d="M 2113 2584 
Q 1688 2584 1439 2293 
Q 1191 2003 1191 1497 
Q 1191 994 1439 701 
Q 1688 409 2113 409 
Q 2538 409 2786 701 
Q 3034 994 3034 1497 
Q 3034 2003 2786 2293 
Q 2538 2584 2113 2584 
z
M 3366 4563 
L 3366 3988 
Q 3128 4100 2886 4159 
Q 2644 4219 2406 4219 
Q 1781 4219 1451 3797 
Q 1122 3375 1075 2522 
Q 1259 2794 1537 2939 
Q 1816 3084 2150 3084 
Q 2853 3084 3261 2657 
Q 3669 2231 3669 1497 
Q 3669 778 3244 343 
Q 2819 -91 2113 -91 
Q 1303 -91 875 529 
Q 447 1150 447 2328 
Q 447 3434 972 4092 
Q 1497 4750 2381 4750 
Q 2619 4750 2861 4703 
Q 3103 4656 3366 4563 
z
" transform="scale(0.015625)"/>
       </defs>
       <use xlink:href="#DejaVuSans-13"/>
       <use xlink:href="#DejaVuSans-11" transform="translate(63.625 0)"/>
       <use xlink:href="#DejaVuSans-19" transform="translate(95.40625 0)"/>
      </g>
     </g>
    </g>
    <g id="ytick_3">
     <g id="line2d_8">
      <g>
       <use xlink:href="#mdab358cfc0" x="61.645" y="250.197469" style="stroke: #000000; stroke-width: 0.8"/>
      </g>
     </g>
     <g id="text_9">
      <!-- 0.7 -->
      <g transform="translate(29.2 256.275594) scale(0.16 -0.16)">
       <defs>
        <path id="DejaVuSans-1a" d="M 525 4666 
L 3525 4666 
L 3525 4397 
L 1831 0 
L 1172 0 
L 2766 4134 
L 525 4134 
L 525 4666 
z
" transform="scale(0.015625)"/>
       </defs>
       <use xlink:href="#DejaVuSans-13"/>
       <use xlink:href="#DejaVuSans-11" transform="translate(63.625 0)"/>
       <use xlink:href="#DejaVuSans-1a" transform="translate(95.40625 0)"/>
      </g>
     </g>
    </g>
    <g id="ytick_4">
     <g id="line2d_9">
      <g>
       <use xlink:href="#mdab358cfc0" x="61.645" y="187.918312" style="stroke: #000000; stroke-width: 0.8"/>
      </g>
     </g>
     <g id="text_10">
      <!-- 0.8 -->
      <g transform="translate(29.2 193.996437) scale(0.16 -0.16)">
       <defs>
        <path id="DejaVuSans-1b" d="M 2034 2216 
Q 1584 2216 1326 1975 
Q 1069 1734 1069 1313 
Q 1069 891 1326 650 
Q 1584 409 2034 409 
Q 2484 409 2743 651 
Q 3003 894 3003 1313 
Q 3003 1734 2745 1975 
Q 2488 2216 2034 2216 
z
M 1403 2484 
Q 997 2584 770 2862 
Q 544 3141 544 3541 
Q 544 4100 942 4425 
Q 1341 4750 2034 4750 
Q 2731 4750 3128 4425 
Q 3525 4100 3525 3541 
Q 3525 3141 3298 2862 
Q 3072 2584 2669 2484 
Q 3125 2378 3379 2068 
Q 3634 1759 3634 1313 
Q 3634 634 3220 271 
Q 2806 -91 2034 -91 
Q 1263 -91 848 271 
Q 434 634 434 1313 
Q 434 1759 690 2068 
Q 947 2378 1403 2484 
z
M 1172 3481 
Q 1172 3119 1398 2916 
Q 1625 2713 2034 2713 
Q 2441 2713 2670 2916 
Q 2900 3119 2900 3481 
Q 2900 3844 2670 4047 
Q 2441 4250 2034 4250 
Q 1625 4250 1398 4047 
Q 1172 3844 1172 3481 
z
" transform="scale(0.015625)"/>
       </defs>
       <use xlink:href="#DejaVuSans-13"/>
       <use xlink:href="#DejaVuSans-11" transform="translate(63.625 0)"/>
       <use xlink:href="#DejaVuSans-1b" transform="translate(95.40625 0)"/>
      </g>
     </g>
    </g>
    <g id="ytick_5">
     <g id="line2d_10">
      <g>
       <use xlink:href="#mdab358cfc0" x="61.645" y="125.639156" style="stroke: #000000; stroke-width: 0.8"/>
      </g>
     </g>
     <g id="text_11">
      <!-- 0.9 -->
      <g transform="translate(29.2 131.717281) scale(0.16 -0.16)">
       <defs>
        <path id="DejaVuSans-1c" d="M 703 97 
L 703 672 
Q 941 559 1184 500 
Q 1428 441 1663 441 
Q 2288 441 2617 861 
Q 2947 1281 2994 2138 
Q 2813 1869 2534 1725 
Q 2256 1581 1919 1581 
Q 1219 1581 811 2004 
Q 403 2428 403 3163 
Q 403 3881 828 4315 
Q 1253 4750 1959 4750 
Q 2769 4750 3195 4129 
Q 3622 3509 3622 2328 
Q 3622 1225 3098 567 
Q 2575 -91 1691 -91 
Q 1453 -91 1209 -44 
Q 966 3 703 97 
z
M 1959 2075 
Q 2384 2075 2632 2365 
Q 2881 2656 2881 3163 
Q 2881 3666 2632 3958 
Q 2384 4250 1959 4250 
Q 1534 4250 1286 3958 
Q 1038 3666 1038 3163 
Q 1038 2656 1286 2365 
Q 1534 2075 1959 2075 
z
" transform="scale(0.015625)"/>
       </defs>
       <use xlink:href="#DejaVuSans-13"/>
       <use xlink:href="#DejaVuSans-11" transform="translate(63.625 0)"/>
       <use xlink:href="#DejaVuSans-1c" transform="translate(95.40625 0)"/>
      </g>
     </g>
    </g>
    <g id="ytick_6">
     <g id="line2d_11">
      <g>
       <use xlink:href="#mdab358cfc0" x="61.645" y="63.36" style="stroke: #000000; stroke-width: 0.8"/>
      </g>
     </g>
     <g id="text_12">
      <!-- 1.0 -->
      <g transform="translate(29.2 69.438125) scale(0.16 -0.16)">
       <use xlink:href="#DejaVuSans-14"/>
       <use xlink:href="#DejaVuSans-11" transform="translate(63.625 0)"/>
       <use xlink:href="#DejaVuSans-13" transform="translate(95.40625 0)"/>
      </g>
     </g>
    </g>
    <g id="text_13">
     <!-- Score -->
     <g transform="translate(20.875781 244.266328) rotate(-90) scale(0.18 -0.18)">
      <defs>
       <path id="DejaVuSans-36" d="M 3425 4513 
L 3425 3897 
Q 3066 4069 2747 4153 
Q 2428 4238 2131 4238 
Q 1616 4238 1336 4038 
Q 1056 3838 1056 3469 
Q 1056 3159 1242 3001 
Q 1428 2844 1947 2747 
L 2328 2669 
Q 3034 2534 3370 2195 
Q 3706 1856 3706 1288 
Q 3706 609 3251 259 
Q 2797 -91 1919 -91 
Q 1588 -91 1214 -16 
Q 841 59 441 206 
L 441 856 
Q 825 641 1194 531 
Q 1563 422 1919 422 
Q 2459 422 2753 634 
Q 3047 847 3047 1241 
Q 3047 1584 2836 1778 
Q 2625 1972 2144 2069 
L 1759 2144 
Q 1053 2284 737 2584 
Q 422 2884 422 3419 
Q 422 4038 858 4394 
Q 1294 4750 2059 4750 
Q 2388 4750 2728 4690 
Q 3069 4631 3425 4513 
z
" transform="scale(0.015625)"/>
       <path id="DejaVuSans-46" d="M 3122 3366 
L 3122 2828 
Q 2878 2963 2633 3030 
Q 2388 3097 2138 3097 
Q 1578 3097 1268 2742 
Q 959 2388 959 1747 
Q 959 1106 1268 751 
Q 1578 397 2138 397 
Q 2388 397 2633 464 
Q 2878 531 3122 666 
L 3122 134 
Q 2881 22 2623 -34 
Q 2366 -91 2075 -91 
Q 1284 -91 818 406 
Q 353 903 353 1747 
Q 353 2603 823 3093 
Q 1294 3584 2113 3584 
Q 2378 3584 2631 3529 
Q 2884 3475 3122 3366 
z
" transform="scale(0.015625)"/>
       <path id="DejaVuSans-52" d="M 1959 3097 
Q 1497 3097 1228 2736 
Q 959 2375 959 1747 
Q 959 1119 1226 758 
Q 1494 397 1959 397 
Q 2419 397 2687 759 
Q 2956 1122 2956 1747 
Q 2956 2369 2687 2733 
Q 2419 3097 1959 3097 
z
M 1959 3584 
Q 2709 3584 3137 3096 
Q 3566 2609 3566 1747 
Q 3566 888 3137 398 
Q 2709 -91 1959 -91 
Q 1206 -91 779 398 
Q 353 888 353 1747 
Q 353 2609 779 3096 
Q 1206 3584 1959 3584 
z
" transform="scale(0.015625)"/>
       <path id="DejaVuSans-48" d="M 3597 1894 
L 3597 1613 
L 953 1613 
Q 991 1019 1311 708 
Q 1631 397 2203 397 
Q 2534 397 2845 478 
Q 3156 559 3463 722 
L 3463 178 
Q 3153 47 2828 -22 
Q 2503 -91 2169 -91 
Q 1331 -91 842 396 
Q 353 884 353 1716 
Q 353 2575 817 3079 
Q 1281 3584 2069 3584 
Q 2775 3584 3186 3129 
Q 3597 2675 3597 1894 
z
M 3022 2063 
Q 3016 2534 2758 2815 
Q 2500 3097 2075 3097 
Q 1594 3097 1305 2825 
Q 1016 2553 972 2059 
L 3022 2063 
z
" transform="scale(0.015625)"/>
      </defs>
      <use xlink:href="#DejaVuSans-36"/>
      <use xlink:href="#DejaVuSans-46" transform="translate(63.484375 0)"/>
      <use xlink:href="#DejaVuSans-52" transform="translate(118.46875 0)"/>
      <use xlink:href="#DejaVuSans-55" transform="translate(179.65625 0)"/>
      <use xlink:href="#DejaVuSans-48" transform="translate(218.5625 0)"/>
     </g>
    </g>
   </g>
   <g id="line2d_12">
    <path d="M 72.568864 77.288246 
L 127.188182 69.329248 
L 181.8075 73.277063 
L 236.426818 75.260476 
L 291.046136 71.29365 
" clip-path="url(#pb0d38d632c)" style="fill: none; stroke: #6c8ebf; stroke-width: 3; stroke-linecap: square"/>
    <defs>
     <path id="m1bc01d384b" d="M 0 4 
C 1.060812 4 2.078319 3.578535 2.828427 2.828427 
C 3.578535 2.078319 4 1.060812 4 0 
C 4 -1.060812 3.578535 -2.078319 2.828427 -2.828427 
C 2.078319 -3.578535 1.060812 -4 0 -4 
C -1.060812 -4 -2.078319 -3.578535 -2.828427 -2.828427 
C -3.578535 -2.078319 -4 -1.060812 -4 0 
C -4 1.060812 -3.578535 2.078319 -2.828427 2.828427 
C -2.078319 3.578535 -1.060812 4 0 4 
z
" style="stroke: #6c8ebf"/>
    </defs>
    <g clip-path="url(#pb0d38d632c)">
     <use xlink:href="#m1bc01d384b" x="72.568864" y="77.288246" style="fill: #6c8ebf; stroke: #6c8ebf"/>
     <use xlink:href="#m1bc01d384b" x="127.188182" y="69.329248" style="fill: #6c8ebf; stroke: #6c8ebf"/>
     <use xlink:href="#m1bc01d384b" x="181.8075" y="73.277063" style="fill: #6c8ebf; stroke: #6c8ebf"/>
     <use xlink:href="#m1bc01d384b" x="236.426818" y="75.260476" style="fill: #6c8ebf; stroke: #6c8ebf"/>
     <use xlink:href="#m1bc01d384b" x="291.046136" y="71.29365" style="fill: #6c8ebf; stroke: #6c8ebf"/>
    </g>
   </g>
   <g id="line2d_13">
    <path d="M 72.568864 205.261875 
L 127.188182 236.795625 
L 181.8075 199.096623 
L 236.426818 199.096623 
L 291.046136 159.174087 
" clip-path="url(#pb0d38d632c)" style="fill: none; stroke: #a20025; stroke-width: 3; stroke-linecap: square"/>
    <defs>
     <path id="m03f63d6f88" d="M 0 4 
C 1.060812 4 2.078319 3.578535 2.828427 2.828427 
C 3.578535 2.078319 4 1.060812 4 0 
C 4 -1.060812 3.578535 -2.078319 2.828427 -2.828427 
C 2.078319 -3.578535 1.060812 -4 0 -4 
C -1.060812 -4 -2.078319 -3.578535 -2.828427 -2.828427 
C -3.578535 -2.078319 -4 -1.060812 -4 0 
C -4 1.060812 -3.578535 2.078319 -2.828427 2.828427 
C -2.078319 3.578535 -1.060812 4 0 4 
z
" style="stroke: #a20025"/>
    </defs>
    <g clip-path="url(#pb0d38d632c)">
     <use xlink:href="#m03f63d6f88" x="72.568864" y="205.261875" style="fill: #a20025; stroke: #a20025"/>
     <use xlink:href="#m03f63d6f88" x="127.188182" y="236.795625" style="fill: #a20025; stroke: #a20025"/>
     <use xlink:href="#m03f63d6f88" x="181.8075" y="199.096623" style="fill: #a20025; stroke: #a20025"/>
     <use xlink:href="#m03f63d6f88" x="236.426818" y="199.096623" style="fill: #a20025; stroke: #a20025"/>
     <use xlink:href="#m03f63d6f88" x="291.046136" y="159.174087" style="fill: #a20025; stroke: #a20025"/>
    </g>
   </g>
   <g id="patch_3">
    <path d="M 61.645 374.755781 
L 61.645 63.36 
" style="fill: none; stroke: #000000; stroke-width: 0.8; stroke-linejoin: miter; stroke-linecap: square"/>
   </g>
   <g id="patch_4">
    <path d="M 301.97 374.755781 
L 301.97 63.36 
" style="fill: none; stroke: #000000; stroke-width: 0.8; stroke-linejoin: miter; stroke-linecap: square"/>
   </g>
   <g id="patch_5">
    <path d="M 61.645 374.755781 
L 301.97 374.755781 
" style="fill: none; stroke: #000000; stroke-width: 0.8; stroke-linejoin: miter; stroke-linecap: square"/>
   </g>
   <g id="patch_6">
    <path d="M 61.645 63.36 
L 301.97 63.36 
" style="fill: none; stroke: #000000; stroke-width: 0.8; stroke-linejoin: miter; stroke-linecap: square"/>
   </g>
   <g id="text_14">
    <!-- Acc -->
    <g transform="translate(165.91125 57.36) scale(0.18 -0.18)">
     <defs>
      <path id="DejaVuSans-24" d="M 2188 4044 
L 1331 1722 
L 3047 1722 
L 2188 4044 
z
M 1831 4666 
L 2547 4666 
L 4325 0 
L 3669 0 
L 3244 1197 
L 1141 1197 
L 716 0 
L 50 0 
L 1831 4666 
z
" transform="scale(0.015625)"/>
     </defs>
     <use xlink:href="#DejaVuSans-24"/>
     <use xlink:href="#DejaVuSans-46" transform="translate(66.65625 0)"/>
     <use xlink:href="#DejaVuSans-46" transform="translate(121.640625 0)"/>
    </g>
   </g>
   <g id="legend_1">
    <g id="patch_7">
     <path d="M 74.245 365.755781 
L 220.728438 365.755781 
Q 224.328438 365.755781 224.328438 362.155781 
L 224.328438 309.952969 
Q 224.328438 306.352969 220.728438 306.352969 
L 74.245 306.352969 
Q 70.645 306.352969 70.645 309.952969 
L 70.645 362.155781 
Q 70.645 365.755781 74.245 365.755781 
z
" style="fill: #ffffff; opacity: 0.8; stroke: #cccccc; stroke-linejoin: miter"/>
    </g>
    <g id="line2d_14">
     <path d="M 77.845 320.930156 
L 95.845 320.930156 
L 113.845 320.930156 
" style="fill: none; stroke: #6c8ebf; stroke-width: 3; stroke-linecap: square"/>
     <g>
      <use xlink:href="#m1bc01d384b" x="95.845" y="320.930156" style="fill: #6c8ebf; stroke: #6c8ebf"/>
     </g>
    </g>
    <g id="text_15">
     <!-- Training -->
     <g transform="translate(128.245 327.230156) scale(0.18 -0.18)">
      <defs>
       <path id="DejaVuSans-51" d="M 3513 2113 
L 3513 0 
L 2938 0 
L 2938 2094 
Q 2938 2591 2744 2837 
Q 2550 3084 2163 3084 
Q 1697 3084 1428 2787 
Q 1159 2491 1159 1978 
L 1159 0 
L 581 0 
L 581 3500 
L 1159 3500 
L 1159 2956 
Q 1366 3272 1645 3428 
Q 1925 3584 2291 3584 
Q 2894 3584 3203 3211 
Q 3513 2838 3513 2113 
z
" transform="scale(0.015625)"/>
       <path id="DejaVuSans-4a" d="M 2906 1791 
Q 2906 2416 2648 2759 
Q 2391 3103 1925 3103 
Q 1463 3103 1205 2759 
Q 947 2416 947 1791 
Q 947 1169 1205 825 
Q 1463 481 1925 481 
Q 2391 481 2648 825 
Q 2906 1169 2906 1791 
z
M 3481 434 
Q 3481 -459 3084 -895 
Q 2688 -1331 1869 -1331 
Q 1566 -1331 1297 -1286 
Q 1028 -1241 775 -1147 
L 775 -588 
Q 1028 -725 1275 -790 
Q 1522 -856 1778 -856 
Q 2344 -856 2625 -561 
Q 2906 -266 2906 331 
L 2906 616 
Q 2728 306 2450 153 
Q 2172 0 1784 0 
Q 1141 0 747 490 
Q 353 981 353 1791 
Q 353 2603 747 3093 
Q 1141 3584 1784 3584 
Q 2172 3584 2450 3431 
Q 2728 3278 2906 2969 
L 2906 3500 
L 3481 3500 
L 3481 434 
z
" transform="scale(0.015625)"/>
      </defs>
      <use xlink:href="#DejaVuSans-37"/>
      <use xlink:href="#DejaVuSans-55" transform="translate(46.375 0)"/>
      <use xlink:href="#DejaVuSans-44" transform="translate(87.484375 0)"/>
      <use xlink:href="#DejaVuSans-4c" transform="translate(148.765625 0)"/>
      <use xlink:href="#DejaVuSans-51" transform="translate(176.546875 0)"/>
      <use xlink:href="#DejaVuSans-4c" transform="translate(239.921875 0)"/>
      <use xlink:href="#DejaVuSans-51" transform="translate(267.703125 0)"/>
      <use xlink:href="#DejaVuSans-4a" transform="translate(331.078125 0)"/>
     </g>
    </g>
    <g id="line2d_15">
     <path d="M 77.845 347.931562 
L 95.845 347.931562 
L 113.845 347.931562 
" style="fill: none; stroke: #a20025; stroke-width: 3; stroke-linecap: square"/>
     <g>
      <use xlink:href="#m03f63d6f88" x="95.845" y="347.931562" style="fill: #a20025; stroke: #a20025"/>
     </g>
    </g>
    <g id="text_16">
     <!-- Validation -->
     <g transform="translate(128.245 354.231562) scale(0.18 -0.18)">
      <defs>
       <path id="DejaVuSans-47" d="M 2906 2969 
L 2906 4863 
L 3481 4863 
L 3481 0 
L 2906 0 
L 2906 525 
Q 2725 213 2448 61 
Q 2172 -91 1784 -91 
Q 1150 -91 751 415 
Q 353 922 353 1747 
Q 353 2572 751 3078 
Q 1150 3584 1784 3584 
Q 2172 3584 2448 3432 
Q 2725 3281 2906 2969 
z
M 947 1747 
Q 947 1113 1208 752 
Q 1469 391 1925 391 
Q 2381 391 2643 752 
Q 2906 1113 2906 1747 
Q 2906 2381 2643 2742 
Q 2381 3103 1925 3103 
Q 1469 3103 1208 2742 
Q 947 2381 947 1747 
z
" transform="scale(0.015625)"/>
       <path id="DejaVuSans-57" d="M 1172 4494 
L 1172 3500 
L 2356 3500 
L 2356 3053 
L 1172 3053 
L 1172 1153 
Q 1172 725 1289 603 
Q 1406 481 1766 481 
L 2356 481 
L 2356 0 
L 1766 0 
Q 1100 0 847 248 
Q 594 497 594 1153 
L 594 3053 
L 172 3053 
L 172 3500 
L 594 3500 
L 594 4494 
L 1172 4494 
z
" transform="scale(0.015625)"/>
      </defs>
      <use xlink:href="#DejaVuSans-39"/>
      <use xlink:href="#DejaVuSans-44" transform="translate(60.640625 0)"/>
      <use xlink:href="#DejaVuSans-4f" transform="translate(121.921875 0)"/>
      <use xlink:href="#DejaVuSans-4c" transform="translate(149.703125 0)"/>
      <use xlink:href="#DejaVuSans-47" transform="translate(177.484375 0)"/>
      <use xlink:href="#DejaVuSans-44" transform="translate(240.96875 0)"/>
      <use xlink:href="#DejaVuSans-57" transform="translate(302.25 0)"/>
      <use xlink:href="#DejaVuSans-4c" transform="translate(341.453125 0)"/>
      <use xlink:href="#DejaVuSans-52" transform="translate(369.234375 0)"/>
      <use xlink:href="#DejaVuSans-51" transform="translate(430.421875 0)"/>
     </g>
    </g>
   </g>
  </g>
  <g id="axes_2">
   <g id="patch_8">
    <path d="M 316.27 374.755781 
L 556.595 374.755781 
L 556.595 63.36 
L 316.27 63.36 
z
" style="fill: #ffffff"/>
   </g>
   <g id="matplotlib.axis_3">
    <g id="xtick_6">
     <g id="line2d_16">
      <g>
       <use xlink:href="#mcfbd383578" x="327.193864" y="374.755781" style="stroke: #000000; stroke-width: 0.8"/>
      </g>
     </g>
     <g id="text_17">
      <!-- 1 -->
      <g transform="translate(322.103864 393.912031) scale(0.16 -0.16)">
       <use xlink:href="#DejaVuSans-14"/>
      </g>
     </g>
    </g>
    <g id="xtick_7">
     <g id="line2d_17">
      <g>
       <use xlink:href="#mcfbd383578" x="381.813182" y="374.755781" style="stroke: #000000; stroke-width: 0.8"/>
      </g>
     </g>
     <g id="text_18">
      <!-- 2 -->
      <g transform="translate(376.723182 393.912031) scale(0.16 -0.16)">
       <use xlink:href="#DejaVuSans-15"/>
      </g>
     </g>
    </g>
    <g id="xtick_8">
     <g id="line2d_18">
      <g>
       <use xlink:href="#mcfbd383578" x="436.4325" y="374.755781" style="stroke: #000000; stroke-width: 0.8"/>
      </g>
     </g>
     <g id="text_19">
      <!-- 3 -->
      <g transform="translate(431.3425 393.912031) scale(0.16 -0.16)">
       <use xlink:href="#DejaVuSans-16"/>
      </g>
     </g>
    </g>
    <g id="xtick_9">
     <g id="line2d_19">
      <g>
       <use xlink:href="#mcfbd383578" x="491.051818" y="374.755781" style="stroke: #000000; stroke-width: 0.8"/>
      </g>
     </g>
     <g id="text_20">
      <!-- 4 -->
      <g transform="translate(485.961818 393.912031) scale(0.16 -0.16)">
       <use xlink:href="#DejaVuSans-17"/>
      </g>
     </g>
    </g>
    <g id="xtick_10">
     <g id="line2d_20">
      <g>
       <use xlink:href="#mcfbd383578" x="545.671136" y="374.755781" style="stroke: #000000; stroke-width: 0.8"/>
      </g>
     </g>
     <g id="text_21">
      <!-- 5 -->
      <g transform="translate(540.581136 393.912031) scale(0.16 -0.16)">
       <use xlink:href="#DejaVuSans-18"/>
      </g>
     </g>
    </g>
    <g id="text_22">
     <!-- CV Trials -->
     <g transform="translate(398.053125 415.432969) scale(0.18 -0.18)">
      <use xlink:href="#DejaVuSans-26"/>
      <use xlink:href="#DejaVuSans-39" transform="translate(69.828125 0)"/>
      <use xlink:href="#DejaVuSans-3" transform="translate(138.234375 0)"/>
      <use xlink:href="#DejaVuSans-37" transform="translate(170.015625 0)"/>
      <use xlink:href="#DejaVuSans-55" transform="translate(216.390625 0)"/>
      <use xlink:href="#DejaVuSans-4c" transform="translate(257.5 0)"/>
      <use xlink:href="#DejaVuSans-44" transform="translate(285.28125 0)"/>
      <use xlink:href="#DejaVuSans-4f" transform="translate(346.5625 0)"/>
      <use xlink:href="#DejaVuSans-56" transform="translate(374.34375 0)"/>
     </g>
    </g>
   </g>
   <g id="matplotlib.axis_4">
    <g id="ytick_7">
     <g id="line2d_21">
      <g>
       <use xlink:href="#mdab358cfc0" x="316.27" y="374.755781" style="stroke: #000000; stroke-width: 0.8"/>
      </g>
     </g>
    </g>
    <g id="ytick_8">
     <g id="line2d_22">
      <g>
       <use xlink:href="#mdab358cfc0" x="316.27" y="312.476625" style="stroke: #000000; stroke-width: 0.8"/>
      </g>
     </g>
    </g>
    <g id="ytick_9">
     <g id="line2d_23">
      <g>
       <use xlink:href="#mdab358cfc0" x="316.27" y="250.197469" style="stroke: #000000; stroke-width: 0.8"/>
      </g>
     </g>
    </g>
    <g id="ytick_10">
     <g id="line2d_24">
      <g>
       <use xlink:href="#mdab358cfc0" x="316.27" y="187.918312" style="stroke: #000000; stroke-width: 0.8"/>
      </g>
     </g>
    </g>
    <g id="ytick_11">
     <g id="line2d_25">
      <g>
       <use xlink:href="#mdab358cfc0" x="316.27" y="125.639156" style="stroke: #000000; stroke-width: 0.8"/>
      </g>
     </g>
    </g>
    <g id="ytick_12">
     <g id="line2d_26">
      <g>
       <use xlink:href="#mdab358cfc0" x="316.27" y="63.36" style="stroke: #000000; stroke-width: 0.8"/>
      </g>
     </g>
    </g>
   </g>
   <g id="line2d_27">
    <path d="M 327.193864 72.009883 
L 381.813182 66.243294 
L 436.4325 77.323936 
L 491.051818 80.041917 
L 545.671136 69.073684 
" clip-path="url(#p5dbaaa5a35)" style="fill: none; stroke: #6c8ebf; stroke-width: 3; stroke-linecap: square"/>
    <g clip-path="url(#p5dbaaa5a35)">
     <use xlink:href="#m1bc01d384b" x="327.193864" y="72.009883" style="fill: #6c8ebf; stroke: #6c8ebf"/>
     <use xlink:href="#m1bc01d384b" x="381.813182" y="66.243294" style="fill: #6c8ebf; stroke: #6c8ebf"/>
     <use xlink:href="#m1bc01d384b" x="436.4325" y="77.323936" style="fill: #6c8ebf; stroke: #6c8ebf"/>
     <use xlink:href="#m1bc01d384b" x="491.051818" y="80.041917" style="fill: #6c8ebf; stroke: #6c8ebf"/>
     <use xlink:href="#m1bc01d384b" x="545.671136" y="69.073684" style="fill: #6c8ebf; stroke: #6c8ebf"/>
    </g>
   </g>
   <g id="line2d_28">
    <path d="M 327.193864 165.271347 
L 381.813182 180.867842 
L 436.4325 179.473681 
L 491.051818 172.621678 
L 545.671136 113.183325 
" clip-path="url(#p5dbaaa5a35)" style="fill: none; stroke: #a20025; stroke-width: 3; stroke-linecap: square"/>
    <g clip-path="url(#p5dbaaa5a35)">
     <use xlink:href="#m03f63d6f88" x="327.193864" y="165.271347" style="fill: #a20025; stroke: #a20025"/>
     <use xlink:href="#m03f63d6f88" x="381.813182" y="180.867842" style="fill: #a20025; stroke: #a20025"/>
     <use xlink:href="#m03f63d6f88" x="436.4325" y="179.473681" style="fill: #a20025; stroke: #a20025"/>
     <use xlink:href="#m03f63d6f88" x="491.051818" y="172.621678" style="fill: #a20025; stroke: #a20025"/>
     <use xlink:href="#m03f63d6f88" x="545.671136" y="113.183325" style="fill: #a20025; stroke: #a20025"/>
    </g>
   </g>
   <g id="patch_9">
    <path d="M 316.27 374.755781 
L 316.27 63.36 
" style="fill: none; stroke: #000000; stroke-width: 0.8; stroke-linejoin: miter; stroke-linecap: square"/>
   </g>
   <g id="patch_10">
    <path d="M 556.595 374.755781 
L 556.595 63.36 
" style="fill: none; stroke: #000000; stroke-width: 0.8; stroke-linejoin: miter; stroke-linecap: square"/>
   </g>
   <g id="patch_11">
    <path d="M 316.27 374.755781 
L 556.595 374.755781 
" style="fill: none; stroke: #000000; stroke-width: 0.8; stroke-linejoin: miter; stroke-linecap: square"/>
   </g>
   <g id="patch_12">
    <path d="M 316.27 63.36 
L 556.595 63.36 
" style="fill: none; stroke: #000000; stroke-width: 0.8; stroke-linejoin: miter; stroke-linecap: square"/>
   </g>
   <g id="text_23">
    <!-- Prec Macro -->
    <g transform="translate(387.077344 57.36) scale(0.18 -0.18)">
     <defs>
      <path id="DejaVuSans-33" d="M 1259 4147 
L 1259 2394 
L 2053 2394 
Q 2494 2394 2734 2622 
Q 2975 2850 2975 3272 
Q 2975 3691 2734 3919 
Q 2494 4147 2053 4147 
L 1259 4147 
z
M 628 4666 
L 2053 4666 
Q 2838 4666 3239 4311 
Q 3641 3956 3641 3272 
Q 3641 2581 3239 2228 
Q 2838 1875 2053 1875 
L 1259 1875 
L 1259 0 
L 628 0 
L 628 4666 
z
" transform="scale(0.015625)"/>
      <path id="DejaVuSans-30" d="M 628 4666 
L 1569 4666 
L 2759 1491 
L 3956 4666 
L 4897 4666 
L 4897 0 
L 4281 0 
L 4281 4097 
L 3078 897 
L 2444 897 
L 1241 4097 
L 1241 0 
L 628 0 
L 628 4666 
z
" transform="scale(0.015625)"/>
     </defs>
     <use xlink:href="#DejaVuSans-33"/>
     <use xlink:href="#DejaVuSans-55" transform="translate(58.546875 0)"/>
     <use xlink:href="#DejaVuSans-48" transform="translate(97.453125 0)"/>
     <use xlink:href="#DejaVuSans-46" transform="translate(158.984375 0)"/>
     <use xlink:href="#DejaVuSans-3" transform="translate(213.96875 0)"/>
     <use xlink:href="#DejaVuSans-30" transform="translate(245.75 0)"/>
     <use xlink:href="#DejaVuSans-44" transform="translate(332.03125 0)"/>
     <use xlink:href="#DejaVuSans-46" transform="translate(393.3125 0)"/>
     <use xlink:href="#DejaVuSans-55" transform="translate(448.296875 0)"/>
     <use xlink:href="#DejaVuSans-52" transform="translate(487.203125 0)"/>
    </g>
   </g>
  </g>
  <g id="axes_3">
   <g id="patch_13">
    <path d="M 570.895 374.755781 
L 811.22 374.755781 
L 811.22 63.36 
L 570.895 63.36 
z
" style="fill: #ffffff"/>
   </g>
   <g id="matplotlib.axis_5">
    <g id="xtick_11">
     <g id="line2d_29">
      <g>
       <use xlink:href="#mcfbd383578" x="581.818864" y="374.755781" style="stroke: #000000; stroke-width: 0.8"/>
      </g>
     </g>
     <g id="text_24">
      <!-- 1 -->
      <g transform="translate(576.728864 393.912031) scale(0.16 -0.16)">
       <use xlink:href="#DejaVuSans-14"/>
      </g>
     </g>
    </g>
    <g id="xtick_12">
     <g id="line2d_30">
      <g>
       <use xlink:href="#mcfbd383578" x="636.438182" y="374.755781" style="stroke: #000000; stroke-width: 0.8"/>
      </g>
     </g>
     <g id="text_25">
      <!-- 2 -->
      <g transform="translate(631.348182 393.912031) scale(0.16 -0.16)">
       <use xlink:href="#DejaVuSans-15"/>
      </g>
     </g>
    </g>
    <g id="xtick_13">
     <g id="line2d_31">
      <g>
       <use xlink:href="#mcfbd383578" x="691.0575" y="374.755781" style="stroke: #000000; stroke-width: 0.8"/>
      </g>
     </g>
     <g id="text_26">
      <!-- 3 -->
      <g transform="translate(685.9675 393.912031) scale(0.16 -0.16)">
       <use xlink:href="#DejaVuSans-16"/>
      </g>
     </g>
    </g>
    <g id="xtick_14">
     <g id="line2d_32">
      <g>
       <use xlink:href="#mcfbd383578" x="745.676818" y="374.755781" style="stroke: #000000; stroke-width: 0.8"/>
      </g>
     </g>
     <g id="text_27">
      <!-- 4 -->
      <g transform="translate(740.586818 393.912031) scale(0.16 -0.16)">
       <use xlink:href="#DejaVuSans-17"/>
      </g>
     </g>
    </g>
    <g id="xtick_15">
     <g id="line2d_33">
      <g>
       <use xlink:href="#mcfbd383578" x="800.296136" y="374.755781" style="stroke: #000000; stroke-width: 0.8"/>
      </g>
     </g>
     <g id="text_28">
      <!-- 5 -->
      <g transform="translate(795.206136 393.912031) scale(0.16 -0.16)">
       <use xlink:href="#DejaVuSans-18"/>
      </g>
     </g>
    </g>
    <g id="text_29">
     <!-- CV Trials -->
     <g transform="translate(652.678125 415.432969) scale(0.18 -0.18)">
      <use xlink:href="#DejaVuSans-26"/>
      <use xlink:href="#DejaVuSans-39" transform="translate(69.828125 0)"/>
      <use xlink:href="#DejaVuSans-3" transform="translate(138.234375 0)"/>
      <use xlink:href="#DejaVuSans-37" transform="translate(170.015625 0)"/>
      <use xlink:href="#DejaVuSans-55" transform="translate(216.390625 0)"/>
      <use xlink:href="#DejaVuSans-4c" transform="translate(257.5 0)"/>
      <use xlink:href="#DejaVuSans-44" transform="translate(285.28125 0)"/>
      <use xlink:href="#DejaVuSans-4f" transform="translate(346.5625 0)"/>
      <use xlink:href="#DejaVuSans-56" transform="translate(374.34375 0)"/>
     </g>
    </g>
   </g>
   <g id="matplotlib.axis_6">
    <g id="ytick_13">
     <g id="line2d_34">
      <g>
       <use xlink:href="#mdab358cfc0" x="570.895" y="374.755781" style="stroke: #000000; stroke-width: 0.8"/>
      </g>
     </g>
    </g>
    <g id="ytick_14">
     <g id="line2d_35">
      <g>
       <use xlink:href="#mdab358cfc0" x="570.895" y="312.476625" style="stroke: #000000; stroke-width: 0.8"/>
      </g>
     </g>
    </g>
    <g id="ytick_15">
     <g id="line2d_36">
      <g>
       <use xlink:href="#mdab358cfc0" x="570.895" y="250.197469" style="stroke: #000000; stroke-width: 0.8"/>
      </g>
     </g>
    </g>
    <g id="ytick_16">
     <g id="line2d_37">
      <g>
       <use xlink:href="#mdab358cfc0" x="570.895" y="187.918312" style="stroke: #000000; stroke-width: 0.8"/>
      </g>
     </g>
    </g>
    <g id="ytick_17">
     <g id="line2d_38">
      <g>
       <use xlink:href="#mdab358cfc0" x="570.895" y="125.639156" style="stroke: #000000; stroke-width: 0.8"/>
      </g>
     </g>
    </g>
    <g id="ytick_18">
     <g id="line2d_39">
      <g>
       <use xlink:href="#mdab358cfc0" x="570.895" y="63.36" style="stroke: #000000; stroke-width: 0.8"/>
      </g>
     </g>
    </g>
   </g>
   <g id="line2d_40">
    <path d="M 581.818864 74.840029 
L 636.438182 69.100014 
L 691.0575 63.36 
L 745.676818 63.36 
L 800.296136 69.073684 
" clip-path="url(#p99168d73b6)" style="fill: none; stroke: #6c8ebf; stroke-width: 3; stroke-linecap: square"/>
    <g clip-path="url(#p99168d73b6)">
     <use xlink:href="#m1bc01d384b" x="581.818864" y="74.840029" style="fill: #6c8ebf; stroke: #6c8ebf"/>
     <use xlink:href="#m1bc01d384b" x="636.438182" y="69.100014" style="fill: #6c8ebf; stroke: #6c8ebf"/>
     <use xlink:href="#m1bc01d384b" x="691.0575" y="63.36" style="fill: #6c8ebf; stroke: #6c8ebf"/>
     <use xlink:href="#m1bc01d384b" x="745.676818" y="63.36" style="fill: #6c8ebf; stroke: #6c8ebf"/>
     <use xlink:href="#m1bc01d384b" x="800.296136" y="69.073684" style="fill: #6c8ebf; stroke: #6c8ebf"/>
    </g>
   </g>
   <g id="line2d_41">
    <path d="M 581.818864 165.271347 
L 636.438182 199.241795 
L 691.0575 132.559062 
L 745.676818 144.09224 
L 800.296136 155.625417 
" clip-path="url(#p99168d73b6)" style="fill: none; stroke: #a20025; stroke-width: 3; stroke-linecap: square"/>
    <g clip-path="url(#p99168d73b6)">
     <use xlink:href="#m03f63d6f88" x="581.818864" y="165.271347" style="fill: #a20025; stroke: #a20025"/>
     <use xlink:href="#m03f63d6f88" x="636.438182" y="199.241795" style="fill: #a20025; stroke: #a20025"/>
     <use xlink:href="#m03f63d6f88" x="691.0575" y="132.559062" style="fill: #a20025; stroke: #a20025"/>
     <use xlink:href="#m03f63d6f88" x="745.676818" y="144.09224" style="fill: #a20025; stroke: #a20025"/>
     <use xlink:href="#m03f63d6f88" x="800.296136" y="155.625417" style="fill: #a20025; stroke: #a20025"/>
    </g>
   </g>
   <g id="patch_14">
    <path d="M 570.895 374.755781 
L 570.895 63.36 
" style="fill: none; stroke: #000000; stroke-width: 0.8; stroke-linejoin: miter; stroke-linecap: square"/>
   </g>
   <g id="patch_15">
    <path d="M 811.22 374.755781 
L 811.22 63.36 
" style="fill: none; stroke: #000000; stroke-width: 0.8; stroke-linejoin: miter; stroke-linecap: square"/>
   </g>
   <g id="patch_16">
    <path d="M 570.895 374.755781 
L 811.22 374.755781 
" style="fill: none; stroke: #000000; stroke-width: 0.8; stroke-linejoin: miter; stroke-linecap: square"/>
   </g>
   <g id="patch_17">
    <path d="M 570.895 63.36 
L 811.22 63.36 
" style="fill: none; stroke: #000000; stroke-width: 0.8; stroke-linejoin: miter; stroke-linecap: square"/>
   </g>
   <g id="text_30">
    <!-- Rec Macro -->
    <g transform="translate(644.623125 57.36) scale(0.18 -0.18)">
     <defs>
      <path id="DejaVuSans-35" d="M 2841 2188 
Q 3044 2119 3236 1894 
Q 3428 1669 3622 1275 
L 4263 0 
L 3584 0 
L 2988 1197 
Q 2756 1666 2539 1819 
Q 2322 1972 1947 1972 
L 1259 1972 
L 1259 0 
L 628 0 
L 628 4666 
L 2053 4666 
Q 2853 4666 3247 4331 
Q 3641 3997 3641 3322 
Q 3641 2881 3436 2590 
Q 3231 2300 2841 2188 
z
M 1259 4147 
L 1259 2491 
L 2053 2491 
Q 2509 2491 2742 2702 
Q 2975 2913 2975 3322 
Q 2975 3731 2742 3939 
Q 2509 4147 2053 4147 
L 1259 4147 
z
" transform="scale(0.015625)"/>
     </defs>
     <use xlink:href="#DejaVuSans-35"/>
     <use xlink:href="#DejaVuSans-48" transform="translate(65 0)"/>
     <use xlink:href="#DejaVuSans-46" transform="translate(126.53125 0)"/>
     <use xlink:href="#DejaVuSans-3" transform="translate(181.515625 0)"/>
     <use xlink:href="#DejaVuSans-30" transform="translate(213.296875 0)"/>
     <use xlink:href="#DejaVuSans-44" transform="translate(299.578125 0)"/>
     <use xlink:href="#DejaVuSans-46" transform="translate(360.859375 0)"/>
     <use xlink:href="#DejaVuSans-55" transform="translate(415.84375 0)"/>
     <use xlink:href="#DejaVuSans-52" transform="translate(454.75 0)"/>
    </g>
   </g>
  </g>
  <g id="axes_4">
   <g id="patch_18">
    <path d="M 825.52 374.755781 
L 1065.845 374.755781 
L 1065.845 63.36 
L 825.52 63.36 
z
" style="fill: #ffffff"/>
   </g>
   <g id="matplotlib.axis_7">
    <g id="xtick_16">
     <g id="line2d_42">
      <g>
       <use xlink:href="#mcfbd383578" x="836.443864" y="374.755781" style="stroke: #000000; stroke-width: 0.8"/>
      </g>
     </g>
     <g id="text_31">
      <!-- 1 -->
      <g transform="translate(831.353864 393.912031) scale(0.16 -0.16)">
       <use xlink:href="#DejaVuSans-14"/>
      </g>
     </g>
    </g>
    <g id="xtick_17">
     <g id="line2d_43">
      <g>
       <use xlink:href="#mcfbd383578" x="891.063182" y="374.755781" style="stroke: #000000; stroke-width: 0.8"/>
      </g>
     </g>
     <g id="text_32">
      <!-- 2 -->
      <g transform="translate(885.973182 393.912031) scale(0.16 -0.16)">
       <use xlink:href="#DejaVuSans-15"/>
      </g>
     </g>
    </g>
    <g id="xtick_18">
     <g id="line2d_44">
      <g>
       <use xlink:href="#mcfbd383578" x="945.6825" y="374.755781" style="stroke: #000000; stroke-width: 0.8"/>
      </g>
     </g>
     <g id="text_33">
      <!-- 3 -->
      <g transform="translate(940.5925 393.912031) scale(0.16 -0.16)">
       <use xlink:href="#DejaVuSans-16"/>
      </g>
     </g>
    </g>
    <g id="xtick_19">
     <g id="line2d_45">
      <g>
       <use xlink:href="#mcfbd383578" x="1000.301818" y="374.755781" style="stroke: #000000; stroke-width: 0.8"/>
      </g>
     </g>
     <g id="text_34">
      <!-- 4 -->
      <g transform="translate(995.211818 393.912031) scale(0.16 -0.16)">
       <use xlink:href="#DejaVuSans-17"/>
      </g>
     </g>
    </g>
    <g id="xtick_20">
     <g id="line2d_46">
      <g>
       <use xlink:href="#mcfbd383578" x="1054.921136" y="374.755781" style="stroke: #000000; stroke-width: 0.8"/>
      </g>
     </g>
     <g id="text_35">
      <!-- 5 -->
      <g transform="translate(1049.831136 393.912031) scale(0.16 -0.16)">
       <use xlink:href="#DejaVuSans-18"/>
      </g>
     </g>
    </g>
    <g id="text_36">
     <!-- CV Trials -->
     <g transform="translate(907.303125 415.432969) scale(0.18 -0.18)">
      <use xlink:href="#DejaVuSans-26"/>
      <use xlink:href="#DejaVuSans-39" transform="translate(69.828125 0)"/>
      <use xlink:href="#DejaVuSans-3" transform="translate(138.234375 0)"/>
      <use xlink:href="#DejaVuSans-37" transform="translate(170.015625 0)"/>
      <use xlink:href="#DejaVuSans-55" transform="translate(216.390625 0)"/>
      <use xlink:href="#DejaVuSans-4c" transform="translate(257.5 0)"/>
      <use xlink:href="#DejaVuSans-44" transform="translate(285.28125 0)"/>
      <use xlink:href="#DejaVuSans-4f" transform="translate(346.5625 0)"/>
      <use xlink:href="#DejaVuSans-56" transform="translate(374.34375 0)"/>
     </g>
    </g>
   </g>
   <g id="matplotlib.axis_8">
    <g id="ytick_19">
     <g id="line2d_47">
      <g>
       <use xlink:href="#mdab358cfc0" x="825.52" y="374.755781" style="stroke: #000000; stroke-width: 0.8"/>
      </g>
     </g>
    </g>
    <g id="ytick_20">
     <g id="line2d_48">
      <g>
       <use xlink:href="#mdab358cfc0" x="825.52" y="312.476625" style="stroke: #000000; stroke-width: 0.8"/>
      </g>
     </g>
    </g>
    <g id="ytick_21">
     <g id="line2d_49">
      <g>
       <use xlink:href="#mdab358cfc0" x="825.52" y="250.197469" style="stroke: #000000; stroke-width: 0.8"/>
      </g>
     </g>
    </g>
    <g id="ytick_22">
     <g id="line2d_50">
      <g>
       <use xlink:href="#mdab358cfc0" x="825.52" y="187.918312" style="stroke: #000000; stroke-width: 0.8"/>
      </g>
     </g>
    </g>
    <g id="ytick_23">
     <g id="line2d_51">
      <g>
       <use xlink:href="#mdab358cfc0" x="825.52" y="125.639156" style="stroke: #000000; stroke-width: 0.8"/>
      </g>
     </g>
    </g>
    <g id="ytick_24">
     <g id="line2d_52">
      <g>
       <use xlink:href="#mdab358cfc0" x="825.52" y="63.36" style="stroke: #000000; stroke-width: 0.8"/>
      </g>
     </g>
    </g>
   </g>
   <g id="line2d_53">
    <path d="M 836.443864 73.428224 
L 891.063182 67.674953 
L 945.6825 70.421129 
L 1000.301818 71.814184 
L 1054.921136 69.073684 
" clip-path="url(#pafaeeabcad)" style="fill: none; stroke: #6c8ebf; stroke-width: 3; stroke-linecap: square"/>
    <g clip-path="url(#pafaeeabcad)">
     <use xlink:href="#m1bc01d384b" x="836.443864" y="73.428224" style="fill: #6c8ebf; stroke: #6c8ebf"/>
     <use xlink:href="#m1bc01d384b" x="891.063182" y="67.674953" style="fill: #6c8ebf; stroke: #6c8ebf"/>
     <use xlink:href="#m1bc01d384b" x="945.6825" y="70.421129" style="fill: #6c8ebf; stroke: #6c8ebf"/>
     <use xlink:href="#m1bc01d384b" x="1000.301818" y="71.814184" style="fill: #6c8ebf; stroke: #6c8ebf"/>
     <use xlink:href="#m1bc01d384b" x="1054.921136" y="69.073684" style="fill: #6c8ebf; stroke: #6c8ebf"/>
    </g>
   </g>
   <g id="line2d_54">
    <path d="M 836.443864 165.271347 
L 891.063182 190.224948 
L 945.6825 157.054306 
L 1000.301818 158.742492 
L 1054.921136 135.220565 
" clip-path="url(#pafaeeabcad)" style="fill: none; stroke: #a20025; stroke-width: 3; stroke-linecap: square"/>
    <g clip-path="url(#pafaeeabcad)">
     <use xlink:href="#m03f63d6f88" x="836.443864" y="165.271347" style="fill: #a20025; stroke: #a20025"/>
     <use xlink:href="#m03f63d6f88" x="891.063182" y="190.224948" style="fill: #a20025; stroke: #a20025"/>
     <use xlink:href="#m03f63d6f88" x="945.6825" y="157.054306" style="fill: #a20025; stroke: #a20025"/>
     <use xlink:href="#m03f63d6f88" x="1000.301818" y="158.742492" style="fill: #a20025; stroke: #a20025"/>
     <use xlink:href="#m03f63d6f88" x="1054.921136" y="135.220565" style="fill: #a20025; stroke: #a20025"/>
    </g>
   </g>
   <g id="patch_19">
    <path d="M 825.52 374.755781 
L 825.52 63.36 
" style="fill: none; stroke: #000000; stroke-width: 0.8; stroke-linejoin: miter; stroke-linecap: square"/>
   </g>
   <g id="patch_20">
    <path d="M 1065.845 374.755781 
L 1065.845 63.36 
" style="fill: none; stroke: #000000; stroke-width: 0.8; stroke-linejoin: miter; stroke-linecap: square"/>
   </g>
   <g id="patch_21">
    <path d="M 825.52 374.755781 
L 1065.845 374.755781 
" style="fill: none; stroke: #000000; stroke-width: 0.8; stroke-linejoin: miter; stroke-linecap: square"/>
   </g>
   <g id="patch_22">
    <path d="M 825.52 63.36 
L 1065.845 63.36 
" style="fill: none; stroke: #000000; stroke-width: 0.8; stroke-linejoin: miter; stroke-linecap: square"/>
   </g>
   <g id="text_37">
    <!-- F1 Macro -->
    <g transform="translate(904.681875 57.36) scale(0.18 -0.18)">
     <defs>
      <path id="DejaVuSans-29" d="M 628 4666 
L 3309 4666 
L 3309 4134 
L 1259 4134 
L 1259 2759 
L 3109 2759 
L 3109 2228 
L 1259 2228 
L 1259 0 
L 628 0 
L 628 4666 
z
" transform="scale(0.015625)"/>
     </defs>
     <use xlink:href="#DejaVuSans-29"/>
     <use xlink:href="#DejaVuSans-14" transform="translate(57.515625 0)"/>
     <use xlink:href="#DejaVuSans-3" transform="translate(121.140625 0)"/>
     <use xlink:href="#DejaVuSans-30" transform="translate(152.921875 0)"/>
     <use xlink:href="#DejaVuSans-44" transform="translate(239.203125 0)"/>
     <use xlink:href="#DejaVuSans-46" transform="translate(300.484375 0)"/>
     <use xlink:href="#DejaVuSans-55" transform="translate(355.46875 0)"/>
     <use xlink:href="#DejaVuSans-52" transform="translate(394.375 0)"/>
    </g>
   </g>
  </g>
  <g id="text_38">
   <!-- Discrepancy between Train &amp; Test Performance -->
   <g transform="translate(348.28625 19.3575) scale(0.16 -0.16)">
    <defs>
     <path id="DejaVuSans-27" d="M 1259 4147 
L 1259 519 
L 2022 519 
Q 2988 519 3436 956 
Q 3884 1394 3884 2338 
Q 3884 3275 3436 3711 
Q 2988 4147 2022 4147 
L 1259 4147 
z
M 628 4666 
L 1925 4666 
Q 3281 4666 3915 4102 
Q 4550 3538 4550 2338 
Q 4550 1131 3912 565 
Q 3275 0 1925 0 
L 628 0 
L 628 4666 
z
" transform="scale(0.015625)"/>
     <path id="DejaVuSans-53" d="M 1159 525 
L 1159 -1331 
L 581 -1331 
L 581 3500 
L 1159 3500 
L 1159 2969 
Q 1341 3281 1617 3432 
Q 1894 3584 2278 3584 
Q 2916 3584 3314 3078 
Q 3713 2572 3713 1747 
Q 3713 922 3314 415 
Q 2916 -91 2278 -91 
Q 1894 -91 1617 61 
Q 1341 213 1159 525 
z
M 3116 1747 
Q 3116 2381 2855 2742 
Q 2594 3103 2138 3103 
Q 1681 3103 1420 2742 
Q 1159 2381 1159 1747 
Q 1159 1113 1420 752 
Q 1681 391 2138 391 
Q 2594 391 2855 752 
Q 3116 1113 3116 1747 
z
" transform="scale(0.015625)"/>
     <path id="DejaVuSans-5c" d="M 2059 -325 
Q 1816 -950 1584 -1140 
Q 1353 -1331 966 -1331 
L 506 -1331 
L 506 -850 
L 844 -850 
Q 1081 -850 1212 -737 
Q 1344 -625 1503 -206 
L 1606 56 
L 191 3500 
L 800 3500 
L 1894 763 
L 2988 3500 
L 3597 3500 
L 2059 -325 
z
" transform="scale(0.015625)"/>
     <path id="DejaVuSans-45" d="M 3116 1747 
Q 3116 2381 2855 2742 
Q 2594 3103 2138 3103 
Q 1681 3103 1420 2742 
Q 1159 2381 1159 1747 
Q 1159 1113 1420 752 
Q 1681 391 2138 391 
Q 2594 391 2855 752 
Q 3116 1113 3116 1747 
z
M 1159 2969 
Q 1341 3281 1617 3432 
Q 1894 3584 2278 3584 
Q 2916 3584 3314 3078 
Q 3713 2572 3713 1747 
Q 3713 922 3314 415 
Q 2916 -91 2278 -91 
Q 1894 -91 1617 61 
Q 1341 213 1159 525 
L 1159 0 
L 581 0 
L 581 4863 
L 1159 4863 
L 1159 2969 
z
" transform="scale(0.015625)"/>
     <path id="DejaVuSans-5a" d="M 269 3500 
L 844 3500 
L 1563 769 
L 2278 3500 
L 2956 3500 
L 3675 769 
L 4391 3500 
L 4966 3500 
L 4050 0 
L 3372 0 
L 2619 2869 
L 1863 0 
L 1184 0 
L 269 3500 
z
" transform="scale(0.015625)"/>
     <path id="DejaVuSans-9" d="M 1556 2509 
Q 1272 2256 1139 2004 
Q 1006 1753 1006 1478 
Q 1006 1022 1337 719 
Q 1669 416 2169 416 
Q 2466 416 2725 514 
Q 2984 613 3213 813 
L 1556 2509 
z
M 1997 2859 
L 3584 1234 
Q 3769 1513 3872 1830 
Q 3975 2147 3994 2503 
L 4575 2503 
Q 4538 2091 4375 1687 
Q 4213 1284 3922 891 
L 4794 0 
L 4006 0 
L 3559 459 
Q 3234 181 2878 45 
Q 2522 -91 2113 -91 
Q 1359 -91 881 339 
Q 403 769 403 1441 
Q 403 1841 612 2192 
Q 822 2544 1241 2853 
Q 1091 3050 1012 3245 
Q 934 3441 934 3628 
Q 934 4134 1281 4442 
Q 1628 4750 2203 4750 
Q 2463 4750 2720 4694 
Q 2978 4638 3244 4525 
L 3244 3956 
Q 2972 4103 2725 4179 
Q 2478 4256 2266 4256 
Q 1938 4256 1733 4082 
Q 1528 3909 1528 3634 
Q 1528 3475 1620 3314 
Q 1713 3153 1997 2859 
z
" transform="scale(0.015625)"/>
     <path id="DejaVuSans-49" d="M 2375 4863 
L 2375 4384 
L 1825 4384 
Q 1516 4384 1395 4259 
Q 1275 4134 1275 3809 
L 1275 3500 
L 2222 3500 
L 2222 3053 
L 1275 3053 
L 1275 0 
L 697 0 
L 697 3053 
L 147 3053 
L 147 3500 
L 697 3500 
L 697 3744 
Q 697 4328 969 4595 
Q 1241 4863 1831 4863 
L 2375 4863 
z
" transform="scale(0.015625)"/>
     <path id="DejaVuSans-50" d="M 3328 2828 
Q 3544 3216 3844 3400 
Q 4144 3584 4550 3584 
Q 5097 3584 5394 3201 
Q 5691 2819 5691 2113 
L 5691 0 
L 5113 0 
L 5113 2094 
Q 5113 2597 4934 2840 
Q 4756 3084 4391 3084 
Q 3944 3084 3684 2787 
Q 3425 2491 3425 1978 
L 3425 0 
L 2847 0 
L 2847 2094 
Q 2847 2600 2669 2842 
Q 2491 3084 2119 3084 
Q 1678 3084 1418 2786 
Q 1159 2488 1159 1978 
L 1159 0 
L 581 0 
L 581 3500 
L 1159 3500 
L 1159 2956 
Q 1356 3278 1631 3431 
Q 1906 3584 2284 3584 
Q 2666 3584 2933 3390 
Q 3200 3197 3328 2828 
z
" transform="scale(0.015625)"/>
    </defs>
    <use xlink:href="#DejaVuSans-27"/>
    <use xlink:href="#DejaVuSans-4c" transform="translate(77 0)"/>
    <use xlink:href="#DejaVuSans-56" transform="translate(104.78125 0)"/>
    <use xlink:href="#DejaVuSans-46" transform="translate(156.875 0)"/>
    <use xlink:href="#DejaVuSans-55" transform="translate(211.859375 0)"/>
    <use xlink:href="#DejaVuSans-48" transform="translate(250.765625 0)"/>
    <use xlink:href="#DejaVuSans-53" transform="translate(312.296875 0)"/>
    <use xlink:href="#DejaVuSans-44" transform="translate(375.78125 0)"/>
    <use xlink:href="#DejaVuSans-51" transform="translate(437.0625 0)"/>
    <use xlink:href="#DejaVuSans-46" transform="translate(500.4375 0)"/>
    <use xlink:href="#DejaVuSans-5c" transform="translate(555.421875 0)"/>
    <use xlink:href="#DejaVuSans-3" transform="translate(614.609375 0)"/>
    <use xlink:href="#DejaVuSans-45" transform="translate(646.390625 0)"/>
    <use xlink:href="#DejaVuSans-48" transform="translate(709.875 0)"/>
    <use xlink:href="#DejaVuSans-57" transform="translate(771.40625 0)"/>
    <use xlink:href="#DejaVuSans-5a" transform="translate(810.609375 0)"/>
    <use xlink:href="#DejaVuSans-48" transform="translate(892.390625 0)"/>
    <use xlink:href="#DejaVuSans-48" transform="translate(953.921875 0)"/>
    <use xlink:href="#DejaVuSans-51" transform="translate(1015.453125 0)"/>
    <use xlink:href="#DejaVuSans-3" transform="translate(1078.828125 0)"/>
    <use xlink:href="#DejaVuSans-37" transform="translate(1110.609375 0)"/>
    <use xlink:href="#DejaVuSans-55" transform="translate(1156.984375 0)"/>
    <use xlink:href="#DejaVuSans-44" transform="translate(1198.09375 0)"/>
    <use xlink:href="#DejaVuSans-4c" transform="translate(1259.375 0)"/>
    <use xlink:href="#DejaVuSans-51" transform="translate(1287.15625 0)"/>
    <use xlink:href="#DejaVuSans-3" transform="translate(1350.53125 0)"/>
    <use xlink:href="#DejaVuSans-9" transform="translate(1382.3125 0)"/>
    <use xlink:href="#DejaVuSans-3" transform="translate(1460.296875 0)"/>
    <use xlink:href="#DejaVuSans-37" transform="translate(1492.078125 0)"/>
    <use xlink:href="#DejaVuSans-48" transform="translate(1536.171875 0)"/>
    <use xlink:href="#DejaVuSans-56" transform="translate(1597.703125 0)"/>
    <use xlink:href="#DejaVuSans-57" transform="translate(1649.796875 0)"/>
    <use xlink:href="#DejaVuSans-3" transform="translate(1689 0)"/>
    <use xlink:href="#DejaVuSans-33" transform="translate(1720.78125 0)"/>
    <use xlink:href="#DejaVuSans-48" transform="translate(1777.515625 0)"/>
    <use xlink:href="#DejaVuSans-55" transform="translate(1839.046875 0)"/>
    <use xlink:href="#DejaVuSans-49" transform="translate(1880.15625 0)"/>
    <use xlink:href="#DejaVuSans-52" transform="translate(1915.359375 0)"/>
    <use xlink:href="#DejaVuSans-55" transform="translate(1976.546875 0)"/>
    <use xlink:href="#DejaVuSans-50" transform="translate(2015.90625 0)"/>
    <use xlink:href="#DejaVuSans-44" transform="translate(2113.3125 0)"/>
    <use xlink:href="#DejaVuSans-51" transform="translate(2174.59375 0)"/>
    <use xlink:href="#DejaVuSans-46" transform="translate(2237.96875 0)"/>
    <use xlink:href="#DejaVuSans-48" transform="translate(2292.953125 0)"/>
   </g>
  </g>
 </g>
 <defs>
  <clipPath id="pb0d38d632c">
   <rect x="61.645" y="63.36" width="240.325" height="311.395781"/>
  </clipPath>
  <clipPath id="p5dbaaa5a35">
   <rect x="316.27" y="63.36" width="240.325" height="311.395781"/>
  </clipPath>
  <clipPath id="p99168d73b6">
   <rect x="570.895" y="63.36" width="240.325" height="311.395781"/>
  </clipPath>
  <clipPath id="pafaeeabcad">
   <rect x="825.52" y="63.36" width="240.325" height="311.395781"/>
  </clipPath>
 </defs>
</svg>
