<?xml version="1.0" encoding="utf-8" standalone="no"?>
<!DOCTYPE svg PUBLIC "-//W3C//DTD SVG 1.1//EN"
  "http://www.w3.org/Graphics/SVG/1.1/DTD/svg11.dtd">
<svg xmlns:xlink="http://www.w3.org/1999/xlink" width="476.973281pt" height="338.3175pt" viewBox="0 0 476.973281 338.3175" xmlns="http://www.w3.org/2000/svg" version="1.1">
 <metadata>
  <rdf:RDF xmlns:dc="http://purl.org/dc/elements/1.1/" xmlns:cc="http://creativecommons.org/ns#" xmlns:rdf="http://www.w3.org/1999/02/22-rdf-syntax-ns#">
   <cc:Work>
    <dc:type rdf:resource="http://purl.org/dc/dcmitype/StillImage"/>
    <dc:date>2026-07-07T20:25:38.582187</dc:date>
    <dc:format>image/svg+xml</dc:format>
    <dc:creator>
     <cc:Agent>
      <dc:title>Matplotlib v3.11.0, https://matplotlib.org/</dc:title>
     </cc:Agent>
    </dc:creator>
   </cc:Work>
  </rdf:RDF>
 </metadata>
 <defs>
  <style type="text/css">*{stroke-linejoin: round; stroke-linecap: butt}</style>
 </defs>
 <g id="figure_1">
  <g id="patch_1">
   <path d="M 0 338.3175 
L 476.973281 338.3175 
L 476.973281 0 
L 0 0 
z
" style="fill: #ffffff"/>
  </g>
  <g id="axes_1">
   <g id="patch_2">
    <path d="M 65.825938 292.1175 
L 446.503125 292.1175 
L 446.503125 25.3575 
L 65.825938 25.3575 
z
" style="fill: #ffffff"/>
   </g>
   <g id="patch_3">
    <path d="M 120.01906 292.1175 
L 134.350163 292.1175 
L 134.350163 287.98649 
L 120.01906 287.98649 
z
" clip-path="url(#pb03c336528)" style="fill: #a20025; fill-opacity: 0.5; stroke: #ffffff; stroke-opacity: 0.4; stroke-linejoin: miter"/>
   </g>
   <g id="patch_4">
    <path d="M 134.350163 292.1175 
L 148.681265 292.1175 
L 148.681265 285.920984 
L 134.350163 285.920984 
z
" clip-path="url(#pb03c336528)" style="fill: #a20025; fill-opacity: 0.5; stroke: #ffffff; stroke-opacity: 0.4; stroke-linejoin: miter"/>
   </g>
   <g id="patch_5">
    <path d="M 148.681265 292.1175 
L 163.012367 292.1175 
L 163.012367 271.462448 
L 148.681265 271.462448 
z
" clip-path="url(#pb03c336528)" style="fill: #a20025; fill-opacity: 0.5; stroke: #ffffff; stroke-opacity: 0.4; stroke-linejoin: miter"/>
   </g>
   <g id="patch_6">
    <path d="M 163.012367 292.1175 
L 177.343469 292.1175 
L 177.343469 265.265932 
L 163.012367 265.265932 
z
" clip-path="url(#pb03c336528)" style="fill: #a20025; fill-opacity: 0.5; stroke: #ffffff; stroke-opacity: 0.4; stroke-linejoin: miter"/>
   </g>
   <g id="patch_7">
    <path d="M 177.343469 292.1175 
L 191.674571 292.1175 
L 191.674571 203.300775 
L 177.343469 203.300775 
z
" clip-path="url(#pb03c336528)" style="fill: #a20025; fill-opacity: 0.5; stroke: #ffffff; stroke-opacity: 0.4; stroke-linejoin: miter"/>
   </g>
   <g id="patch_8">
    <path d="M 191.674571 292.1175 
L 206.005674 292.1175 
L 206.005674 182.645723 
L 191.674571 182.645723 
z
" clip-path="url(#pb03c336528)" style="fill: #a20025; fill-opacity: 0.5; stroke: #ffffff; stroke-opacity: 0.4; stroke-linejoin: miter"/>
   </g>
   <g id="patch_9">
    <path d="M 206.005674 292.1175 
L 220.336776 292.1175 
L 220.336776 44.256873 
L 206.005674 44.256873 
z
" clip-path="url(#pb03c336528)" style="fill: #a20025; fill-opacity: 0.5; stroke: #ffffff; stroke-opacity: 0.4; stroke-linejoin: miter"/>
   </g>
   <g id="patch_10">
    <path d="M 220.336776 292.1175 
L 234.667878 292.1175 
L 234.667878 64.911925 
L 220.336776 64.911925 
z
" clip-path="url(#pb03c336528)" style="fill: #a20025; fill-opacity: 0.5; stroke: #ffffff; stroke-opacity: 0.4; stroke-linejoin: miter"/>
   </g>
   <g id="patch_11">
    <path d="M 234.667878 292.1175 
L 248.99898 292.1175 
L 248.99898 112.418545 
L 234.667878 112.418545 
z
" clip-path="url(#pb03c336528)" style="fill: #a20025; fill-opacity: 0.5; stroke: #ffffff; stroke-opacity: 0.4; stroke-linejoin: miter"/>
   </g>
   <g id="patch_12">
    <path d="M 248.99898 292.1175 
L 263.330082 292.1175 
L 263.330082 135.139103 
L 248.99898 135.139103 
z
" clip-path="url(#pb03c336528)" style="fill: #a20025; fill-opacity: 0.5; stroke: #ffffff; stroke-opacity: 0.4; stroke-linejoin: miter"/>
   </g>
   <g id="patch_13">
    <path d="M 263.330082 292.1175 
L 277.661185 292.1175 
L 277.661185 118.615061 
L 263.330082 118.615061 
z
" clip-path="url(#pb03c336528)" style="fill: #a20025; fill-opacity: 0.5; stroke: #ffffff; stroke-opacity: 0.4; stroke-linejoin: miter"/>
   </g>
   <g id="patch_14">
    <path d="M 277.661185 292.1175 
L 291.992287 292.1175 
L 291.992287 54.584399 
L 277.661185 54.584399 
z
" clip-path="url(#pb03c336528)" style="fill: #a20025; fill-opacity: 0.5; stroke: #ffffff; stroke-opacity: 0.4; stroke-linejoin: miter"/>
   </g>
   <g id="patch_15">
    <path d="M 291.992287 292.1175 
L 306.323389 292.1175 
L 306.323389 38.060357 
L 291.992287 38.060357 
z
" clip-path="url(#pb03c336528)" style="fill: #a20025; fill-opacity: 0.5; stroke: #ffffff; stroke-opacity: 0.4; stroke-linejoin: miter"/>
   </g>
   <g id="patch_16">
    <path d="M 306.323389 292.1175 
L 320.654491 292.1175 
L 320.654491 106.22203 
L 306.323389 106.22203 
z
" clip-path="url(#pb03c336528)" style="fill: #a20025; fill-opacity: 0.5; stroke: #ffffff; stroke-opacity: 0.4; stroke-linejoin: miter"/>
   </g>
   <g id="patch_17">
    <path d="M 320.654491 292.1175 
L 334.985593 292.1175 
L 334.985593 195.038754 
L 320.654491 195.038754 
z
" clip-path="url(#pb03c336528)" style="fill: #a20025; fill-opacity: 0.5; stroke: #ffffff; stroke-opacity: 0.4; stroke-linejoin: miter"/>
   </g>
   <g id="patch_18">
    <path d="M 334.985593 292.1175 
L 349.316695 292.1175 
L 349.316695 228.086838 
L 334.985593 228.086838 
z
" clip-path="url(#pb03c336528)" style="fill: #a20025; fill-opacity: 0.5; stroke: #ffffff; stroke-opacity: 0.4; stroke-linejoin: miter"/>
   </g>
   <g id="patch_19">
    <path d="M 349.316695 292.1175 
L 363.647798 292.1175 
L 363.647798 242.545375 
L 349.316695 242.545375 
z
" clip-path="url(#pb03c336528)" style="fill: #a20025; fill-opacity: 0.5; stroke: #ffffff; stroke-opacity: 0.4; stroke-linejoin: miter"/>
   </g>
   <g id="patch_20">
    <path d="M 363.647798 292.1175 
L 377.9789 292.1175 
L 377.9789 261.134922 
L 363.647798 261.134922 
z
" clip-path="url(#pb03c336528)" style="fill: #a20025; fill-opacity: 0.5; stroke: #ffffff; stroke-opacity: 0.4; stroke-linejoin: miter"/>
   </g>
   <g id="patch_21">
    <path d="M 377.9789 292.1175 
L 392.310002 292.1175 
L 392.310002 279.724469 
L 377.9789 279.724469 
z
" clip-path="url(#pb03c336528)" style="fill: #a20025; fill-opacity: 0.5; stroke: #ffffff; stroke-opacity: 0.4; stroke-linejoin: miter"/>
   </g>
   <g id="matplotlib.axis_1">
    <g id="xtick_1">
     <g id="line2d_1">
      <defs>
       <path id="mb8b9087244" d="M 0 0 
L 0 3.5 
" style="stroke: #000000; stroke-width: 0.8"/>
      </defs>
      <g>
       <use xlink:href="#mb8b9087244" x="91.852717" y="292.1175" style="stroke: #000000; stroke-width: 0.8"/>
      </g>
     </g>
     <g id="text_1">
      <!-- 0.0 -->
      <g transform="translate(79.130217 311.27375) scale(0.16 -0.16)">
       <defs>
        <path id="DejaVuSans-13" d="M 2034 4250 
Q 1547 4250 1301 3770 
Q 1056 3291 1056 2328 
Q 1056 1369 1301 889 
Q 1547 409 2034 409 
Q 2525 409 2770 889 
Q 3016 1369 3016 2328 
Q 3016 3291 2770 3770 
Q 2525 4250 2034 4250 
z
M 2034 4750 
Q 2819 4750 3233 4129 
Q 3647 3509 3647 2328 
Q 3647 1150 3233 529 
Q 2819 -91 2034 -91 
Q 1250 -91 836 529 
Q 422 1150 422 2328 
Q 422 3509 836 4129 
Q 1250 4750 2034 4750 
z
" transform="scale(0.015625)"/>
        <path id="DejaVuSans-11" d="M 684 794 
L 1344 794 
L 1344 0 
L 684 0 
L 684 794 
z
" transform="scale(0.015625)"/>
       </defs>
       <use xlink:href="#DejaVuSans-13"/>
       <use xlink:href="#DejaVuSans-11" transform="translate(63.625 0)"/>
       <use xlink:href="#DejaVuSans-13" transform="translate(95.40625 0)"/>
      </g>
     </g>
    </g>
    <g id="xtick_2">
     <g id="line2d_2">
      <g>
       <use xlink:href="#mb8b9087244" x="154.447985" y="292.1175" style="stroke: #000000; stroke-width: 0.8"/>
      </g>
     </g>
     <g id="text_2">
      <!-- 2.5 -->
      <g transform="translate(141.725485 311.27375) scale(0.16 -0.16)">
       <defs>
        <path id="DejaVuSans-15" d="M 1228 531 
L 3431 531 
L 3431 0 
L 469 0 
L 469 531 
Q 828 903 1448 1529 
Q 2069 2156 2228 2338 
Q 2531 2678 2651 2914 
Q 2772 3150 2772 3378 
Q 2772 3750 2511 3984 
Q 2250 4219 1831 4219 
Q 1534 4219 1204 4116 
Q 875 4013 500 3803 
L 500 4441 
Q 881 4594 1212 4672 
Q 1544 4750 1819 4750 
Q 2544 4750 2975 4387 
Q 3406 4025 3406 3419 
Q 3406 3131 3298 2873 
Q 3191 2616 2906 2266 
Q 2828 2175 2409 1742 
Q 1991 1309 1228 531 
z
" transform="scale(0.015625)"/>
        <path id="DejaVuSans-18" d="M 691 4666 
L 3169 4666 
L 3169 4134 
L 1269 4134 
L 1269 2991 
Q 1406 3038 1543 3061 
Q 1681 3084 1819 3084 
Q 2600 3084 3056 2656 
Q 3513 2228 3513 1497 
Q 3513 744 3044 326 
Q 2575 -91 1722 -91 
Q 1428 -91 1123 -41 
Q 819 9 494 109 
L 494 744 
Q 775 591 1075 516 
Q 1375 441 1709 441 
Q 2250 441 2565 725 
Q 2881 1009 2881 1497 
Q 2881 1984 2565 2268 
Q 2250 2553 1709 2553 
Q 1456 2553 1204 2497 
Q 953 2441 691 2322 
L 691 4666 
z
" transform="scale(0.015625)"/>
       </defs>
       <use xlink:href="#DejaVuSans-15"/>
       <use xlink:href="#DejaVuSans-11" transform="translate(63.625 0)"/>
       <use xlink:href="#DejaVuSans-18" transform="translate(95.40625 0)"/>
      </g>
     </g>
    </g>
    <g id="xtick_3">
     <g id="line2d_3">
      <g>
       <use xlink:href="#mb8b9087244" x="217.043253" y="292.1175" style="stroke: #000000; stroke-width: 0.8"/>
      </g>
     </g>
     <g id="text_3">
      <!-- 5.0 -->
      <g transform="translate(204.320753 311.27375) scale(0.16 -0.16)">
       <use xlink:href="#DejaVuSans-18"/>
       <use xlink:href="#DejaVuSans-11" transform="translate(63.625 0)"/>
       <use xlink:href="#DejaVuSans-13" transform="translate(95.40625 0)"/>
      </g>
     </g>
    </g>
    <g id="xtick_4">
     <g id="line2d_4">
      <g>
       <use xlink:href="#mb8b9087244" x="279.63852" y="292.1175" style="stroke: #000000; stroke-width: 0.8"/>
      </g>
     </g>
     <g id="text_4">
      <!-- 7.5 -->
      <g transform="translate(266.91602 311.27375) scale(0.16 -0.16)">
       <defs>
        <path id="DejaVuSans-1a" d="M 525 4666 
L 3525 4666 
L 3525 4397 
L 1831 0 
L 1172 0 
L 2766 4134 
L 525 4134 
L 525 4666 
z
" transform="scale(0.015625)"/>
       </defs>
       <use xlink:href="#DejaVuSans-1a"/>
       <use xlink:href="#DejaVuSans-11" transform="translate(63.625 0)"/>
       <use xlink:href="#DejaVuSans-18" transform="translate(95.40625 0)"/>
      </g>
     </g>
    </g>
    <g id="xtick_5">
     <g id="line2d_5">
      <g>
       <use xlink:href="#mb8b9087244" x="342.233788" y="292.1175" style="stroke: #000000; stroke-width: 0.8"/>
      </g>
     </g>
     <g id="text_5">
      <!-- 10.0 -->
      <g transform="translate(324.421288 311.27375) scale(0.16 -0.16)">
       <defs>
        <path id="DejaVuSans-14" d="M 794 531 
L 1825 531 
L 1825 4091 
L 703 3866 
L 703 4441 
L 1819 4666 
L 2450 4666 
L 2450 531 
L 3481 531 
L 3481 0 
L 794 0 
L 794 531 
z
" transform="scale(0.015625)"/>
       </defs>
       <use xlink:href="#DejaVuSans-14"/>
       <use xlink:href="#DejaVuSans-13" transform="translate(63.625 0)"/>
       <use xlink:href="#DejaVuSans-11" transform="translate(127.25 0)"/>
       <use xlink:href="#DejaVuSans-13" transform="translate(159.03125 0)"/>
      </g>
     </g>
    </g>
    <g id="xtick_6">
     <g id="line2d_6">
      <g>
       <use xlink:href="#mb8b9087244" x="404.829056" y="292.1175" style="stroke: #000000; stroke-width: 0.8"/>
      </g>
     </g>
     <g id="text_6">
      <!-- 12.5 -->
      <g transform="translate(387.016556 311.27375) scale(0.16 -0.16)">
       <use xlink:href="#DejaVuSans-14"/>
       <use xlink:href="#DejaVuSans-15" transform="translate(63.625 0)"/>
       <use xlink:href="#DejaVuSans-11" transform="translate(127.25 0)"/>
       <use xlink:href="#DejaVuSans-18" transform="translate(159.03125 0)"/>
      </g>
     </g>
    </g>
    <g id="text_7">
     <!-- pIC50 -->
     <g transform="translate(238.760781 328.234687) scale(0.12 -0.12)">
      <defs>
       <path id="DejaVuSans-53" d="M 1159 525 
L 1159 -1331 
L 581 -1331 
L 581 3500 
L 1159 3500 
L 1159 2969 
Q 1341 3281 1617 3432 
Q 1894 3584 2278 3584 
Q 2916 3584 3314 3078 
Q 3713 2572 3713 1747 
Q 3713 922 3314 415 
Q 2916 -91 2278 -91 
Q 1894 -91 1617 61 
Q 1341 213 1159 525 
z
M 3116 1747 
Q 3116 2381 2855 2742 
Q 2594 3103 2138 3103 
Q 1681 3103 1420 2742 
Q 1159 2381 1159 1747 
Q 1159 1113 1420 752 
Q 1681 391 2138 391 
Q 2594 391 2855 752 
Q 3116 1113 3116 1747 
z
" transform="scale(0.015625)"/>
       <path id="DejaVuSans-2c" d="M 628 4666 
L 1259 4666 
L 1259 0 
L 628 0 
L 628 4666 
z
" transform="scale(0.015625)"/>
       <path id="DejaVuSans-26" d="M 4122 4306 
L 4122 3641 
Q 3803 3938 3442 4084 
Q 3081 4231 2675 4231 
Q 1875 4231 1450 3742 
Q 1025 3253 1025 2328 
Q 1025 1406 1450 917 
Q 1875 428 2675 428 
Q 3081 428 3442 575 
Q 3803 722 4122 1019 
L 4122 359 
Q 3791 134 3420 21 
Q 3050 -91 2638 -91 
Q 1578 -91 968 557 
Q 359 1206 359 2328 
Q 359 3453 968 4101 
Q 1578 4750 2638 4750 
Q 3056 4750 3426 4639 
Q 3797 4528 4122 4306 
z
" transform="scale(0.015625)"/>
      </defs>
      <use xlink:href="#DejaVuSans-53"/>
      <use xlink:href="#DejaVuSans-2c" transform="translate(63.484375 0)"/>
      <use xlink:href="#DejaVuSans-26" transform="translate(92.984375 0)"/>
      <use xlink:href="#DejaVuSans-18" transform="translate(162.8125 0)"/>
      <use xlink:href="#DejaVuSans-13" transform="translate(226.4375 0)"/>
     </g>
    </g>
   </g>
   <g id="matplotlib.axis_2">
    <g id="ytick_1">
     <g id="line2d_7">
      <defs>
       <path id="m8dfdaeea47" d="M 0 0 
L -3.5 0 
" style="stroke: #000000; stroke-width: 0.8"/>
      </defs>
      <g>
       <use xlink:href="#m8dfdaeea47" x="65.825938" y="292.1175" style="stroke: #000000; stroke-width: 0.8"/>
      </g>
     </g>
     <g id="text_8">
      <!-- 0.00 -->
      <g transform="translate(23.200938 298.195625) scale(0.16 -0.16)">
       <use xlink:href="#DejaVuSans-13"/>
       <use xlink:href="#DejaVuSans-11" transform="translate(63.625 0)"/>
       <use xlink:href="#DejaVuSans-13" transform="translate(95.40625 0)"/>
       <use xlink:href="#DejaVuSans-13" transform="translate(159.03125 0)"/>
      </g>
     </g>
    </g>
    <g id="ytick_2">
     <g id="line2d_8">
      <g>
       <use xlink:href="#m8dfdaeea47" x="65.825938" y="229.931855" style="stroke: #000000; stroke-width: 0.8"/>
      </g>
     </g>
     <g id="text_9">
      <!-- 0.05 -->
      <g transform="translate(23.200938 236.00998) scale(0.16 -0.16)">
       <use xlink:href="#DejaVuSans-13"/>
       <use xlink:href="#DejaVuSans-11" transform="translate(63.625 0)"/>
       <use xlink:href="#DejaVuSans-13" transform="translate(95.40625 0)"/>
       <use xlink:href="#DejaVuSans-18" transform="translate(159.03125 0)"/>
      </g>
     </g>
    </g>
    <g id="ytick_3">
     <g id="line2d_9">
      <g>
       <use xlink:href="#m8dfdaeea47" x="65.825938" y="167.74621" style="stroke: #000000; stroke-width: 0.8"/>
      </g>
     </g>
     <g id="text_10">
      <!-- 0.10 -->
      <g transform="translate(23.200938 173.824335) scale(0.16 -0.16)">
       <use xlink:href="#DejaVuSans-13"/>
       <use xlink:href="#DejaVuSans-11" transform="translate(63.625 0)"/>
       <use xlink:href="#DejaVuSans-14" transform="translate(95.40625 0)"/>
       <use xlink:href="#DejaVuSans-13" transform="translate(159.03125 0)"/>
      </g>
     </g>
    </g>
    <g id="ytick_4">
     <g id="line2d_10">
      <g>
       <use xlink:href="#m8dfdaeea47" x="65.825938" y="105.560565" style="stroke: #000000; stroke-width: 0.8"/>
      </g>
     </g>
     <g id="text_11">
      <!-- 0.15 -->
      <g transform="translate(23.200938 111.63869) scale(0.16 -0.16)">
       <use xlink:href="#DejaVuSans-13"/>
       <use xlink:href="#DejaVuSans-11" transform="translate(63.625 0)"/>
       <use xlink:href="#DejaVuSans-14" transform="translate(95.40625 0)"/>
       <use xlink:href="#DejaVuSans-18" transform="translate(159.03125 0)"/>
      </g>
     </g>
    </g>
    <g id="ytick_5">
     <g id="line2d_11">
      <g>
       <use xlink:href="#m8dfdaeea47" x="65.825938" y="43.37492" style="stroke: #000000; stroke-width: 0.8"/>
      </g>
     </g>
     <g id="text_12">
      <!-- 0.20 -->
      <g transform="translate(23.200938 49.453045) scale(0.16 -0.16)">
       <use xlink:href="#DejaVuSans-13"/>
       <use xlink:href="#DejaVuSans-11" transform="translate(63.625 0)"/>
       <use xlink:href="#DejaVuSans-15" transform="translate(95.40625 0)"/>
       <use xlink:href="#DejaVuSans-13" transform="translate(159.03125 0)"/>
      </g>
     </g>
    </g>
    <g id="text_13">
     <!-- Density -->
     <g transform="translate(16.318125 181.547812) rotate(-90) scale(0.12 -0.12)">
      <defs>
       <path id="DejaVuSans-27" d="M 1259 4147 
L 1259 519 
L 2022 519 
Q 2988 519 3436 956 
Q 3884 1394 3884 2338 
Q 3884 3275 3436 3711 
Q 2988 4147 2022 4147 
L 1259 4147 
z
M 628 4666 
L 1925 4666 
Q 3281 4666 3915 4102 
Q 4550 3538 4550 2338 
Q 4550 1131 3912 565 
Q 3275 0 1925 0 
L 628 0 
L 628 4666 
z
" transform="scale(0.015625)"/>
       <path id="DejaVuSans-48" d="M 3597 1894 
L 3597 1613 
L 953 1613 
Q 991 1019 1311 708 
Q 1631 397 2203 397 
Q 2534 397 2845 478 
Q 3156 559 3463 722 
L 3463 178 
Q 3153 47 2828 -22 
Q 2503 -91 2169 -91 
Q 1331 -91 842 396 
Q 353 884 353 1716 
Q 353 2575 817 3079 
Q 1281 3584 2069 3584 
Q 2775 3584 3186 3129 
Q 3597 2675 3597 1894 
z
M 3022 2063 
Q 3016 2534 2758 2815 
Q 2500 3097 2075 3097 
Q 1594 3097 1305 2825 
Q 1016 2553 972 2059 
L 3022 2063 
z
" transform="scale(0.015625)"/>
       <path id="DejaVuSans-51" d="M 3513 2113 
L 3513 0 
L 2938 0 
L 2938 2094 
Q 2938 2591 2744 2837 
Q 2550 3084 2163 3084 
Q 1697 3084 1428 2787 
Q 1159 2491 1159 1978 
L 1159 0 
L 581 0 
L 581 3500 
L 1159 3500 
L 1159 2956 
Q 1366 3272 1645 3428 
Q 1925 3584 2291 3584 
Q 2894 3584 3203 3211 
Q 3513 2838 3513 2113 
z
" transform="scale(0.015625)"/>
       <path id="DejaVuSans-56" d="M 2834 3397 
L 2834 2853 
Q 2591 2978 2328 3040 
Q 2066 3103 1784 3103 
Q 1356 3103 1142 2972 
Q 928 2841 928 2578 
Q 928 2378 1081 2264 
Q 1234 2150 1697 2047 
L 1894 2003 
Q 2506 1872 2764 1633 
Q 3022 1394 3022 966 
Q 3022 478 2636 193 
Q 2250 -91 1575 -91 
Q 1294 -91 989 -36 
Q 684 19 347 128 
L 347 722 
Q 666 556 975 473 
Q 1284 391 1588 391 
Q 1994 391 2212 530 
Q 2431 669 2431 922 
Q 2431 1156 2273 1281 
Q 2116 1406 1581 1522 
L 1381 1569 
Q 847 1681 609 1914 
Q 372 2147 372 2553 
Q 372 3047 722 3315 
Q 1072 3584 1716 3584 
Q 2034 3584 2315 3537 
Q 2597 3491 2834 3397 
z
" transform="scale(0.015625)"/>
       <path id="DejaVuSans-4c" d="M 603 3500 
L 1178 3500 
L 1178 0 
L 603 0 
L 603 3500 
z
M 603 4863 
L 1178 4863 
L 1178 4134 
L 603 4134 
L 603 4863 
z
" transform="scale(0.015625)"/>
       <path id="DejaVuSans-57" d="M 1172 4494 
L 1172 3500 
L 2356 3500 
L 2356 3053 
L 1172 3053 
L 1172 1153 
Q 1172 725 1289 603 
Q 1406 481 1766 481 
L 2356 481 
L 2356 0 
L 1766 0 
Q 1100 0 847 248 
Q 594 497 594 1153 
L 594 3053 
L 172 3053 
L 172 3500 
L 594 3500 
L 594 4494 
L 1172 4494 
z
" transform="scale(0.015625)"/>
       <path id="DejaVuSans-5c" d="M 2059 -325 
Q 1816 -950 1584 -1140 
Q 1353 -1331 966 -1331 
L 506 -1331 
L 506 -850 
L 844 -850 
Q 1081 -850 1212 -737 
Q 1344 -625 1503 -206 
L 1606 56 
L 191 3500 
L 800 3500 
L 1894 763 
L 2988 3500 
L 3597 3500 
L 2059 -325 
z
" transform="scale(0.015625)"/>
      </defs>
      <use xlink:href="#DejaVuSans-27"/>
      <use xlink:href="#DejaVuSans-48" transform="translate(77 0)"/>
      <use xlink:href="#DejaVuSans-51" transform="translate(138.53125 0)"/>
      <use xlink:href="#DejaVuSans-56" transform="translate(201.90625 0)"/>
      <use xlink:href="#DejaVuSans-4c" transform="translate(254 0)"/>
      <use xlink:href="#DejaVuSans-57" transform="translate(281.78125 0)"/>
      <use xlink:href="#DejaVuSans-5c" transform="translate(320.984375 0)"/>
     </g>
    </g>
   </g>
   <g id="line2d_12">
    <path d="M 83.129446 292.106395 
L 95.302769 291.97594 
L 102.258953 291.709719 
L 109.215137 291.205261 
L 116.171322 290.439957 
L 121.38846 289.665975 
L 126.605598 288.620375 
L 130.08369 287.693921 
L 133.561782 286.525984 
L 137.039875 285.082888 
L 140.517967 283.356122 
L 143.996059 281.360255 
L 147.474151 279.114796 
L 150.952243 276.6111 
L 154.430335 273.773179 
L 156.169381 272.179045 
L 157.908428 270.428618 
L 159.647474 268.485243 
L 161.38652 266.308531 
L 163.125566 263.856736 
L 164.864612 261.089689 
L 166.603658 257.972051 
L 168.342704 254.476585 
L 170.08175 250.587085 
L 171.820796 246.300589 
L 173.559842 241.628537 
L 177.037934 231.243042 
L 180.516027 219.767408 
L 185.733165 201.396372 
L 192.689349 175.913841 
L 196.167441 162.571336 
L 199.645534 148.535637 
L 204.862672 126.316414 
L 208.340764 111.532707 
L 211.818856 97.956519 
L 213.557902 91.999353 
L 215.296948 86.785426 
L 217.035994 82.430987 
L 218.77504 79.0221 
L 220.514087 76.609812 
L 222.253133 75.208353 
L 223.992179 74.796238 
L 225.731225 75.319726 
L 227.470271 76.697912 
L 229.209317 78.828622 
L 230.948363 81.594364 
L 232.687409 84.867788 
L 236.165501 92.406185 
L 241.38264 104.231441 
L 243.121686 107.830902 
L 244.860732 111.091211 
L 246.599778 113.935695 
L 248.338824 116.30759 
L 250.07787 118.171495 
L 251.816916 119.513202 
L 253.555962 120.337589 
L 255.295008 120.664538 
L 257.034054 120.5232 
L 258.7731 119.945304 
L 260.512146 118.958469 
L 262.251193 117.580623 
L 263.990239 115.8166 
L 265.729285 113.657701 
L 267.468331 111.084649 
L 269.207377 108.073769 
L 270.946423 104.605738 
L 272.685469 100.6757 
L 274.424515 96.303268 
L 277.902607 86.478432 
L 283.119746 70.945381 
L 284.858792 66.273082 
L 286.597838 62.190935 
L 288.336884 58.887564 
L 290.07593 56.522726 
L 291.814976 55.216482 
L 293.554022 55.042425 
L 295.293068 56.025531 
L 297.032114 58.144576 
L 298.77116 61.338448 
L 300.510206 65.5152 
L 302.249252 70.562449 
L 303.988299 76.357684 
L 305.727345 82.777238 
L 309.205437 97.026851 
L 312.683529 112.491568 
L 323.117805 160.104158 
L 326.595898 174.749325 
L 330.07399 188.151906 
L 333.552082 200.104875 
L 335.291128 205.505154 
L 337.030174 210.514651 
L 338.76922 215.132743 
L 340.508266 219.36144 
L 342.247312 223.205627 
L 343.986358 226.674148 
L 345.725405 229.78152 
L 347.464451 232.549882 
L 349.203497 235.010654 
L 350.942543 237.205406 
L 354.420635 241.010437 
L 361.376819 248.025578 
L 364.854911 252.082339 
L 368.333004 256.728958 
L 373.550142 264.412658 
L 377.028234 269.50277 
L 380.506326 274.15914 
L 382.245372 276.249993 
L 383.984418 278.162491 
L 385.723464 279.893362 
L 387.46251 281.447059 
L 389.201557 282.833735 
L 390.940603 284.067095 
L 394.418695 286.134853 
L 397.896787 287.765065 
L 401.374879 289.045567 
L 404.852971 290.034571 
L 408.331063 290.772812 
L 411.809156 291.29708 
L 417.026294 291.770051 
L 422.243432 291.991261 
L 429.199616 292.092082 
L 429.199616 292.092082 
" clip-path="url(#pb03c336528)" style="fill: none; stroke: #a20025; stroke-width: 1.5; stroke-linecap: square"/>
   </g>
   <g id="patch_22">
    <path d="M 65.825938 292.1175 
L 65.825938 25.3575 
" style="fill: none; stroke: #000000; stroke-width: 0.8; stroke-linejoin: miter; stroke-linecap: square"/>
   </g>
   <g id="patch_23">
    <path d="M 446.503125 292.1175 
L 446.503125 25.3575 
" style="fill: none; stroke: #000000; stroke-width: 0.8; stroke-linejoin: miter; stroke-linecap: square"/>
   </g>
   <g id="patch_24">
    <path d="M 65.825938 292.1175 
L 446.503125 292.1175 
" style="fill: none; stroke: #000000; stroke-width: 0.8; stroke-linejoin: miter; stroke-linecap: square"/>
   </g>
   <g id="patch_25">
    <path d="M 65.825938 25.3575 
L 446.503125 25.3575 
" style="fill: none; stroke: #000000; stroke-width: 0.8; stroke-linejoin: miter; stroke-linecap: square"/>
   </g>
   <g id="text_14">
    <!-- Distribution of pIC50 with Simulated Annotation Error -->
    <g transform="translate(42.555781 19.3575) scale(0.16 -0.16)">
     <defs>
      <path id="DejaVuSans-55" d="M 2631 2963 
Q 2534 3019 2420 3045 
Q 2306 3072 2169 3072 
Q 1681 3072 1420 2755 
Q 1159 2438 1159 1844 
L 1159 0 
L 581 0 
L 581 3500 
L 1159 3500 
L 1159 2956 
Q 1341 3275 1631 3429 
Q 1922 3584 2338 3584 
Q 2397 3584 2469 3576 
Q 2541 3569 2628 3553 
L 2631 2963 
z
" transform="scale(0.015625)"/>
      <path id="DejaVuSans-45" d="M 3116 1747 
Q 3116 2381 2855 2742 
Q 2594 3103 2138 3103 
Q 1681 3103 1420 2742 
Q 1159 2381 1159 1747 
Q 1159 1113 1420 752 
Q 1681 391 2138 391 
Q 2594 391 2855 752 
Q 3116 1113 3116 1747 
z
M 1159 2969 
Q 1341 3281 1617 3432 
Q 1894 3584 2278 3584 
Q 2916 3584 3314 3078 
Q 3713 2572 3713 1747 
Q 3713 922 3314 415 
Q 2916 -91 2278 -91 
Q 1894 -91 1617 61 
Q 1341 213 1159 525 
L 1159 0 
L 581 0 
L 581 4863 
L 1159 4863 
L 1159 2969 
z
" transform="scale(0.015625)"/>
      <path id="DejaVuSans-58" d="M 544 1381 
L 544 3500 
L 1119 3500 
L 1119 1403 
Q 1119 906 1312 657 
Q 1506 409 1894 409 
Q 2359 409 2629 706 
Q 2900 1003 2900 1516 
L 2900 3500 
L 3475 3500 
L 3475 0 
L 2900 0 
L 2900 538 
Q 2691 219 2414 64 
Q 2138 -91 1772 -91 
Q 1169 -91 856 284 
Q 544 659 544 1381 
z
M 1991 3584 
L 1991 3584 
z
" transform="scale(0.015625)"/>
      <path id="DejaVuSans-52" d="M 1959 3097 
Q 1497 3097 1228 2736 
Q 959 2375 959 1747 
Q 959 1119 1226 758 
Q 1494 397 1959 397 
Q 2419 397 2687 759 
Q 2956 1122 2956 1747 
Q 2956 2369 2687 2733 
Q 2419 3097 1959 3097 
z
M 1959 3584 
Q 2709 3584 3137 3096 
Q 3566 2609 3566 1747 
Q 3566 888 3137 398 
Q 2709 -91 1959 -91 
Q 1206 -91 779 398 
Q 353 888 353 1747 
Q 353 2609 779 3096 
Q 1206 3584 1959 3584 
z
" transform="scale(0.015625)"/>
      <path id="DejaVuSans-3" transform="scale(0.015625)"/>
      <path id="DejaVuSans-49" d="M 2375 4863 
L 2375 4384 
L 1825 4384 
Q 1516 4384 1395 4259 
Q 1275 4134 1275 3809 
L 1275 3500 
L 2222 3500 
L 2222 3053 
L 1275 3053 
L 1275 0 
L 697 0 
L 697 3053 
L 147 3053 
L 147 3500 
L 697 3500 
L 697 3744 
Q 697 4328 969 4595 
Q 1241 4863 1831 4863 
L 2375 4863 
z
" transform="scale(0.015625)"/>
      <path id="DejaVuSans-5a" d="M 269 3500 
L 844 3500 
L 1563 769 
L 2278 3500 
L 2956 3500 
L 3675 769 
L 4391 3500 
L 4966 3500 
L 4050 0 
L 3372 0 
L 2619 2869 
L 1863 0 
L 1184 0 
L 269 3500 
z
" transform="scale(0.015625)"/>
      <path id="DejaVuSans-4b" d="M 3513 2113 
L 3513 0 
L 2938 0 
L 2938 2094 
Q 2938 2591 2744 2837 
Q 2550 3084 2163 3084 
Q 1697 3084 1428 2787 
Q 1159 2491 1159 1978 
L 1159 0 
L 581 0 
L 581 4863 
L 1159 4863 
L 1159 2956 
Q 1366 3272 1645 3428 
Q 1925 3584 2291 3584 
Q 2894 3584 3203 3211 
Q 3513 2838 3513 2113 
z
" transform="scale(0.015625)"/>
      <path id="DejaVuSans-36" d="M 3425 4513 
L 3425 3897 
Q 3066 4069 2747 4153 
Q 2428 4238 2131 4238 
Q 1616 4238 1336 4038 
Q 1056 3838 1056 3469 
Q 1056 3159 1242 3001 
Q 1428 2844 1947 2747 
L 2328 2669 
Q 3034 2534 3370 2195 
Q 3706 1856 3706 1288 
Q 3706 609 3251 259 
Q 2797 -91 1919 -91 
Q 1588 -91 1214 -16 
Q 841 59 441 206 
L 441 856 
Q 825 641 1194 531 
Q 1563 422 1919 422 
Q 2459 422 2753 634 
Q 3047 847 3047 1241 
Q 3047 1584 2836 1778 
Q 2625 1972 2144 2069 
L 1759 2144 
Q 1053 2284 737 2584 
Q 422 2884 422 3419 
Q 422 4038 858 4394 
Q 1294 4750 2059 4750 
Q 2388 4750 2728 4690 
Q 3069 4631 3425 4513 
z
" transform="scale(0.015625)"/>
      <path id="DejaVuSans-50" d="M 3328 2828 
Q 3544 3216 3844 3400 
Q 4144 3584 4550 3584 
Q 5097 3584 5394 3201 
Q 5691 2819 5691 2113 
L 5691 0 
L 5113 0 
L 5113 2094 
Q 5113 2597 4934 2840 
Q 4756 3084 4391 3084 
Q 3944 3084 3684 2787 
Q 3425 2491 3425 1978 
L 3425 0 
L 2847 0 
L 2847 2094 
Q 2847 2600 2669 2842 
Q 2491 3084 2119 3084 
Q 1678 3084 1418 2786 
Q 1159 2488 1159 1978 
L 1159 0 
L 581 0 
L 581 3500 
L 1159 3500 
L 1159 2956 
Q 1356 3278 1631 3431 
Q 1906 3584 2284 3584 
Q 2666 3584 2933 3390 
Q 3200 3197 3328 2828 
z
" transform="scale(0.015625)"/>
      <path id="DejaVuSans-4f" d="M 603 4863 
L 1178 4863 
L 1178 0 
L 603 0 
L 603 4863 
z
" transform="scale(0.015625)"/>
      <path id="DejaVuSans-44" d="M 2194 1759 
Q 1497 1759 1228 1600 
Q 959 1441 959 1056 
Q 959 750 1161 570 
Q 1363 391 1709 391 
Q 2188 391 2477 730 
Q 2766 1069 2766 1631 
L 2766 1759 
L 2194 1759 
z
M 3341 1997 
L 3341 0 
L 2766 0 
L 2766 531 
Q 2569 213 2275 61 
Q 1981 -91 1556 -91 
Q 1019 -91 701 211 
Q 384 513 384 1019 
Q 384 1609 779 1909 
Q 1175 2209 1959 2209 
L 2766 2209 
L 2766 2266 
Q 2766 2663 2505 2880 
Q 2244 3097 1772 3097 
Q 1472 3097 1187 3025 
Q 903 2953 641 2809 
L 641 3341 
Q 956 3463 1253 3523 
Q 1550 3584 1831 3584 
Q 2591 3584 2966 3190 
Q 3341 2797 3341 1997 
z
" transform="scale(0.015625)"/>
      <path id="DejaVuSans-47" d="M 2906 2969 
L 2906 4863 
L 3481 4863 
L 3481 0 
L 2906 0 
L 2906 525 
Q 2725 213 2448 61 
Q 2172 -91 1784 -91 
Q 1150 -91 751 415 
Q 353 922 353 1747 
Q 353 2572 751 3078 
Q 1150 3584 1784 3584 
Q 2172 3584 2448 3432 
Q 2725 3281 2906 2969 
z
M 947 1747 
Q 947 1113 1208 752 
Q 1469 391 1925 391 
Q 2381 391 2643 752 
Q 2906 1113 2906 1747 
Q 2906 2381 2643 2742 
Q 2381 3103 1925 3103 
Q 1469 3103 1208 2742 
Q 947 2381 947 1747 
z
" transform="scale(0.015625)"/>
      <path id="DejaVuSans-24" d="M 2188 4044 
L 1331 1722 
L 3047 1722 
L 2188 4044 
z
M 1831 4666 
L 2547 4666 
L 4325 0 
L 3669 0 
L 3244 1197 
L 1141 1197 
L 716 0 
L 50 0 
L 1831 4666 
z
" transform="scale(0.015625)"/>
      <path id="DejaVuSans-28" d="M 628 4666 
L 3578 4666 
L 3578 4134 
L 1259 4134 
L 1259 2753 
L 3481 2753 
L 3481 2222 
L 1259 2222 
L 1259 531 
L 3634 531 
L 3634 0 
L 628 0 
L 628 4666 
z
" transform="scale(0.015625)"/>
     </defs>
     <use xlink:href="#DejaVuSans-27"/>
     <use xlink:href="#DejaVuSans-4c" transform="translate(77 0)"/>
     <use xlink:href="#DejaVuSans-56" transform="translate(104.78125 0)"/>
     <use xlink:href="#DejaVuSans-57" transform="translate(156.875 0)"/>
     <use xlink:href="#DejaVuSans-55" transform="translate(196.078125 0)"/>
     <use xlink:href="#DejaVuSans-4c" transform="translate(237.1875 0)"/>
     <use xlink:href="#DejaVuSans-45" transform="translate(264.96875 0)"/>
     <use xlink:href="#DejaVuSans-58" transform="translate(328.453125 0)"/>
     <use xlink:href="#DejaVuSans-57" transform="translate(391.828125 0)"/>
     <use xlink:href="#DejaVuSans-4c" transform="translate(431.03125 0)"/>
     <use xlink:href="#DejaVuSans-52" transform="translate(458.8125 0)"/>
     <use xlink:href="#DejaVuSans-51" transform="translate(520 0)"/>
     <use xlink:href="#DejaVuSans-3" transform="translate(583.375 0)"/>
     <use xlink:href="#DejaVuSans-52" transform="translate(615.15625 0)"/>
     <use xlink:href="#DejaVuSans-49" transform="translate(676.34375 0)"/>
     <use xlink:href="#DejaVuSans-3" transform="translate(711.546875 0)"/>
     <use xlink:href="#DejaVuSans-53" transform="translate(743.328125 0)"/>
     <use xlink:href="#DejaVuSans-2c" transform="translate(806.8125 0)"/>
     <use xlink:href="#DejaVuSans-26" transform="translate(836.3125 0)"/>
     <use xlink:href="#DejaVuSans-18" transform="translate(906.140625 0)"/>
     <use xlink:href="#DejaVuSans-13" transform="translate(969.765625 0)"/>
     <use xlink:href="#DejaVuSans-3" transform="translate(1033.390625 0)"/>
     <use xlink:href="#DejaVuSans-5a" transform="translate(1065.171875 0)"/>
     <use xlink:href="#DejaVuSans-4c" transform="translate(1146.953125 0)"/>
     <use xlink:href="#DejaVuSans-57" transform="translate(1174.734375 0)"/>
     <use xlink:href="#DejaVuSans-4b" transform="translate(1213.9375 0)"/>
     <use xlink:href="#DejaVuSans-3" transform="translate(1277.3125 0)"/>
     <use xlink:href="#DejaVuSans-36" transform="translate(1309.09375 0)"/>
     <use xlink:href="#DejaVuSans-4c" transform="translate(1372.578125 0)"/>
     <use xlink:href="#DejaVuSans-50" transform="translate(1400.359375 0)"/>
     <use xlink:href="#DejaVuSans-58" transform="translate(1497.765625 0)"/>
     <use xlink:href="#DejaVuSans-4f" transform="translate(1561.140625 0)"/>
     <use xlink:href="#DejaVuSans-44" transform="translate(1588.921875 0)"/>
     <use xlink:href="#DejaVuSans-57" transform="translate(1650.203125 0)"/>
     <use xlink:href="#DejaVuSans-48" transform="translate(1689.40625 0)"/>
     <use xlink:href="#DejaVuSans-47" transform="translate(1750.9375 0)"/>
     <use xlink:href="#DejaVuSans-3" transform="translate(1814.421875 0)"/>
     <use xlink:href="#DejaVuSans-24" transform="translate(1846.203125 0)"/>
     <use xlink:href="#DejaVuSans-51" transform="translate(1914.609375 0)"/>
     <use xlink:href="#DejaVuSans-51" transform="translate(1977.984375 0)"/>
     <use xlink:href="#DejaVuSans-52" transform="translate(2041.359375 0)"/>
     <use xlink:href="#DejaVuSans-57" transform="translate(2102.546875 0)"/>
     <use xlink:href="#DejaVuSans-44" transform="translate(2141.75 0)"/>
     <use xlink:href="#DejaVuSans-57" transform="translate(2203.03125 0)"/>
     <use xlink:href="#DejaVuSans-4c" transform="translate(2242.234375 0)"/>
     <use xlink:href="#DejaVuSans-52" transform="translate(2270.015625 0)"/>
     <use xlink:href="#DejaVuSans-51" transform="translate(2331.203125 0)"/>
     <use xlink:href="#DejaVuSans-3" transform="translate(2394.578125 0)"/>
     <use xlink:href="#DejaVuSans-28" transform="translate(2426.359375 0)"/>
     <use xlink:href="#DejaVuSans-55" transform="translate(2489.546875 0)"/>
     <use xlink:href="#DejaVuSans-55" transform="translate(2528.90625 0)"/>
     <use xlink:href="#DejaVuSans-52" transform="translate(2567.8125 0)"/>
     <use xlink:href="#DejaVuSans-55" transform="translate(2629 0)"/>
    </g>
   </g>
  </g>
 </g>
 <defs>
  <clipPath id="pb03c336528">
   <rect x="65.825938" y="25.3575" width="380.677187" height="266.76"/>
  </clipPath>
 </defs>
</svg>
