<?xml version="1.0" encoding="utf-8" standalone="no"?>
<!DOCTYPE svg PUBLIC "-//W3C//DTD SVG 1.1//EN"
  "http://www.w3.org/Graphics/SVG/1.1/DTD/svg11.dtd">
<svg xmlns:xlink="http://www.w3.org/1999/xlink" width="712.803125pt" height="424.7175pt" viewBox="0 0 712.803125 424.7175" xmlns="http://www.w3.org/2000/svg" version="1.1">
 <metadata>
  <rdf:RDF xmlns:dc="http://purl.org/dc/elements/1.1/" xmlns:cc="http://creativecommons.org/ns#" xmlns:rdf="http://www.w3.org/1999/02/22-rdf-syntax-ns#">
   <cc:Work>
    <dc:type rdf:resource="http://purl.org/dc/dcmitype/StillImage"/>
    <dc:date>2026-07-07T20:25:33.158560</dc:date>
    <dc:format>image/svg+xml</dc:format>
    <dc:creator>
     <cc:Agent>
      <dc:title>Matplotlib v3.11.0, https://matplotlib.org/</dc:title>
     </cc:Agent>
    </dc:creator>
   </cc:Work>
  </rdf:RDF>
 </metadata>
 <defs>
  <style type="text/css">*{stroke-linejoin: round; stroke-linecap: butt}</style>
 </defs>
 <g id="figure_1">
  <g id="patch_1">
   <path d="M 0 424.7175 
L 712.803125 424.7175 
L 712.803125 0 
L 0 0 
z
" style="fill: #ffffff"/>
  </g>
  <g id="axes_1">
   <g id="patch_2">
    <path d="M 55.645938 378.5175 
L 705.603125 378.5175 
L 705.603125 25.3575 
L 55.645938 25.3575 
z
" style="fill: #ffffff"/>
   </g>
   <g id="patch_3">
    <path d="M 149.738298 378.5175 
L 169.815362 378.5175 
L 169.815362 374.205412 
L 149.738298 374.205412 
z
" clip-path="url(#pf4c6a9058c)" style="fill: #a20025; fill-opacity: 0.5; stroke: #ffffff; stroke-opacity: 0.4; stroke-linejoin: miter"/>
   </g>
   <g id="patch_4">
    <path d="M 169.815362 378.5175 
L 189.892426 378.5175 
L 189.892426 374.205412 
L 169.815362 374.205412 
z
" clip-path="url(#pf4c6a9058c)" style="fill: #a20025; fill-opacity: 0.5; stroke: #ffffff; stroke-opacity: 0.4; stroke-linejoin: miter"/>
   </g>
   <g id="patch_5">
    <path d="M 189.892426 378.5175 
L 209.96949 378.5175 
L 209.96949 369.893324 
L 189.892426 369.893324 
z
" clip-path="url(#pf4c6a9058c)" style="fill: #a20025; fill-opacity: 0.5; stroke: #ffffff; stroke-opacity: 0.4; stroke-linejoin: miter"/>
   </g>
   <g id="patch_6">
    <path d="M 209.96949 378.5175 
L 230.046553 378.5175 
L 230.046553 361.269148 
L 209.96949 361.269148 
z
" clip-path="url(#pf4c6a9058c)" style="fill: #a20025; fill-opacity: 0.5; stroke: #ffffff; stroke-opacity: 0.4; stroke-linejoin: miter"/>
   </g>
   <g id="patch_7">
    <path d="M 230.046553 378.5175 
L 250.123617 378.5175 
L 250.123617 348.332885 
L 230.046553 348.332885 
z
" clip-path="url(#pf4c6a9058c)" style="fill: #a20025; fill-opacity: 0.5; stroke: #ffffff; stroke-opacity: 0.4; stroke-linejoin: miter"/>
   </g>
   <g id="patch_8">
    <path d="M 250.123617 378.5175 
L 270.200681 378.5175 
L 270.200681 356.95706 
L 250.123617 356.95706 
z
" clip-path="url(#pf4c6a9058c)" style="fill: #a20025; fill-opacity: 0.5; stroke: #ffffff; stroke-opacity: 0.4; stroke-linejoin: miter"/>
   </g>
   <g id="patch_9">
    <path d="M 270.200681 378.5175 
L 290.277744 378.5175 
L 290.277744 331.084533 
L 270.200681 331.084533 
z
" clip-path="url(#pf4c6a9058c)" style="fill: #a20025; fill-opacity: 0.5; stroke: #ffffff; stroke-opacity: 0.4; stroke-linejoin: miter"/>
   </g>
   <g id="patch_10">
    <path d="M 290.277744 378.5175 
L 310.354808 378.5175 
L 310.354808 257.779038 
L 290.277744 257.779038 
z
" clip-path="url(#pf4c6a9058c)" style="fill: #a20025; fill-opacity: 0.5; stroke: #ffffff; stroke-opacity: 0.4; stroke-linejoin: miter"/>
   </g>
   <g id="patch_11">
    <path d="M 310.354808 378.5175 
L 330.431872 378.5175 
L 330.431872 214.658159 
L 310.354808 214.658159 
z
" clip-path="url(#pf4c6a9058c)" style="fill: #a20025; fill-opacity: 0.5; stroke: #ffffff; stroke-opacity: 0.4; stroke-linejoin: miter"/>
   </g>
   <g id="patch_12">
    <path d="M 330.431872 378.5175 
L 350.508936 378.5175 
L 350.508936 266.403214 
L 330.431872 266.403214 
z
" clip-path="url(#pf4c6a9058c)" style="fill: #a20025; fill-opacity: 0.5; stroke: #ffffff; stroke-opacity: 0.4; stroke-linejoin: miter"/>
   </g>
   <g id="patch_13">
    <path d="M 350.508936 378.5175 
L 370.585999 378.5175 
L 370.585999 119.792225 
L 350.508936 119.792225 
z
" clip-path="url(#pf4c6a9058c)" style="fill: #a20025; fill-opacity: 0.5; stroke: #ffffff; stroke-opacity: 0.4; stroke-linejoin: miter"/>
   </g>
   <g id="patch_14">
    <path d="M 370.585999 378.5175 
L 390.663063 378.5175 
L 390.663063 42.174643 
L 370.585999 42.174643 
z
" clip-path="url(#pf4c6a9058c)" style="fill: #a20025; fill-opacity: 0.5; stroke: #ffffff; stroke-opacity: 0.4; stroke-linejoin: miter"/>
   </g>
   <g id="patch_15">
    <path d="M 390.663063 378.5175 
L 410.740127 378.5175 
L 410.740127 137.040577 
L 390.663063 137.040577 
z
" clip-path="url(#pf4c6a9058c)" style="fill: #a20025; fill-opacity: 0.5; stroke: #ffffff; stroke-opacity: 0.4; stroke-linejoin: miter"/>
   </g>
   <g id="patch_16">
    <path d="M 410.740127 378.5175 
L 430.817191 378.5175 
L 430.817191 141.352665 
L 410.740127 141.352665 
z
" clip-path="url(#pf4c6a9058c)" style="fill: #a20025; fill-opacity: 0.5; stroke: #ffffff; stroke-opacity: 0.4; stroke-linejoin: miter"/>
   </g>
   <g id="patch_17">
    <path d="M 430.817191 378.5175 
L 450.894254 378.5175 
L 450.894254 184.473544 
L 430.817191 184.473544 
z
" clip-path="url(#pf4c6a9058c)" style="fill: #a20025; fill-opacity: 0.5; stroke: #ffffff; stroke-opacity: 0.4; stroke-linejoin: miter"/>
   </g>
   <g id="patch_18">
    <path d="M 450.894254 378.5175 
L 470.971318 378.5175 
L 470.971318 266.403214 
L 450.894254 266.403214 
z
" clip-path="url(#pf4c6a9058c)" style="fill: #a20025; fill-opacity: 0.5; stroke: #ffffff; stroke-opacity: 0.4; stroke-linejoin: miter"/>
   </g>
   <g id="patch_19">
    <path d="M 470.971318 378.5175 
L 491.048382 378.5175 
L 491.048382 279.339478 
L 470.971318 279.339478 
z
" clip-path="url(#pf4c6a9058c)" style="fill: #a20025; fill-opacity: 0.5; stroke: #ffffff; stroke-opacity: 0.4; stroke-linejoin: miter"/>
   </g>
   <g id="patch_20">
    <path d="M 491.048382 378.5175 
L 511.125446 378.5175 
L 511.125446 309.524093 
L 491.048382 309.524093 
z
" clip-path="url(#pf4c6a9058c)" style="fill: #a20025; fill-opacity: 0.5; stroke: #ffffff; stroke-opacity: 0.4; stroke-linejoin: miter"/>
   </g>
   <g id="patch_21">
    <path d="M 511.125446 378.5175 
L 531.202509 378.5175 
L 531.202509 331.084533 
L 511.125446 331.084533 
z
" clip-path="url(#pf4c6a9058c)" style="fill: #a20025; fill-opacity: 0.5; stroke: #ffffff; stroke-opacity: 0.4; stroke-linejoin: miter"/>
   </g>
   <g id="patch_22">
    <path d="M 531.202509 378.5175 
L 551.279573 378.5175 
L 551.279573 292.275742 
L 531.202509 292.275742 
z
" clip-path="url(#pf4c6a9058c)" style="fill: #a20025; fill-opacity: 0.5; stroke: #ffffff; stroke-opacity: 0.4; stroke-linejoin: miter"/>
   </g>
   <g id="patch_23">
    <path d="M 551.279573 378.5175 
L 571.356637 378.5175 
L 571.356637 348.332885 
L 551.279573 348.332885 
z
" clip-path="url(#pf4c6a9058c)" style="fill: #a20025; fill-opacity: 0.5; stroke: #ffffff; stroke-opacity: 0.4; stroke-linejoin: miter"/>
   </g>
   <g id="patch_24">
    <path d="M 571.356637 378.5175 
L 591.4337 378.5175 
L 591.4337 365.581236 
L 571.356637 365.581236 
z
" clip-path="url(#pf4c6a9058c)" style="fill: #a20025; fill-opacity: 0.5; stroke: #ffffff; stroke-opacity: 0.4; stroke-linejoin: miter"/>
   </g>
   <g id="patch_25">
    <path d="M 591.4337 378.5175 
L 611.510764 378.5175 
L 611.510764 365.581236 
L 591.4337 365.581236 
z
" clip-path="url(#pf4c6a9058c)" style="fill: #a20025; fill-opacity: 0.5; stroke: #ffffff; stroke-opacity: 0.4; stroke-linejoin: miter"/>
   </g>
   <g id="matplotlib.axis_1">
    <g id="xtick_1">
     <g id="line2d_1">
      <defs>
       <path id="mc13d494499" d="M 0 0 
L 0 3.5 
" style="stroke: #000000; stroke-width: 0.8"/>
      </defs>
      <g>
       <use xlink:href="#mc13d494499" x="83.774891" y="378.5175" style="stroke: #000000; stroke-width: 0.8"/>
      </g>
     </g>
     <g id="text_1">
      <!-- 0 -->
      <g transform="translate(78.684891 397.67375) scale(0.16 -0.16)">
       <defs>
        <path id="DejaVuSans-13" d="M 2034 4250 
Q 1547 4250 1301 3770 
Q 1056 3291 1056 2328 
Q 1056 1369 1301 889 
Q 1547 409 2034 409 
Q 2525 409 2770 889 
Q 3016 1369 3016 2328 
Q 3016 3291 2770 3770 
Q 2525 4250 2034 4250 
z
M 2034 4750 
Q 2819 4750 3233 4129 
Q 3647 3509 3647 2328 
Q 3647 1150 3233 529 
Q 2819 -91 2034 -91 
Q 1250 -91 836 529 
Q 422 1150 422 2328 
Q 422 3509 836 4129 
Q 1250 4750 2034 4750 
z
" transform="scale(0.015625)"/>
       </defs>
       <use xlink:href="#DejaVuSans-13"/>
      </g>
     </g>
    </g>
    <g id="xtick_2">
     <g id="line2d_2">
      <g>
       <use xlink:href="#mc13d494499" x="201.04953" y="378.5175" style="stroke: #000000; stroke-width: 0.8"/>
      </g>
     </g>
     <g id="text_2">
      <!-- 2 -->
      <g transform="translate(195.95953 397.67375) scale(0.16 -0.16)">
       <defs>
        <path id="DejaVuSans-15" d="M 1228 531 
L 3431 531 
L 3431 0 
L 469 0 
L 469 531 
Q 828 903 1448 1529 
Q 2069 2156 2228 2338 
Q 2531 2678 2651 2914 
Q 2772 3150 2772 3378 
Q 2772 3750 2511 3984 
Q 2250 4219 1831 4219 
Q 1534 4219 1204 4116 
Q 875 4013 500 3803 
L 500 4441 
Q 881 4594 1212 4672 
Q 1544 4750 1819 4750 
Q 2544 4750 2975 4387 
Q 3406 4025 3406 3419 
Q 3406 3131 3298 2873 
Q 3191 2616 2906 2266 
Q 2828 2175 2409 1742 
Q 1991 1309 1228 531 
z
" transform="scale(0.015625)"/>
       </defs>
       <use xlink:href="#DejaVuSans-15"/>
      </g>
     </g>
    </g>
    <g id="xtick_3">
     <g id="line2d_3">
      <g>
       <use xlink:href="#mc13d494499" x="318.324168" y="378.5175" style="stroke: #000000; stroke-width: 0.8"/>
      </g>
     </g>
     <g id="text_3">
      <!-- 4 -->
      <g transform="translate(313.234168 397.67375) scale(0.16 -0.16)">
       <defs>
        <path id="DejaVuSans-17" d="M 2419 4116 
L 825 1625 
L 2419 1625 
L 2419 4116 
z
M 2253 4666 
L 3047 4666 
L 3047 1625 
L 3713 1625 
L 3713 1100 
L 3047 1100 
L 3047 0 
L 2419 0 
L 2419 1100 
L 313 1100 
L 313 1709 
L 2253 4666 
z
" transform="scale(0.015625)"/>
       </defs>
       <use xlink:href="#DejaVuSans-17"/>
      </g>
     </g>
    </g>
    <g id="xtick_4">
     <g id="line2d_4">
      <g>
       <use xlink:href="#mc13d494499" x="435.598806" y="378.5175" style="stroke: #000000; stroke-width: 0.8"/>
      </g>
     </g>
     <g id="text_4">
      <!-- 6 -->
      <g transform="translate(430.508806 397.67375) scale(0.16 -0.16)">
       <defs>
        <path id="DejaVuSans-19" d="M 2113 2584 
Q 1688 2584 1439 2293 
Q 1191 2003 1191 1497 
Q 1191 994 1439 701 
Q 1688 409 2113 409 
Q 2538 409 2786 701 
Q 3034 994 3034 1497 
Q 3034 2003 2786 2293 
Q 2538 2584 2113 2584 
z
M 3366 4563 
L 3366 3988 
Q 3128 4100 2886 4159 
Q 2644 4219 2406 4219 
Q 1781 4219 1451 3797 
Q 1122 3375 1075 2522 
Q 1259 2794 1537 2939 
Q 1816 3084 2150 3084 
Q 2853 3084 3261 2657 
Q 3669 2231 3669 1497 
Q 3669 778 3244 343 
Q 2819 -91 2113 -91 
Q 1303 -91 875 529 
Q 447 1150 447 2328 
Q 447 3434 972 4092 
Q 1497 4750 2381 4750 
Q 2619 4750 2861 4703 
Q 3103 4656 3366 4563 
z
" transform="scale(0.015625)"/>
       </defs>
       <use xlink:href="#DejaVuSans-19"/>
      </g>
     </g>
    </g>
    <g id="xtick_5">
     <g id="line2d_5">
      <g>
       <use xlink:href="#mc13d494499" x="552.873445" y="378.5175" style="stroke: #000000; stroke-width: 0.8"/>
      </g>
     </g>
     <g id="text_5">
      <!-- 8 -->
      <g transform="translate(547.783445 397.67375) scale(0.16 -0.16)">
       <defs>
        <path id="DejaVuSans-1b" d="M 2034 2216 
Q 1584 2216 1326 1975 
Q 1069 1734 1069 1313 
Q 1069 891 1326 650 
Q 1584 409 2034 409 
Q 2484 409 2743 651 
Q 3003 894 3003 1313 
Q 3003 1734 2745 1975 
Q 2488 2216 2034 2216 
z
M 1403 2484 
Q 997 2584 770 2862 
Q 544 3141 544 3541 
Q 544 4100 942 4425 
Q 1341 4750 2034 4750 
Q 2731 4750 3128 4425 
Q 3525 4100 3525 3541 
Q 3525 3141 3298 2862 
Q 3072 2584 2669 2484 
Q 3125 2378 3379 2068 
Q 3634 1759 3634 1313 
Q 3634 634 3220 271 
Q 2806 -91 2034 -91 
Q 1263 -91 848 271 
Q 434 634 434 1313 
Q 434 1759 690 2068 
Q 947 2378 1403 2484 
z
M 1172 3481 
Q 1172 3119 1398 2916 
Q 1625 2713 2034 2713 
Q 2441 2713 2670 2916 
Q 2900 3119 2900 3481 
Q 2900 3844 2670 4047 
Q 2441 4250 2034 4250 
Q 1625 4250 1398 4047 
Q 1172 3844 1172 3481 
z
" transform="scale(0.015625)"/>
       </defs>
       <use xlink:href="#DejaVuSans-1b"/>
      </g>
     </g>
    </g>
    <g id="xtick_6">
     <g id="line2d_6">
      <g>
       <use xlink:href="#mc13d494499" x="670.148083" y="378.5175" style="stroke: #000000; stroke-width: 0.8"/>
      </g>
     </g>
     <g id="text_6">
      <!-- 10 -->
      <g transform="translate(659.968083 397.67375) scale(0.16 -0.16)">
       <defs>
        <path id="DejaVuSans-14" d="M 794 531 
L 1825 531 
L 1825 4091 
L 703 3866 
L 703 4441 
L 1819 4666 
L 2450 4666 
L 2450 531 
L 3481 531 
L 3481 0 
L 794 0 
L 794 531 
z
" transform="scale(0.015625)"/>
       </defs>
       <use xlink:href="#DejaVuSans-14"/>
       <use xlink:href="#DejaVuSans-13" transform="translate(63.625 0)"/>
      </g>
     </g>
    </g>
    <g id="text_7">
     <!-- pIC50 -->
     <g transform="translate(363.220781 414.634688) scale(0.12 -0.12)">
      <defs>
       <path id="DejaVuSans-53" d="M 1159 525 
L 1159 -1331 
L 581 -1331 
L 581 3500 
L 1159 3500 
L 1159 2969 
Q 1341 3281 1617 3432 
Q 1894 3584 2278 3584 
Q 2916 3584 3314 3078 
Q 3713 2572 3713 1747 
Q 3713 922 3314 415 
Q 2916 -91 2278 -91 
Q 1894 -91 1617 61 
Q 1341 213 1159 525 
z
M 3116 1747 
Q 3116 2381 2855 2742 
Q 2594 3103 2138 3103 
Q 1681 3103 1420 2742 
Q 1159 2381 1159 1747 
Q 1159 1113 1420 752 
Q 1681 391 2138 391 
Q 2594 391 2855 752 
Q 3116 1113 3116 1747 
z
" transform="scale(0.015625)"/>
       <path id="DejaVuSans-2c" d="M 628 4666 
L 1259 4666 
L 1259 0 
L 628 0 
L 628 4666 
z
" transform="scale(0.015625)"/>
       <path id="DejaVuSans-26" d="M 4122 4306 
L 4122 3641 
Q 3803 3938 3442 4084 
Q 3081 4231 2675 4231 
Q 1875 4231 1450 3742 
Q 1025 3253 1025 2328 
Q 1025 1406 1450 917 
Q 1875 428 2675 428 
Q 3081 428 3442 575 
Q 3803 722 4122 1019 
L 4122 359 
Q 3791 134 3420 21 
Q 3050 -91 2638 -91 
Q 1578 -91 968 557 
Q 359 1206 359 2328 
Q 359 3453 968 4101 
Q 1578 4750 2638 4750 
Q 3056 4750 3426 4639 
Q 3797 4528 4122 4306 
z
" transform="scale(0.015625)"/>
       <path id="DejaVuSans-18" d="M 691 4666 
L 3169 4666 
L 3169 4134 
L 1269 4134 
L 1269 2991 
Q 1406 3038 1543 3061 
Q 1681 3084 1819 3084 
Q 2600 3084 3056 2656 
Q 3513 2228 3513 1497 
Q 3513 744 3044 326 
Q 2575 -91 1722 -91 
Q 1428 -91 1123 -41 
Q 819 9 494 109 
L 494 744 
Q 775 591 1075 516 
Q 1375 441 1709 441 
Q 2250 441 2565 725 
Q 2881 1009 2881 1497 
Q 2881 1984 2565 2268 
Q 2250 2553 1709 2553 
Q 1456 2553 1204 2497 
Q 953 2441 691 2322 
L 691 4666 
z
" transform="scale(0.015625)"/>
      </defs>
      <use xlink:href="#DejaVuSans-53"/>
      <use xlink:href="#DejaVuSans-2c" transform="translate(63.484375 0)"/>
      <use xlink:href="#DejaVuSans-26" transform="translate(92.984375 0)"/>
      <use xlink:href="#DejaVuSans-18" transform="translate(162.8125 0)"/>
      <use xlink:href="#DejaVuSans-13" transform="translate(226.4375 0)"/>
     </g>
    </g>
   </g>
   <g id="matplotlib.axis_2">
    <g id="ytick_1">
     <g id="line2d_7">
      <defs>
       <path id="mc1b947af30" d="M 0 0 
L -3.5 0 
" style="stroke: #000000; stroke-width: 0.8"/>
      </defs>
      <g>
       <use xlink:href="#mc1b947af30" x="55.645938" y="378.5175" style="stroke: #000000; stroke-width: 0.8"/>
      </g>
     </g>
     <g id="text_8">
      <!-- 0.0 -->
      <g transform="translate(23.200938 384.595625) scale(0.16 -0.16)">
       <defs>
        <path id="DejaVuSans-11" d="M 684 794 
L 1344 794 
L 1344 0 
L 684 0 
L 684 794 
z
" transform="scale(0.015625)"/>
       </defs>
       <use xlink:href="#DejaVuSans-13"/>
       <use xlink:href="#DejaVuSans-11" transform="translate(63.625 0)"/>
       <use xlink:href="#DejaVuSans-13" transform="translate(95.40625 0)"/>
      </g>
     </g>
    </g>
    <g id="ytick_2">
     <g id="line2d_8">
      <g>
       <use xlink:href="#mc1b947af30" x="55.645938" y="300.857133" style="stroke: #000000; stroke-width: 0.8"/>
      </g>
     </g>
     <g id="text_9">
      <!-- 0.1 -->
      <g transform="translate(23.200938 306.935258) scale(0.16 -0.16)">
       <use xlink:href="#DejaVuSans-13"/>
       <use xlink:href="#DejaVuSans-11" transform="translate(63.625 0)"/>
       <use xlink:href="#DejaVuSans-14" transform="translate(95.40625 0)"/>
      </g>
     </g>
    </g>
    <g id="ytick_3">
     <g id="line2d_9">
      <g>
       <use xlink:href="#mc1b947af30" x="55.645938" y="223.196765" style="stroke: #000000; stroke-width: 0.8"/>
      </g>
     </g>
     <g id="text_10">
      <!-- 0.2 -->
      <g transform="translate(23.200938 229.27489) scale(0.16 -0.16)">
       <use xlink:href="#DejaVuSans-13"/>
       <use xlink:href="#DejaVuSans-11" transform="translate(63.625 0)"/>
       <use xlink:href="#DejaVuSans-15" transform="translate(95.40625 0)"/>
      </g>
     </g>
    </g>
    <g id="ytick_4">
     <g id="line2d_10">
      <g>
       <use xlink:href="#mc1b947af30" x="55.645938" y="145.536398" style="stroke: #000000; stroke-width: 0.8"/>
      </g>
     </g>
     <g id="text_11">
      <!-- 0.3 -->
      <g transform="translate(23.200938 151.614523) scale(0.16 -0.16)">
       <defs>
        <path id="DejaVuSans-16" d="M 2597 2516 
Q 3050 2419 3304 2112 
Q 3559 1806 3559 1356 
Q 3559 666 3084 287 
Q 2609 -91 1734 -91 
Q 1441 -91 1130 -33 
Q 819 25 488 141 
L 488 750 
Q 750 597 1062 519 
Q 1375 441 1716 441 
Q 2309 441 2620 675 
Q 2931 909 2931 1356 
Q 2931 1769 2642 2001 
Q 2353 2234 1838 2234 
L 1294 2234 
L 1294 2753 
L 1863 2753 
Q 2328 2753 2575 2939 
Q 2822 3125 2822 3475 
Q 2822 3834 2567 4026 
Q 2313 4219 1838 4219 
Q 1578 4219 1281 4162 
Q 984 4106 628 3988 
L 628 4550 
Q 988 4650 1302 4700 
Q 1616 4750 1894 4750 
Q 2613 4750 3031 4423 
Q 3450 4097 3450 3541 
Q 3450 3153 3228 2886 
Q 3006 2619 2597 2516 
z
" transform="scale(0.015625)"/>
       </defs>
       <use xlink:href="#DejaVuSans-13"/>
       <use xlink:href="#DejaVuSans-11" transform="translate(63.625 0)"/>
       <use xlink:href="#DejaVuSans-16" transform="translate(95.40625 0)"/>
      </g>
     </g>
    </g>
    <g id="ytick_5">
     <g id="line2d_11">
      <g>
       <use xlink:href="#mc1b947af30" x="55.645938" y="67.87603" style="stroke: #000000; stroke-width: 0.8"/>
      </g>
     </g>
     <g id="text_12">
      <!-- 0.4 -->
      <g transform="translate(23.200938 73.954155) scale(0.16 -0.16)">
       <use xlink:href="#DejaVuSans-13"/>
       <use xlink:href="#DejaVuSans-11" transform="translate(63.625 0)"/>
       <use xlink:href="#DejaVuSans-17" transform="translate(95.40625 0)"/>
      </g>
     </g>
    </g>
    <g id="text_13">
     <!-- Density -->
     <g transform="translate(16.318125 224.747813) rotate(-90) scale(0.12 -0.12)">
      <defs>
       <path id="DejaVuSans-27" d="M 1259 4147 
L 1259 519 
L 2022 519 
Q 2988 519 3436 956 
Q 3884 1394 3884 2338 
Q 3884 3275 3436 3711 
Q 2988 4147 2022 4147 
L 1259 4147 
z
M 628 4666 
L 1925 4666 
Q 3281 4666 3915 4102 
Q 4550 3538 4550 2338 
Q 4550 1131 3912 565 
Q 3275 0 1925 0 
L 628 0 
L 628 4666 
z
" transform="scale(0.015625)"/>
       <path id="DejaVuSans-48" d="M 3597 1894 
L 3597 1613 
L 953 1613 
Q 991 1019 1311 708 
Q 1631 397 2203 397 
Q 2534 397 2845 478 
Q 3156 559 3463 722 
L 3463 178 
Q 3153 47 2828 -22 
Q 2503 -91 2169 -91 
Q 1331 -91 842 396 
Q 353 884 353 1716 
Q 353 2575 817 3079 
Q 1281 3584 2069 3584 
Q 2775 3584 3186 3129 
Q 3597 2675 3597 1894 
z
M 3022 2063 
Q 3016 2534 2758 2815 
Q 2500 3097 2075 3097 
Q 1594 3097 1305 2825 
Q 1016 2553 972 2059 
L 3022 2063 
z
" transform="scale(0.015625)"/>
       <path id="DejaVuSans-51" d="M 3513 2113 
L 3513 0 
L 2938 0 
L 2938 2094 
Q 2938 2591 2744 2837 
Q 2550 3084 2163 3084 
Q 1697 3084 1428 2787 
Q 1159 2491 1159 1978 
L 1159 0 
L 581 0 
L 581 3500 
L 1159 3500 
L 1159 2956 
Q 1366 3272 1645 3428 
Q 1925 3584 2291 3584 
Q 2894 3584 3203 3211 
Q 3513 2838 3513 2113 
z
" transform="scale(0.015625)"/>
       <path id="DejaVuSans-56" d="M 2834 3397 
L 2834 2853 
Q 2591 2978 2328 3040 
Q 2066 3103 1784 3103 
Q 1356 3103 1142 2972 
Q 928 2841 928 2578 
Q 928 2378 1081 2264 
Q 1234 2150 1697 2047 
L 1894 2003 
Q 2506 1872 2764 1633 
Q 3022 1394 3022 966 
Q 3022 478 2636 193 
Q 2250 -91 1575 -91 
Q 1294 -91 989 -36 
Q 684 19 347 128 
L 347 722 
Q 666 556 975 473 
Q 1284 391 1588 391 
Q 1994 391 2212 530 
Q 2431 669 2431 922 
Q 2431 1156 2273 1281 
Q 2116 1406 1581 1522 
L 1381 1569 
Q 847 1681 609 1914 
Q 372 2147 372 2553 
Q 372 3047 722 3315 
Q 1072 3584 1716 3584 
Q 2034 3584 2315 3537 
Q 2597 3491 2834 3397 
z
" transform="scale(0.015625)"/>
       <path id="DejaVuSans-4c" d="M 603 3500 
L 1178 3500 
L 1178 0 
L 603 0 
L 603 3500 
z
M 603 4863 
L 1178 4863 
L 1178 4134 
L 603 4134 
L 603 4863 
z
" transform="scale(0.015625)"/>
       <path id="DejaVuSans-57" d="M 1172 4494 
L 1172 3500 
L 2356 3500 
L 2356 3053 
L 1172 3053 
L 1172 1153 
Q 1172 725 1289 603 
Q 1406 481 1766 481 
L 2356 481 
L 2356 0 
L 1766 0 
Q 1100 0 847 248 
Q 594 497 594 1153 
L 594 3053 
L 172 3053 
L 172 3500 
L 594 3500 
L 594 4494 
L 1172 4494 
z
" transform="scale(0.015625)"/>
       <path id="DejaVuSans-5c" d="M 2059 -325 
Q 1816 -950 1584 -1140 
Q 1353 -1331 966 -1331 
L 506 -1331 
L 506 -850 
L 844 -850 
Q 1081 -850 1212 -737 
Q 1344 -625 1503 -206 
L 1606 56 
L 191 3500 
L 800 3500 
L 1894 763 
L 2988 3500 
L 3597 3500 
L 2059 -325 
z
" transform="scale(0.015625)"/>
      </defs>
      <use xlink:href="#DejaVuSans-27"/>
      <use xlink:href="#DejaVuSans-48" transform="translate(77 0)"/>
      <use xlink:href="#DejaVuSans-51" transform="translate(138.53125 0)"/>
      <use xlink:href="#DejaVuSans-56" transform="translate(201.90625 0)"/>
      <use xlink:href="#DejaVuSans-4c" transform="translate(254 0)"/>
      <use xlink:href="#DejaVuSans-57" transform="translate(281.78125 0)"/>
      <use xlink:href="#DejaVuSans-5c" transform="translate(320.984375 0)"/>
     </g>
    </g>
   </g>
   <g id="line2d_12">
    <path d="M 85.189446 378.499477 
L 103.004627 378.361115 
L 114.881414 378.05841 
L 126.758202 377.492715 
L 144.573383 376.313258 
L 165.357761 374.779333 
L 171.296154 374.17063 
L 177.234548 373.381389 
L 183.172942 372.355558 
L 189.111335 371.053725 
L 195.049729 369.461467 
L 200.988123 367.594959 
L 206.926516 365.502568 
L 218.803304 360.957061 
L 233.649288 355.332824 
L 239.587682 353.062327 
L 245.526075 350.529285 
L 248.495272 349.068983 
L 251.464469 347.417876 
L 254.433666 345.525971 
L 257.402863 343.343011 
L 260.372059 340.821183 
L 263.341256 337.91801 
L 266.310453 334.599277 
L 269.27965 330.841768 
L 272.248847 326.635645 
L 275.218044 321.986251 
L 278.18724 316.915174 
L 281.156437 311.460422 
L 284.125634 305.675618 
L 290.064028 293.396317 
L 298.971618 274.454479 
L 304.910012 262.426886 
L 307.879209 256.771505 
L 310.848406 251.386557 
L 313.817602 246.262214 
L 319.755996 236.613815 
L 325.69439 227.209908 
L 328.663587 222.324922 
L 331.632783 217.159491 
L 334.60198 211.60543 
L 337.571177 205.576137 
L 340.540374 199.016485 
L 343.509571 191.910751 
L 346.478768 184.287711 
L 349.447964 176.222341 
L 364.293949 134.585708 
L 367.263145 127.372092 
L 370.232342 120.991378 
L 373.201539 115.598748 
L 376.170736 111.310244 
L 379.139933 108.197344 
L 382.10913 106.284999 
L 385.078327 105.553203 
L 388.047523 105.941865 
L 391.01672 107.358461 
L 393.985917 109.687702 
L 396.955114 112.802255 
L 399.924311 116.57349 
L 402.893508 120.881193 
L 405.862704 125.621356 
L 408.831901 130.711331 
L 411.801098 136.091983 
L 417.739492 147.5982 
L 423.677885 160.039877 
L 429.616279 173.414883 
L 435.554673 187.61283 
L 450.400657 224.034328 
L 453.369854 230.90865 
L 456.339051 237.498194 
L 459.308247 243.767163 
L 462.277444 249.698878 
L 465.246641 255.295425 
L 468.215838 260.575267 
L 471.185035 265.569131 
L 474.154232 270.314673 
L 480.092625 279.210617 
L 486.031019 287.485502 
L 491.969413 295.158448 
L 494.938609 298.710525 
L 497.907806 302.01901 
L 500.877003 305.037544 
L 503.8462 307.722537 
L 506.815397 310.039669 
L 509.784594 311.9698 
L 512.75379 313.513587 
L 515.722987 314.694271 
L 518.692184 315.558251 
L 521.661381 316.173343 
L 533.538168 317.984474 
L 536.507365 318.761956 
L 539.476562 319.834599 
L 542.445759 321.252825 
L 545.414956 323.04223 
L 548.384153 325.202576 
L 551.353349 327.708898 
L 554.322546 330.514535 
L 557.291743 333.555696 
L 572.137727 349.588104 
L 575.106924 352.463477 
L 578.076121 355.112933 
L 581.045318 357.515981 
L 584.014515 359.666557 
L 586.983711 361.571181 
L 589.952908 363.246439 
L 592.922105 364.716134 
L 595.891302 366.008352 
L 601.829696 368.178062 
L 607.768089 369.971919 
L 613.706483 371.5459 
L 622.614073 373.647314 
L 628.552467 374.876853 
L 634.490861 375.932182 
L 640.429254 376.784103 
L 646.367648 377.425136 
L 652.306042 377.872636 
L 661.213632 378.260082 
L 673.09042 378.458404 
L 676.059616 378.478398 
L 676.059616 378.478398 
" clip-path="url(#pf4c6a9058c)" style="fill: none; stroke: #a20025; stroke-width: 1.5; stroke-linecap: square"/>
   </g>
   <g id="patch_26">
    <path d="M 55.645938 378.5175 
L 55.645938 25.3575 
" style="fill: none; stroke: #000000; stroke-width: 0.8; stroke-linejoin: miter; stroke-linecap: square"/>
   </g>
   <g id="patch_27">
    <path d="M 705.603125 378.5175 
L 705.603125 25.3575 
" style="fill: none; stroke: #000000; stroke-width: 0.8; stroke-linejoin: miter; stroke-linecap: square"/>
   </g>
   <g id="patch_28">
    <path d="M 55.645938 378.5175 
L 705.603125 378.5175 
" style="fill: none; stroke: #000000; stroke-width: 0.8; stroke-linejoin: miter; stroke-linecap: square"/>
   </g>
   <g id="patch_29">
    <path d="M 55.645938 25.3575 
L 705.603125 25.3575 
" style="fill: none; stroke: #000000; stroke-width: 0.8; stroke-linejoin: miter; stroke-linecap: square"/>
   </g>
   <g id="text_14">
    <!-- Distribution of pIC50 Values -->
    <g transform="translate(269.274531 19.3575) scale(0.16 -0.16)">
     <defs>
      <path id="DejaVuSans-55" d="M 2631 2963 
Q 2534 3019 2420 3045 
Q 2306 3072 2169 3072 
Q 1681 3072 1420 2755 
Q 1159 2438 1159 1844 
L 1159 0 
L 581 0 
L 581 3500 
L 1159 3500 
L 1159 2956 
Q 1341 3275 1631 3429 
Q 1922 3584 2338 3584 
Q 2397 3584 2469 3576 
Q 2541 3569 2628 3553 
L 2631 2963 
z
" transform="scale(0.015625)"/>
      <path id="DejaVuSans-45" d="M 3116 1747 
Q 3116 2381 2855 2742 
Q 2594 3103 2138 3103 
Q 1681 3103 1420 2742 
Q 1159 2381 1159 1747 
Q 1159 1113 1420 752 
Q 1681 391 2138 391 
Q 2594 391 2855 752 
Q 3116 1113 3116 1747 
z
M 1159 2969 
Q 1341 3281 1617 3432 
Q 1894 3584 2278 3584 
Q 2916 3584 3314 3078 
Q 3713 2572 3713 1747 
Q 3713 922 3314 415 
Q 2916 -91 2278 -91 
Q 1894 -91 1617 61 
Q 1341 213 1159 525 
L 1159 0 
L 581 0 
L 581 4863 
L 1159 4863 
L 1159 2969 
z
" transform="scale(0.015625)"/>
      <path id="DejaVuSans-58" d="M 544 1381 
L 544 3500 
L 1119 3500 
L 1119 1403 
Q 1119 906 1312 657 
Q 1506 409 1894 409 
Q 2359 409 2629 706 
Q 2900 1003 2900 1516 
L 2900 3500 
L 3475 3500 
L 3475 0 
L 2900 0 
L 2900 538 
Q 2691 219 2414 64 
Q 2138 -91 1772 -91 
Q 1169 -91 856 284 
Q 544 659 544 1381 
z
M 1991 3584 
L 1991 3584 
z
" transform="scale(0.015625)"/>
      <path id="DejaVuSans-52" d="M 1959 3097 
Q 1497 3097 1228 2736 
Q 959 2375 959 1747 
Q 959 1119 1226 758 
Q 1494 397 1959 397 
Q 2419 397 2687 759 
Q 2956 1122 2956 1747 
Q 2956 2369 2687 2733 
Q 2419 3097 1959 3097 
z
M 1959 3584 
Q 2709 3584 3137 3096 
Q 3566 2609 3566 1747 
Q 3566 888 3137 398 
Q 2709 -91 1959 -91 
Q 1206 -91 779 398 
Q 353 888 353 1747 
Q 353 2609 779 3096 
Q 1206 3584 1959 3584 
z
" transform="scale(0.015625)"/>
      <path id="DejaVuSans-3" transform="scale(0.015625)"/>
      <path id="DejaVuSans-49" d="M 2375 4863 
L 2375 4384 
L 1825 4384 
Q 1516 4384 1395 4259 
Q 1275 4134 1275 3809 
L 1275 3500 
L 2222 3500 
L 2222 3053 
L 1275 3053 
L 1275 0 
L 697 0 
L 697 3053 
L 147 3053 
L 147 3500 
L 697 3500 
L 697 3744 
Q 697 4328 969 4595 
Q 1241 4863 1831 4863 
L 2375 4863 
z
" transform="scale(0.015625)"/>
      <path id="DejaVuSans-39" d="M 1831 0 
L 50 4666 
L 709 4666 
L 2188 738 
L 3669 4666 
L 4325 4666 
L 2547 0 
L 1831 0 
z
" transform="scale(0.015625)"/>
      <path id="DejaVuSans-44" d="M 2194 1759 
Q 1497 1759 1228 1600 
Q 959 1441 959 1056 
Q 959 750 1161 570 
Q 1363 391 1709 391 
Q 2188 391 2477 730 
Q 2766 1069 2766 1631 
L 2766 1759 
L 2194 1759 
z
M 3341 1997 
L 3341 0 
L 2766 0 
L 2766 531 
Q 2569 213 2275 61 
Q 1981 -91 1556 -91 
Q 1019 -91 701 211 
Q 384 513 384 1019 
Q 384 1609 779 1909 
Q 1175 2209 1959 2209 
L 2766 2209 
L 2766 2266 
Q 2766 2663 2505 2880 
Q 2244 3097 1772 3097 
Q 1472 3097 1187 3025 
Q 903 2953 641 2809 
L 641 3341 
Q 956 3463 1253 3523 
Q 1550 3584 1831 3584 
Q 2591 3584 2966 3190 
Q 3341 2797 3341 1997 
z
" transform="scale(0.015625)"/>
      <path id="DejaVuSans-4f" d="M 603 4863 
L 1178 4863 
L 1178 0 
L 603 0 
L 603 4863 
z
" transform="scale(0.015625)"/>
     </defs>
     <use xlink:href="#DejaVuSans-27"/>
     <use xlink:href="#DejaVuSans-4c" transform="translate(77 0)"/>
     <use xlink:href="#DejaVuSans-56" transform="translate(104.78125 0)"/>
     <use xlink:href="#DejaVuSans-57" transform="translate(156.875 0)"/>
     <use xlink:href="#DejaVuSans-55" transform="translate(196.078125 0)"/>
     <use xlink:href="#DejaVuSans-4c" transform="translate(237.1875 0)"/>
     <use xlink:href="#DejaVuSans-45" transform="translate(264.96875 0)"/>
     <use xlink:href="#DejaVuSans-58" transform="translate(328.453125 0)"/>
     <use xlink:href="#DejaVuSans-57" transform="translate(391.828125 0)"/>
     <use xlink:href="#DejaVuSans-4c" transform="translate(431.03125 0)"/>
     <use xlink:href="#DejaVuSans-52" transform="translate(458.8125 0)"/>
     <use xlink:href="#DejaVuSans-51" transform="translate(520 0)"/>
     <use xlink:href="#DejaVuSans-3" transform="translate(583.375 0)"/>
     <use xlink:href="#DejaVuSans-52" transform="translate(615.15625 0)"/>
     <use xlink:href="#DejaVuSans-49" transform="translate(676.34375 0)"/>
     <use xlink:href="#DejaVuSans-3" transform="translate(711.546875 0)"/>
     <use xlink:href="#DejaVuSans-53" transform="translate(743.328125 0)"/>
     <use xlink:href="#DejaVuSans-2c" transform="translate(806.8125 0)"/>
     <use xlink:href="#DejaVuSans-26" transform="translate(836.3125 0)"/>
     <use xlink:href="#DejaVuSans-18" transform="translate(906.140625 0)"/>
     <use xlink:href="#DejaVuSans-13" transform="translate(969.765625 0)"/>
     <use xlink:href="#DejaVuSans-3" transform="translate(1033.390625 0)"/>
     <use xlink:href="#DejaVuSans-39" transform="translate(1065.171875 0)"/>
     <use xlink:href="#DejaVuSans-44" transform="translate(1125.8125 0)"/>
     <use xlink:href="#DejaVuSans-4f" transform="translate(1187.09375 0)"/>
     <use xlink:href="#DejaVuSans-58" transform="translate(1214.875 0)"/>
     <use xlink:href="#DejaVuSans-48" transform="translate(1278.25 0)"/>
     <use xlink:href="#DejaVuSans-56" transform="translate(1339.78125 0)"/>
    </g>
   </g>
  </g>
 </g>
 <defs>
  <clipPath id="pf4c6a9058c">
   <rect x="55.645938" y="25.3575" width="649.957188" height="353.16"/>
  </clipPath>
 </defs>
</svg>
