<?xml version="1.0" encoding="utf-8" standalone="no"?>
<!DOCTYPE svg PUBLIC "-//W3C//DTD SVG 1.1//EN"
  "http://www.w3.org/Graphics/SVG/1.1/DTD/svg11.dtd">
<svg xmlns:xlink="http://www.w3.org/1999/xlink" width="711.516875pt" height="423.689375pt" viewBox="0 0 711.516875 423.689375" xmlns="http://www.w3.org/2000/svg" version="1.1">
 <metadata>
  <rdf:RDF xmlns:dc="http://purl.org/dc/elements/1.1/" xmlns:cc="http://creativecommons.org/ns#" xmlns:rdf="http://www.w3.org/1999/02/22-rdf-syntax-ns#">
   <cc:Work>
    <dc:type rdf:resource="http://purl.org/dc/dcmitype/StillImage"/>
    <dc:date>2025-03-10T18:51:18.078632</dc:date>
    <dc:format>image/svg+xml</dc:format>
    <dc:creator>
     <cc:Agent>
      <dc:title>Matplotlib v3.10.0, https://matplotlib.org/</dc:title>
     </cc:Agent>
    </dc:creator>
   </cc:Work>
  </rdf:RDF>
 </metadata>
 <defs>
  <style type="text/css">*{stroke-linejoin: round; stroke-linecap: butt}</style>
 </defs>
 <g id="figure_1">
  <g id="patch_1">
   <path d="M 0 423.689375 
L 711.516875 423.689375 
L 711.516875 0 
L 0 0 
z
" style="fill: #ffffff"/>
  </g>
  <g id="axes_1">
   <g id="patch_2">
    <path d="M 45.716875 384.1975 
L 704.316875 384.1975 
L 704.316875 25.3575 
L 45.716875 25.3575 
z
" style="fill: #ffffff"/>
   </g>
   <g id="patch_3">
    <path d="M 141.06043 384.1975 
L 161.404469 384.1975 
L 161.404469 379.816059 
L 141.06043 379.816059 
z
" clip-path="url(#p91edbfdd22)" style="fill: #a20025; fill-opacity: 0.5; stroke: #ffffff; stroke-opacity: 0.4; stroke-linejoin: miter"/>
   </g>
   <g id="patch_4">
    <path d="M 161.404469 384.1975 
L 181.748507 384.1975 
L 181.748507 379.816059 
L 161.404469 379.816059 
z
" clip-path="url(#p91edbfdd22)" style="fill: #a20025; fill-opacity: 0.5; stroke: #ffffff; stroke-opacity: 0.4; stroke-linejoin: miter"/>
   </g>
   <g id="patch_5">
    <path d="M 181.748507 384.1975 
L 202.092546 384.1975 
L 202.092546 375.434618 
L 181.748507 375.434618 
z
" clip-path="url(#p91edbfdd22)" style="fill: #a20025; fill-opacity: 0.5; stroke: #ffffff; stroke-opacity: 0.4; stroke-linejoin: miter"/>
   </g>
   <g id="patch_6">
    <path d="M 202.092546 384.1975 
L 222.436585 384.1975 
L 222.436585 366.671737 
L 202.092546 366.671737 
z
" clip-path="url(#p91edbfdd22)" style="fill: #a20025; fill-opacity: 0.5; stroke: #ffffff; stroke-opacity: 0.4; stroke-linejoin: miter"/>
   </g>
   <g id="patch_7">
    <path d="M 222.436585 384.1975 
L 242.780623 384.1975 
L 242.780623 353.527415 
L 222.436585 353.527415 
z
" clip-path="url(#p91edbfdd22)" style="fill: #a20025; fill-opacity: 0.5; stroke: #ffffff; stroke-opacity: 0.4; stroke-linejoin: miter"/>
   </g>
   <g id="patch_8">
    <path d="M 242.780623 384.1975 
L 263.124662 384.1975 
L 263.124662 362.290296 
L 242.780623 362.290296 
z
" clip-path="url(#p91edbfdd22)" style="fill: #a20025; fill-opacity: 0.5; stroke: #ffffff; stroke-opacity: 0.4; stroke-linejoin: miter"/>
   </g>
   <g id="patch_9">
    <path d="M 263.124662 384.1975 
L 283.468701 384.1975 
L 283.468701 336.001651 
L 263.124662 336.001651 
z
" clip-path="url(#p91edbfdd22)" style="fill: #a20025; fill-opacity: 0.5; stroke: #ffffff; stroke-opacity: 0.4; stroke-linejoin: miter"/>
   </g>
   <g id="patch_10">
    <path d="M 283.468701 384.1975 
L 303.81274 384.1975 
L 303.81274 261.517158 
L 283.468701 261.517158 
z
" clip-path="url(#p91edbfdd22)" style="fill: #a20025; fill-opacity: 0.5; stroke: #ffffff; stroke-opacity: 0.4; stroke-linejoin: miter"/>
   </g>
   <g id="patch_11">
    <path d="M 303.81274 384.1975 
L 324.156778 384.1975 
L 324.156778 217.70275 
L 303.81274 217.70275 
z
" clip-path="url(#p91edbfdd22)" style="fill: #a20025; fill-opacity: 0.5; stroke: #ffffff; stroke-opacity: 0.4; stroke-linejoin: miter"/>
   </g>
   <g id="patch_12">
    <path d="M 324.156778 384.1975 
L 344.500817 384.1975 
L 344.500817 270.28004 
L 324.156778 270.28004 
z
" clip-path="url(#p91edbfdd22)" style="fill: #a20025; fill-opacity: 0.5; stroke: #ffffff; stroke-opacity: 0.4; stroke-linejoin: miter"/>
   </g>
   <g id="patch_13">
    <path d="M 344.500817 384.1975 
L 364.844856 384.1975 
L 364.844856 121.311053 
L 344.500817 121.311053 
z
" clip-path="url(#p91edbfdd22)" style="fill: #a20025; fill-opacity: 0.5; stroke: #ffffff; stroke-opacity: 0.4; stroke-linejoin: miter"/>
   </g>
   <g id="patch_14">
    <path d="M 364.844856 384.1975 
L 385.188894 384.1975 
L 385.188894 42.445119 
L 364.844856 42.445119 
z
" clip-path="url(#p91edbfdd22)" style="fill: #a20025; fill-opacity: 0.5; stroke: #ffffff; stroke-opacity: 0.4; stroke-linejoin: miter"/>
   </g>
   <g id="patch_15">
    <path d="M 385.188894 384.1975 
L 405.532933 384.1975 
L 405.532933 138.836816 
L 385.188894 138.836816 
z
" clip-path="url(#p91edbfdd22)" style="fill: #a20025; fill-opacity: 0.5; stroke: #ffffff; stroke-opacity: 0.4; stroke-linejoin: miter"/>
   </g>
   <g id="patch_16">
    <path d="M 405.532933 384.1975 
L 425.876972 384.1975 
L 425.876972 143.218257 
L 405.532933 143.218257 
z
" clip-path="url(#p91edbfdd22)" style="fill: #a20025; fill-opacity: 0.5; stroke: #ffffff; stroke-opacity: 0.4; stroke-linejoin: miter"/>
   </g>
   <g id="patch_17">
    <path d="M 425.876972 384.1975 
L 446.22101 384.1975 
L 446.22101 187.032665 
L 425.876972 187.032665 
z
" clip-path="url(#p91edbfdd22)" style="fill: #a20025; fill-opacity: 0.5; stroke: #ffffff; stroke-opacity: 0.4; stroke-linejoin: miter"/>
   </g>
   <g id="patch_18">
    <path d="M 446.22101 384.1975 
L 466.565049 384.1975 
L 466.565049 270.28004 
L 446.22101 270.28004 
z
" clip-path="url(#p91edbfdd22)" style="fill: #a20025; fill-opacity: 0.5; stroke: #ffffff; stroke-opacity: 0.4; stroke-linejoin: miter"/>
   </g>
   <g id="patch_19">
    <path d="M 466.565049 384.1975 
L 486.909088 384.1975 
L 486.909088 283.424362 
L 466.565049 283.424362 
z
" clip-path="url(#p91edbfdd22)" style="fill: #a20025; fill-opacity: 0.5; stroke: #ffffff; stroke-opacity: 0.4; stroke-linejoin: miter"/>
   </g>
   <g id="patch_20">
    <path d="M 486.909088 384.1975 
L 507.253127 384.1975 
L 507.253127 314.094447 
L 486.909088 314.094447 
z
" clip-path="url(#p91edbfdd22)" style="fill: #a20025; fill-opacity: 0.5; stroke: #ffffff; stroke-opacity: 0.4; stroke-linejoin: miter"/>
   </g>
   <g id="patch_21">
    <path d="M 507.253127 384.1975 
L 527.597165 384.1975 
L 527.597165 336.001651 
L 507.253127 336.001651 
z
" clip-path="url(#p91edbfdd22)" style="fill: #a20025; fill-opacity: 0.5; stroke: #ffffff; stroke-opacity: 0.4; stroke-linejoin: miter"/>
   </g>
   <g id="patch_22">
    <path d="M 527.597165 384.1975 
L 547.941204 384.1975 
L 547.941204 296.568684 
L 527.597165 296.568684 
z
" clip-path="url(#p91edbfdd22)" style="fill: #a20025; fill-opacity: 0.5; stroke: #ffffff; stroke-opacity: 0.4; stroke-linejoin: miter"/>
   </g>
   <g id="patch_23">
    <path d="M 547.941204 384.1975 
L 568.285243 384.1975 
L 568.285243 353.527415 
L 547.941204 353.527415 
z
" clip-path="url(#p91edbfdd22)" style="fill: #a20025; fill-opacity: 0.5; stroke: #ffffff; stroke-opacity: 0.4; stroke-linejoin: miter"/>
   </g>
   <g id="patch_24">
    <path d="M 568.285243 384.1975 
L 588.629281 384.1975 
L 588.629281 371.053178 
L 568.285243 371.053178 
z
" clip-path="url(#p91edbfdd22)" style="fill: #a20025; fill-opacity: 0.5; stroke: #ffffff; stroke-opacity: 0.4; stroke-linejoin: miter"/>
   </g>
   <g id="patch_25">
    <path d="M 588.629281 384.1975 
L 608.97332 384.1975 
L 608.97332 371.053178 
L 588.629281 371.053178 
z
" clip-path="url(#p91edbfdd22)" style="fill: #a20025; fill-opacity: 0.5; stroke: #ffffff; stroke-opacity: 0.4; stroke-linejoin: miter"/>
   </g>
   <g id="matplotlib.axis_1">
    <g id="xtick_1">
     <g id="line2d_1">
      <defs>
       <path id="m0fef7975bd" d="M 0 0 
L 0 3.5 
" style="stroke: #000000; stroke-width: 0.8"/>
      </defs>
      <g>
       <use xlink:href="#m0fef7975bd" x="74.219874" y="384.1975" style="stroke: #000000; stroke-width: 0.8"/>
      </g>
     </g>
     <g id="text_1">
      <!-- 0 -->
      <g transform="translate(71.038624 398.795938) scale(0.1 -0.1)">
       <defs>
        <path id="DejaVuSans-30" d="M 2034 4250 
Q 1547 4250 1301 3770 
Q 1056 3291 1056 2328 
Q 1056 1369 1301 889 
Q 1547 409 2034 409 
Q 2525 409 2770 889 
Q 3016 1369 3016 2328 
Q 3016 3291 2770 3770 
Q 2525 4250 2034 4250 
z
M 2034 4750 
Q 2819 4750 3233 4129 
Q 3647 3509 3647 2328 
Q 3647 1150 3233 529 
Q 2819 -91 2034 -91 
Q 1250 -91 836 529 
Q 422 1150 422 2328 
Q 422 3509 836 4129 
Q 1250 4750 2034 4750 
z
" transform="scale(0.015625)"/>
       </defs>
       <use xlink:href="#DejaVuSans-30"/>
      </g>
     </g>
    </g>
    <g id="xtick_2">
     <g id="line2d_2">
      <g>
       <use xlink:href="#m0fef7975bd" x="193.053973" y="384.1975" style="stroke: #000000; stroke-width: 0.8"/>
      </g>
     </g>
     <g id="text_2">
      <!-- 2 -->
      <g transform="translate(189.872723 398.795938) scale(0.1 -0.1)">
       <defs>
        <path id="DejaVuSans-32" d="M 1228 531 
L 3431 531 
L 3431 0 
L 469 0 
L 469 531 
Q 828 903 1448 1529 
Q 2069 2156 2228 2338 
Q 2531 2678 2651 2914 
Q 2772 3150 2772 3378 
Q 2772 3750 2511 3984 
Q 2250 4219 1831 4219 
Q 1534 4219 1204 4116 
Q 875 4013 500 3803 
L 500 4441 
Q 881 4594 1212 4672 
Q 1544 4750 1819 4750 
Q 2544 4750 2975 4387 
Q 3406 4025 3406 3419 
Q 3406 3131 3298 2873 
Q 3191 2616 2906 2266 
Q 2828 2175 2409 1742 
Q 1991 1309 1228 531 
z
" transform="scale(0.015625)"/>
       </defs>
       <use xlink:href="#DejaVuSans-32"/>
      </g>
     </g>
    </g>
    <g id="xtick_3">
     <g id="line2d_3">
      <g>
       <use xlink:href="#m0fef7975bd" x="311.888072" y="384.1975" style="stroke: #000000; stroke-width: 0.8"/>
      </g>
     </g>
     <g id="text_3">
      <!-- 4 -->
      <g transform="translate(308.706822 398.795938) scale(0.1 -0.1)">
       <defs>
        <path id="DejaVuSans-34" d="M 2419 4116 
L 825 1625 
L 2419 1625 
L 2419 4116 
z
M 2253 4666 
L 3047 4666 
L 3047 1625 
L 3713 1625 
L 3713 1100 
L 3047 1100 
L 3047 0 
L 2419 0 
L 2419 1100 
L 313 1100 
L 313 1709 
L 2253 4666 
z
" transform="scale(0.015625)"/>
       </defs>
       <use xlink:href="#DejaVuSans-34"/>
      </g>
     </g>
    </g>
    <g id="xtick_4">
     <g id="line2d_4">
      <g>
       <use xlink:href="#m0fef7975bd" x="430.722171" y="384.1975" style="stroke: #000000; stroke-width: 0.8"/>
      </g>
     </g>
     <g id="text_4">
      <!-- 6 -->
      <g transform="translate(427.540921 398.795938) scale(0.1 -0.1)">
       <defs>
        <path id="DejaVuSans-36" d="M 2113 2584 
Q 1688 2584 1439 2293 
Q 1191 2003 1191 1497 
Q 1191 994 1439 701 
Q 1688 409 2113 409 
Q 2538 409 2786 701 
Q 3034 994 3034 1497 
Q 3034 2003 2786 2293 
Q 2538 2584 2113 2584 
z
M 3366 4563 
L 3366 3988 
Q 3128 4100 2886 4159 
Q 2644 4219 2406 4219 
Q 1781 4219 1451 3797 
Q 1122 3375 1075 2522 
Q 1259 2794 1537 2939 
Q 1816 3084 2150 3084 
Q 2853 3084 3261 2657 
Q 3669 2231 3669 1497 
Q 3669 778 3244 343 
Q 2819 -91 2113 -91 
Q 1303 -91 875 529 
Q 447 1150 447 2328 
Q 447 3434 972 4092 
Q 1497 4750 2381 4750 
Q 2619 4750 2861 4703 
Q 3103 4656 3366 4563 
z
" transform="scale(0.015625)"/>
       </defs>
       <use xlink:href="#DejaVuSans-36"/>
      </g>
     </g>
    </g>
    <g id="xtick_5">
     <g id="line2d_5">
      <g>
       <use xlink:href="#m0fef7975bd" x="549.55627" y="384.1975" style="stroke: #000000; stroke-width: 0.8"/>
      </g>
     </g>
     <g id="text_5">
      <!-- 8 -->
      <g transform="translate(546.37502 398.795938) scale(0.1 -0.1)">
       <defs>
        <path id="DejaVuSans-38" d="M 2034 2216 
Q 1584 2216 1326 1975 
Q 1069 1734 1069 1313 
Q 1069 891 1326 650 
Q 1584 409 2034 409 
Q 2484 409 2743 651 
Q 3003 894 3003 1313 
Q 3003 1734 2745 1975 
Q 2488 2216 2034 2216 
z
M 1403 2484 
Q 997 2584 770 2862 
Q 544 3141 544 3541 
Q 544 4100 942 4425 
Q 1341 4750 2034 4750 
Q 2731 4750 3128 4425 
Q 3525 4100 3525 3541 
Q 3525 3141 3298 2862 
Q 3072 2584 2669 2484 
Q 3125 2378 3379 2068 
Q 3634 1759 3634 1313 
Q 3634 634 3220 271 
Q 2806 -91 2034 -91 
Q 1263 -91 848 271 
Q 434 634 434 1313 
Q 434 1759 690 2068 
Q 947 2378 1403 2484 
z
M 1172 3481 
Q 1172 3119 1398 2916 
Q 1625 2713 2034 2713 
Q 2441 2713 2670 2916 
Q 2900 3119 2900 3481 
Q 2900 3844 2670 4047 
Q 2441 4250 2034 4250 
Q 1625 4250 1398 4047 
Q 1172 3844 1172 3481 
z
" transform="scale(0.015625)"/>
       </defs>
       <use xlink:href="#DejaVuSans-38"/>
      </g>
     </g>
    </g>
    <g id="xtick_6">
     <g id="line2d_6">
      <g>
       <use xlink:href="#m0fef7975bd" x="668.39037" y="384.1975" style="stroke: #000000; stroke-width: 0.8"/>
      </g>
     </g>
     <g id="text_6">
      <!-- 10 -->
      <g transform="translate(662.02787 398.795938) scale(0.1 -0.1)">
       <defs>
        <path id="DejaVuSans-31" d="M 794 531 
L 1825 531 
L 1825 4091 
L 703 3866 
L 703 4441 
L 1819 4666 
L 2450 4666 
L 2450 531 
L 3481 531 
L 3481 0 
L 794 0 
L 794 531 
z
" transform="scale(0.015625)"/>
       </defs>
       <use xlink:href="#DejaVuSans-31"/>
       <use xlink:href="#DejaVuSans-30" transform="translate(63.623047 0)"/>
      </g>
     </g>
    </g>
    <g id="text_7">
     <!-- pIC50 -->
     <g transform="translate(357.613125 413.99375) scale(0.12 -0.12)">
      <defs>
       <path id="DejaVuSans-70" d="M 1159 525 
L 1159 -1331 
L 581 -1331 
L 581 3500 
L 1159 3500 
L 1159 2969 
Q 1341 3281 1617 3432 
Q 1894 3584 2278 3584 
Q 2916 3584 3314 3078 
Q 3713 2572 3713 1747 
Q 3713 922 3314 415 
Q 2916 -91 2278 -91 
Q 1894 -91 1617 61 
Q 1341 213 1159 525 
z
M 3116 1747 
Q 3116 2381 2855 2742 
Q 2594 3103 2138 3103 
Q 1681 3103 1420 2742 
Q 1159 2381 1159 1747 
Q 1159 1113 1420 752 
Q 1681 391 2138 391 
Q 2594 391 2855 752 
Q 3116 1113 3116 1747 
z
" transform="scale(0.015625)"/>
       <path id="DejaVuSans-49" d="M 628 4666 
L 1259 4666 
L 1259 0 
L 628 0 
L 628 4666 
z
" transform="scale(0.015625)"/>
       <path id="DejaVuSans-43" d="M 4122 4306 
L 4122 3641 
Q 3803 3938 3442 4084 
Q 3081 4231 2675 4231 
Q 1875 4231 1450 3742 
Q 1025 3253 1025 2328 
Q 1025 1406 1450 917 
Q 1875 428 2675 428 
Q 3081 428 3442 575 
Q 3803 722 4122 1019 
L 4122 359 
Q 3791 134 3420 21 
Q 3050 -91 2638 -91 
Q 1578 -91 968 557 
Q 359 1206 359 2328 
Q 359 3453 968 4101 
Q 1578 4750 2638 4750 
Q 3056 4750 3426 4639 
Q 3797 4528 4122 4306 
z
" transform="scale(0.015625)"/>
       <path id="DejaVuSans-35" d="M 691 4666 
L 3169 4666 
L 3169 4134 
L 1269 4134 
L 1269 2991 
Q 1406 3038 1543 3061 
Q 1681 3084 1819 3084 
Q 2600 3084 3056 2656 
Q 3513 2228 3513 1497 
Q 3513 744 3044 326 
Q 2575 -91 1722 -91 
Q 1428 -91 1123 -41 
Q 819 9 494 109 
L 494 744 
Q 775 591 1075 516 
Q 1375 441 1709 441 
Q 2250 441 2565 725 
Q 2881 1009 2881 1497 
Q 2881 1984 2565 2268 
Q 2250 2553 1709 2553 
Q 1456 2553 1204 2497 
Q 953 2441 691 2322 
L 691 4666 
z
" transform="scale(0.015625)"/>
      </defs>
      <use xlink:href="#DejaVuSans-70"/>
      <use xlink:href="#DejaVuSans-49" transform="translate(63.476562 0)"/>
      <use xlink:href="#DejaVuSans-43" transform="translate(92.96875 0)"/>
      <use xlink:href="#DejaVuSans-35" transform="translate(162.792969 0)"/>
      <use xlink:href="#DejaVuSans-30" transform="translate(226.416016 0)"/>
     </g>
    </g>
   </g>
   <g id="matplotlib.axis_2">
    <g id="ytick_1">
     <g id="line2d_7">
      <defs>
       <path id="m4d0af05a39" d="M 0 0 
L -3.5 0 
" style="stroke: #000000; stroke-width: 0.8"/>
      </defs>
      <g>
       <use xlink:href="#m4d0af05a39" x="45.716875" y="384.1975" style="stroke: #000000; stroke-width: 0.8"/>
      </g>
     </g>
     <g id="text_8">
      <!-- 0.0 -->
      <g transform="translate(22.81375 387.996719) scale(0.1 -0.1)">
       <defs>
        <path id="DejaVuSans-2e" d="M 684 794 
L 1344 794 
L 1344 0 
L 684 0 
L 684 794 
z
" transform="scale(0.015625)"/>
       </defs>
       <use xlink:href="#DejaVuSans-30"/>
       <use xlink:href="#DejaVuSans-2e" transform="translate(63.623047 0)"/>
       <use xlink:href="#DejaVuSans-30" transform="translate(95.410156 0)"/>
      </g>
     </g>
    </g>
    <g id="ytick_2">
     <g id="line2d_8">
      <g>
       <use xlink:href="#m4d0af05a39" x="45.716875" y="305.288093" style="stroke: #000000; stroke-width: 0.8"/>
      </g>
     </g>
     <g id="text_9">
      <!-- 0.1 -->
      <g transform="translate(22.81375 309.087312) scale(0.1 -0.1)">
       <use xlink:href="#DejaVuSans-30"/>
       <use xlink:href="#DejaVuSans-2e" transform="translate(63.623047 0)"/>
       <use xlink:href="#DejaVuSans-31" transform="translate(95.410156 0)"/>
      </g>
     </g>
    </g>
    <g id="ytick_3">
     <g id="line2d_9">
      <g>
       <use xlink:href="#m4d0af05a39" x="45.716875" y="226.378686" style="stroke: #000000; stroke-width: 0.8"/>
      </g>
     </g>
     <g id="text_10">
      <!-- 0.2 -->
      <g transform="translate(22.81375 230.177904) scale(0.1 -0.1)">
       <use xlink:href="#DejaVuSans-30"/>
       <use xlink:href="#DejaVuSans-2e" transform="translate(63.623047 0)"/>
       <use xlink:href="#DejaVuSans-32" transform="translate(95.410156 0)"/>
      </g>
     </g>
    </g>
    <g id="ytick_4">
     <g id="line2d_10">
      <g>
       <use xlink:href="#m4d0af05a39" x="45.716875" y="147.469278" style="stroke: #000000; stroke-width: 0.8"/>
      </g>
     </g>
     <g id="text_11">
      <!-- 0.3 -->
      <g transform="translate(22.81375 151.268497) scale(0.1 -0.1)">
       <defs>
        <path id="DejaVuSans-33" d="M 2597 2516 
Q 3050 2419 3304 2112 
Q 3559 1806 3559 1356 
Q 3559 666 3084 287 
Q 2609 -91 1734 -91 
Q 1441 -91 1130 -33 
Q 819 25 488 141 
L 488 750 
Q 750 597 1062 519 
Q 1375 441 1716 441 
Q 2309 441 2620 675 
Q 2931 909 2931 1356 
Q 2931 1769 2642 2001 
Q 2353 2234 1838 2234 
L 1294 2234 
L 1294 2753 
L 1863 2753 
Q 2328 2753 2575 2939 
Q 2822 3125 2822 3475 
Q 2822 3834 2567 4026 
Q 2313 4219 1838 4219 
Q 1578 4219 1281 4162 
Q 984 4106 628 3988 
L 628 4550 
Q 988 4650 1302 4700 
Q 1616 4750 1894 4750 
Q 2613 4750 3031 4423 
Q 3450 4097 3450 3541 
Q 3450 3153 3228 2886 
Q 3006 2619 2597 2516 
z
" transform="scale(0.015625)"/>
       </defs>
       <use xlink:href="#DejaVuSans-30"/>
       <use xlink:href="#DejaVuSans-2e" transform="translate(63.623047 0)"/>
       <use xlink:href="#DejaVuSans-33" transform="translate(95.410156 0)"/>
      </g>
     </g>
    </g>
    <g id="ytick_5">
     <g id="line2d_11">
      <g>
       <use xlink:href="#m4d0af05a39" x="45.716875" y="68.559871" style="stroke: #000000; stroke-width: 0.8"/>
      </g>
     </g>
     <g id="text_12">
      <!-- 0.4 -->
      <g transform="translate(22.81375 72.35909) scale(0.1 -0.1)">
       <use xlink:href="#DejaVuSans-30"/>
       <use xlink:href="#DejaVuSans-2e" transform="translate(63.623047 0)"/>
       <use xlink:href="#DejaVuSans-34" transform="translate(95.410156 0)"/>
      </g>
     </g>
    </g>
    <g id="text_13">
     <!-- Density -->
     <g transform="translate(16.318125 227.587813) rotate(-90) scale(0.12 -0.12)">
      <defs>
       <path id="DejaVuSans-44" d="M 1259 4147 
L 1259 519 
L 2022 519 
Q 2988 519 3436 956 
Q 3884 1394 3884 2338 
Q 3884 3275 3436 3711 
Q 2988 4147 2022 4147 
L 1259 4147 
z
M 628 4666 
L 1925 4666 
Q 3281 4666 3915 4102 
Q 4550 3538 4550 2338 
Q 4550 1131 3912 565 
Q 3275 0 1925 0 
L 628 0 
L 628 4666 
z
" transform="scale(0.015625)"/>
       <path id="DejaVuSans-65" d="M 3597 1894 
L 3597 1613 
L 953 1613 
Q 991 1019 1311 708 
Q 1631 397 2203 397 
Q 2534 397 2845 478 
Q 3156 559 3463 722 
L 3463 178 
Q 3153 47 2828 -22 
Q 2503 -91 2169 -91 
Q 1331 -91 842 396 
Q 353 884 353 1716 
Q 353 2575 817 3079 
Q 1281 3584 2069 3584 
Q 2775 3584 3186 3129 
Q 3597 2675 3597 1894 
z
M 3022 2063 
Q 3016 2534 2758 2815 
Q 2500 3097 2075 3097 
Q 1594 3097 1305 2825 
Q 1016 2553 972 2059 
L 3022 2063 
z
" transform="scale(0.015625)"/>
       <path id="DejaVuSans-6e" d="M 3513 2113 
L 3513 0 
L 2938 0 
L 2938 2094 
Q 2938 2591 2744 2837 
Q 2550 3084 2163 3084 
Q 1697 3084 1428 2787 
Q 1159 2491 1159 1978 
L 1159 0 
L 581 0 
L 581 3500 
L 1159 3500 
L 1159 2956 
Q 1366 3272 1645 3428 
Q 1925 3584 2291 3584 
Q 2894 3584 3203 3211 
Q 3513 2838 3513 2113 
z
" transform="scale(0.015625)"/>
       <path id="DejaVuSans-73" d="M 2834 3397 
L 2834 2853 
Q 2591 2978 2328 3040 
Q 2066 3103 1784 3103 
Q 1356 3103 1142 2972 
Q 928 2841 928 2578 
Q 928 2378 1081 2264 
Q 1234 2150 1697 2047 
L 1894 2003 
Q 2506 1872 2764 1633 
Q 3022 1394 3022 966 
Q 3022 478 2636 193 
Q 2250 -91 1575 -91 
Q 1294 -91 989 -36 
Q 684 19 347 128 
L 347 722 
Q 666 556 975 473 
Q 1284 391 1588 391 
Q 1994 391 2212 530 
Q 2431 669 2431 922 
Q 2431 1156 2273 1281 
Q 2116 1406 1581 1522 
L 1381 1569 
Q 847 1681 609 1914 
Q 372 2147 372 2553 
Q 372 3047 722 3315 
Q 1072 3584 1716 3584 
Q 2034 3584 2315 3537 
Q 2597 3491 2834 3397 
z
" transform="scale(0.015625)"/>
       <path id="DejaVuSans-69" d="M 603 3500 
L 1178 3500 
L 1178 0 
L 603 0 
L 603 3500 
z
M 603 4863 
L 1178 4863 
L 1178 4134 
L 603 4134 
L 603 4863 
z
" transform="scale(0.015625)"/>
       <path id="DejaVuSans-74" d="M 1172 4494 
L 1172 3500 
L 2356 3500 
L 2356 3053 
L 1172 3053 
L 1172 1153 
Q 1172 725 1289 603 
Q 1406 481 1766 481 
L 2356 481 
L 2356 0 
L 1766 0 
Q 1100 0 847 248 
Q 594 497 594 1153 
L 594 3053 
L 172 3053 
L 172 3500 
L 594 3500 
L 594 4494 
L 1172 4494 
z
" transform="scale(0.015625)"/>
       <path id="DejaVuSans-79" d="M 2059 -325 
Q 1816 -950 1584 -1140 
Q 1353 -1331 966 -1331 
L 506 -1331 
L 506 -850 
L 844 -850 
Q 1081 -850 1212 -737 
Q 1344 -625 1503 -206 
L 1606 56 
L 191 3500 
L 800 3500 
L 1894 763 
L 2988 3500 
L 3597 3500 
L 2059 -325 
z
" transform="scale(0.015625)"/>
      </defs>
      <use xlink:href="#DejaVuSans-44"/>
      <use xlink:href="#DejaVuSans-65" transform="translate(77.001953 0)"/>
      <use xlink:href="#DejaVuSans-6e" transform="translate(138.525391 0)"/>
      <use xlink:href="#DejaVuSans-73" transform="translate(201.904297 0)"/>
      <use xlink:href="#DejaVuSans-69" transform="translate(254.003906 0)"/>
      <use xlink:href="#DejaVuSans-74" transform="translate(281.787109 0)"/>
      <use xlink:href="#DejaVuSans-79" transform="translate(320.996094 0)"/>
     </g>
    </g>
   </g>
   <g id="line2d_12">
    <path d="M 75.653239 384.179187 
L 93.705317 384.0386 
L 105.740036 383.731027 
L 117.774755 383.156234 
L 135.826834 381.957806 
L 156.887592 380.399211 
L 162.904952 379.780717 
L 168.922311 378.978783 
L 174.939671 377.936453 
L 180.95703 376.613682 
L 186.97439 374.995816 
L 192.991749 373.099288 
L 199.009109 370.973244 
L 211.043828 366.354631 
L 223.078547 361.764363 
L 232.104586 358.332922 
L 238.121946 355.759141 
L 241.130626 354.275352 
L 244.139305 352.597689 
L 247.147985 350.675356 
L 250.156665 348.457287 
L 253.165345 345.894899 
L 256.174024 342.945034 
L 259.182704 339.572924 
L 262.191384 335.754982 
L 265.200064 331.48121 
L 268.208743 326.757039 
L 271.217423 321.604402 
L 274.226103 316.061919 
L 277.234783 310.184075 
L 283.252142 297.707282 
L 292.278182 278.460796 
L 298.295541 266.239758 
L 301.304221 260.49342 
L 304.312901 255.021864 
L 307.32158 249.815104 
L 313.33894 240.011527 
L 319.356299 230.456373 
L 322.364979 225.492821 
L 325.373659 220.244311 
L 328.382339 214.600923 
L 331.391018 208.474658 
L 334.399698 201.809505 
L 337.408378 194.589487 
L 340.417058 186.843843 
L 343.425737 178.648754 
L 358.469136 136.342465 
L 361.477816 129.01283 
L 364.486496 122.529492 
L 367.495176 117.050131 
L 370.503855 112.692653 
L 373.512535 109.529687 
L 376.521215 107.586585 
L 379.529895 106.843019 
L 382.538574 107.237933 
L 385.547254 108.677313 
L 388.555934 111.044015 
L 391.564614 114.20866 
L 394.573293 118.040549 
L 397.581973 122.417535 
L 400.590653 127.233936 
L 403.599333 132.405775 
L 406.608013 137.872965 
L 409.616692 143.598397 
L 415.634052 155.766122 
L 421.651411 168.884919 
L 427.668771 182.920309 
L 433.68613 197.651586 
L 442.71217 220.009479 
L 448.729529 234.214604 
L 451.738209 240.91013 
L 454.746889 247.279925 
L 457.755568 253.307041 
L 460.764248 258.9936 
L 463.772928 264.35836 
L 466.781608 269.432542 
L 469.790288 274.254408 
L 475.807647 283.293428 
L 481.825007 291.701402 
L 487.842366 299.497755 
L 490.851046 303.10696 
L 493.859726 306.468657 
L 496.868405 309.535739 
L 499.877085 312.263916 
L 502.885765 314.618316 
L 505.894445 316.579489 
L 508.903124 318.148106 
L 511.911804 319.347779 
L 514.920484 320.225654 
L 517.929164 320.850639 
L 529.963883 322.690899 
L 532.972563 323.480886 
L 535.981242 324.570781 
L 538.989922 326.011816 
L 541.998602 327.830002 
L 545.007282 330.025093 
L 548.015961 332.571725 
L 551.024641 335.422486 
L 554.033321 338.512559 
L 563.05936 348.431702 
L 569.07672 354.802822 
L 572.085399 357.724441 
L 575.094079 360.416509 
L 578.102759 362.858206 
L 581.111439 365.043371 
L 584.120118 366.978627 
L 587.128798 368.68083 
L 590.137478 370.174162 
L 593.146158 371.487163 
L 596.154838 372.649943 
L 602.172197 374.63915 
L 608.189557 376.335241 
L 617.215596 378.569353 
L 626.241635 380.498299 
L 632.258995 381.570601 
L 638.276354 382.436224 
L 644.293714 383.087567 
L 650.311073 383.542264 
L 659.337113 383.935942 
L 671.371832 384.137454 
L 674.380511 384.157769 
L 674.380511 384.157769 
" clip-path="url(#p91edbfdd22)" style="fill: none; stroke: #a20025; stroke-width: 1.5; stroke-linecap: square"/>
   </g>
   <g id="patch_26">
    <path d="M 45.716875 384.1975 
L 45.716875 25.3575 
" style="fill: none; stroke: #000000; stroke-width: 0.8; stroke-linejoin: miter; stroke-linecap: square"/>
   </g>
   <g id="patch_27">
    <path d="M 704.316875 384.1975 
L 704.316875 25.3575 
" style="fill: none; stroke: #000000; stroke-width: 0.8; stroke-linejoin: miter; stroke-linecap: square"/>
   </g>
   <g id="patch_28">
    <path d="M 45.716875 384.1975 
L 704.316875 384.1975 
" style="fill: none; stroke: #000000; stroke-width: 0.8; stroke-linejoin: miter; stroke-linecap: square"/>
   </g>
   <g id="patch_29">
    <path d="M 45.716875 25.3575 
L 704.316875 25.3575 
" style="fill: none; stroke: #000000; stroke-width: 0.8; stroke-linejoin: miter; stroke-linecap: square"/>
   </g>
   <g id="text_14">
    <!-- Distribution of pIC50 Values -->
    <g transform="translate(263.665625 19.3575) scale(0.16 -0.16)">
     <defs>
      <path id="DejaVuSans-72" d="M 2631 2963 
Q 2534 3019 2420 3045 
Q 2306 3072 2169 3072 
Q 1681 3072 1420 2755 
Q 1159 2438 1159 1844 
L 1159 0 
L 581 0 
L 581 3500 
L 1159 3500 
L 1159 2956 
Q 1341 3275 1631 3429 
Q 1922 3584 2338 3584 
Q 2397 3584 2469 3576 
Q 2541 3569 2628 3553 
L 2631 2963 
z
" transform="scale(0.015625)"/>
      <path id="DejaVuSans-62" d="M 3116 1747 
Q 3116 2381 2855 2742 
Q 2594 3103 2138 3103 
Q 1681 3103 1420 2742 
Q 1159 2381 1159 1747 
Q 1159 1113 1420 752 
Q 1681 391 2138 391 
Q 2594 391 2855 752 
Q 3116 1113 3116 1747 
z
M 1159 2969 
Q 1341 3281 1617 3432 
Q 1894 3584 2278 3584 
Q 2916 3584 3314 3078 
Q 3713 2572 3713 1747 
Q 3713 922 3314 415 
Q 2916 -91 2278 -91 
Q 1894 -91 1617 61 
Q 1341 213 1159 525 
L 1159 0 
L 581 0 
L 581 4863 
L 1159 4863 
L 1159 2969 
z
" transform="scale(0.015625)"/>
      <path id="DejaVuSans-75" d="M 544 1381 
L 544 3500 
L 1119 3500 
L 1119 1403 
Q 1119 906 1312 657 
Q 1506 409 1894 409 
Q 2359 409 2629 706 
Q 2900 1003 2900 1516 
L 2900 3500 
L 3475 3500 
L 3475 0 
L 2900 0 
L 2900 538 
Q 2691 219 2414 64 
Q 2138 -91 1772 -91 
Q 1169 -91 856 284 
Q 544 659 544 1381 
z
M 1991 3584 
L 1991 3584 
z
" transform="scale(0.015625)"/>
      <path id="DejaVuSans-6f" d="M 1959 3097 
Q 1497 3097 1228 2736 
Q 959 2375 959 1747 
Q 959 1119 1226 758 
Q 1494 397 1959 397 
Q 2419 397 2687 759 
Q 2956 1122 2956 1747 
Q 2956 2369 2687 2733 
Q 2419 3097 1959 3097 
z
M 1959 3584 
Q 2709 3584 3137 3096 
Q 3566 2609 3566 1747 
Q 3566 888 3137 398 
Q 2709 -91 1959 -91 
Q 1206 -91 779 398 
Q 353 888 353 1747 
Q 353 2609 779 3096 
Q 1206 3584 1959 3584 
z
" transform="scale(0.015625)"/>
      <path id="DejaVuSans-20" transform="scale(0.015625)"/>
      <path id="DejaVuSans-66" d="M 2375 4863 
L 2375 4384 
L 1825 4384 
Q 1516 4384 1395 4259 
Q 1275 4134 1275 3809 
L 1275 3500 
L 2222 3500 
L 2222 3053 
L 1275 3053 
L 1275 0 
L 697 0 
L 697 3053 
L 147 3053 
L 147 3500 
L 697 3500 
L 697 3744 
Q 697 4328 969 4595 
Q 1241 4863 1831 4863 
L 2375 4863 
z
" transform="scale(0.015625)"/>
      <path id="DejaVuSans-56" d="M 1831 0 
L 50 4666 
L 709 4666 
L 2188 738 
L 3669 4666 
L 4325 4666 
L 2547 0 
L 1831 0 
z
" transform="scale(0.015625)"/>
      <path id="DejaVuSans-61" d="M 2194 1759 
Q 1497 1759 1228 1600 
Q 959 1441 959 1056 
Q 959 750 1161 570 
Q 1363 391 1709 391 
Q 2188 391 2477 730 
Q 2766 1069 2766 1631 
L 2766 1759 
L 2194 1759 
z
M 3341 1997 
L 3341 0 
L 2766 0 
L 2766 531 
Q 2569 213 2275 61 
Q 1981 -91 1556 -91 
Q 1019 -91 701 211 
Q 384 513 384 1019 
Q 384 1609 779 1909 
Q 1175 2209 1959 2209 
L 2766 2209 
L 2766 2266 
Q 2766 2663 2505 2880 
Q 2244 3097 1772 3097 
Q 1472 3097 1187 3025 
Q 903 2953 641 2809 
L 641 3341 
Q 956 3463 1253 3523 
Q 1550 3584 1831 3584 
Q 2591 3584 2966 3190 
Q 3341 2797 3341 1997 
z
" transform="scale(0.015625)"/>
      <path id="DejaVuSans-6c" d="M 603 4863 
L 1178 4863 
L 1178 0 
L 603 0 
L 603 4863 
z
" transform="scale(0.015625)"/>
     </defs>
     <use xlink:href="#DejaVuSans-44"/>
     <use xlink:href="#DejaVuSans-69" transform="translate(77.001953 0)"/>
     <use xlink:href="#DejaVuSans-73" transform="translate(104.785156 0)"/>
     <use xlink:href="#DejaVuSans-74" transform="translate(156.884766 0)"/>
     <use xlink:href="#DejaVuSans-72" transform="translate(196.09375 0)"/>
     <use xlink:href="#DejaVuSans-69" transform="translate(237.207031 0)"/>
     <use xlink:href="#DejaVuSans-62" transform="translate(264.990234 0)"/>
     <use xlink:href="#DejaVuSans-75" transform="translate(328.466797 0)"/>
     <use xlink:href="#DejaVuSans-74" transform="translate(391.845703 0)"/>
     <use xlink:href="#DejaVuSans-69" transform="translate(431.054688 0)"/>
     <use xlink:href="#DejaVuSans-6f" transform="translate(458.837891 0)"/>
     <use xlink:href="#DejaVuSans-6e" transform="translate(520.019531 0)"/>
     <use xlink:href="#DejaVuSans-20" transform="translate(583.398438 0)"/>
     <use xlink:href="#DejaVuSans-6f" transform="translate(615.185547 0)"/>
     <use xlink:href="#DejaVuSans-66" transform="translate(676.367188 0)"/>
     <use xlink:href="#DejaVuSans-20" transform="translate(711.572266 0)"/>
     <use xlink:href="#DejaVuSans-70" transform="translate(743.359375 0)"/>
     <use xlink:href="#DejaVuSans-49" transform="translate(806.835938 0)"/>
     <use xlink:href="#DejaVuSans-43" transform="translate(836.328125 0)"/>
     <use xlink:href="#DejaVuSans-35" transform="translate(906.152344 0)"/>
     <use xlink:href="#DejaVuSans-30" transform="translate(969.775391 0)"/>
     <use xlink:href="#DejaVuSans-20" transform="translate(1033.398438 0)"/>
     <use xlink:href="#DejaVuSans-56" transform="translate(1065.185547 0)"/>
     <use xlink:href="#DejaVuSans-61" transform="translate(1125.84375 0)"/>
     <use xlink:href="#DejaVuSans-6c" transform="translate(1187.123047 0)"/>
     <use xlink:href="#DejaVuSans-75" transform="translate(1214.90625 0)"/>
     <use xlink:href="#DejaVuSans-65" transform="translate(1278.285156 0)"/>
     <use xlink:href="#DejaVuSans-73" transform="translate(1339.808594 0)"/>
    </g>
   </g>
  </g>
 </g>
 <defs>
  <clipPath id="p91edbfdd22">
   <rect x="45.716875" y="25.3575" width="658.6" height="358.84"/>
  </clipPath>
 </defs>
</svg>
