<?xml version="1.0" encoding="utf-8" standalone="no"?>
<!DOCTYPE svg PUBLIC "-//W3C//DTD SVG 1.1//EN"
  "http://www.w3.org/Graphics/SVG/1.1/DTD/svg11.dtd">
<svg xmlns:xlink="http://www.w3.org/1999/xlink" width="712.9625pt" height="424.714687pt" viewBox="0 0 712.9625 424.714687" xmlns="http://www.w3.org/2000/svg" version="1.1">
 <metadata>
  <rdf:RDF xmlns:dc="http://purl.org/dc/elements/1.1/" xmlns:cc="http://creativecommons.org/ns#" xmlns:rdf="http://www.w3.org/1999/02/22-rdf-syntax-ns#">
   <cc:Work>
    <dc:type rdf:resource="http://purl.org/dc/dcmitype/StillImage"/>
    <dc:date>2026-07-07T20:26:12.843554</dc:date>
    <dc:format>image/svg+xml</dc:format>
    <dc:creator>
     <cc:Agent>
      <dc:title>Matplotlib v3.11.0, https://matplotlib.org/</dc:title>
     </cc:Agent>
    </dc:creator>
   </cc:Work>
  </rdf:RDF>
 </metadata>
 <defs>
  <style type="text/css">*{stroke-linejoin: round; stroke-linecap: butt}</style>
 </defs>
 <g id="figure_1">
  <g id="patch_1">
   <path d="M 0 424.714687 
L 712.9625 424.714687 
L 712.9625 0 
L 0 0 
z
" style="fill: #ffffff"/>
  </g>
  <g id="axes_1">
   <g id="patch_2">
    <path d="M 59.64625 374.513437 
L 705.7625 374.513437 
L 705.7625 26.877187 
L 59.64625 26.877187 
z
" style="fill: #ffffff"/>
   </g>
   <g id="patch_3">
    <path d="M 113.959677 374.513437 
L 117.970792 374.513437 
L 117.970792 373.990401 
L 113.959677 373.990401 
z
" clip-path="url(#pae3718d812)" style="fill: #a20025; fill-opacity: 0.5; stroke: #ffffff; stroke-opacity: 0.4; stroke-width: 0.346409; stroke-linejoin: miter"/>
   </g>
   <g id="patch_4">
    <path d="M 117.970792 374.513437 
L 121.981907 374.513437 
L 121.981907 374.513437 
L 117.970792 374.513437 
z
" clip-path="url(#pae3718d812)" style="fill: #a20025; fill-opacity: 0.5; stroke: #ffffff; stroke-opacity: 0.4; stroke-width: 0.346409; stroke-linejoin: miter"/>
   </g>
   <g id="patch_5">
    <path d="M 121.981907 374.513437 
L 125.993022 374.513437 
L 125.993022 374.513437 
L 121.981907 374.513437 
z
" clip-path="url(#pae3718d812)" style="fill: #a20025; fill-opacity: 0.5; stroke: #ffffff; stroke-opacity: 0.4; stroke-width: 0.346409; stroke-linejoin: miter"/>
   </g>
   <g id="patch_6">
    <path d="M 125.993022 374.513437 
L 130.004137 374.513437 
L 130.004137 374.513437 
L 125.993022 374.513437 
z
" clip-path="url(#pae3718d812)" style="fill: #a20025; fill-opacity: 0.5; stroke: #ffffff; stroke-opacity: 0.4; stroke-width: 0.346409; stroke-linejoin: miter"/>
   </g>
   <g id="patch_7">
    <path d="M 130.004137 374.513437 
L 134.015251 374.513437 
L 134.015251 374.513437 
L 130.004137 374.513437 
z
" clip-path="url(#pae3718d812)" style="fill: #a20025; fill-opacity: 0.5; stroke: #ffffff; stroke-opacity: 0.4; stroke-width: 0.346409; stroke-linejoin: miter"/>
   </g>
   <g id="patch_8">
    <path d="M 134.015251 374.513437 
L 138.026366 374.513437 
L 138.026366 374.513437 
L 134.015251 374.513437 
z
" clip-path="url(#pae3718d812)" style="fill: #a20025; fill-opacity: 0.5; stroke: #ffffff; stroke-opacity: 0.4; stroke-width: 0.346409; stroke-linejoin: miter"/>
   </g>
   <g id="patch_9">
    <path d="M 138.026366 374.513437 
L 142.037481 374.513437 
L 142.037481 374.513437 
L 138.026366 374.513437 
z
" clip-path="url(#pae3718d812)" style="fill: #a20025; fill-opacity: 0.5; stroke: #ffffff; stroke-opacity: 0.4; stroke-width: 0.346409; stroke-linejoin: miter"/>
   </g>
   <g id="patch_10">
    <path d="M 142.037481 374.513437 
L 146.048596 374.513437 
L 146.048596 374.513437 
L 142.037481 374.513437 
z
" clip-path="url(#pae3718d812)" style="fill: #a20025; fill-opacity: 0.5; stroke: #ffffff; stroke-opacity: 0.4; stroke-width: 0.346409; stroke-linejoin: miter"/>
   </g>
   <g id="patch_11">
    <path d="M 146.048596 374.513437 
L 150.059711 374.513437 
L 150.059711 374.513437 
L 146.048596 374.513437 
z
" clip-path="url(#pae3718d812)" style="fill: #a20025; fill-opacity: 0.5; stroke: #ffffff; stroke-opacity: 0.4; stroke-width: 0.346409; stroke-linejoin: miter"/>
   </g>
   <g id="patch_12">
    <path d="M 150.059711 374.513437 
L 154.070826 374.513437 
L 154.070826 374.513437 
L 150.059711 374.513437 
z
" clip-path="url(#pae3718d812)" style="fill: #a20025; fill-opacity: 0.5; stroke: #ffffff; stroke-opacity: 0.4; stroke-width: 0.346409; stroke-linejoin: miter"/>
   </g>
   <g id="patch_13">
    <path d="M 154.070826 374.513437 
L 158.081941 374.513437 
L 158.081941 374.513437 
L 154.070826 374.513437 
z
" clip-path="url(#pae3718d812)" style="fill: #a20025; fill-opacity: 0.5; stroke: #ffffff; stroke-opacity: 0.4; stroke-width: 0.346409; stroke-linejoin: miter"/>
   </g>
   <g id="patch_14">
    <path d="M 158.081941 374.513437 
L 162.093056 374.513437 
L 162.093056 374.513437 
L 158.081941 374.513437 
z
" clip-path="url(#pae3718d812)" style="fill: #a20025; fill-opacity: 0.5; stroke: #ffffff; stroke-opacity: 0.4; stroke-width: 0.346409; stroke-linejoin: miter"/>
   </g>
   <g id="patch_15">
    <path d="M 162.093056 374.513437 
L 166.104171 374.513437 
L 166.104171 374.513437 
L 162.093056 374.513437 
z
" clip-path="url(#pae3718d812)" style="fill: #a20025; fill-opacity: 0.5; stroke: #ffffff; stroke-opacity: 0.4; stroke-width: 0.346409; stroke-linejoin: miter"/>
   </g>
   <g id="patch_16">
    <path d="M 166.104171 374.513437 
L 170.115285 374.513437 
L 170.115285 374.513437 
L 166.104171 374.513437 
z
" clip-path="url(#pae3718d812)" style="fill: #a20025; fill-opacity: 0.5; stroke: #ffffff; stroke-opacity: 0.4; stroke-width: 0.346409; stroke-linejoin: miter"/>
   </g>
   <g id="patch_17">
    <path d="M 170.115285 374.513437 
L 174.1264 374.513437 
L 174.1264 374.513437 
L 170.115285 374.513437 
z
" clip-path="url(#pae3718d812)" style="fill: #a20025; fill-opacity: 0.5; stroke: #ffffff; stroke-opacity: 0.4; stroke-width: 0.346409; stroke-linejoin: miter"/>
   </g>
   <g id="patch_18">
    <path d="M 174.1264 374.513437 
L 178.137515 374.513437 
L 178.137515 374.513437 
L 174.1264 374.513437 
z
" clip-path="url(#pae3718d812)" style="fill: #a20025; fill-opacity: 0.5; stroke: #ffffff; stroke-opacity: 0.4; stroke-width: 0.346409; stroke-linejoin: miter"/>
   </g>
   <g id="patch_19">
    <path d="M 178.137515 374.513437 
L 182.14863 374.513437 
L 182.14863 374.513437 
L 178.137515 374.513437 
z
" clip-path="url(#pae3718d812)" style="fill: #a20025; fill-opacity: 0.5; stroke: #ffffff; stroke-opacity: 0.4; stroke-width: 0.346409; stroke-linejoin: miter"/>
   </g>
   <g id="patch_20">
    <path d="M 182.14863 374.513437 
L 186.159745 374.513437 
L 186.159745 374.513437 
L 182.14863 374.513437 
z
" clip-path="url(#pae3718d812)" style="fill: #a20025; fill-opacity: 0.5; stroke: #ffffff; stroke-opacity: 0.4; stroke-width: 0.346409; stroke-linejoin: miter"/>
   </g>
   <g id="patch_21">
    <path d="M 186.159745 374.513437 
L 190.17086 374.513437 
L 190.17086 374.513437 
L 186.159745 374.513437 
z
" clip-path="url(#pae3718d812)" style="fill: #a20025; fill-opacity: 0.5; stroke: #ffffff; stroke-opacity: 0.4; stroke-width: 0.346409; stroke-linejoin: miter"/>
   </g>
   <g id="patch_22">
    <path d="M 190.17086 374.513437 
L 194.181975 374.513437 
L 194.181975 373.990401 
L 190.17086 373.990401 
z
" clip-path="url(#pae3718d812)" style="fill: #a20025; fill-opacity: 0.5; stroke: #ffffff; stroke-opacity: 0.4; stroke-width: 0.346409; stroke-linejoin: miter"/>
   </g>
   <g id="patch_23">
    <path d="M 194.181975 374.513437 
L 198.19309 374.513437 
L 198.19309 374.513437 
L 194.181975 374.513437 
z
" clip-path="url(#pae3718d812)" style="fill: #a20025; fill-opacity: 0.5; stroke: #ffffff; stroke-opacity: 0.4; stroke-width: 0.346409; stroke-linejoin: miter"/>
   </g>
   <g id="patch_24">
    <path d="M 198.19309 374.513437 
L 202.204205 374.513437 
L 202.204205 374.513437 
L 198.19309 374.513437 
z
" clip-path="url(#pae3718d812)" style="fill: #a20025; fill-opacity: 0.5; stroke: #ffffff; stroke-opacity: 0.4; stroke-width: 0.346409; stroke-linejoin: miter"/>
   </g>
   <g id="patch_25">
    <path d="M 202.204205 374.513437 
L 206.21532 374.513437 
L 206.21532 374.513437 
L 202.204205 374.513437 
z
" clip-path="url(#pae3718d812)" style="fill: #a20025; fill-opacity: 0.5; stroke: #ffffff; stroke-opacity: 0.4; stroke-width: 0.346409; stroke-linejoin: miter"/>
   </g>
   <g id="patch_26">
    <path d="M 206.21532 374.513437 
L 210.226434 374.513437 
L 210.226434 374.513437 
L 206.21532 374.513437 
z
" clip-path="url(#pae3718d812)" style="fill: #a20025; fill-opacity: 0.5; stroke: #ffffff; stroke-opacity: 0.4; stroke-width: 0.346409; stroke-linejoin: miter"/>
   </g>
   <g id="patch_27">
    <path d="M 210.226434 374.513437 
L 214.237549 374.513437 
L 214.237549 374.513437 
L 210.226434 374.513437 
z
" clip-path="url(#pae3718d812)" style="fill: #a20025; fill-opacity: 0.5; stroke: #ffffff; stroke-opacity: 0.4; stroke-width: 0.346409; stroke-linejoin: miter"/>
   </g>
   <g id="patch_28">
    <path d="M 214.237549 374.513437 
L 218.248664 374.513437 
L 218.248664 374.513437 
L 214.237549 374.513437 
z
" clip-path="url(#pae3718d812)" style="fill: #a20025; fill-opacity: 0.5; stroke: #ffffff; stroke-opacity: 0.4; stroke-width: 0.346409; stroke-linejoin: miter"/>
   </g>
   <g id="patch_29">
    <path d="M 218.248664 374.513437 
L 222.259779 374.513437 
L 222.259779 374.513437 
L 218.248664 374.513437 
z
" clip-path="url(#pae3718d812)" style="fill: #a20025; fill-opacity: 0.5; stroke: #ffffff; stroke-opacity: 0.4; stroke-width: 0.346409; stroke-linejoin: miter"/>
   </g>
   <g id="patch_30">
    <path d="M 222.259779 374.513437 
L 226.270894 374.513437 
L 226.270894 374.513437 
L 222.259779 374.513437 
z
" clip-path="url(#pae3718d812)" style="fill: #a20025; fill-opacity: 0.5; stroke: #ffffff; stroke-opacity: 0.4; stroke-width: 0.346409; stroke-linejoin: miter"/>
   </g>
   <g id="patch_31">
    <path d="M 226.270894 374.513437 
L 230.282009 374.513437 
L 230.282009 374.513437 
L 226.270894 374.513437 
z
" clip-path="url(#pae3718d812)" style="fill: #a20025; fill-opacity: 0.5; stroke: #ffffff; stroke-opacity: 0.4; stroke-width: 0.346409; stroke-linejoin: miter"/>
   </g>
   <g id="patch_32">
    <path d="M 230.282009 374.513437 
L 234.293124 374.513437 
L 234.293124 374.513437 
L 230.282009 374.513437 
z
" clip-path="url(#pae3718d812)" style="fill: #a20025; fill-opacity: 0.5; stroke: #ffffff; stroke-opacity: 0.4; stroke-width: 0.346409; stroke-linejoin: miter"/>
   </g>
   <g id="patch_33">
    <path d="M 234.293124 374.513437 
L 238.304239 374.513437 
L 238.304239 374.513437 
L 234.293124 374.513437 
z
" clip-path="url(#pae3718d812)" style="fill: #a20025; fill-opacity: 0.5; stroke: #ffffff; stroke-opacity: 0.4; stroke-width: 0.346409; stroke-linejoin: miter"/>
   </g>
   <g id="patch_34">
    <path d="M 238.304239 374.513437 
L 242.315354 374.513437 
L 242.315354 373.990401 
L 238.304239 373.990401 
z
" clip-path="url(#pae3718d812)" style="fill: #a20025; fill-opacity: 0.5; stroke: #ffffff; stroke-opacity: 0.4; stroke-width: 0.346409; stroke-linejoin: miter"/>
   </g>
   <g id="patch_35">
    <path d="M 242.315354 374.513437 
L 246.326469 374.513437 
L 246.326469 374.513437 
L 242.315354 374.513437 
z
" clip-path="url(#pae3718d812)" style="fill: #a20025; fill-opacity: 0.5; stroke: #ffffff; stroke-opacity: 0.4; stroke-width: 0.346409; stroke-linejoin: miter"/>
   </g>
   <g id="patch_36">
    <path d="M 246.326469 374.513437 
L 250.337583 374.513437 
L 250.337583 374.513437 
L 246.326469 374.513437 
z
" clip-path="url(#pae3718d812)" style="fill: #a20025; fill-opacity: 0.5; stroke: #ffffff; stroke-opacity: 0.4; stroke-width: 0.346409; stroke-linejoin: miter"/>
   </g>
   <g id="patch_37">
    <path d="M 250.337583 374.513437 
L 254.348698 374.513437 
L 254.348698 374.513437 
L 250.337583 374.513437 
z
" clip-path="url(#pae3718d812)" style="fill: #a20025; fill-opacity: 0.5; stroke: #ffffff; stroke-opacity: 0.4; stroke-width: 0.346409; stroke-linejoin: miter"/>
   </g>
   <g id="patch_38">
    <path d="M 254.348698 374.513437 
L 258.359813 374.513437 
L 258.359813 374.513437 
L 254.348698 374.513437 
z
" clip-path="url(#pae3718d812)" style="fill: #a20025; fill-opacity: 0.5; stroke: #ffffff; stroke-opacity: 0.4; stroke-width: 0.346409; stroke-linejoin: miter"/>
   </g>
   <g id="patch_39">
    <path d="M 258.359813 374.513437 
L 262.370928 374.513437 
L 262.370928 374.513437 
L 258.359813 374.513437 
z
" clip-path="url(#pae3718d812)" style="fill: #a20025; fill-opacity: 0.5; stroke: #ffffff; stroke-opacity: 0.4; stroke-width: 0.346409; stroke-linejoin: miter"/>
   </g>
   <g id="patch_40">
    <path d="M 262.370928 374.513437 
L 266.382043 374.513437 
L 266.382043 374.513437 
L 262.370928 374.513437 
z
" clip-path="url(#pae3718d812)" style="fill: #a20025; fill-opacity: 0.5; stroke: #ffffff; stroke-opacity: 0.4; stroke-width: 0.346409; stroke-linejoin: miter"/>
   </g>
   <g id="patch_41">
    <path d="M 266.382043 374.513437 
L 270.393158 374.513437 
L 270.393158 374.513437 
L 266.382043 374.513437 
z
" clip-path="url(#pae3718d812)" style="fill: #a20025; fill-opacity: 0.5; stroke: #ffffff; stroke-opacity: 0.4; stroke-width: 0.346409; stroke-linejoin: miter"/>
   </g>
   <g id="patch_42">
    <path d="M 270.393158 374.513437 
L 274.404273 374.513437 
L 274.404273 374.513437 
L 270.393158 374.513437 
z
" clip-path="url(#pae3718d812)" style="fill: #a20025; fill-opacity: 0.5; stroke: #ffffff; stroke-opacity: 0.4; stroke-width: 0.346409; stroke-linejoin: miter"/>
   </g>
   <g id="patch_43">
    <path d="M 274.404273 374.513437 
L 278.415388 374.513437 
L 278.415388 374.513437 
L 274.404273 374.513437 
z
" clip-path="url(#pae3718d812)" style="fill: #a20025; fill-opacity: 0.5; stroke: #ffffff; stroke-opacity: 0.4; stroke-width: 0.346409; stroke-linejoin: miter"/>
   </g>
   <g id="patch_44">
    <path d="M 278.415388 374.513437 
L 282.426503 374.513437 
L 282.426503 372.944328 
L 278.415388 372.944328 
z
" clip-path="url(#pae3718d812)" style="fill: #a20025; fill-opacity: 0.5; stroke: #ffffff; stroke-opacity: 0.4; stroke-width: 0.346409; stroke-linejoin: miter"/>
   </g>
   <g id="patch_45">
    <path d="M 282.426503 374.513437 
L 286.437617 374.513437 
L 286.437617 374.513437 
L 282.426503 374.513437 
z
" clip-path="url(#pae3718d812)" style="fill: #a20025; fill-opacity: 0.5; stroke: #ffffff; stroke-opacity: 0.4; stroke-width: 0.346409; stroke-linejoin: miter"/>
   </g>
   <g id="patch_46">
    <path d="M 286.437617 374.513437 
L 290.448732 374.513437 
L 290.448732 374.513437 
L 286.437617 374.513437 
z
" clip-path="url(#pae3718d812)" style="fill: #a20025; fill-opacity: 0.5; stroke: #ffffff; stroke-opacity: 0.4; stroke-width: 0.346409; stroke-linejoin: miter"/>
   </g>
   <g id="patch_47">
    <path d="M 290.448732 374.513437 
L 294.459847 374.513437 
L 294.459847 372.421291 
L 290.448732 372.421291 
z
" clip-path="url(#pae3718d812)" style="fill: #a20025; fill-opacity: 0.5; stroke: #ffffff; stroke-opacity: 0.4; stroke-width: 0.346409; stroke-linejoin: miter"/>
   </g>
   <g id="patch_48">
    <path d="M 294.459847 374.513437 
L 298.470962 374.513437 
L 298.470962 374.513437 
L 294.459847 374.513437 
z
" clip-path="url(#pae3718d812)" style="fill: #a20025; fill-opacity: 0.5; stroke: #ffffff; stroke-opacity: 0.4; stroke-width: 0.346409; stroke-linejoin: miter"/>
   </g>
   <g id="patch_49">
    <path d="M 298.470962 374.513437 
L 302.482077 374.513437 
L 302.482077 374.513437 
L 298.470962 374.513437 
z
" clip-path="url(#pae3718d812)" style="fill: #a20025; fill-opacity: 0.5; stroke: #ffffff; stroke-opacity: 0.4; stroke-width: 0.346409; stroke-linejoin: miter"/>
   </g>
   <g id="patch_50">
    <path d="M 302.482077 374.513437 
L 306.493192 374.513437 
L 306.493192 371.375218 
L 302.482077 371.375218 
z
" clip-path="url(#pae3718d812)" style="fill: #a20025; fill-opacity: 0.5; stroke: #ffffff; stroke-opacity: 0.4; stroke-width: 0.346409; stroke-linejoin: miter"/>
   </g>
   <g id="patch_51">
    <path d="M 306.493192 374.513437 
L 310.504307 374.513437 
L 310.504307 374.513437 
L 306.493192 374.513437 
z
" clip-path="url(#pae3718d812)" style="fill: #a20025; fill-opacity: 0.5; stroke: #ffffff; stroke-opacity: 0.4; stroke-width: 0.346409; stroke-linejoin: miter"/>
   </g>
   <g id="patch_52">
    <path d="M 310.504307 374.513437 
L 314.515422 374.513437 
L 314.515422 374.513437 
L 310.504307 374.513437 
z
" clip-path="url(#pae3718d812)" style="fill: #a20025; fill-opacity: 0.5; stroke: #ffffff; stroke-opacity: 0.4; stroke-width: 0.346409; stroke-linejoin: miter"/>
   </g>
   <g id="patch_53">
    <path d="M 314.515422 374.513437 
L 318.526537 374.513437 
L 318.526537 374.513437 
L 314.515422 374.513437 
z
" clip-path="url(#pae3718d812)" style="fill: #a20025; fill-opacity: 0.5; stroke: #ffffff; stroke-opacity: 0.4; stroke-width: 0.346409; stroke-linejoin: miter"/>
   </g>
   <g id="patch_54">
    <path d="M 318.526537 374.513437 
L 322.537652 374.513437 
L 322.537652 372.421291 
L 318.526537 372.421291 
z
" clip-path="url(#pae3718d812)" style="fill: #a20025; fill-opacity: 0.5; stroke: #ffffff; stroke-opacity: 0.4; stroke-width: 0.346409; stroke-linejoin: miter"/>
   </g>
   <g id="patch_55">
    <path d="M 322.537652 374.513437 
L 326.548766 374.513437 
L 326.548766 374.513437 
L 322.537652 374.513437 
z
" clip-path="url(#pae3718d812)" style="fill: #a20025; fill-opacity: 0.5; stroke: #ffffff; stroke-opacity: 0.4; stroke-width: 0.346409; stroke-linejoin: miter"/>
   </g>
   <g id="patch_56">
    <path d="M 326.548766 374.513437 
L 330.559881 374.513437 
L 330.559881 374.513437 
L 326.548766 374.513437 
z
" clip-path="url(#pae3718d812)" style="fill: #a20025; fill-opacity: 0.5; stroke: #ffffff; stroke-opacity: 0.4; stroke-width: 0.346409; stroke-linejoin: miter"/>
   </g>
   <g id="patch_57">
    <path d="M 330.559881 374.513437 
L 334.570996 374.513437 
L 334.570996 371.375218 
L 330.559881 371.375218 
z
" clip-path="url(#pae3718d812)" style="fill: #a20025; fill-opacity: 0.5; stroke: #ffffff; stroke-opacity: 0.4; stroke-width: 0.346409; stroke-linejoin: miter"/>
   </g>
   <g id="patch_58">
    <path d="M 334.570996 374.513437 
L 338.582111 374.513437 
L 338.582111 374.513437 
L 334.570996 374.513437 
z
" clip-path="url(#pae3718d812)" style="fill: #a20025; fill-opacity: 0.5; stroke: #ffffff; stroke-opacity: 0.4; stroke-width: 0.346409; stroke-linejoin: miter"/>
   </g>
   <g id="patch_59">
    <path d="M 338.582111 374.513437 
L 342.593226 374.513437 
L 342.593226 374.513437 
L 338.582111 374.513437 
z
" clip-path="url(#pae3718d812)" style="fill: #a20025; fill-opacity: 0.5; stroke: #ffffff; stroke-opacity: 0.4; stroke-width: 0.346409; stroke-linejoin: miter"/>
   </g>
   <g id="patch_60">
    <path d="M 342.593226 374.513437 
L 346.604341 374.513437 
L 346.604341 367.713962 
L 342.593226 367.713962 
z
" clip-path="url(#pae3718d812)" style="fill: #a20025; fill-opacity: 0.5; stroke: #ffffff; stroke-opacity: 0.4; stroke-width: 0.346409; stroke-linejoin: miter"/>
   </g>
   <g id="patch_61">
    <path d="M 346.604341 374.513437 
L 350.615456 374.513437 
L 350.615456 374.513437 
L 346.604341 374.513437 
z
" clip-path="url(#pae3718d812)" style="fill: #a20025; fill-opacity: 0.5; stroke: #ffffff; stroke-opacity: 0.4; stroke-width: 0.346409; stroke-linejoin: miter"/>
   </g>
   <g id="patch_62">
    <path d="M 350.615456 374.513437 
L 354.626571 374.513437 
L 354.626571 374.513437 
L 350.615456 374.513437 
z
" clip-path="url(#pae3718d812)" style="fill: #a20025; fill-opacity: 0.5; stroke: #ffffff; stroke-opacity: 0.4; stroke-width: 0.346409; stroke-linejoin: miter"/>
   </g>
   <g id="patch_63">
    <path d="M 354.626571 374.513437 
L 358.637686 374.513437 
L 358.637686 368.236999 
L 354.626571 368.236999 
z
" clip-path="url(#pae3718d812)" style="fill: #a20025; fill-opacity: 0.5; stroke: #ffffff; stroke-opacity: 0.4; stroke-width: 0.346409; stroke-linejoin: miter"/>
   </g>
   <g id="patch_64">
    <path d="M 358.637686 374.513437 
L 362.648801 374.513437 
L 362.648801 374.513437 
L 358.637686 374.513437 
z
" clip-path="url(#pae3718d812)" style="fill: #a20025; fill-opacity: 0.5; stroke: #ffffff; stroke-opacity: 0.4; stroke-width: 0.346409; stroke-linejoin: miter"/>
   </g>
   <g id="patch_65">
    <path d="M 362.648801 374.513437 
L 366.659915 374.513437 
L 366.659915 374.513437 
L 362.648801 374.513437 
z
" clip-path="url(#pae3718d812)" style="fill: #a20025; fill-opacity: 0.5; stroke: #ffffff; stroke-opacity: 0.4; stroke-width: 0.346409; stroke-linejoin: miter"/>
   </g>
   <g id="patch_66">
    <path d="M 366.659915 374.513437 
L 370.67103 374.513437 
L 370.67103 358.822341 
L 366.659915 358.822341 
z
" clip-path="url(#pae3718d812)" style="fill: #a20025; fill-opacity: 0.5; stroke: #ffffff; stroke-opacity: 0.4; stroke-width: 0.346409; stroke-linejoin: miter"/>
   </g>
   <g id="patch_67">
    <path d="M 370.67103 374.513437 
L 374.682145 374.513437 
L 374.682145 374.513437 
L 370.67103 374.513437 
z
" clip-path="url(#pae3718d812)" style="fill: #a20025; fill-opacity: 0.5; stroke: #ffffff; stroke-opacity: 0.4; stroke-width: 0.346409; stroke-linejoin: miter"/>
   </g>
   <g id="patch_68">
    <path d="M 374.682145 374.513437 
L 378.69326 374.513437 
L 378.69326 374.513437 
L 374.682145 374.513437 
z
" clip-path="url(#pae3718d812)" style="fill: #a20025; fill-opacity: 0.5; stroke: #ffffff; stroke-opacity: 0.4; stroke-width: 0.346409; stroke-linejoin: miter"/>
   </g>
   <g id="patch_69">
    <path d="M 378.69326 374.513437 
L 382.704375 374.513437 
L 382.704375 371.898255 
L 378.69326 371.898255 
z
" clip-path="url(#pae3718d812)" style="fill: #a20025; fill-opacity: 0.5; stroke: #ffffff; stroke-opacity: 0.4; stroke-width: 0.346409; stroke-linejoin: miter"/>
   </g>
   <g id="patch_70">
    <path d="M 382.704375 374.513437 
L 386.71549 374.513437 
L 386.71549 359.868414 
L 382.704375 359.868414 
z
" clip-path="url(#pae3718d812)" style="fill: #a20025; fill-opacity: 0.5; stroke: #ffffff; stroke-opacity: 0.4; stroke-width: 0.346409; stroke-linejoin: miter"/>
   </g>
   <g id="patch_71">
    <path d="M 386.71549 374.513437 
L 390.726605 374.513437 
L 390.726605 374.513437 
L 386.71549 374.513437 
z
" clip-path="url(#pae3718d812)" style="fill: #a20025; fill-opacity: 0.5; stroke: #ffffff; stroke-opacity: 0.4; stroke-width: 0.346409; stroke-linejoin: miter"/>
   </g>
   <g id="patch_72">
    <path d="M 390.726605 374.513437 
L 394.73772 374.513437 
L 394.73772 374.513437 
L 390.726605 374.513437 
z
" clip-path="url(#pae3718d812)" style="fill: #a20025; fill-opacity: 0.5; stroke: #ffffff; stroke-opacity: 0.4; stroke-width: 0.346409; stroke-linejoin: miter"/>
   </g>
   <g id="patch_73">
    <path d="M 394.73772 374.513437 
L 398.748835 374.513437 
L 398.748835 345.22339 
L 394.73772 345.22339 
z
" clip-path="url(#pae3718d812)" style="fill: #a20025; fill-opacity: 0.5; stroke: #ffffff; stroke-opacity: 0.4; stroke-width: 0.346409; stroke-linejoin: miter"/>
   </g>
   <g id="patch_74">
    <path d="M 398.748835 374.513437 
L 402.759949 374.513437 
L 402.759949 374.513437 
L 398.748835 374.513437 
z
" clip-path="url(#pae3718d812)" style="fill: #a20025; fill-opacity: 0.5; stroke: #ffffff; stroke-opacity: 0.4; stroke-width: 0.346409; stroke-linejoin: miter"/>
   </g>
   <g id="patch_75">
    <path d="M 402.759949 374.513437 
L 406.771064 374.513437 
L 406.771064 374.513437 
L 402.759949 374.513437 
z
" clip-path="url(#pae3718d812)" style="fill: #a20025; fill-opacity: 0.5; stroke: #ffffff; stroke-opacity: 0.4; stroke-width: 0.346409; stroke-linejoin: miter"/>
   </g>
   <g id="patch_76">
    <path d="M 406.771064 374.513437 
L 410.782179 374.513437 
L 410.782179 326.394074 
L 406.771064 326.394074 
z
" clip-path="url(#pae3718d812)" style="fill: #a20025; fill-opacity: 0.5; stroke: #ffffff; stroke-opacity: 0.4; stroke-width: 0.346409; stroke-linejoin: miter"/>
   </g>
   <g id="patch_77">
    <path d="M 410.782179 374.513437 
L 414.793294 374.513437 
L 414.793294 374.513437 
L 410.782179 374.513437 
z
" clip-path="url(#pae3718d812)" style="fill: #a20025; fill-opacity: 0.5; stroke: #ffffff; stroke-opacity: 0.4; stroke-width: 0.346409; stroke-linejoin: miter"/>
   </g>
   <g id="patch_78">
    <path d="M 414.793294 374.513437 
L 418.804409 374.513437 
L 418.804409 374.513437 
L 414.793294 374.513437 
z
" clip-path="url(#pae3718d812)" style="fill: #a20025; fill-opacity: 0.5; stroke: #ffffff; stroke-opacity: 0.4; stroke-width: 0.346409; stroke-linejoin: miter"/>
   </g>
   <g id="patch_79">
    <path d="M 418.804409 374.513437 
L 422.815524 374.513437 
L 422.815524 304.949575 
L 418.804409 304.949575 
z
" clip-path="url(#pae3718d812)" style="fill: #a20025; fill-opacity: 0.5; stroke: #ffffff; stroke-opacity: 0.4; stroke-width: 0.346409; stroke-linejoin: miter"/>
   </g>
   <g id="patch_80">
    <path d="M 422.815524 374.513437 
L 426.826639 374.513437 
L 426.826639 374.513437 
L 422.815524 374.513437 
z
" clip-path="url(#pae3718d812)" style="fill: #a20025; fill-opacity: 0.5; stroke: #ffffff; stroke-opacity: 0.4; stroke-width: 0.346409; stroke-linejoin: miter"/>
   </g>
   <g id="patch_81">
    <path d="M 426.826639 374.513437 
L 430.837754 374.513437 
L 430.837754 374.513437 
L 426.826639 374.513437 
z
" clip-path="url(#pae3718d812)" style="fill: #a20025; fill-opacity: 0.5; stroke: #ffffff; stroke-opacity: 0.4; stroke-width: 0.346409; stroke-linejoin: miter"/>
   </g>
   <g id="patch_82">
    <path d="M 430.837754 374.513437 
L 434.848869 374.513437 
L 434.848869 250.553773 
L 430.837754 250.553773 
z
" clip-path="url(#pae3718d812)" style="fill: #a20025; fill-opacity: 0.5; stroke: #ffffff; stroke-opacity: 0.4; stroke-width: 0.346409; stroke-linejoin: miter"/>
   </g>
   <g id="patch_83">
    <path d="M 434.848869 374.513437 
L 438.859984 374.513437 
L 438.859984 374.513437 
L 434.848869 374.513437 
z
" clip-path="url(#pae3718d812)" style="fill: #a20025; fill-opacity: 0.5; stroke: #ffffff; stroke-opacity: 0.4; stroke-width: 0.346409; stroke-linejoin: miter"/>
   </g>
   <g id="patch_84">
    <path d="M 438.859984 374.513437 
L 442.871098 374.513437 
L 442.871098 374.513437 
L 438.859984 374.513437 
z
" clip-path="url(#pae3718d812)" style="fill: #a20025; fill-opacity: 0.5; stroke: #ffffff; stroke-opacity: 0.4; stroke-width: 0.346409; stroke-linejoin: miter"/>
   </g>
   <g id="patch_85">
    <path d="M 442.871098 374.513437 
L 446.882213 374.513437 
L 446.882213 43.431295 
L 442.871098 43.431295 
z
" clip-path="url(#pae3718d812)" style="fill: #a20025; fill-opacity: 0.5; stroke: #ffffff; stroke-opacity: 0.4; stroke-width: 0.346409; stroke-linejoin: miter"/>
   </g>
   <g id="patch_86">
    <path d="M 446.882213 374.513437 
L 450.893328 374.513437 
L 450.893328 374.513437 
L 446.882213 374.513437 
z
" clip-path="url(#pae3718d812)" style="fill: #a20025; fill-opacity: 0.5; stroke: #ffffff; stroke-opacity: 0.4; stroke-width: 0.346409; stroke-linejoin: miter"/>
   </g>
   <g id="patch_87">
    <path d="M 450.893328 374.513437 
L 454.904443 374.513437 
L 454.904443 374.513437 
L 450.893328 374.513437 
z
" clip-path="url(#pae3718d812)" style="fill: #a20025; fill-opacity: 0.5; stroke: #ffffff; stroke-opacity: 0.4; stroke-width: 0.346409; stroke-linejoin: miter"/>
   </g>
   <g id="patch_88">
    <path d="M 454.904443 374.513437 
L 458.915558 374.513437 
L 458.915558 374.513437 
L 454.904443 374.513437 
z
" clip-path="url(#pae3718d812)" style="fill: #a20025; fill-opacity: 0.5; stroke: #ffffff; stroke-opacity: 0.4; stroke-width: 0.346409; stroke-linejoin: miter"/>
   </g>
   <g id="patch_89">
    <path d="M 458.915558 374.513437 
L 462.926673 374.513437 
L 462.926673 226.494091 
L 458.915558 226.494091 
z
" clip-path="url(#pae3718d812)" style="fill: #a20025; fill-opacity: 0.5; stroke: #ffffff; stroke-opacity: 0.4; stroke-width: 0.346409; stroke-linejoin: miter"/>
   </g>
   <g id="patch_90">
    <path d="M 462.926673 374.513437 
L 466.937788 374.513437 
L 466.937788 374.513437 
L 462.926673 374.513437 
z
" clip-path="url(#pae3718d812)" style="fill: #a20025; fill-opacity: 0.5; stroke: #ffffff; stroke-opacity: 0.4; stroke-width: 0.346409; stroke-linejoin: miter"/>
   </g>
   <g id="patch_91">
    <path d="M 466.937788 374.513437 
L 470.948903 374.513437 
L 470.948903 374.513437 
L 466.937788 374.513437 
z
" clip-path="url(#pae3718d812)" style="fill: #a20025; fill-opacity: 0.5; stroke: #ffffff; stroke-opacity: 0.4; stroke-width: 0.346409; stroke-linejoin: miter"/>
   </g>
   <g id="patch_92">
    <path d="M 470.948903 374.513437 
L 474.960018 374.513437 
L 474.960018 266.244869 
L 470.948903 266.244869 
z
" clip-path="url(#pae3718d812)" style="fill: #a20025; fill-opacity: 0.5; stroke: #ffffff; stroke-opacity: 0.4; stroke-width: 0.346409; stroke-linejoin: miter"/>
   </g>
   <g id="patch_93">
    <path d="M 474.960018 374.513437 
L 478.971133 374.513437 
L 478.971133 374.513437 
L 474.960018 374.513437 
z
" clip-path="url(#pae3718d812)" style="fill: #a20025; fill-opacity: 0.5; stroke: #ffffff; stroke-opacity: 0.4; stroke-width: 0.346409; stroke-linejoin: miter"/>
   </g>
   <g id="patch_94">
    <path d="M 478.971133 374.513437 
L 482.982247 374.513437 
L 482.982247 374.513437 
L 478.971133 374.513437 
z
" clip-path="url(#pae3718d812)" style="fill: #a20025; fill-opacity: 0.5; stroke: #ffffff; stroke-opacity: 0.4; stroke-width: 0.346409; stroke-linejoin: miter"/>
   </g>
   <g id="patch_95">
    <path d="M 482.982247 374.513437 
L 486.993362 374.513437 
L 486.993362 313.841196 
L 482.982247 313.841196 
z
" clip-path="url(#pae3718d812)" style="fill: #a20025; fill-opacity: 0.5; stroke: #ffffff; stroke-opacity: 0.4; stroke-width: 0.346409; stroke-linejoin: miter"/>
   </g>
   <g id="patch_96">
    <path d="M 486.993362 374.513437 
L 491.004477 374.513437 
L 491.004477 374.513437 
L 486.993362 374.513437 
z
" clip-path="url(#pae3718d812)" style="fill: #a20025; fill-opacity: 0.5; stroke: #ffffff; stroke-opacity: 0.4; stroke-width: 0.346409; stroke-linejoin: miter"/>
   </g>
   <g id="patch_97">
    <path d="M 491.004477 374.513437 
L 495.015592 374.513437 
L 495.015592 374.513437 
L 491.004477 374.513437 
z
" clip-path="url(#pae3718d812)" style="fill: #a20025; fill-opacity: 0.5; stroke: #ffffff; stroke-opacity: 0.4; stroke-width: 0.346409; stroke-linejoin: miter"/>
   </g>
   <g id="patch_98">
    <path d="M 495.015592 374.513437 
L 499.026707 374.513437 
L 499.026707 336.331769 
L 495.015592 336.331769 
z
" clip-path="url(#pae3718d812)" style="fill: #a20025; fill-opacity: 0.5; stroke: #ffffff; stroke-opacity: 0.4; stroke-width: 0.346409; stroke-linejoin: miter"/>
   </g>
   <g id="patch_99">
    <path d="M 499.026707 374.513437 
L 503.037822 374.513437 
L 503.037822 374.513437 
L 499.026707 374.513437 
z
" clip-path="url(#pae3718d812)" style="fill: #a20025; fill-opacity: 0.5; stroke: #ffffff; stroke-opacity: 0.4; stroke-width: 0.346409; stroke-linejoin: miter"/>
   </g>
   <g id="patch_100">
    <path d="M 503.037822 374.513437 
L 507.048937 374.513437 
L 507.048937 374.513437 
L 503.037822 374.513437 
z
" clip-path="url(#pae3718d812)" style="fill: #a20025; fill-opacity: 0.5; stroke: #ffffff; stroke-opacity: 0.4; stroke-width: 0.346409; stroke-linejoin: miter"/>
   </g>
   <g id="patch_101">
    <path d="M 507.048937 374.513437 
L 511.060052 374.513437 
L 511.060052 350.453756 
L 507.048937 350.453756 
z
" clip-path="url(#pae3718d812)" style="fill: #a20025; fill-opacity: 0.5; stroke: #ffffff; stroke-opacity: 0.4; stroke-width: 0.346409; stroke-linejoin: miter"/>
   </g>
   <g id="patch_102">
    <path d="M 511.060052 374.513437 
L 515.071167 374.513437 
L 515.071167 374.513437 
L 511.060052 374.513437 
z
" clip-path="url(#pae3718d812)" style="fill: #a20025; fill-opacity: 0.5; stroke: #ffffff; stroke-opacity: 0.4; stroke-width: 0.346409; stroke-linejoin: miter"/>
   </g>
   <g id="patch_103">
    <path d="M 515.071167 374.513437 
L 519.082281 374.513437 
L 519.082281 374.513437 
L 515.071167 374.513437 
z
" clip-path="url(#pae3718d812)" style="fill: #a20025; fill-opacity: 0.5; stroke: #ffffff; stroke-opacity: 0.4; stroke-width: 0.346409; stroke-linejoin: miter"/>
   </g>
   <g id="patch_104">
    <path d="M 519.082281 374.513437 
L 523.093396 374.513437 
L 523.093396 374.513437 
L 519.082281 374.513437 
z
" clip-path="url(#pae3718d812)" style="fill: #a20025; fill-opacity: 0.5; stroke: #ffffff; stroke-opacity: 0.4; stroke-width: 0.346409; stroke-linejoin: miter"/>
   </g>
   <g id="patch_105">
    <path d="M 523.093396 374.513437 
L 527.104511 374.513437 
L 527.104511 362.483597 
L 523.093396 362.483597 
z
" clip-path="url(#pae3718d812)" style="fill: #a20025; fill-opacity: 0.5; stroke: #ffffff; stroke-opacity: 0.4; stroke-width: 0.346409; stroke-linejoin: miter"/>
   </g>
   <g id="patch_106">
    <path d="M 527.104511 374.513437 
L 531.115626 374.513437 
L 531.115626 374.513437 
L 527.104511 374.513437 
z
" clip-path="url(#pae3718d812)" style="fill: #a20025; fill-opacity: 0.5; stroke: #ffffff; stroke-opacity: 0.4; stroke-width: 0.346409; stroke-linejoin: miter"/>
   </g>
   <g id="patch_107">
    <path d="M 531.115626 374.513437 
L 535.126741 374.513437 
L 535.126741 374.513437 
L 531.115626 374.513437 
z
" clip-path="url(#pae3718d812)" style="fill: #a20025; fill-opacity: 0.5; stroke: #ffffff; stroke-opacity: 0.4; stroke-width: 0.346409; stroke-linejoin: miter"/>
   </g>
   <g id="patch_108">
    <path d="M 535.126741 374.513437 
L 539.137856 374.513437 
L 539.137856 370.852182 
L 535.126741 370.852182 
z
" clip-path="url(#pae3718d812)" style="fill: #a20025; fill-opacity: 0.5; stroke: #ffffff; stroke-opacity: 0.4; stroke-width: 0.346409; stroke-linejoin: miter"/>
   </g>
   <g id="patch_109">
    <path d="M 539.137856 374.513437 
L 543.148971 374.513437 
L 543.148971 374.513437 
L 539.137856 374.513437 
z
" clip-path="url(#pae3718d812)" style="fill: #a20025; fill-opacity: 0.5; stroke: #ffffff; stroke-opacity: 0.4; stroke-width: 0.346409; stroke-linejoin: miter"/>
   </g>
   <g id="patch_110">
    <path d="M 543.148971 374.513437 
L 547.160086 374.513437 
L 547.160086 374.513437 
L 543.148971 374.513437 
z
" clip-path="url(#pae3718d812)" style="fill: #a20025; fill-opacity: 0.5; stroke: #ffffff; stroke-opacity: 0.4; stroke-width: 0.346409; stroke-linejoin: miter"/>
   </g>
   <g id="patch_111">
    <path d="M 547.160086 374.513437 
L 551.171201 374.513437 
L 551.171201 369.283072 
L 547.160086 369.283072 
z
" clip-path="url(#pae3718d812)" style="fill: #a20025; fill-opacity: 0.5; stroke: #ffffff; stroke-opacity: 0.4; stroke-width: 0.346409; stroke-linejoin: miter"/>
   </g>
   <g id="patch_112">
    <path d="M 551.171201 374.513437 
L 555.182316 374.513437 
L 555.182316 374.513437 
L 551.171201 374.513437 
z
" clip-path="url(#pae3718d812)" style="fill: #a20025; fill-opacity: 0.5; stroke: #ffffff; stroke-opacity: 0.4; stroke-width: 0.346409; stroke-linejoin: miter"/>
   </g>
   <g id="patch_113">
    <path d="M 555.182316 374.513437 
L 559.19343 374.513437 
L 559.19343 374.513437 
L 555.182316 374.513437 
z
" clip-path="url(#pae3718d812)" style="fill: #a20025; fill-opacity: 0.5; stroke: #ffffff; stroke-opacity: 0.4; stroke-width: 0.346409; stroke-linejoin: miter"/>
   </g>
   <g id="patch_114">
    <path d="M 559.19343 374.513437 
L 563.204545 374.513437 
L 563.204545 371.375218 
L 559.19343 371.375218 
z
" clip-path="url(#pae3718d812)" style="fill: #a20025; fill-opacity: 0.5; stroke: #ffffff; stroke-opacity: 0.4; stroke-width: 0.346409; stroke-linejoin: miter"/>
   </g>
   <g id="patch_115">
    <path d="M 563.204545 374.513437 
L 567.21566 374.513437 
L 567.21566 374.513437 
L 563.204545 374.513437 
z
" clip-path="url(#pae3718d812)" style="fill: #a20025; fill-opacity: 0.5; stroke: #ffffff; stroke-opacity: 0.4; stroke-width: 0.346409; stroke-linejoin: miter"/>
   </g>
   <g id="patch_116">
    <path d="M 567.21566 374.513437 
L 571.226775 374.513437 
L 571.226775 374.513437 
L 567.21566 374.513437 
z
" clip-path="url(#pae3718d812)" style="fill: #a20025; fill-opacity: 0.5; stroke: #ffffff; stroke-opacity: 0.4; stroke-width: 0.346409; stroke-linejoin: miter"/>
   </g>
   <g id="patch_117">
    <path d="M 571.226775 374.513437 
L 575.23789 374.513437 
L 575.23789 372.421291 
L 571.226775 372.421291 
z
" clip-path="url(#pae3718d812)" style="fill: #a20025; fill-opacity: 0.5; stroke: #ffffff; stroke-opacity: 0.4; stroke-width: 0.346409; stroke-linejoin: miter"/>
   </g>
   <g id="patch_118">
    <path d="M 575.23789 374.513437 
L 579.249005 374.513437 
L 579.249005 374.513437 
L 575.23789 374.513437 
z
" clip-path="url(#pae3718d812)" style="fill: #a20025; fill-opacity: 0.5; stroke: #ffffff; stroke-opacity: 0.4; stroke-width: 0.346409; stroke-linejoin: miter"/>
   </g>
   <g id="patch_119">
    <path d="M 579.249005 374.513437 
L 583.26012 374.513437 
L 583.26012 374.513437 
L 579.249005 374.513437 
z
" clip-path="url(#pae3718d812)" style="fill: #a20025; fill-opacity: 0.5; stroke: #ffffff; stroke-opacity: 0.4; stroke-width: 0.346409; stroke-linejoin: miter"/>
   </g>
   <g id="patch_120">
    <path d="M 583.26012 374.513437 
L 587.271235 374.513437 
L 587.271235 374.513437 
L 583.26012 374.513437 
z
" clip-path="url(#pae3718d812)" style="fill: #a20025; fill-opacity: 0.5; stroke: #ffffff; stroke-opacity: 0.4; stroke-width: 0.346409; stroke-linejoin: miter"/>
   </g>
   <g id="patch_121">
    <path d="M 587.271235 374.513437 
L 591.28235 374.513437 
L 591.28235 372.944328 
L 587.271235 372.944328 
z
" clip-path="url(#pae3718d812)" style="fill: #a20025; fill-opacity: 0.5; stroke: #ffffff; stroke-opacity: 0.4; stroke-width: 0.346409; stroke-linejoin: miter"/>
   </g>
   <g id="patch_122">
    <path d="M 591.28235 374.513437 
L 595.293465 374.513437 
L 595.293465 374.513437 
L 591.28235 374.513437 
z
" clip-path="url(#pae3718d812)" style="fill: #a20025; fill-opacity: 0.5; stroke: #ffffff; stroke-opacity: 0.4; stroke-width: 0.346409; stroke-linejoin: miter"/>
   </g>
   <g id="patch_123">
    <path d="M 595.293465 374.513437 
L 599.304579 374.513437 
L 599.304579 374.513437 
L 595.293465 374.513437 
z
" clip-path="url(#pae3718d812)" style="fill: #a20025; fill-opacity: 0.5; stroke: #ffffff; stroke-opacity: 0.4; stroke-width: 0.346409; stroke-linejoin: miter"/>
   </g>
   <g id="patch_124">
    <path d="M 599.304579 374.513437 
L 603.315694 374.513437 
L 603.315694 373.467364 
L 599.304579 373.467364 
z
" clip-path="url(#pae3718d812)" style="fill: #a20025; fill-opacity: 0.5; stroke: #ffffff; stroke-opacity: 0.4; stroke-width: 0.346409; stroke-linejoin: miter"/>
   </g>
   <g id="patch_125">
    <path d="M 603.315694 374.513437 
L 607.326809 374.513437 
L 607.326809 374.513437 
L 603.315694 374.513437 
z
" clip-path="url(#pae3718d812)" style="fill: #a20025; fill-opacity: 0.5; stroke: #ffffff; stroke-opacity: 0.4; stroke-width: 0.346409; stroke-linejoin: miter"/>
   </g>
   <g id="patch_126">
    <path d="M 607.326809 374.513437 
L 611.337924 374.513437 
L 611.337924 374.513437 
L 607.326809 374.513437 
z
" clip-path="url(#pae3718d812)" style="fill: #a20025; fill-opacity: 0.5; stroke: #ffffff; stroke-opacity: 0.4; stroke-width: 0.346409; stroke-linejoin: miter"/>
   </g>
   <g id="patch_127">
    <path d="M 611.337924 374.513437 
L 615.349039 374.513437 
L 615.349039 373.467364 
L 611.337924 373.467364 
z
" clip-path="url(#pae3718d812)" style="fill: #a20025; fill-opacity: 0.5; stroke: #ffffff; stroke-opacity: 0.4; stroke-width: 0.346409; stroke-linejoin: miter"/>
   </g>
   <g id="patch_128">
    <path d="M 615.349039 374.513437 
L 619.360154 374.513437 
L 619.360154 374.513437 
L 615.349039 374.513437 
z
" clip-path="url(#pae3718d812)" style="fill: #a20025; fill-opacity: 0.5; stroke: #ffffff; stroke-opacity: 0.4; stroke-width: 0.346409; stroke-linejoin: miter"/>
   </g>
   <g id="patch_129">
    <path d="M 619.360154 374.513437 
L 623.371269 374.513437 
L 623.371269 374.513437 
L 619.360154 374.513437 
z
" clip-path="url(#pae3718d812)" style="fill: #a20025; fill-opacity: 0.5; stroke: #ffffff; stroke-opacity: 0.4; stroke-width: 0.346409; stroke-linejoin: miter"/>
   </g>
   <g id="patch_130">
    <path d="M 623.371269 374.513437 
L 627.382384 374.513437 
L 627.382384 374.513437 
L 623.371269 374.513437 
z
" clip-path="url(#pae3718d812)" style="fill: #a20025; fill-opacity: 0.5; stroke: #ffffff; stroke-opacity: 0.4; stroke-width: 0.346409; stroke-linejoin: miter"/>
   </g>
   <g id="patch_131">
    <path d="M 627.382384 374.513437 
L 631.393499 374.513437 
L 631.393499 374.513437 
L 627.382384 374.513437 
z
" clip-path="url(#pae3718d812)" style="fill: #a20025; fill-opacity: 0.5; stroke: #ffffff; stroke-opacity: 0.4; stroke-width: 0.346409; stroke-linejoin: miter"/>
   </g>
   <g id="patch_132">
    <path d="M 631.393499 374.513437 
L 635.404613 374.513437 
L 635.404613 374.513437 
L 631.393499 374.513437 
z
" clip-path="url(#pae3718d812)" style="fill: #a20025; fill-opacity: 0.5; stroke: #ffffff; stroke-opacity: 0.4; stroke-width: 0.346409; stroke-linejoin: miter"/>
   </g>
   <g id="patch_133">
    <path d="M 635.404613 374.513437 
L 639.415728 374.513437 
L 639.415728 374.513437 
L 635.404613 374.513437 
z
" clip-path="url(#pae3718d812)" style="fill: #a20025; fill-opacity: 0.5; stroke: #ffffff; stroke-opacity: 0.4; stroke-width: 0.346409; stroke-linejoin: miter"/>
   </g>
   <g id="patch_134">
    <path d="M 639.415728 374.513437 
L 643.426843 374.513437 
L 643.426843 374.513437 
L 639.415728 374.513437 
z
" clip-path="url(#pae3718d812)" style="fill: #a20025; fill-opacity: 0.5; stroke: #ffffff; stroke-opacity: 0.4; stroke-width: 0.346409; stroke-linejoin: miter"/>
   </g>
   <g id="patch_135">
    <path d="M 643.426843 374.513437 
L 647.437958 374.513437 
L 647.437958 374.513437 
L 643.426843 374.513437 
z
" clip-path="url(#pae3718d812)" style="fill: #a20025; fill-opacity: 0.5; stroke: #ffffff; stroke-opacity: 0.4; stroke-width: 0.346409; stroke-linejoin: miter"/>
   </g>
   <g id="patch_136">
    <path d="M 647.437958 374.513437 
L 651.449073 374.513437 
L 651.449073 373.990401 
L 647.437958 373.990401 
z
" clip-path="url(#pae3718d812)" style="fill: #a20025; fill-opacity: 0.5; stroke: #ffffff; stroke-opacity: 0.4; stroke-width: 0.346409; stroke-linejoin: miter"/>
   </g>
   <g id="matplotlib.axis_1">
    <g id="xtick_1">
     <g id="line2d_1">
      <defs>
       <path id="mbf1c0b63a0" d="M 0 0 
L 0 3.5 
" style="stroke: #000000; stroke-width: 0.8"/>
      </defs>
      <g>
       <use xlink:href="#mbf1c0b63a0" x="126.520292" y="374.513437" style="stroke: #000000; stroke-width: 0.8"/>
      </g>
     </g>
     <g id="text_1">
      <!-- −15 -->
      <g transform="translate(109.636542 393.669687) scale(0.16 -0.16)">
       <defs>
        <path id="DejaVuSans-c9c" d="M 678 2272 
L 4684 2272 
L 4684 1741 
L 678 1741 
L 678 2272 
z
" transform="scale(0.015625)"/>
        <path id="DejaVuSans-14" d="M 794 531 
L 1825 531 
L 1825 4091 
L 703 3866 
L 703 4441 
L 1819 4666 
L 2450 4666 
L 2450 531 
L 3481 531 
L 3481 0 
L 794 0 
L 794 531 
z
" transform="scale(0.015625)"/>
        <path id="DejaVuSans-18" d="M 691 4666 
L 3169 4666 
L 3169 4134 
L 1269 4134 
L 1269 2991 
Q 1406 3038 1543 3061 
Q 1681 3084 1819 3084 
Q 2600 3084 3056 2656 
Q 3513 2228 3513 1497 
Q 3513 744 3044 326 
Q 2575 -91 1722 -91 
Q 1428 -91 1123 -41 
Q 819 9 494 109 
L 494 744 
Q 775 591 1075 516 
Q 1375 441 1709 441 
Q 2250 441 2565 725 
Q 2881 1009 2881 1497 
Q 2881 1984 2565 2268 
Q 2250 2553 1709 2553 
Q 1456 2553 1204 2497 
Q 953 2441 691 2322 
L 691 4666 
z
" transform="scale(0.015625)"/>
       </defs>
       <use xlink:href="#DejaVuSans-c9c"/>
       <use xlink:href="#DejaVuSans-14" transform="translate(83.796875 0)"/>
       <use xlink:href="#DejaVuSans-18" transform="translate(147.421875 0)"/>
      </g>
     </g>
    </g>
    <g id="xtick_2">
     <g id="line2d_2">
      <g>
       <use xlink:href="#mbf1c0b63a0" x="233.243931" y="374.513437" style="stroke: #000000; stroke-width: 0.8"/>
      </g>
     </g>
     <g id="text_2">
      <!-- −10 -->
      <g transform="translate(216.360181 393.669687) scale(0.16 -0.16)">
       <defs>
        <path id="DejaVuSans-13" d="M 2034 4250 
Q 1547 4250 1301 3770 
Q 1056 3291 1056 2328 
Q 1056 1369 1301 889 
Q 1547 409 2034 409 
Q 2525 409 2770 889 
Q 3016 1369 3016 2328 
Q 3016 3291 2770 3770 
Q 2525 4250 2034 4250 
z
M 2034 4750 
Q 2819 4750 3233 4129 
Q 3647 3509 3647 2328 
Q 3647 1150 3233 529 
Q 2819 -91 2034 -91 
Q 1250 -91 836 529 
Q 422 1150 422 2328 
Q 422 3509 836 4129 
Q 1250 4750 2034 4750 
z
" transform="scale(0.015625)"/>
       </defs>
       <use xlink:href="#DejaVuSans-c9c"/>
       <use xlink:href="#DejaVuSans-14" transform="translate(83.796875 0)"/>
       <use xlink:href="#DejaVuSans-13" transform="translate(147.421875 0)"/>
      </g>
     </g>
    </g>
    <g id="xtick_3">
     <g id="line2d_3">
      <g>
       <use xlink:href="#mbf1c0b63a0" x="339.967569" y="374.513437" style="stroke: #000000; stroke-width: 0.8"/>
      </g>
     </g>
     <g id="text_3">
      <!-- −5 -->
      <g transform="translate(328.173819 393.669687) scale(0.16 -0.16)">
       <use xlink:href="#DejaVuSans-c9c"/>
       <use xlink:href="#DejaVuSans-18" transform="translate(83.796875 0)"/>
      </g>
     </g>
    </g>
    <g id="xtick_4">
     <g id="line2d_4">
      <g>
       <use xlink:href="#mbf1c0b63a0" x="446.691208" y="374.513437" style="stroke: #000000; stroke-width: 0.8"/>
      </g>
     </g>
     <g id="text_4">
      <!-- 0 -->
      <g transform="translate(441.601208 393.669687) scale(0.16 -0.16)">
       <use xlink:href="#DejaVuSans-13"/>
      </g>
     </g>
    </g>
    <g id="xtick_5">
     <g id="line2d_5">
      <g>
       <use xlink:href="#mbf1c0b63a0" x="553.414846" y="374.513437" style="stroke: #000000; stroke-width: 0.8"/>
      </g>
     </g>
     <g id="text_5">
      <!-- 5 -->
      <g transform="translate(548.324846 393.669687) scale(0.16 -0.16)">
       <use xlink:href="#DejaVuSans-18"/>
      </g>
     </g>
    </g>
    <g id="xtick_6">
     <g id="line2d_6">
      <g>
       <use xlink:href="#mbf1c0b63a0" x="660.138485" y="374.513437" style="stroke: #000000; stroke-width: 0.8"/>
      </g>
     </g>
     <g id="text_6">
      <!-- 10 -->
      <g transform="translate(649.958485 393.669687) scale(0.16 -0.16)">
       <use xlink:href="#DejaVuSans-14"/>
       <use xlink:href="#DejaVuSans-13" transform="translate(63.625 0)"/>
      </g>
     </g>
    </g>
    <g id="text_7">
     <!-- Model Weights -->
     <g transform="translate(324.101875 413.670937) scale(0.16 -0.16)">
      <defs>
       <path id="DejaVuSans-30" d="M 628 4666 
L 1569 4666 
L 2759 1491 
L 3956 4666 
L 4897 4666 
L 4897 0 
L 4281 0 
L 4281 4097 
L 3078 897 
L 2444 897 
L 1241 4097 
L 1241 0 
L 628 0 
L 628 4666 
z
" transform="scale(0.015625)"/>
       <path id="DejaVuSans-52" d="M 1959 3097 
Q 1497 3097 1228 2736 
Q 959 2375 959 1747 
Q 959 1119 1226 758 
Q 1494 397 1959 397 
Q 2419 397 2687 759 
Q 2956 1122 2956 1747 
Q 2956 2369 2687 2733 
Q 2419 3097 1959 3097 
z
M 1959 3584 
Q 2709 3584 3137 3096 
Q 3566 2609 3566 1747 
Q 3566 888 3137 398 
Q 2709 -91 1959 -91 
Q 1206 -91 779 398 
Q 353 888 353 1747 
Q 353 2609 779 3096 
Q 1206 3584 1959 3584 
z
" transform="scale(0.015625)"/>
       <path id="DejaVuSans-47" d="M 2906 2969 
L 2906 4863 
L 3481 4863 
L 3481 0 
L 2906 0 
L 2906 525 
Q 2725 213 2448 61 
Q 2172 -91 1784 -91 
Q 1150 -91 751 415 
Q 353 922 353 1747 
Q 353 2572 751 3078 
Q 1150 3584 1784 3584 
Q 2172 3584 2448 3432 
Q 2725 3281 2906 2969 
z
M 947 1747 
Q 947 1113 1208 752 
Q 1469 391 1925 391 
Q 2381 391 2643 752 
Q 2906 1113 2906 1747 
Q 2906 2381 2643 2742 
Q 2381 3103 1925 3103 
Q 1469 3103 1208 2742 
Q 947 2381 947 1747 
z
" transform="scale(0.015625)"/>
       <path id="DejaVuSans-48" d="M 3597 1894 
L 3597 1613 
L 953 1613 
Q 991 1019 1311 708 
Q 1631 397 2203 397 
Q 2534 397 2845 478 
Q 3156 559 3463 722 
L 3463 178 
Q 3153 47 2828 -22 
Q 2503 -91 2169 -91 
Q 1331 -91 842 396 
Q 353 884 353 1716 
Q 353 2575 817 3079 
Q 1281 3584 2069 3584 
Q 2775 3584 3186 3129 
Q 3597 2675 3597 1894 
z
M 3022 2063 
Q 3016 2534 2758 2815 
Q 2500 3097 2075 3097 
Q 1594 3097 1305 2825 
Q 1016 2553 972 2059 
L 3022 2063 
z
" transform="scale(0.015625)"/>
       <path id="DejaVuSans-4f" d="M 603 4863 
L 1178 4863 
L 1178 0 
L 603 0 
L 603 4863 
z
" transform="scale(0.015625)"/>
       <path id="DejaVuSans-3" transform="scale(0.015625)"/>
       <path id="DejaVuSans-3a" d="M 213 4666 
L 850 4666 
L 1831 722 
L 2809 4666 
L 3519 4666 
L 4500 722 
L 5478 4666 
L 6119 4666 
L 4947 0 
L 4153 0 
L 3169 4050 
L 2175 0 
L 1381 0 
L 213 4666 
z
" transform="scale(0.015625)"/>
       <path id="DejaVuSans-4c" d="M 603 3500 
L 1178 3500 
L 1178 0 
L 603 0 
L 603 3500 
z
M 603 4863 
L 1178 4863 
L 1178 4134 
L 603 4134 
L 603 4863 
z
" transform="scale(0.015625)"/>
       <path id="DejaVuSans-4a" d="M 2906 1791 
Q 2906 2416 2648 2759 
Q 2391 3103 1925 3103 
Q 1463 3103 1205 2759 
Q 947 2416 947 1791 
Q 947 1169 1205 825 
Q 1463 481 1925 481 
Q 2391 481 2648 825 
Q 2906 1169 2906 1791 
z
M 3481 434 
Q 3481 -459 3084 -895 
Q 2688 -1331 1869 -1331 
Q 1566 -1331 1297 -1286 
Q 1028 -1241 775 -1147 
L 775 -588 
Q 1028 -725 1275 -790 
Q 1522 -856 1778 -856 
Q 2344 -856 2625 -561 
Q 2906 -266 2906 331 
L 2906 616 
Q 2728 306 2450 153 
Q 2172 0 1784 0 
Q 1141 0 747 490 
Q 353 981 353 1791 
Q 353 2603 747 3093 
Q 1141 3584 1784 3584 
Q 2172 3584 2450 3431 
Q 2728 3278 2906 2969 
L 2906 3500 
L 3481 3500 
L 3481 434 
z
" transform="scale(0.015625)"/>
       <path id="DejaVuSans-4b" d="M 3513 2113 
L 3513 0 
L 2938 0 
L 2938 2094 
Q 2938 2591 2744 2837 
Q 2550 3084 2163 3084 
Q 1697 3084 1428 2787 
Q 1159 2491 1159 1978 
L 1159 0 
L 581 0 
L 581 4863 
L 1159 4863 
L 1159 2956 
Q 1366 3272 1645 3428 
Q 1925 3584 2291 3584 
Q 2894 3584 3203 3211 
Q 3513 2838 3513 2113 
z
" transform="scale(0.015625)"/>
       <path id="DejaVuSans-57" d="M 1172 4494 
L 1172 3500 
L 2356 3500 
L 2356 3053 
L 1172 3053 
L 1172 1153 
Q 1172 725 1289 603 
Q 1406 481 1766 481 
L 2356 481 
L 2356 0 
L 1766 0 
Q 1100 0 847 248 
Q 594 497 594 1153 
L 594 3053 
L 172 3053 
L 172 3500 
L 594 3500 
L 594 4494 
L 1172 4494 
z
" transform="scale(0.015625)"/>
       <path id="DejaVuSans-56" d="M 2834 3397 
L 2834 2853 
Q 2591 2978 2328 3040 
Q 2066 3103 1784 3103 
Q 1356 3103 1142 2972 
Q 928 2841 928 2578 
Q 928 2378 1081 2264 
Q 1234 2150 1697 2047 
L 1894 2003 
Q 2506 1872 2764 1633 
Q 3022 1394 3022 966 
Q 3022 478 2636 193 
Q 2250 -91 1575 -91 
Q 1294 -91 989 -36 
Q 684 19 347 128 
L 347 722 
Q 666 556 975 473 
Q 1284 391 1588 391 
Q 1994 391 2212 530 
Q 2431 669 2431 922 
Q 2431 1156 2273 1281 
Q 2116 1406 1581 1522 
L 1381 1569 
Q 847 1681 609 1914 
Q 372 2147 372 2553 
Q 372 3047 722 3315 
Q 1072 3584 1716 3584 
Q 2034 3584 2315 3537 
Q 2597 3491 2834 3397 
z
" transform="scale(0.015625)"/>
      </defs>
      <use xlink:href="#DejaVuSans-30"/>
      <use xlink:href="#DejaVuSans-52" transform="translate(86.28125 0)"/>
      <use xlink:href="#DejaVuSans-47" transform="translate(147.46875 0)"/>
      <use xlink:href="#DejaVuSans-48" transform="translate(210.953125 0)"/>
      <use xlink:href="#DejaVuSans-4f" transform="translate(272.484375 0)"/>
      <use xlink:href="#DejaVuSans-3" transform="translate(300.265625 0)"/>
      <use xlink:href="#DejaVuSans-3a" transform="translate(332.046875 0)"/>
      <use xlink:href="#DejaVuSans-48" transform="translate(425.0625 0)"/>
      <use xlink:href="#DejaVuSans-4c" transform="translate(486.59375 0)"/>
      <use xlink:href="#DejaVuSans-4a" transform="translate(514.375 0)"/>
      <use xlink:href="#DejaVuSans-4b" transform="translate(577.859375 0)"/>
      <use xlink:href="#DejaVuSans-57" transform="translate(641.234375 0)"/>
      <use xlink:href="#DejaVuSans-56" transform="translate(680.4375 0)"/>
     </g>
    </g>
   </g>
   <g id="matplotlib.axis_2">
    <g id="ytick_1">
     <g id="line2d_7">
      <defs>
       <path id="m0ad731ca3e" d="M 0 0 
L -3.5 0 
" style="stroke: #000000; stroke-width: 0.8"/>
      </defs>
      <g>
       <use xlink:href="#m0ad731ca3e" x="59.64625" y="374.513437" style="stroke: #000000; stroke-width: 0.8"/>
      </g>
     </g>
     <g id="text_8">
      <!-- 0.0 -->
      <g transform="translate(27.20125 380.591562) scale(0.16 -0.16)">
       <defs>
        <path id="DejaVuSans-11" d="M 684 794 
L 1344 794 
L 1344 0 
L 684 0 
L 684 794 
z
" transform="scale(0.015625)"/>
       </defs>
       <use xlink:href="#DejaVuSans-13"/>
       <use xlink:href="#DejaVuSans-11" transform="translate(63.625 0)"/>
       <use xlink:href="#DejaVuSans-13" transform="translate(95.40625 0)"/>
      </g>
     </g>
    </g>
    <g id="ytick_2">
     <g id="line2d_8">
      <g>
       <use xlink:href="#m0ad731ca3e" x="59.64625" y="334.254113" style="stroke: #000000; stroke-width: 0.8"/>
      </g>
     </g>
     <g id="text_9">
      <!-- 0.2 -->
      <g transform="translate(27.20125 340.332238) scale(0.16 -0.16)">
       <defs>
        <path id="DejaVuSans-15" d="M 1228 531 
L 3431 531 
L 3431 0 
L 469 0 
L 469 531 
Q 828 903 1448 1529 
Q 2069 2156 2228 2338 
Q 2531 2678 2651 2914 
Q 2772 3150 2772 3378 
Q 2772 3750 2511 3984 
Q 2250 4219 1831 4219 
Q 1534 4219 1204 4116 
Q 875 4013 500 3803 
L 500 4441 
Q 881 4594 1212 4672 
Q 1544 4750 1819 4750 
Q 2544 4750 2975 4387 
Q 3406 4025 3406 3419 
Q 3406 3131 3298 2873 
Q 3191 2616 2906 2266 
Q 2828 2175 2409 1742 
Q 1991 1309 1228 531 
z
" transform="scale(0.015625)"/>
       </defs>
       <use xlink:href="#DejaVuSans-13"/>
       <use xlink:href="#DejaVuSans-11" transform="translate(63.625 0)"/>
       <use xlink:href="#DejaVuSans-15" transform="translate(95.40625 0)"/>
      </g>
     </g>
    </g>
    <g id="ytick_3">
     <g id="line2d_9">
      <g>
       <use xlink:href="#m0ad731ca3e" x="59.64625" y="293.994789" style="stroke: #000000; stroke-width: 0.8"/>
      </g>
     </g>
     <g id="text_10">
      <!-- 0.4 -->
      <g transform="translate(27.20125 300.072914) scale(0.16 -0.16)">
       <defs>
        <path id="DejaVuSans-17" d="M 2419 4116 
L 825 1625 
L 2419 1625 
L 2419 4116 
z
M 2253 4666 
L 3047 4666 
L 3047 1625 
L 3713 1625 
L 3713 1100 
L 3047 1100 
L 3047 0 
L 2419 0 
L 2419 1100 
L 313 1100 
L 313 1709 
L 2253 4666 
z
" transform="scale(0.015625)"/>
       </defs>
       <use xlink:href="#DejaVuSans-13"/>
       <use xlink:href="#DejaVuSans-11" transform="translate(63.625 0)"/>
       <use xlink:href="#DejaVuSans-17" transform="translate(95.40625 0)"/>
      </g>
     </g>
    </g>
    <g id="ytick_4">
     <g id="line2d_10">
      <g>
       <use xlink:href="#m0ad731ca3e" x="59.64625" y="253.735465" style="stroke: #000000; stroke-width: 0.8"/>
      </g>
     </g>
     <g id="text_11">
      <!-- 0.6 -->
      <g transform="translate(27.20125 259.81359) scale(0.16 -0.16)">
       <defs>
        <path id="DejaVuSans-19" d="M 2113 2584 
Q 1688 2584 1439 2293 
Q 1191 2003 1191 1497 
Q 1191 994 1439 701 
Q 1688 409 2113 409 
Q 2538 409 2786 701 
Q 3034 994 3034 1497 
Q 3034 2003 2786 2293 
Q 2538 2584 2113 2584 
z
M 3366 4563 
L 3366 3988 
Q 3128 4100 2886 4159 
Q 2644 4219 2406 4219 
Q 1781 4219 1451 3797 
Q 1122 3375 1075 2522 
Q 1259 2794 1537 2939 
Q 1816 3084 2150 3084 
Q 2853 3084 3261 2657 
Q 3669 2231 3669 1497 
Q 3669 778 3244 343 
Q 2819 -91 2113 -91 
Q 1303 -91 875 529 
Q 447 1150 447 2328 
Q 447 3434 972 4092 
Q 1497 4750 2381 4750 
Q 2619 4750 2861 4703 
Q 3103 4656 3366 4563 
z
" transform="scale(0.015625)"/>
       </defs>
       <use xlink:href="#DejaVuSans-13"/>
       <use xlink:href="#DejaVuSans-11" transform="translate(63.625 0)"/>
       <use xlink:href="#DejaVuSans-19" transform="translate(95.40625 0)"/>
      </g>
     </g>
    </g>
    <g id="ytick_5">
     <g id="line2d_11">
      <g>
       <use xlink:href="#m0ad731ca3e" x="59.64625" y="213.476141" style="stroke: #000000; stroke-width: 0.8"/>
      </g>
     </g>
     <g id="text_12">
      <!-- 0.8 -->
      <g transform="translate(27.20125 219.554266) scale(0.16 -0.16)">
       <defs>
        <path id="DejaVuSans-1b" d="M 2034 2216 
Q 1584 2216 1326 1975 
Q 1069 1734 1069 1313 
Q 1069 891 1326 650 
Q 1584 409 2034 409 
Q 2484 409 2743 651 
Q 3003 894 3003 1313 
Q 3003 1734 2745 1975 
Q 2488 2216 2034 2216 
z
M 1403 2484 
Q 997 2584 770 2862 
Q 544 3141 544 3541 
Q 544 4100 942 4425 
Q 1341 4750 2034 4750 
Q 2731 4750 3128 4425 
Q 3525 4100 3525 3541 
Q 3525 3141 3298 2862 
Q 3072 2584 2669 2484 
Q 3125 2378 3379 2068 
Q 3634 1759 3634 1313 
Q 3634 634 3220 271 
Q 2806 -91 2034 -91 
Q 1263 -91 848 271 
Q 434 634 434 1313 
Q 434 1759 690 2068 
Q 947 2378 1403 2484 
z
M 1172 3481 
Q 1172 3119 1398 2916 
Q 1625 2713 2034 2713 
Q 2441 2713 2670 2916 
Q 2900 3119 2900 3481 
Q 2900 3844 2670 4047 
Q 2441 4250 2034 4250 
Q 1625 4250 1398 4047 
Q 1172 3844 1172 3481 
z
" transform="scale(0.015625)"/>
       </defs>
       <use xlink:href="#DejaVuSans-13"/>
       <use xlink:href="#DejaVuSans-11" transform="translate(63.625 0)"/>
       <use xlink:href="#DejaVuSans-1b" transform="translate(95.40625 0)"/>
      </g>
     </g>
    </g>
    <g id="ytick_6">
     <g id="line2d_12">
      <g>
       <use xlink:href="#m0ad731ca3e" x="59.64625" y="173.216817" style="stroke: #000000; stroke-width: 0.8"/>
      </g>
     </g>
     <g id="text_13">
      <!-- 1.0 -->
      <g transform="translate(27.20125 179.294942) scale(0.16 -0.16)">
       <use xlink:href="#DejaVuSans-14"/>
       <use xlink:href="#DejaVuSans-11" transform="translate(63.625 0)"/>
       <use xlink:href="#DejaVuSans-13" transform="translate(95.40625 0)"/>
      </g>
     </g>
    </g>
    <g id="ytick_7">
     <g id="line2d_13">
      <g>
       <use xlink:href="#m0ad731ca3e" x="59.64625" y="132.957493" style="stroke: #000000; stroke-width: 0.8"/>
      </g>
     </g>
     <g id="text_14">
      <!-- 1.2 -->
      <g transform="translate(27.20125 139.035618) scale(0.16 -0.16)">
       <use xlink:href="#DejaVuSans-14"/>
       <use xlink:href="#DejaVuSans-11" transform="translate(63.625 0)"/>
       <use xlink:href="#DejaVuSans-15" transform="translate(95.40625 0)"/>
      </g>
     </g>
    </g>
    <g id="ytick_8">
     <g id="line2d_14">
      <g>
       <use xlink:href="#m0ad731ca3e" x="59.64625" y="92.698169" style="stroke: #000000; stroke-width: 0.8"/>
      </g>
     </g>
     <g id="text_15">
      <!-- 1.4 -->
      <g transform="translate(27.20125 98.776294) scale(0.16 -0.16)">
       <use xlink:href="#DejaVuSans-14"/>
       <use xlink:href="#DejaVuSans-11" transform="translate(63.625 0)"/>
       <use xlink:href="#DejaVuSans-17" transform="translate(95.40625 0)"/>
      </g>
     </g>
    </g>
    <g id="ytick_9">
     <g id="line2d_15">
      <g>
       <use xlink:href="#m0ad731ca3e" x="59.64625" y="52.438845" style="stroke: #000000; stroke-width: 0.8"/>
      </g>
     </g>
     <g id="text_16">
      <!-- 1.6 -->
      <g transform="translate(27.20125 58.51697) scale(0.16 -0.16)">
       <use xlink:href="#DejaVuSans-14"/>
       <use xlink:href="#DejaVuSans-11" transform="translate(63.625 0)"/>
       <use xlink:href="#DejaVuSans-19" transform="translate(95.40625 0)"/>
      </g>
     </g>
    </g>
    <g id="text_17">
     <!-- Density -->
     <g transform="translate(19.3575 231.109062) rotate(-90) scale(0.16 -0.16)">
      <defs>
       <path id="DejaVuSans-27" d="M 1259 4147 
L 1259 519 
L 2022 519 
Q 2988 519 3436 956 
Q 3884 1394 3884 2338 
Q 3884 3275 3436 3711 
Q 2988 4147 2022 4147 
L 1259 4147 
z
M 628 4666 
L 1925 4666 
Q 3281 4666 3915 4102 
Q 4550 3538 4550 2338 
Q 4550 1131 3912 565 
Q 3275 0 1925 0 
L 628 0 
L 628 4666 
z
" transform="scale(0.015625)"/>
       <path id="DejaVuSans-51" d="M 3513 2113 
L 3513 0 
L 2938 0 
L 2938 2094 
Q 2938 2591 2744 2837 
Q 2550 3084 2163 3084 
Q 1697 3084 1428 2787 
Q 1159 2491 1159 1978 
L 1159 0 
L 581 0 
L 581 3500 
L 1159 3500 
L 1159 2956 
Q 1366 3272 1645 3428 
Q 1925 3584 2291 3584 
Q 2894 3584 3203 3211 
Q 3513 2838 3513 2113 
z
" transform="scale(0.015625)"/>
       <path id="DejaVuSans-5c" d="M 2059 -325 
Q 1816 -950 1584 -1140 
Q 1353 -1331 966 -1331 
L 506 -1331 
L 506 -850 
L 844 -850 
Q 1081 -850 1212 -737 
Q 1344 -625 1503 -206 
L 1606 56 
L 191 3500 
L 800 3500 
L 1894 763 
L 2988 3500 
L 3597 3500 
L 2059 -325 
z
" transform="scale(0.015625)"/>
      </defs>
      <use xlink:href="#DejaVuSans-27"/>
      <use xlink:href="#DejaVuSans-48" transform="translate(77 0)"/>
      <use xlink:href="#DejaVuSans-51" transform="translate(138.53125 0)"/>
      <use xlink:href="#DejaVuSans-56" transform="translate(201.90625 0)"/>
      <use xlink:href="#DejaVuSans-4c" transform="translate(254 0)"/>
      <use xlink:href="#DejaVuSans-57" transform="translate(281.78125 0)"/>
      <use xlink:href="#DejaVuSans-5c" transform="translate(320.984375 0)"/>
     </g>
    </g>
   </g>
   <g id="line2d_16">
    <path d="M 89.01517 374.512319 
L 272.017489 374.31377 
L 292.679041 373.838273 
L 307.437292 373.656872 
L 322.195544 373.6942 
L 331.050495 373.394388 
L 348.760397 372.459077 
L 354.663697 372.167343 
L 360.566998 371.506927 
L 372.373599 369.741489 
L 381.22855 368.692371 
L 384.1802 368.176177 
L 387.13185 367.51362 
L 390.083501 366.701686 
L 395.986801 364.701896 
L 401.890102 362.259149 
L 407.793403 359.447752 
L 410.745053 357.914858 
L 413.696703 356.211929 
L 416.648353 354.224466 
L 419.600004 351.819462 
L 422.551654 348.817112 
L 425.503304 344.959294 
L 428.454955 339.931654 
L 431.406605 333.441852 
L 434.358255 325.367773 
L 440.261556 306.545343 
L 443.213206 298.772466 
L 446.164856 294.712214 
L 449.116507 295.424931 
L 452.068157 300.399174 
L 455.019807 307.896618 
L 457.971458 315.957855 
L 460.923108 323.238417 
L 463.874758 329.215624 
L 466.826408 333.959213 
L 469.778059 337.835143 
L 475.681359 344.551073 
L 478.63301 347.742803 
L 481.58466 350.7465 
L 484.53631 353.456745 
L 487.487961 355.83985 
L 490.439611 357.911235 
L 493.391261 359.698949 
L 496.342911 361.244618 
L 499.294562 362.606142 
L 505.197862 364.956549 
L 511.101163 366.953229 
L 517.004464 368.758736 
L 522.907764 370.353503 
L 528.811065 371.669365 
L 531.762715 372.1924 
L 534.714365 372.591409 
L 537.666016 372.853318 
L 543.569316 373.044539 
L 552.424267 373.145084 
L 581.94077 373.945514 
L 608.505623 374.204632 
L 646.877077 374.426849 
L 661.635328 374.465908 
L 676.39358 374.512319 
L 676.39358 374.512319 
" clip-path="url(#pae3718d812)" style="fill: none; stroke: #a20025; stroke-width: 1.5; stroke-linecap: square"/>
   </g>
   <g id="line2d_17">
    <path d="M 446.691208 374.513437 
L 446.691208 26.877187 
" clip-path="url(#pae3718d812)" style="fill: none; stroke-dasharray: 5.55,2.4; stroke-dashoffset: 0; stroke: #6c8ebf; stroke-width: 1.5"/>
   </g>
   <g id="patch_137">
    <path d="M 59.64625 374.513437 
L 59.64625 26.877187 
" style="fill: none; stroke: #000000; stroke-width: 0.8; stroke-linejoin: miter; stroke-linecap: square"/>
   </g>
   <g id="patch_138">
    <path d="M 705.7625 374.513437 
L 705.7625 26.877187 
" style="fill: none; stroke: #000000; stroke-width: 0.8; stroke-linejoin: miter; stroke-linecap: square"/>
   </g>
   <g id="patch_139">
    <path d="M 59.64625 374.513437 
L 705.7625 374.513437 
" style="fill: none; stroke: #000000; stroke-width: 0.8; stroke-linejoin: miter; stroke-linecap: square"/>
   </g>
   <g id="patch_140">
    <path d="M 59.64625 26.877187 
L 705.7625 26.877187 
" style="fill: none; stroke: #000000; stroke-width: 0.8; stroke-linejoin: miter; stroke-linecap: square"/>
   </g>
   <g id="text_18">
    <g id="patch_141">
     <path d="M 525.581688 107.272672 
L 673.456688 107.272672 
Q 676.456688 107.272672 676.456688 104.272672 
L 676.456688 44.259 
Q 676.456688 41.259 673.456688 41.259 
L 525.581688 41.259 
Q 522.581688 41.259 522.581688 44.259 
L 522.581688 104.272672 
Q 522.581688 107.272672 525.581688 107.272672 
z
" style="fill: #ffffff; opacity: 0.8; stroke: #808080; stroke-linejoin: miter"/>
    </g>
    <!-- Mean weight: 0.0533 -->
    <g transform="translate(567.778563 52.858414) scale(0.1 -0.1)">
     <defs>
      <path id="DejaVuSans-44" d="M 2194 1759 
Q 1497 1759 1228 1600 
Q 959 1441 959 1056 
Q 959 750 1161 570 
Q 1363 391 1709 391 
Q 2188 391 2477 730 
Q 2766 1069 2766 1631 
L 2766 1759 
L 2194 1759 
z
M 3341 1997 
L 3341 0 
L 2766 0 
L 2766 531 
Q 2569 213 2275 61 
Q 1981 -91 1556 -91 
Q 1019 -91 701 211 
Q 384 513 384 1019 
Q 384 1609 779 1909 
Q 1175 2209 1959 2209 
L 2766 2209 
L 2766 2266 
Q 2766 2663 2505 2880 
Q 2244 3097 1772 3097 
Q 1472 3097 1187 3025 
Q 903 2953 641 2809 
L 641 3341 
Q 956 3463 1253 3523 
Q 1550 3584 1831 3584 
Q 2591 3584 2966 3190 
Q 3341 2797 3341 1997 
z
" transform="scale(0.015625)"/>
      <path id="DejaVuSans-5a" d="M 269 3500 
L 844 3500 
L 1563 769 
L 2278 3500 
L 2956 3500 
L 3675 769 
L 4391 3500 
L 4966 3500 
L 4050 0 
L 3372 0 
L 2619 2869 
L 1863 0 
L 1184 0 
L 269 3500 
z
" transform="scale(0.015625)"/>
      <path id="DejaVuSans-1d" d="M 750 794 
L 1409 794 
L 1409 0 
L 750 0 
L 750 794 
z
M 750 3309 
L 1409 3309 
L 1409 2516 
L 750 2516 
L 750 3309 
z
" transform="scale(0.015625)"/>
      <path id="DejaVuSans-16" d="M 2597 2516 
Q 3050 2419 3304 2112 
Q 3559 1806 3559 1356 
Q 3559 666 3084 287 
Q 2609 -91 1734 -91 
Q 1441 -91 1130 -33 
Q 819 25 488 141 
L 488 750 
Q 750 597 1062 519 
Q 1375 441 1716 441 
Q 2309 441 2620 675 
Q 2931 909 2931 1356 
Q 2931 1769 2642 2001 
Q 2353 2234 1838 2234 
L 1294 2234 
L 1294 2753 
L 1863 2753 
Q 2328 2753 2575 2939 
Q 2822 3125 2822 3475 
Q 2822 3834 2567 4026 
Q 2313 4219 1838 4219 
Q 1578 4219 1281 4162 
Q 984 4106 628 3988 
L 628 4550 
Q 988 4650 1302 4700 
Q 1616 4750 1894 4750 
Q 2613 4750 3031 4423 
Q 3450 4097 3450 3541 
Q 3450 3153 3228 2886 
Q 3006 2619 2597 2516 
z
" transform="scale(0.015625)"/>
     </defs>
     <use xlink:href="#DejaVuSans-30"/>
     <use xlink:href="#DejaVuSans-48" transform="translate(86.28125 0)"/>
     <use xlink:href="#DejaVuSans-44" transform="translate(147.8125 0)"/>
     <use xlink:href="#DejaVuSans-51" transform="translate(209.09375 0)"/>
     <use xlink:href="#DejaVuSans-3" transform="translate(272.46875 0)"/>
     <use xlink:href="#DejaVuSans-5a" transform="translate(304.25 0)"/>
     <use xlink:href="#DejaVuSans-48" transform="translate(386.03125 0)"/>
     <use xlink:href="#DejaVuSans-4c" transform="translate(447.5625 0)"/>
     <use xlink:href="#DejaVuSans-4a" transform="translate(475.34375 0)"/>
     <use xlink:href="#DejaVuSans-4b" transform="translate(538.828125 0)"/>
     <use xlink:href="#DejaVuSans-57" transform="translate(602.203125 0)"/>
     <use xlink:href="#DejaVuSans-1d" transform="translate(641.40625 0)"/>
     <use xlink:href="#DejaVuSans-3" transform="translate(675.09375 0)"/>
     <use xlink:href="#DejaVuSans-13" transform="translate(706.875 0)"/>
     <use xlink:href="#DejaVuSans-11" transform="translate(770.5 0)"/>
     <use xlink:href="#DejaVuSans-13" transform="translate(802.28125 0)"/>
     <use xlink:href="#DejaVuSans-18" transform="translate(865.90625 0)"/>
     <use xlink:href="#DejaVuSans-16" transform="translate(929.53125 0)"/>
     <use xlink:href="#DejaVuSans-16" transform="translate(993.15625 0)"/>
    </g>
    <!-- Std. dev: 1.7895 -->
    <g transform="translate(591.072313 64.861148) scale(0.1 -0.1)">
     <defs>
      <path id="DejaVuSans-36" d="M 3425 4513 
L 3425 3897 
Q 3066 4069 2747 4153 
Q 2428 4238 2131 4238 
Q 1616 4238 1336 4038 
Q 1056 3838 1056 3469 
Q 1056 3159 1242 3001 
Q 1428 2844 1947 2747 
L 2328 2669 
Q 3034 2534 3370 2195 
Q 3706 1856 3706 1288 
Q 3706 609 3251 259 
Q 2797 -91 1919 -91 
Q 1588 -91 1214 -16 
Q 841 59 441 206 
L 441 856 
Q 825 641 1194 531 
Q 1563 422 1919 422 
Q 2459 422 2753 634 
Q 3047 847 3047 1241 
Q 3047 1584 2836 1778 
Q 2625 1972 2144 2069 
L 1759 2144 
Q 1053 2284 737 2584 
Q 422 2884 422 3419 
Q 422 4038 858 4394 
Q 1294 4750 2059 4750 
Q 2388 4750 2728 4690 
Q 3069 4631 3425 4513 
z
" transform="scale(0.015625)"/>
      <path id="DejaVuSans-59" d="M 191 3500 
L 800 3500 
L 1894 563 
L 2988 3500 
L 3597 3500 
L 2284 0 
L 1503 0 
L 191 3500 
z
" transform="scale(0.015625)"/>
      <path id="DejaVuSans-1a" d="M 525 4666 
L 3525 4666 
L 3525 4397 
L 1831 0 
L 1172 0 
L 2766 4134 
L 525 4134 
L 525 4666 
z
" transform="scale(0.015625)"/>
      <path id="DejaVuSans-1c" d="M 703 97 
L 703 672 
Q 941 559 1184 500 
Q 1428 441 1663 441 
Q 2288 441 2617 861 
Q 2947 1281 2994 2138 
Q 2813 1869 2534 1725 
Q 2256 1581 1919 1581 
Q 1219 1581 811 2004 
Q 403 2428 403 3163 
Q 403 3881 828 4315 
Q 1253 4750 1959 4750 
Q 2769 4750 3195 4129 
Q 3622 3509 3622 2328 
Q 3622 1225 3098 567 
Q 2575 -91 1691 -91 
Q 1453 -91 1209 -44 
Q 966 3 703 97 
z
M 1959 2075 
Q 2384 2075 2632 2365 
Q 2881 2656 2881 3163 
Q 2881 3666 2632 3958 
Q 2384 4250 1959 4250 
Q 1534 4250 1286 3958 
Q 1038 3666 1038 3163 
Q 1038 2656 1286 2365 
Q 1534 2075 1959 2075 
z
" transform="scale(0.015625)"/>
     </defs>
     <use xlink:href="#DejaVuSans-36"/>
     <use xlink:href="#DejaVuSans-57" transform="translate(63.484375 0)"/>
     <use xlink:href="#DejaVuSans-47" transform="translate(102.6875 0)"/>
     <use xlink:href="#DejaVuSans-11" transform="translate(166.171875 0)"/>
     <use xlink:href="#DejaVuSans-3" transform="translate(197.953125 0)"/>
     <use xlink:href="#DejaVuSans-47" transform="translate(229.734375 0)"/>
     <use xlink:href="#DejaVuSans-48" transform="translate(293.21875 0)"/>
     <use xlink:href="#DejaVuSans-59" transform="translate(354.75 0)"/>
     <use xlink:href="#DejaVuSans-1d" transform="translate(408.46875 0)"/>
     <use xlink:href="#DejaVuSans-3" transform="translate(442.15625 0)"/>
     <use xlink:href="#DejaVuSans-14" transform="translate(473.9375 0)"/>
     <use xlink:href="#DejaVuSans-11" transform="translate(537.5625 0)"/>
     <use xlink:href="#DejaVuSans-1a" transform="translate(569.34375 0)"/>
     <use xlink:href="#DejaVuSans-1b" transform="translate(632.96875 0)"/>
     <use xlink:href="#DejaVuSans-1c" transform="translate(696.59375 0)"/>
     <use xlink:href="#DejaVuSans-18" transform="translate(760.21875 0)"/>
    </g>
    <!-- Min weight: -15.5885 -->
    <g transform="translate(567.311375 76.863883) scale(0.1 -0.1)">
     <defs>
      <path id="DejaVuSans-10" d="M 313 2009 
L 1997 2009 
L 1997 1497 
L 313 1497 
L 313 2009 
z
" transform="scale(0.015625)"/>
     </defs>
     <use xlink:href="#DejaVuSans-30"/>
     <use xlink:href="#DejaVuSans-4c" transform="translate(86.28125 0)"/>
     <use xlink:href="#DejaVuSans-51" transform="translate(114.0625 0)"/>
     <use xlink:href="#DejaVuSans-3" transform="translate(177.4375 0)"/>
     <use xlink:href="#DejaVuSans-5a" transform="translate(209.21875 0)"/>
     <use xlink:href="#DejaVuSans-48" transform="translate(291 0)"/>
     <use xlink:href="#DejaVuSans-4c" transform="translate(352.53125 0)"/>
     <use xlink:href="#DejaVuSans-4a" transform="translate(380.3125 0)"/>
     <use xlink:href="#DejaVuSans-4b" transform="translate(443.796875 0)"/>
     <use xlink:href="#DejaVuSans-57" transform="translate(507.171875 0)"/>
     <use xlink:href="#DejaVuSans-1d" transform="translate(546.375 0)"/>
     <use xlink:href="#DejaVuSans-3" transform="translate(580.0625 0)"/>
     <use xlink:href="#DejaVuSans-10" transform="translate(611.84375 0)"/>
     <use xlink:href="#DejaVuSans-14" transform="translate(647.921875 0)"/>
     <use xlink:href="#DejaVuSans-18" transform="translate(711.546875 0)"/>
     <use xlink:href="#DejaVuSans-11" transform="translate(775.171875 0)"/>
     <use xlink:href="#DejaVuSans-18" transform="translate(806.953125 0)"/>
     <use xlink:href="#DejaVuSans-1b" transform="translate(870.578125 0)"/>
     <use xlink:href="#DejaVuSans-1b" transform="translate(934.203125 0)"/>
     <use xlink:href="#DejaVuSans-18" transform="translate(997.828125 0)"/>
    </g>
    <!-- Max weight: 9.5929 -->
    <g transform="translate(574.350437 88.866617) scale(0.1 -0.1)">
     <defs>
      <path id="DejaVuSans-5b" d="M 3513 3500 
L 2247 1797 
L 3578 0 
L 2900 0 
L 1881 1375 
L 863 0 
L 184 0 
L 1544 1831 
L 300 3500 
L 978 3500 
L 1906 2253 
L 2834 3500 
L 3513 3500 
z
" transform="scale(0.015625)"/>
     </defs>
     <use xlink:href="#DejaVuSans-30"/>
     <use xlink:href="#DejaVuSans-44" transform="translate(86.28125 0)"/>
     <use xlink:href="#DejaVuSans-5b" transform="translate(147.5625 0)"/>
     <use xlink:href="#DejaVuSans-3" transform="translate(206.75 0)"/>
     <use xlink:href="#DejaVuSans-5a" transform="translate(238.53125 0)"/>
     <use xlink:href="#DejaVuSans-48" transform="translate(320.3125 0)"/>
     <use xlink:href="#DejaVuSans-4c" transform="translate(381.84375 0)"/>
     <use xlink:href="#DejaVuSans-4a" transform="translate(409.625 0)"/>
     <use xlink:href="#DejaVuSans-4b" transform="translate(473.109375 0)"/>
     <use xlink:href="#DejaVuSans-57" transform="translate(536.484375 0)"/>
     <use xlink:href="#DejaVuSans-1d" transform="translate(575.6875 0)"/>
     <use xlink:href="#DejaVuSans-3" transform="translate(609.375 0)"/>
     <use xlink:href="#DejaVuSans-1c" transform="translate(641.15625 0)"/>
     <use xlink:href="#DejaVuSans-11" transform="translate(704.78125 0)"/>
     <use xlink:href="#DejaVuSans-18" transform="translate(736.5625 0)"/>
     <use xlink:href="#DejaVuSans-1c" transform="translate(800.1875 0)"/>
     <use xlink:href="#DejaVuSans-15" transform="translate(863.8125 0)"/>
     <use xlink:href="#DejaVuSans-1c" transform="translate(927.4375 0)"/>
    </g>
    <!-- Non-zero weights: 1544/2048 -->
    <g transform="translate(525.581688 100.869352) scale(0.1 -0.1)">
     <defs>
      <path id="DejaVuSans-31" d="M 628 4666 
L 1478 4666 
L 3547 763 
L 3547 4666 
L 4159 4666 
L 4159 0 
L 3309 0 
L 1241 3903 
L 1241 0 
L 628 0 
L 628 4666 
z
" transform="scale(0.015625)"/>
      <path id="DejaVuSans-5d" d="M 353 3500 
L 3084 3500 
L 3084 2975 
L 922 459 
L 3084 459 
L 3084 0 
L 275 0 
L 275 525 
L 2438 3041 
L 353 3041 
L 353 3500 
z
" transform="scale(0.015625)"/>
      <path id="DejaVuSans-55" d="M 2631 2963 
Q 2534 3019 2420 3045 
Q 2306 3072 2169 3072 
Q 1681 3072 1420 2755 
Q 1159 2438 1159 1844 
L 1159 0 
L 581 0 
L 581 3500 
L 1159 3500 
L 1159 2956 
Q 1341 3275 1631 3429 
Q 1922 3584 2338 3584 
Q 2397 3584 2469 3576 
Q 2541 3569 2628 3553 
L 2631 2963 
z
" transform="scale(0.015625)"/>
      <path id="DejaVuSans-12" d="M 1625 4666 
L 2156 4666 
L 531 -594 
L 0 -594 
L 1625 4666 
z
" transform="scale(0.015625)"/>
     </defs>
     <use xlink:href="#DejaVuSans-31"/>
     <use xlink:href="#DejaVuSans-52" transform="translate(74.8125 0)"/>
     <use xlink:href="#DejaVuSans-51" transform="translate(136 0)"/>
     <use xlink:href="#DejaVuSans-10" transform="translate(199.375 0)"/>
     <use xlink:href="#DejaVuSans-5d" transform="translate(235.453125 0)"/>
     <use xlink:href="#DejaVuSans-48" transform="translate(287.9375 0)"/>
     <use xlink:href="#DejaVuSans-55" transform="translate(349.46875 0)"/>
     <use xlink:href="#DejaVuSans-52" transform="translate(388.375 0)"/>
     <use xlink:href="#DejaVuSans-3" transform="translate(449.5625 0)"/>
     <use xlink:href="#DejaVuSans-5a" transform="translate(481.34375 0)"/>
     <use xlink:href="#DejaVuSans-48" transform="translate(563.125 0)"/>
     <use xlink:href="#DejaVuSans-4c" transform="translate(624.65625 0)"/>
     <use xlink:href="#DejaVuSans-4a" transform="translate(652.4375 0)"/>
     <use xlink:href="#DejaVuSans-4b" transform="translate(715.921875 0)"/>
     <use xlink:href="#DejaVuSans-57" transform="translate(779.296875 0)"/>
     <use xlink:href="#DejaVuSans-56" transform="translate(818.5 0)"/>
     <use xlink:href="#DejaVuSans-1d" transform="translate(870.59375 0)"/>
     <use xlink:href="#DejaVuSans-3" transform="translate(904.28125 0)"/>
     <use xlink:href="#DejaVuSans-14" transform="translate(936.0625 0)"/>
     <use xlink:href="#DejaVuSans-18" transform="translate(999.6875 0)"/>
     <use xlink:href="#DejaVuSans-17" transform="translate(1063.3125 0)"/>
     <use xlink:href="#DejaVuSans-17" transform="translate(1126.9375 0)"/>
     <use xlink:href="#DejaVuSans-12" transform="translate(1190.5625 0)"/>
     <use xlink:href="#DejaVuSans-15" transform="translate(1224.25 0)"/>
     <use xlink:href="#DejaVuSans-13" transform="translate(1287.875 0)"/>
     <use xlink:href="#DejaVuSans-17" transform="translate(1351.5 0)"/>
     <use xlink:href="#DejaVuSans-1b" transform="translate(1415.125 0)"/>
    </g>
   </g>
   <g id="text_19">
    <!-- Distribution of Linear Model Weights -->
    <g transform="translate(219.045 20.877187) scale(0.18 -0.18)">
     <defs>
      <path id="DejaVuSans-45" d="M 3116 1747 
Q 3116 2381 2855 2742 
Q 2594 3103 2138 3103 
Q 1681 3103 1420 2742 
Q 1159 2381 1159 1747 
Q 1159 1113 1420 752 
Q 1681 391 2138 391 
Q 2594 391 2855 752 
Q 3116 1113 3116 1747 
z
M 1159 2969 
Q 1341 3281 1617 3432 
Q 1894 3584 2278 3584 
Q 2916 3584 3314 3078 
Q 3713 2572 3713 1747 
Q 3713 922 3314 415 
Q 2916 -91 2278 -91 
Q 1894 -91 1617 61 
Q 1341 213 1159 525 
L 1159 0 
L 581 0 
L 581 4863 
L 1159 4863 
L 1159 2969 
z
" transform="scale(0.015625)"/>
      <path id="DejaVuSans-58" d="M 544 1381 
L 544 3500 
L 1119 3500 
L 1119 1403 
Q 1119 906 1312 657 
Q 1506 409 1894 409 
Q 2359 409 2629 706 
Q 2900 1003 2900 1516 
L 2900 3500 
L 3475 3500 
L 3475 0 
L 2900 0 
L 2900 538 
Q 2691 219 2414 64 
Q 2138 -91 1772 -91 
Q 1169 -91 856 284 
Q 544 659 544 1381 
z
M 1991 3584 
L 1991 3584 
z
" transform="scale(0.015625)"/>
      <path id="DejaVuSans-49" d="M 2375 4863 
L 2375 4384 
L 1825 4384 
Q 1516 4384 1395 4259 
Q 1275 4134 1275 3809 
L 1275 3500 
L 2222 3500 
L 2222 3053 
L 1275 3053 
L 1275 0 
L 697 0 
L 697 3053 
L 147 3053 
L 147 3500 
L 697 3500 
L 697 3744 
Q 697 4328 969 4595 
Q 1241 4863 1831 4863 
L 2375 4863 
z
" transform="scale(0.015625)"/>
      <path id="DejaVuSans-2f" d="M 628 4666 
L 1259 4666 
L 1259 531 
L 3531 531 
L 3531 0 
L 628 0 
L 628 4666 
z
" transform="scale(0.015625)"/>
     </defs>
     <use xlink:href="#DejaVuSans-27"/>
     <use xlink:href="#DejaVuSans-4c" transform="translate(77 0)"/>
     <use xlink:href="#DejaVuSans-56" transform="translate(104.78125 0)"/>
     <use xlink:href="#DejaVuSans-57" transform="translate(156.875 0)"/>
     <use xlink:href="#DejaVuSans-55" transform="translate(196.078125 0)"/>
     <use xlink:href="#DejaVuSans-4c" transform="translate(237.1875 0)"/>
     <use xlink:href="#DejaVuSans-45" transform="translate(264.96875 0)"/>
     <use xlink:href="#DejaVuSans-58" transform="translate(328.453125 0)"/>
     <use xlink:href="#DejaVuSans-57" transform="translate(391.828125 0)"/>
     <use xlink:href="#DejaVuSans-4c" transform="translate(431.03125 0)"/>
     <use xlink:href="#DejaVuSans-52" transform="translate(458.8125 0)"/>
     <use xlink:href="#DejaVuSans-51" transform="translate(520 0)"/>
     <use xlink:href="#DejaVuSans-3" transform="translate(583.375 0)"/>
     <use xlink:href="#DejaVuSans-52" transform="translate(615.15625 0)"/>
     <use xlink:href="#DejaVuSans-49" transform="translate(676.34375 0)"/>
     <use xlink:href="#DejaVuSans-3" transform="translate(711.546875 0)"/>
     <use xlink:href="#DejaVuSans-2f" transform="translate(743.328125 0)"/>
     <use xlink:href="#DejaVuSans-4c" transform="translate(799.046875 0)"/>
     <use xlink:href="#DejaVuSans-51" transform="translate(826.828125 0)"/>
     <use xlink:href="#DejaVuSans-48" transform="translate(890.203125 0)"/>
     <use xlink:href="#DejaVuSans-44" transform="translate(951.734375 0)"/>
     <use xlink:href="#DejaVuSans-55" transform="translate(1013.015625 0)"/>
     <use xlink:href="#DejaVuSans-3" transform="translate(1054.125 0)"/>
     <use xlink:href="#DejaVuSans-30" transform="translate(1085.90625 0)"/>
     <use xlink:href="#DejaVuSans-52" transform="translate(1172.1875 0)"/>
     <use xlink:href="#DejaVuSans-47" transform="translate(1233.375 0)"/>
     <use xlink:href="#DejaVuSans-48" transform="translate(1296.859375 0)"/>
     <use xlink:href="#DejaVuSans-4f" transform="translate(1358.390625 0)"/>
     <use xlink:href="#DejaVuSans-3" transform="translate(1386.171875 0)"/>
     <use xlink:href="#DejaVuSans-3a" transform="translate(1417.953125 0)"/>
     <use xlink:href="#DejaVuSans-48" transform="translate(1510.96875 0)"/>
     <use xlink:href="#DejaVuSans-4c" transform="translate(1572.5 0)"/>
     <use xlink:href="#DejaVuSans-4a" transform="translate(1600.28125 0)"/>
     <use xlink:href="#DejaVuSans-4b" transform="translate(1663.765625 0)"/>
     <use xlink:href="#DejaVuSans-57" transform="translate(1727.140625 0)"/>
     <use xlink:href="#DejaVuSans-56" transform="translate(1766.34375 0)"/>
    </g>
   </g>
  </g>
 </g>
 <defs>
  <clipPath id="pae3718d812">
   <rect x="59.64625" y="26.877187" width="646.11625" height="347.63625"/>
  </clipPath>
 </defs>
</svg>
