<?xml version="1.0" encoding="utf-8" standalone="no"?>
<!DOCTYPE svg PUBLIC "-//W3C//DTD SVG 1.1//EN"
  "http://www.w3.org/Graphics/SVG/1.1/DTD/svg11.dtd">
<svg xmlns:xlink="http://www.w3.org/1999/xlink" width="713.77pt" height="426.967188pt" viewBox="0 0 713.77 426.967188" xmlns="http://www.w3.org/2000/svg" version="1.1">
 <metadata>
  <rdf:RDF xmlns:dc="http://purl.org/dc/elements/1.1/" xmlns:cc="http://creativecommons.org/ns#" xmlns:rdf="http://www.w3.org/1999/02/22-rdf-syntax-ns#">
   <cc:Work>
    <dc:type rdf:resource="http://purl.org/dc/dcmitype/StillImage"/>
    <dc:date>2025-03-12T15:58:48.809738</dc:date>
    <dc:format>image/svg+xml</dc:format>
    <dc:creator>
     <cc:Agent>
      <dc:title>Matplotlib v3.10.0, https://matplotlib.org/</dc:title>
     </cc:Agent>
    </dc:creator>
   </cc:Work>
  </rdf:RDF>
 </metadata>
 <defs>
  <style type="text/css">*{stroke-linejoin: round; stroke-linecap: butt}</style>
 </defs>
 <g id="figure_1">
  <g id="patch_1">
   <path d="M 0 426.967188 
L 713.77 426.967188 
L 713.77 0 
L 0 0 
z
" style="fill: #ffffff"/>
  </g>
  <g id="axes_1">
   <g id="patch_2">
    <path d="M 59.13 377.797188 
L 706.57 377.797188 
L 706.57 26.877187 
L 59.13 26.877187 
z
" style="fill: #ffffff"/>
   </g>
   <g id="patch_3">
    <path d="M 115.170196 377.797188 
L 120.127229 377.797188 
L 120.127229 377.279835 
L 115.170196 377.279835 
z
" clip-path="url(#pa7d316dafa)" style="fill: #a20025; fill-opacity: 0.5; stroke: #ffffff; stroke-opacity: 0.4; stroke-width: 0.427225; stroke-linejoin: miter"/>
   </g>
   <g id="patch_4">
    <path d="M 120.127229 377.797188 
L 125.084263 377.797188 
L 125.084263 377.797188 
L 120.127229 377.797188 
z
" clip-path="url(#pa7d316dafa)" style="fill: #a20025; fill-opacity: 0.5; stroke: #ffffff; stroke-opacity: 0.4; stroke-width: 0.427225; stroke-linejoin: miter"/>
   </g>
   <g id="patch_5">
    <path d="M 125.084263 377.797188 
L 130.041296 377.797188 
L 130.041296 377.797188 
L 125.084263 377.797188 
z
" clip-path="url(#pa7d316dafa)" style="fill: #a20025; fill-opacity: 0.5; stroke: #ffffff; stroke-opacity: 0.4; stroke-width: 0.427225; stroke-linejoin: miter"/>
   </g>
   <g id="patch_6">
    <path d="M 130.041296 377.797188 
L 134.998329 377.797188 
L 134.998329 377.797188 
L 130.041296 377.797188 
z
" clip-path="url(#pa7d316dafa)" style="fill: #a20025; fill-opacity: 0.5; stroke: #ffffff; stroke-opacity: 0.4; stroke-width: 0.427225; stroke-linejoin: miter"/>
   </g>
   <g id="patch_7">
    <path d="M 134.998329 377.797188 
L 139.955363 377.797188 
L 139.955363 377.797188 
L 134.998329 377.797188 
z
" clip-path="url(#pa7d316dafa)" style="fill: #a20025; fill-opacity: 0.5; stroke: #ffffff; stroke-opacity: 0.4; stroke-width: 0.427225; stroke-linejoin: miter"/>
   </g>
   <g id="patch_8">
    <path d="M 139.955363 377.797188 
L 144.912396 377.797188 
L 144.912396 377.797188 
L 139.955363 377.797188 
z
" clip-path="url(#pa7d316dafa)" style="fill: #a20025; fill-opacity: 0.5; stroke: #ffffff; stroke-opacity: 0.4; stroke-width: 0.427225; stroke-linejoin: miter"/>
   </g>
   <g id="patch_9">
    <path d="M 144.912396 377.797188 
L 149.86943 377.797188 
L 149.86943 377.797188 
L 144.912396 377.797188 
z
" clip-path="url(#pa7d316dafa)" style="fill: #a20025; fill-opacity: 0.5; stroke: #ffffff; stroke-opacity: 0.4; stroke-width: 0.427225; stroke-linejoin: miter"/>
   </g>
   <g id="patch_10">
    <path d="M 149.86943 377.797188 
L 154.826463 377.797188 
L 154.826463 377.797188 
L 149.86943 377.797188 
z
" clip-path="url(#pa7d316dafa)" style="fill: #a20025; fill-opacity: 0.5; stroke: #ffffff; stroke-opacity: 0.4; stroke-width: 0.427225; stroke-linejoin: miter"/>
   </g>
   <g id="patch_11">
    <path d="M 154.826463 377.797188 
L 159.783496 377.797188 
L 159.783496 377.797188 
L 154.826463 377.797188 
z
" clip-path="url(#pa7d316dafa)" style="fill: #a20025; fill-opacity: 0.5; stroke: #ffffff; stroke-opacity: 0.4; stroke-width: 0.427225; stroke-linejoin: miter"/>
   </g>
   <g id="patch_12">
    <path d="M 159.783496 377.797188 
L 164.74053 377.797188 
L 164.74053 377.797188 
L 159.783496 377.797188 
z
" clip-path="url(#pa7d316dafa)" style="fill: #a20025; fill-opacity: 0.5; stroke: #ffffff; stroke-opacity: 0.4; stroke-width: 0.427225; stroke-linejoin: miter"/>
   </g>
   <g id="patch_13">
    <path d="M 164.74053 377.797188 
L 169.697563 377.797188 
L 169.697563 377.797188 
L 164.74053 377.797188 
z
" clip-path="url(#pa7d316dafa)" style="fill: #a20025; fill-opacity: 0.5; stroke: #ffffff; stroke-opacity: 0.4; stroke-width: 0.427225; stroke-linejoin: miter"/>
   </g>
   <g id="patch_14">
    <path d="M 169.697563 377.797188 
L 174.654597 377.797188 
L 174.654597 377.797188 
L 169.697563 377.797188 
z
" clip-path="url(#pa7d316dafa)" style="fill: #a20025; fill-opacity: 0.5; stroke: #ffffff; stroke-opacity: 0.4; stroke-width: 0.427225; stroke-linejoin: miter"/>
   </g>
   <g id="patch_15">
    <path d="M 174.654597 377.797188 
L 179.61163 377.797188 
L 179.61163 377.797188 
L 174.654597 377.797188 
z
" clip-path="url(#pa7d316dafa)" style="fill: #a20025; fill-opacity: 0.5; stroke: #ffffff; stroke-opacity: 0.4; stroke-width: 0.427225; stroke-linejoin: miter"/>
   </g>
   <g id="patch_16">
    <path d="M 179.61163 377.797188 
L 184.568663 377.797188 
L 184.568663 377.797188 
L 179.61163 377.797188 
z
" clip-path="url(#pa7d316dafa)" style="fill: #a20025; fill-opacity: 0.5; stroke: #ffffff; stroke-opacity: 0.4; stroke-width: 0.427225; stroke-linejoin: miter"/>
   </g>
   <g id="patch_17">
    <path d="M 184.568663 377.797188 
L 189.525697 377.797188 
L 189.525697 377.797188 
L 184.568663 377.797188 
z
" clip-path="url(#pa7d316dafa)" style="fill: #a20025; fill-opacity: 0.5; stroke: #ffffff; stroke-opacity: 0.4; stroke-width: 0.427225; stroke-linejoin: miter"/>
   </g>
   <g id="patch_18">
    <path d="M 189.525697 377.797188 
L 194.48273 377.797188 
L 194.48273 377.797188 
L 189.525697 377.797188 
z
" clip-path="url(#pa7d316dafa)" style="fill: #a20025; fill-opacity: 0.5; stroke: #ffffff; stroke-opacity: 0.4; stroke-width: 0.427225; stroke-linejoin: miter"/>
   </g>
   <g id="patch_19">
    <path d="M 194.48273 377.797188 
L 199.439764 377.797188 
L 199.439764 377.797188 
L 194.48273 377.797188 
z
" clip-path="url(#pa7d316dafa)" style="fill: #a20025; fill-opacity: 0.5; stroke: #ffffff; stroke-opacity: 0.4; stroke-width: 0.427225; stroke-linejoin: miter"/>
   </g>
   <g id="patch_20">
    <path d="M 199.439764 377.797188 
L 204.396797 377.797188 
L 204.396797 377.797188 
L 199.439764 377.797188 
z
" clip-path="url(#pa7d316dafa)" style="fill: #a20025; fill-opacity: 0.5; stroke: #ffffff; stroke-opacity: 0.4; stroke-width: 0.427225; stroke-linejoin: miter"/>
   </g>
   <g id="patch_21">
    <path d="M 204.396797 377.797188 
L 209.353831 377.797188 
L 209.353831 377.797188 
L 204.396797 377.797188 
z
" clip-path="url(#pa7d316dafa)" style="fill: #a20025; fill-opacity: 0.5; stroke: #ffffff; stroke-opacity: 0.4; stroke-width: 0.427225; stroke-linejoin: miter"/>
   </g>
   <g id="patch_22">
    <path d="M 209.353831 377.797188 
L 214.310864 377.797188 
L 214.310864 377.279835 
L 209.353831 377.279835 
z
" clip-path="url(#pa7d316dafa)" style="fill: #a20025; fill-opacity: 0.5; stroke: #ffffff; stroke-opacity: 0.4; stroke-width: 0.427225; stroke-linejoin: miter"/>
   </g>
   <g id="patch_23">
    <path d="M 214.310864 377.797188 
L 219.267897 377.797188 
L 219.267897 377.797188 
L 214.310864 377.797188 
z
" clip-path="url(#pa7d316dafa)" style="fill: #a20025; fill-opacity: 0.5; stroke: #ffffff; stroke-opacity: 0.4; stroke-width: 0.427225; stroke-linejoin: miter"/>
   </g>
   <g id="patch_24">
    <path d="M 219.267897 377.797188 
L 224.224931 377.797188 
L 224.224931 377.797188 
L 219.267897 377.797188 
z
" clip-path="url(#pa7d316dafa)" style="fill: #a20025; fill-opacity: 0.5; stroke: #ffffff; stroke-opacity: 0.4; stroke-width: 0.427225; stroke-linejoin: miter"/>
   </g>
   <g id="patch_25">
    <path d="M 224.224931 377.797188 
L 229.181964 377.797188 
L 229.181964 377.279835 
L 224.224931 377.279835 
z
" clip-path="url(#pa7d316dafa)" style="fill: #a20025; fill-opacity: 0.5; stroke: #ffffff; stroke-opacity: 0.4; stroke-width: 0.427225; stroke-linejoin: miter"/>
   </g>
   <g id="patch_26">
    <path d="M 229.181964 377.797188 
L 234.138998 377.797188 
L 234.138998 377.797188 
L 229.181964 377.797188 
z
" clip-path="url(#pa7d316dafa)" style="fill: #a20025; fill-opacity: 0.5; stroke: #ffffff; stroke-opacity: 0.4; stroke-width: 0.427225; stroke-linejoin: miter"/>
   </g>
   <g id="patch_27">
    <path d="M 234.138998 377.797188 
L 239.096031 377.797188 
L 239.096031 377.797188 
L 234.138998 377.797188 
z
" clip-path="url(#pa7d316dafa)" style="fill: #a20025; fill-opacity: 0.5; stroke: #ffffff; stroke-opacity: 0.4; stroke-width: 0.427225; stroke-linejoin: miter"/>
   </g>
   <g id="patch_28">
    <path d="M 239.096031 377.797188 
L 244.053064 377.797188 
L 244.053064 377.279835 
L 239.096031 377.279835 
z
" clip-path="url(#pa7d316dafa)" style="fill: #a20025; fill-opacity: 0.5; stroke: #ffffff; stroke-opacity: 0.4; stroke-width: 0.427225; stroke-linejoin: miter"/>
   </g>
   <g id="patch_29">
    <path d="M 244.053064 377.797188 
L 249.010098 377.797188 
L 249.010098 377.797188 
L 244.053064 377.797188 
z
" clip-path="url(#pa7d316dafa)" style="fill: #a20025; fill-opacity: 0.5; stroke: #ffffff; stroke-opacity: 0.4; stroke-width: 0.427225; stroke-linejoin: miter"/>
   </g>
   <g id="patch_30">
    <path d="M 249.010098 377.797188 
L 253.967131 377.797188 
L 253.967131 377.797188 
L 249.010098 377.797188 
z
" clip-path="url(#pa7d316dafa)" style="fill: #a20025; fill-opacity: 0.5; stroke: #ffffff; stroke-opacity: 0.4; stroke-width: 0.427225; stroke-linejoin: miter"/>
   </g>
   <g id="patch_31">
    <path d="M 253.967131 377.797188 
L 258.924165 377.797188 
L 258.924165 376.245131 
L 253.967131 376.245131 
z
" clip-path="url(#pa7d316dafa)" style="fill: #a20025; fill-opacity: 0.5; stroke: #ffffff; stroke-opacity: 0.4; stroke-width: 0.427225; stroke-linejoin: miter"/>
   </g>
   <g id="patch_32">
    <path d="M 258.924165 377.797188 
L 263.881198 377.797188 
L 263.881198 377.797188 
L 258.924165 377.797188 
z
" clip-path="url(#pa7d316dafa)" style="fill: #a20025; fill-opacity: 0.5; stroke: #ffffff; stroke-opacity: 0.4; stroke-width: 0.427225; stroke-linejoin: miter"/>
   </g>
   <g id="patch_33">
    <path d="M 263.881198 377.797188 
L 268.838231 377.797188 
L 268.838231 377.797188 
L 263.881198 377.797188 
z
" clip-path="url(#pa7d316dafa)" style="fill: #a20025; fill-opacity: 0.5; stroke: #ffffff; stroke-opacity: 0.4; stroke-width: 0.427225; stroke-linejoin: miter"/>
   </g>
   <g id="patch_34">
    <path d="M 268.838231 377.797188 
L 273.795265 377.797188 
L 273.795265 375.727779 
L 268.838231 375.727779 
z
" clip-path="url(#pa7d316dafa)" style="fill: #a20025; fill-opacity: 0.5; stroke: #ffffff; stroke-opacity: 0.4; stroke-width: 0.427225; stroke-linejoin: miter"/>
   </g>
   <g id="patch_35">
    <path d="M 273.795265 377.797188 
L 278.752298 377.797188 
L 278.752298 377.797188 
L 273.795265 377.797188 
z
" clip-path="url(#pa7d316dafa)" style="fill: #a20025; fill-opacity: 0.5; stroke: #ffffff; stroke-opacity: 0.4; stroke-width: 0.427225; stroke-linejoin: miter"/>
   </g>
   <g id="patch_36">
    <path d="M 278.752298 377.797188 
L 283.709332 377.797188 
L 283.709332 377.797188 
L 278.752298 377.797188 
z
" clip-path="url(#pa7d316dafa)" style="fill: #a20025; fill-opacity: 0.5; stroke: #ffffff; stroke-opacity: 0.4; stroke-width: 0.427225; stroke-linejoin: miter"/>
   </g>
   <g id="patch_37">
    <path d="M 283.709332 377.797188 
L 288.666365 377.797188 
L 288.666365 375.210426 
L 283.709332 375.210426 
z
" clip-path="url(#pa7d316dafa)" style="fill: #a20025; fill-opacity: 0.5; stroke: #ffffff; stroke-opacity: 0.4; stroke-width: 0.427225; stroke-linejoin: miter"/>
   </g>
   <g id="patch_38">
    <path d="M 288.666365 377.797188 
L 293.623399 377.797188 
L 293.623399 377.797188 
L 288.666365 377.797188 
z
" clip-path="url(#pa7d316dafa)" style="fill: #a20025; fill-opacity: 0.5; stroke: #ffffff; stroke-opacity: 0.4; stroke-width: 0.427225; stroke-linejoin: miter"/>
   </g>
   <g id="patch_39">
    <path d="M 293.623399 377.797188 
L 298.580432 377.797188 
L 298.580432 377.797188 
L 293.623399 377.797188 
z
" clip-path="url(#pa7d316dafa)" style="fill: #a20025; fill-opacity: 0.5; stroke: #ffffff; stroke-opacity: 0.4; stroke-width: 0.427225; stroke-linejoin: miter"/>
   </g>
   <g id="patch_40">
    <path d="M 298.580432 377.797188 
L 303.537465 377.797188 
L 303.537465 377.797188 
L 298.580432 377.797188 
z
" clip-path="url(#pa7d316dafa)" style="fill: #a20025; fill-opacity: 0.5; stroke: #ffffff; stroke-opacity: 0.4; stroke-width: 0.427225; stroke-linejoin: miter"/>
   </g>
   <g id="patch_41">
    <path d="M 303.537465 377.797188 
L 308.494499 377.797188 
L 308.494499 373.141018 
L 303.537465 373.141018 
z
" clip-path="url(#pa7d316dafa)" style="fill: #a20025; fill-opacity: 0.5; stroke: #ffffff; stroke-opacity: 0.4; stroke-width: 0.427225; stroke-linejoin: miter"/>
   </g>
   <g id="patch_42">
    <path d="M 308.494499 377.797188 
L 313.451532 377.797188 
L 313.451532 377.797188 
L 308.494499 377.797188 
z
" clip-path="url(#pa7d316dafa)" style="fill: #a20025; fill-opacity: 0.5; stroke: #ffffff; stroke-opacity: 0.4; stroke-width: 0.427225; stroke-linejoin: miter"/>
   </g>
   <g id="patch_43">
    <path d="M 313.451532 377.797188 
L 318.408566 377.797188 
L 318.408566 377.797188 
L 313.451532 377.797188 
z
" clip-path="url(#pa7d316dafa)" style="fill: #a20025; fill-opacity: 0.5; stroke: #ffffff; stroke-opacity: 0.4; stroke-width: 0.427225; stroke-linejoin: miter"/>
   </g>
   <g id="patch_44">
    <path d="M 318.408566 377.797188 
L 323.365599 377.797188 
L 323.365599 371.588961 
L 318.408566 371.588961 
z
" clip-path="url(#pa7d316dafa)" style="fill: #a20025; fill-opacity: 0.5; stroke: #ffffff; stroke-opacity: 0.4; stroke-width: 0.427225; stroke-linejoin: miter"/>
   </g>
   <g id="patch_45">
    <path d="M 323.365599 377.797188 
L 328.322632 377.797188 
L 328.322632 377.797188 
L 323.365599 377.797188 
z
" clip-path="url(#pa7d316dafa)" style="fill: #a20025; fill-opacity: 0.5; stroke: #ffffff; stroke-opacity: 0.4; stroke-width: 0.427225; stroke-linejoin: miter"/>
   </g>
   <g id="patch_46">
    <path d="M 328.322632 377.797188 
L 333.279666 377.797188 
L 333.279666 377.797188 
L 328.322632 377.797188 
z
" clip-path="url(#pa7d316dafa)" style="fill: #a20025; fill-opacity: 0.5; stroke: #ffffff; stroke-opacity: 0.4; stroke-width: 0.427225; stroke-linejoin: miter"/>
   </g>
   <g id="patch_47">
    <path d="M 333.279666 377.797188 
L 338.236699 377.797188 
L 338.236699 365.898087 
L 333.279666 365.898087 
z
" clip-path="url(#pa7d316dafa)" style="fill: #a20025; fill-opacity: 0.5; stroke: #ffffff; stroke-opacity: 0.4; stroke-width: 0.427225; stroke-linejoin: miter"/>
   </g>
   <g id="patch_48">
    <path d="M 338.236699 377.797188 
L 343.193733 377.797188 
L 343.193733 377.797188 
L 338.236699 377.797188 
z
" clip-path="url(#pa7d316dafa)" style="fill: #a20025; fill-opacity: 0.5; stroke: #ffffff; stroke-opacity: 0.4; stroke-width: 0.427225; stroke-linejoin: miter"/>
   </g>
   <g id="patch_49">
    <path d="M 343.193733 377.797188 
L 348.150766 377.797188 
L 348.150766 377.797188 
L 343.193733 377.797188 
z
" clip-path="url(#pa7d316dafa)" style="fill: #a20025; fill-opacity: 0.5; stroke: #ffffff; stroke-opacity: 0.4; stroke-width: 0.427225; stroke-linejoin: miter"/>
   </g>
   <g id="patch_50">
    <path d="M 348.150766 377.797188 
L 353.1078 377.797188 
L 353.1078 360.724565 
L 348.150766 360.724565 
z
" clip-path="url(#pa7d316dafa)" style="fill: #a20025; fill-opacity: 0.5; stroke: #ffffff; stroke-opacity: 0.4; stroke-width: 0.427225; stroke-linejoin: miter"/>
   </g>
   <g id="patch_51">
    <path d="M 353.1078 377.797188 
L 358.064833 377.797188 
L 358.064833 377.797188 
L 353.1078 377.797188 
z
" clip-path="url(#pa7d316dafa)" style="fill: #a20025; fill-opacity: 0.5; stroke: #ffffff; stroke-opacity: 0.4; stroke-width: 0.427225; stroke-linejoin: miter"/>
   </g>
   <g id="patch_52">
    <path d="M 358.064833 377.797188 
L 363.021866 377.797188 
L 363.021866 377.797188 
L 358.064833 377.797188 
z
" clip-path="url(#pa7d316dafa)" style="fill: #a20025; fill-opacity: 0.5; stroke: #ffffff; stroke-opacity: 0.4; stroke-width: 0.427225; stroke-linejoin: miter"/>
   </g>
   <g id="patch_53">
    <path d="M 363.021866 377.797188 
L 367.9789 377.797188 
L 367.9789 348.825464 
L 363.021866 348.825464 
z
" clip-path="url(#pa7d316dafa)" style="fill: #a20025; fill-opacity: 0.5; stroke: #ffffff; stroke-opacity: 0.4; stroke-width: 0.427225; stroke-linejoin: miter"/>
   </g>
   <g id="patch_54">
    <path d="M 367.9789 377.797188 
L 372.935933 377.797188 
L 372.935933 377.797188 
L 367.9789 377.797188 
z
" clip-path="url(#pa7d316dafa)" style="fill: #a20025; fill-opacity: 0.5; stroke: #ffffff; stroke-opacity: 0.4; stroke-width: 0.427225; stroke-linejoin: miter"/>
   </g>
   <g id="patch_55">
    <path d="M 372.935933 377.797188 
L 377.892967 377.797188 
L 377.892967 377.797188 
L 372.935933 377.797188 
z
" clip-path="url(#pa7d316dafa)" style="fill: #a20025; fill-opacity: 0.5; stroke: #ffffff; stroke-opacity: 0.4; stroke-width: 0.427225; stroke-linejoin: miter"/>
   </g>
   <g id="patch_56">
    <path d="M 377.892967 377.797188 
L 382.85 377.797188 
L 382.85 377.279835 
L 377.892967 377.279835 
z
" clip-path="url(#pa7d316dafa)" style="fill: #a20025; fill-opacity: 0.5; stroke: #ffffff; stroke-opacity: 0.4; stroke-width: 0.427225; stroke-linejoin: miter"/>
   </g>
   <g id="patch_57">
    <path d="M 382.85 377.797188 
L 387.807033 377.797188 
L 387.807033 335.891659 
L 382.85 335.891659 
z
" clip-path="url(#pa7d316dafa)" style="fill: #a20025; fill-opacity: 0.5; stroke: #ffffff; stroke-opacity: 0.4; stroke-width: 0.427225; stroke-linejoin: miter"/>
   </g>
   <g id="patch_58">
    <path d="M 387.807033 377.797188 
L 392.764067 377.797188 
L 392.764067 377.797188 
L 387.807033 377.797188 
z
" clip-path="url(#pa7d316dafa)" style="fill: #a20025; fill-opacity: 0.5; stroke: #ffffff; stroke-opacity: 0.4; stroke-width: 0.427225; stroke-linejoin: miter"/>
   </g>
   <g id="patch_59">
    <path d="M 392.764067 377.797188 
L 397.7211 377.797188 
L 397.7211 377.797188 
L 392.764067 377.797188 
z
" clip-path="url(#pa7d316dafa)" style="fill: #a20025; fill-opacity: 0.5; stroke: #ffffff; stroke-opacity: 0.4; stroke-width: 0.427225; stroke-linejoin: miter"/>
   </g>
   <g id="patch_60">
    <path d="M 397.7211 377.797188 
L 402.678134 377.797188 
L 402.678134 299.677005 
L 397.7211 299.677005 
z
" clip-path="url(#pa7d316dafa)" style="fill: #a20025; fill-opacity: 0.5; stroke: #ffffff; stroke-opacity: 0.4; stroke-width: 0.427225; stroke-linejoin: miter"/>
   </g>
   <g id="patch_61">
    <path d="M 402.678134 377.797188 
L 407.635167 377.797188 
L 407.635167 377.797188 
L 402.678134 377.797188 
z
" clip-path="url(#pa7d316dafa)" style="fill: #a20025; fill-opacity: 0.5; stroke: #ffffff; stroke-opacity: 0.4; stroke-width: 0.427225; stroke-linejoin: miter"/>
   </g>
   <g id="patch_62">
    <path d="M 407.635167 377.797188 
L 412.5922 377.797188 
L 412.5922 377.797188 
L 407.635167 377.797188 
z
" clip-path="url(#pa7d316dafa)" style="fill: #a20025; fill-opacity: 0.5; stroke: #ffffff; stroke-opacity: 0.4; stroke-width: 0.427225; stroke-linejoin: miter"/>
   </g>
   <g id="patch_63">
    <path d="M 412.5922 377.797188 
L 417.549234 377.797188 
L 417.549234 247.941784 
L 412.5922 247.941784 
z
" clip-path="url(#pa7d316dafa)" style="fill: #a20025; fill-opacity: 0.5; stroke: #ffffff; stroke-opacity: 0.4; stroke-width: 0.427225; stroke-linejoin: miter"/>
   </g>
   <g id="patch_64">
    <path d="M 417.549234 377.797188 
L 422.506267 377.797188 
L 422.506267 377.797188 
L 417.549234 377.797188 
z
" clip-path="url(#pa7d316dafa)" style="fill: #a20025; fill-opacity: 0.5; stroke: #ffffff; stroke-opacity: 0.4; stroke-width: 0.427225; stroke-linejoin: miter"/>
   </g>
   <g id="patch_65">
    <path d="M 422.506267 377.797188 
L 427.463301 377.797188 
L 427.463301 377.797188 
L 422.506267 377.797188 
z
" clip-path="url(#pa7d316dafa)" style="fill: #a20025; fill-opacity: 0.5; stroke: #ffffff; stroke-opacity: 0.4; stroke-width: 0.427225; stroke-linejoin: miter"/>
   </g>
   <g id="patch_66">
    <path d="M 427.463301 377.797188 
L 432.420334 377.797188 
L 432.420334 43.587664 
L 427.463301 43.587664 
z
" clip-path="url(#pa7d316dafa)" style="fill: #a20025; fill-opacity: 0.5; stroke: #ffffff; stroke-opacity: 0.4; stroke-width: 0.427225; stroke-linejoin: miter"/>
   </g>
   <g id="patch_67">
    <path d="M 432.420334 377.797188 
L 437.377368 377.797188 
L 437.377368 377.797188 
L 432.420334 377.797188 
z
" clip-path="url(#pa7d316dafa)" style="fill: #a20025; fill-opacity: 0.5; stroke: #ffffff; stroke-opacity: 0.4; stroke-width: 0.427225; stroke-linejoin: miter"/>
   </g>
   <g id="patch_68">
    <path d="M 437.377368 377.797188 
L 442.334401 377.797188 
L 442.334401 377.797188 
L 437.377368 377.797188 
z
" clip-path="url(#pa7d316dafa)" style="fill: #a20025; fill-opacity: 0.5; stroke: #ffffff; stroke-opacity: 0.4; stroke-width: 0.427225; stroke-linejoin: miter"/>
   </g>
   <g id="patch_69">
    <path d="M 442.334401 377.797188 
L 447.291434 377.797188 
L 447.291434 216.900652 
L 442.334401 216.900652 
z
" clip-path="url(#pa7d316dafa)" style="fill: #a20025; fill-opacity: 0.5; stroke: #ffffff; stroke-opacity: 0.4; stroke-width: 0.427225; stroke-linejoin: miter"/>
   </g>
   <g id="patch_70">
    <path d="M 447.291434 377.797188 
L 452.248468 377.797188 
L 452.248468 377.797188 
L 447.291434 377.797188 
z
" clip-path="url(#pa7d316dafa)" style="fill: #a20025; fill-opacity: 0.5; stroke: #ffffff; stroke-opacity: 0.4; stroke-width: 0.427225; stroke-linejoin: miter"/>
   </g>
   <g id="patch_71">
    <path d="M 452.248468 377.797188 
L 457.205501 377.797188 
L 457.205501 377.797188 
L 452.248468 377.797188 
z
" clip-path="url(#pa7d316dafa)" style="fill: #a20025; fill-opacity: 0.5; stroke: #ffffff; stroke-opacity: 0.4; stroke-width: 0.427225; stroke-linejoin: miter"/>
   </g>
   <g id="patch_72">
    <path d="M 457.205501 377.797188 
L 462.162535 377.797188 
L 462.162535 271.739986 
L 457.205501 271.739986 
z
" clip-path="url(#pa7d316dafa)" style="fill: #a20025; fill-opacity: 0.5; stroke: #ffffff; stroke-opacity: 0.4; stroke-width: 0.427225; stroke-linejoin: miter"/>
   </g>
   <g id="patch_73">
    <path d="M 462.162535 377.797188 
L 467.119568 377.797188 
L 467.119568 377.797188 
L 462.162535 377.797188 
z
" clip-path="url(#pa7d316dafa)" style="fill: #a20025; fill-opacity: 0.5; stroke: #ffffff; stroke-opacity: 0.4; stroke-width: 0.427225; stroke-linejoin: miter"/>
   </g>
   <g id="patch_74">
    <path d="M 467.119568 377.797188 
L 472.076601 377.797188 
L 472.076601 377.797188 
L 467.119568 377.797188 
z
" clip-path="url(#pa7d316dafa)" style="fill: #a20025; fill-opacity: 0.5; stroke: #ffffff; stroke-opacity: 0.4; stroke-width: 0.427225; stroke-linejoin: miter"/>
   </g>
   <g id="patch_75">
    <path d="M 472.076601 377.797188 
L 477.033635 377.797188 
L 477.033635 377.797188 
L 472.076601 377.797188 
z
" clip-path="url(#pa7d316dafa)" style="fill: #a20025; fill-opacity: 0.5; stroke: #ffffff; stroke-opacity: 0.4; stroke-width: 0.427225; stroke-linejoin: miter"/>
   </g>
   <g id="patch_76">
    <path d="M 477.033635 377.797188 
L 481.990668 377.797188 
L 481.990668 318.819036 
L 477.033635 318.819036 
z
" clip-path="url(#pa7d316dafa)" style="fill: #a20025; fill-opacity: 0.5; stroke: #ffffff; stroke-opacity: 0.4; stroke-width: 0.427225; stroke-linejoin: miter"/>
   </g>
   <g id="patch_77">
    <path d="M 481.990668 377.797188 
L 486.947702 377.797188 
L 486.947702 377.797188 
L 481.990668 377.797188 
z
" clip-path="url(#pa7d316dafa)" style="fill: #a20025; fill-opacity: 0.5; stroke: #ffffff; stroke-opacity: 0.4; stroke-width: 0.427225; stroke-linejoin: miter"/>
   </g>
   <g id="patch_78">
    <path d="M 486.947702 377.797188 
L 491.904735 377.797188 
L 491.904735 377.797188 
L 486.947702 377.797188 
z
" clip-path="url(#pa7d316dafa)" style="fill: #a20025; fill-opacity: 0.5; stroke: #ffffff; stroke-opacity: 0.4; stroke-width: 0.427225; stroke-linejoin: miter"/>
   </g>
   <g id="patch_79">
    <path d="M 491.904735 377.797188 
L 496.861769 377.797188 
L 496.861769 342.617238 
L 491.904735 342.617238 
z
" clip-path="url(#pa7d316dafa)" style="fill: #a20025; fill-opacity: 0.5; stroke: #ffffff; stroke-opacity: 0.4; stroke-width: 0.427225; stroke-linejoin: miter"/>
   </g>
   <g id="patch_80">
    <path d="M 496.861769 377.797188 
L 501.818802 377.797188 
L 501.818802 377.797188 
L 496.861769 377.797188 
z
" clip-path="url(#pa7d316dafa)" style="fill: #a20025; fill-opacity: 0.5; stroke: #ffffff; stroke-opacity: 0.4; stroke-width: 0.427225; stroke-linejoin: miter"/>
   </g>
   <g id="patch_81">
    <path d="M 501.818802 377.797188 
L 506.775835 377.797188 
L 506.775835 377.797188 
L 501.818802 377.797188 
z
" clip-path="url(#pa7d316dafa)" style="fill: #a20025; fill-opacity: 0.5; stroke: #ffffff; stroke-opacity: 0.4; stroke-width: 0.427225; stroke-linejoin: miter"/>
   </g>
   <g id="patch_82">
    <path d="M 506.775835 377.797188 
L 511.732869 377.797188 
L 511.732869 360.724565 
L 506.775835 360.724565 
z
" clip-path="url(#pa7d316dafa)" style="fill: #a20025; fill-opacity: 0.5; stroke: #ffffff; stroke-opacity: 0.4; stroke-width: 0.427225; stroke-linejoin: miter"/>
   </g>
   <g id="patch_83">
    <path d="M 511.732869 377.797188 
L 516.689902 377.797188 
L 516.689902 377.797188 
L 511.732869 377.797188 
z
" clip-path="url(#pa7d316dafa)" style="fill: #a20025; fill-opacity: 0.5; stroke: #ffffff; stroke-opacity: 0.4; stroke-width: 0.427225; stroke-linejoin: miter"/>
   </g>
   <g id="patch_84">
    <path d="M 516.689902 377.797188 
L 521.646936 377.797188 
L 521.646936 377.797188 
L 516.689902 377.797188 
z
" clip-path="url(#pa7d316dafa)" style="fill: #a20025; fill-opacity: 0.5; stroke: #ffffff; stroke-opacity: 0.4; stroke-width: 0.427225; stroke-linejoin: miter"/>
   </g>
   <g id="patch_85">
    <path d="M 521.646936 377.797188 
L 526.603969 377.797188 
L 526.603969 371.588961 
L 521.646936 371.588961 
z
" clip-path="url(#pa7d316dafa)" style="fill: #a20025; fill-opacity: 0.5; stroke: #ffffff; stroke-opacity: 0.4; stroke-width: 0.427225; stroke-linejoin: miter"/>
   </g>
   <g id="patch_86">
    <path d="M 526.603969 377.797188 
L 531.561002 377.797188 
L 531.561002 377.797188 
L 526.603969 377.797188 
z
" clip-path="url(#pa7d316dafa)" style="fill: #a20025; fill-opacity: 0.5; stroke: #ffffff; stroke-opacity: 0.4; stroke-width: 0.427225; stroke-linejoin: miter"/>
   </g>
   <g id="patch_87">
    <path d="M 531.561002 377.797188 
L 536.518036 377.797188 
L 536.518036 377.797188 
L 531.561002 377.797188 
z
" clip-path="url(#pa7d316dafa)" style="fill: #a20025; fill-opacity: 0.5; stroke: #ffffff; stroke-opacity: 0.4; stroke-width: 0.427225; stroke-linejoin: miter"/>
   </g>
   <g id="patch_88">
    <path d="M 536.518036 377.797188 
L 541.475069 377.797188 
L 541.475069 370.554257 
L 536.518036 370.554257 
z
" clip-path="url(#pa7d316dafa)" style="fill: #a20025; fill-opacity: 0.5; stroke: #ffffff; stroke-opacity: 0.4; stroke-width: 0.427225; stroke-linejoin: miter"/>
   </g>
   <g id="patch_89">
    <path d="M 541.475069 377.797188 
L 546.432103 377.797188 
L 546.432103 377.797188 
L 541.475069 377.797188 
z
" clip-path="url(#pa7d316dafa)" style="fill: #a20025; fill-opacity: 0.5; stroke: #ffffff; stroke-opacity: 0.4; stroke-width: 0.427225; stroke-linejoin: miter"/>
   </g>
   <g id="patch_90">
    <path d="M 546.432103 377.797188 
L 551.389136 377.797188 
L 551.389136 377.797188 
L 546.432103 377.797188 
z
" clip-path="url(#pa7d316dafa)" style="fill: #a20025; fill-opacity: 0.5; stroke: #ffffff; stroke-opacity: 0.4; stroke-width: 0.427225; stroke-linejoin: miter"/>
   </g>
   <g id="patch_91">
    <path d="M 551.389136 377.797188 
L 556.346169 377.797188 
L 556.346169 376.245131 
L 551.389136 376.245131 
z
" clip-path="url(#pa7d316dafa)" style="fill: #a20025; fill-opacity: 0.5; stroke: #ffffff; stroke-opacity: 0.4; stroke-width: 0.427225; stroke-linejoin: miter"/>
   </g>
   <g id="patch_92">
    <path d="M 556.346169 377.797188 
L 561.303203 377.797188 
L 561.303203 377.797188 
L 556.346169 377.797188 
z
" clip-path="url(#pa7d316dafa)" style="fill: #a20025; fill-opacity: 0.5; stroke: #ffffff; stroke-opacity: 0.4; stroke-width: 0.427225; stroke-linejoin: miter"/>
   </g>
   <g id="patch_93">
    <path d="M 561.303203 377.797188 
L 566.260236 377.797188 
L 566.260236 377.797188 
L 561.303203 377.797188 
z
" clip-path="url(#pa7d316dafa)" style="fill: #a20025; fill-opacity: 0.5; stroke: #ffffff; stroke-opacity: 0.4; stroke-width: 0.427225; stroke-linejoin: miter"/>
   </g>
   <g id="patch_94">
    <path d="M 566.260236 377.797188 
L 571.21727 377.797188 
L 571.21727 377.797188 
L 566.260236 377.797188 
z
" clip-path="url(#pa7d316dafa)" style="fill: #a20025; fill-opacity: 0.5; stroke: #ffffff; stroke-opacity: 0.4; stroke-width: 0.427225; stroke-linejoin: miter"/>
   </g>
   <g id="patch_95">
    <path d="M 571.21727 377.797188 
L 576.174303 377.797188 
L 576.174303 376.245131 
L 571.21727 376.245131 
z
" clip-path="url(#pa7d316dafa)" style="fill: #a20025; fill-opacity: 0.5; stroke: #ffffff; stroke-opacity: 0.4; stroke-width: 0.427225; stroke-linejoin: miter"/>
   </g>
   <g id="patch_96">
    <path d="M 576.174303 377.797188 
L 581.131337 377.797188 
L 581.131337 377.797188 
L 576.174303 377.797188 
z
" clip-path="url(#pa7d316dafa)" style="fill: #a20025; fill-opacity: 0.5; stroke: #ffffff; stroke-opacity: 0.4; stroke-width: 0.427225; stroke-linejoin: miter"/>
   </g>
   <g id="patch_97">
    <path d="M 581.131337 377.797188 
L 586.08837 377.797188 
L 586.08837 377.797188 
L 581.131337 377.797188 
z
" clip-path="url(#pa7d316dafa)" style="fill: #a20025; fill-opacity: 0.5; stroke: #ffffff; stroke-opacity: 0.4; stroke-width: 0.427225; stroke-linejoin: miter"/>
   </g>
   <g id="patch_98">
    <path d="M 586.08837 377.797188 
L 591.045403 377.797188 
L 591.045403 375.727779 
L 586.08837 375.727779 
z
" clip-path="url(#pa7d316dafa)" style="fill: #a20025; fill-opacity: 0.5; stroke: #ffffff; stroke-opacity: 0.4; stroke-width: 0.427225; stroke-linejoin: miter"/>
   </g>
   <g id="patch_99">
    <path d="M 591.045403 377.797188 
L 596.002437 377.797188 
L 596.002437 377.797188 
L 591.045403 377.797188 
z
" clip-path="url(#pa7d316dafa)" style="fill: #a20025; fill-opacity: 0.5; stroke: #ffffff; stroke-opacity: 0.4; stroke-width: 0.427225; stroke-linejoin: miter"/>
   </g>
   <g id="patch_100">
    <path d="M 596.002437 377.797188 
L 600.95947 377.797188 
L 600.95947 377.797188 
L 596.002437 377.797188 
z
" clip-path="url(#pa7d316dafa)" style="fill: #a20025; fill-opacity: 0.5; stroke: #ffffff; stroke-opacity: 0.4; stroke-width: 0.427225; stroke-linejoin: miter"/>
   </g>
   <g id="patch_101">
    <path d="M 600.95947 377.797188 
L 605.916504 377.797188 
L 605.916504 377.279835 
L 600.95947 377.279835 
z
" clip-path="url(#pa7d316dafa)" style="fill: #a20025; fill-opacity: 0.5; stroke: #ffffff; stroke-opacity: 0.4; stroke-width: 0.427225; stroke-linejoin: miter"/>
   </g>
   <g id="patch_102">
    <path d="M 605.916504 377.797188 
L 610.873537 377.797188 
L 610.873537 377.797188 
L 605.916504 377.797188 
z
" clip-path="url(#pa7d316dafa)" style="fill: #a20025; fill-opacity: 0.5; stroke: #ffffff; stroke-opacity: 0.4; stroke-width: 0.427225; stroke-linejoin: miter"/>
   </g>
   <g id="patch_103">
    <path d="M 610.873537 377.797188 
L 615.83057 377.797188 
L 615.83057 377.797188 
L 610.873537 377.797188 
z
" clip-path="url(#pa7d316dafa)" style="fill: #a20025; fill-opacity: 0.5; stroke: #ffffff; stroke-opacity: 0.4; stroke-width: 0.427225; stroke-linejoin: miter"/>
   </g>
   <g id="patch_104">
    <path d="M 615.83057 377.797188 
L 620.787604 377.797188 
L 620.787604 377.797188 
L 615.83057 377.797188 
z
" clip-path="url(#pa7d316dafa)" style="fill: #a20025; fill-opacity: 0.5; stroke: #ffffff; stroke-opacity: 0.4; stroke-width: 0.427225; stroke-linejoin: miter"/>
   </g>
   <g id="patch_105">
    <path d="M 620.787604 377.797188 
L 625.744637 377.797188 
L 625.744637 377.797188 
L 620.787604 377.797188 
z
" clip-path="url(#pa7d316dafa)" style="fill: #a20025; fill-opacity: 0.5; stroke: #ffffff; stroke-opacity: 0.4; stroke-width: 0.427225; stroke-linejoin: miter"/>
   </g>
   <g id="patch_106">
    <path d="M 625.744637 377.797188 
L 630.701671 377.797188 
L 630.701671 377.797188 
L 625.744637 377.797188 
z
" clip-path="url(#pa7d316dafa)" style="fill: #a20025; fill-opacity: 0.5; stroke: #ffffff; stroke-opacity: 0.4; stroke-width: 0.427225; stroke-linejoin: miter"/>
   </g>
   <g id="patch_107">
    <path d="M 630.701671 377.797188 
L 635.658704 377.797188 
L 635.658704 377.797188 
L 630.701671 377.797188 
z
" clip-path="url(#pa7d316dafa)" style="fill: #a20025; fill-opacity: 0.5; stroke: #ffffff; stroke-opacity: 0.4; stroke-width: 0.427225; stroke-linejoin: miter"/>
   </g>
   <g id="patch_108">
    <path d="M 635.658704 377.797188 
L 640.615737 377.797188 
L 640.615737 377.797188 
L 635.658704 377.797188 
z
" clip-path="url(#pa7d316dafa)" style="fill: #a20025; fill-opacity: 0.5; stroke: #ffffff; stroke-opacity: 0.4; stroke-width: 0.427225; stroke-linejoin: miter"/>
   </g>
   <g id="patch_109">
    <path d="M 640.615737 377.797188 
L 645.572771 377.797188 
L 645.572771 377.797188 
L 640.615737 377.797188 
z
" clip-path="url(#pa7d316dafa)" style="fill: #a20025; fill-opacity: 0.5; stroke: #ffffff; stroke-opacity: 0.4; stroke-width: 0.427225; stroke-linejoin: miter"/>
   </g>
   <g id="patch_110">
    <path d="M 645.572771 377.797188 
L 650.529804 377.797188 
L 650.529804 377.279835 
L 645.572771 377.279835 
z
" clip-path="url(#pa7d316dafa)" style="fill: #a20025; fill-opacity: 0.5; stroke: #ffffff; stroke-opacity: 0.4; stroke-width: 0.427225; stroke-linejoin: miter"/>
   </g>
   <g id="matplotlib.axis_1">
    <g id="xtick_1">
     <g id="line2d_1">
      <defs>
       <path id="ma335c3bd56" d="M 0 0 
L 0 3.5 
" style="stroke: #000000; stroke-width: 0.8"/>
      </defs>
      <g>
       <use xlink:href="#ma335c3bd56" x="127.042582" y="377.797188" style="stroke: #000000; stroke-width: 0.8"/>
      </g>
     </g>
     <g id="text_1">
      <!-- −20 -->
      <g transform="translate(110.158832 396.954688) scale(0.16 -0.16)">
       <defs>
        <path id="DejaVuSans-2212" d="M 678 2272 
L 4684 2272 
L 4684 1741 
L 678 1741 
L 678 2272 
z
" transform="scale(0.015625)"/>
        <path id="DejaVuSans-32" d="M 1228 531 
L 3431 531 
L 3431 0 
L 469 0 
L 469 531 
Q 828 903 1448 1529 
Q 2069 2156 2228 2338 
Q 2531 2678 2651 2914 
Q 2772 3150 2772 3378 
Q 2772 3750 2511 3984 
Q 2250 4219 1831 4219 
Q 1534 4219 1204 4116 
Q 875 4013 500 3803 
L 500 4441 
Q 881 4594 1212 4672 
Q 1544 4750 1819 4750 
Q 2544 4750 2975 4387 
Q 3406 4025 3406 3419 
Q 3406 3131 3298 2873 
Q 3191 2616 2906 2266 
Q 2828 2175 2409 1742 
Q 1991 1309 1228 531 
z
" transform="scale(0.015625)"/>
        <path id="DejaVuSans-30" d="M 2034 4250 
Q 1547 4250 1301 3770 
Q 1056 3291 1056 2328 
Q 1056 1369 1301 889 
Q 1547 409 2034 409 
Q 2525 409 2770 889 
Q 3016 1369 3016 2328 
Q 3016 3291 2770 3770 
Q 2525 4250 2034 4250 
z
M 2034 4750 
Q 2819 4750 3233 4129 
Q 3647 3509 3647 2328 
Q 3647 1150 3233 529 
Q 2819 -91 2034 -91 
Q 1250 -91 836 529 
Q 422 1150 422 2328 
Q 422 3509 836 4129 
Q 1250 4750 2034 4750 
z
" transform="scale(0.015625)"/>
       </defs>
       <use xlink:href="#DejaVuSans-2212"/>
       <use xlink:href="#DejaVuSans-32" transform="translate(83.789062 0)"/>
       <use xlink:href="#DejaVuSans-30" transform="translate(147.412109 0)"/>
      </g>
     </g>
    </g>
    <g id="xtick_2">
     <g id="line2d_2">
      <g>
       <use xlink:href="#ma335c3bd56" x="202.80384" y="377.797188" style="stroke: #000000; stroke-width: 0.8"/>
      </g>
     </g>
     <g id="text_2">
      <!-- −15 -->
      <g transform="translate(185.92009 396.954688) scale(0.16 -0.16)">
       <defs>
        <path id="DejaVuSans-31" d="M 794 531 
L 1825 531 
L 1825 4091 
L 703 3866 
L 703 4441 
L 1819 4666 
L 2450 4666 
L 2450 531 
L 3481 531 
L 3481 0 
L 794 0 
L 794 531 
z
" transform="scale(0.015625)"/>
        <path id="DejaVuSans-35" d="M 691 4666 
L 3169 4666 
L 3169 4134 
L 1269 4134 
L 1269 2991 
Q 1406 3038 1543 3061 
Q 1681 3084 1819 3084 
Q 2600 3084 3056 2656 
Q 3513 2228 3513 1497 
Q 3513 744 3044 326 
Q 2575 -91 1722 -91 
Q 1428 -91 1123 -41 
Q 819 9 494 109 
L 494 744 
Q 775 591 1075 516 
Q 1375 441 1709 441 
Q 2250 441 2565 725 
Q 2881 1009 2881 1497 
Q 2881 1984 2565 2268 
Q 2250 2553 1709 2553 
Q 1456 2553 1204 2497 
Q 953 2441 691 2322 
L 691 4666 
z
" transform="scale(0.015625)"/>
       </defs>
       <use xlink:href="#DejaVuSans-2212"/>
       <use xlink:href="#DejaVuSans-31" transform="translate(83.789062 0)"/>
       <use xlink:href="#DejaVuSans-35" transform="translate(147.412109 0)"/>
      </g>
     </g>
    </g>
    <g id="xtick_3">
     <g id="line2d_3">
      <g>
       <use xlink:href="#ma335c3bd56" x="278.565097" y="377.797188" style="stroke: #000000; stroke-width: 0.8"/>
      </g>
     </g>
     <g id="text_3">
      <!-- −10 -->
      <g transform="translate(261.681347 396.954688) scale(0.16 -0.16)">
       <use xlink:href="#DejaVuSans-2212"/>
       <use xlink:href="#DejaVuSans-31" transform="translate(83.789062 0)"/>
       <use xlink:href="#DejaVuSans-30" transform="translate(147.412109 0)"/>
      </g>
     </g>
    </g>
    <g id="xtick_4">
     <g id="line2d_4">
      <g>
       <use xlink:href="#ma335c3bd56" x="354.326355" y="377.797188" style="stroke: #000000; stroke-width: 0.8"/>
      </g>
     </g>
     <g id="text_4">
      <!-- −5 -->
      <g transform="translate(342.532605 396.954688) scale(0.16 -0.16)">
       <use xlink:href="#DejaVuSans-2212"/>
       <use xlink:href="#DejaVuSans-35" transform="translate(83.789062 0)"/>
      </g>
     </g>
    </g>
    <g id="xtick_5">
     <g id="line2d_5">
      <g>
       <use xlink:href="#ma335c3bd56" x="430.087613" y="377.797188" style="stroke: #000000; stroke-width: 0.8"/>
      </g>
     </g>
     <g id="text_5">
      <!-- 0 -->
      <g transform="translate(424.997613 396.954688) scale(0.16 -0.16)">
       <use xlink:href="#DejaVuSans-30"/>
      </g>
     </g>
    </g>
    <g id="xtick_6">
     <g id="line2d_6">
      <g>
       <use xlink:href="#ma335c3bd56" x="505.84887" y="377.797188" style="stroke: #000000; stroke-width: 0.8"/>
      </g>
     </g>
     <g id="text_6">
      <!-- 5 -->
      <g transform="translate(500.75887 396.954688) scale(0.16 -0.16)">
       <use xlink:href="#DejaVuSans-35"/>
      </g>
     </g>
    </g>
    <g id="xtick_7">
     <g id="line2d_7">
      <g>
       <use xlink:href="#ma335c3bd56" x="581.610128" y="377.797188" style="stroke: #000000; stroke-width: 0.8"/>
      </g>
     </g>
     <g id="text_7">
      <!-- 10 -->
      <g transform="translate(571.430128 396.954688) scale(0.16 -0.16)">
       <use xlink:href="#DejaVuSans-31"/>
       <use xlink:href="#DejaVuSans-30" transform="translate(63.623047 0)"/>
      </g>
     </g>
    </g>
    <g id="xtick_8">
     <g id="line2d_8">
      <g>
       <use xlink:href="#ma335c3bd56" x="657.371385" y="377.797188" style="stroke: #000000; stroke-width: 0.8"/>
      </g>
     </g>
     <g id="text_8">
      <!-- 15 -->
      <g transform="translate(647.191385 396.954688) scale(0.16 -0.16)">
       <use xlink:href="#DejaVuSans-31"/>
       <use xlink:href="#DejaVuSans-35" transform="translate(63.623047 0)"/>
      </g>
     </g>
    </g>
    <g id="text_9">
     <!-- Model Weights -->
     <g transform="translate(324.24875 416.439688) scale(0.16 -0.16)">
      <defs>
       <path id="DejaVuSans-4d" d="M 628 4666 
L 1569 4666 
L 2759 1491 
L 3956 4666 
L 4897 4666 
L 4897 0 
L 4281 0 
L 4281 4097 
L 3078 897 
L 2444 897 
L 1241 4097 
L 1241 0 
L 628 0 
L 628 4666 
z
" transform="scale(0.015625)"/>
       <path id="DejaVuSans-6f" d="M 1959 3097 
Q 1497 3097 1228 2736 
Q 959 2375 959 1747 
Q 959 1119 1226 758 
Q 1494 397 1959 397 
Q 2419 397 2687 759 
Q 2956 1122 2956 1747 
Q 2956 2369 2687 2733 
Q 2419 3097 1959 3097 
z
M 1959 3584 
Q 2709 3584 3137 3096 
Q 3566 2609 3566 1747 
Q 3566 888 3137 398 
Q 2709 -91 1959 -91 
Q 1206 -91 779 398 
Q 353 888 353 1747 
Q 353 2609 779 3096 
Q 1206 3584 1959 3584 
z
" transform="scale(0.015625)"/>
       <path id="DejaVuSans-64" d="M 2906 2969 
L 2906 4863 
L 3481 4863 
L 3481 0 
L 2906 0 
L 2906 525 
Q 2725 213 2448 61 
Q 2172 -91 1784 -91 
Q 1150 -91 751 415 
Q 353 922 353 1747 
Q 353 2572 751 3078 
Q 1150 3584 1784 3584 
Q 2172 3584 2448 3432 
Q 2725 3281 2906 2969 
z
M 947 1747 
Q 947 1113 1208 752 
Q 1469 391 1925 391 
Q 2381 391 2643 752 
Q 2906 1113 2906 1747 
Q 2906 2381 2643 2742 
Q 2381 3103 1925 3103 
Q 1469 3103 1208 2742 
Q 947 2381 947 1747 
z
" transform="scale(0.015625)"/>
       <path id="DejaVuSans-65" d="M 3597 1894 
L 3597 1613 
L 953 1613 
Q 991 1019 1311 708 
Q 1631 397 2203 397 
Q 2534 397 2845 478 
Q 3156 559 3463 722 
L 3463 178 
Q 3153 47 2828 -22 
Q 2503 -91 2169 -91 
Q 1331 -91 842 396 
Q 353 884 353 1716 
Q 353 2575 817 3079 
Q 1281 3584 2069 3584 
Q 2775 3584 3186 3129 
Q 3597 2675 3597 1894 
z
M 3022 2063 
Q 3016 2534 2758 2815 
Q 2500 3097 2075 3097 
Q 1594 3097 1305 2825 
Q 1016 2553 972 2059 
L 3022 2063 
z
" transform="scale(0.015625)"/>
       <path id="DejaVuSans-6c" d="M 603 4863 
L 1178 4863 
L 1178 0 
L 603 0 
L 603 4863 
z
" transform="scale(0.015625)"/>
       <path id="DejaVuSans-20" transform="scale(0.015625)"/>
       <path id="DejaVuSans-57" d="M 213 4666 
L 850 4666 
L 1831 722 
L 2809 4666 
L 3519 4666 
L 4500 722 
L 5478 4666 
L 6119 4666 
L 4947 0 
L 4153 0 
L 3169 4050 
L 2175 0 
L 1381 0 
L 213 4666 
z
" transform="scale(0.015625)"/>
       <path id="DejaVuSans-69" d="M 603 3500 
L 1178 3500 
L 1178 0 
L 603 0 
L 603 3500 
z
M 603 4863 
L 1178 4863 
L 1178 4134 
L 603 4134 
L 603 4863 
z
" transform="scale(0.015625)"/>
       <path id="DejaVuSans-67" d="M 2906 1791 
Q 2906 2416 2648 2759 
Q 2391 3103 1925 3103 
Q 1463 3103 1205 2759 
Q 947 2416 947 1791 
Q 947 1169 1205 825 
Q 1463 481 1925 481 
Q 2391 481 2648 825 
Q 2906 1169 2906 1791 
z
M 3481 434 
Q 3481 -459 3084 -895 
Q 2688 -1331 1869 -1331 
Q 1566 -1331 1297 -1286 
Q 1028 -1241 775 -1147 
L 775 -588 
Q 1028 -725 1275 -790 
Q 1522 -856 1778 -856 
Q 2344 -856 2625 -561 
Q 2906 -266 2906 331 
L 2906 616 
Q 2728 306 2450 153 
Q 2172 0 1784 0 
Q 1141 0 747 490 
Q 353 981 353 1791 
Q 353 2603 747 3093 
Q 1141 3584 1784 3584 
Q 2172 3584 2450 3431 
Q 2728 3278 2906 2969 
L 2906 3500 
L 3481 3500 
L 3481 434 
z
" transform="scale(0.015625)"/>
       <path id="DejaVuSans-68" d="M 3513 2113 
L 3513 0 
L 2938 0 
L 2938 2094 
Q 2938 2591 2744 2837 
Q 2550 3084 2163 3084 
Q 1697 3084 1428 2787 
Q 1159 2491 1159 1978 
L 1159 0 
L 581 0 
L 581 4863 
L 1159 4863 
L 1159 2956 
Q 1366 3272 1645 3428 
Q 1925 3584 2291 3584 
Q 2894 3584 3203 3211 
Q 3513 2838 3513 2113 
z
" transform="scale(0.015625)"/>
       <path id="DejaVuSans-74" d="M 1172 4494 
L 1172 3500 
L 2356 3500 
L 2356 3053 
L 1172 3053 
L 1172 1153 
Q 1172 725 1289 603 
Q 1406 481 1766 481 
L 2356 481 
L 2356 0 
L 1766 0 
Q 1100 0 847 248 
Q 594 497 594 1153 
L 594 3053 
L 172 3053 
L 172 3500 
L 594 3500 
L 594 4494 
L 1172 4494 
z
" transform="scale(0.015625)"/>
       <path id="DejaVuSans-73" d="M 2834 3397 
L 2834 2853 
Q 2591 2978 2328 3040 
Q 2066 3103 1784 3103 
Q 1356 3103 1142 2972 
Q 928 2841 928 2578 
Q 928 2378 1081 2264 
Q 1234 2150 1697 2047 
L 1894 2003 
Q 2506 1872 2764 1633 
Q 3022 1394 3022 966 
Q 3022 478 2636 193 
Q 2250 -91 1575 -91 
Q 1294 -91 989 -36 
Q 684 19 347 128 
L 347 722 
Q 666 556 975 473 
Q 1284 391 1588 391 
Q 1994 391 2212 530 
Q 2431 669 2431 922 
Q 2431 1156 2273 1281 
Q 2116 1406 1581 1522 
L 1381 1569 
Q 847 1681 609 1914 
Q 372 2147 372 2553 
Q 372 3047 722 3315 
Q 1072 3584 1716 3584 
Q 2034 3584 2315 3537 
Q 2597 3491 2834 3397 
z
" transform="scale(0.015625)"/>
      </defs>
      <use xlink:href="#DejaVuSans-4d"/>
      <use xlink:href="#DejaVuSans-6f" transform="translate(86.279297 0)"/>
      <use xlink:href="#DejaVuSans-64" transform="translate(147.460938 0)"/>
      <use xlink:href="#DejaVuSans-65" transform="translate(210.9375 0)"/>
      <use xlink:href="#DejaVuSans-6c" transform="translate(272.460938 0)"/>
      <use xlink:href="#DejaVuSans-20" transform="translate(300.244141 0)"/>
      <use xlink:href="#DejaVuSans-57" transform="translate(332.03125 0)"/>
      <use xlink:href="#DejaVuSans-65" transform="translate(425.033203 0)"/>
      <use xlink:href="#DejaVuSans-69" transform="translate(486.556641 0)"/>
      <use xlink:href="#DejaVuSans-67" transform="translate(514.339844 0)"/>
      <use xlink:href="#DejaVuSans-68" transform="translate(577.816406 0)"/>
      <use xlink:href="#DejaVuSans-74" transform="translate(641.195312 0)"/>
      <use xlink:href="#DejaVuSans-73" transform="translate(680.404297 0)"/>
     </g>
    </g>
   </g>
   <g id="matplotlib.axis_2">
    <g id="ytick_1">
     <g id="line2d_9">
      <defs>
       <path id="mc1b9931008" d="M 0 0 
L -3.5 0 
" style="stroke: #000000; stroke-width: 0.8"/>
      </defs>
      <g>
       <use xlink:href="#mc1b9931008" x="59.13" y="377.797188" style="stroke: #000000; stroke-width: 0.8"/>
      </g>
     </g>
     <g id="text_10">
      <!-- 0.0 -->
      <g transform="translate(26.685 383.875938) scale(0.16 -0.16)">
       <defs>
        <path id="DejaVuSans-2e" d="M 684 794 
L 1344 794 
L 1344 0 
L 684 0 
L 684 794 
z
" transform="scale(0.015625)"/>
       </defs>
       <use xlink:href="#DejaVuSans-30"/>
       <use xlink:href="#DejaVuSans-2e" transform="translate(63.623047 0)"/>
       <use xlink:href="#DejaVuSans-30" transform="translate(95.410156 0)"/>
      </g>
     </g>
    </g>
    <g id="ytick_2">
     <g id="line2d_10">
      <g>
       <use xlink:href="#mc1b9931008" x="59.13" y="308.47202" style="stroke: #000000; stroke-width: 0.8"/>
      </g>
     </g>
     <g id="text_11">
      <!-- 0.2 -->
      <g transform="translate(26.685 314.55077) scale(0.16 -0.16)">
       <use xlink:href="#DejaVuSans-30"/>
       <use xlink:href="#DejaVuSans-2e" transform="translate(63.623047 0)"/>
       <use xlink:href="#DejaVuSans-32" transform="translate(95.410156 0)"/>
      </g>
     </g>
    </g>
    <g id="ytick_3">
     <g id="line2d_11">
      <g>
       <use xlink:href="#mc1b9931008" x="59.13" y="239.146853" style="stroke: #000000; stroke-width: 0.8"/>
      </g>
     </g>
     <g id="text_12">
      <!-- 0.4 -->
      <g transform="translate(26.685 245.225603) scale(0.16 -0.16)">
       <defs>
        <path id="DejaVuSans-34" d="M 2419 4116 
L 825 1625 
L 2419 1625 
L 2419 4116 
z
M 2253 4666 
L 3047 4666 
L 3047 1625 
L 3713 1625 
L 3713 1100 
L 3047 1100 
L 3047 0 
L 2419 0 
L 2419 1100 
L 313 1100 
L 313 1709 
L 2253 4666 
z
" transform="scale(0.015625)"/>
       </defs>
       <use xlink:href="#DejaVuSans-30"/>
       <use xlink:href="#DejaVuSans-2e" transform="translate(63.623047 0)"/>
       <use xlink:href="#DejaVuSans-34" transform="translate(95.410156 0)"/>
      </g>
     </g>
    </g>
    <g id="ytick_4">
     <g id="line2d_12">
      <g>
       <use xlink:href="#mc1b9931008" x="59.13" y="169.821685" style="stroke: #000000; stroke-width: 0.8"/>
      </g>
     </g>
     <g id="text_13">
      <!-- 0.6 -->
      <g transform="translate(26.685 175.900435) scale(0.16 -0.16)">
       <defs>
        <path id="DejaVuSans-36" d="M 2113 2584 
Q 1688 2584 1439 2293 
Q 1191 2003 1191 1497 
Q 1191 994 1439 701 
Q 1688 409 2113 409 
Q 2538 409 2786 701 
Q 3034 994 3034 1497 
Q 3034 2003 2786 2293 
Q 2538 2584 2113 2584 
z
M 3366 4563 
L 3366 3988 
Q 3128 4100 2886 4159 
Q 2644 4219 2406 4219 
Q 1781 4219 1451 3797 
Q 1122 3375 1075 2522 
Q 1259 2794 1537 2939 
Q 1816 3084 2150 3084 
Q 2853 3084 3261 2657 
Q 3669 2231 3669 1497 
Q 3669 778 3244 343 
Q 2819 -91 2113 -91 
Q 1303 -91 875 529 
Q 447 1150 447 2328 
Q 447 3434 972 4092 
Q 1497 4750 2381 4750 
Q 2619 4750 2861 4703 
Q 3103 4656 3366 4563 
z
" transform="scale(0.015625)"/>
       </defs>
       <use xlink:href="#DejaVuSans-30"/>
       <use xlink:href="#DejaVuSans-2e" transform="translate(63.623047 0)"/>
       <use xlink:href="#DejaVuSans-36" transform="translate(95.410156 0)"/>
      </g>
     </g>
    </g>
    <g id="ytick_5">
     <g id="line2d_13">
      <g>
       <use xlink:href="#mc1b9931008" x="59.13" y="100.496518" style="stroke: #000000; stroke-width: 0.8"/>
      </g>
     </g>
     <g id="text_14">
      <!-- 0.8 -->
      <g transform="translate(26.685 106.575268) scale(0.16 -0.16)">
       <defs>
        <path id="DejaVuSans-38" d="M 2034 2216 
Q 1584 2216 1326 1975 
Q 1069 1734 1069 1313 
Q 1069 891 1326 650 
Q 1584 409 2034 409 
Q 2484 409 2743 651 
Q 3003 894 3003 1313 
Q 3003 1734 2745 1975 
Q 2488 2216 2034 2216 
z
M 1403 2484 
Q 997 2584 770 2862 
Q 544 3141 544 3541 
Q 544 4100 942 4425 
Q 1341 4750 2034 4750 
Q 2731 4750 3128 4425 
Q 3525 4100 3525 3541 
Q 3525 3141 3298 2862 
Q 3072 2584 2669 2484 
Q 3125 2378 3379 2068 
Q 3634 1759 3634 1313 
Q 3634 634 3220 271 
Q 2806 -91 2034 -91 
Q 1263 -91 848 271 
Q 434 634 434 1313 
Q 434 1759 690 2068 
Q 947 2378 1403 2484 
z
M 1172 3481 
Q 1172 3119 1398 2916 
Q 1625 2713 2034 2713 
Q 2441 2713 2670 2916 
Q 2900 3119 2900 3481 
Q 2900 3844 2670 4047 
Q 2441 4250 2034 4250 
Q 1625 4250 1398 4047 
Q 1172 3844 1172 3481 
z
" transform="scale(0.015625)"/>
       </defs>
       <use xlink:href="#DejaVuSans-30"/>
       <use xlink:href="#DejaVuSans-2e" transform="translate(63.623047 0)"/>
       <use xlink:href="#DejaVuSans-38" transform="translate(95.410156 0)"/>
      </g>
     </g>
    </g>
    <g id="ytick_6">
     <g id="line2d_14">
      <g>
       <use xlink:href="#mc1b9931008" x="59.13" y="31.17135" style="stroke: #000000; stroke-width: 0.8"/>
      </g>
     </g>
     <g id="text_15">
      <!-- 1.0 -->
      <g transform="translate(26.685 37.2501) scale(0.16 -0.16)">
       <use xlink:href="#DejaVuSans-31"/>
       <use xlink:href="#DejaVuSans-2e" transform="translate(63.623047 0)"/>
       <use xlink:href="#DejaVuSans-30" transform="translate(95.410156 0)"/>
      </g>
     </g>
    </g>
    <g id="text_16">
     <!-- Density -->
     <g transform="translate(19.3575 232.750938) rotate(-90) scale(0.16 -0.16)">
      <defs>
       <path id="DejaVuSans-44" d="M 1259 4147 
L 1259 519 
L 2022 519 
Q 2988 519 3436 956 
Q 3884 1394 3884 2338 
Q 3884 3275 3436 3711 
Q 2988 4147 2022 4147 
L 1259 4147 
z
M 628 4666 
L 1925 4666 
Q 3281 4666 3915 4102 
Q 4550 3538 4550 2338 
Q 4550 1131 3912 565 
Q 3275 0 1925 0 
L 628 0 
L 628 4666 
z
" transform="scale(0.015625)"/>
       <path id="DejaVuSans-6e" d="M 3513 2113 
L 3513 0 
L 2938 0 
L 2938 2094 
Q 2938 2591 2744 2837 
Q 2550 3084 2163 3084 
Q 1697 3084 1428 2787 
Q 1159 2491 1159 1978 
L 1159 0 
L 581 0 
L 581 3500 
L 1159 3500 
L 1159 2956 
Q 1366 3272 1645 3428 
Q 1925 3584 2291 3584 
Q 2894 3584 3203 3211 
Q 3513 2838 3513 2113 
z
" transform="scale(0.015625)"/>
       <path id="DejaVuSans-79" d="M 2059 -325 
Q 1816 -950 1584 -1140 
Q 1353 -1331 966 -1331 
L 506 -1331 
L 506 -850 
L 844 -850 
Q 1081 -850 1212 -737 
Q 1344 -625 1503 -206 
L 1606 56 
L 191 3500 
L 800 3500 
L 1894 763 
L 2988 3500 
L 3597 3500 
L 2059 -325 
z
" transform="scale(0.015625)"/>
      </defs>
      <use xlink:href="#DejaVuSans-44"/>
      <use xlink:href="#DejaVuSans-65" transform="translate(77.001953 0)"/>
      <use xlink:href="#DejaVuSans-6e" transform="translate(138.525391 0)"/>
      <use xlink:href="#DejaVuSans-73" transform="translate(201.904297 0)"/>
      <use xlink:href="#DejaVuSans-69" transform="translate(254.003906 0)"/>
      <use xlink:href="#DejaVuSans-74" transform="translate(281.787109 0)"/>
      <use xlink:href="#DejaVuSans-79" transform="translate(320.996094 0)"/>
     </g>
    </g>
   </g>
   <g id="line2d_15">
    <path d="M 88.559091 377.795906 
L 239.401667 377.600445 
L 257.147853 377.326731 
L 292.640224 376.785417 
L 316.301804 375.862478 
L 322.2172 375.465415 
L 328.132595 374.890921 
L 348.836478 372.480997 
L 354.751873 371.488033 
L 360.667268 370.173056 
L 372.498058 367.188558 
L 375.455756 366.292065 
L 378.413454 365.232977 
L 381.371151 364.013305 
L 384.328849 362.613484 
L 387.286546 360.961494 
L 390.244244 358.993512 
L 393.201942 356.743857 
L 399.117337 351.836363 
L 402.075034 349.128282 
L 405.032732 345.924943 
L 407.990429 341.931732 
L 410.948127 336.941326 
L 413.905825 330.767797 
L 416.863522 323.20095 
L 419.82122 314.25637 
L 422.778917 304.668352 
L 425.736615 296.124446 
L 428.694312 290.756103 
L 431.65201 290.035734 
L 434.609708 293.892998 
L 437.567405 300.796909 
L 440.525103 308.732949 
L 443.4828 316.248726 
L 446.440498 322.806555 
L 449.398196 328.427643 
L 452.355893 333.210254 
L 455.313591 337.197048 
L 458.271288 340.527982 
L 470.102079 352.328559 
L 473.059776 354.911114 
L 476.017474 357.154257 
L 478.975171 359.152366 
L 481.932869 360.994881 
L 484.890566 362.680658 
L 487.848264 364.168564 
L 493.763659 366.678869 
L 502.636752 370.136097 
L 508.552147 371.981463 
L 514.467542 373.512837 
L 520.382937 374.73357 
L 523.340635 375.147213 
L 526.298333 375.421303 
L 532.213728 375.651012 
L 541.08682 375.855218 
L 547.002216 376.313192 
L 552.917611 376.839684 
L 558.833006 377.163203 
L 567.706099 377.288545 
L 591.367679 377.299495 
L 612.071562 377.716398 
L 629.817748 377.788311 
L 671.225514 377.789603 
L 677.140909 377.795906 
L 677.140909 377.795906 
" clip-path="url(#pa7d316dafa)" style="fill: none; stroke: #a20025; stroke-width: 1.5; stroke-linecap: square"/>
   </g>
   <g id="line2d_16">
    <path d="M 430.087613 377.797188 
L 430.087613 26.877187 
" clip-path="url(#pa7d316dafa)" style="fill: none; stroke-dasharray: 5.55,2.4; stroke-dashoffset: 0; stroke: #6c8ebf; stroke-width: 1.5"/>
   </g>
   <g id="patch_111">
    <path d="M 59.13 377.797188 
L 59.13 26.877187 
" style="fill: none; stroke: #000000; stroke-width: 0.8; stroke-linejoin: miter; stroke-linecap: square"/>
   </g>
   <g id="patch_112">
    <path d="M 706.57 377.797188 
L 706.57 26.877187 
" style="fill: none; stroke: #000000; stroke-width: 0.8; stroke-linejoin: miter; stroke-linecap: square"/>
   </g>
   <g id="patch_113">
    <path d="M 59.13 377.797188 
L 706.57 377.797188 
" style="fill: none; stroke: #000000; stroke-width: 0.8; stroke-linejoin: miter; stroke-linecap: square"/>
   </g>
   <g id="patch_114">
    <path d="M 59.13 26.877187 
L 706.57 26.877187 
" style="fill: none; stroke: #000000; stroke-width: 0.8; stroke-linejoin: miter; stroke-linecap: square"/>
   </g>
   <g id="text_17">
    <g id="patch_115">
     <path d="M 526.327687 101.892562 
L 674.198 101.892562 
Q 677.198 101.892562 677.198 98.892562 
L 677.198 44.423188 
Q 677.198 41.423188 674.198 41.423188 
L 526.327687 41.423188 
Q 523.327687 41.423188 523.327687 44.423188 
L 523.327687 98.892562 
Q 523.327687 101.892562 526.327687 101.892562 
z
" style="fill: #ffffff; opacity: 0.8; stroke: #808080; stroke-linejoin: miter"/>
    </g>
    <!-- Mean weight: 0.0644 -->
    <g transform="translate(568.519875 52.021625) scale(0.1 -0.1)">
     <defs>
      <path id="DejaVuSans-61" d="M 2194 1759 
Q 1497 1759 1228 1600 
Q 959 1441 959 1056 
Q 959 750 1161 570 
Q 1363 391 1709 391 
Q 2188 391 2477 730 
Q 2766 1069 2766 1631 
L 2766 1759 
L 2194 1759 
z
M 3341 1997 
L 3341 0 
L 2766 0 
L 2766 531 
Q 2569 213 2275 61 
Q 1981 -91 1556 -91 
Q 1019 -91 701 211 
Q 384 513 384 1019 
Q 384 1609 779 1909 
Q 1175 2209 1959 2209 
L 2766 2209 
L 2766 2266 
Q 2766 2663 2505 2880 
Q 2244 3097 1772 3097 
Q 1472 3097 1187 3025 
Q 903 2953 641 2809 
L 641 3341 
Q 956 3463 1253 3523 
Q 1550 3584 1831 3584 
Q 2591 3584 2966 3190 
Q 3341 2797 3341 1997 
z
" transform="scale(0.015625)"/>
      <path id="DejaVuSans-77" d="M 269 3500 
L 844 3500 
L 1563 769 
L 2278 3500 
L 2956 3500 
L 3675 769 
L 4391 3500 
L 4966 3500 
L 4050 0 
L 3372 0 
L 2619 2869 
L 1863 0 
L 1184 0 
L 269 3500 
z
" transform="scale(0.015625)"/>
      <path id="DejaVuSans-3a" d="M 750 794 
L 1409 794 
L 1409 0 
L 750 0 
L 750 794 
z
M 750 3309 
L 1409 3309 
L 1409 2516 
L 750 2516 
L 750 3309 
z
" transform="scale(0.015625)"/>
     </defs>
     <use xlink:href="#DejaVuSans-4d"/>
     <use xlink:href="#DejaVuSans-65" transform="translate(86.279297 0)"/>
     <use xlink:href="#DejaVuSans-61" transform="translate(147.802734 0)"/>
     <use xlink:href="#DejaVuSans-6e" transform="translate(209.082031 0)"/>
     <use xlink:href="#DejaVuSans-20" transform="translate(272.460938 0)"/>
     <use xlink:href="#DejaVuSans-77" transform="translate(304.248047 0)"/>
     <use xlink:href="#DejaVuSans-65" transform="translate(386.035156 0)"/>
     <use xlink:href="#DejaVuSans-69" transform="translate(447.558594 0)"/>
     <use xlink:href="#DejaVuSans-67" transform="translate(475.341797 0)"/>
     <use xlink:href="#DejaVuSans-68" transform="translate(538.818359 0)"/>
     <use xlink:href="#DejaVuSans-74" transform="translate(602.197266 0)"/>
     <use xlink:href="#DejaVuSans-3a" transform="translate(641.40625 0)"/>
     <use xlink:href="#DejaVuSans-20" transform="translate(675.097656 0)"/>
     <use xlink:href="#DejaVuSans-30" transform="translate(706.884766 0)"/>
     <use xlink:href="#DejaVuSans-2e" transform="translate(770.507812 0)"/>
     <use xlink:href="#DejaVuSans-30" transform="translate(802.294922 0)"/>
     <use xlink:href="#DejaVuSans-36" transform="translate(865.917969 0)"/>
     <use xlink:href="#DejaVuSans-34" transform="translate(929.541016 0)"/>
     <use xlink:href="#DejaVuSans-34" transform="translate(993.164062 0)"/>
    </g>
    <!-- Std. dev: 2.6892 -->
    <g transform="translate(591.81675 63.219437) scale(0.1 -0.1)">
     <defs>
      <path id="DejaVuSans-53" d="M 3425 4513 
L 3425 3897 
Q 3066 4069 2747 4153 
Q 2428 4238 2131 4238 
Q 1616 4238 1336 4038 
Q 1056 3838 1056 3469 
Q 1056 3159 1242 3001 
Q 1428 2844 1947 2747 
L 2328 2669 
Q 3034 2534 3370 2195 
Q 3706 1856 3706 1288 
Q 3706 609 3251 259 
Q 2797 -91 1919 -91 
Q 1588 -91 1214 -16 
Q 841 59 441 206 
L 441 856 
Q 825 641 1194 531 
Q 1563 422 1919 422 
Q 2459 422 2753 634 
Q 3047 847 3047 1241 
Q 3047 1584 2836 1778 
Q 2625 1972 2144 2069 
L 1759 2144 
Q 1053 2284 737 2584 
Q 422 2884 422 3419 
Q 422 4038 858 4394 
Q 1294 4750 2059 4750 
Q 2388 4750 2728 4690 
Q 3069 4631 3425 4513 
z
" transform="scale(0.015625)"/>
      <path id="DejaVuSans-76" d="M 191 3500 
L 800 3500 
L 1894 563 
L 2988 3500 
L 3597 3500 
L 2284 0 
L 1503 0 
L 191 3500 
z
" transform="scale(0.015625)"/>
      <path id="DejaVuSans-39" d="M 703 97 
L 703 672 
Q 941 559 1184 500 
Q 1428 441 1663 441 
Q 2288 441 2617 861 
Q 2947 1281 2994 2138 
Q 2813 1869 2534 1725 
Q 2256 1581 1919 1581 
Q 1219 1581 811 2004 
Q 403 2428 403 3163 
Q 403 3881 828 4315 
Q 1253 4750 1959 4750 
Q 2769 4750 3195 4129 
Q 3622 3509 3622 2328 
Q 3622 1225 3098 567 
Q 2575 -91 1691 -91 
Q 1453 -91 1209 -44 
Q 966 3 703 97 
z
M 1959 2075 
Q 2384 2075 2632 2365 
Q 2881 2656 2881 3163 
Q 2881 3666 2632 3958 
Q 2384 4250 1959 4250 
Q 1534 4250 1286 3958 
Q 1038 3666 1038 3163 
Q 1038 2656 1286 2365 
Q 1534 2075 1959 2075 
z
" transform="scale(0.015625)"/>
     </defs>
     <use xlink:href="#DejaVuSans-53"/>
     <use xlink:href="#DejaVuSans-74" transform="translate(63.476562 0)"/>
     <use xlink:href="#DejaVuSans-64" transform="translate(102.685547 0)"/>
     <use xlink:href="#DejaVuSans-2e" transform="translate(166.162109 0)"/>
     <use xlink:href="#DejaVuSans-20" transform="translate(197.949219 0)"/>
     <use xlink:href="#DejaVuSans-64" transform="translate(229.736328 0)"/>
     <use xlink:href="#DejaVuSans-65" transform="translate(293.212891 0)"/>
     <use xlink:href="#DejaVuSans-76" transform="translate(354.736328 0)"/>
     <use xlink:href="#DejaVuSans-3a" transform="translate(408.416016 0)"/>
     <use xlink:href="#DejaVuSans-20" transform="translate(442.107422 0)"/>
     <use xlink:href="#DejaVuSans-32" transform="translate(473.894531 0)"/>
     <use xlink:href="#DejaVuSans-2e" transform="translate(537.517578 0)"/>
     <use xlink:href="#DejaVuSans-36" transform="translate(569.304688 0)"/>
     <use xlink:href="#DejaVuSans-38" transform="translate(632.927734 0)"/>
     <use xlink:href="#DejaVuSans-39" transform="translate(696.550781 0)"/>
     <use xlink:href="#DejaVuSans-32" transform="translate(760.173828 0)"/>
    </g>
    <!-- Min weight: -20.7835 -->
    <g transform="translate(568.052687 74.41725) scale(0.1 -0.1)">
     <defs>
      <path id="DejaVuSans-2d" d="M 313 2009 
L 1997 2009 
L 1997 1497 
L 313 1497 
L 313 2009 
z
" transform="scale(0.015625)"/>
      <path id="DejaVuSans-37" d="M 525 4666 
L 3525 4666 
L 3525 4397 
L 1831 0 
L 1172 0 
L 2766 4134 
L 525 4134 
L 525 4666 
z
" transform="scale(0.015625)"/>
      <path id="DejaVuSans-33" d="M 2597 2516 
Q 3050 2419 3304 2112 
Q 3559 1806 3559 1356 
Q 3559 666 3084 287 
Q 2609 -91 1734 -91 
Q 1441 -91 1130 -33 
Q 819 25 488 141 
L 488 750 
Q 750 597 1062 519 
Q 1375 441 1716 441 
Q 2309 441 2620 675 
Q 2931 909 2931 1356 
Q 2931 1769 2642 2001 
Q 2353 2234 1838 2234 
L 1294 2234 
L 1294 2753 
L 1863 2753 
Q 2328 2753 2575 2939 
Q 2822 3125 2822 3475 
Q 2822 3834 2567 4026 
Q 2313 4219 1838 4219 
Q 1578 4219 1281 4162 
Q 984 4106 628 3988 
L 628 4550 
Q 988 4650 1302 4700 
Q 1616 4750 1894 4750 
Q 2613 4750 3031 4423 
Q 3450 4097 3450 3541 
Q 3450 3153 3228 2886 
Q 3006 2619 2597 2516 
z
" transform="scale(0.015625)"/>
     </defs>
     <use xlink:href="#DejaVuSans-4d"/>
     <use xlink:href="#DejaVuSans-69" transform="translate(86.279297 0)"/>
     <use xlink:href="#DejaVuSans-6e" transform="translate(114.0625 0)"/>
     <use xlink:href="#DejaVuSans-20" transform="translate(177.441406 0)"/>
     <use xlink:href="#DejaVuSans-77" transform="translate(209.228516 0)"/>
     <use xlink:href="#DejaVuSans-65" transform="translate(291.015625 0)"/>
     <use xlink:href="#DejaVuSans-69" transform="translate(352.539062 0)"/>
     <use xlink:href="#DejaVuSans-67" transform="translate(380.322266 0)"/>
     <use xlink:href="#DejaVuSans-68" transform="translate(443.798828 0)"/>
     <use xlink:href="#DejaVuSans-74" transform="translate(507.177734 0)"/>
     <use xlink:href="#DejaVuSans-3a" transform="translate(546.386719 0)"/>
     <use xlink:href="#DejaVuSans-20" transform="translate(580.078125 0)"/>
     <use xlink:href="#DejaVuSans-2d" transform="translate(611.865234 0)"/>
     <use xlink:href="#DejaVuSans-32" transform="translate(647.949219 0)"/>
     <use xlink:href="#DejaVuSans-30" transform="translate(711.572266 0)"/>
     <use xlink:href="#DejaVuSans-2e" transform="translate(775.195312 0)"/>
     <use xlink:href="#DejaVuSans-37" transform="translate(806.982422 0)"/>
     <use xlink:href="#DejaVuSans-38" transform="translate(870.605469 0)"/>
     <use xlink:href="#DejaVuSans-33" transform="translate(934.228516 0)"/>
     <use xlink:href="#DejaVuSans-35" transform="translate(997.851562 0)"/>
    </g>
    <!-- Max weight: 14.5485 -->
    <g transform="translate(568.72925 85.615062) scale(0.1 -0.1)">
     <defs>
      <path id="DejaVuSans-78" d="M 3513 3500 
L 2247 1797 
L 3578 0 
L 2900 0 
L 1881 1375 
L 863 0 
L 184 0 
L 1544 1831 
L 300 3500 
L 978 3500 
L 1906 2253 
L 2834 3500 
L 3513 3500 
z
" transform="scale(0.015625)"/>
     </defs>
     <use xlink:href="#DejaVuSans-4d"/>
     <use xlink:href="#DejaVuSans-61" transform="translate(86.279297 0)"/>
     <use xlink:href="#DejaVuSans-78" transform="translate(147.558594 0)"/>
     <use xlink:href="#DejaVuSans-20" transform="translate(206.738281 0)"/>
     <use xlink:href="#DejaVuSans-77" transform="translate(238.525391 0)"/>
     <use xlink:href="#DejaVuSans-65" transform="translate(320.3125 0)"/>
     <use xlink:href="#DejaVuSans-69" transform="translate(381.835938 0)"/>
     <use xlink:href="#DejaVuSans-67" transform="translate(409.619141 0)"/>
     <use xlink:href="#DejaVuSans-68" transform="translate(473.095703 0)"/>
     <use xlink:href="#DejaVuSans-74" transform="translate(536.474609 0)"/>
     <use xlink:href="#DejaVuSans-3a" transform="translate(575.683594 0)"/>
     <use xlink:href="#DejaVuSans-20" transform="translate(609.375 0)"/>
     <use xlink:href="#DejaVuSans-31" transform="translate(641.162109 0)"/>
     <use xlink:href="#DejaVuSans-34" transform="translate(704.785156 0)"/>
     <use xlink:href="#DejaVuSans-2e" transform="translate(768.408203 0)"/>
     <use xlink:href="#DejaVuSans-35" transform="translate(800.195312 0)"/>
     <use xlink:href="#DejaVuSans-34" transform="translate(863.818359 0)"/>
     <use xlink:href="#DejaVuSans-38" transform="translate(927.441406 0)"/>
     <use xlink:href="#DejaVuSans-35" transform="translate(991.064453 0)"/>
    </g>
    <!-- Non-zero weights: 1539/2048 -->
    <g transform="translate(526.327687 96.812875) scale(0.1 -0.1)">
     <defs>
      <path id="DejaVuSans-4e" d="M 628 4666 
L 1478 4666 
L 3547 763 
L 3547 4666 
L 4159 4666 
L 4159 0 
L 3309 0 
L 1241 3903 
L 1241 0 
L 628 0 
L 628 4666 
z
" transform="scale(0.015625)"/>
      <path id="DejaVuSans-7a" d="M 353 3500 
L 3084 3500 
L 3084 2975 
L 922 459 
L 3084 459 
L 3084 0 
L 275 0 
L 275 525 
L 2438 3041 
L 353 3041 
L 353 3500 
z
" transform="scale(0.015625)"/>
      <path id="DejaVuSans-72" d="M 2631 2963 
Q 2534 3019 2420 3045 
Q 2306 3072 2169 3072 
Q 1681 3072 1420 2755 
Q 1159 2438 1159 1844 
L 1159 0 
L 581 0 
L 581 3500 
L 1159 3500 
L 1159 2956 
Q 1341 3275 1631 3429 
Q 1922 3584 2338 3584 
Q 2397 3584 2469 3576 
Q 2541 3569 2628 3553 
L 2631 2963 
z
" transform="scale(0.015625)"/>
      <path id="DejaVuSans-2f" d="M 1625 4666 
L 2156 4666 
L 531 -594 
L 0 -594 
L 1625 4666 
z
" transform="scale(0.015625)"/>
     </defs>
     <use xlink:href="#DejaVuSans-4e"/>
     <use xlink:href="#DejaVuSans-6f" transform="translate(74.804688 0)"/>
     <use xlink:href="#DejaVuSans-6e" transform="translate(135.986328 0)"/>
     <use xlink:href="#DejaVuSans-2d" transform="translate(199.365234 0)"/>
     <use xlink:href="#DejaVuSans-7a" transform="translate(235.449219 0)"/>
     <use xlink:href="#DejaVuSans-65" transform="translate(287.939453 0)"/>
     <use xlink:href="#DejaVuSans-72" transform="translate(349.462891 0)"/>
     <use xlink:href="#DejaVuSans-6f" transform="translate(388.326172 0)"/>
     <use xlink:href="#DejaVuSans-20" transform="translate(449.507812 0)"/>
     <use xlink:href="#DejaVuSans-77" transform="translate(481.294922 0)"/>
     <use xlink:href="#DejaVuSans-65" transform="translate(563.082031 0)"/>
     <use xlink:href="#DejaVuSans-69" transform="translate(624.605469 0)"/>
     <use xlink:href="#DejaVuSans-67" transform="translate(652.388672 0)"/>
     <use xlink:href="#DejaVuSans-68" transform="translate(715.865234 0)"/>
     <use xlink:href="#DejaVuSans-74" transform="translate(779.244141 0)"/>
     <use xlink:href="#DejaVuSans-73" transform="translate(818.453125 0)"/>
     <use xlink:href="#DejaVuSans-3a" transform="translate(870.552734 0)"/>
     <use xlink:href="#DejaVuSans-20" transform="translate(904.244141 0)"/>
     <use xlink:href="#DejaVuSans-31" transform="translate(936.03125 0)"/>
     <use xlink:href="#DejaVuSans-35" transform="translate(999.654297 0)"/>
     <use xlink:href="#DejaVuSans-33" transform="translate(1063.277344 0)"/>
     <use xlink:href="#DejaVuSans-39" transform="translate(1126.900391 0)"/>
     <use xlink:href="#DejaVuSans-2f" transform="translate(1190.523438 0)"/>
     <use xlink:href="#DejaVuSans-32" transform="translate(1224.214844 0)"/>
     <use xlink:href="#DejaVuSans-30" transform="translate(1287.837891 0)"/>
     <use xlink:href="#DejaVuSans-34" transform="translate(1351.460938 0)"/>
     <use xlink:href="#DejaVuSans-38" transform="translate(1415.083984 0)"/>
    </g>
   </g>
   <g id="text_18">
    <!-- Distribution of Linear Model Weights -->
    <g transform="translate(219.192031 20.877187) scale(0.18 -0.18)">
     <defs>
      <path id="DejaVuSans-62" d="M 3116 1747 
Q 3116 2381 2855 2742 
Q 2594 3103 2138 3103 
Q 1681 3103 1420 2742 
Q 1159 2381 1159 1747 
Q 1159 1113 1420 752 
Q 1681 391 2138 391 
Q 2594 391 2855 752 
Q 3116 1113 3116 1747 
z
M 1159 2969 
Q 1341 3281 1617 3432 
Q 1894 3584 2278 3584 
Q 2916 3584 3314 3078 
Q 3713 2572 3713 1747 
Q 3713 922 3314 415 
Q 2916 -91 2278 -91 
Q 1894 -91 1617 61 
Q 1341 213 1159 525 
L 1159 0 
L 581 0 
L 581 4863 
L 1159 4863 
L 1159 2969 
z
" transform="scale(0.015625)"/>
      <path id="DejaVuSans-75" d="M 544 1381 
L 544 3500 
L 1119 3500 
L 1119 1403 
Q 1119 906 1312 657 
Q 1506 409 1894 409 
Q 2359 409 2629 706 
Q 2900 1003 2900 1516 
L 2900 3500 
L 3475 3500 
L 3475 0 
L 2900 0 
L 2900 538 
Q 2691 219 2414 64 
Q 2138 -91 1772 -91 
Q 1169 -91 856 284 
Q 544 659 544 1381 
z
M 1991 3584 
L 1991 3584 
z
" transform="scale(0.015625)"/>
      <path id="DejaVuSans-66" d="M 2375 4863 
L 2375 4384 
L 1825 4384 
Q 1516 4384 1395 4259 
Q 1275 4134 1275 3809 
L 1275 3500 
L 2222 3500 
L 2222 3053 
L 1275 3053 
L 1275 0 
L 697 0 
L 697 3053 
L 147 3053 
L 147 3500 
L 697 3500 
L 697 3744 
Q 697 4328 969 4595 
Q 1241 4863 1831 4863 
L 2375 4863 
z
" transform="scale(0.015625)"/>
      <path id="DejaVuSans-4c" d="M 628 4666 
L 1259 4666 
L 1259 531 
L 3531 531 
L 3531 0 
L 628 0 
L 628 4666 
z
" transform="scale(0.015625)"/>
     </defs>
     <use xlink:href="#DejaVuSans-44"/>
     <use xlink:href="#DejaVuSans-69" transform="translate(77.001953 0)"/>
     <use xlink:href="#DejaVuSans-73" transform="translate(104.785156 0)"/>
     <use xlink:href="#DejaVuSans-74" transform="translate(156.884766 0)"/>
     <use xlink:href="#DejaVuSans-72" transform="translate(196.09375 0)"/>
     <use xlink:href="#DejaVuSans-69" transform="translate(237.207031 0)"/>
     <use xlink:href="#DejaVuSans-62" transform="translate(264.990234 0)"/>
     <use xlink:href="#DejaVuSans-75" transform="translate(328.466797 0)"/>
     <use xlink:href="#DejaVuSans-74" transform="translate(391.845703 0)"/>
     <use xlink:href="#DejaVuSans-69" transform="translate(431.054688 0)"/>
     <use xlink:href="#DejaVuSans-6f" transform="translate(458.837891 0)"/>
     <use xlink:href="#DejaVuSans-6e" transform="translate(520.019531 0)"/>
     <use xlink:href="#DejaVuSans-20" transform="translate(583.398438 0)"/>
     <use xlink:href="#DejaVuSans-6f" transform="translate(615.185547 0)"/>
     <use xlink:href="#DejaVuSans-66" transform="translate(676.367188 0)"/>
     <use xlink:href="#DejaVuSans-20" transform="translate(711.572266 0)"/>
     <use xlink:href="#DejaVuSans-4c" transform="translate(743.359375 0)"/>
     <use xlink:href="#DejaVuSans-69" transform="translate(799.072266 0)"/>
     <use xlink:href="#DejaVuSans-6e" transform="translate(826.855469 0)"/>
     <use xlink:href="#DejaVuSans-65" transform="translate(890.234375 0)"/>
     <use xlink:href="#DejaVuSans-61" transform="translate(951.757812 0)"/>
     <use xlink:href="#DejaVuSans-72" transform="translate(1013.037109 0)"/>
     <use xlink:href="#DejaVuSans-20" transform="translate(1054.150391 0)"/>
     <use xlink:href="#DejaVuSans-4d" transform="translate(1085.9375 0)"/>
     <use xlink:href="#DejaVuSans-6f" transform="translate(1172.216797 0)"/>
     <use xlink:href="#DejaVuSans-64" transform="translate(1233.398438 0)"/>
     <use xlink:href="#DejaVuSans-65" transform="translate(1296.875 0)"/>
     <use xlink:href="#DejaVuSans-6c" transform="translate(1358.398438 0)"/>
     <use xlink:href="#DejaVuSans-20" transform="translate(1386.181641 0)"/>
     <use xlink:href="#DejaVuSans-57" transform="translate(1417.96875 0)"/>
     <use xlink:href="#DejaVuSans-65" transform="translate(1510.970703 0)"/>
     <use xlink:href="#DejaVuSans-69" transform="translate(1572.494141 0)"/>
     <use xlink:href="#DejaVuSans-67" transform="translate(1600.277344 0)"/>
     <use xlink:href="#DejaVuSans-68" transform="translate(1663.753906 0)"/>
     <use xlink:href="#DejaVuSans-74" transform="translate(1727.132812 0)"/>
     <use xlink:href="#DejaVuSans-73" transform="translate(1766.341797 0)"/>
    </g>
   </g>
  </g>
 </g>
 <defs>
  <clipPath id="pa7d316dafa">
   <rect x="59.13" y="26.877187" width="647.44" height="350.92"/>
  </clipPath>
 </defs>
</svg>
