<svg xmlns="http://www.w3.org/2000/svg" xmlns:rdkit="http://www.rdkit.org/xml" xmlns:xlink="http://www.w3.org/1999/xlink" version="1.1" baseProfile="full" xml:space="preserve" width="150px" height="150px" viewBox="0 0 150 150">
<!-- END OF HEADER -->
<rect style="opacity:1.0;fill:#FFFFFF;stroke:none" width="150.0" height="150.0" x="0.0" y="0.0"> </rect>
<ellipse cx="115.5" cy="111.4" rx="6.0" ry="6.0" class="atom-1" style="fill:#E5E533;fill-rule:evenodd;stroke:#E5E533;stroke-width:1.0px;stroke-linecap:butt;stroke-linejoin:miter;stroke-opacity:1"/>
<ellipse cx="90.0" cy="96.0" rx="6.0" ry="6.0" class="atom-2" style="fill:#E5E533;fill-rule:evenodd;stroke:#E5E533;stroke-width:1.0px;stroke-linecap:butt;stroke-linejoin:miter;stroke-opacity:1"/>
<ellipse cx="90.6" cy="66.2" rx="6.0" ry="6.0" class="atom-3" style="fill:#E5E533;fill-rule:evenodd;stroke:#E5E533;stroke-width:1.0px;stroke-linecap:butt;stroke-linejoin:miter;stroke-opacity:1"/>
<ellipse cx="38.9" cy="65.1" rx="6.0" ry="6.0" class="atom-6" style="fill:#CCCCCC;fill-rule:evenodd;stroke:#CCCCCC;stroke-width:1.0px;stroke-linecap:butt;stroke-linejoin:miter;stroke-opacity:1"/>
<ellipse cx="38.3" cy="94.9" rx="6.0" ry="6.0" class="atom-8" style="fill:#CCCCCC;fill-rule:evenodd;stroke:#CCCCCC;stroke-width:1.0px;stroke-linecap:butt;stroke-linejoin:miter;stroke-opacity:1"/>
<ellipse cx="63.9" cy="110.4" rx="6.0" ry="6.0" class="atom-9" style="fill:#9999E5;fill-rule:evenodd;stroke:#9999E5;stroke-width:1.0px;stroke-linecap:butt;stroke-linejoin:miter;stroke-opacity:1"/>
<path class="bond-0 atom-0 atom-1" d="M 140.6,97.6 L 115.5,111.4" style="fill:none;fill-rule:evenodd;stroke:#E5E5E5;stroke-width:1.6px;stroke-linecap:butt;stroke-linejoin:miter;stroke-opacity:1"/>
<path class="bond-0 atom-0 atom-1" d="M 138.4,93.7 L 115.6,106.2" style="fill:none;fill-rule:evenodd;stroke:#E5E5E5;stroke-width:1.6px;stroke-linecap:butt;stroke-linejoin:miter;stroke-opacity:1;stroke-dasharray:6,4"/>
<path class="bond-1 atom-1 atom-2" d="M 115.5,111.4 L 90.0,96.0" style="fill:none;fill-rule:evenodd;stroke:#000000;stroke-width:2.0px;stroke-linecap:butt;stroke-linejoin:miter;stroke-opacity:1"/>
<path class="bond-2 atom-2 atom-3" d="M 90.0,96.0 L 90.6,66.2" style="fill:none;fill-rule:evenodd;stroke:#000000;stroke-width:2.0px;stroke-linecap:butt;stroke-linejoin:miter;stroke-opacity:1"/>
<path class="bond-2 atom-2 atom-3" d="M 85.5,93.3 L 86.0,68.7" style="fill:none;fill-rule:evenodd;stroke:#000000;stroke-width:2.0px;stroke-linecap:butt;stroke-linejoin:miter;stroke-opacity:1"/>
<path class="bond-3 atom-3 atom-4" d="M 90.6,66.2 L 115.7,52.4" style="fill:none;fill-rule:evenodd;stroke:#E5E5E5;stroke-width:1.6px;stroke-linecap:butt;stroke-linejoin:miter;stroke-opacity:1"/>
<path class="bond-4 atom-5 atom-3" d="M 72.8,55.4 L 93.0,64.9 L 90.6,66.2 L 90.5,68.9 Z" style="fill:#E5E5E5;fill-rule:evenodd;fill-opacity:1;stroke:#E5E5E5;stroke-width:0.5px;stroke-linecap:butt;stroke-linejoin:miter;stroke-miterlimit:10;stroke-opacity:1;"/>
<path class="bond-5 atom-5 atom-6" d="M 63.2,51.8 L 38.9,65.1" style="fill:none;fill-rule:evenodd;stroke:#E5E5E5;stroke-width:1.6px;stroke-linecap:butt;stroke-linejoin:miter;stroke-opacity:1"/>
<path class="bond-6 atom-6 atom-7" d="M 37.5,61.9 L 38.1,61.7" style="fill:none;fill-rule:evenodd;stroke:#E5E5E5;stroke-width:1.0px;stroke-linecap:butt;stroke-linejoin:miter;stroke-opacity:1"/>
<path class="bond-6 atom-6 atom-7" d="M 36.1,58.7 L 37.2,58.3" style="fill:none;fill-rule:evenodd;stroke:#E5E5E5;stroke-width:1.0px;stroke-linecap:butt;stroke-linejoin:miter;stroke-opacity:1"/>
<path class="bond-6 atom-6 atom-7" d="M 34.7,55.4 L 36.3,54.9" style="fill:none;fill-rule:evenodd;stroke:#E5E5E5;stroke-width:1.0px;stroke-linecap:butt;stroke-linejoin:miter;stroke-opacity:1"/>
<path class="bond-6 atom-6 atom-7" d="M 33.3,52.2 L 35.5,51.4" style="fill:none;fill-rule:evenodd;stroke:#E5E5E5;stroke-width:1.0px;stroke-linecap:butt;stroke-linejoin:miter;stroke-opacity:1"/>
<path class="bond-6 atom-6 atom-7" d="M 31.9,48.9 L 34.6,48.0" style="fill:none;fill-rule:evenodd;stroke:#E5E5E5;stroke-width:1.0px;stroke-linecap:butt;stroke-linejoin:miter;stroke-opacity:1"/>
<path class="bond-6 atom-6 atom-7" d="M 30.5,45.7 L 33.7,44.6" style="fill:none;fill-rule:evenodd;stroke:#E5E5E5;stroke-width:1.0px;stroke-linecap:butt;stroke-linejoin:miter;stroke-opacity:1"/>
<path class="bond-6 atom-6 atom-7" d="M 29.1,42.4 L 32.8,41.2" style="fill:none;fill-rule:evenodd;stroke:#E5E5E5;stroke-width:1.0px;stroke-linecap:butt;stroke-linejoin:miter;stroke-opacity:1"/>
<path class="bond-6 atom-6 atom-7" d="M 27.7,39.2 L 32.0,37.7" style="fill:none;fill-rule:evenodd;stroke:#E5E5E5;stroke-width:1.0px;stroke-linecap:butt;stroke-linejoin:miter;stroke-opacity:1"/>
<path class="bond-7 atom-6 atom-8" d="M 38.9,65.1 L 38.3,94.9" style="fill:none;fill-rule:evenodd;stroke:#000000;stroke-width:2.0px;stroke-linecap:butt;stroke-linejoin:miter;stroke-opacity:1"/>
<path class="bond-8 atom-8 atom-9" d="M 38.3,94.9 L 63.9,110.4" style="fill:none;fill-rule:evenodd;stroke:#000000;stroke-width:2.0px;stroke-linecap:butt;stroke-linejoin:miter;stroke-opacity:1"/>
<path class="bond-9 atom-6 atom-10" d="M 38.9,65.1 L 12.5,69.3" style="fill:none;fill-rule:evenodd;stroke:#E5E5E5;stroke-width:1.6px;stroke-linecap:butt;stroke-linejoin:miter;stroke-opacity:1"/>
<path class="bond-10 atom-9 atom-2" d="M 63.9,110.4 L 90.0,96.0" style="fill:none;fill-rule:evenodd;stroke:#000000;stroke-width:2.0px;stroke-linecap:butt;stroke-linejoin:miter;stroke-opacity:1"/>
<path d="M 116.1,111.1 L 115.5,111.4 L 114.8,111.0" style="fill:none;stroke:#E5E5E5;stroke-width:1.6px;stroke-linecap:butt;stroke-linejoin:miter;stroke-miterlimit:10;stroke-opacity:1;"/>
<path d="M 90.6,66.9 L 90.6,66.2 L 91.2,65.8" style="fill:none;stroke:#000000;stroke-width:2.0px;stroke-linecap:butt;stroke-linejoin:miter;stroke-miterlimit:10;stroke-opacity:1;"/>
<path d="M 38.4,93.4 L 38.3,94.9 L 39.6,95.7" style="fill:none;stroke:#000000;stroke-width:2.0px;stroke-linecap:butt;stroke-linejoin:miter;stroke-miterlimit:10;stroke-opacity:1;"/>
<path d="M 62.6,109.6 L 63.9,110.4 L 65.2,109.6" style="fill:none;stroke:#000000;stroke-width:2.0px;stroke-linecap:butt;stroke-linejoin:miter;stroke-miterlimit:10;stroke-opacity:1;"/>
<path class="atom-0" d="M 138.9 94.1 L 140.2 92.9 L 138.5 92.5 L 138.8 91.7 L 140.3 92.4 L 140.1 90.8 L 141.0 90.8 L 140.7 92.4 L 142.2 91.7 L 142.5 92.5 L 140.8 92.8 L 142.0 94.1 L 141.3 94.6 L 140.5 93.1 L 139.6 94.6 L 138.9 94.1 " fill="#191919"/>
<path class="atom-4" d="M 115.1 50.9 L 116.3 49.6 L 114.7 49.3 L 114.9 48.4 L 116.4 49.2 L 116.2 47.5 L 117.1 47.5 L 116.9 49.2 L 118.4 48.5 L 118.7 49.3 L 117.0 49.6 L 118.2 50.8 L 117.5 51.4 L 116.6 49.8 L 115.8 51.4 L 115.1 50.9 " fill="#191919"/>
<path class="atom-5" d="M 59.7 49.8 L 61.0 48.6 L 59.3 48.2 L 59.6 47.4 L 61.1 48.1 L 60.9 46.5 L 61.8 46.5 L 61.5 48.1 L 63.0 47.4 L 63.3 48.2 L 61.6 48.5 L 62.8 49.8 L 62.1 50.3 L 61.3 48.8 L 60.4 50.3 L 59.7 49.8 " fill="#191919"/>
<path class="atom-5" d="M 64.2 46.6 L 65.3 46.6 L 65.3 50.2 L 69.7 50.2 L 69.7 46.6 L 70.8 46.6 L 70.8 55.1 L 69.7 55.1 L 69.7 51.2 L 65.3 51.2 L 65.3 55.1 L 64.2 55.1 L 64.2 46.6 " fill="#191919"/>
<path class="atom-7" d="M 27.7 36.0 L 29.0 34.7 L 27.3 34.4 L 27.6 33.5 L 29.1 34.3 L 28.9 32.6 L 29.8 32.6 L 29.5 34.3 L 31.1 33.6 L 31.3 34.4 L 29.7 34.7 L 30.8 36.0 L 30.1 36.5 L 29.3 34.9 L 28.5 36.5 L 27.7 36.0 " fill="#191919"/>
<path class="atom-10" d="M 7.9 68.8 L 9.1 67.5 L 7.5 67.2 L 7.8 66.3 L 9.3 67.1 L 9.0 65.4 L 9.9 65.4 L 9.7 67.1 L 11.2 66.4 L 11.5 67.2 L 9.8 67.5 L 11.0 68.8 L 10.3 69.3 L 9.5 67.7 L 8.6 69.3 L 7.9 68.8 " fill="#191919"/>
</svg>