<svg xmlns="http://www.w3.org/2000/svg" xmlns:rdkit="http://www.rdkit.org/xml" xmlns:xlink="http://www.w3.org/1999/xlink" version="1.1" baseProfile="full" xml:space="preserve" width="150px" height="150px" viewBox="0 0 150 150">
<!-- END OF HEADER -->
<rect style="opacity:1.0;fill:#FFFFFF;stroke:none" width="150.0" height="150.0" x="0.0" y="0.0"> </rect>
<ellipse cx="94.0" cy="106.8" rx="10.7" ry="10.7" class="atom-1" style="fill:#E5E533;fill-rule:evenodd;stroke:#E5E533;stroke-width:1.0px;stroke-linecap:butt;stroke-linejoin:miter;stroke-opacity:1"/>
<ellipse cx="106.0" cy="54.7" rx="10.7" ry="10.7" class="atom-2" style="fill:#9999E5;fill-rule:evenodd;stroke:#9999E5;stroke-width:1.0px;stroke-linecap:butt;stroke-linejoin:miter;stroke-opacity:1"/>
<ellipse cx="66.9" cy="18.2" rx="10.7" ry="10.7" class="atom-3" style="fill:#E5E533;fill-rule:evenodd;stroke:#E5E533;stroke-width:1.0px;stroke-linecap:butt;stroke-linejoin:miter;stroke-opacity:1"/>
<path class="bond-0 atom-0 atom-1" d="M 127.7,138.3 L 94.0,106.8" style="fill:none;fill-rule:evenodd;stroke:#E5E5E5;stroke-width:2.9px;stroke-linecap:butt;stroke-linejoin:miter;stroke-opacity:1"/>
<path class="bond-1 atom-1 atom-2" d="M 94.0,106.8 L 106.0,54.7" style="fill:none;fill-rule:evenodd;stroke:#000000;stroke-width:2.0px;stroke-linecap:butt;stroke-linejoin:miter;stroke-opacity:1"/>
<path class="bond-1 atom-1 atom-2" d="M 87.2,100.5 L 97.2,57.4" style="fill:none;fill-rule:evenodd;stroke:#000000;stroke-width:2.0px;stroke-linecap:butt;stroke-linejoin:miter;stroke-opacity:1;stroke-dasharray:6,4"/>
<path class="bond-2 atom-2 atom-3" d="M 106.0,54.7 L 66.9,18.2" style="fill:none;fill-rule:evenodd;stroke:#000000;stroke-width:2.0px;stroke-linecap:butt;stroke-linejoin:miter;stroke-opacity:1"/>
<path class="bond-2 atom-2 atom-3" d="M 97.2,57.4 L 64.9,27.2" style="fill:none;fill-rule:evenodd;stroke:#000000;stroke-width:2.0px;stroke-linecap:butt;stroke-linejoin:miter;stroke-opacity:1;stroke-dasharray:6,4"/>
<path class="bond-3 atom-3 atom-4" d="M 66.9,18.2 L 21.1,32.2" style="fill:none;fill-rule:evenodd;stroke:#E5E5E5;stroke-width:2.9px;stroke-linecap:butt;stroke-linejoin:miter;stroke-opacity:1"/>
<path class="bond-3 atom-3 atom-4" d="M 64.9,27.2 L 23.5,39.8" style="fill:none;fill-rule:evenodd;stroke:#E5E5E5;stroke-width:2.9px;stroke-linecap:butt;stroke-linejoin:miter;stroke-opacity:1;stroke-dasharray:6,4"/>
<path class="bond-4 atom-5 atom-1" d="M 47.0,116.9 L 95.0,102.3" style="fill:none;fill-rule:evenodd;stroke:#E5E5E5;stroke-width:2.9px;stroke-linecap:butt;stroke-linejoin:miter;stroke-opacity:1"/>
<path class="bond-4 atom-5 atom-1" d="M 49.3,124.6 L 97.3,109.9" style="fill:none;fill-rule:evenodd;stroke:#E5E5E5;stroke-width:2.9px;stroke-linecap:butt;stroke-linejoin:miter;stroke-opacity:1;stroke-dasharray:6,4"/>
<path d="M 105.4,57.3 L 106.0,54.7 L 104.1,52.9" style="fill:none;stroke:#000000;stroke-width:2.0px;stroke-linecap:butt;stroke-linejoin:miter;stroke-opacity:1;"/>
<path d="M 67.9,19.1 L 66.9,18.2 L 65.8,18.5" style="fill:none;stroke:#000000;stroke-width:2.0px;stroke-linecap:butt;stroke-linejoin:miter;stroke-opacity:1;"/>
<path class="atom-0" d="M 130.2 141.6 L 132.4 139.3 L 129.4 138.7 L 129.9 137.2 L 132.6 138.6 L 132.2 135.6 L 133.8 135.6 L 133.4 138.5 L 136.1 137.3 L 136.6 138.7 L 133.6 139.3 L 135.8 141.6 L 134.5 142.5 L 133.0 139.7 L 131.5 142.5 L 130.2 141.6 " fill="#191919"/>
<path class="atom-4" d="M 14.1 35.9 L 16.3 33.7 L 13.4 33.1 L 13.8 31.5 L 16.6 32.9 L 16.2 29.9 L 17.8 29.9 L 17.3 32.9 L 20.1 31.6 L 20.6 33.1 L 17.6 33.6 L 19.7 35.9 L 18.4 36.9 L 16.9 34.0 L 15.4 36.9 L 14.1 35.9 " fill="#191919"/>
<path class="atom-5" d="M 40.0 120.7 L 42.2 118.4 L 39.2 117.8 L 39.7 116.3 L 42.4 117.7 L 42.0 114.7 L 43.6 114.7 L 43.2 117.6 L 45.9 116.4 L 46.4 117.8 L 43.4 118.4 L 45.5 120.7 L 44.2 121.6 L 42.8 118.8 L 41.3 121.6 L 40.0 120.7 " fill="#191919"/>
</svg>