<svg xmlns="http://www.w3.org/2000/svg" xmlns:rdkit="http://www.rdkit.org/xml" xmlns:xlink="http://www.w3.org/1999/xlink" version="1.1" baseProfile="full" xml:space="preserve" width="150px" height="150px" viewBox="0 0 150 150">
<!-- END OF HEADER -->
<rect style="opacity:1.0;fill:#FFFFFF;stroke:none" width="150.0" height="150.0" x="0.0" y="0.0"> </rect>
<ellipse cx="129.7" cy="73.1" rx="12.8" ry="12.8" class="atom-1" style="fill:#E5E533;fill-rule:evenodd;stroke:#E5E533;stroke-width:1.0px;stroke-linecap:butt;stroke-linejoin:miter;stroke-opacity:1"/>
<ellipse cx="82.9" cy="29.3" rx="12.8" ry="12.8" class="atom-2" style="fill:#9999E5;fill-rule:evenodd;stroke:#9999E5;stroke-width:1.0px;stroke-linecap:butt;stroke-linejoin:miter;stroke-opacity:1"/>
<ellipse cx="21.6" cy="48.0" rx="12.8" ry="12.8" class="atom-3" style="fill:#E5E533;fill-rule:evenodd;stroke:#E5E533;stroke-width:1.0px;stroke-linecap:butt;stroke-linejoin:miter;stroke-opacity:1"/>
<path class="bond-0 atom-0 atom-1" d="M 117.9,124.1 L 129.7,73.1" style="fill:none;fill-rule:evenodd;stroke:#E5E5E5;stroke-width:3.4px;stroke-linecap:butt;stroke-linejoin:miter;stroke-opacity:1"/>
<path class="bond-0 atom-0 atom-1" d="M 108.5,122.0 L 119.1,76.3" style="fill:none;fill-rule:evenodd;stroke:#E5E5E5;stroke-width:3.4px;stroke-linecap:butt;stroke-linejoin:miter;stroke-opacity:1;stroke-dasharray:6,4"/>
<path class="bond-1 atom-1 atom-2" d="M 129.7,73.1 L 82.9,29.3" style="fill:none;fill-rule:evenodd;stroke:#000000;stroke-width:2.0px;stroke-linecap:butt;stroke-linejoin:miter;stroke-opacity:1"/>
<path class="bond-1 atom-1 atom-2" d="M 119.1,76.3 L 80.4,40.1" style="fill:none;fill-rule:evenodd;stroke:#000000;stroke-width:2.0px;stroke-linecap:butt;stroke-linejoin:miter;stroke-opacity:1;stroke-dasharray:6,4"/>
<path class="bond-2 atom-2 atom-3" d="M 82.9,29.3 L 21.6,48.0" style="fill:none;fill-rule:evenodd;stroke:#000000;stroke-width:2.0px;stroke-linecap:butt;stroke-linejoin:miter;stroke-opacity:1"/>
<path class="bond-2 atom-2 atom-3" d="M 80.4,40.1 L 29.7,55.6" style="fill:none;fill-rule:evenodd;stroke:#000000;stroke-width:2.0px;stroke-linecap:butt;stroke-linejoin:miter;stroke-opacity:1;stroke-dasharray:6,4"/>
<path class="bond-3 atom-3 atom-4" d="M 21.6,48.0 L 9.7,99.1" style="fill:none;fill-rule:evenodd;stroke:#E5E5E5;stroke-width:3.4px;stroke-linecap:butt;stroke-linejoin:miter;stroke-opacity:1"/>
<path class="bond-3 atom-3 atom-4" d="M 29.7,55.6 L 19.1,101.3" style="fill:none;fill-rule:evenodd;stroke:#E5E5E5;stroke-width:3.4px;stroke-linecap:butt;stroke-linejoin:miter;stroke-opacity:1;stroke-dasharray:6,4"/>
<path d="M 129.4,74.3 L 129.7,73.1 L 128.5,72.0" style="fill:none;stroke:#E5E5E5;stroke-width:3.4px;stroke-linecap:butt;stroke-linejoin:miter;stroke-opacity:1;"/>
<path d="M 85.2,31.5 L 82.9,29.3 L 79.8,30.3" style="fill:none;stroke:#000000;stroke-width:2.0px;stroke-linecap:butt;stroke-linejoin:miter;stroke-opacity:1;"/>
<path d="M 23.1,47.6 L 21.6,48.0 L 21.3,49.3" style="fill:none;stroke:#000000;stroke-width:2.0px;stroke-linecap:butt;stroke-linejoin:miter;stroke-opacity:1;"/>
<path class="atom-0" d="M 107.1 132.4 L 109.8 129.7 L 106.3 128.9 L 106.8 127.1 L 110.0 128.8 L 109.6 125.2 L 111.5 125.2 L 111.0 128.7 L 114.3 127.2 L 114.8 128.9 L 111.2 129.6 L 113.8 132.4 L 112.2 133.5 L 110.5 130.1 L 108.7 133.5 L 107.1 132.4 " fill="#191919"/>
<path class="atom-4" d="M 8.4 109.5 L 11.0 106.8 L 7.5 106.1 L 8.0 104.2 L 11.3 105.9 L 10.8 102.3 L 12.8 102.3 L 12.2 105.9 L 15.5 104.3 L 16.1 106.1 L 12.5 106.7 L 15.1 109.5 L 13.5 110.6 L 11.7 107.2 L 9.9 110.6 L 8.4 109.5 " fill="#191919"/>
</svg>