<?xml version="1.0" encoding="utf-8" standalone="no"?>
<!DOCTYPE svg PUBLIC "-//W3C//DTD SVG 1.1//EN"
  "http://www.w3.org/Graphics/SVG/1.1/DTD/svg11.dtd">
<svg xmlns:xlink="http://www.w3.org/1999/xlink" width="716.565312pt" height="568.718594pt" viewBox="0 0 716.565312 568.718594" xmlns="http://www.w3.org/2000/svg" version="1.1">
 <metadata>
  <rdf:RDF xmlns:dc="http://purl.org/dc/elements/1.1/" xmlns:cc="http://creativecommons.org/ns#" xmlns:rdf="http://www.w3.org/1999/02/22-rdf-syntax-ns#">
   <cc:Work>
    <dc:type rdf:resource="http://purl.org/dc/dcmitype/StillImage"/>
    <dc:date>2026-07-13T18:38:03.887357</dc:date>
    <dc:format>image/svg+xml</dc:format>
    <dc:creator>
     <cc:Agent>
      <dc:title>Matplotlib v3.11.0, https://matplotlib.org/</dc:title>
     </cc:Agent>
    </dc:creator>
   </cc:Work>
  </rdf:RDF>
 </metadata>
 <defs>
  <style type="text/css">*{stroke-linejoin: round; stroke-linecap: butt}</style>
 </defs>
 <g id="figure_1">
  <g id="patch_1">
   <path d="M 0 568.718594 
L 716.565312 568.718594 
L 716.565312 0 
L 0 0 
z
" style="fill: #ffffff"/>
  </g>
  <g id="axes_1">
   <g id="patch_2">
    <path d="M 48.104219 526.5175 
L 674.184219 526.5175 
L 674.184219 25.3575 
L 48.104219 25.3575 
z
" style="fill: #ffffff"/>
   </g>
   <g id="matplotlib.axis_1">
    <g id="xtick_1">
     <g id="line2d_1">
      <defs>
       <path id="m471f60829f" d="M 0 0 
L 0 3.5 
" style="stroke: #000000; stroke-width: 0.8"/>
      </defs>
      <g>
       <use xlink:href="#m471f60829f" x="60.144219" y="526.5175" style="stroke: #000000; stroke-width: 0.8"/>
      </g>
     </g>
     <g id="text_1">
      <!-- 0.0 -->
      <g transform="translate(52.192656 541.115156) scale(0.1 -0.1)">
       <defs>
        <path id="DejaVuSans-13" d="M 2034 4250 
Q 1547 4250 1301 3770 
Q 1056 3291 1056 2328 
Q 1056 1369 1301 889 
Q 1547 409 2034 409 
Q 2525 409 2770 889 
Q 3016 1369 3016 2328 
Q 3016 3291 2770 3770 
Q 2525 4250 2034 4250 
z
M 2034 4750 
Q 2819 4750 3233 4129 
Q 3647 3509 3647 2328 
Q 3647 1150 3233 529 
Q 2819 -91 2034 -91 
Q 1250 -91 836 529 
Q 422 1150 422 2328 
Q 422 3509 836 4129 
Q 1250 4750 2034 4750 
z
" transform="scale(0.015625)"/>
        <path id="DejaVuSans-11" d="M 684 794 
L 1344 794 
L 1344 0 
L 684 0 
L 684 794 
z
" transform="scale(0.015625)"/>
       </defs>
       <use xlink:href="#DejaVuSans-13"/>
       <use xlink:href="#DejaVuSans-11" transform="translate(63.625 0)"/>
       <use xlink:href="#DejaVuSans-13" transform="translate(95.40625 0)"/>
      </g>
     </g>
    </g>
    <g id="xtick_2">
     <g id="line2d_2">
      <g>
       <use xlink:href="#m471f60829f" x="180.544219" y="526.5175" style="stroke: #000000; stroke-width: 0.8"/>
      </g>
     </g>
     <g id="text_2">
      <!-- 0.2 -->
      <g transform="translate(172.592656 541.115156) scale(0.1 -0.1)">
       <defs>
        <path id="DejaVuSans-15" d="M 1228 531 
L 3431 531 
L 3431 0 
L 469 0 
L 469 531 
Q 828 903 1448 1529 
Q 2069 2156 2228 2338 
Q 2531 2678 2651 2914 
Q 2772 3150 2772 3378 
Q 2772 3750 2511 3984 
Q 2250 4219 1831 4219 
Q 1534 4219 1204 4116 
Q 875 4013 500 3803 
L 500 4441 
Q 881 4594 1212 4672 
Q 1544 4750 1819 4750 
Q 2544 4750 2975 4387 
Q 3406 4025 3406 3419 
Q 3406 3131 3298 2873 
Q 3191 2616 2906 2266 
Q 2828 2175 2409 1742 
Q 1991 1309 1228 531 
z
" transform="scale(0.015625)"/>
       </defs>
       <use xlink:href="#DejaVuSans-13"/>
       <use xlink:href="#DejaVuSans-11" transform="translate(63.625 0)"/>
       <use xlink:href="#DejaVuSans-15" transform="translate(95.40625 0)"/>
      </g>
     </g>
    </g>
    <g id="xtick_3">
     <g id="line2d_3">
      <g>
       <use xlink:href="#m471f60829f" x="300.944219" y="526.5175" style="stroke: #000000; stroke-width: 0.8"/>
      </g>
     </g>
     <g id="text_3">
      <!-- 0.4 -->
      <g transform="translate(292.992656 541.115156) scale(0.1 -0.1)">
       <defs>
        <path id="DejaVuSans-17" d="M 2419 4116 
L 825 1625 
L 2419 1625 
L 2419 4116 
z
M 2253 4666 
L 3047 4666 
L 3047 1625 
L 3713 1625 
L 3713 1100 
L 3047 1100 
L 3047 0 
L 2419 0 
L 2419 1100 
L 313 1100 
L 313 1709 
L 2253 4666 
z
" transform="scale(0.015625)"/>
       </defs>
       <use xlink:href="#DejaVuSans-13"/>
       <use xlink:href="#DejaVuSans-11" transform="translate(63.625 0)"/>
       <use xlink:href="#DejaVuSans-17" transform="translate(95.40625 0)"/>
      </g>
     </g>
    </g>
    <g id="xtick_4">
     <g id="line2d_4">
      <g>
       <use xlink:href="#m471f60829f" x="421.344219" y="526.5175" style="stroke: #000000; stroke-width: 0.8"/>
      </g>
     </g>
     <g id="text_4">
      <!-- 0.6 -->
      <g transform="translate(413.392656 541.115156) scale(0.1 -0.1)">
       <defs>
        <path id="DejaVuSans-19" d="M 2113 2584 
Q 1688 2584 1439 2293 
Q 1191 2003 1191 1497 
Q 1191 994 1439 701 
Q 1688 409 2113 409 
Q 2538 409 2786 701 
Q 3034 994 3034 1497 
Q 3034 2003 2786 2293 
Q 2538 2584 2113 2584 
z
M 3366 4563 
L 3366 3988 
Q 3128 4100 2886 4159 
Q 2644 4219 2406 4219 
Q 1781 4219 1451 3797 
Q 1122 3375 1075 2522 
Q 1259 2794 1537 2939 
Q 1816 3084 2150 3084 
Q 2853 3084 3261 2657 
Q 3669 2231 3669 1497 
Q 3669 778 3244 343 
Q 2819 -91 2113 -91 
Q 1303 -91 875 529 
Q 447 1150 447 2328 
Q 447 3434 972 4092 
Q 1497 4750 2381 4750 
Q 2619 4750 2861 4703 
Q 3103 4656 3366 4563 
z
" transform="scale(0.015625)"/>
       </defs>
       <use xlink:href="#DejaVuSans-13"/>
       <use xlink:href="#DejaVuSans-11" transform="translate(63.625 0)"/>
       <use xlink:href="#DejaVuSans-19" transform="translate(95.40625 0)"/>
      </g>
     </g>
    </g>
    <g id="xtick_5">
     <g id="line2d_5">
      <g>
       <use xlink:href="#m471f60829f" x="541.744219" y="526.5175" style="stroke: #000000; stroke-width: 0.8"/>
      </g>
     </g>
     <g id="text_5">
      <!-- 0.8 -->
      <g transform="translate(533.792656 541.115156) scale(0.1 -0.1)">
       <defs>
        <path id="DejaVuSans-1b" d="M 2034 2216 
Q 1584 2216 1326 1975 
Q 1069 1734 1069 1313 
Q 1069 891 1326 650 
Q 1584 409 2034 409 
Q 2484 409 2743 651 
Q 3003 894 3003 1313 
Q 3003 1734 2745 1975 
Q 2488 2216 2034 2216 
z
M 1403 2484 
Q 997 2584 770 2862 
Q 544 3141 544 3541 
Q 544 4100 942 4425 
Q 1341 4750 2034 4750 
Q 2731 4750 3128 4425 
Q 3525 4100 3525 3541 
Q 3525 3141 3298 2862 
Q 3072 2584 2669 2484 
Q 3125 2378 3379 2068 
Q 3634 1759 3634 1313 
Q 3634 634 3220 271 
Q 2806 -91 2034 -91 
Q 1263 -91 848 271 
Q 434 634 434 1313 
Q 434 1759 690 2068 
Q 947 2378 1403 2484 
z
M 1172 3481 
Q 1172 3119 1398 2916 
Q 1625 2713 2034 2713 
Q 2441 2713 2670 2916 
Q 2900 3119 2900 3481 
Q 2900 3844 2670 4047 
Q 2441 4250 2034 4250 
Q 1625 4250 1398 4047 
Q 1172 3844 1172 3481 
z
" transform="scale(0.015625)"/>
       </defs>
       <use xlink:href="#DejaVuSans-13"/>
       <use xlink:href="#DejaVuSans-11" transform="translate(63.625 0)"/>
       <use xlink:href="#DejaVuSans-1b" transform="translate(95.40625 0)"/>
      </g>
     </g>
    </g>
    <g id="xtick_6">
     <g id="line2d_6">
      <g>
       <use xlink:href="#m471f60829f" x="662.144219" y="526.5175" style="stroke: #000000; stroke-width: 0.8"/>
      </g>
     </g>
     <g id="text_6">
      <!-- 1.0 -->
      <g transform="translate(654.192656 541.115156) scale(0.1 -0.1)">
       <defs>
        <path id="DejaVuSans-14" d="M 794 531 
L 1825 531 
L 1825 4091 
L 703 3866 
L 703 4441 
L 1819 4666 
L 2450 4666 
L 2450 531 
L 3481 531 
L 3481 0 
L 794 0 
L 794 531 
z
" transform="scale(0.015625)"/>
       </defs>
       <use xlink:href="#DejaVuSans-14"/>
       <use xlink:href="#DejaVuSans-11" transform="translate(63.625 0)"/>
       <use xlink:href="#DejaVuSans-13" transform="translate(95.40625 0)"/>
      </g>
     </g>
    </g>
    <g id="text_7">
     <!-- Predicted Probability -->
     <g transform="translate(289.054063 558.155313) scale(0.14 -0.14)">
      <defs>
       <path id="DejaVuSans-33" d="M 1259 4147 
L 1259 2394 
L 2053 2394 
Q 2494 2394 2734 2622 
Q 2975 2850 2975 3272 
Q 2975 3691 2734 3919 
Q 2494 4147 2053 4147 
L 1259 4147 
z
M 628 4666 
L 2053 4666 
Q 2838 4666 3239 4311 
Q 3641 3956 3641 3272 
Q 3641 2581 3239 2228 
Q 2838 1875 2053 1875 
L 1259 1875 
L 1259 0 
L 628 0 
L 628 4666 
z
" transform="scale(0.015625)"/>
       <path id="DejaVuSans-55" d="M 2631 2963 
Q 2534 3019 2420 3045 
Q 2306 3072 2169 3072 
Q 1681 3072 1420 2755 
Q 1159 2438 1159 1844 
L 1159 0 
L 581 0 
L 581 3500 
L 1159 3500 
L 1159 2956 
Q 1341 3275 1631 3429 
Q 1922 3584 2338 3584 
Q 2397 3584 2469 3576 
Q 2541 3569 2628 3553 
L 2631 2963 
z
" transform="scale(0.015625)"/>
       <path id="DejaVuSans-48" d="M 3597 1894 
L 3597 1613 
L 953 1613 
Q 991 1019 1311 708 
Q 1631 397 2203 397 
Q 2534 397 2845 478 
Q 3156 559 3463 722 
L 3463 178 
Q 3153 47 2828 -22 
Q 2503 -91 2169 -91 
Q 1331 -91 842 396 
Q 353 884 353 1716 
Q 353 2575 817 3079 
Q 1281 3584 2069 3584 
Q 2775 3584 3186 3129 
Q 3597 2675 3597 1894 
z
M 3022 2063 
Q 3016 2534 2758 2815 
Q 2500 3097 2075 3097 
Q 1594 3097 1305 2825 
Q 1016 2553 972 2059 
L 3022 2063 
z
" transform="scale(0.015625)"/>
       <path id="DejaVuSans-47" d="M 2906 2969 
L 2906 4863 
L 3481 4863 
L 3481 0 
L 2906 0 
L 2906 525 
Q 2725 213 2448 61 
Q 2172 -91 1784 -91 
Q 1150 -91 751 415 
Q 353 922 353 1747 
Q 353 2572 751 3078 
Q 1150 3584 1784 3584 
Q 2172 3584 2448 3432 
Q 2725 3281 2906 2969 
z
M 947 1747 
Q 947 1113 1208 752 
Q 1469 391 1925 391 
Q 2381 391 2643 752 
Q 2906 1113 2906 1747 
Q 2906 2381 2643 2742 
Q 2381 3103 1925 3103 
Q 1469 3103 1208 2742 
Q 947 2381 947 1747 
z
" transform="scale(0.015625)"/>
       <path id="DejaVuSans-4c" d="M 603 3500 
L 1178 3500 
L 1178 0 
L 603 0 
L 603 3500 
z
M 603 4863 
L 1178 4863 
L 1178 4134 
L 603 4134 
L 603 4863 
z
" transform="scale(0.015625)"/>
       <path id="DejaVuSans-46" d="M 3122 3366 
L 3122 2828 
Q 2878 2963 2633 3030 
Q 2388 3097 2138 3097 
Q 1578 3097 1268 2742 
Q 959 2388 959 1747 
Q 959 1106 1268 751 
Q 1578 397 2138 397 
Q 2388 397 2633 464 
Q 2878 531 3122 666 
L 3122 134 
Q 2881 22 2623 -34 
Q 2366 -91 2075 -91 
Q 1284 -91 818 406 
Q 353 903 353 1747 
Q 353 2603 823 3093 
Q 1294 3584 2113 3584 
Q 2378 3584 2631 3529 
Q 2884 3475 3122 3366 
z
" transform="scale(0.015625)"/>
       <path id="DejaVuSans-57" d="M 1172 4494 
L 1172 3500 
L 2356 3500 
L 2356 3053 
L 1172 3053 
L 1172 1153 
Q 1172 725 1289 603 
Q 1406 481 1766 481 
L 2356 481 
L 2356 0 
L 1766 0 
Q 1100 0 847 248 
Q 594 497 594 1153 
L 594 3053 
L 172 3053 
L 172 3500 
L 594 3500 
L 594 4494 
L 1172 4494 
z
" transform="scale(0.015625)"/>
       <path id="DejaVuSans-3" transform="scale(0.015625)"/>
       <path id="DejaVuSans-52" d="M 1959 3097 
Q 1497 3097 1228 2736 
Q 959 2375 959 1747 
Q 959 1119 1226 758 
Q 1494 397 1959 397 
Q 2419 397 2687 759 
Q 2956 1122 2956 1747 
Q 2956 2369 2687 2733 
Q 2419 3097 1959 3097 
z
M 1959 3584 
Q 2709 3584 3137 3096 
Q 3566 2609 3566 1747 
Q 3566 888 3137 398 
Q 2709 -91 1959 -91 
Q 1206 -91 779 398 
Q 353 888 353 1747 
Q 353 2609 779 3096 
Q 1206 3584 1959 3584 
z
" transform="scale(0.015625)"/>
       <path id="DejaVuSans-45" d="M 3116 1747 
Q 3116 2381 2855 2742 
Q 2594 3103 2138 3103 
Q 1681 3103 1420 2742 
Q 1159 2381 1159 1747 
Q 1159 1113 1420 752 
Q 1681 391 2138 391 
Q 2594 391 2855 752 
Q 3116 1113 3116 1747 
z
M 1159 2969 
Q 1341 3281 1617 3432 
Q 1894 3584 2278 3584 
Q 2916 3584 3314 3078 
Q 3713 2572 3713 1747 
Q 3713 922 3314 415 
Q 2916 -91 2278 -91 
Q 1894 -91 1617 61 
Q 1341 213 1159 525 
L 1159 0 
L 581 0 
L 581 4863 
L 1159 4863 
L 1159 2969 
z
" transform="scale(0.015625)"/>
       <path id="DejaVuSans-44" d="M 2194 1759 
Q 1497 1759 1228 1600 
Q 959 1441 959 1056 
Q 959 750 1161 570 
Q 1363 391 1709 391 
Q 2188 391 2477 730 
Q 2766 1069 2766 1631 
L 2766 1759 
L 2194 1759 
z
M 3341 1997 
L 3341 0 
L 2766 0 
L 2766 531 
Q 2569 213 2275 61 
Q 1981 -91 1556 -91 
Q 1019 -91 701 211 
Q 384 513 384 1019 
Q 384 1609 779 1909 
Q 1175 2209 1959 2209 
L 2766 2209 
L 2766 2266 
Q 2766 2663 2505 2880 
Q 2244 3097 1772 3097 
Q 1472 3097 1187 3025 
Q 903 2953 641 2809 
L 641 3341 
Q 956 3463 1253 3523 
Q 1550 3584 1831 3584 
Q 2591 3584 2966 3190 
Q 3341 2797 3341 1997 
z
" transform="scale(0.015625)"/>
       <path id="DejaVuSans-4f" d="M 603 4863 
L 1178 4863 
L 1178 0 
L 603 0 
L 603 4863 
z
" transform="scale(0.015625)"/>
       <path id="DejaVuSans-5c" d="M 2059 -325 
Q 1816 -950 1584 -1140 
Q 1353 -1331 966 -1331 
L 506 -1331 
L 506 -850 
L 844 -850 
Q 1081 -850 1212 -737 
Q 1344 -625 1503 -206 
L 1606 56 
L 191 3500 
L 800 3500 
L 1894 763 
L 2988 3500 
L 3597 3500 
L 2059 -325 
z
" transform="scale(0.015625)"/>
      </defs>
      <use xlink:href="#DejaVuSans-33"/>
      <use xlink:href="#DejaVuSans-55" transform="translate(58.546875 0)"/>
      <use xlink:href="#DejaVuSans-48" transform="translate(97.453125 0)"/>
      <use xlink:href="#DejaVuSans-47" transform="translate(158.984375 0)"/>
      <use xlink:href="#DejaVuSans-4c" transform="translate(222.46875 0)"/>
      <use xlink:href="#DejaVuSans-46" transform="translate(250.25 0)"/>
      <use xlink:href="#DejaVuSans-57" transform="translate(305.234375 0)"/>
      <use xlink:href="#DejaVuSans-48" transform="translate(344.4375 0)"/>
      <use xlink:href="#DejaVuSans-47" transform="translate(405.96875 0)"/>
      <use xlink:href="#DejaVuSans-3" transform="translate(469.453125 0)"/>
      <use xlink:href="#DejaVuSans-33" transform="translate(501.234375 0)"/>
      <use xlink:href="#DejaVuSans-55" transform="translate(559.78125 0)"/>
      <use xlink:href="#DejaVuSans-52" transform="translate(598.6875 0)"/>
      <use xlink:href="#DejaVuSans-45" transform="translate(659.875 0)"/>
      <use xlink:href="#DejaVuSans-44" transform="translate(723.359375 0)"/>
      <use xlink:href="#DejaVuSans-45" transform="translate(784.640625 0)"/>
      <use xlink:href="#DejaVuSans-4c" transform="translate(848.125 0)"/>
      <use xlink:href="#DejaVuSans-4f" transform="translate(875.90625 0)"/>
      <use xlink:href="#DejaVuSans-4c" transform="translate(903.6875 0)"/>
      <use xlink:href="#DejaVuSans-57" transform="translate(931.46875 0)"/>
      <use xlink:href="#DejaVuSans-5c" transform="translate(970.671875 0)"/>
     </g>
    </g>
   </g>
   <g id="matplotlib.axis_2">
    <g id="ytick_1">
     <g id="line2d_7">
      <defs>
       <path id="me21de91b3a" d="M 0 0 
L -3.5 0 
" style="stroke: #000000; stroke-width: 0.8"/>
      </defs>
      <g>
       <use xlink:href="#me21de91b3a" x="48.104219" y="516.879808" style="stroke: #000000; stroke-width: 0.8"/>
      </g>
     </g>
     <g id="text_8">
      <!-- 0.0 -->
      <g transform="translate(25.201094 520.678636) scale(0.1 -0.1)">
       <use xlink:href="#DejaVuSans-13"/>
       <use xlink:href="#DejaVuSans-11" transform="translate(63.625 0)"/>
       <use xlink:href="#DejaVuSans-13" transform="translate(95.40625 0)"/>
      </g>
     </g>
    </g>
    <g id="ytick_2">
     <g id="line2d_8">
      <g>
       <use xlink:href="#me21de91b3a" x="48.104219" y="420.502885" style="stroke: #000000; stroke-width: 0.8"/>
      </g>
     </g>
     <g id="text_9">
      <!-- 0.2 -->
      <g transform="translate(25.201094 424.301713) scale(0.1 -0.1)">
       <use xlink:href="#DejaVuSans-13"/>
       <use xlink:href="#DejaVuSans-11" transform="translate(63.625 0)"/>
       <use xlink:href="#DejaVuSans-15" transform="translate(95.40625 0)"/>
      </g>
     </g>
    </g>
    <g id="ytick_3">
     <g id="line2d_9">
      <g>
       <use xlink:href="#me21de91b3a" x="48.104219" y="324.125962" style="stroke: #000000; stroke-width: 0.8"/>
      </g>
     </g>
     <g id="text_10">
      <!-- 0.4 -->
      <g transform="translate(25.201094 327.92479) scale(0.1 -0.1)">
       <use xlink:href="#DejaVuSans-13"/>
       <use xlink:href="#DejaVuSans-11" transform="translate(63.625 0)"/>
       <use xlink:href="#DejaVuSans-17" transform="translate(95.40625 0)"/>
      </g>
     </g>
    </g>
    <g id="ytick_4">
     <g id="line2d_10">
      <g>
       <use xlink:href="#me21de91b3a" x="48.104219" y="227.749038" style="stroke: #000000; stroke-width: 0.8"/>
      </g>
     </g>
     <g id="text_11">
      <!-- 0.6 -->
      <g transform="translate(25.201094 231.547867) scale(0.1 -0.1)">
       <use xlink:href="#DejaVuSans-13"/>
       <use xlink:href="#DejaVuSans-11" transform="translate(63.625 0)"/>
       <use xlink:href="#DejaVuSans-19" transform="translate(95.40625 0)"/>
      </g>
     </g>
    </g>
    <g id="ytick_5">
     <g id="line2d_11">
      <g>
       <use xlink:href="#me21de91b3a" x="48.104219" y="131.372115" style="stroke: #000000; stroke-width: 0.8"/>
      </g>
     </g>
     <g id="text_12">
      <!-- 0.8 -->
      <g transform="translate(25.201094 135.170944) scale(0.1 -0.1)">
       <use xlink:href="#DejaVuSans-13"/>
       <use xlink:href="#DejaVuSans-11" transform="translate(63.625 0)"/>
       <use xlink:href="#DejaVuSans-1b" transform="translate(95.40625 0)"/>
      </g>
     </g>
    </g>
    <g id="ytick_6">
     <g id="line2d_12">
      <g>
       <use xlink:href="#me21de91b3a" x="48.104219" y="34.995192" style="stroke: #000000; stroke-width: 0.8"/>
      </g>
     </g>
     <g id="text_13">
      <!-- 1.0 -->
      <g transform="translate(25.201094 38.79402) scale(0.1 -0.1)">
       <use xlink:href="#DejaVuSans-14"/>
       <use xlink:href="#DejaVuSans-11" transform="translate(63.625 0)"/>
       <use xlink:href="#DejaVuSans-13" transform="translate(95.40625 0)"/>
      </g>
     </g>
    </g>
    <g id="text_14">
     <!-- Observed Frequency -->
     <g transform="translate(17.837813 348.004688) rotate(-90) scale(0.14 -0.14)">
      <defs>
       <path id="DejaVuSans-32" d="M 2522 4238 
Q 1834 4238 1429 3725 
Q 1025 3213 1025 2328 
Q 1025 1447 1429 934 
Q 1834 422 2522 422 
Q 3209 422 3611 934 
Q 4013 1447 4013 2328 
Q 4013 3213 3611 3725 
Q 3209 4238 2522 4238 
z
M 2522 4750 
Q 3503 4750 4090 4092 
Q 4678 3434 4678 2328 
Q 4678 1225 4090 567 
Q 3503 -91 2522 -91 
Q 1538 -91 948 565 
Q 359 1222 359 2328 
Q 359 3434 948 4092 
Q 1538 4750 2522 4750 
z
" transform="scale(0.015625)"/>
       <path id="DejaVuSans-56" d="M 2834 3397 
L 2834 2853 
Q 2591 2978 2328 3040 
Q 2066 3103 1784 3103 
Q 1356 3103 1142 2972 
Q 928 2841 928 2578 
Q 928 2378 1081 2264 
Q 1234 2150 1697 2047 
L 1894 2003 
Q 2506 1872 2764 1633 
Q 3022 1394 3022 966 
Q 3022 478 2636 193 
Q 2250 -91 1575 -91 
Q 1294 -91 989 -36 
Q 684 19 347 128 
L 347 722 
Q 666 556 975 473 
Q 1284 391 1588 391 
Q 1994 391 2212 530 
Q 2431 669 2431 922 
Q 2431 1156 2273 1281 
Q 2116 1406 1581 1522 
L 1381 1569 
Q 847 1681 609 1914 
Q 372 2147 372 2553 
Q 372 3047 722 3315 
Q 1072 3584 1716 3584 
Q 2034 3584 2315 3537 
Q 2597 3491 2834 3397 
z
" transform="scale(0.015625)"/>
       <path id="DejaVuSans-59" d="M 191 3500 
L 800 3500 
L 1894 563 
L 2988 3500 
L 3597 3500 
L 2284 0 
L 1503 0 
L 191 3500 
z
" transform="scale(0.015625)"/>
       <path id="DejaVuSans-29" d="M 628 4666 
L 3309 4666 
L 3309 4134 
L 1259 4134 
L 1259 2759 
L 3109 2759 
L 3109 2228 
L 1259 2228 
L 1259 0 
L 628 0 
L 628 4666 
z
" transform="scale(0.015625)"/>
       <path id="DejaVuSans-54" d="M 947 1747 
Q 947 1113 1208 752 
Q 1469 391 1925 391 
Q 2381 391 2643 752 
Q 2906 1113 2906 1747 
Q 2906 2381 2643 2742 
Q 2381 3103 1925 3103 
Q 1469 3103 1208 2742 
Q 947 2381 947 1747 
z
M 2906 525 
Q 2725 213 2448 61 
Q 2172 -91 1784 -91 
Q 1150 -91 751 415 
Q 353 922 353 1747 
Q 353 2572 751 3078 
Q 1150 3584 1784 3584 
Q 2172 3584 2448 3432 
Q 2725 3281 2906 2969 
L 2906 3500 
L 3481 3500 
L 3481 -1331 
L 2906 -1331 
L 2906 525 
z
" transform="scale(0.015625)"/>
       <path id="DejaVuSans-58" d="M 544 1381 
L 544 3500 
L 1119 3500 
L 1119 1403 
Q 1119 906 1312 657 
Q 1506 409 1894 409 
Q 2359 409 2629 706 
Q 2900 1003 2900 1516 
L 2900 3500 
L 3475 3500 
L 3475 0 
L 2900 0 
L 2900 538 
Q 2691 219 2414 64 
Q 2138 -91 1772 -91 
Q 1169 -91 856 284 
Q 544 659 544 1381 
z
M 1991 3584 
L 1991 3584 
z
" transform="scale(0.015625)"/>
       <path id="DejaVuSans-51" d="M 3513 2113 
L 3513 0 
L 2938 0 
L 2938 2094 
Q 2938 2591 2744 2837 
Q 2550 3084 2163 3084 
Q 1697 3084 1428 2787 
Q 1159 2491 1159 1978 
L 1159 0 
L 581 0 
L 581 3500 
L 1159 3500 
L 1159 2956 
Q 1366 3272 1645 3428 
Q 1925 3584 2291 3584 
Q 2894 3584 3203 3211 
Q 3513 2838 3513 2113 
z
" transform="scale(0.015625)"/>
      </defs>
      <use xlink:href="#DejaVuSans-32"/>
      <use xlink:href="#DejaVuSans-45" transform="translate(78.71875 0)"/>
      <use xlink:href="#DejaVuSans-56" transform="translate(142.203125 0)"/>
      <use xlink:href="#DejaVuSans-48" transform="translate(194.296875 0)"/>
      <use xlink:href="#DejaVuSans-55" transform="translate(255.828125 0)"/>
      <use xlink:href="#DejaVuSans-59" transform="translate(296.9375 0)"/>
      <use xlink:href="#DejaVuSans-48" transform="translate(356.125 0)"/>
      <use xlink:href="#DejaVuSans-47" transform="translate(417.65625 0)"/>
      <use xlink:href="#DejaVuSans-3" transform="translate(481.140625 0)"/>
      <use xlink:href="#DejaVuSans-29" transform="translate(512.921875 0)"/>
      <use xlink:href="#DejaVuSans-55" transform="translate(563.15625 0)"/>
      <use xlink:href="#DejaVuSans-48" transform="translate(602.0625 0)"/>
      <use xlink:href="#DejaVuSans-54" transform="translate(663.59375 0)"/>
      <use xlink:href="#DejaVuSans-58" transform="translate(727.078125 0)"/>
      <use xlink:href="#DejaVuSans-48" transform="translate(790.453125 0)"/>
      <use xlink:href="#DejaVuSans-51" transform="translate(851.984375 0)"/>
      <use xlink:href="#DejaVuSans-46" transform="translate(915.359375 0)"/>
      <use xlink:href="#DejaVuSans-5c" transform="translate(970.34375 0)"/>
     </g>
    </g>
   </g>
   <g id="line2d_13">
    <path d="M 60.144219 516.879808 
L 662.144219 34.995192 
" clip-path="url(#p48810c4c06)" style="fill: none; stroke-dasharray: 2,3.3; stroke-dashoffset: 0; stroke: #000000; stroke-width: 2"/>
   </g>
   <g id="LineCollection_1">
    <path d="M 90.244219 487.053289 
L 90.244219 460.188446 
" clip-path="url(#p48810c4c06)" style="fill: none; stroke: #000000; stroke-width: 2"/>
    <path d="M 150.444219 395.84026 
L 150.444219 309.258045 
" clip-path="url(#p48810c4c06)" style="fill: none; stroke: #000000; stroke-width: 2"/>
    <path d="M 210.644219 427.062538 
L 210.644219 333.976299 
" clip-path="url(#p48810c4c06)" style="fill: none; stroke: #000000; stroke-width: 2"/>
    <path d="M 270.844219 365.563076 
L 270.844219 254.23184 
" clip-path="url(#p48810c4c06)" style="fill: none; stroke: #000000; stroke-width: 2"/>
    <path d="M 331.044219 374.260348 
L 331.044219 247.750461 
" clip-path="url(#p48810c4c06)" style="fill: none; stroke: #000000; stroke-width: 2"/>
    <path d="M 391.244219 292.832743 
L 391.244219 176.160242 
" clip-path="url(#p48810c4c06)" style="fill: none; stroke: #000000; stroke-width: 2"/>
    <path d="M 451.444219 308.470005 
L 451.444219 190.662051 
" clip-path="url(#p48810c4c06)" style="fill: none; stroke: #000000; stroke-width: 2"/>
    <path d="M 511.644219 238.290088 
L 511.644219 130.919411 
" clip-path="url(#p48810c4c06)" style="fill: none; stroke: #000000; stroke-width: 2"/>
    <path d="M 571.844219 208.148629 
L 571.844219 125.804009 
" clip-path="url(#p48810c4c06)" style="fill: none; stroke: #000000; stroke-width: 2"/>
    <path d="M 632.044219 114.311927 
L 632.044219 75.539094 
" clip-path="url(#p48810c4c06)" style="fill: none; stroke: #000000; stroke-width: 2"/>
   </g>
   <g id="line2d_14">
    <path d="M 90.244219 475.083693 
L 150.444219 354.707101 
L 210.644219 384.361538 
L 270.844219 311.370192 
L 331.044219 313.005547 
L 391.244219 232.488887 
L 451.444219 248.288383 
L 511.644219 180.325473 
L 571.844219 163.815832 
L 632.044219 92.821346 
" clip-path="url(#p48810c4c06)" style="fill: none; stroke: #000000; stroke-width: 2; stroke-linecap: square"/>
    <defs>
     <path id="mcf53661262" d="M 0 4 
C 1.060812 4 2.078319 3.578535 2.828427 2.828427 
C 3.578535 2.078319 4 1.060812 4 0 
C 4 -1.060812 3.578535 -2.078319 2.828427 -2.828427 
C 2.078319 -3.578535 1.060812 -4 0 -4 
C -1.060812 -4 -2.078319 -3.578535 -2.828427 -2.828427 
C -3.578535 -2.078319 -4 -1.060812 -4 0 
C -4 1.060812 -3.578535 2.078319 -2.828427 2.828427 
C -2.078319 3.578535 -1.060812 4 0 4 
z
" style="stroke: #000000"/>
    </defs>
    <g clip-path="url(#p48810c4c06)">
     <use xlink:href="#mcf53661262" x="90.244219" y="475.083693" style="stroke: #000000"/>
     <use xlink:href="#mcf53661262" x="150.444219" y="354.707101" style="stroke: #000000"/>
     <use xlink:href="#mcf53661262" x="210.644219" y="384.361538" style="stroke: #000000"/>
     <use xlink:href="#mcf53661262" x="270.844219" y="311.370192" style="stroke: #000000"/>
     <use xlink:href="#mcf53661262" x="331.044219" y="313.005547" style="stroke: #000000"/>
     <use xlink:href="#mcf53661262" x="391.244219" y="232.488887" style="stroke: #000000"/>
     <use xlink:href="#mcf53661262" x="451.444219" y="248.288383" style="stroke: #000000"/>
     <use xlink:href="#mcf53661262" x="511.644219" y="180.325473" style="stroke: #000000"/>
     <use xlink:href="#mcf53661262" x="571.844219" y="163.815832" style="stroke: #000000"/>
     <use xlink:href="#mcf53661262" x="632.044219" y="92.821346" style="stroke: #000000"/>
    </g>
   </g>
   <g id="patch_3">
    <path d="M 48.104219 526.5175 
L 48.104219 25.3575 
" style="fill: none; stroke: #000000; stroke-width: 0.8; stroke-linejoin: miter; stroke-linecap: square"/>
   </g>
   <g id="patch_4">
    <path d="M 674.184219 526.5175 
L 674.184219 25.3575 
" style="fill: none; stroke: #000000; stroke-width: 0.8; stroke-linejoin: miter; stroke-linecap: square"/>
   </g>
   <g id="patch_5">
    <path d="M 48.104219 526.5175 
L 674.184219 526.5175 
" style="fill: none; stroke: #000000; stroke-width: 0.8; stroke-linejoin: miter; stroke-linecap: square"/>
   </g>
   <g id="patch_6">
    <path d="M 48.104219 25.3575 
L 674.184219 25.3575 
" style="fill: none; stroke: #000000; stroke-width: 0.8; stroke-linejoin: miter; stroke-linecap: square"/>
   </g>
   <g id="text_15">
    <g id="patch_7">
     <path d="M 298.536219 68.122684 
L 416.814969 68.122684 
Q 420.414969 68.122684 420.414969 64.522684 
L 420.414969 35.717059 
Q 420.414969 32.117059 416.814969 32.117059 
L 298.536219 32.117059 
Q 294.936219 32.117059 294.936219 35.717059 
L 294.936219 64.522684 
Q 294.936219 68.122684 298.536219 68.122684 
z
" style="fill: #ffffff; opacity: 0.8; stroke: #808080; stroke-linejoin: miter"/>
    </g>
    <!-- RMSCE = 0.087 -->
    <g transform="translate(298.536219 46.035419) scale(0.12 -0.12)">
     <defs>
      <path id="DejaVuSans-35" d="M 2841 2188 
Q 3044 2119 3236 1894 
Q 3428 1669 3622 1275 
L 4263 0 
L 3584 0 
L 2988 1197 
Q 2756 1666 2539 1819 
Q 2322 1972 1947 1972 
L 1259 1972 
L 1259 0 
L 628 0 
L 628 4666 
L 2053 4666 
Q 2853 4666 3247 4331 
Q 3641 3997 3641 3322 
Q 3641 2881 3436 2590 
Q 3231 2300 2841 2188 
z
M 1259 4147 
L 1259 2491 
L 2053 2491 
Q 2509 2491 2742 2702 
Q 2975 2913 2975 3322 
Q 2975 3731 2742 3939 
Q 2509 4147 2053 4147 
L 1259 4147 
z
" transform="scale(0.015625)"/>
      <path id="DejaVuSans-30" d="M 628 4666 
L 1569 4666 
L 2759 1491 
L 3956 4666 
L 4897 4666 
L 4897 0 
L 4281 0 
L 4281 4097 
L 3078 897 
L 2444 897 
L 1241 4097 
L 1241 0 
L 628 0 
L 628 4666 
z
" transform="scale(0.015625)"/>
      <path id="DejaVuSans-36" d="M 3425 4513 
L 3425 3897 
Q 3066 4069 2747 4153 
Q 2428 4238 2131 4238 
Q 1616 4238 1336 4038 
Q 1056 3838 1056 3469 
Q 1056 3159 1242 3001 
Q 1428 2844 1947 2747 
L 2328 2669 
Q 3034 2534 3370 2195 
Q 3706 1856 3706 1288 
Q 3706 609 3251 259 
Q 2797 -91 1919 -91 
Q 1588 -91 1214 -16 
Q 841 59 441 206 
L 441 856 
Q 825 641 1194 531 
Q 1563 422 1919 422 
Q 2459 422 2753 634 
Q 3047 847 3047 1241 
Q 3047 1584 2836 1778 
Q 2625 1972 2144 2069 
L 1759 2144 
Q 1053 2284 737 2584 
Q 422 2884 422 3419 
Q 422 4038 858 4394 
Q 1294 4750 2059 4750 
Q 2388 4750 2728 4690 
Q 3069 4631 3425 4513 
z
" transform="scale(0.015625)"/>
      <path id="DejaVuSans-26" d="M 4122 4306 
L 4122 3641 
Q 3803 3938 3442 4084 
Q 3081 4231 2675 4231 
Q 1875 4231 1450 3742 
Q 1025 3253 1025 2328 
Q 1025 1406 1450 917 
Q 1875 428 2675 428 
Q 3081 428 3442 575 
Q 3803 722 4122 1019 
L 4122 359 
Q 3791 134 3420 21 
Q 3050 -91 2638 -91 
Q 1578 -91 968 557 
Q 359 1206 359 2328 
Q 359 3453 968 4101 
Q 1578 4750 2638 4750 
Q 3056 4750 3426 4639 
Q 3797 4528 4122 4306 
z
" transform="scale(0.015625)"/>
      <path id="DejaVuSans-28" d="M 628 4666 
L 3578 4666 
L 3578 4134 
L 1259 4134 
L 1259 2753 
L 3481 2753 
L 3481 2222 
L 1259 2222 
L 1259 531 
L 3634 531 
L 3634 0 
L 628 0 
L 628 4666 
z
" transform="scale(0.015625)"/>
      <path id="DejaVuSans-20" d="M 678 2906 
L 4684 2906 
L 4684 2381 
L 678 2381 
L 678 2906 
z
M 678 1631 
L 4684 1631 
L 4684 1100 
L 678 1100 
L 678 1631 
z
" transform="scale(0.015625)"/>
      <path id="DejaVuSans-1a" d="M 525 4666 
L 3525 4666 
L 3525 4397 
L 1831 0 
L 1172 0 
L 2766 4134 
L 525 4134 
L 525 4666 
z
" transform="scale(0.015625)"/>
     </defs>
     <use xlink:href="#DejaVuSans-35"/>
     <use xlink:href="#DejaVuSans-30" transform="translate(69.484375 0)"/>
     <use xlink:href="#DejaVuSans-36" transform="translate(155.765625 0)"/>
     <use xlink:href="#DejaVuSans-26" transform="translate(219.25 0)"/>
     <use xlink:href="#DejaVuSans-28" transform="translate(289.078125 0)"/>
     <use xlink:href="#DejaVuSans-3" transform="translate(352.265625 0)"/>
     <use xlink:href="#DejaVuSans-20" transform="translate(384.046875 0)"/>
     <use xlink:href="#DejaVuSans-3" transform="translate(467.84375 0)"/>
     <use xlink:href="#DejaVuSans-13" transform="translate(499.625 0)"/>
     <use xlink:href="#DejaVuSans-11" transform="translate(563.25 0)"/>
     <use xlink:href="#DejaVuSans-13" transform="translate(595.03125 0)"/>
     <use xlink:href="#DejaVuSans-1b" transform="translate(658.65625 0)"/>
     <use xlink:href="#DejaVuSans-1a" transform="translate(722.28125 0)"/>
    </g>
    <!-- Brier Score = 0.162 -->
    <g transform="translate(298.536219 60.4387) scale(0.12 -0.12)">
     <defs>
      <path id="DejaVuSans-25" d="M 1259 2228 
L 1259 519 
L 2272 519 
Q 2781 519 3026 730 
Q 3272 941 3272 1375 
Q 3272 1813 3026 2020 
Q 2781 2228 2272 2228 
L 1259 2228 
z
M 1259 4147 
L 1259 2741 
L 2194 2741 
Q 2656 2741 2882 2914 
Q 3109 3088 3109 3444 
Q 3109 3797 2882 3972 
Q 2656 4147 2194 4147 
L 1259 4147 
z
M 628 4666 
L 2241 4666 
Q 2963 4666 3353 4366 
Q 3744 4066 3744 3513 
Q 3744 3084 3544 2831 
Q 3344 2578 2956 2516 
Q 3422 2416 3680 2098 
Q 3938 1781 3938 1306 
Q 3938 681 3513 340 
Q 3088 0 2303 0 
L 628 0 
L 628 4666 
z
" transform="scale(0.015625)"/>
     </defs>
     <use xlink:href="#DejaVuSans-25"/>
     <use xlink:href="#DejaVuSans-55" transform="translate(68.609375 0)"/>
     <use xlink:href="#DejaVuSans-4c" transform="translate(109.71875 0)"/>
     <use xlink:href="#DejaVuSans-48" transform="translate(137.5 0)"/>
     <use xlink:href="#DejaVuSans-55" transform="translate(199.03125 0)"/>
     <use xlink:href="#DejaVuSans-3" transform="translate(240.140625 0)"/>
     <use xlink:href="#DejaVuSans-36" transform="translate(271.921875 0)"/>
     <use xlink:href="#DejaVuSans-46" transform="translate(335.40625 0)"/>
     <use xlink:href="#DejaVuSans-52" transform="translate(390.390625 0)"/>
     <use xlink:href="#DejaVuSans-55" transform="translate(451.578125 0)"/>
     <use xlink:href="#DejaVuSans-48" transform="translate(490.484375 0)"/>
     <use xlink:href="#DejaVuSans-3" transform="translate(552.015625 0)"/>
     <use xlink:href="#DejaVuSans-20" transform="translate(583.796875 0)"/>
     <use xlink:href="#DejaVuSans-3" transform="translate(667.59375 0)"/>
     <use xlink:href="#DejaVuSans-13" transform="translate(699.375 0)"/>
     <use xlink:href="#DejaVuSans-11" transform="translate(763 0)"/>
     <use xlink:href="#DejaVuSans-14" transform="translate(794.78125 0)"/>
     <use xlink:href="#DejaVuSans-19" transform="translate(858.40625 0)"/>
     <use xlink:href="#DejaVuSans-15" transform="translate(922.03125 0)"/>
    </g>
   </g>
   <g id="legend_1">
    <g id="patch_8">
     <path d="M 56.504219 70.959375 
L 206.044844 70.959375 
Q 208.444844 70.959375 208.444844 68.559375 
L 208.444844 33.7575 
Q 208.444844 31.3575 206.044844 31.3575 
L 56.504219 31.3575 
Q 54.104219 31.3575 54.104219 33.7575 
L 54.104219 68.559375 
Q 54.104219 70.959375 56.504219 70.959375 
z
" style="fill: #ffffff; opacity: 0.8; stroke: #cccccc; stroke-linejoin: miter"/>
    </g>
    <g id="line2d_15">
     <path d="M 58.904219 41.075625 
L 70.904219 41.075625 
L 82.904219 41.075625 
" style="fill: none; stroke-dasharray: 2,3.3; stroke-dashoffset: 0; stroke: #000000; stroke-width: 2"/>
    </g>
    <g id="text_16">
     <!-- Perfect Calibration -->
     <g transform="translate(92.504219 45.275625) scale(0.12 -0.12)">
      <defs>
       <path id="DejaVuSans-49" d="M 2375 4863 
L 2375 4384 
L 1825 4384 
Q 1516 4384 1395 4259 
Q 1275 4134 1275 3809 
L 1275 3500 
L 2222 3500 
L 2222 3053 
L 1275 3053 
L 1275 0 
L 697 0 
L 697 3053 
L 147 3053 
L 147 3500 
L 697 3500 
L 697 3744 
Q 697 4328 969 4595 
Q 1241 4863 1831 4863 
L 2375 4863 
z
" transform="scale(0.015625)"/>
      </defs>
      <use xlink:href="#DejaVuSans-33"/>
      <use xlink:href="#DejaVuSans-48" transform="translate(56.734375 0)"/>
      <use xlink:href="#DejaVuSans-55" transform="translate(118.265625 0)"/>
      <use xlink:href="#DejaVuSans-49" transform="translate(159.375 0)"/>
      <use xlink:href="#DejaVuSans-48" transform="translate(194.578125 0)"/>
      <use xlink:href="#DejaVuSans-46" transform="translate(256.109375 0)"/>
      <use xlink:href="#DejaVuSans-57" transform="translate(311.09375 0)"/>
      <use xlink:href="#DejaVuSans-3" transform="translate(350.296875 0)"/>
      <use xlink:href="#DejaVuSans-26" transform="translate(382.078125 0)"/>
      <use xlink:href="#DejaVuSans-44" transform="translate(451.90625 0)"/>
      <use xlink:href="#DejaVuSans-4f" transform="translate(513.1875 0)"/>
      <use xlink:href="#DejaVuSans-4c" transform="translate(540.96875 0)"/>
      <use xlink:href="#DejaVuSans-45" transform="translate(568.75 0)"/>
      <use xlink:href="#DejaVuSans-55" transform="translate(632.234375 0)"/>
      <use xlink:href="#DejaVuSans-44" transform="translate(673.34375 0)"/>
      <use xlink:href="#DejaVuSans-57" transform="translate(734.625 0)"/>
      <use xlink:href="#DejaVuSans-4c" transform="translate(773.828125 0)"/>
      <use xlink:href="#DejaVuSans-52" transform="translate(801.609375 0)"/>
      <use xlink:href="#DejaVuSans-51" transform="translate(862.796875 0)"/>
     </g>
    </g>
    <g id="LineCollection_2">
     <path d="M 70.904219 65.076563 
L 70.904219 53.076563 
" style="fill: none; stroke: #000000; stroke-width: 2"/>
    </g>
    <g id="line2d_16">
     <path d="M 58.904219 59.076563 
L 82.904219 59.076563 
" style="fill: none; stroke: #000000; stroke-width: 2; stroke-linecap: square"/>
    </g>
    <g id="line2d_17">
     <g>
      <use xlink:href="#mcf53661262" x="70.904219" y="59.076563" style="stroke: #000000"/>
     </g>
    </g>
    <g id="text_17">
     <!-- Model Calibration -->
     <g transform="translate(92.504219 63.276563) scale(0.12 -0.12)">
      <use xlink:href="#DejaVuSans-30"/>
      <use xlink:href="#DejaVuSans-52" transform="translate(86.28125 0)"/>
      <use xlink:href="#DejaVuSans-47" transform="translate(147.46875 0)"/>
      <use xlink:href="#DejaVuSans-48" transform="translate(210.953125 0)"/>
      <use xlink:href="#DejaVuSans-4f" transform="translate(272.484375 0)"/>
      <use xlink:href="#DejaVuSans-3" transform="translate(300.265625 0)"/>
      <use xlink:href="#DejaVuSans-26" transform="translate(332.046875 0)"/>
      <use xlink:href="#DejaVuSans-44" transform="translate(401.875 0)"/>
      <use xlink:href="#DejaVuSans-4f" transform="translate(463.15625 0)"/>
      <use xlink:href="#DejaVuSans-4c" transform="translate(490.9375 0)"/>
      <use xlink:href="#DejaVuSans-45" transform="translate(518.71875 0)"/>
      <use xlink:href="#DejaVuSans-55" transform="translate(582.203125 0)"/>
      <use xlink:href="#DejaVuSans-44" transform="translate(623.3125 0)"/>
      <use xlink:href="#DejaVuSans-57" transform="translate(684.59375 0)"/>
      <use xlink:href="#DejaVuSans-4c" transform="translate(723.796875 0)"/>
      <use xlink:href="#DejaVuSans-52" transform="translate(751.578125 0)"/>
      <use xlink:href="#DejaVuSans-51" transform="translate(812.765625 0)"/>
     </g>
    </g>
   </g>
  </g>
  <g id="axes_2">
   <g id="patch_9">
    <path d="M 90.244219 516.879808 
L 111.314219 516.879808 
L 111.314219 462.832839 
L 90.244219 462.832839 
z
" clip-path="url(#p48810c4c06)" style="fill: #a20025"/>
   </g>
   <g id="patch_10">
    <path d="M 150.444219 516.879808 
L 171.514219 516.879808 
L 171.514219 461.243223 
L 150.444219 461.243223 
z
" clip-path="url(#p48810c4c06)" style="fill: #a20025"/>
   </g>
   <g id="patch_11">
    <path d="M 210.644219 516.879808 
L 231.714219 516.879808 
L 231.714219 481.90824 
L 210.644219 481.90824 
z
" clip-path="url(#p48810c4c06)" style="fill: #a20025"/>
   </g>
   <g id="patch_12">
    <path d="M 270.844219 516.879808 
L 291.914219 516.879808 
L 291.914219 470.780923 
L 270.844219 470.780923 
z
" clip-path="url(#p48810c4c06)" style="fill: #a20025"/>
   </g>
   <g id="patch_13">
    <path d="M 331.044219 516.879808 
L 352.114219 516.879808 
L 352.114219 481.90824 
L 331.044219 481.90824 
z
" clip-path="url(#p48810c4c06)" style="fill: #a20025"/>
   </g>
   <g id="patch_14">
    <path d="M 391.244219 516.879808 
L 412.314219 516.879808 
L 412.314219 459.653606 
L 391.244219 459.653606 
z
" clip-path="url(#p48810c4c06)" style="fill: #a20025"/>
   </g>
   <g id="patch_15">
    <path d="M 451.444219 516.879808 
L 472.514219 516.879808 
L 472.514219 462.832839 
L 451.444219 462.832839 
z
" clip-path="url(#p48810c4c06)" style="fill: #a20025"/>
   </g>
   <g id="patch_16">
    <path d="M 511.644219 516.879808 
L 532.714219 516.879808 
L 532.714219 446.936672 
L 511.644219 446.936672 
z
" clip-path="url(#p48810c4c06)" style="fill: #a20025"/>
   </g>
   <g id="patch_17">
    <path d="M 571.844219 516.879808 
L 592.914219 516.879808 
L 592.914219 399.248171 
L 571.844219 399.248171 
z
" clip-path="url(#p48810c4c06)" style="fill: #a20025"/>
   </g>
   <g id="patch_18">
    <path d="M 632.044219 516.879808 
L 653.114219 516.879808 
L 653.114219 167.16413 
L 632.044219 167.16413 
z
" clip-path="url(#p48810c4c06)" style="fill: #a20025"/>
   </g>
   <g id="patch_19">
    <path d="M 69.174219 516.879808 
L 90.244219 516.879808 
L 90.244219 57.942079 
L 69.174219 57.942079 
z
" clip-path="url(#p48810c4c06)" style="fill: #6c8ebf; opacity: 0.7"/>
   </g>
   <g id="patch_20">
    <path d="M 129.374219 516.879808 
L 150.444219 516.879808 
L 150.444219 428.425329 
L 129.374219 428.425329 
z
" clip-path="url(#p48810c4c06)" style="fill: #6c8ebf; opacity: 0.7"/>
   </g>
   <g id="patch_21">
    <path d="M 189.574219 516.879808 
L 210.644219 516.879808 
L 210.644219 442.526768 
L 189.574219 442.526768 
z
" clip-path="url(#p48810c4c06)" style="fill: #6c8ebf; opacity: 0.7"/>
   </g>
   <g id="patch_22">
    <path d="M 249.774219 516.879808 
L 270.844219 516.879808 
L 270.844219 466.883798 
L 249.774219 466.883798 
z
" clip-path="url(#p48810c4c06)" style="fill: #6c8ebf; opacity: 0.7"/>
   </g>
   <g id="patch_23">
    <path d="M 309.974219 516.879808 
L 331.044219 516.879808 
L 331.044219 478.421339 
L 309.974219 478.421339 
z
" clip-path="url(#p48810c4c06)" style="fill: #6c8ebf; opacity: 0.7"/>
   </g>
   <g id="patch_24">
    <path d="M 370.174219 516.879808 
L 391.244219 516.879808 
L 391.244219 484.831084 
L 370.174219 484.831084 
z
" clip-path="url(#p48810c4c06)" style="fill: #6c8ebf; opacity: 0.7"/>
   </g>
   <g id="patch_25">
    <path d="M 430.374219 516.879808 
L 451.444219 516.879808 
L 451.444219 482.267186 
L 430.374219 482.267186 
z
" clip-path="url(#p48810c4c06)" style="fill: #6c8ebf; opacity: 0.7"/>
   </g>
   <g id="patch_26">
    <path d="M 490.574219 516.879808 
L 511.644219 516.879808 
L 511.644219 492.522777 
L 490.574219 492.522777 
z
" clip-path="url(#p48810c4c06)" style="fill: #6c8ebf; opacity: 0.7"/>
   </g>
   <g id="patch_27">
    <path d="M 550.774219 516.879808 
L 571.844219 516.879808 
L 571.844219 482.267186 
L 550.774219 482.267186 
z
" clip-path="url(#p48810c4c06)" style="fill: #6c8ebf; opacity: 0.7"/>
   </g>
   <g id="patch_28">
    <path d="M 610.974219 516.879808 
L 632.044219 516.879808 
L 632.044219 478.421339 
L 610.974219 478.421339 
z
" clip-path="url(#p48810c4c06)" style="fill: #6c8ebf; opacity: 0.7"/>
   </g>
   <g id="matplotlib.axis_3">
    <g id="ytick_7">
     <g id="line2d_18">
      <defs>
       <path id="md1f0d02178" d="M 0 0 
L 3.5 0 
" style="stroke: #000000; stroke-width: 0.8"/>
      </defs>
      <g>
       <use xlink:href="#md1f0d02178" x="674.184219" y="516.879808" style="stroke: #000000; stroke-width: 0.8"/>
      </g>
     </g>
     <g id="text_18">
      <!-- 0 -->
      <g transform="translate(681.184219 522.957933) scale(0.16 -0.16)">
       <use xlink:href="#DejaVuSans-13"/>
      </g>
     </g>
    </g>
    <g id="ytick_8">
     <g id="line2d_19">
      <g>
       <use xlink:href="#md1f0d02178" x="674.184219" y="429.450888" style="stroke: #000000; stroke-width: 0.8"/>
      </g>
     </g>
     <g id="text_19">
      <!-- 1 -->
      <g transform="translate(681.184219 435.529013) scale(0.16 -0.16)">
       <use xlink:href="#DejaVuSans-14"/>
      </g>
     </g>
    </g>
    <g id="ytick_9">
     <g id="line2d_20">
      <g>
       <use xlink:href="#md1f0d02178" x="674.184219" y="342.021969" style="stroke: #000000; stroke-width: 0.8"/>
      </g>
     </g>
     <g id="text_20">
      <!-- 2 -->
      <g transform="translate(681.184219 348.100094) scale(0.16 -0.16)">
       <use xlink:href="#DejaVuSans-15"/>
      </g>
     </g>
    </g>
    <g id="ytick_10">
     <g id="line2d_21">
      <g>
       <use xlink:href="#md1f0d02178" x="674.184219" y="254.59305" style="stroke: #000000; stroke-width: 0.8"/>
      </g>
     </g>
     <g id="text_21">
      <!-- 3 -->
      <g transform="translate(681.184219 260.671175) scale(0.16 -0.16)">
       <defs>
        <path id="DejaVuSans-16" d="M 2597 2516 
Q 3050 2419 3304 2112 
Q 3559 1806 3559 1356 
Q 3559 666 3084 287 
Q 2609 -91 1734 -91 
Q 1441 -91 1130 -33 
Q 819 25 488 141 
L 488 750 
Q 750 597 1062 519 
Q 1375 441 1716 441 
Q 2309 441 2620 675 
Q 2931 909 2931 1356 
Q 2931 1769 2642 2001 
Q 2353 2234 1838 2234 
L 1294 2234 
L 1294 2753 
L 1863 2753 
Q 2328 2753 2575 2939 
Q 2822 3125 2822 3475 
Q 2822 3834 2567 4026 
Q 2313 4219 1838 4219 
Q 1578 4219 1281 4162 
Q 984 4106 628 3988 
L 628 4550 
Q 988 4650 1302 4700 
Q 1616 4750 1894 4750 
Q 2613 4750 3031 4423 
Q 3450 4097 3450 3541 
Q 3450 3153 3228 2886 
Q 3006 2619 2597 2516 
z
" transform="scale(0.015625)"/>
       </defs>
       <use xlink:href="#DejaVuSans-16"/>
      </g>
     </g>
    </g>
    <g id="ytick_11">
     <g id="line2d_22">
      <g>
       <use xlink:href="#md1f0d02178" x="674.184219" y="167.16413" style="stroke: #000000; stroke-width: 0.8"/>
      </g>
     </g>
     <g id="text_22">
      <!-- 4 -->
      <g transform="translate(681.184219 173.242255) scale(0.16 -0.16)">
       <use xlink:href="#DejaVuSans-17"/>
      </g>
     </g>
    </g>
    <g id="ytick_12">
     <g id="line2d_23">
      <g>
       <use xlink:href="#md1f0d02178" x="674.184219" y="79.735211" style="stroke: #000000; stroke-width: 0.8"/>
      </g>
     </g>
     <g id="text_23">
      <!-- 5 -->
      <g transform="translate(681.184219 85.813336) scale(0.16 -0.16)">
       <defs>
        <path id="DejaVuSans-18" d="M 691 4666 
L 3169 4666 
L 3169 4134 
L 1269 4134 
L 1269 2991 
Q 1406 3038 1543 3061 
Q 1681 3084 1819 3084 
Q 2600 3084 3056 2656 
Q 3513 2228 3513 1497 
Q 3513 744 3044 326 
Q 2575 -91 1722 -91 
Q 1428 -91 1123 -41 
Q 819 9 494 109 
L 494 744 
Q 775 591 1075 516 
Q 1375 441 1709 441 
Q 2250 441 2565 725 
Q 2881 1009 2881 1497 
Q 2881 1984 2565 2268 
Q 2250 2553 1709 2553 
Q 1456 2553 1204 2497 
Q 953 2441 691 2322 
L 691 4666 
z
" transform="scale(0.015625)"/>
       </defs>
       <use xlink:href="#DejaVuSans-18"/>
      </g>
     </g>
    </g>
    <g id="text_24">
     <!-- Density -->
     <g transform="translate(706.002031 302.549531) rotate(-90) scale(0.14 -0.14)">
      <defs>
       <path id="DejaVuSans-27" d="M 1259 4147 
L 1259 519 
L 2022 519 
Q 2988 519 3436 956 
Q 3884 1394 3884 2338 
Q 3884 3275 3436 3711 
Q 2988 4147 2022 4147 
L 1259 4147 
z
M 628 4666 
L 1925 4666 
Q 3281 4666 3915 4102 
Q 4550 3538 4550 2338 
Q 4550 1131 3912 565 
Q 3275 0 1925 0 
L 628 0 
L 628 4666 
z
" transform="scale(0.015625)"/>
      </defs>
      <use xlink:href="#DejaVuSans-27"/>
      <use xlink:href="#DejaVuSans-48" transform="translate(77 0)"/>
      <use xlink:href="#DejaVuSans-51" transform="translate(138.53125 0)"/>
      <use xlink:href="#DejaVuSans-56" transform="translate(201.90625 0)"/>
      <use xlink:href="#DejaVuSans-4c" transform="translate(254 0)"/>
      <use xlink:href="#DejaVuSans-57" transform="translate(281.78125 0)"/>
      <use xlink:href="#DejaVuSans-5c" transform="translate(320.984375 0)"/>
     </g>
    </g>
   </g>
   <g id="patch_29">
    <path d="M 48.104219 526.5175 
L 48.104219 25.3575 
" style="fill: none; stroke: #000000; stroke-width: 0.8; stroke-linejoin: miter; stroke-linecap: square"/>
   </g>
   <g id="patch_30">
    <path d="M 674.184219 526.5175 
L 674.184219 25.3575 
" style="fill: none; stroke: #000000; stroke-width: 0.8; stroke-linejoin: miter; stroke-linecap: square"/>
   </g>
   <g id="patch_31">
    <path d="M 48.104219 526.5175 
L 674.184219 526.5175 
" style="fill: none; stroke: #000000; stroke-width: 0.8; stroke-linejoin: miter; stroke-linecap: square"/>
   </g>
   <g id="patch_32">
    <path d="M 48.104219 25.3575 
L 674.184219 25.3575 
" style="fill: none; stroke: #000000; stroke-width: 0.8; stroke-linejoin: miter; stroke-linecap: square"/>
   </g>
   <g id="text_25">
    <!-- Reliability Diagram for Logistic Regression -->
    <g transform="translate(192.341719 19.3575) scale(0.16 -0.16)">
     <defs>
      <path id="DejaVuSans-4a" d="M 2906 1791 
Q 2906 2416 2648 2759 
Q 2391 3103 1925 3103 
Q 1463 3103 1205 2759 
Q 947 2416 947 1791 
Q 947 1169 1205 825 
Q 1463 481 1925 481 
Q 2391 481 2648 825 
Q 2906 1169 2906 1791 
z
M 3481 434 
Q 3481 -459 3084 -895 
Q 2688 -1331 1869 -1331 
Q 1566 -1331 1297 -1286 
Q 1028 -1241 775 -1147 
L 775 -588 
Q 1028 -725 1275 -790 
Q 1522 -856 1778 -856 
Q 2344 -856 2625 -561 
Q 2906 -266 2906 331 
L 2906 616 
Q 2728 306 2450 153 
Q 2172 0 1784 0 
Q 1141 0 747 490 
Q 353 981 353 1791 
Q 353 2603 747 3093 
Q 1141 3584 1784 3584 
Q 2172 3584 2450 3431 
Q 2728 3278 2906 2969 
L 2906 3500 
L 3481 3500 
L 3481 434 
z
" transform="scale(0.015625)"/>
      <path id="DejaVuSans-50" d="M 3328 2828 
Q 3544 3216 3844 3400 
Q 4144 3584 4550 3584 
Q 5097 3584 5394 3201 
Q 5691 2819 5691 2113 
L 5691 0 
L 5113 0 
L 5113 2094 
Q 5113 2597 4934 2840 
Q 4756 3084 4391 3084 
Q 3944 3084 3684 2787 
Q 3425 2491 3425 1978 
L 3425 0 
L 2847 0 
L 2847 2094 
Q 2847 2600 2669 2842 
Q 2491 3084 2119 3084 
Q 1678 3084 1418 2786 
Q 1159 2488 1159 1978 
L 1159 0 
L 581 0 
L 581 3500 
L 1159 3500 
L 1159 2956 
Q 1356 3278 1631 3431 
Q 1906 3584 2284 3584 
Q 2666 3584 2933 3390 
Q 3200 3197 3328 2828 
z
" transform="scale(0.015625)"/>
      <path id="DejaVuSans-2f" d="M 628 4666 
L 1259 4666 
L 1259 531 
L 3531 531 
L 3531 0 
L 628 0 
L 628 4666 
z
" transform="scale(0.015625)"/>
     </defs>
     <use xlink:href="#DejaVuSans-35"/>
     <use xlink:href="#DejaVuSans-48" transform="translate(65 0)"/>
     <use xlink:href="#DejaVuSans-4f" transform="translate(126.53125 0)"/>
     <use xlink:href="#DejaVuSans-4c" transform="translate(154.3125 0)"/>
     <use xlink:href="#DejaVuSans-44" transform="translate(182.09375 0)"/>
     <use xlink:href="#DejaVuSans-45" transform="translate(243.375 0)"/>
     <use xlink:href="#DejaVuSans-4c" transform="translate(306.859375 0)"/>
     <use xlink:href="#DejaVuSans-4f" transform="translate(334.640625 0)"/>
     <use xlink:href="#DejaVuSans-4c" transform="translate(362.421875 0)"/>
     <use xlink:href="#DejaVuSans-57" transform="translate(390.203125 0)"/>
     <use xlink:href="#DejaVuSans-5c" transform="translate(429.40625 0)"/>
     <use xlink:href="#DejaVuSans-3" transform="translate(488.59375 0)"/>
     <use xlink:href="#DejaVuSans-27" transform="translate(520.375 0)"/>
     <use xlink:href="#DejaVuSans-4c" transform="translate(597.375 0)"/>
     <use xlink:href="#DejaVuSans-44" transform="translate(625.15625 0)"/>
     <use xlink:href="#DejaVuSans-4a" transform="translate(686.4375 0)"/>
     <use xlink:href="#DejaVuSans-55" transform="translate(749.921875 0)"/>
     <use xlink:href="#DejaVuSans-44" transform="translate(791.03125 0)"/>
     <use xlink:href="#DejaVuSans-50" transform="translate(852.3125 0)"/>
     <use xlink:href="#DejaVuSans-3" transform="translate(949.71875 0)"/>
     <use xlink:href="#DejaVuSans-49" transform="translate(981.5 0)"/>
     <use xlink:href="#DejaVuSans-52" transform="translate(1016.703125 0)"/>
     <use xlink:href="#DejaVuSans-55" transform="translate(1077.890625 0)"/>
     <use xlink:href="#DejaVuSans-3" transform="translate(1119 0)"/>
     <use xlink:href="#DejaVuSans-2f" transform="translate(1150.78125 0)"/>
     <use xlink:href="#DejaVuSans-52" transform="translate(1204.75 0)"/>
     <use xlink:href="#DejaVuSans-4a" transform="translate(1265.9375 0)"/>
     <use xlink:href="#DejaVuSans-4c" transform="translate(1329.421875 0)"/>
     <use xlink:href="#DejaVuSans-56" transform="translate(1357.203125 0)"/>
     <use xlink:href="#DejaVuSans-57" transform="translate(1409.296875 0)"/>
     <use xlink:href="#DejaVuSans-4c" transform="translate(1448.5 0)"/>
     <use xlink:href="#DejaVuSans-46" transform="translate(1476.28125 0)"/>
     <use xlink:href="#DejaVuSans-3" transform="translate(1531.265625 0)"/>
     <use xlink:href="#DejaVuSans-35" transform="translate(1563.046875 0)"/>
     <use xlink:href="#DejaVuSans-48" transform="translate(1628.046875 0)"/>
     <use xlink:href="#DejaVuSans-4a" transform="translate(1689.578125 0)"/>
     <use xlink:href="#DejaVuSans-55" transform="translate(1753.0625 0)"/>
     <use xlink:href="#DejaVuSans-48" transform="translate(1791.96875 0)"/>
     <use xlink:href="#DejaVuSans-56" transform="translate(1853.5 0)"/>
     <use xlink:href="#DejaVuSans-56" transform="translate(1905.59375 0)"/>
     <use xlink:href="#DejaVuSans-4c" transform="translate(1957.6875 0)"/>
     <use xlink:href="#DejaVuSans-52" transform="translate(1985.46875 0)"/>
     <use xlink:href="#DejaVuSans-51" transform="translate(2046.65625 0)"/>
    </g>
   </g>
   <g id="legend_2">
    <g id="patch_33">
     <path d="M 553.649844 70.959375 
L 665.784219 70.959375 
Q 668.184219 70.959375 668.184219 68.559375 
L 668.184219 33.7575 
Q 668.184219 31.3575 665.784219 31.3575 
L 553.649844 31.3575 
Q 551.249844 31.3575 551.249844 33.7575 
L 551.249844 68.559375 
Q 551.249844 70.959375 553.649844 70.959375 
z
" style="fill: #ffffff; opacity: 0.8; stroke: #cccccc; stroke-linejoin: miter"/>
    </g>
    <g id="patch_34">
     <path d="M 556.049844 45.275625 
L 580.049844 45.275625 
L 580.049844 36.875625 
L 556.049844 36.875625 
z
" style="fill: #a20025"/>
    </g>
    <g id="text_26">
     <!-- Inhibitor -->
     <g transform="translate(589.649844 45.275625) scale(0.12 -0.12)">
      <defs>
       <path id="DejaVuSans-2c" d="M 628 4666 
L 1259 4666 
L 1259 0 
L 628 0 
L 628 4666 
z
" transform="scale(0.015625)"/>
       <path id="DejaVuSans-4b" d="M 3513 2113 
L 3513 0 
L 2938 0 
L 2938 2094 
Q 2938 2591 2744 2837 
Q 2550 3084 2163 3084 
Q 1697 3084 1428 2787 
Q 1159 2491 1159 1978 
L 1159 0 
L 581 0 
L 581 4863 
L 1159 4863 
L 1159 2956 
Q 1366 3272 1645 3428 
Q 1925 3584 2291 3584 
Q 2894 3584 3203 3211 
Q 3513 2838 3513 2113 
z
" transform="scale(0.015625)"/>
      </defs>
      <use xlink:href="#DejaVuSans-2c"/>
      <use xlink:href="#DejaVuSans-51" transform="translate(29.5 0)"/>
      <use xlink:href="#DejaVuSans-4b" transform="translate(92.875 0)"/>
      <use xlink:href="#DejaVuSans-4c" transform="translate(156.25 0)"/>
      <use xlink:href="#DejaVuSans-45" transform="translate(184.03125 0)"/>
      <use xlink:href="#DejaVuSans-4c" transform="translate(247.515625 0)"/>
      <use xlink:href="#DejaVuSans-57" transform="translate(275.296875 0)"/>
      <use xlink:href="#DejaVuSans-52" transform="translate(314.5 0)"/>
      <use xlink:href="#DejaVuSans-55" transform="translate(375.6875 0)"/>
     </g>
    </g>
    <g id="patch_35">
     <path d="M 556.049844 63.276563 
L 580.049844 63.276563 
L 580.049844 54.876563 
L 556.049844 54.876563 
z
" style="fill: #6c8ebf; opacity: 0.7"/>
    </g>
    <g id="text_27">
     <!-- Noninhibitor -->
     <g transform="translate(589.649844 63.276563) scale(0.12 -0.12)">
      <defs>
       <path id="DejaVuSans-31" d="M 628 4666 
L 1478 4666 
L 3547 763 
L 3547 4666 
L 4159 4666 
L 4159 0 
L 3309 0 
L 1241 3903 
L 1241 0 
L 628 0 
L 628 4666 
z
" transform="scale(0.015625)"/>
      </defs>
      <use xlink:href="#DejaVuSans-31"/>
      <use xlink:href="#DejaVuSans-52" transform="translate(74.8125 0)"/>
      <use xlink:href="#DejaVuSans-51" transform="translate(136 0)"/>
      <use xlink:href="#DejaVuSans-4c" transform="translate(199.375 0)"/>
      <use xlink:href="#DejaVuSans-51" transform="translate(227.15625 0)"/>
      <use xlink:href="#DejaVuSans-4b" transform="translate(290.53125 0)"/>
      <use xlink:href="#DejaVuSans-4c" transform="translate(353.90625 0)"/>
      <use xlink:href="#DejaVuSans-45" transform="translate(381.6875 0)"/>
      <use xlink:href="#DejaVuSans-4c" transform="translate(445.171875 0)"/>
      <use xlink:href="#DejaVuSans-57" transform="translate(472.953125 0)"/>
      <use xlink:href="#DejaVuSans-52" transform="translate(512.15625 0)"/>
      <use xlink:href="#DejaVuSans-55" transform="translate(573.34375 0)"/>
     </g>
    </g>
   </g>
  </g>
 </g>
 <defs>
  <clipPath id="p48810c4c06">
   <rect x="48.104219" y="25.3575" width="626.08" height="501.16"/>
  </clipPath>
 </defs>
</svg>
