<svg xmlns="http://www.w3.org/2000/svg" xmlns:rdkit="http://www.rdkit.org/xml" xmlns:xlink="http://www.w3.org/1999/xlink" version="1.1" baseProfile="full" xml:space="preserve" width="300px" height="300px" viewBox="0 0 300 300">
<!-- END OF HEADER -->
<rect style="opacity:1.0;fill:#FFFFFF;stroke:none" width="300.0" height="300.0" x="0.0" y="0.0"> </rect>
<path class="bond-0 atom-0 atom-1" d="M 285.4,179.4 L 267.6,157.2" style="fill:none;fill-rule:evenodd;stroke:#000000;stroke-width:2.0px;stroke-linecap:butt;stroke-linejoin:miter;stroke-opacity:1"/>
<path class="bond-1 atom-1 atom-2" d="M 256.2,113.9 L 265.1,81.3" style="fill:none;fill-rule:evenodd;stroke:#000000;stroke-width:2.0px;stroke-linecap:butt;stroke-linejoin:miter;stroke-opacity:1"/>
<path class="bond-2 atom-2 atom-3" d="M 265.1,81.3 L 236.3,62.4" style="fill:none;fill-rule:evenodd;stroke:#000000;stroke-width:2.0px;stroke-linecap:butt;stroke-linejoin:miter;stroke-opacity:1"/>
<path class="bond-2 atom-2 atom-3" d="M 255.3,85.0 L 231.7,69.4" style="fill:none;fill-rule:evenodd;stroke:#000000;stroke-width:2.0px;stroke-linecap:butt;stroke-linejoin:miter;stroke-opacity:1"/>
<path class="bond-3 atom-3 atom-4" d="M 199.8,65.0 L 174.2,85.6" style="fill:none;fill-rule:evenodd;stroke:#000000;stroke-width:2.0px;stroke-linecap:butt;stroke-linejoin:miter;stroke-opacity:1"/>
<path class="bond-4 atom-4 atom-5" d="M 174.2,85.6 L 194.1,138.2" style="fill:none;fill-rule:evenodd;stroke:#000000;stroke-width:2.0px;stroke-linecap:butt;stroke-linejoin:miter;stroke-opacity:1"/>
<path class="bond-4 atom-4 atom-5" d="M 184.2,88.3 L 199.8,129.5" style="fill:none;fill-rule:evenodd;stroke:#000000;stroke-width:2.0px;stroke-linecap:butt;stroke-linejoin:miter;stroke-opacity:1"/>
<path class="bond-5 atom-5 atom-6" d="M 194.1,138.2 L 158.5,181.7" style="fill:none;fill-rule:evenodd;stroke:#000000;stroke-width:2.0px;stroke-linecap:butt;stroke-linejoin:miter;stroke-opacity:1"/>
<path class="bond-6 atom-6 atom-7" d="M 153.7,180.9 L 166.2,214.0" style="fill:none;fill-rule:evenodd;stroke:#000000;stroke-width:2.0px;stroke-linecap:butt;stroke-linejoin:miter;stroke-opacity:1"/>
<path class="bond-6 atom-6 atom-7" d="M 161.5,177.9 L 174.1,211.0" style="fill:none;fill-rule:evenodd;stroke:#000000;stroke-width:2.0px;stroke-linecap:butt;stroke-linejoin:miter;stroke-opacity:1"/>
<path class="bond-7 atom-6 atom-8" d="M 158.5,181.7 L 121.2,175.6" style="fill:none;fill-rule:evenodd;stroke:#000000;stroke-width:2.0px;stroke-linecap:butt;stroke-linejoin:miter;stroke-opacity:1"/>
<path class="bond-8 atom-8 atom-9" d="M 94.8,151.0 L 83.1,120.0" style="fill:none;fill-rule:evenodd;stroke:#000000;stroke-width:2.0px;stroke-linecap:butt;stroke-linejoin:miter;stroke-opacity:1"/>
<path class="bond-9 atom-9 atom-10" d="M 86.2,116.3 L 48.8,110.2" style="fill:none;fill-rule:evenodd;stroke:#000000;stroke-width:2.0px;stroke-linecap:butt;stroke-linejoin:miter;stroke-opacity:1"/>
<path class="bond-9 atom-9 atom-10" d="M 84.8,124.6 L 47.4,118.5" style="fill:none;fill-rule:evenodd;stroke:#000000;stroke-width:2.0px;stroke-linecap:butt;stroke-linejoin:miter;stroke-opacity:1"/>
<path class="bond-10 atom-9 atom-11" d="M 83.1,120.0 L 101.0,98.2" style="fill:none;fill-rule:evenodd;stroke:#000000;stroke-width:2.0px;stroke-linecap:butt;stroke-linejoin:miter;stroke-opacity:1"/>
<path class="bond-11 atom-11 atom-12" d="M 110.5,54.9 L 98.8,23.9" style="fill:none;fill-rule:evenodd;stroke:#000000;stroke-width:2.0px;stroke-linecap:butt;stroke-linejoin:miter;stroke-opacity:1"/>
<path class="bond-12 atom-8 atom-13" d="M 85.3,194.3 L 67.4,216.2" style="fill:none;fill-rule:evenodd;stroke:#000000;stroke-width:2.0px;stroke-linecap:butt;stroke-linejoin:miter;stroke-opacity:1"/>
<path class="bond-13 atom-5 atom-1" d="M 194.1,138.2 L 232.0,136.4" style="fill:none;fill-rule:evenodd;stroke:#000000;stroke-width:2.0px;stroke-linecap:butt;stroke-linejoin:miter;stroke-opacity:1"/>
<path class="bond-14 atom-11 atom-4" d="M 136.9,79.5 L 174.2,85.6" style="fill:none;fill-rule:evenodd;stroke:#000000;stroke-width:2.0px;stroke-linecap:butt;stroke-linejoin:miter;stroke-opacity:1"/>
<path d="M 264.6,82.9 L 265.1,81.3 L 263.6,80.4" style="fill:none;stroke:#000000;stroke-width:2.0px;stroke-linecap:butt;stroke-linejoin:miter;stroke-opacity:1;"/>
<path d="M 160.2,179.5 L 158.5,181.7 L 156.6,181.4" style="fill:none;stroke:#000000;stroke-width:2.0px;stroke-linecap:butt;stroke-linejoin:miter;stroke-opacity:1;"/>
<path d="M 83.7,121.6 L 83.1,120.0 L 84.0,118.9" style="fill:none;stroke:#000000;stroke-width:2.0px;stroke-linecap:butt;stroke-linejoin:miter;stroke-opacity:1;"/>
<path class="atom-1" d="M 244.0 121.4 L 253.3 136.4 Q 254.2 137.9, 255.7 140.5 Q 257.1 143.2, 257.2 143.4 L 257.2 121.4 L 261.0 121.4 L 261.0 149.7 L 257.1 149.7 L 247.1 133.3 Q 246.0 131.4, 244.7 129.2 Q 243.5 127.0, 243.2 126.3 L 243.2 149.7 L 239.5 149.7 L 239.5 121.4 L 244.0 121.4 " fill="#000000"/>
<path class="atom-3" d="M 211.8 36.3 L 221.1 51.3 Q 222.0 52.8, 223.5 55.4 Q 225.0 58.1, 225.0 58.3 L 225.0 36.3 L 228.8 36.3 L 228.8 64.6 L 224.9 64.6 L 215.0 48.2 Q 213.8 46.3, 212.6 44.1 Q 211.4 41.9, 211.0 41.2 L 211.0 64.6 L 207.3 64.6 L 207.3 36.3 L 211.8 36.3 " fill="#000000"/>
<path class="atom-7" d="M 165.4 234.4 Q 165.4 227.6, 168.7 223.8 Q 172.1 220.0, 178.4 220.0 Q 184.6 220.0, 188.0 223.8 Q 191.4 227.6, 191.4 234.4 Q 191.4 241.3, 188.0 245.2 Q 184.6 249.1, 178.4 249.1 Q 172.1 249.1, 168.7 245.2 Q 165.4 241.3, 165.4 234.4 M 178.4 245.9 Q 182.7 245.9, 185.0 243.0 Q 187.4 240.1, 187.4 234.4 Q 187.4 228.8, 185.0 226.0 Q 182.7 223.2, 178.4 223.2 Q 174.0 223.2, 171.7 226.0 Q 169.4 228.8, 169.4 234.4 Q 169.4 240.1, 171.7 243.0 Q 174.0 245.9, 178.4 245.9 " fill="#000000"/>
<path class="atom-8" d="M 96.7 158.5 L 106.0 173.5 Q 106.9 175.0, 108.4 177.6 Q 109.9 180.3, 110.0 180.5 L 110.0 158.5 L 113.7 158.5 L 113.7 186.8 L 109.8 186.8 L 99.9 170.4 Q 98.7 168.5, 97.5 166.3 Q 96.3 164.1, 95.9 163.4 L 95.9 186.8 L 92.2 186.8 L 92.2 158.5 L 96.7 158.5 " fill="#000000"/>
<path class="atom-10" d="M 14.6 111.0 Q 14.6 104.2, 18.0 100.4 Q 21.3 96.6, 27.6 96.6 Q 33.9 96.6, 37.2 100.4 Q 40.6 104.2, 40.6 111.0 Q 40.6 117.9, 37.2 121.8 Q 33.8 125.7, 27.6 125.7 Q 21.4 125.7, 18.0 121.8 Q 14.6 118.0, 14.6 111.0 M 27.6 122.5 Q 31.9 122.5, 34.2 119.6 Q 36.6 116.7, 36.6 111.0 Q 36.6 105.5, 34.2 102.7 Q 31.9 99.8, 27.6 99.8 Q 23.3 99.8, 20.9 102.6 Q 18.6 105.4, 18.6 111.0 Q 18.6 116.8, 20.9 119.6 Q 23.3 122.5, 27.6 122.5 " fill="#000000"/>
<path class="atom-11" d="M 112.4 62.4 L 121.7 77.4 Q 122.6 78.8, 124.1 81.5 Q 125.6 84.2, 125.7 84.4 L 125.7 62.4 L 129.4 62.4 L 129.4 90.7 L 125.6 90.7 L 115.6 74.3 Q 114.4 72.4, 113.2 70.2 Q 112.0 68.0, 111.6 67.3 L 111.6 90.7 L 108.0 90.7 L 108.0 62.4 L 112.4 62.4 " fill="#000000"/>
<path class="legend" d="M 120.4 276.8 Q 120.4 274.0, 121.7 272.5 Q 123.0 271.0, 125.5 271.0 Q 127.9 271.0, 129.1 272.7 L 128.0 273.6 Q 127.1 272.4, 125.5 272.4 Q 123.8 272.4, 122.9 273.5 Q 122.0 274.6, 122.0 276.8 Q 122.0 279.1, 122.9 280.2 Q 123.9 281.4, 125.7 281.4 Q 126.9 281.4, 128.4 280.6 L 128.8 281.8 Q 128.3 282.2, 127.4 282.4 Q 126.5 282.6, 125.5 282.6 Q 123.0 282.6, 121.7 281.1 Q 120.4 279.6, 120.4 276.8 " fill="#000000"/>
<path class="legend" d="M 130.4 280.3 Q 130.4 279.0, 131.4 278.2 Q 132.5 277.5, 134.4 277.5 L 135.6 277.5 L 135.6 277.2 Q 135.6 276.2, 135.2 275.8 Q 134.8 275.3, 133.8 275.3 Q 133.1 275.3, 132.6 275.4 Q 132.1 275.6, 131.3 275.9 L 130.8 274.9 Q 132.3 274.1, 133.8 274.1 Q 135.5 274.1, 136.3 274.9 Q 137.1 275.6, 137.1 277.2 L 137.1 282.5 L 136.0 282.5 Q 136.0 282.4, 135.9 282.2 Q 135.9 281.9, 135.8 281.5 Q 134.6 282.7, 133.1 282.7 Q 131.8 282.7, 131.1 282.0 Q 130.4 281.4, 130.4 280.3 M 131.9 280.2 Q 131.9 280.9, 132.3 281.2 Q 132.6 281.5, 133.4 281.5 Q 134.0 281.5, 134.6 281.2 Q 135.2 280.9, 135.6 280.4 L 135.6 278.6 L 134.5 278.6 Q 133.2 278.6, 132.5 279.0 Q 131.9 279.4, 131.9 280.2 " fill="#000000"/>
<path class="legend" d="M 139.0 275.4 L 139.0 274.3 L 140.4 274.3 L 140.4 273.1 Q 140.4 271.7, 141.2 271.0 Q 141.9 270.3, 143.1 270.3 Q 143.6 270.3, 144.1 270.5 Q 144.5 270.6, 145.0 270.8 L 144.6 271.8 Q 143.9 271.5, 143.2 271.5 Q 142.6 271.5, 142.3 271.9 Q 141.9 272.3, 141.9 273.0 L 141.9 274.3 L 144.5 274.3 L 144.5 275.4 L 141.9 275.4 L 141.9 285.0 L 140.4 285.0 L 140.4 275.4 L 139.0 275.4 " fill="#000000"/>
<path class="legend" d="M 145.3 275.4 L 145.3 274.3 L 146.7 274.3 L 146.7 273.1 Q 146.7 271.7, 147.4 271.0 Q 148.2 270.3, 149.3 270.3 Q 149.9 270.3, 150.3 270.5 Q 150.8 270.6, 151.3 270.8 L 150.8 271.8 Q 150.1 271.5, 149.5 271.5 Q 148.9 271.5, 148.5 271.9 Q 148.2 272.3, 148.2 273.0 L 148.2 274.3 L 150.7 274.3 L 150.7 275.4 L 148.2 275.4 L 148.2 285.0 L 146.7 285.0 L 146.7 275.4 L 145.3 275.4 " fill="#000000"/>
<path class="legend" d="M 151.5 278.4 Q 151.5 276.4, 152.5 275.3 Q 153.5 274.1, 155.4 274.1 Q 157.2 274.1, 158.0 275.2 Q 158.8 276.3, 158.8 278.3 L 158.8 278.6 L 153.0 278.6 Q 153.1 280.0, 153.7 280.7 Q 154.3 281.4, 155.5 281.4 Q 156.1 281.4, 156.7 281.3 Q 157.3 281.1, 158.0 280.8 L 158.5 281.8 Q 157.6 282.3, 156.9 282.5 Q 156.2 282.6, 155.4 282.6 Q 153.5 282.6, 152.5 281.5 Q 151.5 280.4, 151.5 278.4 M 155.4 275.3 Q 154.4 275.3, 153.8 275.9 Q 153.3 276.4, 153.1 277.5 L 157.2 277.5 Q 157.1 276.4, 156.6 275.8 Q 156.2 275.3, 155.4 275.3 " fill="#000000"/>
<path class="legend" d="M 160.0 271.2 L 161.5 271.2 L 161.5 272.6 L 160.0 272.6 L 160.0 271.2 M 160.0 274.3 L 161.5 274.3 L 161.5 282.5 L 160.0 282.5 L 160.0 274.3 " fill="#000000"/>
<path class="legend" d="M 167.8 274.1 Q 169.1 274.1, 169.8 274.9 Q 170.5 275.6, 170.5 277.1 L 170.5 282.5 L 169.0 282.5 L 169.0 277.2 Q 169.0 276.2, 168.6 275.8 Q 168.2 275.3, 167.4 275.3 Q 166.7 275.3, 166.0 275.7 Q 165.4 276.0, 165.0 276.6 L 165.0 282.5 L 163.5 282.5 L 163.5 274.3 L 164.7 274.3 L 164.9 275.4 Q 166.0 274.1, 167.8 274.1 " fill="#000000"/>
<path class="legend" d="M 172.4 278.4 Q 172.4 276.4, 173.4 275.3 Q 174.4 274.1, 176.2 274.1 Q 178.0 274.1, 178.8 275.2 Q 179.6 276.3, 179.6 278.3 L 179.6 278.6 L 173.9 278.6 Q 173.9 280.0, 174.5 280.7 Q 175.2 281.4, 176.3 281.4 Q 177.0 281.4, 177.6 281.3 Q 178.2 281.1, 178.9 280.8 L 179.3 281.8 Q 178.5 282.3, 177.8 282.5 Q 177.0 282.6, 176.3 282.6 Q 174.4 282.6, 173.4 281.5 Q 172.4 280.4, 172.4 278.4 M 176.2 275.3 Q 175.3 275.3, 174.7 275.9 Q 174.1 276.4, 174.0 277.5 L 178.1 277.5 Q 177.9 276.4, 177.5 275.8 Q 177.0 275.3, 176.2 275.3 " fill="#000000"/>
</svg>