<svg xmlns="http://www.w3.org/2000/svg" xmlns:rdkit="http://www.rdkit.org/xml" xmlns:xlink="http://www.w3.org/1999/xlink" version="1.1" baseProfile="full" xml:space="preserve" width="200px" height="200px" viewBox="0 0 200 200">
<!-- END OF HEADER -->
<rect style="opacity:1.0;fill:#FFFFFF;stroke:none" width="200.0" height="200.0" x="0.0" y="0.0"> </rect>
<path class="bond-0 atom-0 atom-1" d="M 192.4,126.2 L 184.3,116.0" style="fill:none;fill-rule:evenodd;stroke:#000000;stroke-width:2.0px;stroke-linecap:butt;stroke-linejoin:miter;stroke-opacity:1"/>
<path class="bond-1 atom-1 atom-2" d="M 174.2,77.8 L 178.9,60.7" style="fill:none;fill-rule:evenodd;stroke:#000000;stroke-width:2.0px;stroke-linecap:butt;stroke-linejoin:miter;stroke-opacity:1"/>
<path class="bond-2 atom-2 atom-3" d="M 178.9,60.7 L 163.3,50.5" style="fill:none;fill-rule:evenodd;stroke:#000000;stroke-width:2.0px;stroke-linecap:butt;stroke-linejoin:miter;stroke-opacity:1"/>
<path class="bond-2 atom-2 atom-3" d="M 172.4,63.2 L 160.2,55.2" style="fill:none;fill-rule:evenodd;stroke:#000000;stroke-width:2.0px;stroke-linecap:butt;stroke-linejoin:miter;stroke-opacity:1"/>
<path class="bond-3 atom-3 atom-4" d="M 131.8,52.8 L 118.3,63.6" style="fill:none;fill-rule:evenodd;stroke:#000000;stroke-width:2.0px;stroke-linecap:butt;stroke-linejoin:miter;stroke-opacity:1"/>
<path class="bond-4 atom-4 atom-5" d="M 118.3,63.6 L 131.5,98.7" style="fill:none;fill-rule:evenodd;stroke:#000000;stroke-width:2.0px;stroke-linecap:butt;stroke-linejoin:miter;stroke-opacity:1"/>
<path class="bond-4 atom-4 atom-5" d="M 125.0,65.4 L 135.4,92.9" style="fill:none;fill-rule:evenodd;stroke:#000000;stroke-width:2.0px;stroke-linecap:butt;stroke-linejoin:miter;stroke-opacity:1"/>
<path class="bond-5 atom-5 atom-6" d="M 131.5,98.7 L 107.8,127.7" style="fill:none;fill-rule:evenodd;stroke:#000000;stroke-width:2.0px;stroke-linecap:butt;stroke-linejoin:miter;stroke-opacity:1"/>
<path class="bond-6 atom-6 atom-7" d="M 104.6,127.2 L 111.1,144.4" style="fill:none;fill-rule:evenodd;stroke:#000000;stroke-width:2.0px;stroke-linecap:butt;stroke-linejoin:miter;stroke-opacity:1"/>
<path class="bond-6 atom-6 atom-7" d="M 109.9,125.2 L 116.4,142.5" style="fill:none;fill-rule:evenodd;stroke:#000000;stroke-width:2.0px;stroke-linecap:butt;stroke-linejoin:miter;stroke-opacity:1"/>
<path class="bond-7 atom-6 atom-8" d="M 107.8,127.7 L 86.5,124.2" style="fill:none;fill-rule:evenodd;stroke:#000000;stroke-width:2.0px;stroke-linecap:butt;stroke-linejoin:miter;stroke-opacity:1"/>
<path class="bond-8 atom-8 atom-9" d="M 63.6,102.5 L 57.6,86.6" style="fill:none;fill-rule:evenodd;stroke:#000000;stroke-width:2.0px;stroke-linecap:butt;stroke-linejoin:miter;stroke-opacity:1"/>
<path class="bond-9 atom-9 atom-10" d="M 59.6,84.1 L 39.0,80.7" style="fill:none;fill-rule:evenodd;stroke:#000000;stroke-width:2.0px;stroke-linecap:butt;stroke-linejoin:miter;stroke-opacity:1"/>
<path class="bond-9 atom-9 atom-10" d="M 58.7,89.6 L 38.1,86.2" style="fill:none;fill-rule:evenodd;stroke:#000000;stroke-width:2.0px;stroke-linecap:butt;stroke-linejoin:miter;stroke-opacity:1"/>
<path class="bond-10 atom-9 atom-11" d="M 57.6,86.6 L 65.6,76.7" style="fill:none;fill-rule:evenodd;stroke:#000000;stroke-width:2.0px;stroke-linecap:butt;stroke-linejoin:miter;stroke-opacity:1"/>
<path class="bond-11 atom-11 atom-12" d="M 74.1,38.4 L 68.0,22.5" style="fill:none;fill-rule:evenodd;stroke:#000000;stroke-width:2.0px;stroke-linecap:butt;stroke-linejoin:miter;stroke-opacity:1"/>
<path class="bond-12 atom-8 atom-13" d="M 55.1,140.8 L 47.1,150.6" style="fill:none;fill-rule:evenodd;stroke:#000000;stroke-width:2.0px;stroke-linecap:butt;stroke-linejoin:miter;stroke-opacity:1"/>
<path class="bond-13 atom-5 atom-1" d="M 131.5,98.7 L 153.3,97.6" style="fill:none;fill-rule:evenodd;stroke:#000000;stroke-width:2.0px;stroke-linecap:butt;stroke-linejoin:miter;stroke-opacity:1"/>
<path class="bond-14 atom-11 atom-4" d="M 97.0,60.1 L 118.3,63.6" style="fill:none;fill-rule:evenodd;stroke:#000000;stroke-width:2.0px;stroke-linecap:butt;stroke-linejoin:miter;stroke-opacity:1"/>
<path d="M 178.6,61.6 L 178.9,60.7 L 178.1,60.2" style="fill:none;stroke:#000000;stroke-width:2.0px;stroke-linecap:butt;stroke-linejoin:miter;stroke-opacity:1;"/>
<path d="M 109.0,126.2 L 107.8,127.7 L 106.7,127.5" style="fill:none;stroke:#000000;stroke-width:2.0px;stroke-linecap:butt;stroke-linejoin:miter;stroke-opacity:1;"/>
<path d="M 57.9,87.4 L 57.6,86.6 L 58.0,86.1" style="fill:none;stroke:#000000;stroke-width:2.0px;stroke-linecap:butt;stroke-linejoin:miter;stroke-opacity:1;"/>
<path class="atom-1" d="M 162.7 82.7 L 172.0 97.7 Q 172.9 99.2, 174.4 101.9 Q 175.9 104.6, 176.0 104.7 L 176.0 82.7 L 179.7 82.7 L 179.7 111.1 L 175.9 111.1 L 165.9 94.7 Q 164.7 92.7, 163.5 90.5 Q 162.3 88.3, 161.9 87.7 L 161.9 111.1 L 158.3 111.1 L 158.3 82.7 L 162.7 82.7 " fill="#000000"/>
<path class="atom-3" d="M 141.3 26.0 L 150.6 41.0 Q 151.5 42.5, 153.0 45.2 Q 154.4 47.8, 154.5 48.0 L 154.5 26.0 L 158.3 26.0 L 158.3 54.3 L 154.4 54.3 L 144.4 37.9 Q 143.3 36.0, 142.0 33.8 Q 140.8 31.6, 140.5 30.9 L 140.5 54.3 L 136.8 54.3 L 136.8 26.0 L 141.3 26.0 " fill="#000000"/>
<path class="atom-7" d="M 108.1 162.8 Q 108.1 156.0, 111.4 152.2 Q 114.8 148.4, 121.1 148.4 Q 127.3 148.4, 130.7 152.2 Q 134.1 156.0, 134.1 162.8 Q 134.1 169.7, 130.7 173.6 Q 127.3 177.5, 121.1 177.5 Q 114.8 177.5, 111.4 173.6 Q 108.1 169.8, 108.1 162.8 M 121.1 174.3 Q 125.4 174.3, 127.7 171.4 Q 130.1 168.5, 130.1 162.8 Q 130.1 157.3, 127.7 154.5 Q 125.4 151.6, 121.1 151.6 Q 116.7 151.6, 114.4 154.4 Q 112.1 157.2, 112.1 162.8 Q 112.1 168.6, 114.4 171.4 Q 116.7 174.3, 121.1 174.3 " fill="#000000"/>
<path class="atom-8" d="M 64.6 107.5 L 73.8 122.5 Q 74.8 124.0, 76.2 126.6 Q 77.7 129.3, 77.8 129.5 L 77.8 107.5 L 81.6 107.5 L 81.6 135.8 L 77.7 135.8 L 67.7 119.4 Q 66.6 117.5, 65.3 115.3 Q 64.1 113.1, 63.8 112.4 L 63.8 135.8 L 60.1 135.8 L 60.1 107.5 L 64.6 107.5 " fill="#000000"/>
<path class="atom-10" d="M 7.6 80.6 Q 7.6 73.8, 10.9 70.0 Q 14.3 66.2, 20.6 66.2 Q 26.8 66.2, 30.2 70.0 Q 33.6 73.8, 33.6 80.6 Q 33.6 87.5, 30.2 91.4 Q 26.8 95.3, 20.6 95.3 Q 14.3 95.3, 10.9 91.4 Q 7.6 87.5, 7.6 80.6 M 20.6 92.1 Q 24.9 92.1, 27.2 89.2 Q 29.6 86.3, 29.6 80.6 Q 29.6 75.0, 27.2 72.2 Q 24.9 69.4, 20.6 69.4 Q 16.2 69.4, 13.9 72.2 Q 11.6 75.0, 11.6 80.6 Q 11.6 86.3, 13.9 89.2 Q 16.2 92.1, 20.6 92.1 " fill="#000000"/>
<path class="atom-11" d="M 75.0 43.4 L 84.3 58.4 Q 85.2 59.9, 86.7 62.6 Q 88.2 65.2, 88.3 65.4 L 88.3 43.4 L 92.0 43.4 L 92.0 71.7 L 88.2 71.7 L 78.2 55.3 Q 77.0 53.4, 75.8 51.2 Q 74.6 49.0, 74.2 48.3 L 74.2 71.7 L 70.6 71.7 L 70.6 43.4 L 75.0 43.4 " fill="#000000"/>
</svg>