<?xml version="1.0" encoding="utf-8" standalone="no"?>
<!DOCTYPE svg PUBLIC "-//W3C//DTD SVG 1.1//EN"
  "http://www.w3.org/Graphics/SVG/1.1/DTD/svg11.dtd">
<svg xmlns:xlink="http://www.w3.org/1999/xlink" width="783.752187pt" height="460.7175pt" viewBox="0 0 783.752187 460.7175" xmlns="http://www.w3.org/2000/svg" version="1.1">
 <metadata>
  <rdf:RDF xmlns:dc="http://purl.org/dc/elements/1.1/" xmlns:cc="http://creativecommons.org/ns#" xmlns:rdf="http://www.w3.org/1999/02/22-rdf-syntax-ns#">
   <cc:Work>
    <dc:type rdf:resource="http://purl.org/dc/dcmitype/StillImage"/>
    <dc:date>2026-07-07T19:54:11.116435</dc:date>
    <dc:format>image/svg+xml</dc:format>
    <dc:creator>
     <cc:Agent>
      <dc:title>Matplotlib v3.11.0, https://matplotlib.org/</dc:title>
     </cc:Agent>
    </dc:creator>
   </cc:Work>
  </rdf:RDF>
 </metadata>
 <defs>
  <style type="text/css">*{stroke-linejoin: round; stroke-linecap: butt}</style>
 </defs>
 <g id="figure_1">
  <g id="patch_1">
   <path d="M 0 460.7175 
L 783.752187 460.7175 
L 783.752187 0 
L 0 0 
z
" style="fill: #ffffff"/>
  </g>
  <g id="axes_1">
   <g id="patch_2">
    <path d="M 49.821094 420.0175 
L 739.781094 420.0175 
L 739.781094 31.3575 
L 49.821094 31.3575 
z
" style="fill: #ffffff"/>
   </g>
   <g id="matplotlib.axis_1">
    <g id="xtick_1">
     <g id="line2d_1">
      <path d="M 84.951355 420.0175 
L 84.951355 31.3575 
" clip-path="url(#pd5afddbff2)" style="fill: none; stroke: #cccccc; stroke-width: 0.8; stroke-linecap: round"/>
     </g>
     <g id="line2d_2"/>
     <g id="text_1">
      <!-- 1950 -->
      <g style="fill: #262626" transform="translate(69.681355 432.634688) scale(0.12 -0.12)">
       <defs>
        <path id="DejaVuSans-14" d="M 794 531 
L 1825 531 
L 1825 4091 
L 703 3866 
L 703 4441 
L 1819 4666 
L 2450 4666 
L 2450 531 
L 3481 531 
L 3481 0 
L 794 0 
L 794 531 
z
" transform="scale(0.015625)"/>
        <path id="DejaVuSans-1c" d="M 703 97 
L 703 672 
Q 941 559 1184 500 
Q 1428 441 1663 441 
Q 2288 441 2617 861 
Q 2947 1281 2994 2138 
Q 2813 1869 2534 1725 
Q 2256 1581 1919 1581 
Q 1219 1581 811 2004 
Q 403 2428 403 3163 
Q 403 3881 828 4315 
Q 1253 4750 1959 4750 
Q 2769 4750 3195 4129 
Q 3622 3509 3622 2328 
Q 3622 1225 3098 567 
Q 2575 -91 1691 -91 
Q 1453 -91 1209 -44 
Q 966 3 703 97 
z
M 1959 2075 
Q 2384 2075 2632 2365 
Q 2881 2656 2881 3163 
Q 2881 3666 2632 3958 
Q 2384 4250 1959 4250 
Q 1534 4250 1286 3958 
Q 1038 3666 1038 3163 
Q 1038 2656 1286 2365 
Q 1534 2075 1959 2075 
z
" transform="scale(0.015625)"/>
        <path id="DejaVuSans-18" d="M 691 4666 
L 3169 4666 
L 3169 4134 
L 1269 4134 
L 1269 2991 
Q 1406 3038 1543 3061 
Q 1681 3084 1819 3084 
Q 2600 3084 3056 2656 
Q 3513 2228 3513 1497 
Q 3513 744 3044 326 
Q 2575 -91 1722 -91 
Q 1428 -91 1123 -41 
Q 819 9 494 109 
L 494 744 
Q 775 591 1075 516 
Q 1375 441 1709 441 
Q 2250 441 2565 725 
Q 2881 1009 2881 1497 
Q 2881 1984 2565 2268 
Q 2250 2553 1709 2553 
Q 1456 2553 1204 2497 
Q 953 2441 691 2322 
L 691 4666 
z
" transform="scale(0.015625)"/>
        <path id="DejaVuSans-13" d="M 2034 4250 
Q 1547 4250 1301 3770 
Q 1056 3291 1056 2328 
Q 1056 1369 1301 889 
Q 1547 409 2034 409 
Q 2525 409 2770 889 
Q 3016 1369 3016 2328 
Q 3016 3291 2770 3770 
Q 2525 4250 2034 4250 
z
M 2034 4750 
Q 2819 4750 3233 4129 
Q 3647 3509 3647 2328 
Q 3647 1150 3233 529 
Q 2819 -91 2034 -91 
Q 1250 -91 836 529 
Q 422 1150 422 2328 
Q 422 3509 836 4129 
Q 1250 4750 2034 4750 
z
" transform="scale(0.015625)"/>
       </defs>
       <use xlink:href="#DejaVuSans-14"/>
       <use xlink:href="#DejaVuSans-1c" transform="translate(63.625 0)"/>
       <use xlink:href="#DejaVuSans-18" transform="translate(127.25 0)"/>
       <use xlink:href="#DejaVuSans-13" transform="translate(190.875 0)"/>
      </g>
     </g>
    </g>
    <g id="xtick_2">
     <g id="line2d_3">
      <path d="M 168.694527 420.0175 
L 168.694527 31.3575 
" clip-path="url(#pd5afddbff2)" style="fill: none; stroke: #cccccc; stroke-width: 0.8; stroke-linecap: round"/>
     </g>
     <g id="line2d_4"/>
     <g id="text_2">
      <!-- 1960 -->
      <g style="fill: #262626" transform="translate(153.424527 432.634688) scale(0.12 -0.12)">
       <defs>
        <path id="DejaVuSans-19" d="M 2113 2584 
Q 1688 2584 1439 2293 
Q 1191 2003 1191 1497 
Q 1191 994 1439 701 
Q 1688 409 2113 409 
Q 2538 409 2786 701 
Q 3034 994 3034 1497 
Q 3034 2003 2786 2293 
Q 2538 2584 2113 2584 
z
M 3366 4563 
L 3366 3988 
Q 3128 4100 2886 4159 
Q 2644 4219 2406 4219 
Q 1781 4219 1451 3797 
Q 1122 3375 1075 2522 
Q 1259 2794 1537 2939 
Q 1816 3084 2150 3084 
Q 2853 3084 3261 2657 
Q 3669 2231 3669 1497 
Q 3669 778 3244 343 
Q 2819 -91 2113 -91 
Q 1303 -91 875 529 
Q 447 1150 447 2328 
Q 447 3434 972 4092 
Q 1497 4750 2381 4750 
Q 2619 4750 2861 4703 
Q 3103 4656 3366 4563 
z
" transform="scale(0.015625)"/>
       </defs>
       <use xlink:href="#DejaVuSans-14"/>
       <use xlink:href="#DejaVuSans-1c" transform="translate(63.625 0)"/>
       <use xlink:href="#DejaVuSans-19" transform="translate(127.25 0)"/>
       <use xlink:href="#DejaVuSans-13" transform="translate(190.875 0)"/>
      </g>
     </g>
    </g>
    <g id="xtick_3">
     <g id="line2d_5">
      <path d="M 252.4377 420.0175 
L 252.4377 31.3575 
" clip-path="url(#pd5afddbff2)" style="fill: none; stroke: #cccccc; stroke-width: 0.8; stroke-linecap: round"/>
     </g>
     <g id="line2d_6"/>
     <g id="text_3">
      <!-- 1970 -->
      <g style="fill: #262626" transform="translate(237.1677 432.634688) scale(0.12 -0.12)">
       <defs>
        <path id="DejaVuSans-1a" d="M 525 4666 
L 3525 4666 
L 3525 4397 
L 1831 0 
L 1172 0 
L 2766 4134 
L 525 4134 
L 525 4666 
z
" transform="scale(0.015625)"/>
       </defs>
       <use xlink:href="#DejaVuSans-14"/>
       <use xlink:href="#DejaVuSans-1c" transform="translate(63.625 0)"/>
       <use xlink:href="#DejaVuSans-1a" transform="translate(127.25 0)"/>
       <use xlink:href="#DejaVuSans-13" transform="translate(190.875 0)"/>
      </g>
     </g>
    </g>
    <g id="xtick_4">
     <g id="line2d_7">
      <path d="M 336.180873 420.0175 
L 336.180873 31.3575 
" clip-path="url(#pd5afddbff2)" style="fill: none; stroke: #cccccc; stroke-width: 0.8; stroke-linecap: round"/>
     </g>
     <g id="line2d_8"/>
     <g id="text_4">
      <!-- 1980 -->
      <g style="fill: #262626" transform="translate(320.910873 432.634688) scale(0.12 -0.12)">
       <defs>
        <path id="DejaVuSans-1b" d="M 2034 2216 
Q 1584 2216 1326 1975 
Q 1069 1734 1069 1313 
Q 1069 891 1326 650 
Q 1584 409 2034 409 
Q 2484 409 2743 651 
Q 3003 894 3003 1313 
Q 3003 1734 2745 1975 
Q 2488 2216 2034 2216 
z
M 1403 2484 
Q 997 2584 770 2862 
Q 544 3141 544 3541 
Q 544 4100 942 4425 
Q 1341 4750 2034 4750 
Q 2731 4750 3128 4425 
Q 3525 4100 3525 3541 
Q 3525 3141 3298 2862 
Q 3072 2584 2669 2484 
Q 3125 2378 3379 2068 
Q 3634 1759 3634 1313 
Q 3634 634 3220 271 
Q 2806 -91 2034 -91 
Q 1263 -91 848 271 
Q 434 634 434 1313 
Q 434 1759 690 2068 
Q 947 2378 1403 2484 
z
M 1172 3481 
Q 1172 3119 1398 2916 
Q 1625 2713 2034 2713 
Q 2441 2713 2670 2916 
Q 2900 3119 2900 3481 
Q 2900 3844 2670 4047 
Q 2441 4250 2034 4250 
Q 1625 4250 1398 4047 
Q 1172 3844 1172 3481 
z
" transform="scale(0.015625)"/>
       </defs>
       <use xlink:href="#DejaVuSans-14"/>
       <use xlink:href="#DejaVuSans-1c" transform="translate(63.625 0)"/>
       <use xlink:href="#DejaVuSans-1b" transform="translate(127.25 0)"/>
       <use xlink:href="#DejaVuSans-13" transform="translate(190.875 0)"/>
      </g>
     </g>
    </g>
    <g id="xtick_5">
     <g id="line2d_9">
      <path d="M 419.924046 420.0175 
L 419.924046 31.3575 
" clip-path="url(#pd5afddbff2)" style="fill: none; stroke: #cccccc; stroke-width: 0.8; stroke-linecap: round"/>
     </g>
     <g id="line2d_10"/>
     <g id="text_5">
      <!-- 1990 -->
      <g style="fill: #262626" transform="translate(404.654046 432.634688) scale(0.12 -0.12)">
       <use xlink:href="#DejaVuSans-14"/>
       <use xlink:href="#DejaVuSans-1c" transform="translate(63.625 0)"/>
       <use xlink:href="#DejaVuSans-1c" transform="translate(127.25 0)"/>
       <use xlink:href="#DejaVuSans-13" transform="translate(190.875 0)"/>
      </g>
     </g>
    </g>
    <g id="xtick_6">
     <g id="line2d_11">
      <path d="M 503.667218 420.0175 
L 503.667218 31.3575 
" clip-path="url(#pd5afddbff2)" style="fill: none; stroke: #cccccc; stroke-width: 0.8; stroke-linecap: round"/>
     </g>
     <g id="line2d_12"/>
     <g id="text_6">
      <!-- 2000 -->
      <g style="fill: #262626" transform="translate(488.397218 432.634688) scale(0.12 -0.12)">
       <defs>
        <path id="DejaVuSans-15" d="M 1228 531 
L 3431 531 
L 3431 0 
L 469 0 
L 469 531 
Q 828 903 1448 1529 
Q 2069 2156 2228 2338 
Q 2531 2678 2651 2914 
Q 2772 3150 2772 3378 
Q 2772 3750 2511 3984 
Q 2250 4219 1831 4219 
Q 1534 4219 1204 4116 
Q 875 4013 500 3803 
L 500 4441 
Q 881 4594 1212 4672 
Q 1544 4750 1819 4750 
Q 2544 4750 2975 4387 
Q 3406 4025 3406 3419 
Q 3406 3131 3298 2873 
Q 3191 2616 2906 2266 
Q 2828 2175 2409 1742 
Q 1991 1309 1228 531 
z
" transform="scale(0.015625)"/>
       </defs>
       <use xlink:href="#DejaVuSans-15"/>
       <use xlink:href="#DejaVuSans-13" transform="translate(63.625 0)"/>
       <use xlink:href="#DejaVuSans-13" transform="translate(127.25 0)"/>
       <use xlink:href="#DejaVuSans-13" transform="translate(190.875 0)"/>
      </g>
     </g>
    </g>
    <g id="xtick_7">
     <g id="line2d_13">
      <path d="M 587.410391 420.0175 
L 587.410391 31.3575 
" clip-path="url(#pd5afddbff2)" style="fill: none; stroke: #cccccc; stroke-width: 0.8; stroke-linecap: round"/>
     </g>
     <g id="line2d_14"/>
     <g id="text_7">
      <!-- 2010 -->
      <g style="fill: #262626" transform="translate(572.140391 432.634688) scale(0.12 -0.12)">
       <use xlink:href="#DejaVuSans-15"/>
       <use xlink:href="#DejaVuSans-13" transform="translate(63.625 0)"/>
       <use xlink:href="#DejaVuSans-14" transform="translate(127.25 0)"/>
       <use xlink:href="#DejaVuSans-13" transform="translate(190.875 0)"/>
      </g>
     </g>
    </g>
    <g id="xtick_8">
     <g id="line2d_15">
      <path d="M 671.153564 420.0175 
L 671.153564 31.3575 
" clip-path="url(#pd5afddbff2)" style="fill: none; stroke: #cccccc; stroke-width: 0.8; stroke-linecap: round"/>
     </g>
     <g id="line2d_16"/>
     <g id="text_8">
      <!-- 2020 -->
      <g style="fill: #262626" transform="translate(655.883564 432.634688) scale(0.12 -0.12)">
       <use xlink:href="#DejaVuSans-15"/>
       <use xlink:href="#DejaVuSans-13" transform="translate(63.625 0)"/>
       <use xlink:href="#DejaVuSans-15" transform="translate(127.25 0)"/>
       <use xlink:href="#DejaVuSans-13" transform="translate(190.875 0)"/>
      </g>
     </g>
    </g>
    <g id="text_9">
     <!-- Year -->
     <g style="fill: #262626" transform="translate(379.980781 450.154219) scale(0.14 -0.14)">
      <defs>
       <path id="DejaVuSans-3c" d="M -13 4666 
L 666 4666 
L 1959 2747 
L 3244 4666 
L 3922 4666 
L 2272 2222 
L 2272 0 
L 1638 0 
L 1638 2222 
L -13 4666 
z
" transform="scale(0.015625)"/>
       <path id="DejaVuSans-48" d="M 3597 1894 
L 3597 1613 
L 953 1613 
Q 991 1019 1311 708 
Q 1631 397 2203 397 
Q 2534 397 2845 478 
Q 3156 559 3463 722 
L 3463 178 
Q 3153 47 2828 -22 
Q 2503 -91 2169 -91 
Q 1331 -91 842 396 
Q 353 884 353 1716 
Q 353 2575 817 3079 
Q 1281 3584 2069 3584 
Q 2775 3584 3186 3129 
Q 3597 2675 3597 1894 
z
M 3022 2063 
Q 3016 2534 2758 2815 
Q 2500 3097 2075 3097 
Q 1594 3097 1305 2825 
Q 1016 2553 972 2059 
L 3022 2063 
z
" transform="scale(0.015625)"/>
       <path id="DejaVuSans-44" d="M 2194 1759 
Q 1497 1759 1228 1600 
Q 959 1441 959 1056 
Q 959 750 1161 570 
Q 1363 391 1709 391 
Q 2188 391 2477 730 
Q 2766 1069 2766 1631 
L 2766 1759 
L 2194 1759 
z
M 3341 1997 
L 3341 0 
L 2766 0 
L 2766 531 
Q 2569 213 2275 61 
Q 1981 -91 1556 -91 
Q 1019 -91 701 211 
Q 384 513 384 1019 
Q 384 1609 779 1909 
Q 1175 2209 1959 2209 
L 2766 2209 
L 2766 2266 
Q 2766 2663 2505 2880 
Q 2244 3097 1772 3097 
Q 1472 3097 1187 3025 
Q 903 2953 641 2809 
L 641 3341 
Q 956 3463 1253 3523 
Q 1550 3584 1831 3584 
Q 2591 3584 2966 3190 
Q 3341 2797 3341 1997 
z
" transform="scale(0.015625)"/>
       <path id="DejaVuSans-55" d="M 2631 2963 
Q 2534 3019 2420 3045 
Q 2306 3072 2169 3072 
Q 1681 3072 1420 2755 
Q 1159 2438 1159 1844 
L 1159 0 
L 581 0 
L 581 3500 
L 1159 3500 
L 1159 2956 
Q 1341 3275 1631 3429 
Q 1922 3584 2338 3584 
Q 2397 3584 2469 3576 
Q 2541 3569 2628 3553 
L 2631 2963 
z
" transform="scale(0.015625)"/>
      </defs>
      <use xlink:href="#DejaVuSans-3c"/>
      <use xlink:href="#DejaVuSans-48" transform="translate(47.796875 0)"/>
      <use xlink:href="#DejaVuSans-44" transform="translate(109.328125 0)"/>
      <use xlink:href="#DejaVuSans-55" transform="translate(170.609375 0)"/>
     </g>
    </g>
   </g>
   <g id="matplotlib.axis_2">
    <g id="ytick_1">
     <g id="line2d_17">
      <path d="M 49.821094 309.085749 
L 739.781094 309.085749 
" clip-path="url(#pd5afddbff2)" style="fill: none; stroke: #cccccc; stroke-width: 0.8; stroke-linecap: round"/>
     </g>
     <g id="line2d_18"/>
     <g id="text_10">
      <!-- $\mathdefault{10^{0}}$ -->
      <g style="fill: #a20025" transform="translate(25.201094 314.725749) scale(0.12 -0.12)">
       <use xlink:href="#DejaVuSans-14" transform="translate(0 0.746875)"/>
       <use xlink:href="#DejaVuSans-13" transform="translate(63.623047 0.746875)"/>
       <use xlink:href="#DejaVuSans-13" transform="translate(128.203125 42.046875) scale(0.7)"/>
      </g>
     </g>
    </g>
    <g id="ytick_2">
     <g id="line2d_19">
      <path d="M 49.821094 133.025805 
L 739.781094 133.025805 
" clip-path="url(#pd5afddbff2)" style="fill: none; stroke: #cccccc; stroke-width: 0.8; stroke-linecap: round"/>
     </g>
     <g id="line2d_20"/>
     <g id="text_11">
      <!-- $\mathdefault{10^{1}}$ -->
      <g style="fill: #a20025" transform="translate(25.201094 138.605805) scale(0.12 -0.12)">
       <use xlink:href="#DejaVuSans-14" transform="translate(0 0.665625)"/>
       <use xlink:href="#DejaVuSans-13" transform="translate(63.623047 0.665625)"/>
       <use xlink:href="#DejaVuSans-14" transform="translate(128.203125 41.965625) scale(0.7)"/>
      </g>
     </g>
    </g>
    <g id="ytick_3">
     <g id="line2d_21"/>
    </g>
    <g id="ytick_4">
     <g id="line2d_22"/>
    </g>
    <g id="ytick_5">
     <g id="line2d_23"/>
    </g>
    <g id="ytick_6">
     <g id="line2d_24"/>
    </g>
    <g id="ytick_7">
     <g id="line2d_25"/>
    </g>
    <g id="ytick_8">
     <g id="line2d_26"/>
    </g>
    <g id="ytick_9">
     <g id="line2d_27"/>
    </g>
    <g id="ytick_10">
     <g id="line2d_28"/>
    </g>
    <g id="ytick_11">
     <g id="line2d_29"/>
    </g>
    <g id="ytick_12">
     <g id="line2d_30"/>
    </g>
    <g id="ytick_13">
     <g id="line2d_31"/>
    </g>
    <g id="ytick_14">
     <g id="line2d_32"/>
    </g>
    <g id="ytick_15">
     <g id="line2d_33"/>
    </g>
    <g id="ytick_16">
     <g id="line2d_34"/>
    </g>
    <g id="ytick_17">
     <g id="line2d_35"/>
    </g>
    <g id="ytick_18">
     <g id="line2d_36"/>
    </g>
    <g id="ytick_19">
     <g id="line2d_37"/>
    </g>
    <g id="text_12">
     <!-- New drugs per $bn R&amp;D  (inflation-adjusted, log scale) -->
     <g style="fill: #a20025" transform="translate(17.837812 416.942813) rotate(-90) scale(0.14 -0.14)">
      <defs>
       <path id="DejaVuSans-31" d="M 628 4666 
L 1478 4666 
L 3547 763 
L 3547 4666 
L 4159 4666 
L 4159 0 
L 3309 0 
L 1241 3903 
L 1241 0 
L 628 0 
L 628 4666 
z
" transform="scale(0.015625)"/>
       <path id="DejaVuSans-5a" d="M 269 3500 
L 844 3500 
L 1563 769 
L 2278 3500 
L 2956 3500 
L 3675 769 
L 4391 3500 
L 4966 3500 
L 4050 0 
L 3372 0 
L 2619 2869 
L 1863 0 
L 1184 0 
L 269 3500 
z
" transform="scale(0.015625)"/>
       <path id="DejaVuSans-3" transform="scale(0.015625)"/>
       <path id="DejaVuSans-47" d="M 2906 2969 
L 2906 4863 
L 3481 4863 
L 3481 0 
L 2906 0 
L 2906 525 
Q 2725 213 2448 61 
Q 2172 -91 1784 -91 
Q 1150 -91 751 415 
Q 353 922 353 1747 
Q 353 2572 751 3078 
Q 1150 3584 1784 3584 
Q 2172 3584 2448 3432 
Q 2725 3281 2906 2969 
z
M 947 1747 
Q 947 1113 1208 752 
Q 1469 391 1925 391 
Q 2381 391 2643 752 
Q 2906 1113 2906 1747 
Q 2906 2381 2643 2742 
Q 2381 3103 1925 3103 
Q 1469 3103 1208 2742 
Q 947 2381 947 1747 
z
" transform="scale(0.015625)"/>
       <path id="DejaVuSans-58" d="M 544 1381 
L 544 3500 
L 1119 3500 
L 1119 1403 
Q 1119 906 1312 657 
Q 1506 409 1894 409 
Q 2359 409 2629 706 
Q 2900 1003 2900 1516 
L 2900 3500 
L 3475 3500 
L 3475 0 
L 2900 0 
L 2900 538 
Q 2691 219 2414 64 
Q 2138 -91 1772 -91 
Q 1169 -91 856 284 
Q 544 659 544 1381 
z
M 1991 3584 
L 1991 3584 
z
" transform="scale(0.015625)"/>
       <path id="DejaVuSans-4a" d="M 2906 1791 
Q 2906 2416 2648 2759 
Q 2391 3103 1925 3103 
Q 1463 3103 1205 2759 
Q 947 2416 947 1791 
Q 947 1169 1205 825 
Q 1463 481 1925 481 
Q 2391 481 2648 825 
Q 2906 1169 2906 1791 
z
M 3481 434 
Q 3481 -459 3084 -895 
Q 2688 -1331 1869 -1331 
Q 1566 -1331 1297 -1286 
Q 1028 -1241 775 -1147 
L 775 -588 
Q 1028 -725 1275 -790 
Q 1522 -856 1778 -856 
Q 2344 -856 2625 -561 
Q 2906 -266 2906 331 
L 2906 616 
Q 2728 306 2450 153 
Q 2172 0 1784 0 
Q 1141 0 747 490 
Q 353 981 353 1791 
Q 353 2603 747 3093 
Q 1141 3584 1784 3584 
Q 2172 3584 2450 3431 
Q 2728 3278 2906 2969 
L 2906 3500 
L 3481 3500 
L 3481 434 
z
" transform="scale(0.015625)"/>
       <path id="DejaVuSans-56" d="M 2834 3397 
L 2834 2853 
Q 2591 2978 2328 3040 
Q 2066 3103 1784 3103 
Q 1356 3103 1142 2972 
Q 928 2841 928 2578 
Q 928 2378 1081 2264 
Q 1234 2150 1697 2047 
L 1894 2003 
Q 2506 1872 2764 1633 
Q 3022 1394 3022 966 
Q 3022 478 2636 193 
Q 2250 -91 1575 -91 
Q 1294 -91 989 -36 
Q 684 19 347 128 
L 347 722 
Q 666 556 975 473 
Q 1284 391 1588 391 
Q 1994 391 2212 530 
Q 2431 669 2431 922 
Q 2431 1156 2273 1281 
Q 2116 1406 1581 1522 
L 1381 1569 
Q 847 1681 609 1914 
Q 372 2147 372 2553 
Q 372 3047 722 3315 
Q 1072 3584 1716 3584 
Q 2034 3584 2315 3537 
Q 2597 3491 2834 3397 
z
" transform="scale(0.015625)"/>
       <path id="DejaVuSans-53" d="M 1159 525 
L 1159 -1331 
L 581 -1331 
L 581 3500 
L 1159 3500 
L 1159 2969 
Q 1341 3281 1617 3432 
Q 1894 3584 2278 3584 
Q 2916 3584 3314 3078 
Q 3713 2572 3713 1747 
Q 3713 922 3314 415 
Q 2916 -91 2278 -91 
Q 1894 -91 1617 61 
Q 1341 213 1159 525 
z
M 3116 1747 
Q 3116 2381 2855 2742 
Q 2594 3103 2138 3103 
Q 1681 3103 1420 2742 
Q 1159 2381 1159 1747 
Q 1159 1113 1420 752 
Q 1681 391 2138 391 
Q 2594 391 2855 752 
Q 3116 1113 3116 1747 
z
" transform="scale(0.015625)"/>
       <path id="DejaVuSans-7" d="M 2163 -941 
L 1850 -941 
L 1847 0 
Q 1519 6 1191 76 
Q 863 147 531 288 
L 531 850 
Q 850 650 1176 548 
Q 1503 447 1850 444 
L 1850 1869 
Q 1159 1981 845 2250 
Q 531 2519 531 2988 
Q 531 3497 872 3790 
Q 1213 4084 1850 4128 
L 1850 4863 
L 2163 4863 
L 2163 4138 
Q 2453 4125 2725 4076 
Q 2997 4028 3256 3944 
L 3256 3397 
Q 2997 3528 2723 3600 
Q 2450 3672 2163 3684 
L 2163 2350 
Q 2872 2241 3206 1959 
Q 3541 1678 3541 1191 
Q 3541 663 3186 358 
Q 2831 53 2163 6 
L 2163 -941 
z
M 1850 2406 
L 1850 3688 
Q 1488 3647 1297 3481 
Q 1106 3316 1106 3041 
Q 1106 2772 1282 2622 
Q 1459 2472 1850 2406 
z
M 2163 1806 
L 2163 453 
Q 2559 506 2761 678 
Q 2963 850 2963 1131 
Q 2963 1406 2770 1568 
Q 2578 1731 2163 1806 
z
" transform="scale(0.015625)"/>
       <path id="DejaVuSans-45" d="M 3116 1747 
Q 3116 2381 2855 2742 
Q 2594 3103 2138 3103 
Q 1681 3103 1420 2742 
Q 1159 2381 1159 1747 
Q 1159 1113 1420 752 
Q 1681 391 2138 391 
Q 2594 391 2855 752 
Q 3116 1113 3116 1747 
z
M 1159 2969 
Q 1341 3281 1617 3432 
Q 1894 3584 2278 3584 
Q 2916 3584 3314 3078 
Q 3713 2572 3713 1747 
Q 3713 922 3314 415 
Q 2916 -91 2278 -91 
Q 1894 -91 1617 61 
Q 1341 213 1159 525 
L 1159 0 
L 581 0 
L 581 4863 
L 1159 4863 
L 1159 2969 
z
" transform="scale(0.015625)"/>
       <path id="DejaVuSans-51" d="M 3513 2113 
L 3513 0 
L 2938 0 
L 2938 2094 
Q 2938 2591 2744 2837 
Q 2550 3084 2163 3084 
Q 1697 3084 1428 2787 
Q 1159 2491 1159 1978 
L 1159 0 
L 581 0 
L 581 3500 
L 1159 3500 
L 1159 2956 
Q 1366 3272 1645 3428 
Q 1925 3584 2291 3584 
Q 2894 3584 3203 3211 
Q 3513 2838 3513 2113 
z
" transform="scale(0.015625)"/>
       <path id="DejaVuSans-35" d="M 2841 2188 
Q 3044 2119 3236 1894 
Q 3428 1669 3622 1275 
L 4263 0 
L 3584 0 
L 2988 1197 
Q 2756 1666 2539 1819 
Q 2322 1972 1947 1972 
L 1259 1972 
L 1259 0 
L 628 0 
L 628 4666 
L 2053 4666 
Q 2853 4666 3247 4331 
Q 3641 3997 3641 3322 
Q 3641 2881 3436 2590 
Q 3231 2300 2841 2188 
z
M 1259 4147 
L 1259 2491 
L 2053 2491 
Q 2509 2491 2742 2702 
Q 2975 2913 2975 3322 
Q 2975 3731 2742 3939 
Q 2509 4147 2053 4147 
L 1259 4147 
z
" transform="scale(0.015625)"/>
       <path id="DejaVuSans-9" d="M 1556 2509 
Q 1272 2256 1139 2004 
Q 1006 1753 1006 1478 
Q 1006 1022 1337 719 
Q 1669 416 2169 416 
Q 2466 416 2725 514 
Q 2984 613 3213 813 
L 1556 2509 
z
M 1997 2859 
L 3584 1234 
Q 3769 1513 3872 1830 
Q 3975 2147 3994 2503 
L 4575 2503 
Q 4538 2091 4375 1687 
Q 4213 1284 3922 891 
L 4794 0 
L 4006 0 
L 3559 459 
Q 3234 181 2878 45 
Q 2522 -91 2113 -91 
Q 1359 -91 881 339 
Q 403 769 403 1441 
Q 403 1841 612 2192 
Q 822 2544 1241 2853 
Q 1091 3050 1012 3245 
Q 934 3441 934 3628 
Q 934 4134 1281 4442 
Q 1628 4750 2203 4750 
Q 2463 4750 2720 4694 
Q 2978 4638 3244 4525 
L 3244 3956 
Q 2972 4103 2725 4179 
Q 2478 4256 2266 4256 
Q 1938 4256 1733 4082 
Q 1528 3909 1528 3634 
Q 1528 3475 1620 3314 
Q 1713 3153 1997 2859 
z
" transform="scale(0.015625)"/>
       <path id="DejaVuSans-27" d="M 1259 4147 
L 1259 519 
L 2022 519 
Q 2988 519 3436 956 
Q 3884 1394 3884 2338 
Q 3884 3275 3436 3711 
Q 2988 4147 2022 4147 
L 1259 4147 
z
M 628 4666 
L 1925 4666 
Q 3281 4666 3915 4102 
Q 4550 3538 4550 2338 
Q 4550 1131 3912 565 
Q 3275 0 1925 0 
L 628 0 
L 628 4666 
z
" transform="scale(0.015625)"/>
       <path id="DejaVuSans-b" d="M 1984 4856 
Q 1566 4138 1362 3434 
Q 1159 2731 1159 2009 
Q 1159 1288 1364 580 
Q 1569 -128 1984 -844 
L 1484 -844 
Q 1016 -109 783 600 
Q 550 1309 550 2009 
Q 550 2706 781 3412 
Q 1013 4119 1484 4856 
L 1984 4856 
z
" transform="scale(0.015625)"/>
       <path id="DejaVuSans-4c" d="M 603 3500 
L 1178 3500 
L 1178 0 
L 603 0 
L 603 3500 
z
M 603 4863 
L 1178 4863 
L 1178 4134 
L 603 4134 
L 603 4863 
z
" transform="scale(0.015625)"/>
       <path id="DejaVuSans-13b0" d="M 1831 4863 
L 3431 4863 
L 3431 0 
L 2853 0 
L 2853 4384 
L 1825 4384 
Q 1516 4384 1395 4259 
Q 1275 4134 1275 3809 
L 1275 3500 
L 2222 3500 
L 2222 3053 
L 1275 3053 
L 1275 0 
L 697 0 
L 697 3053 
L 147 3053 
L 147 3500 
L 697 3500 
L 697 3744 
Q 697 4328 969 4595 
Q 1241 4863 1831 4863 
z
" transform="scale(0.015625)"/>
       <path id="DejaVuSans-57" d="M 1172 4494 
L 1172 3500 
L 2356 3500 
L 2356 3053 
L 1172 3053 
L 1172 1153 
Q 1172 725 1289 603 
Q 1406 481 1766 481 
L 2356 481 
L 2356 0 
L 1766 0 
Q 1100 0 847 248 
Q 594 497 594 1153 
L 594 3053 
L 172 3053 
L 172 3500 
L 594 3500 
L 594 4494 
L 1172 4494 
z
" transform="scale(0.015625)"/>
       <path id="DejaVuSans-52" d="M 1959 3097 
Q 1497 3097 1228 2736 
Q 959 2375 959 1747 
Q 959 1119 1226 758 
Q 1494 397 1959 397 
Q 2419 397 2687 759 
Q 2956 1122 2956 1747 
Q 2956 2369 2687 2733 
Q 2419 3097 1959 3097 
z
M 1959 3584 
Q 2709 3584 3137 3096 
Q 3566 2609 3566 1747 
Q 3566 888 3137 398 
Q 2709 -91 1959 -91 
Q 1206 -91 779 398 
Q 353 888 353 1747 
Q 353 2609 779 3096 
Q 1206 3584 1959 3584 
z
" transform="scale(0.015625)"/>
       <path id="DejaVuSans-10" d="M 313 2009 
L 1997 2009 
L 1997 1497 
L 313 1497 
L 313 2009 
z
" transform="scale(0.015625)"/>
       <path id="DejaVuSans-4d" d="M 603 3500 
L 1178 3500 
L 1178 -63 
Q 1178 -731 923 -1031 
Q 669 -1331 103 -1331 
L -116 -1331 
L -116 -844 
L 38 -844 
Q 366 -844 484 -692 
Q 603 -541 603 -63 
L 603 3500 
z
M 603 4863 
L 1178 4863 
L 1178 4134 
L 603 4134 
L 603 4863 
z
" transform="scale(0.015625)"/>
       <path id="DejaVuSans-f" d="M 750 794 
L 1409 794 
L 1409 256 
L 897 -744 
L 494 -744 
L 750 256 
L 750 794 
z
" transform="scale(0.015625)"/>
       <path id="DejaVuSans-4f" d="M 603 4863 
L 1178 4863 
L 1178 0 
L 603 0 
L 603 4863 
z
" transform="scale(0.015625)"/>
       <path id="DejaVuSans-46" d="M 3122 3366 
L 3122 2828 
Q 2878 2963 2633 3030 
Q 2388 3097 2138 3097 
Q 1578 3097 1268 2742 
Q 959 2388 959 1747 
Q 959 1106 1268 751 
Q 1578 397 2138 397 
Q 2388 397 2633 464 
Q 2878 531 3122 666 
L 3122 134 
Q 2881 22 2623 -34 
Q 2366 -91 2075 -91 
Q 1284 -91 818 406 
Q 353 903 353 1747 
Q 353 2603 823 3093 
Q 1294 3584 2113 3584 
Q 2378 3584 2631 3529 
Q 2884 3475 3122 3366 
z
" transform="scale(0.015625)"/>
       <path id="DejaVuSans-c" d="M 513 4856 
L 1013 4856 
Q 1481 4119 1714 3412 
Q 1947 2706 1947 2009 
Q 1947 1309 1714 600 
Q 1481 -109 1013 -844 
L 513 -844 
Q 928 -128 1133 580 
Q 1338 1288 1338 2009 
Q 1338 2731 1133 3434 
Q 928 4138 513 4856 
z
" transform="scale(0.015625)"/>
      </defs>
      <use xlink:href="#DejaVuSans-31"/>
      <use xlink:href="#DejaVuSans-48" transform="translate(74.8125 0)"/>
      <use xlink:href="#DejaVuSans-5a" transform="translate(136.34375 0)"/>
      <use xlink:href="#DejaVuSans-3" transform="translate(218.125 0)"/>
      <use xlink:href="#DejaVuSans-47" transform="translate(249.90625 0)"/>
      <use xlink:href="#DejaVuSans-55" transform="translate(313.390625 0)"/>
      <use xlink:href="#DejaVuSans-58" transform="translate(354.5 0)"/>
      <use xlink:href="#DejaVuSans-4a" transform="translate(417.875 0)"/>
      <use xlink:href="#DejaVuSans-56" transform="translate(481.359375 0)"/>
      <use xlink:href="#DejaVuSans-3" transform="translate(533.453125 0)"/>
      <use xlink:href="#DejaVuSans-53" transform="translate(565.234375 0)"/>
      <use xlink:href="#DejaVuSans-48" transform="translate(628.71875 0)"/>
      <use xlink:href="#DejaVuSans-55" transform="translate(690.25 0)"/>
      <use xlink:href="#DejaVuSans-3" transform="translate(731.359375 0)"/>
      <use xlink:href="#DejaVuSans-7" transform="translate(763.140625 0)"/>
      <use xlink:href="#DejaVuSans-45" transform="translate(826.765625 0)"/>
      <use xlink:href="#DejaVuSans-51" transform="translate(890.25 0)"/>
      <use xlink:href="#DejaVuSans-3" transform="translate(953.625 0)"/>
      <use xlink:href="#DejaVuSans-35" transform="translate(985.40625 0)"/>
      <use xlink:href="#DejaVuSans-9" transform="translate(1054.890625 0)"/>
      <use xlink:href="#DejaVuSans-27" transform="translate(1132.875 0)"/>
      <use xlink:href="#DejaVuSans-3" transform="translate(1209.875 0)"/>
      <use xlink:href="#DejaVuSans-3" transform="translate(1241.65625 0)"/>
      <use xlink:href="#DejaVuSans-b" transform="translate(1273.4375 0)"/>
      <use xlink:href="#DejaVuSans-4c" transform="translate(1312.453125 0)"/>
      <use xlink:href="#DejaVuSans-51" transform="translate(1340.234375 0)"/>
      <use xlink:href="#DejaVuSans-13b0" transform="translate(1403.609375 0)"/>
      <use xlink:href="#DejaVuSans-44" transform="translate(1466.59375 0)"/>
      <use xlink:href="#DejaVuSans-57" transform="translate(1527.875 0)"/>
      <use xlink:href="#DejaVuSans-4c" transform="translate(1567.078125 0)"/>
      <use xlink:href="#DejaVuSans-52" transform="translate(1594.859375 0)"/>
      <use xlink:href="#DejaVuSans-51" transform="translate(1656.046875 0)"/>
      <use xlink:href="#DejaVuSans-10" transform="translate(1719.421875 0)"/>
      <use xlink:href="#DejaVuSans-44" transform="translate(1755.5 0)"/>
      <use xlink:href="#DejaVuSans-47" transform="translate(1816.78125 0)"/>
      <use xlink:href="#DejaVuSans-4d" transform="translate(1880.265625 0)"/>
      <use xlink:href="#DejaVuSans-58" transform="translate(1908.046875 0)"/>
      <use xlink:href="#DejaVuSans-56" transform="translate(1971.421875 0)"/>
      <use xlink:href="#DejaVuSans-57" transform="translate(2023.515625 0)"/>
      <use xlink:href="#DejaVuSans-48" transform="translate(2062.71875 0)"/>
      <use xlink:href="#DejaVuSans-47" transform="translate(2124.25 0)"/>
      <use xlink:href="#DejaVuSans-f" transform="translate(2187.734375 0)"/>
      <use xlink:href="#DejaVuSans-3" transform="translate(2219.515625 0)"/>
      <use xlink:href="#DejaVuSans-4f" transform="translate(2251.296875 0)"/>
      <use xlink:href="#DejaVuSans-52" transform="translate(2279.078125 0)"/>
      <use xlink:href="#DejaVuSans-4a" transform="translate(2340.265625 0)"/>
      <use xlink:href="#DejaVuSans-3" transform="translate(2403.75 0)"/>
      <use xlink:href="#DejaVuSans-56" transform="translate(2435.53125 0)"/>
      <use xlink:href="#DejaVuSans-46" transform="translate(2487.625 0)"/>
      <use xlink:href="#DejaVuSans-44" transform="translate(2542.609375 0)"/>
      <use xlink:href="#DejaVuSans-4f" transform="translate(2603.890625 0)"/>
      <use xlink:href="#DejaVuSans-48" transform="translate(2631.671875 0)"/>
      <use xlink:href="#DejaVuSans-c" transform="translate(2693.203125 0)"/>
     </g>
    </g>
   </g>
   <g id="line2d_38">
    <path d="M 84.951355 49.023864 
L 93.325672 54.912791 
L 101.699989 60.801549 
L 110.074307 66.690356 
L 118.448624 72.579179 
L 126.822941 78.467745 
L 135.197258 84.35681 
L 143.571576 90.245716 
L 151.945893 96.134355 
L 160.32021 102.023188 
L 168.694527 107.912115 
L 177.068845 113.800576 
L 185.443162 119.68968 
L 193.817479 125.578503 
L 202.191797 131.467444 
L 210.566114 137.356134 
L 218.940431 143.244603 
L 227.314748 149.134152 
L 235.689066 155.022512 
L 244.063383 160.910889 
L 252.4377 166.800495 
L 260.812017 172.688362 
L 269.186335 178.577827 
L 277.560652 184.466019 
L 285.934969 190.355458 
L 294.309286 196.243927 
L 302.683604 202.133476 
L 311.057921 208.021836 
L 319.432238 213.911314 
L 327.806556 219.79863 
L 336.180873 225.687686 
L 344.55519 231.575764 
L 352.929507 237.465343 
L 361.303825 243.353164 
L 369.678142 249.244999 
L 378.052459 255.1328 
L 386.426776 261.02116 
L 394.801094 266.910638 
L 403.175411 272.800332 
L 411.549728 278.68701 
L 419.924046 284.575088 
L 428.298363 290.467664 
L 436.67268 296.352488 
L 445.046997 302.244323 
L 453.421315 308.128348 
L 461.795632 314.020484 
L 470.169949 319.909962 
L 478.544266 325.794899 
L 486.918584 331.686334 
L 495.292901 337.579962 
L 503.667218 343.460995 
L 512.041536 349.351812 
L 520.415853 355.243647 
L 528.79017 361.127672 
L 537.164487 367.011653 
L 545.538805 372.909286 
L 553.913122 378.803738 
L 562.287439 384.695934 
L 570.661756 390.568187 
L 579.036074 396.472306 
L 587.410391 402.351136 
L 595.784708 396.472306 
L 604.159026 390.590386 
L 612.533343 384.695934 
L 620.90766 378.82277 
L 629.281977 372.926906 
L 637.656295 367.04428 
L 646.030612 361.157882 
L 654.404929 355.271619 
L 662.779246 349.390662 
L 671.153564 343.508956 
L 679.527881 337.624371 
L 687.902198 331.73773 
L 696.276516 325.852003 
L 704.650833 319.97165 
" clip-path="url(#pd5afddbff2)" style="fill: none; stroke: #a20025; stroke-width: 2.5; stroke-linecap: round"/>
    <defs>
     <path id="m26074eee27" d="M 0 1.5 
C 0.397805 1.5 0.77937 1.341951 1.06066 1.06066 
C 1.341951 0.77937 1.5 0.397805 1.5 0 
C 1.5 -0.397805 1.341951 -0.77937 1.06066 -1.06066 
C 0.77937 -1.341951 0.397805 -1.5 0 -1.5 
C -0.397805 -1.5 -0.77937 -1.341951 -1.06066 -1.06066 
C -1.341951 -0.77937 -1.5 -0.397805 -1.5 0 
C -1.5 0.397805 -1.341951 0.77937 -1.06066 1.06066 
C -0.77937 1.341951 -0.397805 1.5 0 1.5 
z
" style="stroke: #a20025"/>
    </defs>
    <g clip-path="url(#pd5afddbff2)">
     <use xlink:href="#m26074eee27" x="84.951355" y="49.023864" style="fill: #a20025; stroke: #a20025"/>
     <use xlink:href="#m26074eee27" x="93.325672" y="54.912791" style="fill: #a20025; stroke: #a20025"/>
     <use xlink:href="#m26074eee27" x="101.699989" y="60.801549" style="fill: #a20025; stroke: #a20025"/>
     <use xlink:href="#m26074eee27" x="110.074307" y="66.690356" style="fill: #a20025; stroke: #a20025"/>
     <use xlink:href="#m26074eee27" x="118.448624" y="72.579179" style="fill: #a20025; stroke: #a20025"/>
     <use xlink:href="#m26074eee27" x="126.822941" y="78.467745" style="fill: #a20025; stroke: #a20025"/>
     <use xlink:href="#m26074eee27" x="135.197258" y="84.35681" style="fill: #a20025; stroke: #a20025"/>
     <use xlink:href="#m26074eee27" x="143.571576" y="90.245716" style="fill: #a20025; stroke: #a20025"/>
     <use xlink:href="#m26074eee27" x="151.945893" y="96.134355" style="fill: #a20025; stroke: #a20025"/>
     <use xlink:href="#m26074eee27" x="160.32021" y="102.023188" style="fill: #a20025; stroke: #a20025"/>
     <use xlink:href="#m26074eee27" x="168.694527" y="107.912115" style="fill: #a20025; stroke: #a20025"/>
     <use xlink:href="#m26074eee27" x="177.068845" y="113.800576" style="fill: #a20025; stroke: #a20025"/>
     <use xlink:href="#m26074eee27" x="185.443162" y="119.68968" style="fill: #a20025; stroke: #a20025"/>
     <use xlink:href="#m26074eee27" x="193.817479" y="125.578503" style="fill: #a20025; stroke: #a20025"/>
     <use xlink:href="#m26074eee27" x="202.191797" y="131.467444" style="fill: #a20025; stroke: #a20025"/>
     <use xlink:href="#m26074eee27" x="210.566114" y="137.356134" style="fill: #a20025; stroke: #a20025"/>
     <use xlink:href="#m26074eee27" x="218.940431" y="143.244603" style="fill: #a20025; stroke: #a20025"/>
     <use xlink:href="#m26074eee27" x="227.314748" y="149.134152" style="fill: #a20025; stroke: #a20025"/>
     <use xlink:href="#m26074eee27" x="235.689066" y="155.022512" style="fill: #a20025; stroke: #a20025"/>
     <use xlink:href="#m26074eee27" x="244.063383" y="160.910889" style="fill: #a20025; stroke: #a20025"/>
     <use xlink:href="#m26074eee27" x="252.4377" y="166.800495" style="fill: #a20025; stroke: #a20025"/>
     <use xlink:href="#m26074eee27" x="260.812017" y="172.688362" style="fill: #a20025; stroke: #a20025"/>
     <use xlink:href="#m26074eee27" x="269.186335" y="178.577827" style="fill: #a20025; stroke: #a20025"/>
     <use xlink:href="#m26074eee27" x="277.560652" y="184.466019" style="fill: #a20025; stroke: #a20025"/>
     <use xlink:href="#m26074eee27" x="285.934969" y="190.355458" style="fill: #a20025; stroke: #a20025"/>
     <use xlink:href="#m26074eee27" x="294.309286" y="196.243927" style="fill: #a20025; stroke: #a20025"/>
     <use xlink:href="#m26074eee27" x="302.683604" y="202.133476" style="fill: #a20025; stroke: #a20025"/>
     <use xlink:href="#m26074eee27" x="311.057921" y="208.021836" style="fill: #a20025; stroke: #a20025"/>
     <use xlink:href="#m26074eee27" x="319.432238" y="213.911314" style="fill: #a20025; stroke: #a20025"/>
     <use xlink:href="#m26074eee27" x="327.806556" y="219.79863" style="fill: #a20025; stroke: #a20025"/>
     <use xlink:href="#m26074eee27" x="336.180873" y="225.687686" style="fill: #a20025; stroke: #a20025"/>
     <use xlink:href="#m26074eee27" x="344.55519" y="231.575764" style="fill: #a20025; stroke: #a20025"/>
     <use xlink:href="#m26074eee27" x="352.929507" y="237.465343" style="fill: #a20025; stroke: #a20025"/>
     <use xlink:href="#m26074eee27" x="361.303825" y="243.353164" style="fill: #a20025; stroke: #a20025"/>
     <use xlink:href="#m26074eee27" x="369.678142" y="249.244999" style="fill: #a20025; stroke: #a20025"/>
     <use xlink:href="#m26074eee27" x="378.052459" y="255.1328" style="fill: #a20025; stroke: #a20025"/>
     <use xlink:href="#m26074eee27" x="386.426776" y="261.02116" style="fill: #a20025; stroke: #a20025"/>
     <use xlink:href="#m26074eee27" x="394.801094" y="266.910638" style="fill: #a20025; stroke: #a20025"/>
     <use xlink:href="#m26074eee27" x="403.175411" y="272.800332" style="fill: #a20025; stroke: #a20025"/>
     <use xlink:href="#m26074eee27" x="411.549728" y="278.68701" style="fill: #a20025; stroke: #a20025"/>
     <use xlink:href="#m26074eee27" x="419.924046" y="284.575088" style="fill: #a20025; stroke: #a20025"/>
     <use xlink:href="#m26074eee27" x="428.298363" y="290.467664" style="fill: #a20025; stroke: #a20025"/>
     <use xlink:href="#m26074eee27" x="436.67268" y="296.352488" style="fill: #a20025; stroke: #a20025"/>
     <use xlink:href="#m26074eee27" x="445.046997" y="302.244323" style="fill: #a20025; stroke: #a20025"/>
     <use xlink:href="#m26074eee27" x="453.421315" y="308.128348" style="fill: #a20025; stroke: #a20025"/>
     <use xlink:href="#m26074eee27" x="461.795632" y="314.020484" style="fill: #a20025; stroke: #a20025"/>
     <use xlink:href="#m26074eee27" x="470.169949" y="319.909962" style="fill: #a20025; stroke: #a20025"/>
     <use xlink:href="#m26074eee27" x="478.544266" y="325.794899" style="fill: #a20025; stroke: #a20025"/>
     <use xlink:href="#m26074eee27" x="486.918584" y="331.686334" style="fill: #a20025; stroke: #a20025"/>
     <use xlink:href="#m26074eee27" x="495.292901" y="337.579962" style="fill: #a20025; stroke: #a20025"/>
     <use xlink:href="#m26074eee27" x="503.667218" y="343.460995" style="fill: #a20025; stroke: #a20025"/>
     <use xlink:href="#m26074eee27" x="512.041536" y="349.351812" style="fill: #a20025; stroke: #a20025"/>
     <use xlink:href="#m26074eee27" x="520.415853" y="355.243647" style="fill: #a20025; stroke: #a20025"/>
     <use xlink:href="#m26074eee27" x="528.79017" y="361.127672" style="fill: #a20025; stroke: #a20025"/>
     <use xlink:href="#m26074eee27" x="537.164487" y="367.011653" style="fill: #a20025; stroke: #a20025"/>
     <use xlink:href="#m26074eee27" x="545.538805" y="372.909286" style="fill: #a20025; stroke: #a20025"/>
     <use xlink:href="#m26074eee27" x="553.913122" y="378.803738" style="fill: #a20025; stroke: #a20025"/>
     <use xlink:href="#m26074eee27" x="562.287439" y="384.695934" style="fill: #a20025; stroke: #a20025"/>
     <use xlink:href="#m26074eee27" x="570.661756" y="390.568187" style="fill: #a20025; stroke: #a20025"/>
     <use xlink:href="#m26074eee27" x="579.036074" y="396.472306" style="fill: #a20025; stroke: #a20025"/>
     <use xlink:href="#m26074eee27" x="587.410391" y="402.351136" style="fill: #a20025; stroke: #a20025"/>
     <use xlink:href="#m26074eee27" x="595.784708" y="396.472306" style="fill: #a20025; stroke: #a20025"/>
     <use xlink:href="#m26074eee27" x="604.159026" y="390.590386" style="fill: #a20025; stroke: #a20025"/>
     <use xlink:href="#m26074eee27" x="612.533343" y="384.695934" style="fill: #a20025; stroke: #a20025"/>
     <use xlink:href="#m26074eee27" x="620.90766" y="378.82277" style="fill: #a20025; stroke: #a20025"/>
     <use xlink:href="#m26074eee27" x="629.281977" y="372.926906" style="fill: #a20025; stroke: #a20025"/>
     <use xlink:href="#m26074eee27" x="637.656295" y="367.04428" style="fill: #a20025; stroke: #a20025"/>
     <use xlink:href="#m26074eee27" x="646.030612" y="361.157882" style="fill: #a20025; stroke: #a20025"/>
     <use xlink:href="#m26074eee27" x="654.404929" y="355.271619" style="fill: #a20025; stroke: #a20025"/>
     <use xlink:href="#m26074eee27" x="662.779246" y="349.390662" style="fill: #a20025; stroke: #a20025"/>
     <use xlink:href="#m26074eee27" x="671.153564" y="343.508956" style="fill: #a20025; stroke: #a20025"/>
     <use xlink:href="#m26074eee27" x="679.527881" y="337.624371" style="fill: #a20025; stroke: #a20025"/>
     <use xlink:href="#m26074eee27" x="687.902198" y="331.73773" style="fill: #a20025; stroke: #a20025"/>
     <use xlink:href="#m26074eee27" x="696.276516" y="325.852003" style="fill: #a20025; stroke: #a20025"/>
     <use xlink:href="#m26074eee27" x="704.650833" y="319.97165" style="fill: #a20025; stroke: #a20025"/>
    </g>
   </g>
   <g id="line2d_39">
    <path d="M 587.410391 420.0175 
L 587.410391 31.3575 
" clip-path="url(#pd5afddbff2)" style="fill: none; stroke-dasharray: 3.7,1.6; stroke-dashoffset: 0; stroke: #808080; stroke-opacity: 0.7"/>
   </g>
   <g id="patch_3">
    <path d="M 49.821094 420.0175 
L 49.821094 31.3575 
" style="fill: none; stroke: #cccccc; stroke-linejoin: miter; stroke-linecap: square"/>
   </g>
   <g id="patch_4">
    <path d="M 739.781094 420.0175 
L 739.781094 31.3575 
" style="fill: none; stroke: #cccccc; stroke-linejoin: miter; stroke-linecap: square"/>
   </g>
   <g id="patch_5">
    <path d="M 49.821094 420.0175 
L 739.781094 420.0175 
" style="fill: none; stroke: #cccccc; stroke-linejoin: miter; stroke-linecap: square"/>
   </g>
   <g id="patch_6">
    <path d="M 49.821094 31.3575 
L 739.781094 31.3575 
" style="fill: none; stroke: #cccccc; stroke-linejoin: miter; stroke-linecap: square"/>
   </g>
   <g id="text_13">
    <g id="patch_7">
     <path d="M 541.036069 90.912923 
L 729.431694 90.912923 
Q 733.831694 90.912923 733.831694 86.512923 
L 733.831694 46.9039 
Q 733.831694 42.5039 729.431694 42.5039 
L 541.036069 42.5039 
Q 536.636069 42.5039 536.636069 46.9039 
L 536.636069 86.512923 
Q 536.636069 90.912923 541.036069 90.912923 
z
" style="fill: #fdecec; stroke: #a20025; stroke-linejoin: miter"/>
    </g>
    <!-- Efficiency halved ~every 9 years -->
    <g style="fill: #262626" transform="translate(547.859506 56.363255) scale(0.11 -0.11)">
     <defs>
      <path id="DejaVuSans-28" d="M 628 4666 
L 3578 4666 
L 3578 4134 
L 1259 4134 
L 1259 2753 
L 3481 2753 
L 3481 2222 
L 1259 2222 
L 1259 531 
L 3634 531 
L 3634 0 
L 628 0 
L 628 4666 
z
" transform="scale(0.015625)"/>
      <path id="DejaVuSans-13b1" d="M 2375 4863 
L 2375 4384 
L 1825 4384 
Q 1516 4384 1394 4259 
Q 1275 4134 1275 3809 
L 1275 3500 
L 2853 3500 
L 2853 3744 
Q 2853 4328 3125 4594 
Q 3213 4681 3334 4741 
Q 3578 4863 3988 4863 
L 4531 4863 
L 4531 4384 
L 3981 4384 
Q 3672 4384 3551 4259 
Q 3431 4134 3431 3809 
L 3431 3500 
L 5588 3500 
L 5588 0 
L 5009 0 
L 5009 3053 
L 3431 3053 
L 3431 0 
L 2853 0 
L 2853 3053 
L 1275 3053 
L 1275 0 
L 697 0 
L 697 3053 
L 147 3053 
L 147 3500 
L 697 3500 
L 697 3744 
Q 697 4328 969 4595 
Q 1241 4863 1831 4863 
L 2375 4863 
z
M 5009 4856 
L 5588 4856 
L 5588 4128 
L 5009 4128 
L 5009 4856 
z
" transform="scale(0.015625)"/>
      <path id="DejaVuSans-5c" d="M 2059 -325 
Q 1816 -950 1584 -1140 
Q 1353 -1331 966 -1331 
L 506 -1331 
L 506 -850 
L 844 -850 
Q 1081 -850 1212 -737 
Q 1344 -625 1503 -206 
L 1606 56 
L 191 3500 
L 800 3500 
L 1894 763 
L 2988 3500 
L 3597 3500 
L 2059 -325 
z
" transform="scale(0.015625)"/>
      <path id="DejaVuSans-4b" d="M 3513 2113 
L 3513 0 
L 2938 0 
L 2938 2094 
Q 2938 2591 2744 2837 
Q 2550 3084 2163 3084 
Q 1697 3084 1428 2787 
Q 1159 2491 1159 1978 
L 1159 0 
L 581 0 
L 581 4863 
L 1159 4863 
L 1159 2956 
Q 1366 3272 1645 3428 
Q 1925 3584 2291 3584 
Q 2894 3584 3203 3211 
Q 3513 2838 3513 2113 
z
" transform="scale(0.015625)"/>
      <path id="DejaVuSans-59" d="M 191 3500 
L 800 3500 
L 1894 563 
L 2988 3500 
L 3597 3500 
L 2284 0 
L 1503 0 
L 191 3500 
z
" transform="scale(0.015625)"/>
      <path id="DejaVuSans-61" d="M 4684 2553 
L 4684 1997 
Q 4356 1750 4076 1644 
Q 3797 1538 3494 1538 
Q 3150 1538 2694 1722 
Q 2659 1734 2644 1741 
Q 2622 1750 2575 1766 
Q 2091 1959 1797 1959 
Q 1522 1959 1253 1839 
Q 984 1719 678 1459 
L 678 2016 
Q 1006 2263 1286 2370 
Q 1566 2478 1869 2478 
Q 2213 2478 2672 2291 
Q 2703 2278 2719 2272 
Q 2744 2263 2788 2247 
Q 3272 2053 3566 2053 
Q 3834 2053 4098 2172 
Q 4363 2291 4684 2553 
z
" transform="scale(0.015625)"/>
     </defs>
     <use xlink:href="#DejaVuSans-28"/>
     <use xlink:href="#DejaVuSans-13b1" transform="translate(63.1875 0)"/>
     <use xlink:href="#DejaVuSans-46" transform="translate(159.875 0)"/>
     <use xlink:href="#DejaVuSans-4c" transform="translate(214.859375 0)"/>
     <use xlink:href="#DejaVuSans-48" transform="translate(242.640625 0)"/>
     <use xlink:href="#DejaVuSans-51" transform="translate(304.171875 0)"/>
     <use xlink:href="#DejaVuSans-46" transform="translate(367.546875 0)"/>
     <use xlink:href="#DejaVuSans-5c" transform="translate(422.53125 0)"/>
     <use xlink:href="#DejaVuSans-3" transform="translate(481.71875 0)"/>
     <use xlink:href="#DejaVuSans-4b" transform="translate(513.5 0)"/>
     <use xlink:href="#DejaVuSans-44" transform="translate(576.875 0)"/>
     <use xlink:href="#DejaVuSans-4f" transform="translate(638.15625 0)"/>
     <use xlink:href="#DejaVuSans-59" transform="translate(665.9375 0)"/>
     <use xlink:href="#DejaVuSans-48" transform="translate(725.125 0)"/>
     <use xlink:href="#DejaVuSans-47" transform="translate(786.65625 0)"/>
     <use xlink:href="#DejaVuSans-3" transform="translate(850.140625 0)"/>
     <use xlink:href="#DejaVuSans-61" transform="translate(881.921875 0)"/>
     <use xlink:href="#DejaVuSans-48" transform="translate(965.71875 0)"/>
     <use xlink:href="#DejaVuSans-59" transform="translate(1027.25 0)"/>
     <use xlink:href="#DejaVuSans-48" transform="translate(1086.4375 0)"/>
     <use xlink:href="#DejaVuSans-55" transform="translate(1147.96875 0)"/>
     <use xlink:href="#DejaVuSans-5c" transform="translate(1189.078125 0)"/>
     <use xlink:href="#DejaVuSans-3" transform="translate(1248.265625 0)"/>
     <use xlink:href="#DejaVuSans-1c" transform="translate(1280.046875 0)"/>
     <use xlink:href="#DejaVuSans-3" transform="translate(1343.671875 0)"/>
     <use xlink:href="#DejaVuSans-5c" transform="translate(1375.453125 0)"/>
     <use xlink:href="#DejaVuSans-48" transform="translate(1434.640625 0)"/>
     <use xlink:href="#DejaVuSans-44" transform="translate(1496.171875 0)"/>
     <use xlink:href="#DejaVuSans-55" transform="translate(1557.453125 0)"/>
     <use xlink:href="#DejaVuSans-56" transform="translate(1598.5625 0)"/>
    </g>
    <!-- (~100x drop, 1950-2010), -->
    <g style="fill: #262626" transform="translate(585.204506 69.566263) scale(0.11 -0.11)">
     <defs>
      <path id="DejaVuSans-5b" d="M 3513 3500 
L 2247 1797 
L 3578 0 
L 2900 0 
L 1881 1375 
L 863 0 
L 184 0 
L 1544 1831 
L 300 3500 
L 978 3500 
L 1906 2253 
L 2834 3500 
L 3513 3500 
z
" transform="scale(0.015625)"/>
     </defs>
     <use xlink:href="#DejaVuSans-b"/>
     <use xlink:href="#DejaVuSans-61" transform="translate(39.015625 0)"/>
     <use xlink:href="#DejaVuSans-14" transform="translate(122.8125 0)"/>
     <use xlink:href="#DejaVuSans-13" transform="translate(186.4375 0)"/>
     <use xlink:href="#DejaVuSans-13" transform="translate(250.0625 0)"/>
     <use xlink:href="#DejaVuSans-5b" transform="translate(313.6875 0)"/>
     <use xlink:href="#DejaVuSans-3" transform="translate(372.875 0)"/>
     <use xlink:href="#DejaVuSans-47" transform="translate(404.65625 0)"/>
     <use xlink:href="#DejaVuSans-55" transform="translate(468.140625 0)"/>
     <use xlink:href="#DejaVuSans-52" transform="translate(507.046875 0)"/>
     <use xlink:href="#DejaVuSans-53" transform="translate(568.234375 0)"/>
     <use xlink:href="#DejaVuSans-f" transform="translate(631.71875 0)"/>
     <use xlink:href="#DejaVuSans-3" transform="translate(663.5 0)"/>
     <use xlink:href="#DejaVuSans-14" transform="translate(695.28125 0)"/>
     <use xlink:href="#DejaVuSans-1c" transform="translate(758.90625 0)"/>
     <use xlink:href="#DejaVuSans-18" transform="translate(822.53125 0)"/>
     <use xlink:href="#DejaVuSans-13" transform="translate(886.15625 0)"/>
     <use xlink:href="#DejaVuSans-10" transform="translate(949.78125 0)"/>
     <use xlink:href="#DejaVuSans-15" transform="translate(985.859375 0)"/>
     <use xlink:href="#DejaVuSans-13" transform="translate(1049.484375 0)"/>
     <use xlink:href="#DejaVuSans-14" transform="translate(1113.109375 0)"/>
     <use xlink:href="#DejaVuSans-13" transform="translate(1176.734375 0)"/>
     <use xlink:href="#DejaVuSans-c" transform="translate(1240.359375 0)"/>
     <use xlink:href="#DejaVuSans-f" transform="translate(1279.375 0)"/>
    </g>
    <!-- then a modest post-2010 rebound -->
    <g style="fill: #262626" transform="translate(541.036069 82.769271) scale(0.11 -0.11)">
     <defs>
      <path id="DejaVuSans-50" d="M 3328 2828 
Q 3544 3216 3844 3400 
Q 4144 3584 4550 3584 
Q 5097 3584 5394 3201 
Q 5691 2819 5691 2113 
L 5691 0 
L 5113 0 
L 5113 2094 
Q 5113 2597 4934 2840 
Q 4756 3084 4391 3084 
Q 3944 3084 3684 2787 
Q 3425 2491 3425 1978 
L 3425 0 
L 2847 0 
L 2847 2094 
Q 2847 2600 2669 2842 
Q 2491 3084 2119 3084 
Q 1678 3084 1418 2786 
Q 1159 2488 1159 1978 
L 1159 0 
L 581 0 
L 581 3500 
L 1159 3500 
L 1159 2956 
Q 1356 3278 1631 3431 
Q 1906 3584 2284 3584 
Q 2666 3584 2933 3390 
Q 3200 3197 3328 2828 
z
" transform="scale(0.015625)"/>
     </defs>
     <use xlink:href="#DejaVuSans-57"/>
     <use xlink:href="#DejaVuSans-4b" transform="translate(39.203125 0)"/>
     <use xlink:href="#DejaVuSans-48" transform="translate(102.578125 0)"/>
     <use xlink:href="#DejaVuSans-51" transform="translate(164.109375 0)"/>
     <use xlink:href="#DejaVuSans-3" transform="translate(227.484375 0)"/>
     <use xlink:href="#DejaVuSans-44" transform="translate(259.265625 0)"/>
     <use xlink:href="#DejaVuSans-3" transform="translate(320.546875 0)"/>
     <use xlink:href="#DejaVuSans-50" transform="translate(352.328125 0)"/>
     <use xlink:href="#DejaVuSans-52" transform="translate(449.734375 0)"/>
     <use xlink:href="#DejaVuSans-47" transform="translate(510.921875 0)"/>
     <use xlink:href="#DejaVuSans-48" transform="translate(574.40625 0)"/>
     <use xlink:href="#DejaVuSans-56" transform="translate(635.9375 0)"/>
     <use xlink:href="#DejaVuSans-57" transform="translate(688.03125 0)"/>
     <use xlink:href="#DejaVuSans-3" transform="translate(727.234375 0)"/>
     <use xlink:href="#DejaVuSans-53" transform="translate(759.015625 0)"/>
     <use xlink:href="#DejaVuSans-52" transform="translate(822.5 0)"/>
     <use xlink:href="#DejaVuSans-56" transform="translate(883.6875 0)"/>
     <use xlink:href="#DejaVuSans-57" transform="translate(935.78125 0)"/>
     <use xlink:href="#DejaVuSans-10" transform="translate(974.984375 0)"/>
     <use xlink:href="#DejaVuSans-15" transform="translate(1011.0625 0)"/>
     <use xlink:href="#DejaVuSans-13" transform="translate(1074.6875 0)"/>
     <use xlink:href="#DejaVuSans-14" transform="translate(1138.3125 0)"/>
     <use xlink:href="#DejaVuSans-13" transform="translate(1201.9375 0)"/>
     <use xlink:href="#DejaVuSans-3" transform="translate(1265.5625 0)"/>
     <use xlink:href="#DejaVuSans-55" transform="translate(1297.34375 0)"/>
     <use xlink:href="#DejaVuSans-48" transform="translate(1336.25 0)"/>
     <use xlink:href="#DejaVuSans-45" transform="translate(1397.78125 0)"/>
     <use xlink:href="#DejaVuSans-52" transform="translate(1461.265625 0)"/>
     <use xlink:href="#DejaVuSans-58" transform="translate(1522.453125 0)"/>
     <use xlink:href="#DejaVuSans-51" transform="translate(1585.828125 0)"/>
     <use xlink:href="#DejaVuSans-47" transform="translate(1649.203125 0)"/>
    </g>
   </g>
   <g id="text_14">
    <!-- Eroom's Law: declining pharmaceutical R&amp;D efficiency (1950-2024) -->
    <g style="fill: #262626" transform="translate(92.151094 19.3575) scale(0.16 -0.16)">
     <defs>
      <path id="DejaVuSans-Bold-28" d="M 588 4666 
L 3834 4666 
L 3834 3756 
L 1791 3756 
L 1791 2888 
L 3713 2888 
L 3713 1978 
L 1791 1978 
L 1791 909 
L 3903 909 
L 3903 0 
L 588 0 
L 588 4666 
z
" transform="scale(0.015625)"/>
      <path id="DejaVuSans-Bold-55" d="M 3138 2547 
Q 2991 2616 2845 2648 
Q 2700 2681 2553 2681 
Q 2122 2681 1889 2404 
Q 1656 2128 1656 1613 
L 1656 0 
L 538 0 
L 538 3500 
L 1656 3500 
L 1656 2925 
Q 1872 3269 2151 3426 
Q 2431 3584 2822 3584 
Q 2878 3584 2943 3579 
Q 3009 3575 3134 3559 
L 3138 2547 
z
" transform="scale(0.015625)"/>
      <path id="DejaVuSans-Bold-52" d="M 2203 2784 
Q 1831 2784 1636 2517 
Q 1441 2250 1441 1747 
Q 1441 1244 1636 976 
Q 1831 709 2203 709 
Q 2569 709 2762 976 
Q 2956 1244 2956 1747 
Q 2956 2250 2762 2517 
Q 2569 2784 2203 2784 
z
M 2203 3584 
Q 3106 3584 3614 3096 
Q 4122 2609 4122 1747 
Q 4122 884 3614 396 
Q 3106 -91 2203 -91 
Q 1297 -91 786 396 
Q 275 884 275 1747 
Q 275 2609 786 3096 
Q 1297 3584 2203 3584 
z
" transform="scale(0.015625)"/>
      <path id="DejaVuSans-Bold-50" d="M 3781 2919 
Q 3994 3244 4286 3414 
Q 4578 3584 4928 3584 
Q 5531 3584 5847 3212 
Q 6163 2841 6163 2131 
L 6163 0 
L 5038 0 
L 5038 1825 
Q 5041 1866 5042 1909 
Q 5044 1953 5044 2034 
Q 5044 2406 4934 2573 
Q 4825 2741 4581 2741 
Q 4263 2741 4089 2478 
Q 3916 2216 3909 1719 
L 3909 0 
L 2784 0 
L 2784 1825 
Q 2784 2406 2684 2573 
Q 2584 2741 2328 2741 
Q 2006 2741 1831 2477 
Q 1656 2213 1656 1722 
L 1656 0 
L 531 0 
L 531 3500 
L 1656 3500 
L 1656 2988 
Q 1863 3284 2130 3434 
Q 2397 3584 2719 3584 
Q 3081 3584 3359 3409 
Q 3638 3234 3781 2919 
z
" transform="scale(0.015625)"/>
      <path id="DejaVuSans-Bold-a" d="M 1350 4666 
L 1350 2931 
L 609 2931 
L 609 4666 
L 1350 4666 
z
" transform="scale(0.015625)"/>
      <path id="DejaVuSans-Bold-56" d="M 3272 3391 
L 3272 2541 
Q 2913 2691 2578 2766 
Q 2244 2841 1947 2841 
Q 1628 2841 1473 2761 
Q 1319 2681 1319 2516 
Q 1319 2381 1436 2309 
Q 1553 2238 1856 2203 
L 2053 2175 
Q 2913 2066 3209 1816 
Q 3506 1566 3506 1031 
Q 3506 472 3093 190 
Q 2681 -91 1863 -91 
Q 1516 -91 1145 -36 
Q 775 19 384 128 
L 384 978 
Q 719 816 1070 734 
Q 1422 653 1784 653 
Q 2113 653 2278 743 
Q 2444 834 2444 1013 
Q 2444 1163 2330 1236 
Q 2216 1309 1875 1350 
L 1678 1375 
Q 931 1469 631 1722 
Q 331 1975 331 2491 
Q 331 3047 712 3315 
Q 1094 3584 1881 3584 
Q 2191 3584 2531 3537 
Q 2872 3491 3272 3391 
z
" transform="scale(0.015625)"/>
      <path id="DejaVuSans-Bold-3" transform="scale(0.015625)"/>
      <path id="DejaVuSans-Bold-2f" d="M 588 4666 
L 1791 4666 
L 1791 909 
L 3903 909 
L 3903 0 
L 588 0 
L 588 4666 
z
" transform="scale(0.015625)"/>
      <path id="DejaVuSans-Bold-44" d="M 2106 1575 
Q 1756 1575 1579 1456 
Q 1403 1338 1403 1106 
Q 1403 894 1545 773 
Q 1688 653 1941 653 
Q 2256 653 2472 879 
Q 2688 1106 2688 1447 
L 2688 1575 
L 2106 1575 
z
M 3816 1997 
L 3816 0 
L 2688 0 
L 2688 519 
Q 2463 200 2181 54 
Q 1900 -91 1497 -91 
Q 953 -91 614 226 
Q 275 544 275 1050 
Q 275 1666 698 1953 
Q 1122 2241 2028 2241 
L 2688 2241 
L 2688 2328 
Q 2688 2594 2478 2717 
Q 2269 2841 1825 2841 
Q 1466 2841 1156 2769 
Q 847 2697 581 2553 
L 581 3406 
Q 941 3494 1303 3539 
Q 1666 3584 2028 3584 
Q 2975 3584 3395 3211 
Q 3816 2838 3816 1997 
z
" transform="scale(0.015625)"/>
      <path id="DejaVuSans-Bold-5a" d="M 225 3500 
L 1313 3500 
L 1900 1088 
L 2491 3500 
L 3425 3500 
L 4013 1113 
L 4603 3500 
L 5691 3500 
L 4769 0 
L 3547 0 
L 2956 2406 
L 2369 0 
L 1147 0 
L 225 3500 
z
" transform="scale(0.015625)"/>
      <path id="DejaVuSans-Bold-1d" d="M 716 3500 
L 1844 3500 
L 1844 2291 
L 716 2291 
L 716 3500 
z
M 716 1209 
L 1844 1209 
L 1844 0 
L 716 0 
L 716 1209 
z
" transform="scale(0.015625)"/>
      <path id="DejaVuSans-Bold-47" d="M 2919 2988 
L 2919 4863 
L 4044 4863 
L 4044 0 
L 2919 0 
L 2919 506 
Q 2688 197 2409 53 
Q 2131 -91 1766 -91 
Q 1119 -91 703 423 
Q 288 938 288 1747 
Q 288 2556 703 3070 
Q 1119 3584 1766 3584 
Q 2128 3584 2408 3439 
Q 2688 3294 2919 2988 
z
M 2181 722 
Q 2541 722 2730 984 
Q 2919 1247 2919 1747 
Q 2919 2247 2730 2509 
Q 2541 2772 2181 2772 
Q 1825 2772 1636 2509 
Q 1447 2247 1447 1747 
Q 1447 1247 1636 984 
Q 1825 722 2181 722 
z
" transform="scale(0.015625)"/>
      <path id="DejaVuSans-Bold-48" d="M 4031 1759 
L 4031 1441 
L 1416 1441 
Q 1456 1047 1700 850 
Q 1944 653 2381 653 
Q 2734 653 3104 758 
Q 3475 863 3866 1075 
L 3866 213 
Q 3469 63 3072 -14 
Q 2675 -91 2278 -91 
Q 1328 -91 801 392 
Q 275 875 275 1747 
Q 275 2603 792 3093 
Q 1309 3584 2216 3584 
Q 3041 3584 3536 3087 
Q 4031 2591 4031 1759 
z
M 2881 2131 
Q 2881 2450 2695 2645 
Q 2509 2841 2209 2841 
Q 1884 2841 1681 2658 
Q 1478 2475 1428 2131 
L 2881 2131 
z
" transform="scale(0.015625)"/>
      <path id="DejaVuSans-Bold-46" d="M 3366 3391 
L 3366 2478 
Q 3138 2634 2908 2709 
Q 2678 2784 2431 2784 
Q 1963 2784 1702 2511 
Q 1441 2238 1441 1747 
Q 1441 1256 1702 982 
Q 1963 709 2431 709 
Q 2694 709 2930 787 
Q 3166 866 3366 1019 
L 3366 103 
Q 3103 6 2833 -42 
Q 2563 -91 2291 -91 
Q 1344 -91 809 395 
Q 275 881 275 1747 
Q 275 2613 809 3098 
Q 1344 3584 2291 3584 
Q 2566 3584 2833 3536 
Q 3100 3488 3366 3391 
z
" transform="scale(0.015625)"/>
      <path id="DejaVuSans-Bold-4f" d="M 538 4863 
L 1656 4863 
L 1656 0 
L 538 0 
L 538 4863 
z
" transform="scale(0.015625)"/>
      <path id="DejaVuSans-Bold-4c" d="M 538 3500 
L 1656 3500 
L 1656 0 
L 538 0 
L 538 3500 
z
M 538 4863 
L 1656 4863 
L 1656 3950 
L 538 3950 
L 538 4863 
z
" transform="scale(0.015625)"/>
      <path id="DejaVuSans-Bold-51" d="M 4056 2131 
L 4056 0 
L 2931 0 
L 2931 347 
L 2931 1631 
Q 2931 2084 2911 2256 
Q 2891 2428 2841 2509 
Q 2775 2619 2662 2680 
Q 2550 2741 2406 2741 
Q 2056 2741 1856 2470 
Q 1656 2200 1656 1722 
L 1656 0 
L 538 0 
L 538 3500 
L 1656 3500 
L 1656 2988 
Q 1909 3294 2193 3439 
Q 2478 3584 2822 3584 
Q 3428 3584 3742 3212 
Q 4056 2841 4056 2131 
z
" transform="scale(0.015625)"/>
      <path id="DejaVuSans-Bold-4a" d="M 2919 594 
Q 2688 288 2409 144 
Q 2131 0 1766 0 
Q 1125 0 706 504 
Q 288 1009 288 1791 
Q 288 2575 706 3076 
Q 1125 3578 1766 3578 
Q 2131 3578 2409 3434 
Q 2688 3291 2919 2981 
L 2919 3500 
L 4044 3500 
L 4044 353 
Q 4044 -491 3511 -936 
Q 2978 -1381 1966 -1381 
Q 1638 -1381 1331 -1331 
Q 1025 -1281 716 -1178 
L 716 -306 
Q 1009 -475 1290 -558 
Q 1572 -641 1856 -641 
Q 2406 -641 2662 -400 
Q 2919 -159 2919 353 
L 2919 594 
z
M 2181 2772 
Q 1834 2772 1640 2515 
Q 1447 2259 1447 1791 
Q 1447 1309 1634 1061 
Q 1822 813 2181 813 
Q 2531 813 2725 1069 
Q 2919 1325 2919 1791 
Q 2919 2259 2725 2515 
Q 2531 2772 2181 2772 
z
" transform="scale(0.015625)"/>
      <path id="DejaVuSans-Bold-53" d="M 1656 506 
L 1656 -1331 
L 538 -1331 
L 538 3500 
L 1656 3500 
L 1656 2988 
Q 1888 3294 2169 3439 
Q 2450 3584 2816 3584 
Q 3463 3584 3878 3070 
Q 4294 2556 4294 1747 
Q 4294 938 3878 423 
Q 3463 -91 2816 -91 
Q 2450 -91 2169 54 
Q 1888 200 1656 506 
z
M 2400 2772 
Q 2041 2772 1848 2508 
Q 1656 2244 1656 1747 
Q 1656 1250 1848 986 
Q 2041 722 2400 722 
Q 2759 722 2948 984 
Q 3138 1247 3138 1747 
Q 3138 2247 2948 2509 
Q 2759 2772 2400 2772 
z
" transform="scale(0.015625)"/>
      <path id="DejaVuSans-Bold-4b" d="M 4056 2131 
L 4056 0 
L 2931 0 
L 2931 347 
L 2931 1625 
Q 2931 2084 2911 2256 
Q 2891 2428 2841 2509 
Q 2775 2619 2662 2680 
Q 2550 2741 2406 2741 
Q 2056 2741 1856 2470 
Q 1656 2200 1656 1722 
L 1656 0 
L 538 0 
L 538 4863 
L 1656 4863 
L 1656 2988 
Q 1909 3294 2193 3439 
Q 2478 3584 2822 3584 
Q 3428 3584 3742 3212 
Q 4056 2841 4056 2131 
z
" transform="scale(0.015625)"/>
      <path id="DejaVuSans-Bold-58" d="M 500 1363 
L 500 3500 
L 1625 3500 
L 1625 3150 
Q 1625 2866 1622 2436 
Q 1619 2006 1619 1863 
Q 1619 1441 1641 1255 
Q 1663 1069 1716 984 
Q 1784 875 1895 815 
Q 2006 756 2150 756 
Q 2500 756 2700 1025 
Q 2900 1294 2900 1772 
L 2900 3500 
L 4019 3500 
L 4019 0 
L 2900 0 
L 2900 506 
Q 2647 200 2364 54 
Q 2081 -91 1741 -91 
Q 1134 -91 817 281 
Q 500 653 500 1363 
z
" transform="scale(0.015625)"/>
      <path id="DejaVuSans-Bold-57" d="M 1759 4494 
L 1759 3500 
L 2913 3500 
L 2913 2700 
L 1759 2700 
L 1759 1216 
Q 1759 972 1856 886 
Q 1953 800 2241 800 
L 2816 800 
L 2816 0 
L 1856 0 
Q 1194 0 917 276 
Q 641 553 641 1216 
L 641 2700 
L 84 2700 
L 84 3500 
L 641 3500 
L 641 4494 
L 1759 4494 
z
" transform="scale(0.015625)"/>
      <path id="DejaVuSans-Bold-35" d="M 2297 2597 
Q 2675 2597 2839 2737 
Q 3003 2878 3003 3200 
Q 3003 3519 2839 3656 
Q 2675 3794 2297 3794 
L 1791 3794 
L 1791 2597 
L 2297 2597 
z
M 1791 1766 
L 1791 0 
L 588 0 
L 588 4666 
L 2425 4666 
Q 3347 4666 3776 4356 
Q 4206 4047 4206 3378 
Q 4206 2916 3982 2619 
Q 3759 2322 3309 2181 
Q 3556 2125 3751 1926 
Q 3947 1728 4147 1325 
L 4800 0 
L 3519 0 
L 2950 1159 
Q 2778 1509 2601 1637 
Q 2425 1766 2131 1766 
L 1791 1766 
z
" transform="scale(0.015625)"/>
      <path id="DejaVuSans-Bold-9" d="M 2497 3097 
L 3775 1691 
Q 3941 1909 4027 2181 
Q 4113 2453 4128 2797 
L 5100 2797 
Q 5053 2228 4879 1784 
Q 4706 1341 4397 1006 
L 5313 0 
L 3988 0 
L 3681 341 
Q 3353 122 2990 15 
Q 2628 -91 2222 -91 
Q 1400 -91 892 342 
Q 384 775 384 1459 
Q 384 1916 607 2267 
Q 831 2619 1338 2950 
Q 1206 3116 1143 3281 
Q 1081 3447 1081 3628 
Q 1081 4138 1478 4444 
Q 1875 4750 2534 4750 
Q 2819 4750 3126 4704 
Q 3434 4659 3769 4569 
L 3769 3700 
Q 3475 3850 3212 3922 
Q 2950 3994 2700 3994 
Q 2459 3994 2326 3901 
Q 2194 3809 2194 3641 
Q 2194 3534 2270 3398 
Q 2347 3263 2497 3097 
z
M 1875 2322 
Q 1672 2175 1569 1989 
Q 1466 1803 1466 1581 
Q 1466 1222 1731 969 
Q 1997 716 2369 716 
Q 2578 716 2759 780 
Q 2941 844 3097 972 
L 1875 2322 
z
" transform="scale(0.015625)"/>
      <path id="DejaVuSans-Bold-27" d="M 1791 3756 
L 1791 909 
L 2222 909 
Q 2959 909 3348 1275 
Q 3738 1641 3738 2338 
Q 3738 3031 3350 3393 
Q 2963 3756 2222 3756 
L 1791 3756 
z
M 588 4666 
L 1856 4666 
Q 2919 4666 3439 4514 
Q 3959 4363 4331 4000 
Q 4659 3684 4818 3271 
Q 4978 2859 4978 2338 
Q 4978 1809 4818 1395 
Q 4659 981 4331 666 
Q 3956 303 3431 151 
Q 2906 0 1856 0 
L 588 0 
L 588 4666 
z
" transform="scale(0.015625)"/>
      <path id="DejaVuSans-Bold-13ad" d="M 2841 4863 
L 2841 4128 
L 2222 4128 
Q 1984 4128 1891 4044 
Q 1797 3956 1797 3744 
L 1797 3500 
L 3078 3500 
L 3078 3744 
Q 3078 4316 3397 4588 
Q 3716 4863 4384 4863 
L 5241 4863 
L 5241 4128 
L 4622 4128 
Q 4388 4128 4297 4044 
Q 4206 3956 4206 3744 
L 4206 3500 
L 6600 3500 
L 6600 0 
L 5472 0 
L 5472 2700 
L 4206 2700 
L 4206 0 
L 4197 0 
L 3078 0 
L 3078 2700 
L 1797 2700 
L 1797 0 
L 678 0 
L 678 2700 
L 122 2700 
L 122 3500 
L 678 3500 
L 678 3744 
Q 678 4316 997 4588 
Q 1316 4863 1984 4863 
L 2841 4863 
z
M 5472 4863 
L 6600 4863 
L 6600 3950 
L 5472 3950 
L 5472 4863 
z
" transform="scale(0.015625)"/>
      <path id="DejaVuSans-Bold-5c" d="M 78 3500 
L 1197 3500 
L 2138 1125 
L 2938 3500 
L 4056 3500 
L 2584 -331 
Q 2363 -916 2067 -1148 
Q 1772 -1381 1288 -1381 
L 641 -1381 
L 641 -647 
L 991 -647 
Q 1275 -647 1404 -556 
Q 1534 -466 1606 -231 
L 1638 -134 
L 78 3500 
z
" transform="scale(0.015625)"/>
      <path id="DejaVuSans-Bold-b" d="M 2413 -844 
L 1484 -844 
Q 1006 -72 778 623 
Q 550 1319 550 2003 
Q 550 2688 779 3389 
Q 1009 4091 1484 4856 
L 2413 4856 
Q 2013 4116 1813 3408 
Q 1613 2700 1613 2009 
Q 1613 1319 1811 609 
Q 2009 -100 2413 -844 
z
" transform="scale(0.015625)"/>
      <path id="DejaVuSans-Bold-14" d="M 750 831 
L 1813 831 
L 1813 3847 
L 722 3622 
L 722 4441 
L 1806 4666 
L 2950 4666 
L 2950 831 
L 4013 831 
L 4013 0 
L 750 0 
L 750 831 
z
" transform="scale(0.015625)"/>
      <path id="DejaVuSans-Bold-1c" d="M 641 103 
L 641 966 
Q 928 831 1190 764 
Q 1453 697 1709 697 
Q 2247 697 2547 995 
Q 2847 1294 2900 1881 
Q 2688 1725 2447 1647 
Q 2206 1569 1925 1569 
Q 1209 1569 770 1986 
Q 331 2403 331 3084 
Q 331 3838 820 4291 
Q 1309 4744 2131 4744 
Q 3044 4744 3544 4128 
Q 4044 3513 4044 2388 
Q 4044 1231 3459 570 
Q 2875 -91 1856 -91 
Q 1528 -91 1228 -42 
Q 928 6 641 103 
z
M 2125 2350 
Q 2441 2350 2600 2554 
Q 2759 2759 2759 3169 
Q 2759 3575 2600 3781 
Q 2441 3988 2125 3988 
Q 1809 3988 1650 3781 
Q 1491 3575 1491 3169 
Q 1491 2759 1650 2554 
Q 1809 2350 2125 2350 
z
" transform="scale(0.015625)"/>
      <path id="DejaVuSans-Bold-18" d="M 678 4666 
L 3669 4666 
L 3669 3781 
L 1638 3781 
L 1638 3059 
Q 1775 3097 1914 3117 
Q 2053 3138 2203 3138 
Q 3056 3138 3531 2711 
Q 4006 2284 4006 1522 
Q 4006 766 3489 337 
Q 2972 -91 2053 -91 
Q 1656 -91 1267 -14 
Q 878 63 494 219 
L 494 1166 
Q 875 947 1217 837 
Q 1559 728 1863 728 
Q 2300 728 2551 942 
Q 2803 1156 2803 1522 
Q 2803 1891 2551 2103 
Q 2300 2316 1863 2316 
Q 1603 2316 1309 2248 
Q 1016 2181 678 2041 
L 678 4666 
z
" transform="scale(0.015625)"/>
      <path id="DejaVuSans-Bold-13" d="M 2944 2338 
Q 2944 3213 2780 3570 
Q 2616 3928 2228 3928 
Q 1841 3928 1675 3570 
Q 1509 3213 1509 2338 
Q 1509 1453 1675 1090 
Q 1841 728 2228 728 
Q 2613 728 2778 1090 
Q 2944 1453 2944 2338 
z
M 4147 2328 
Q 4147 1169 3647 539 
Q 3147 -91 2228 -91 
Q 1306 -91 806 539 
Q 306 1169 306 2328 
Q 306 3491 806 4120 
Q 1306 4750 2228 4750 
Q 3147 4750 3647 4120 
Q 4147 3491 4147 2328 
z
" transform="scale(0.015625)"/>
      <path id="DejaVuSans-Bold-10" d="M 347 2297 
L 2309 2297 
L 2309 1388 
L 347 1388 
L 347 2297 
z
" transform="scale(0.015625)"/>
      <path id="DejaVuSans-Bold-15" d="M 1844 884 
L 3897 884 
L 3897 0 
L 506 0 
L 506 884 
L 2209 2388 
Q 2438 2594 2547 2791 
Q 2656 2988 2656 3200 
Q 2656 3528 2436 3728 
Q 2216 3928 1850 3928 
Q 1569 3928 1234 3808 
Q 900 3688 519 3450 
L 519 4475 
Q 925 4609 1322 4679 
Q 1719 4750 2100 4750 
Q 2938 4750 3402 4381 
Q 3866 4013 3866 3353 
Q 3866 2972 3669 2642 
Q 3472 2313 2841 1759 
L 1844 884 
z
" transform="scale(0.015625)"/>
      <path id="DejaVuSans-Bold-17" d="M 2356 3675 
L 1038 1722 
L 2356 1722 
L 2356 3675 
z
M 2156 4666 
L 3494 4666 
L 3494 1722 
L 4159 1722 
L 4159 850 
L 3494 850 
L 3494 0 
L 2356 0 
L 2356 850 
L 288 850 
L 288 1881 
L 2156 4666 
z
" transform="scale(0.015625)"/>
      <path id="DejaVuSans-Bold-c" d="M 513 -844 
Q 913 -100 1113 609 
Q 1313 1319 1313 2009 
Q 1313 2700 1113 3408 
Q 913 4116 513 4856 
L 1441 4856 
Q 1916 4091 2145 3389 
Q 2375 2688 2375 2003 
Q 2375 1319 2147 623 
Q 1919 -72 1441 -844 
L 513 -844 
z
" transform="scale(0.015625)"/>
     </defs>
     <use xlink:href="#DejaVuSans-Bold-28"/>
     <use xlink:href="#DejaVuSans-Bold-55" transform="translate(68.3125 0)"/>
     <use xlink:href="#DejaVuSans-Bold-52" transform="translate(117.625 0)"/>
     <use xlink:href="#DejaVuSans-Bold-52" transform="translate(186.328125 0)"/>
     <use xlink:href="#DejaVuSans-Bold-50" transform="translate(255.03125 0)"/>
     <use xlink:href="#DejaVuSans-Bold-a" transform="translate(359.234375 0)"/>
     <use xlink:href="#DejaVuSans-Bold-56" transform="translate(389.84375 0)"/>
     <use xlink:href="#DejaVuSans-Bold-3" transform="translate(449.359375 0)"/>
     <use xlink:href="#DejaVuSans-Bold-2f" transform="translate(484.171875 0)"/>
     <use xlink:href="#DejaVuSans-Bold-44" transform="translate(547.890625 0)"/>
     <use xlink:href="#DejaVuSans-Bold-5a" transform="translate(615.375 0)"/>
     <use xlink:href="#DejaVuSans-Bold-1d" transform="translate(707.765625 0)"/>
     <use xlink:href="#DejaVuSans-Bold-3" transform="translate(747.75 0)"/>
     <use xlink:href="#DejaVuSans-Bold-47" transform="translate(782.5625 0)"/>
     <use xlink:href="#DejaVuSans-Bold-48" transform="translate(854.140625 0)"/>
     <use xlink:href="#DejaVuSans-Bold-46" transform="translate(921.96875 0)"/>
     <use xlink:href="#DejaVuSans-Bold-4f" transform="translate(981.25 0)"/>
     <use xlink:href="#DejaVuSans-Bold-4c" transform="translate(1015.53125 0)"/>
     <use xlink:href="#DejaVuSans-Bold-51" transform="translate(1049.8125 0)"/>
     <use xlink:href="#DejaVuSans-Bold-4c" transform="translate(1121 0)"/>
     <use xlink:href="#DejaVuSans-Bold-51" transform="translate(1155.28125 0)"/>
     <use xlink:href="#DejaVuSans-Bold-4a" transform="translate(1226.46875 0)"/>
     <use xlink:href="#DejaVuSans-Bold-3" transform="translate(1298.046875 0)"/>
     <use xlink:href="#DejaVuSans-Bold-53" transform="translate(1332.859375 0)"/>
     <use xlink:href="#DejaVuSans-Bold-4b" transform="translate(1404.4375 0)"/>
     <use xlink:href="#DejaVuSans-Bold-44" transform="translate(1475.625 0)"/>
     <use xlink:href="#DejaVuSans-Bold-55" transform="translate(1543.109375 0)"/>
     <use xlink:href="#DejaVuSans-Bold-50" transform="translate(1592.421875 0)"/>
     <use xlink:href="#DejaVuSans-Bold-44" transform="translate(1696.625 0)"/>
     <use xlink:href="#DejaVuSans-Bold-46" transform="translate(1764.109375 0)"/>
     <use xlink:href="#DejaVuSans-Bold-48" transform="translate(1823.390625 0)"/>
     <use xlink:href="#DejaVuSans-Bold-58" transform="translate(1891.21875 0)"/>
     <use xlink:href="#DejaVuSans-Bold-57" transform="translate(1962.40625 0)"/>
     <use xlink:href="#DejaVuSans-Bold-4c" transform="translate(2010.203125 0)"/>
     <use xlink:href="#DejaVuSans-Bold-46" transform="translate(2044.484375 0)"/>
     <use xlink:href="#DejaVuSans-Bold-44" transform="translate(2103.765625 0)"/>
     <use xlink:href="#DejaVuSans-Bold-4f" transform="translate(2171.25 0)"/>
     <use xlink:href="#DejaVuSans-Bold-3" transform="translate(2205.53125 0)"/>
     <use xlink:href="#DejaVuSans-Bold-35" transform="translate(2240.34375 0)"/>
     <use xlink:href="#DejaVuSans-Bold-9" transform="translate(2317.34375 0)"/>
     <use xlink:href="#DejaVuSans-Bold-27" transform="translate(2404.546875 0)"/>
     <use xlink:href="#DejaVuSans-Bold-3" transform="translate(2487.5625 0)"/>
     <use xlink:href="#DejaVuSans-Bold-48" transform="translate(2522.375 0)"/>
     <use xlink:href="#DejaVuSans-Bold-13ad" transform="translate(2590.203125 0)"/>
     <use xlink:href="#DejaVuSans-Bold-46" transform="translate(2701.734375 0)"/>
     <use xlink:href="#DejaVuSans-Bold-4c" transform="translate(2761.015625 0)"/>
     <use xlink:href="#DejaVuSans-Bold-48" transform="translate(2795.296875 0)"/>
     <use xlink:href="#DejaVuSans-Bold-51" transform="translate(2863.125 0)"/>
     <use xlink:href="#DejaVuSans-Bold-46" transform="translate(2934.3125 0)"/>
     <use xlink:href="#DejaVuSans-Bold-5c" transform="translate(2993.59375 0)"/>
     <use xlink:href="#DejaVuSans-Bold-3" transform="translate(3058.78125 0)"/>
     <use xlink:href="#DejaVuSans-Bold-b" transform="translate(3093.59375 0)"/>
     <use xlink:href="#DejaVuSans-Bold-14" transform="translate(3139.296875 0)"/>
     <use xlink:href="#DejaVuSans-Bold-1c" transform="translate(3208.875 0)"/>
     <use xlink:href="#DejaVuSans-Bold-18" transform="translate(3278.453125 0)"/>
     <use xlink:href="#DejaVuSans-Bold-13" transform="translate(3348.03125 0)"/>
     <use xlink:href="#DejaVuSans-Bold-10" transform="translate(3417.609375 0)"/>
     <use xlink:href="#DejaVuSans-Bold-15" transform="translate(3459.109375 0)"/>
     <use xlink:href="#DejaVuSans-Bold-13" transform="translate(3528.6875 0)"/>
     <use xlink:href="#DejaVuSans-Bold-15" transform="translate(3598.265625 0)"/>
     <use xlink:href="#DejaVuSans-Bold-17" transform="translate(3667.84375 0)"/>
     <use xlink:href="#DejaVuSans-Bold-c" transform="translate(3737.421875 0)"/>
    </g>
   </g>
   <g id="legend_1">
    <g id="line2d_40">
     <path d="M 59.721094 387.124063 
L 70.721094 387.124063 
L 81.721094 387.124063 
" style="fill: none; stroke: #a20025; stroke-width: 2.5; stroke-linecap: round"/>
     <g>
      <use xlink:href="#m26074eee27" x="70.721094" y="387.124063" style="fill: #a20025; stroke: #a20025"/>
     </g>
    </g>
    <g id="text_15">
     <!-- New drugs per $bn R&amp;D (efficiency) -->
     <g style="fill: #262626" transform="translate(90.521094 390.974063) scale(0.11 -0.11)">
      <use xlink:href="#DejaVuSans-31"/>
      <use xlink:href="#DejaVuSans-48" transform="translate(74.8125 0)"/>
      <use xlink:href="#DejaVuSans-5a" transform="translate(136.34375 0)"/>
      <use xlink:href="#DejaVuSans-3" transform="translate(218.125 0)"/>
      <use xlink:href="#DejaVuSans-47" transform="translate(249.90625 0)"/>
      <use xlink:href="#DejaVuSans-55" transform="translate(313.390625 0)"/>
      <use xlink:href="#DejaVuSans-58" transform="translate(354.5 0)"/>
      <use xlink:href="#DejaVuSans-4a" transform="translate(417.875 0)"/>
      <use xlink:href="#DejaVuSans-56" transform="translate(481.359375 0)"/>
      <use xlink:href="#DejaVuSans-3" transform="translate(533.453125 0)"/>
      <use xlink:href="#DejaVuSans-53" transform="translate(565.234375 0)"/>
      <use xlink:href="#DejaVuSans-48" transform="translate(628.71875 0)"/>
      <use xlink:href="#DejaVuSans-55" transform="translate(690.25 0)"/>
      <use xlink:href="#DejaVuSans-3" transform="translate(731.359375 0)"/>
      <use xlink:href="#DejaVuSans-7" transform="translate(763.140625 0)"/>
      <use xlink:href="#DejaVuSans-45" transform="translate(826.765625 0)"/>
      <use xlink:href="#DejaVuSans-51" transform="translate(890.25 0)"/>
      <use xlink:href="#DejaVuSans-3" transform="translate(953.625 0)"/>
      <use xlink:href="#DejaVuSans-35" transform="translate(985.40625 0)"/>
      <use xlink:href="#DejaVuSans-9" transform="translate(1054.890625 0)"/>
      <use xlink:href="#DejaVuSans-27" transform="translate(1132.875 0)"/>
      <use xlink:href="#DejaVuSans-3" transform="translate(1209.875 0)"/>
      <use xlink:href="#DejaVuSans-b" transform="translate(1241.65625 0)"/>
      <use xlink:href="#DejaVuSans-48" transform="translate(1280.671875 0)"/>
      <use xlink:href="#DejaVuSans-13b1" transform="translate(1342.203125 0)"/>
      <use xlink:href="#DejaVuSans-46" transform="translate(1438.890625 0)"/>
      <use xlink:href="#DejaVuSans-4c" transform="translate(1493.875 0)"/>
      <use xlink:href="#DejaVuSans-48" transform="translate(1521.65625 0)"/>
      <use xlink:href="#DejaVuSans-51" transform="translate(1583.1875 0)"/>
      <use xlink:href="#DejaVuSans-46" transform="translate(1646.5625 0)"/>
      <use xlink:href="#DejaVuSans-5c" transform="translate(1701.546875 0)"/>
      <use xlink:href="#DejaVuSans-c" transform="translate(1760.734375 0)"/>
     </g>
    </g>
    <g id="patch_8">
     <path d="M 59.721094 407.474922 
L 81.721094 407.474922 
L 81.721094 399.774922 
L 59.721094 399.774922 
z
" style="fill: #1f77b4; opacity: 0.25"/>
    </g>
    <g id="text_16">
     <!-- FDA new drug approvals / year -->
     <g style="fill: #262626" transform="translate(90.521094 407.474922) scale(0.11 -0.11)">
      <defs>
       <path id="DejaVuSans-29" d="M 628 4666 
L 3309 4666 
L 3309 4134 
L 1259 4134 
L 1259 2759 
L 3109 2759 
L 3109 2228 
L 1259 2228 
L 1259 0 
L 628 0 
L 628 4666 
z
" transform="scale(0.015625)"/>
       <path id="DejaVuSans-24" d="M 2188 4044 
L 1331 1722 
L 3047 1722 
L 2188 4044 
z
M 1831 4666 
L 2547 4666 
L 4325 0 
L 3669 0 
L 3244 1197 
L 1141 1197 
L 716 0 
L 50 0 
L 1831 4666 
z
" transform="scale(0.015625)"/>
       <path id="DejaVuSans-12" d="M 1625 4666 
L 2156 4666 
L 531 -594 
L 0 -594 
L 1625 4666 
z
" transform="scale(0.015625)"/>
      </defs>
      <use xlink:href="#DejaVuSans-29"/>
      <use xlink:href="#DejaVuSans-27" transform="translate(57.515625 0)"/>
      <use xlink:href="#DejaVuSans-24" transform="translate(132.765625 0)"/>
      <use xlink:href="#DejaVuSans-3" transform="translate(201.171875 0)"/>
      <use xlink:href="#DejaVuSans-51" transform="translate(232.953125 0)"/>
      <use xlink:href="#DejaVuSans-48" transform="translate(296.328125 0)"/>
      <use xlink:href="#DejaVuSans-5a" transform="translate(357.859375 0)"/>
      <use xlink:href="#DejaVuSans-3" transform="translate(439.640625 0)"/>
      <use xlink:href="#DejaVuSans-47" transform="translate(471.421875 0)"/>
      <use xlink:href="#DejaVuSans-55" transform="translate(534.90625 0)"/>
      <use xlink:href="#DejaVuSans-58" transform="translate(576.015625 0)"/>
      <use xlink:href="#DejaVuSans-4a" transform="translate(639.390625 0)"/>
      <use xlink:href="#DejaVuSans-3" transform="translate(702.875 0)"/>
      <use xlink:href="#DejaVuSans-44" transform="translate(734.65625 0)"/>
      <use xlink:href="#DejaVuSans-53" transform="translate(795.9375 0)"/>
      <use xlink:href="#DejaVuSans-53" transform="translate(859.421875 0)"/>
      <use xlink:href="#DejaVuSans-55" transform="translate(922.90625 0)"/>
      <use xlink:href="#DejaVuSans-52" transform="translate(961.8125 0)"/>
      <use xlink:href="#DejaVuSans-59" transform="translate(1023 0)"/>
      <use xlink:href="#DejaVuSans-44" transform="translate(1082.1875 0)"/>
      <use xlink:href="#DejaVuSans-4f" transform="translate(1143.46875 0)"/>
      <use xlink:href="#DejaVuSans-56" transform="translate(1171.25 0)"/>
      <use xlink:href="#DejaVuSans-3" transform="translate(1223.34375 0)"/>
      <use xlink:href="#DejaVuSans-12" transform="translate(1255.125 0)"/>
      <use xlink:href="#DejaVuSans-3" transform="translate(1288.8125 0)"/>
      <use xlink:href="#DejaVuSans-5c" transform="translate(1320.59375 0)"/>
      <use xlink:href="#DejaVuSans-48" transform="translate(1379.78125 0)"/>
      <use xlink:href="#DejaVuSans-44" transform="translate(1441.3125 0)"/>
      <use xlink:href="#DejaVuSans-55" transform="translate(1502.59375 0)"/>
     </g>
    </g>
   </g>
  </g>
  <g id="axes_2">
   <g id="matplotlib.axis_3">
    <g id="ytick_20">
     <g id="line2d_41">
      <path d="M 49.821094 420.0175 
L 739.781094 420.0175 
" clip-path="url(#pd5afddbff2)" style="fill: none; stroke: #cccccc; stroke-width: 0.8; stroke-linecap: round"/>
     </g>
     <g id="line2d_42"/>
     <g id="text_17">
      <!-- 0 -->
      <g style="fill: #1f77b4" transform="translate(743.281094 424.576094) scale(0.12 -0.12)">
       <use xlink:href="#DejaVuSans-13"/>
      </g>
     </g>
    </g>
    <g id="ytick_21">
     <g id="line2d_43">
      <path d="M 49.821094 368.607447 
L 739.781094 368.607447 
" clip-path="url(#pd5afddbff2)" style="fill: none; stroke: #cccccc; stroke-width: 0.8; stroke-linecap: round"/>
     </g>
     <g id="line2d_44"/>
     <g id="text_18">
      <!-- 10 -->
      <g style="fill: #1f77b4" transform="translate(743.281094 373.166041) scale(0.12 -0.12)">
       <use xlink:href="#DejaVuSans-14"/>
       <use xlink:href="#DejaVuSans-13" transform="translate(63.625 0)"/>
      </g>
     </g>
    </g>
    <g id="ytick_22">
     <g id="line2d_45">
      <path d="M 49.821094 317.197394 
L 739.781094 317.197394 
" clip-path="url(#pd5afddbff2)" style="fill: none; stroke: #cccccc; stroke-width: 0.8; stroke-linecap: round"/>
     </g>
     <g id="line2d_46"/>
     <g id="text_19">
      <!-- 20 -->
      <g style="fill: #1f77b4" transform="translate(743.281094 321.755988) scale(0.12 -0.12)">
       <use xlink:href="#DejaVuSans-15"/>
       <use xlink:href="#DejaVuSans-13" transform="translate(63.625 0)"/>
      </g>
     </g>
    </g>
    <g id="ytick_23">
     <g id="line2d_47">
      <path d="M 49.821094 265.787341 
L 739.781094 265.787341 
" clip-path="url(#pd5afddbff2)" style="fill: none; stroke: #cccccc; stroke-width: 0.8; stroke-linecap: round"/>
     </g>
     <g id="line2d_48"/>
     <g id="text_20">
      <!-- 30 -->
      <g style="fill: #1f77b4" transform="translate(743.281094 270.345935) scale(0.12 -0.12)">
       <defs>
        <path id="DejaVuSans-16" d="M 2597 2516 
Q 3050 2419 3304 2112 
Q 3559 1806 3559 1356 
Q 3559 666 3084 287 
Q 2609 -91 1734 -91 
Q 1441 -91 1130 -33 
Q 819 25 488 141 
L 488 750 
Q 750 597 1062 519 
Q 1375 441 1716 441 
Q 2309 441 2620 675 
Q 2931 909 2931 1356 
Q 2931 1769 2642 2001 
Q 2353 2234 1838 2234 
L 1294 2234 
L 1294 2753 
L 1863 2753 
Q 2328 2753 2575 2939 
Q 2822 3125 2822 3475 
Q 2822 3834 2567 4026 
Q 2313 4219 1838 4219 
Q 1578 4219 1281 4162 
Q 984 4106 628 3988 
L 628 4550 
Q 988 4650 1302 4700 
Q 1616 4750 1894 4750 
Q 2613 4750 3031 4423 
Q 3450 4097 3450 3541 
Q 3450 3153 3228 2886 
Q 3006 2619 2597 2516 
z
" transform="scale(0.015625)"/>
       </defs>
       <use xlink:href="#DejaVuSans-16"/>
       <use xlink:href="#DejaVuSans-13" transform="translate(63.625 0)"/>
      </g>
     </g>
    </g>
    <g id="ytick_24">
     <g id="line2d_49">
      <path d="M 49.821094 214.377288 
L 739.781094 214.377288 
" clip-path="url(#pd5afddbff2)" style="fill: none; stroke: #cccccc; stroke-width: 0.8; stroke-linecap: round"/>
     </g>
     <g id="line2d_50"/>
     <g id="text_21">
      <!-- 40 -->
      <g style="fill: #1f77b4" transform="translate(743.281094 218.935882) scale(0.12 -0.12)">
       <defs>
        <path id="DejaVuSans-17" d="M 2419 4116 
L 825 1625 
L 2419 1625 
L 2419 4116 
z
M 2253 4666 
L 3047 4666 
L 3047 1625 
L 3713 1625 
L 3713 1100 
L 3047 1100 
L 3047 0 
L 2419 0 
L 2419 1100 
L 313 1100 
L 313 1709 
L 2253 4666 
z
" transform="scale(0.015625)"/>
       </defs>
       <use xlink:href="#DejaVuSans-17"/>
       <use xlink:href="#DejaVuSans-13" transform="translate(63.625 0)"/>
      </g>
     </g>
    </g>
    <g id="ytick_25">
     <g id="line2d_51">
      <path d="M 49.821094 162.967235 
L 739.781094 162.967235 
" clip-path="url(#pd5afddbff2)" style="fill: none; stroke: #cccccc; stroke-width: 0.8; stroke-linecap: round"/>
     </g>
     <g id="line2d_52"/>
     <g id="text_22">
      <!-- 50 -->
      <g style="fill: #1f77b4" transform="translate(743.281094 167.525829) scale(0.12 -0.12)">
       <use xlink:href="#DejaVuSans-18"/>
       <use xlink:href="#DejaVuSans-13" transform="translate(63.625 0)"/>
      </g>
     </g>
    </g>
    <g id="ytick_26">
     <g id="line2d_53">
      <path d="M 49.821094 111.557183 
L 739.781094 111.557183 
" clip-path="url(#pd5afddbff2)" style="fill: none; stroke: #cccccc; stroke-width: 0.8; stroke-linecap: round"/>
     </g>
     <g id="line2d_54"/>
     <g id="text_23">
      <!-- 60 -->
      <g style="fill: #1f77b4" transform="translate(743.281094 116.115776) scale(0.12 -0.12)">
       <use xlink:href="#DejaVuSans-19"/>
       <use xlink:href="#DejaVuSans-13" transform="translate(63.625 0)"/>
      </g>
     </g>
    </g>
    <g id="ytick_27">
     <g id="line2d_55">
      <path d="M 49.821094 60.14713 
L 739.781094 60.14713 
" clip-path="url(#pd5afddbff2)" style="fill: none; stroke: #cccccc; stroke-width: 0.8; stroke-linecap: round"/>
     </g>
     <g id="line2d_56"/>
     <g id="text_24">
      <!-- 70 -->
      <g style="fill: #1f77b4" transform="translate(743.281094 64.705723) scale(0.12 -0.12)">
       <use xlink:href="#DejaVuSans-1a"/>
       <use xlink:href="#DejaVuSans-13" transform="translate(63.625 0)"/>
      </g>
     </g>
    </g>
    <g id="text_25">
     <!-- FDA new drug approvals per year -->
     <g style="fill: #1f77b4" transform="translate(773.188906 343.017344) rotate(-90) scale(0.14 -0.14)">
      <use xlink:href="#DejaVuSans-29"/>
      <use xlink:href="#DejaVuSans-27" transform="translate(57.515625 0)"/>
      <use xlink:href="#DejaVuSans-24" transform="translate(132.765625 0)"/>
      <use xlink:href="#DejaVuSans-3" transform="translate(201.171875 0)"/>
      <use xlink:href="#DejaVuSans-51" transform="translate(232.953125 0)"/>
      <use xlink:href="#DejaVuSans-48" transform="translate(296.328125 0)"/>
      <use xlink:href="#DejaVuSans-5a" transform="translate(357.859375 0)"/>
      <use xlink:href="#DejaVuSans-3" transform="translate(439.640625 0)"/>
      <use xlink:href="#DejaVuSans-47" transform="translate(471.421875 0)"/>
      <use xlink:href="#DejaVuSans-55" transform="translate(534.90625 0)"/>
      <use xlink:href="#DejaVuSans-58" transform="translate(576.015625 0)"/>
      <use xlink:href="#DejaVuSans-4a" transform="translate(639.390625 0)"/>
      <use xlink:href="#DejaVuSans-3" transform="translate(702.875 0)"/>
      <use xlink:href="#DejaVuSans-44" transform="translate(734.65625 0)"/>
      <use xlink:href="#DejaVuSans-53" transform="translate(795.9375 0)"/>
      <use xlink:href="#DejaVuSans-53" transform="translate(859.421875 0)"/>
      <use xlink:href="#DejaVuSans-55" transform="translate(922.90625 0)"/>
      <use xlink:href="#DejaVuSans-52" transform="translate(961.8125 0)"/>
      <use xlink:href="#DejaVuSans-59" transform="translate(1023 0)"/>
      <use xlink:href="#DejaVuSans-44" transform="translate(1082.1875 0)"/>
      <use xlink:href="#DejaVuSans-4f" transform="translate(1143.46875 0)"/>
      <use xlink:href="#DejaVuSans-56" transform="translate(1171.25 0)"/>
      <use xlink:href="#DejaVuSans-3" transform="translate(1223.34375 0)"/>
      <use xlink:href="#DejaVuSans-53" transform="translate(1255.125 0)"/>
      <use xlink:href="#DejaVuSans-48" transform="translate(1318.609375 0)"/>
      <use xlink:href="#DejaVuSans-55" transform="translate(1380.140625 0)"/>
      <use xlink:href="#DejaVuSans-3" transform="translate(1421.25 0)"/>
      <use xlink:href="#DejaVuSans-5c" transform="translate(1453.03125 0)"/>
      <use xlink:href="#DejaVuSans-48" transform="translate(1512.21875 0)"/>
      <use xlink:href="#DejaVuSans-44" transform="translate(1573.75 0)"/>
      <use xlink:href="#DejaVuSans-55" transform="translate(1635.03125 0)"/>
     </g>
    </g>
   </g>
   <g id="patch_9">
    <path d="M 81.182912 420.0175 
L 88.719797 420.0175 
L 88.719797 358.325437 
L 81.182912 358.325437 
z
" clip-path="url(#pd5afddbff2)" style="fill: #1f77b4; opacity: 0.25"/>
   </g>
   <g id="patch_10">
    <path d="M 114.680181 420.0175 
L 122.217067 420.0175 
L 122.217067 409.735489 
L 114.680181 409.735489 
z
" clip-path="url(#pd5afddbff2)" style="fill: #1f77b4; opacity: 0.25"/>
   </g>
   <g id="patch_11">
    <path d="M 139.803133 420.0175 
L 147.340018 420.0175 
L 147.340018 414.876495 
L 139.803133 414.876495 
z
" clip-path="url(#pd5afddbff2)" style="fill: #1f77b4; opacity: 0.25"/>
   </g>
   <g id="patch_12">
    <path d="M 148.17745 420.0175 
L 155.714336 420.0175 
L 155.714336 389.171468 
L 148.17745 389.171468 
z
" clip-path="url(#pd5afddbff2)" style="fill: #1f77b4; opacity: 0.25"/>
   </g>
   <g id="patch_13">
    <path d="M 190.049036 420.0175 
L 197.585922 420.0175 
L 197.585922 414.876495 
L 190.049036 414.876495 
z
" clip-path="url(#pd5afddbff2)" style="fill: #1f77b4; opacity: 0.25"/>
   </g>
   <g id="patch_14">
    <path d="M 223.546306 420.0175 
L 231.083191 420.0175 
L 231.083191 409.735489 
L 223.546306 409.735489 
z
" clip-path="url(#pd5afddbff2)" style="fill: #1f77b4; opacity: 0.25"/>
   </g>
   <g id="patch_15">
    <path d="M 240.29494 420.0175 
L 247.831826 420.0175 
L 247.831826 414.876495 
L 240.29494 414.876495 
z
" clip-path="url(#pd5afddbff2)" style="fill: #1f77b4; opacity: 0.25"/>
   </g>
   <g id="patch_16">
    <path d="M 248.669257 420.0175 
L 256.206143 420.0175 
L 256.206143 409.735489 
L 248.669257 409.735489 
z
" clip-path="url(#pd5afddbff2)" style="fill: #1f77b4; opacity: 0.25"/>
   </g>
   <g id="patch_17">
    <path d="M 257.043575 420.0175 
L 264.58046 420.0175 
L 264.58046 404.594484 
L 257.043575 404.594484 
z
" clip-path="url(#pd5afddbff2)" style="fill: #1f77b4; opacity: 0.25"/>
   </g>
   <g id="patch_18">
    <path d="M 282.166526 420.0175 
L 289.703412 420.0175 
L 289.703412 363.466442 
L 282.166526 363.466442 
z
" clip-path="url(#pd5afddbff2)" style="fill: #1f77b4; opacity: 0.25"/>
   </g>
   <g id="patch_19">
    <path d="M 298.915161 420.0175 
L 306.452047 420.0175 
L 306.452047 414.876495 
L 298.915161 414.876495 
z
" clip-path="url(#pd5afddbff2)" style="fill: #1f77b4; opacity: 0.25"/>
   </g>
   <g id="patch_20">
    <path d="M 307.289478 420.0175 
L 314.826364 420.0175 
L 314.826364 409.735489 
L 307.289478 409.735489 
z
" clip-path="url(#pd5afddbff2)" style="fill: #1f77b4; opacity: 0.25"/>
   </g>
   <g id="patch_21">
    <path d="M 315.663796 420.0175 
L 323.200681 420.0175 
L 323.200681 409.735489 
L 315.663796 409.735489 
z
" clip-path="url(#pd5afddbff2)" style="fill: #1f77b4; opacity: 0.25"/>
   </g>
   <g id="patch_22">
    <path d="M 324.038113 420.0175 
L 331.574998 420.0175 
L 331.574998 409.735489 
L 324.038113 409.735489 
z
" clip-path="url(#pd5afddbff2)" style="fill: #1f77b4; opacity: 0.25"/>
   </g>
   <g id="patch_23">
    <path d="M 340.786747 420.0175 
L 348.323633 420.0175 
L 348.323633 409.735489 
L 340.786747 409.735489 
z
" clip-path="url(#pd5afddbff2)" style="fill: #1f77b4; opacity: 0.25"/>
   </g>
   <g id="patch_24">
    <path d="M 357.535382 420.0175 
L 365.072267 420.0175 
L 365.072267 414.876495 
L 357.535382 414.876495 
z
" clip-path="url(#pd5afddbff2)" style="fill: #1f77b4; opacity: 0.25"/>
   </g>
   <g id="patch_25">
    <path d="M 374.284016 420.0175 
L 381.820902 420.0175 
L 381.820902 260.646336 
L 374.284016 260.646336 
z
" clip-path="url(#pd5afddbff2)" style="fill: #1f77b4; opacity: 0.25"/>
   </g>
   <g id="patch_26">
    <path d="M 382.658334 420.0175 
L 390.195219 420.0175 
L 390.195219 281.210357 
L 382.658334 281.210357 
z
" clip-path="url(#pd5afddbff2)" style="fill: #1f77b4; opacity: 0.25"/>
   </g>
   <g id="patch_27">
    <path d="M 391.032651 420.0175 
L 398.569537 420.0175 
L 398.569537 301.774378 
L 391.032651 301.774378 
z
" clip-path="url(#pd5afddbff2)" style="fill: #1f77b4; opacity: 0.25"/>
   </g>
   <g id="patch_28">
    <path d="M 399.406968 420.0175 
L 406.943854 420.0175 
L 406.943854 317.197394 
L 399.406968 317.197394 
z
" clip-path="url(#pd5afddbff2)" style="fill: #1f77b4; opacity: 0.25"/>
   </g>
   <g id="patch_29">
    <path d="M 407.781286 420.0175 
L 415.318171 420.0175 
L 415.318171 255.505331 
L 407.781286 255.505331 
z
" clip-path="url(#pd5afddbff2)" style="fill: #1f77b4; opacity: 0.25"/>
   </g>
   <g id="patch_30">
    <path d="M 416.155603 420.0175 
L 423.692488 420.0175 
L 423.692488 286.351362 
L 416.155603 286.351362 
z
" clip-path="url(#pd5afddbff2)" style="fill: #1f77b4; opacity: 0.25"/>
   </g>
   <g id="patch_31">
    <path d="M 424.52992 420.0175 
L 432.066806 420.0175 
L 432.066806 219.518294 
L 424.52992 219.518294 
z
" clip-path="url(#pd5afddbff2)" style="fill: #1f77b4; opacity: 0.25"/>
   </g>
   <g id="patch_32">
    <path d="M 432.904237 420.0175 
L 440.441123 420.0175 
L 440.441123 260.646336 
L 432.904237 260.646336 
z
" clip-path="url(#pd5afddbff2)" style="fill: #1f77b4; opacity: 0.25"/>
   </g>
   <g id="patch_33">
    <path d="M 441.278555 420.0175 
L 448.81544 420.0175 
L 448.81544 281.210357 
L 441.278555 281.210357 
z
" clip-path="url(#pd5afddbff2)" style="fill: #1f77b4; opacity: 0.25"/>
   </g>
   <g id="patch_34">
    <path d="M 449.652872 420.0175 
L 457.189757 420.0175 
L 457.189757 296.633373 
L 449.652872 296.633373 
z
" clip-path="url(#pd5afddbff2)" style="fill: #1f77b4; opacity: 0.25"/>
   </g>
   <g id="patch_35">
    <path d="M 458.027189 420.0175 
L 465.564075 420.0175 
L 465.564075 245.22332 
L 458.027189 245.22332 
z
" clip-path="url(#pd5afddbff2)" style="fill: #1f77b4; opacity: 0.25"/>
   </g>
   <g id="patch_36">
    <path d="M 466.401506 420.0175 
L 473.938392 420.0175 
L 473.938392 96.134167 
L 466.401506 96.134167 
z
" clip-path="url(#pd5afddbff2)" style="fill: #1f77b4; opacity: 0.25"/>
   </g>
   <g id="patch_37">
    <path d="M 474.775824 420.0175 
L 482.312709 420.0175 
L 482.312709 173.249246 
L 474.775824 173.249246 
z
" clip-path="url(#pd5afddbff2)" style="fill: #1f77b4; opacity: 0.25"/>
   </g>
   <g id="patch_38">
    <path d="M 483.150141 420.0175 
L 490.687027 420.0175 
L 490.687027 204.095278 
L 483.150141 204.095278 
z
" clip-path="url(#pd5afddbff2)" style="fill: #1f77b4; opacity: 0.25"/>
   </g>
   <g id="patch_39">
    <path d="M 491.524458 420.0175 
L 499.061344 420.0175 
L 499.061344 168.108241 
L 491.524458 168.108241 
z
" clip-path="url(#pd5afddbff2)" style="fill: #1f77b4; opacity: 0.25"/>
   </g>
   <g id="patch_40">
    <path d="M 499.898776 420.0175 
L 507.435661 420.0175 
L 507.435661 183.531257 
L 499.898776 183.531257 
z
" clip-path="url(#pd5afddbff2)" style="fill: #1f77b4; opacity: 0.25"/>
   </g>
   <g id="patch_41">
    <path d="M 508.273093 420.0175 
L 515.809978 420.0175 
L 515.809978 240.082315 
L 508.273093 240.082315 
z
" clip-path="url(#pd5afddbff2)" style="fill: #1f77b4; opacity: 0.25"/>
   </g>
   <g id="patch_42">
    <path d="M 516.64741 420.0175 
L 524.184296 420.0175 
L 524.184296 281.210357 
L 516.64741 281.210357 
z
" clip-path="url(#pd5afddbff2)" style="fill: #1f77b4; opacity: 0.25"/>
   </g>
   <g id="patch_43">
    <path d="M 525.021727 420.0175 
L 532.558613 420.0175 
L 532.558613 234.94131 
L 525.021727 234.94131 
z
" clip-path="url(#pd5afddbff2)" style="fill: #1f77b4; opacity: 0.25"/>
   </g>
   <g id="patch_44">
    <path d="M 533.396045 420.0175 
L 540.93293 420.0175 
L 540.93293 224.659299 
L 533.396045 224.659299 
z
" clip-path="url(#pd5afddbff2)" style="fill: #1f77b4; opacity: 0.25"/>
   </g>
   <g id="patch_45">
    <path d="M 541.770362 420.0175 
L 549.307247 420.0175 
L 549.307247 281.210357 
L 541.770362 281.210357 
z
" clip-path="url(#pd5afddbff2)" style="fill: #1f77b4; opacity: 0.25"/>
   </g>
   <g id="patch_46">
    <path d="M 550.144679 420.0175 
L 557.681565 420.0175 
L 557.681565 270.928347 
L 550.144679 270.928347 
z
" clip-path="url(#pd5afddbff2)" style="fill: #1f77b4; opacity: 0.25"/>
   </g>
   <g id="patch_47">
    <path d="M 558.518996 420.0175 
L 566.055882 420.0175 
L 566.055882 296.633373 
L 558.518996 296.633373 
z
" clip-path="url(#pd5afddbff2)" style="fill: #1f77b4; opacity: 0.25"/>
   </g>
   <g id="patch_48">
    <path d="M 566.893314 420.0175 
L 574.430199 420.0175 
L 574.430199 255.505331 
L 566.893314 255.505331 
z
" clip-path="url(#pd5afddbff2)" style="fill: #1f77b4; opacity: 0.25"/>
   </g>
   <g id="patch_49">
    <path d="M 575.267631 420.0175 
L 582.804516 420.0175 
L 582.804516 245.22332 
L 575.267631 245.22332 
z
" clip-path="url(#pd5afddbff2)" style="fill: #1f77b4; opacity: 0.25"/>
   </g>
   <g id="patch_50">
    <path d="M 583.641948 420.0175 
L 591.178834 420.0175 
L 591.178834 276.069352 
L 583.641948 276.069352 
z
" clip-path="url(#pd5afddbff2)" style="fill: #1f77b4; opacity: 0.25"/>
   </g>
   <g id="patch_51">
    <path d="M 592.016265 420.0175 
L 599.553151 420.0175 
L 599.553151 229.800304 
L 592.016265 229.800304 
z
" clip-path="url(#pd5afddbff2)" style="fill: #1f77b4; opacity: 0.25"/>
   </g>
   <g id="patch_52">
    <path d="M 600.390583 420.0175 
L 607.927468 420.0175 
L 607.927468 178.390251 
L 600.390583 178.390251 
z
" clip-path="url(#pd5afddbff2)" style="fill: #1f77b4; opacity: 0.25"/>
   </g>
   <g id="patch_53">
    <path d="M 608.7649 420.0175 
L 616.301786 420.0175 
L 616.301786 229.800304 
L 608.7649 229.800304 
z
" clip-path="url(#pd5afddbff2)" style="fill: #1f77b4; opacity: 0.25"/>
   </g>
   <g id="patch_54">
    <path d="M 617.139217 420.0175 
L 624.676103 420.0175 
L 624.676103 157.82623 
L 617.139217 157.82623 
z
" clip-path="url(#pd5afddbff2)" style="fill: #1f77b4; opacity: 0.25"/>
   </g>
   <g id="patch_55">
    <path d="M 625.513535 420.0175 
L 633.05042 420.0175 
L 633.05042 126.980198 
L 625.513535 126.980198 
z
" clip-path="url(#pd5afddbff2)" style="fill: #1f77b4; opacity: 0.25"/>
   </g>
   <g id="patch_56">
    <path d="M 633.887852 420.0175 
L 641.424737 420.0175 
L 641.424737 265.787341 
L 633.887852 265.787341 
z
" clip-path="url(#pd5afddbff2)" style="fill: #1f77b4; opacity: 0.25"/>
   </g>
   <g id="patch_57">
    <path d="M 642.262169 420.0175 
L 649.799055 420.0175 
L 649.799055 121.839193 
L 642.262169 121.839193 
z
" clip-path="url(#pd5afddbff2)" style="fill: #1f77b4; opacity: 0.25"/>
   </g>
   <g id="patch_58">
    <path d="M 650.636486 420.0175 
L 658.173372 420.0175 
L 658.173372 80.711151 
L 650.636486 80.711151 
z
" clip-path="url(#pd5afddbff2)" style="fill: #1f77b4; opacity: 0.25"/>
   </g>
   <g id="patch_59">
    <path d="M 659.010804 420.0175 
L 666.547689 420.0175 
L 666.547689 137.262209 
L 659.010804 137.262209 
z
" clip-path="url(#pd5afddbff2)" style="fill: #1f77b4; opacity: 0.25"/>
   </g>
   <g id="patch_60">
    <path d="M 667.385121 420.0175 
L 674.922006 420.0175 
L 674.922006 121.839193 
L 667.385121 121.839193 
z
" clip-path="url(#pd5afddbff2)" style="fill: #1f77b4; opacity: 0.25"/>
   </g>
   <g id="patch_61">
    <path d="M 675.759438 420.0175 
L 683.296324 420.0175 
L 683.296324 111.557183 
L 675.759438 111.557183 
z
" clip-path="url(#pd5afddbff2)" style="fill: #1f77b4; opacity: 0.25"/>
   </g>
   <g id="patch_62">
    <path d="M 684.133755 420.0175 
L 691.670641 420.0175 
L 691.670641 188.672262 
L 684.133755 188.672262 
z
" clip-path="url(#pd5afddbff2)" style="fill: #1f77b4; opacity: 0.25"/>
   </g>
   <g id="patch_63">
    <path d="M 692.508073 420.0175 
L 700.044958 420.0175 
L 700.044958 49.865119 
L 692.508073 49.865119 
z
" clip-path="url(#pd5afddbff2)" style="fill: #1f77b4; opacity: 0.25"/>
   </g>
   <g id="patch_64">
    <path d="M 700.88239 420.0175 
L 708.419276 420.0175 
L 708.419276 101.275172 
L 700.88239 101.275172 
z
" clip-path="url(#pd5afddbff2)" style="fill: #1f77b4; opacity: 0.25"/>
   </g>
   <g id="patch_65">
    <path d="M 49.821094 420.0175 
L 49.821094 31.3575 
" style="fill: none; stroke: #cccccc; stroke-linejoin: miter; stroke-linecap: square"/>
   </g>
   <g id="patch_66">
    <path d="M 739.781094 420.0175 
L 739.781094 31.3575 
" style="fill: none; stroke: #cccccc; stroke-linejoin: miter; stroke-linecap: square"/>
   </g>
   <g id="patch_67">
    <path d="M 49.821094 420.0175 
L 739.781094 420.0175 
" style="fill: none; stroke: #cccccc; stroke-linejoin: miter; stroke-linecap: square"/>
   </g>
   <g id="patch_68">
    <path d="M 49.821094 31.3575 
L 739.781094 31.3575 
" style="fill: none; stroke: #cccccc; stroke-linejoin: miter; stroke-linecap: square"/>
   </g>
  </g>
 </g>
 <defs>
  <clipPath id="pd5afddbff2">
   <rect x="49.821094" y="31.3575" width="689.96" height="388.66"/>
  </clipPath>
 </defs>
</svg>
