<svg xmlns="http://www.w3.org/2000/svg" xmlns:rdkit="http://www.rdkit.org/xml" xmlns:xlink="http://www.w3.org/1999/xlink" version="1.1" baseProfile="full" xml:space="preserve" width="600px" height="400px" viewBox="0 0 600 400">
<!-- END OF HEADER -->
<rect style="opacity:1.0;fill:#FFFFFF;stroke:none" width="600.0" height="400.0" x="0.0" y="0.0"> </rect>
<path class="bond-0 atom-0 atom-1" d="M 105.3,92.5 L 105.5,103.9" style="fill:none;fill-rule:evenodd;stroke:#000000;stroke-width:2.0px;stroke-linecap:butt;stroke-linejoin:miter;stroke-opacity:1"/>
<path class="bond-1 atom-1 atom-2" d="M 105.5,103.9 L 89.7,113.3" style="fill:none;fill-rule:evenodd;stroke:#000000;stroke-width:2.0px;stroke-linecap:butt;stroke-linejoin:miter;stroke-opacity:1"/>
<path class="bond-2 atom-2 atom-3" d="M 89.7,113.3 L 79.4,107.5" style="fill:none;fill-rule:evenodd;stroke:#000000;stroke-width:2.0px;stroke-linecap:butt;stroke-linejoin:miter;stroke-opacity:1"/>
<path class="bond-3 atom-3 atom-4" d="M 68.0,107.7 L 58.0,113.7" style="fill:none;fill-rule:evenodd;stroke:#000000;stroke-width:2.0px;stroke-linecap:butt;stroke-linejoin:miter;stroke-opacity:1"/>
<path class="bond-4 atom-4 atom-5" d="M 58.0,113.7 L 42.0,104.7" style="fill:none;fill-rule:evenodd;stroke:#000000;stroke-width:2.0px;stroke-linecap:butt;stroke-linejoin:miter;stroke-opacity:1"/>
<path class="bond-5 atom-5 atom-6" d="M 42.0,104.7 L 41.7,86.4" style="fill:none;fill-rule:evenodd;stroke:#000000;stroke-width:2.0px;stroke-linecap:butt;stroke-linejoin:miter;stroke-opacity:1"/>
<path class="bond-5 atom-5 atom-6" d="M 39.2,103.1 L 39.0,88.0" style="fill:none;fill-rule:evenodd;stroke:#000000;stroke-width:2.0px;stroke-linecap:butt;stroke-linejoin:miter;stroke-opacity:1"/>
<path class="bond-6 atom-6 atom-7" d="M 41.7,86.4 L 25.8,77.4" style="fill:none;fill-rule:evenodd;stroke:#000000;stroke-width:2.0px;stroke-linecap:butt;stroke-linejoin:miter;stroke-opacity:1"/>
<path class="bond-7 atom-7 atom-8" d="M 25.8,77.4 L 10.0,86.7" style="fill:none;fill-rule:evenodd;stroke:#000000;stroke-width:2.0px;stroke-linecap:butt;stroke-linejoin:miter;stroke-opacity:1"/>
<path class="bond-7 atom-7 atom-8" d="M 25.8,80.6 L 12.8,88.3" style="fill:none;fill-rule:evenodd;stroke:#000000;stroke-width:2.0px;stroke-linecap:butt;stroke-linejoin:miter;stroke-opacity:1"/>
<path class="bond-8 atom-8 atom-9" d="M 10.0,86.7 L 10.2,105.1" style="fill:none;fill-rule:evenodd;stroke:#000000;stroke-width:2.0px;stroke-linecap:butt;stroke-linejoin:miter;stroke-opacity:1"/>
<path class="bond-9 atom-9 atom-10" d="M 10.2,105.1 L 26.2,114.0" style="fill:none;fill-rule:evenodd;stroke:#000000;stroke-width:2.0px;stroke-linecap:butt;stroke-linejoin:miter;stroke-opacity:1"/>
<path class="bond-9 atom-9 atom-10" d="M 13.0,103.5 L 26.2,110.9" style="fill:none;fill-rule:evenodd;stroke:#000000;stroke-width:2.0px;stroke-linecap:butt;stroke-linejoin:miter;stroke-opacity:1"/>
<path class="bond-10 atom-1 atom-11" d="M 105.5,103.9 L 121.5,112.9" style="fill:none;fill-rule:evenodd;stroke:#000000;stroke-width:2.0px;stroke-linecap:butt;stroke-linejoin:miter;stroke-opacity:1"/>
<path class="bond-11 atom-11 atom-12" d="M 121.5,112.9 L 131.5,106.9" style="fill:none;fill-rule:evenodd;stroke:#000000;stroke-width:2.0px;stroke-linecap:butt;stroke-linejoin:miter;stroke-opacity:1"/>
<path class="bond-12 atom-12 atom-13" d="M 142.9,106.0 L 154.0,110.8" style="fill:none;fill-rule:evenodd;stroke:#000000;stroke-width:2.0px;stroke-linecap:butt;stroke-linejoin:miter;stroke-opacity:1"/>
<path class="bond-13 atom-13 atom-14" d="M 154.0,110.8 L 159.9,128.1" style="fill:none;fill-rule:evenodd;stroke:#000000;stroke-width:2.0px;stroke-linecap:butt;stroke-linejoin:miter;stroke-opacity:1"/>
<path class="bond-13 atom-13 atom-14" d="M 157.2,111.4 L 162.0,125.8" style="fill:none;fill-rule:evenodd;stroke:#000000;stroke-width:2.0px;stroke-linecap:butt;stroke-linejoin:miter;stroke-opacity:1"/>
<path class="bond-14 atom-14 atom-15" d="M 159.9,128.1 L 177.9,131.7" style="fill:none;fill-rule:evenodd;stroke:#000000;stroke-width:2.0px;stroke-linecap:butt;stroke-linejoin:miter;stroke-opacity:1"/>
<path class="bond-15 atom-15 atom-16" d="M 177.9,131.7 L 190.0,118.0" style="fill:none;fill-rule:evenodd;stroke:#000000;stroke-width:2.0px;stroke-linecap:butt;stroke-linejoin:miter;stroke-opacity:1"/>
<path class="bond-15 atom-15 atom-16" d="M 176.9,128.7 L 186.9,117.3" style="fill:none;fill-rule:evenodd;stroke:#000000;stroke-width:2.0px;stroke-linecap:butt;stroke-linejoin:miter;stroke-opacity:1"/>
<path class="bond-16 atom-16 atom-17" d="M 190.0,118.0 L 184.1,100.6" style="fill:none;fill-rule:evenodd;stroke:#000000;stroke-width:2.0px;stroke-linecap:butt;stroke-linejoin:miter;stroke-opacity:1"/>
<path class="bond-17 atom-17 atom-18" d="M 184.1,100.6 L 166.1,97.0" style="fill:none;fill-rule:evenodd;stroke:#000000;stroke-width:2.0px;stroke-linecap:butt;stroke-linejoin:miter;stroke-opacity:1"/>
<path class="bond-17 atom-17 atom-18" d="M 182.0,103.0 L 167.2,100.0" style="fill:none;fill-rule:evenodd;stroke:#000000;stroke-width:2.0px;stroke-linecap:butt;stroke-linejoin:miter;stroke-opacity:1"/>
<path class="bond-18 atom-18 atom-19" d="M 166.1,97.0 L 156.8,81.2" style="fill:none;fill-rule:evenodd;stroke:#000000;stroke-width:2.0px;stroke-linecap:butt;stroke-linejoin:miter;stroke-opacity:1"/>
<path class="bond-19 atom-19 atom-20" d="M 156.8,81.2 L 162.2,63.7" style="fill:none;fill-rule:evenodd;stroke:#000000;stroke-width:2.0px;stroke-linecap:butt;stroke-linejoin:miter;stroke-opacity:1"/>
<path class="bond-19 atom-19 atom-20" d="M 154.6,78.9 L 159.1,64.4" style="fill:none;fill-rule:evenodd;stroke:#000000;stroke-width:2.0px;stroke-linecap:butt;stroke-linejoin:miter;stroke-opacity:1"/>
<path class="bond-20 atom-20 atom-21" d="M 162.2,63.7 L 149.8,50.3" style="fill:none;fill-rule:evenodd;stroke:#000000;stroke-width:2.0px;stroke-linecap:butt;stroke-linejoin:miter;stroke-opacity:1"/>
<path class="bond-21 atom-21 atom-22" d="M 149.8,50.3 L 131.9,54.3" style="fill:none;fill-rule:evenodd;stroke:#000000;stroke-width:2.0px;stroke-linecap:butt;stroke-linejoin:miter;stroke-opacity:1"/>
<path class="bond-21 atom-21 atom-22" d="M 148.9,53.3 L 134.1,56.6" style="fill:none;fill-rule:evenodd;stroke:#000000;stroke-width:2.0px;stroke-linecap:butt;stroke-linejoin:miter;stroke-opacity:1"/>
<path class="bond-22 atom-22 atom-23" d="M 131.9,54.3 L 126.5,71.8" style="fill:none;fill-rule:evenodd;stroke:#000000;stroke-width:2.0px;stroke-linecap:butt;stroke-linejoin:miter;stroke-opacity:1"/>
<path class="bond-23 atom-23 atom-24" d="M 126.5,71.8 L 138.9,85.3" style="fill:none;fill-rule:evenodd;stroke:#000000;stroke-width:2.0px;stroke-linecap:butt;stroke-linejoin:miter;stroke-opacity:1"/>
<path class="bond-23 atom-23 atom-24" d="M 129.6,71.1 L 139.9,82.2" style="fill:none;fill-rule:evenodd;stroke:#000000;stroke-width:2.0px;stroke-linecap:butt;stroke-linejoin:miter;stroke-opacity:1"/>
<path class="bond-24 atom-10 atom-5" d="M 26.2,114.0 L 42.0,104.7" style="fill:none;fill-rule:evenodd;stroke:#000000;stroke-width:2.0px;stroke-linecap:butt;stroke-linejoin:miter;stroke-opacity:1"/>
<path class="bond-25 atom-24 atom-12" d="M 138.9,85.3 L 137.8,96.8" style="fill:none;fill-rule:evenodd;stroke:#000000;stroke-width:2.0px;stroke-linecap:butt;stroke-linejoin:miter;stroke-opacity:1"/>
<path class="bond-26 atom-18 atom-13" d="M 166.1,97.0 L 154.0,110.8" style="fill:none;fill-rule:evenodd;stroke:#000000;stroke-width:2.0px;stroke-linecap:butt;stroke-linejoin:miter;stroke-opacity:1"/>
<path class="bond-27 atom-24 atom-19" d="M 138.9,85.3 L 156.8,81.2" style="fill:none;fill-rule:evenodd;stroke:#000000;stroke-width:2.0px;stroke-linecap:butt;stroke-linejoin:miter;stroke-opacity:1"/>
<path d="M 90.5,112.8 L 89.7,113.3 L 89.2,113.0" style="fill:none;stroke:#000000;stroke-width:2.0px;stroke-linecap:butt;stroke-linejoin:miter;stroke-opacity:1;"/>
<path d="M 58.5,113.4 L 58.0,113.7 L 57.2,113.2" style="fill:none;stroke:#000000;stroke-width:2.0px;stroke-linecap:butt;stroke-linejoin:miter;stroke-opacity:1;"/>
<path d="M 41.8,87.3 L 41.7,86.4 L 40.9,85.9" style="fill:none;stroke:#000000;stroke-width:2.0px;stroke-linecap:butt;stroke-linejoin:miter;stroke-opacity:1;"/>
<path d="M 26.6,77.8 L 25.8,77.4 L 25.0,77.9" style="fill:none;stroke:#000000;stroke-width:2.0px;stroke-linecap:butt;stroke-linejoin:miter;stroke-opacity:1;"/>
<path d="M 10.8,86.3 L 10.0,86.7 L 10.0,87.7" style="fill:none;stroke:#000000;stroke-width:2.0px;stroke-linecap:butt;stroke-linejoin:miter;stroke-opacity:1;"/>
<path d="M 10.2,104.2 L 10.2,105.1 L 11.0,105.5" style="fill:none;stroke:#000000;stroke-width:2.0px;stroke-linecap:butt;stroke-linejoin:miter;stroke-opacity:1;"/>
<path d="M 25.4,113.6 L 26.2,114.0 L 27.0,113.6" style="fill:none;stroke:#000000;stroke-width:2.0px;stroke-linecap:butt;stroke-linejoin:miter;stroke-opacity:1;"/>
<path d="M 120.7,112.4 L 121.5,112.9 L 122.0,112.6" style="fill:none;stroke:#000000;stroke-width:2.0px;stroke-linecap:butt;stroke-linejoin:miter;stroke-opacity:1;"/>
<path d="M 159.6,127.3 L 159.9,128.1 L 160.8,128.3" style="fill:none;stroke:#000000;stroke-width:2.0px;stroke-linecap:butt;stroke-linejoin:miter;stroke-opacity:1;"/>
<path d="M 177.0,131.6 L 177.9,131.7 L 178.5,131.0" style="fill:none;stroke:#000000;stroke-width:2.0px;stroke-linecap:butt;stroke-linejoin:miter;stroke-opacity:1;"/>
<path d="M 189.4,118.6 L 190.0,118.0 L 189.7,117.1" style="fill:none;stroke:#000000;stroke-width:2.0px;stroke-linecap:butt;stroke-linejoin:miter;stroke-opacity:1;"/>
<path d="M 184.4,101.5 L 184.1,100.6 L 183.2,100.4" style="fill:none;stroke:#000000;stroke-width:2.0px;stroke-linecap:butt;stroke-linejoin:miter;stroke-opacity:1;"/>
<path d="M 162.0,64.6 L 162.2,63.7 L 161.6,63.1" style="fill:none;stroke:#000000;stroke-width:2.0px;stroke-linecap:butt;stroke-linejoin:miter;stroke-opacity:1;"/>
<path d="M 150.4,50.9 L 149.8,50.3 L 148.9,50.5" style="fill:none;stroke:#000000;stroke-width:2.0px;stroke-linecap:butt;stroke-linejoin:miter;stroke-opacity:1;"/>
<path d="M 132.8,54.1 L 131.9,54.3 L 131.7,55.2" style="fill:none;stroke:#000000;stroke-width:2.0px;stroke-linecap:butt;stroke-linejoin:miter;stroke-opacity:1;"/>
<path d="M 126.7,70.9 L 126.5,71.8 L 127.1,72.5" style="fill:none;stroke:#000000;stroke-width:2.0px;stroke-linecap:butt;stroke-linejoin:miter;stroke-opacity:1;"/>
<path class="atom-0" d="M 101.3 85.6 Q 101.3 83.5, 102.3 82.4 Q 103.3 81.2, 105.2 81.2 Q 107.2 81.2, 108.2 82.4 Q 109.2 83.5, 109.2 85.6 Q 109.2 87.7, 108.2 88.9 Q 107.1 90.1, 105.2 90.1 Q 103.3 90.1, 102.3 88.9 Q 101.3 87.7, 101.3 85.6 M 105.2 89.1 Q 106.6 89.1, 107.3 88.2 Q 108.0 87.3, 108.0 85.6 Q 108.0 83.9, 107.3 83.1 Q 106.6 82.2, 105.2 82.2 Q 103.9 82.2, 103.2 83.0 Q 102.5 83.9, 102.5 85.6 Q 102.5 87.4, 103.2 88.2 Q 103.9 89.1, 105.2 89.1 " fill="#000000"/>
<path class="atom-0" d="M 110.6 81.3 L 111.7 81.3 L 111.7 85.0 L 116.2 85.0 L 116.2 81.3 L 117.3 81.3 L 117.3 90.0 L 116.2 90.0 L 116.2 86.0 L 111.7 86.0 L 111.7 90.0 L 110.6 90.0 L 110.6 81.3 " fill="#000000"/>
<path class="atom-3" d="M 71.8 100.0 L 74.6 104.6 Q 74.9 105.0, 75.4 105.8 Q 75.8 106.6, 75.9 106.7 L 75.9 100.0 L 77.0 100.0 L 77.0 108.6 L 75.8 108.6 L 72.8 103.6 Q 72.4 103.0, 72.0 102.4 Q 71.7 101.7, 71.6 101.5 L 71.6 108.6 L 70.4 108.6 L 70.4 100.0 L 71.8 100.0 " fill="#000000"/>
<path class="atom-3" d="M 70.3 90.5 L 71.5 90.5 L 71.5 94.1 L 75.9 94.1 L 75.9 90.5 L 77.1 90.5 L 77.1 99.1 L 75.9 99.1 L 75.9 95.1 L 71.5 95.1 L 71.5 99.1 L 70.3 99.1 L 70.3 90.5 " fill="#000000"/>
<path class="atom-12" d="M 135.3 99.2 L 138.1 103.8 Q 138.4 104.2, 138.9 105.1 Q 139.3 105.9, 139.3 105.9 L 139.3 99.2 L 140.5 99.2 L 140.5 107.9 L 139.3 107.9 L 136.3 102.8 Q 135.9 102.3, 135.5 101.6 Q 135.2 100.9, 135.1 100.7 L 135.1 107.9 L 133.9 107.9 L 133.9 99.2 L 135.3 99.2 " fill="#000000"/>
<path class="legend" d="M 28.5 179.8 L 25.0 179.8 L 25.0 178.5 L 33.3 178.5 L 33.3 179.8 L 30.0 179.8 L 30.0 189.8 L 28.5 189.8 L 28.5 179.8 " fill="#000000"/>
<path class="legend" d="M 33.8 187.6 Q 33.8 186.3, 34.8 185.6 Q 35.9 184.8, 37.8 184.8 L 39.1 184.8 L 39.1 184.5 Q 39.1 183.5, 38.6 183.1 Q 38.2 182.6, 37.2 182.6 Q 36.5 182.6, 36.0 182.8 Q 35.5 182.9, 34.7 183.2 L 34.3 182.2 Q 35.8 181.4, 37.2 181.4 Q 39.0 181.4, 39.8 182.2 Q 40.6 182.9, 40.6 184.5 L 40.6 189.8 L 39.4 189.8 Q 39.4 189.7, 39.3 189.5 Q 39.3 189.2, 39.2 188.8 Q 38.0 190.0, 36.5 190.0 Q 35.3 190.0, 34.5 189.3 Q 33.8 188.7, 33.8 187.6 M 35.3 187.6 Q 35.3 188.2, 35.7 188.5 Q 36.1 188.8, 36.8 188.8 Q 37.4 188.8, 38.0 188.5 Q 38.6 188.2, 39.1 187.7 L 39.1 186.0 L 37.9 186.0 Q 36.6 186.0, 35.9 186.4 Q 35.3 186.8, 35.3 187.6 " fill="#000000"/>
<path class="legend" d="M 46.6 181.4 Q 47.9 181.4, 48.6 182.2 Q 49.3 182.9, 49.3 184.4 L 49.3 189.8 L 47.8 189.8 L 47.8 184.5 Q 47.8 183.5, 47.4 183.1 Q 47.0 182.6, 46.2 182.6 Q 45.4 182.6, 44.8 183.0 Q 44.2 183.3, 43.8 183.9 L 43.8 189.8 L 42.3 189.8 L 42.3 181.6 L 43.5 181.6 L 43.7 182.7 Q 44.8 181.4, 46.6 181.4 " fill="#000000"/>
<path class="legend" d="M 51.0 178.5 L 52.4 178.5 L 52.4 179.9 L 51.0 179.9 L 51.0 178.5 M 51.0 181.6 L 52.4 181.6 L 52.4 189.8 L 51.0 189.8 L 51.0 181.6 " fill="#000000"/>
<path class="legend" d="M 54.3 187.9 L 55.9 187.9 L 55.9 189.5 L 54.3 189.5 L 54.3 187.9 M 54.3 182.4 L 55.9 182.4 L 55.9 184.0 L 54.3 184.0 L 54.3 182.4 " fill="#000000"/>
<path class="legend" d="" fill="#000000"/>
<path class="legend" d="M 64.0 188.5 L 66.5 188.5 L 66.5 180.1 L 63.8 180.9 L 63.4 180.0 L 66.9 178.4 L 68.0 178.6 L 68.0 188.5 L 70.2 188.5 L 70.2 189.8 L 64.0 189.8 L 64.0 188.5 " fill="#000000"/>
<path class="legend" d="M 71.4 188.2 L 73.0 188.2 L 73.0 189.8 L 71.4 189.8 L 71.4 188.2 " fill="#000000"/>
<path class="legend" d="M 78.7 189.9 Q 76.6 189.9, 75.5 188.4 Q 74.5 186.9, 74.5 184.1 Q 74.5 181.4, 75.5 179.9 Q 76.6 178.4, 78.7 178.4 Q 80.8 178.4, 81.8 179.9 Q 82.8 181.4, 82.8 184.1 Q 82.8 186.9, 81.8 188.4 Q 80.7 189.9, 78.7 189.9 M 78.7 188.7 Q 79.9 188.7, 80.5 187.5 Q 81.2 186.4, 81.2 184.1 Q 81.2 181.9, 80.5 180.8 Q 79.9 179.6, 78.7 179.6 Q 77.4 179.6, 76.8 180.8 Q 76.1 181.9, 76.1 184.1 Q 76.1 186.4, 76.8 187.5 Q 77.4 188.7, 78.7 188.7 " fill="#000000"/>
<path class="legend" d="M 88.5 189.9 Q 86.4 189.9, 85.3 188.4 Q 84.3 186.9, 84.3 184.1 Q 84.3 181.4, 85.3 179.9 Q 86.4 178.4, 88.5 178.4 Q 90.6 178.4, 91.6 179.9 Q 92.6 181.4, 92.6 184.1 Q 92.6 186.9, 91.6 188.4 Q 90.5 189.9, 88.5 189.9 M 88.5 188.7 Q 89.7 188.7, 90.4 187.5 Q 91.0 186.4, 91.0 184.1 Q 91.0 181.9, 90.4 180.8 Q 89.7 179.6, 88.5 179.6 Q 87.2 179.6, 86.6 180.8 Q 85.9 181.9, 85.9 184.1 Q 85.9 186.4, 86.6 187.5 Q 87.2 188.7, 88.5 188.7 " fill="#000000"/>
<path class="legend" d="" fill="#000000"/>
<path class="legend" d="M 111.0 178.5 Q 113.5 178.5, 114.8 180.0 Q 116.2 181.4, 116.2 184.1 Q 116.2 186.8, 114.8 188.3 Q 113.5 189.8, 111.0 189.8 L 107.3 189.8 L 107.3 178.5 L 111.0 178.5 M 111.0 188.5 Q 112.7 188.5, 113.6 187.4 Q 114.6 186.3, 114.6 184.1 Q 114.6 181.9, 113.6 180.8 Q 112.7 179.8, 111.0 179.8 L 108.9 179.8 L 108.9 188.5 L 111.0 188.5 " fill="#000000"/>
<path class="legend" d="M 117.4 178.5 L 118.9 178.5 L 118.9 179.9 L 117.4 179.9 L 117.4 178.5 M 117.4 181.6 L 118.9 181.6 L 118.9 189.8 L 117.4 189.8 L 117.4 181.6 " fill="#000000"/>
<path class="legend" d="M 120.7 185.7 Q 120.7 183.7, 121.7 182.6 Q 122.7 181.4, 124.7 181.4 Q 126.5 181.4, 127.5 182.8 L 126.5 183.6 Q 126.1 183.1, 125.7 182.9 Q 125.2 182.6, 124.7 182.6 Q 123.5 182.6, 122.9 183.4 Q 122.3 184.2, 122.3 185.7 Q 122.3 187.2, 122.9 188.0 Q 123.6 188.8, 124.8 188.8 Q 125.4 188.8, 125.9 188.6 Q 126.4 188.4, 126.9 188.2 L 127.3 189.2 Q 126.2 189.9, 124.6 189.9 Q 122.7 189.9, 121.7 188.8 Q 120.7 187.7, 120.7 185.7 " fill="#000000"/>
<path class="legend" d="M 128.4 185.7 Q 128.4 183.7, 129.4 182.6 Q 130.4 181.4, 132.2 181.4 Q 134.0 181.4, 134.8 182.5 Q 135.7 183.6, 135.7 185.6 L 135.7 185.9 L 129.9 185.9 Q 129.9 187.3, 130.6 188.0 Q 131.2 188.8, 132.4 188.8 Q 133.0 188.8, 133.6 188.6 Q 134.2 188.4, 134.9 188.1 L 135.3 189.2 Q 134.5 189.6, 133.8 189.8 Q 133.0 189.9, 132.3 189.9 Q 130.4 189.9, 129.4 188.8 Q 128.4 187.7, 128.4 185.7 M 132.2 182.6 Q 131.3 182.6, 130.7 183.2 Q 130.1 183.7, 130.0 184.8 L 134.1 184.8 Q 134.0 183.7, 133.5 183.2 Q 133.1 182.6, 132.2 182.6 " fill="#000000"/>
<path class="legend" d="M 136.7 187.9 L 138.3 187.9 L 138.3 189.5 L 136.7 189.5 L 136.7 187.9 M 136.7 182.4 L 138.3 182.4 L 138.3 184.0 L 136.7 184.0 L 136.7 182.4 " fill="#000000"/>
<path class="legend" d="" fill="#000000"/>
<path class="legend" d="M 146.5 188.5 L 148.9 188.5 L 148.9 180.1 L 146.2 180.9 L 145.8 180.0 L 149.3 178.4 L 150.4 178.6 L 150.4 188.5 L 152.7 188.5 L 152.7 189.8 L 146.5 189.8 L 146.5 188.5 " fill="#000000"/>
<path class="legend" d="M 153.8 188.2 L 155.4 188.2 L 155.4 189.8 L 153.8 189.8 L 153.8 188.2 " fill="#000000"/>
<path class="legend" d="M 161.1 189.9 Q 159.0 189.9, 158.0 188.4 Q 156.9 186.9, 156.9 184.1 Q 156.9 181.4, 158.0 179.9 Q 159.0 178.4, 161.1 178.4 Q 163.2 178.4, 164.2 179.9 Q 165.2 181.4, 165.2 184.1 Q 165.2 186.9, 164.2 188.4 Q 163.2 189.9, 161.1 189.9 M 161.1 188.7 Q 162.3 188.7, 163.0 187.5 Q 163.6 186.4, 163.6 184.1 Q 163.6 181.9, 163.0 180.8 Q 162.3 179.6, 161.1 179.6 Q 159.9 179.6, 159.2 180.8 Q 158.5 181.9, 158.5 184.1 Q 158.5 186.4, 159.2 187.5 Q 159.9 188.7, 161.1 188.7 " fill="#000000"/>
<path class="legend" d="M 170.9 189.9 Q 168.8 189.9, 167.8 188.4 Q 166.8 186.9, 166.8 184.1 Q 166.8 181.4, 167.8 179.9 Q 168.8 178.4, 170.9 178.4 Q 173.0 178.4, 174.0 179.9 Q 175.0 181.4, 175.0 184.1 Q 175.0 186.9, 174.0 188.4 Q 173.0 189.9, 170.9 189.9 M 170.9 188.7 Q 172.1 188.7, 172.8 187.5 Q 173.4 186.4, 173.4 184.1 Q 173.4 181.9, 172.8 180.8 Q 172.1 179.6, 170.9 179.6 Q 169.7 179.6, 169.0 180.8 Q 168.4 181.9, 168.4 184.1 Q 168.4 186.4, 169.0 187.5 Q 169.7 188.7, 170.9 188.7 " fill="#000000"/>
<path class="bond-0 atom-0 atom-1" d="M 305.9,90.3 L 305.6,101.7" style="fill:none;fill-rule:evenodd;stroke:#000000;stroke-width:2.0px;stroke-linecap:butt;stroke-linejoin:miter;stroke-opacity:1"/>
<path class="bond-1 atom-1 atom-2" d="M 305.6,101.7 L 289.5,110.4" style="fill:none;fill-rule:evenodd;stroke:#000000;stroke-width:2.0px;stroke-linecap:butt;stroke-linejoin:miter;stroke-opacity:1"/>
<path class="bond-2 atom-2 atom-3" d="M 289.5,110.4 L 279.6,104.3" style="fill:none;fill-rule:evenodd;stroke:#000000;stroke-width:2.0px;stroke-linecap:butt;stroke-linejoin:miter;stroke-opacity:1"/>
<path class="bond-3 atom-3 atom-4" d="M 268.2,103.9 L 257.8,109.6" style="fill:none;fill-rule:evenodd;stroke:#000000;stroke-width:2.0px;stroke-linecap:butt;stroke-linejoin:miter;stroke-opacity:1"/>
<path class="bond-4 atom-4 atom-5" d="M 257.8,109.6 L 242.2,100.0" style="fill:none;fill-rule:evenodd;stroke:#000000;stroke-width:2.0px;stroke-linecap:butt;stroke-linejoin:miter;stroke-opacity:1"/>
<path class="bond-5 atom-5 atom-6" d="M 242.2,100.0 L 242.6,81.7" style="fill:none;fill-rule:evenodd;stroke:#000000;stroke-width:2.0px;stroke-linecap:butt;stroke-linejoin:miter;stroke-opacity:1"/>
<path class="bond-5 atom-5 atom-6" d="M 239.5,98.3 L 239.9,83.2" style="fill:none;fill-rule:evenodd;stroke:#000000;stroke-width:2.0px;stroke-linecap:butt;stroke-linejoin:miter;stroke-opacity:1"/>
<path class="bond-6 atom-6 atom-7" d="M 242.6,81.7 L 227.0,72.1" style="fill:none;fill-rule:evenodd;stroke:#000000;stroke-width:2.0px;stroke-linecap:butt;stroke-linejoin:miter;stroke-opacity:1"/>
<path class="bond-7 atom-7 atom-8" d="M 227.0,72.1 L 210.9,80.8" style="fill:none;fill-rule:evenodd;stroke:#000000;stroke-width:2.0px;stroke-linecap:butt;stroke-linejoin:miter;stroke-opacity:1"/>
<path class="bond-7 atom-7 atom-8" d="M 226.9,75.3 L 213.6,82.5" style="fill:none;fill-rule:evenodd;stroke:#000000;stroke-width:2.0px;stroke-linecap:butt;stroke-linejoin:miter;stroke-opacity:1"/>
<path class="bond-8 atom-8 atom-9" d="M 210.9,80.8 L 210.4,99.2" style="fill:none;fill-rule:evenodd;stroke:#000000;stroke-width:2.0px;stroke-linecap:butt;stroke-linejoin:miter;stroke-opacity:1"/>
<path class="bond-9 atom-9 atom-10" d="M 210.4,99.2 L 226.1,108.7" style="fill:none;fill-rule:evenodd;stroke:#000000;stroke-width:2.0px;stroke-linecap:butt;stroke-linejoin:miter;stroke-opacity:1"/>
<path class="bond-9 atom-9 atom-10" d="M 213.2,97.6 L 226.1,105.6" style="fill:none;fill-rule:evenodd;stroke:#000000;stroke-width:2.0px;stroke-linecap:butt;stroke-linejoin:miter;stroke-opacity:1"/>
<path class="bond-10 atom-10 atom-11" d="M 226.1,108.7 L 225.7,120.5" style="fill:none;fill-rule:evenodd;stroke:#000000;stroke-width:2.0px;stroke-linecap:butt;stroke-linejoin:miter;stroke-opacity:1"/>
<path class="bond-11 atom-1 atom-12" d="M 305.6,101.7 L 321.3,111.2" style="fill:none;fill-rule:evenodd;stroke:#000000;stroke-width:2.0px;stroke-linecap:butt;stroke-linejoin:miter;stroke-opacity:1"/>
<path class="bond-12 atom-12 atom-13" d="M 321.3,111.2 L 331.7,105.6" style="fill:none;fill-rule:evenodd;stroke:#000000;stroke-width:2.0px;stroke-linecap:butt;stroke-linejoin:miter;stroke-opacity:1"/>
<path class="bond-13 atom-13 atom-14" d="M 343.1,105.2 L 353.9,110.4" style="fill:none;fill-rule:evenodd;stroke:#000000;stroke-width:2.0px;stroke-linecap:butt;stroke-linejoin:miter;stroke-opacity:1"/>
<path class="bond-14 atom-14 atom-15" d="M 353.9,110.4 L 359.1,128.0" style="fill:none;fill-rule:evenodd;stroke:#000000;stroke-width:2.0px;stroke-linecap:butt;stroke-linejoin:miter;stroke-opacity:1"/>
<path class="bond-14 atom-14 atom-15" d="M 357.0,111.1 L 361.3,125.7" style="fill:none;fill-rule:evenodd;stroke:#000000;stroke-width:2.0px;stroke-linecap:butt;stroke-linejoin:miter;stroke-opacity:1"/>
<path class="bond-15 atom-15 atom-16" d="M 359.1,128.0 L 377.0,132.2" style="fill:none;fill-rule:evenodd;stroke:#000000;stroke-width:2.0px;stroke-linecap:butt;stroke-linejoin:miter;stroke-opacity:1"/>
<path class="bond-16 atom-16 atom-17" d="M 377.0,132.2 L 389.6,118.9" style="fill:none;fill-rule:evenodd;stroke:#000000;stroke-width:2.0px;stroke-linecap:butt;stroke-linejoin:miter;stroke-opacity:1"/>
<path class="bond-16 atom-16 atom-17" d="M 376.1,129.2 L 386.5,118.2" style="fill:none;fill-rule:evenodd;stroke:#000000;stroke-width:2.0px;stroke-linecap:butt;stroke-linejoin:miter;stroke-opacity:1"/>
<path class="bond-17 atom-17 atom-18" d="M 389.6,118.9 L 384.4,101.4" style="fill:none;fill-rule:evenodd;stroke:#000000;stroke-width:2.0px;stroke-linecap:butt;stroke-linejoin:miter;stroke-opacity:1"/>
<path class="bond-18 atom-18 atom-19" d="M 384.4,101.4 L 366.5,97.1" style="fill:none;fill-rule:evenodd;stroke:#000000;stroke-width:2.0px;stroke-linecap:butt;stroke-linejoin:miter;stroke-opacity:1"/>
<path class="bond-18 atom-18 atom-19" d="M 382.2,103.7 L 367.4,100.1" style="fill:none;fill-rule:evenodd;stroke:#000000;stroke-width:2.0px;stroke-linecap:butt;stroke-linejoin:miter;stroke-opacity:1"/>
<path class="bond-19 atom-19 atom-20" d="M 366.5,97.1 L 357.8,81.0" style="fill:none;fill-rule:evenodd;stroke:#000000;stroke-width:2.0px;stroke-linecap:butt;stroke-linejoin:miter;stroke-opacity:1"/>
<path class="bond-20 atom-20 atom-21" d="M 357.8,81.0 L 363.9,63.7" style="fill:none;fill-rule:evenodd;stroke:#000000;stroke-width:2.0px;stroke-linecap:butt;stroke-linejoin:miter;stroke-opacity:1"/>
<path class="bond-20 atom-20 atom-21" d="M 355.7,78.6 L 360.8,64.3" style="fill:none;fill-rule:evenodd;stroke:#000000;stroke-width:2.0px;stroke-linecap:butt;stroke-linejoin:miter;stroke-opacity:1"/>
<path class="bond-21 atom-21 atom-22" d="M 363.9,63.7 L 352.0,49.8" style="fill:none;fill-rule:evenodd;stroke:#000000;stroke-width:2.0px;stroke-linecap:butt;stroke-linejoin:miter;stroke-opacity:1"/>
<path class="bond-22 atom-22 atom-23" d="M 352.0,49.8 L 334.0,53.1" style="fill:none;fill-rule:evenodd;stroke:#000000;stroke-width:2.0px;stroke-linecap:butt;stroke-linejoin:miter;stroke-opacity:1"/>
<path class="bond-22 atom-22 atom-23" d="M 351.0,52.8 L 336.1,55.5" style="fill:none;fill-rule:evenodd;stroke:#000000;stroke-width:2.0px;stroke-linecap:butt;stroke-linejoin:miter;stroke-opacity:1"/>
<path class="bond-23 atom-23 atom-24" d="M 334.0,53.1 L 327.9,70.4" style="fill:none;fill-rule:evenodd;stroke:#000000;stroke-width:2.0px;stroke-linecap:butt;stroke-linejoin:miter;stroke-opacity:1"/>
<path class="bond-24 atom-24 atom-25" d="M 327.9,70.4 L 339.8,84.3" style="fill:none;fill-rule:evenodd;stroke:#000000;stroke-width:2.0px;stroke-linecap:butt;stroke-linejoin:miter;stroke-opacity:1"/>
<path class="bond-24 atom-24 atom-25" d="M 331.0,69.8 L 340.8,81.3" style="fill:none;fill-rule:evenodd;stroke:#000000;stroke-width:2.0px;stroke-linecap:butt;stroke-linejoin:miter;stroke-opacity:1"/>
<path class="bond-25 atom-10 atom-5" d="M 226.1,108.7 L 242.2,100.0" style="fill:none;fill-rule:evenodd;stroke:#000000;stroke-width:2.0px;stroke-linecap:butt;stroke-linejoin:miter;stroke-opacity:1"/>
<path class="bond-26 atom-25 atom-13" d="M 339.8,84.3 L 338.3,95.7" style="fill:none;fill-rule:evenodd;stroke:#000000;stroke-width:2.0px;stroke-linecap:butt;stroke-linejoin:miter;stroke-opacity:1"/>
<path class="bond-27 atom-19 atom-14" d="M 366.5,97.1 L 353.9,110.4" style="fill:none;fill-rule:evenodd;stroke:#000000;stroke-width:2.0px;stroke-linecap:butt;stroke-linejoin:miter;stroke-opacity:1"/>
<path class="bond-28 atom-25 atom-20" d="M 339.8,84.3 L 357.8,81.0" style="fill:none;fill-rule:evenodd;stroke:#000000;stroke-width:2.0px;stroke-linecap:butt;stroke-linejoin:miter;stroke-opacity:1"/>
<path d="M 290.3,110.0 L 289.5,110.4 L 289.0,110.1" style="fill:none;stroke:#000000;stroke-width:2.0px;stroke-linecap:butt;stroke-linejoin:miter;stroke-opacity:1;"/>
<path d="M 258.3,109.3 L 257.8,109.6 L 257.0,109.1" style="fill:none;stroke:#000000;stroke-width:2.0px;stroke-linecap:butt;stroke-linejoin:miter;stroke-opacity:1;"/>
<path d="M 242.6,82.6 L 242.6,81.7 L 241.9,81.2" style="fill:none;stroke:#000000;stroke-width:2.0px;stroke-linecap:butt;stroke-linejoin:miter;stroke-opacity:1;"/>
<path d="M 227.8,72.6 L 227.0,72.1 L 226.2,72.5" style="fill:none;stroke:#000000;stroke-width:2.0px;stroke-linecap:butt;stroke-linejoin:miter;stroke-opacity:1;"/>
<path d="M 211.7,80.4 L 210.9,80.8 L 210.9,81.7" style="fill:none;stroke:#000000;stroke-width:2.0px;stroke-linecap:butt;stroke-linejoin:miter;stroke-opacity:1;"/>
<path d="M 210.5,98.2 L 210.4,99.2 L 211.2,99.6" style="fill:none;stroke:#000000;stroke-width:2.0px;stroke-linecap:butt;stroke-linejoin:miter;stroke-opacity:1;"/>
<path d="M 320.5,110.8 L 321.3,111.2 L 321.8,111.0" style="fill:none;stroke:#000000;stroke-width:2.0px;stroke-linecap:butt;stroke-linejoin:miter;stroke-opacity:1;"/>
<path d="M 358.9,127.1 L 359.1,128.0 L 360.0,128.2" style="fill:none;stroke:#000000;stroke-width:2.0px;stroke-linecap:butt;stroke-linejoin:miter;stroke-opacity:1;"/>
<path d="M 376.1,132.0 L 377.0,132.2 L 377.6,131.6" style="fill:none;stroke:#000000;stroke-width:2.0px;stroke-linecap:butt;stroke-linejoin:miter;stroke-opacity:1;"/>
<path d="M 388.9,119.6 L 389.6,118.9 L 389.3,118.1" style="fill:none;stroke:#000000;stroke-width:2.0px;stroke-linecap:butt;stroke-linejoin:miter;stroke-opacity:1;"/>
<path d="M 384.6,102.2 L 384.4,101.4 L 383.5,101.2" style="fill:none;stroke:#000000;stroke-width:2.0px;stroke-linecap:butt;stroke-linejoin:miter;stroke-opacity:1;"/>
<path d="M 363.6,64.6 L 363.9,63.7 L 363.3,63.0" style="fill:none;stroke:#000000;stroke-width:2.0px;stroke-linecap:butt;stroke-linejoin:miter;stroke-opacity:1;"/>
<path d="M 352.6,50.5 L 352.0,49.8 L 351.1,49.9" style="fill:none;stroke:#000000;stroke-width:2.0px;stroke-linecap:butt;stroke-linejoin:miter;stroke-opacity:1;"/>
<path d="M 334.9,52.9 L 334.0,53.1 L 333.7,54.0" style="fill:none;stroke:#000000;stroke-width:2.0px;stroke-linecap:butt;stroke-linejoin:miter;stroke-opacity:1;"/>
<path d="M 328.2,69.5 L 327.9,70.4 L 328.5,71.1" style="fill:none;stroke:#000000;stroke-width:2.0px;stroke-linecap:butt;stroke-linejoin:miter;stroke-opacity:1;"/>
<path class="atom-0" d="M 302.2 83.4 Q 302.2 81.3, 303.2 80.1 Q 304.2 79.0, 306.1 79.0 Q 308.0 79.0, 309.1 80.1 Q 310.1 81.3, 310.1 83.4 Q 310.1 85.5, 309.1 86.7 Q 308.0 87.8, 306.1 87.8 Q 304.2 87.8, 303.2 86.7 Q 302.2 85.5, 302.2 83.4 M 306.1 86.9 Q 307.4 86.9, 308.2 86.0 Q 308.9 85.1, 308.9 83.4 Q 308.9 81.7, 308.2 80.8 Q 307.4 79.9, 306.1 79.9 Q 304.8 79.9, 304.1 80.8 Q 303.4 81.6, 303.4 83.4 Q 303.4 85.1, 304.1 86.0 Q 304.8 86.9, 306.1 86.9 " fill="#000000"/>
<path class="atom-0" d="M 311.4 79.1 L 312.6 79.1 L 312.6 82.7 L 317.0 82.7 L 317.0 79.1 L 318.2 79.1 L 318.2 87.7 L 317.0 87.7 L 317.0 83.7 L 312.6 83.7 L 312.6 87.7 L 311.4 87.7 L 311.4 79.1 " fill="#000000"/>
<path class="atom-3" d="M 272.0 96.5 L 274.8 101.1 Q 275.1 101.5, 275.6 102.4 Q 276.0 103.2, 276.0 103.2 L 276.0 96.5 L 277.2 96.5 L 277.2 105.2 L 276.0 105.2 L 273.0 100.1 Q 272.6 99.6, 272.2 98.9 Q 271.9 98.2, 271.7 98.0 L 271.7 105.2 L 270.6 105.2 L 270.6 96.5 L 272.0 96.5 " fill="#000000"/>
<path class="atom-3" d="M 270.5 87.0 L 271.7 87.0 L 271.7 90.7 L 276.1 90.7 L 276.1 87.0 L 277.3 87.0 L 277.3 95.6 L 276.1 95.6 L 276.1 91.6 L 271.7 91.6 L 271.7 95.6 L 270.5 95.6 L 270.5 87.0 " fill="#000000"/>
<path class="atom-11" d="M 222.2 127.4 Q 222.2 125.2, 223.2 124.1 Q 224.3 122.9, 226.2 122.9 Q 228.0 122.9, 228.9 124.2 L 228.1 124.9 Q 227.4 124.0, 226.2 124.0 Q 224.9 124.0, 224.2 124.8 Q 223.5 125.7, 223.5 127.4 Q 223.5 129.1, 224.2 130.0 Q 224.9 130.8, 226.3 130.8 Q 227.3 130.8, 228.4 130.3 L 228.7 131.2 Q 228.3 131.5, 227.6 131.6 Q 226.9 131.8, 226.1 131.8 Q 224.3 131.8, 223.2 130.7 Q 222.2 129.5, 222.2 127.4 " fill="#000000"/>
<path class="atom-11" d="M 229.8 122.4 L 230.9 122.4 L 230.9 131.7 L 229.8 131.7 L 229.8 122.4 " fill="#000000"/>
<path class="atom-13" d="M 335.5 98.2 L 338.3 102.7 Q 338.6 103.2, 339.0 104.0 Q 339.5 104.8, 339.5 104.9 L 339.5 98.2 L 340.7 98.2 L 340.7 106.8 L 339.5 106.8 L 336.4 101.8 Q 336.1 101.2, 335.7 100.5 Q 335.3 99.9, 335.2 99.7 L 335.2 106.8 L 334.1 106.8 L 334.1 98.2 L 335.5 98.2 " fill="#000000"/>
<path class="legend" d="M 227.7 179.8 L 224.2 179.8 L 224.2 178.5 L 232.5 178.5 L 232.5 179.8 L 229.2 179.8 L 229.2 189.8 L 227.7 189.8 L 227.7 179.8 " fill="#000000"/>
<path class="legend" d="M 233.0 187.6 Q 233.0 186.3, 234.1 185.6 Q 235.1 184.8, 237.1 184.8 L 238.3 184.8 L 238.3 184.5 Q 238.3 183.5, 237.9 183.1 Q 237.4 182.6, 236.4 182.6 Q 235.8 182.6, 235.3 182.8 Q 234.7 182.9, 233.9 183.2 L 233.5 182.2 Q 235.0 181.4, 236.5 181.4 Q 238.2 181.4, 239.0 182.2 Q 239.8 182.9, 239.8 184.5 L 239.8 189.8 L 238.6 189.8 Q 238.6 189.7, 238.6 189.5 Q 238.5 189.2, 238.4 188.8 Q 237.3 190.0, 235.7 190.0 Q 234.5 190.0, 233.8 189.3 Q 233.0 188.7, 233.0 187.6 M 234.5 187.6 Q 234.5 188.2, 234.9 188.5 Q 235.3 188.8, 236.0 188.8 Q 236.7 188.8, 237.3 188.5 Q 237.9 188.2, 238.3 187.7 L 238.3 186.0 L 237.2 186.0 Q 235.9 186.0, 235.2 186.4 Q 234.5 186.8, 234.5 187.6 " fill="#000000"/>
<path class="legend" d="M 245.8 181.4 Q 247.1 181.4, 247.8 182.2 Q 248.5 182.9, 248.5 184.4 L 248.5 189.8 L 247.0 189.8 L 247.0 184.5 Q 247.0 183.5, 246.6 183.1 Q 246.3 182.6, 245.4 182.6 Q 244.7 182.6, 244.0 183.0 Q 243.4 183.3, 243.0 183.9 L 243.0 189.8 L 241.5 189.8 L 241.5 181.6 L 242.8 181.6 L 242.9 182.7 Q 244.0 181.4, 245.8 181.4 " fill="#000000"/>
<path class="legend" d="M 250.2 178.5 L 251.7 178.5 L 251.7 179.9 L 250.2 179.9 L 250.2 178.5 M 250.2 181.6 L 251.7 181.6 L 251.7 189.8 L 250.2 189.8 L 250.2 181.6 " fill="#000000"/>
<path class="legend" d="M 253.6 187.9 L 255.2 187.9 L 255.2 189.5 L 253.6 189.5 L 253.6 187.9 M 253.6 182.4 L 255.2 182.4 L 255.2 184.0 L 253.6 184.0 L 253.6 182.4 " fill="#000000"/>
<path class="legend" d="" fill="#000000"/>
<path class="legend" d="M 266.8 189.9 Q 264.7 189.9, 263.7 188.4 Q 262.7 186.9, 262.7 184.1 Q 262.7 181.4, 263.7 179.9 Q 264.7 178.4, 266.8 178.4 Q 268.9 178.4, 269.9 179.9 Q 271.0 181.4, 271.0 184.1 Q 271.0 186.9, 269.9 188.4 Q 268.9 189.9, 266.8 189.9 M 266.8 188.7 Q 268.1 188.7, 268.7 187.5 Q 269.4 186.4, 269.4 184.1 Q 269.4 181.9, 268.7 180.8 Q 268.1 179.6, 266.8 179.6 Q 265.6 179.6, 264.9 180.8 Q 264.3 181.9, 264.3 184.1 Q 264.3 186.4, 264.9 187.5 Q 265.6 188.7, 266.8 188.7 " fill="#000000"/>
<path class="legend" d="M 272.5 188.2 L 274.1 188.2 L 274.1 189.8 L 272.5 189.8 L 272.5 188.2 " fill="#000000"/>
<path class="legend" d="M 280.1 182.7 Q 281.0 182.7, 281.8 183.2 Q 282.6 183.6, 283.0 184.4 Q 283.5 185.2, 283.5 186.2 Q 283.5 187.3, 283.0 188.1 Q 282.5 189.0, 281.6 189.5 Q 280.8 189.9, 279.7 189.9 Q 277.7 189.9, 276.6 188.6 Q 275.6 187.2, 275.6 184.5 Q 275.6 181.5, 276.9 179.9 Q 278.1 178.4, 280.6 178.4 Q 281.3 178.4, 281.8 178.5 Q 282.5 178.7, 283.0 179.0 L 282.4 180.1 Q 281.6 179.6, 280.6 179.6 Q 279.0 179.6, 278.2 180.7 Q 277.3 181.7, 277.2 183.8 Q 277.8 183.3, 278.5 183.0 Q 279.3 182.7, 280.1 182.7 M 279.7 188.6 Q 280.3 188.6, 280.8 188.3 Q 281.3 188.0, 281.6 187.4 Q 281.9 186.9, 281.9 186.2 Q 281.9 185.2, 281.3 184.6 Q 280.8 184.0, 279.8 184.0 Q 279.1 184.0, 278.4 184.3 Q 277.7 184.6, 277.2 185.1 Q 277.3 186.9, 277.9 187.8 Q 278.5 188.6, 279.7 188.6 " fill="#000000"/>
<path class="legend" d="M 290.8 179.8 L 284.8 179.8 L 284.8 178.5 L 292.4 178.5 L 292.4 179.6 L 287.8 189.8 L 286.3 189.8 L 290.8 179.8 " fill="#000000"/>
<path class="legend" d="" fill="#000000"/>
<path class="legend" d="M 310.2 178.5 Q 312.7 178.5, 314.0 180.0 Q 315.4 181.4, 315.4 184.1 Q 315.4 186.8, 314.0 188.3 Q 312.7 189.8, 310.2 189.8 L 306.5 189.8 L 306.5 178.5 L 310.2 178.5 M 310.2 188.5 Q 311.9 188.5, 312.8 187.4 Q 313.8 186.3, 313.8 184.1 Q 313.8 181.9, 312.8 180.8 Q 311.9 179.8, 310.2 179.8 L 308.1 179.8 L 308.1 188.5 L 310.2 188.5 " fill="#000000"/>
<path class="legend" d="M 316.6 178.5 L 318.1 178.5 L 318.1 179.9 L 316.6 179.9 L 316.6 178.5 M 316.6 181.6 L 318.1 181.6 L 318.1 189.8 L 316.6 189.8 L 316.6 181.6 " fill="#000000"/>
<path class="legend" d="M 319.9 185.7 Q 319.9 183.7, 320.9 182.6 Q 321.9 181.4, 323.9 181.4 Q 325.7 181.4, 326.7 182.8 L 325.7 183.6 Q 325.3 183.1, 324.9 182.9 Q 324.4 182.6, 323.9 182.6 Q 322.7 182.6, 322.1 183.4 Q 321.5 184.2, 321.5 185.7 Q 321.5 187.2, 322.1 188.0 Q 322.8 188.8, 324.0 188.8 Q 324.6 188.8, 325.1 188.6 Q 325.6 188.4, 326.1 188.2 L 326.6 189.2 Q 325.4 189.9, 323.9 189.9 Q 321.9 189.9, 320.9 188.8 Q 319.9 187.7, 319.9 185.7 " fill="#000000"/>
<path class="legend" d="M 327.6 185.7 Q 327.6 183.7, 328.6 182.6 Q 329.6 181.4, 331.4 181.4 Q 333.3 181.4, 334.1 182.5 Q 334.9 183.6, 334.9 185.6 L 334.9 185.9 L 329.1 185.9 Q 329.2 187.3, 329.8 188.0 Q 330.4 188.8, 331.6 188.8 Q 332.2 188.8, 332.8 188.6 Q 333.4 188.4, 334.1 188.1 L 334.6 189.2 Q 333.7 189.6, 333.0 189.8 Q 332.3 189.9, 331.5 189.9 Q 329.6 189.9, 328.6 188.8 Q 327.6 187.7, 327.6 185.7 M 331.4 182.6 Q 330.5 182.6, 329.9 183.2 Q 329.4 183.7, 329.2 184.8 L 333.3 184.8 Q 333.2 183.7, 332.7 183.2 Q 332.3 182.6, 331.4 182.6 " fill="#000000"/>
<path class="legend" d="M 336.0 187.9 L 337.6 187.9 L 337.6 189.5 L 336.0 189.5 L 336.0 187.9 M 336.0 182.4 L 337.6 182.4 L 337.6 184.0 L 336.0 184.0 L 336.0 182.4 " fill="#000000"/>
<path class="legend" d="" fill="#000000"/>
<path class="legend" d="M 349.2 189.9 Q 347.1 189.9, 346.1 188.4 Q 345.1 186.9, 345.1 184.1 Q 345.1 181.4, 346.1 179.9 Q 347.1 178.4, 349.2 178.4 Q 351.3 178.4, 352.3 179.9 Q 353.4 181.4, 353.4 184.1 Q 353.4 186.9, 352.3 188.4 Q 351.3 189.9, 349.2 189.9 M 349.2 188.7 Q 350.5 188.7, 351.1 187.5 Q 351.8 186.4, 351.8 184.1 Q 351.8 181.9, 351.1 180.8 Q 350.5 179.6, 349.2 179.6 Q 348.0 179.6, 347.3 180.8 Q 346.7 181.9, 346.7 184.1 Q 346.7 186.4, 347.3 187.5 Q 348.0 188.7, 349.2 188.7 " fill="#000000"/>
<path class="legend" d="M 354.9 188.2 L 356.5 188.2 L 356.5 189.8 L 354.9 189.8 L 354.9 188.2 " fill="#000000"/>
<path class="legend" d="M 363.8 183.8 Q 364.8 184.3, 365.4 184.9 Q 366.0 185.6, 366.0 186.7 Q 366.0 187.7, 365.5 188.4 Q 365.0 189.2, 364.1 189.6 Q 363.3 190.0, 362.1 190.0 Q 360.2 190.0, 359.1 189.1 Q 358.0 188.2, 358.0 186.7 Q 358.0 185.8, 358.5 185.1 Q 359.0 184.4, 360.0 183.9 Q 359.2 183.4, 358.8 182.8 Q 358.4 182.2, 358.4 181.2 Q 358.4 179.9, 359.4 179.1 Q 360.4 178.4, 362.0 178.4 Q 363.7 178.4, 364.6 179.1 Q 365.6 179.9, 365.6 181.2 Q 365.6 182.1, 365.1 182.7 Q 364.7 183.3, 363.8 183.8 M 362.0 179.6 Q 361.1 179.6, 360.6 180.0 Q 360.0 180.4, 360.0 181.2 Q 360.0 181.8, 360.4 182.2 Q 360.7 182.6, 361.2 182.8 Q 361.8 183.1, 362.7 183.4 Q 363.4 182.9, 363.7 182.4 Q 364.0 181.9, 364.0 181.2 Q 364.0 180.4, 363.5 180.0 Q 363.0 179.6, 362.0 179.6 M 362.1 188.8 Q 363.1 188.8, 363.8 188.2 Q 364.4 187.6, 364.4 186.7 Q 364.4 186.1, 364.1 185.7 Q 363.8 185.3, 363.2 185.1 Q 362.7 184.9, 361.8 184.6 L 361.1 184.3 Q 360.3 184.8, 360.0 185.4 Q 359.6 186.0, 359.6 186.7 Q 359.6 187.6, 360.3 188.2 Q 361.0 188.8, 362.1 188.8 " fill="#000000"/>
<path class="legend" d="M 371.7 189.9 Q 369.6 189.9, 368.5 188.4 Q 367.5 186.9, 367.5 184.1 Q 367.5 181.4, 368.5 179.9 Q 369.6 178.4, 371.7 178.4 Q 373.8 178.4, 374.8 179.9 Q 375.8 181.4, 375.8 184.1 Q 375.8 186.9, 374.8 188.4 Q 373.7 189.9, 371.7 189.9 M 371.7 188.7 Q 372.9 188.7, 373.6 187.5 Q 374.2 186.4, 374.2 184.1 Q 374.2 181.9, 373.6 180.8 Q 372.9 179.6, 371.7 179.6 Q 370.4 179.6, 369.8 180.8 Q 369.1 181.9, 369.1 184.1 Q 369.1 186.4, 369.8 187.5 Q 370.4 188.7, 371.7 188.7 " fill="#000000"/>
<path class="bond-0 atom-0 atom-1" d="M 427.4,89.0 L 442.2,99.9" style="fill:none;fill-rule:evenodd;stroke:#000000;stroke-width:2.0px;stroke-linecap:butt;stroke-linejoin:miter;stroke-opacity:1"/>
<path class="bond-1 atom-1 atom-2" d="M 442.2,99.9 L 440.0,118.1" style="fill:none;fill-rule:evenodd;stroke:#000000;stroke-width:2.0px;stroke-linecap:butt;stroke-linejoin:miter;stroke-opacity:1"/>
<path class="bond-2 atom-1 atom-3" d="M 442.2,99.9 L 453.3,95.1" style="fill:none;fill-rule:evenodd;stroke:#000000;stroke-width:2.0px;stroke-linecap:butt;stroke-linejoin:miter;stroke-opacity:1"/>
<path class="bond-3 atom-3 atom-4" d="M 464.7,96.9 L 473.7,103.6" style="fill:none;fill-rule:evenodd;stroke:#000000;stroke-width:2.0px;stroke-linecap:butt;stroke-linejoin:miter;stroke-opacity:1"/>
<path class="bond-4 atom-4 atom-5" d="M 473.7,103.6 L 490.5,96.3" style="fill:none;fill-rule:evenodd;stroke:#000000;stroke-width:2.0px;stroke-linecap:butt;stroke-linejoin:miter;stroke-opacity:1"/>
<path class="bond-5 atom-5 atom-6" d="M 490.5,96.3 L 491.8,85.1" style="fill:none;fill-rule:evenodd;stroke:#000000;stroke-width:2.0px;stroke-linecap:butt;stroke-linejoin:miter;stroke-opacity:1"/>
<path class="bond-6 atom-5 atom-7" d="M 490.5,96.3 L 505.2,107.3" style="fill:none;fill-rule:evenodd;stroke:#000000;stroke-width:2.0px;stroke-linecap:butt;stroke-linejoin:miter;stroke-opacity:1"/>
<path class="bond-7 atom-7 atom-8" d="M 505.2,107.3 L 516.3,102.5" style="fill:none;fill-rule:evenodd;stroke:#000000;stroke-width:2.0px;stroke-linecap:butt;stroke-linejoin:miter;stroke-opacity:1"/>
<path class="bond-8 atom-8 atom-9" d="M 527.8,103.4 L 537.8,109.4" style="fill:none;fill-rule:evenodd;stroke:#000000;stroke-width:2.0px;stroke-linecap:butt;stroke-linejoin:miter;stroke-opacity:1"/>
<path class="bond-9 atom-9 atom-10" d="M 537.8,109.4 L 541.4,127.3" style="fill:none;fill-rule:evenodd;stroke:#000000;stroke-width:2.0px;stroke-linecap:butt;stroke-linejoin:miter;stroke-opacity:1"/>
<path class="bond-9 atom-9 atom-10" d="M 540.8,110.4 L 543.8,125.2" style="fill:none;fill-rule:evenodd;stroke:#000000;stroke-width:2.0px;stroke-linecap:butt;stroke-linejoin:miter;stroke-opacity:1"/>
<path class="bond-10 atom-10 atom-11" d="M 541.4,127.3 L 558.8,133.2" style="fill:none;fill-rule:evenodd;stroke:#000000;stroke-width:2.0px;stroke-linecap:butt;stroke-linejoin:miter;stroke-opacity:1"/>
<path class="bond-11 atom-11 atom-12" d="M 558.8,133.2 L 572.6,121.1" style="fill:none;fill-rule:evenodd;stroke:#000000;stroke-width:2.0px;stroke-linecap:butt;stroke-linejoin:miter;stroke-opacity:1"/>
<path class="bond-11 atom-11 atom-12" d="M 558.2,130.1 L 569.5,120.1" style="fill:none;fill-rule:evenodd;stroke:#000000;stroke-width:2.0px;stroke-linecap:butt;stroke-linejoin:miter;stroke-opacity:1"/>
<path class="bond-12 atom-12 atom-13" d="M 572.6,121.1 L 569.0,103.1" style="fill:none;fill-rule:evenodd;stroke:#000000;stroke-width:2.0px;stroke-linecap:butt;stroke-linejoin:miter;stroke-opacity:1"/>
<path class="bond-13 atom-13 atom-14" d="M 569.0,103.1 L 551.6,97.2" style="fill:none;fill-rule:evenodd;stroke:#000000;stroke-width:2.0px;stroke-linecap:butt;stroke-linejoin:miter;stroke-opacity:1"/>
<path class="bond-13 atom-13 atom-14" d="M 566.6,105.2 L 552.2,100.4" style="fill:none;fill-rule:evenodd;stroke:#000000;stroke-width:2.0px;stroke-linecap:butt;stroke-linejoin:miter;stroke-opacity:1"/>
<path class="bond-14 atom-14 atom-15" d="M 551.6,97.2 L 544.3,80.4" style="fill:none;fill-rule:evenodd;stroke:#000000;stroke-width:2.0px;stroke-linecap:butt;stroke-linejoin:miter;stroke-opacity:1"/>
<path class="bond-15 atom-15 atom-16" d="M 544.3,80.4 L 552.0,63.8" style="fill:none;fill-rule:evenodd;stroke:#000000;stroke-width:2.0px;stroke-linecap:butt;stroke-linejoin:miter;stroke-opacity:1"/>
<path class="bond-15 atom-15 atom-16" d="M 542.5,77.8 L 548.8,64.1" style="fill:none;fill-rule:evenodd;stroke:#000000;stroke-width:2.0px;stroke-linecap:butt;stroke-linejoin:miter;stroke-opacity:1"/>
<path class="bond-16 atom-16 atom-17" d="M 552.0,63.8 L 541.4,48.8" style="fill:none;fill-rule:evenodd;stroke:#000000;stroke-width:2.0px;stroke-linecap:butt;stroke-linejoin:miter;stroke-opacity:1"/>
<path class="bond-17 atom-17 atom-18" d="M 541.4,48.8 L 523.1,50.5" style="fill:none;fill-rule:evenodd;stroke:#000000;stroke-width:2.0px;stroke-linecap:butt;stroke-linejoin:miter;stroke-opacity:1"/>
<path class="bond-17 atom-17 atom-18" d="M 540.0,51.7 L 525.0,53.1" style="fill:none;fill-rule:evenodd;stroke:#000000;stroke-width:2.0px;stroke-linecap:butt;stroke-linejoin:miter;stroke-opacity:1"/>
<path class="bond-18 atom-18 atom-19" d="M 523.1,50.5 L 515.5,67.2" style="fill:none;fill-rule:evenodd;stroke:#000000;stroke-width:2.0px;stroke-linecap:butt;stroke-linejoin:miter;stroke-opacity:1"/>
<path class="bond-19 atom-19 atom-20" d="M 515.5,67.2 L 526.1,82.1" style="fill:none;fill-rule:evenodd;stroke:#000000;stroke-width:2.0px;stroke-linecap:butt;stroke-linejoin:miter;stroke-opacity:1"/>
<path class="bond-19 atom-19 atom-20" d="M 518.6,66.9 L 527.4,79.2" style="fill:none;fill-rule:evenodd;stroke:#000000;stroke-width:2.0px;stroke-linecap:butt;stroke-linejoin:miter;stroke-opacity:1"/>
<path class="bond-20 atom-20 atom-8" d="M 526.1,82.1 L 523.6,93.2" style="fill:none;fill-rule:evenodd;stroke:#000000;stroke-width:2.0px;stroke-linecap:butt;stroke-linejoin:miter;stroke-opacity:1"/>
<path class="bond-21 atom-14 atom-9" d="M 551.6,97.2 L 537.8,109.4" style="fill:none;fill-rule:evenodd;stroke:#000000;stroke-width:2.0px;stroke-linecap:butt;stroke-linejoin:miter;stroke-opacity:1"/>
<path class="bond-22 atom-20 atom-15" d="M 526.1,82.1 L 544.3,80.4" style="fill:none;fill-rule:evenodd;stroke:#000000;stroke-width:2.0px;stroke-linecap:butt;stroke-linejoin:miter;stroke-opacity:1"/>
<path d="M 473.2,103.3 L 473.7,103.6 L 474.5,103.2" style="fill:none;stroke:#000000;stroke-width:2.0px;stroke-linecap:butt;stroke-linejoin:miter;stroke-opacity:1;"/>
<path d="M 504.5,106.7 L 505.2,107.3 L 505.8,107.0" style="fill:none;stroke:#000000;stroke-width:2.0px;stroke-linecap:butt;stroke-linejoin:miter;stroke-opacity:1;"/>
<path d="M 541.2,126.4 L 541.4,127.3 L 542.3,127.6" style="fill:none;stroke:#000000;stroke-width:2.0px;stroke-linecap:butt;stroke-linejoin:miter;stroke-opacity:1;"/>
<path d="M 557.9,132.9 L 558.8,133.2 L 559.5,132.6" style="fill:none;stroke:#000000;stroke-width:2.0px;stroke-linecap:butt;stroke-linejoin:miter;stroke-opacity:1;"/>
<path d="M 571.9,121.7 L 572.6,121.1 L 572.4,120.2" style="fill:none;stroke:#000000;stroke-width:2.0px;stroke-linecap:butt;stroke-linejoin:miter;stroke-opacity:1;"/>
<path d="M 569.1,104.0 L 569.0,103.1 L 568.1,102.8" style="fill:none;stroke:#000000;stroke-width:2.0px;stroke-linecap:butt;stroke-linejoin:miter;stroke-opacity:1;"/>
<path d="M 551.6,64.6 L 552.0,63.8 L 551.4,63.0" style="fill:none;stroke:#000000;stroke-width:2.0px;stroke-linecap:butt;stroke-linejoin:miter;stroke-opacity:1;"/>
<path d="M 541.9,49.6 L 541.4,48.8 L 540.5,48.9" style="fill:none;stroke:#000000;stroke-width:2.0px;stroke-linecap:butt;stroke-linejoin:miter;stroke-opacity:1;"/>
<path d="M 524.0,50.4 L 523.1,50.5 L 522.7,51.3" style="fill:none;stroke:#000000;stroke-width:2.0px;stroke-linecap:butt;stroke-linejoin:miter;stroke-opacity:1;"/>
<path d="M 515.9,66.3 L 515.5,67.2 L 516.0,67.9" style="fill:none;stroke:#000000;stroke-width:2.0px;stroke-linecap:butt;stroke-linejoin:miter;stroke-opacity:1;"/>
<path class="atom-3" d="M 457.1 88.3 L 459.9 92.9 Q 460.2 93.3, 460.6 94.2 Q 461.1 95.0, 461.1 95.0 L 461.1 88.3 L 462.3 88.3 L 462.3 97.0 L 461.1 97.0 L 458.0 92.0 Q 457.7 91.4, 457.3 90.7 Q 456.9 90.0, 456.8 89.8 L 456.8 97.0 L 455.7 97.0 L 455.7 88.3 L 457.1 88.3 " fill="#000000"/>
<path class="atom-3" d="M 455.6 78.8 L 456.8 78.8 L 456.8 82.5 L 461.2 82.5 L 461.2 78.8 L 462.4 78.8 L 462.4 87.4 L 461.2 87.4 L 461.2 83.5 L 456.8 83.5 L 456.8 87.4 L 455.6 87.4 L 455.6 78.8 " fill="#000000"/>
<path class="atom-6" d="M 488.7 78.1 Q 488.7 76.1, 489.7 74.9 Q 490.7 73.7, 492.6 73.7 Q 494.6 73.7, 495.6 74.9 Q 496.6 76.1, 496.6 78.1 Q 496.6 80.2, 495.6 81.4 Q 494.5 82.6, 492.6 82.6 Q 490.7 82.6, 489.7 81.4 Q 488.7 80.3, 488.7 78.1 M 492.6 81.6 Q 494.0 81.6, 494.7 80.8 Q 495.4 79.9, 495.4 78.1 Q 495.4 76.4, 494.7 75.6 Q 494.0 74.7, 492.6 74.7 Q 491.3 74.7, 490.6 75.6 Q 489.9 76.4, 489.9 78.1 Q 489.9 79.9, 490.6 80.8 Q 491.3 81.6, 492.6 81.6 " fill="#000000"/>
<path class="atom-6" d="M 498.0 73.8 L 499.1 73.8 L 499.1 77.5 L 503.6 77.5 L 503.6 73.8 L 504.7 73.8 L 504.7 82.5 L 503.6 82.5 L 503.6 78.5 L 499.1 78.5 L 499.1 82.5 L 498.0 82.5 L 498.0 73.8 " fill="#000000"/>
<path class="atom-8" d="M 520.1 95.7 L 523.0 100.3 Q 523.3 100.7, 523.7 101.5 Q 524.2 102.4, 524.2 102.4 L 524.2 95.7 L 525.3 95.7 L 525.3 104.3 L 524.1 104.3 L 521.1 99.3 Q 520.8 98.7, 520.4 98.1 Q 520.0 97.4, 519.9 97.2 L 519.9 104.3 L 518.8 104.3 L 518.8 95.7 L 520.1 95.7 " fill="#000000"/>
<path class="legend" d="M 427.9 179.8 L 424.4 179.8 L 424.4 178.5 L 432.7 178.5 L 432.7 179.8 L 429.4 179.8 L 429.4 189.8 L 427.9 189.8 L 427.9 179.8 " fill="#000000"/>
<path class="legend" d="M 433.2 187.6 Q 433.2 186.3, 434.3 185.6 Q 435.3 184.8, 437.2 184.8 L 438.5 184.8 L 438.5 184.5 Q 438.5 183.5, 438.0 183.1 Q 437.6 182.6, 436.6 182.6 Q 435.9 182.6, 435.4 182.8 Q 434.9 182.9, 434.1 183.2 L 433.7 182.2 Q 435.2 181.4, 436.6 181.4 Q 438.4 181.4, 439.2 182.2 Q 440.0 182.9, 440.0 184.5 L 440.0 189.8 L 438.8 189.8 Q 438.8 189.7, 438.7 189.5 Q 438.7 189.2, 438.6 188.8 Q 437.4 190.0, 435.9 190.0 Q 434.7 190.0, 433.9 189.3 Q 433.2 188.7, 433.2 187.6 M 434.7 187.6 Q 434.7 188.2, 435.1 188.5 Q 435.5 188.8, 436.2 188.8 Q 436.8 188.8, 437.4 188.5 Q 438.0 188.2, 438.5 187.7 L 438.5 186.0 L 437.3 186.0 Q 436.0 186.0, 435.4 186.4 Q 434.7 186.8, 434.7 187.6 " fill="#000000"/>
<path class="legend" d="M 446.0 181.4 Q 447.3 181.4, 448.0 182.2 Q 448.7 182.9, 448.7 184.4 L 448.7 189.8 L 447.2 189.8 L 447.2 184.5 Q 447.2 183.5, 446.8 183.1 Q 446.4 182.6, 445.6 182.6 Q 444.8 182.6, 444.2 183.0 Q 443.6 183.3, 443.2 183.9 L 443.2 189.8 L 441.7 189.8 L 441.7 181.6 L 442.9 181.6 L 443.1 182.7 Q 444.2 181.4, 446.0 181.4 " fill="#000000"/>
<path class="legend" d="M 450.4 178.5 L 451.9 178.5 L 451.9 179.9 L 450.4 179.9 L 450.4 178.5 M 450.4 181.6 L 451.9 181.6 L 451.9 189.8 L 450.4 189.8 L 450.4 181.6 " fill="#000000"/>
<path class="legend" d="M 453.7 187.9 L 455.3 187.9 L 455.3 189.5 L 453.7 189.5 L 453.7 187.9 M 453.7 182.4 L 455.3 182.4 L 455.3 184.0 L 453.7 184.0 L 453.7 182.4 " fill="#000000"/>
<path class="legend" d="" fill="#000000"/>
<path class="legend" d="M 467.0 189.9 Q 464.9 189.9, 463.9 188.4 Q 462.8 186.9, 462.8 184.1 Q 462.8 181.4, 463.9 179.9 Q 464.9 178.4, 467.0 178.4 Q 469.1 178.4, 470.1 179.9 Q 471.1 181.4, 471.1 184.1 Q 471.1 186.9, 470.1 188.4 Q 469.1 189.9, 467.0 189.9 M 467.0 188.7 Q 468.2 188.7, 468.9 187.5 Q 469.5 186.4, 469.5 184.1 Q 469.5 181.9, 468.9 180.8 Q 468.2 179.6, 467.0 179.6 Q 465.8 179.6, 465.1 180.8 Q 464.4 181.9, 464.4 184.1 Q 464.4 186.4, 465.1 187.5 Q 465.8 188.7, 467.0 188.7 " fill="#000000"/>
<path class="legend" d="M 472.7 188.2 L 474.3 188.2 L 474.3 189.8 L 472.7 189.8 L 472.7 188.2 " fill="#000000"/>
<path class="legend" d="M 480.2 182.7 Q 481.2 182.7, 482.0 183.2 Q 482.8 183.6, 483.2 184.4 Q 483.6 185.2, 483.6 186.2 Q 483.6 187.3, 483.1 188.1 Q 482.7 189.0, 481.8 189.5 Q 480.9 189.9, 479.8 189.9 Q 477.8 189.9, 476.8 188.6 Q 475.8 187.2, 475.8 184.5 Q 475.8 181.5, 477.0 179.9 Q 478.3 178.4, 480.7 178.4 Q 481.4 178.4, 482.0 178.5 Q 482.6 178.7, 483.2 179.0 L 482.6 180.1 Q 481.7 179.6, 480.7 179.6 Q 479.1 179.6, 478.3 180.7 Q 477.5 181.7, 477.4 183.8 Q 478.0 183.3, 478.7 183.0 Q 479.4 182.7, 480.2 182.7 M 479.8 188.6 Q 480.5 188.6, 480.9 188.3 Q 481.5 188.0, 481.7 187.4 Q 482.0 186.9, 482.0 186.2 Q 482.0 185.2, 481.5 184.6 Q 480.9 184.0, 479.9 184.0 Q 479.2 184.0, 478.5 184.3 Q 477.9 184.6, 477.4 185.1 Q 477.5 186.9, 478.1 187.8 Q 478.6 188.6, 479.8 188.6 " fill="#000000"/>
<path class="legend" d="M 489.1 189.9 Q 487.1 189.9, 486.0 188.4 Q 485.0 186.9, 485.0 184.1 Q 485.0 181.4, 486.0 179.9 Q 487.1 178.4, 489.1 178.4 Q 491.2 178.4, 492.3 179.9 Q 493.3 181.4, 493.3 184.1 Q 493.3 186.9, 492.3 188.4 Q 491.2 189.9, 489.1 189.9 M 489.1 188.7 Q 490.4 188.7, 491.0 187.5 Q 491.7 186.4, 491.7 184.1 Q 491.7 181.9, 491.0 180.8 Q 490.4 179.6, 489.1 179.6 Q 487.9 179.6, 487.3 180.8 Q 486.6 181.9, 486.6 184.1 Q 486.6 186.4, 487.3 187.5 Q 487.9 188.7, 489.1 188.7 " fill="#000000"/>
<path class="legend" d="" fill="#000000"/>
<path class="legend" d="M 511.7 178.5 Q 514.2 178.5, 515.5 180.0 Q 516.9 181.4, 516.9 184.1 Q 516.9 186.8, 515.5 188.3 Q 514.2 189.8, 511.7 189.8 L 508.0 189.8 L 508.0 178.5 L 511.7 178.5 M 511.7 188.5 Q 513.4 188.5, 514.3 187.4 Q 515.3 186.3, 515.3 184.1 Q 515.3 181.9, 514.3 180.8 Q 513.4 179.8, 511.7 179.8 L 509.6 179.8 L 509.6 188.5 L 511.7 188.5 " fill="#000000"/>
<path class="legend" d="M 518.1 178.5 L 519.6 178.5 L 519.6 179.9 L 518.1 179.9 L 518.1 178.5 M 518.1 181.6 L 519.6 181.6 L 519.6 189.8 L 518.1 189.8 L 518.1 181.6 " fill="#000000"/>
<path class="legend" d="M 521.4 185.7 Q 521.4 183.7, 522.4 182.6 Q 523.4 181.4, 525.4 181.4 Q 527.2 181.4, 528.2 182.8 L 527.2 183.6 Q 526.8 183.1, 526.4 182.9 Q 525.9 182.6, 525.4 182.6 Q 524.2 182.6, 523.6 183.4 Q 523.0 184.2, 523.0 185.7 Q 523.0 187.2, 523.6 188.0 Q 524.3 188.8, 525.5 188.8 Q 526.1 188.8, 526.6 188.6 Q 527.1 188.4, 527.6 188.2 L 528.1 189.2 Q 526.9 189.9, 525.3 189.9 Q 523.4 189.9, 522.4 188.8 Q 521.4 187.7, 521.4 185.7 " fill="#000000"/>
<path class="legend" d="M 529.1 185.7 Q 529.1 183.7, 530.1 182.6 Q 531.1 181.4, 532.9 181.4 Q 534.7 181.4, 535.5 182.5 Q 536.4 183.6, 536.4 185.6 L 536.4 185.9 L 530.6 185.9 Q 530.6 187.3, 531.3 188.0 Q 531.9 188.8, 533.1 188.8 Q 533.7 188.8, 534.3 188.6 Q 534.9 188.4, 535.6 188.1 L 536.0 189.2 Q 535.2 189.6, 534.5 189.8 Q 533.8 189.9, 533.0 189.9 Q 531.1 189.9, 530.1 188.8 Q 529.1 187.7, 529.1 185.7 M 532.9 182.6 Q 532.0 182.6, 531.4 183.2 Q 530.9 183.7, 530.7 184.8 L 534.8 184.8 Q 534.7 183.7, 534.2 183.2 Q 533.8 182.6, 532.9 182.6 " fill="#000000"/>
<path class="legend" d="M 537.5 187.9 L 539.1 187.9 L 539.1 189.5 L 537.5 189.5 L 537.5 187.9 M 537.5 182.4 L 539.1 182.4 L 539.1 184.0 L 537.5 184.0 L 537.5 182.4 " fill="#000000"/>
<path class="legend" d="" fill="#000000"/>
<path class="legend" d="M 550.7 189.9 Q 548.6 189.9, 547.6 188.4 Q 546.6 186.9, 546.6 184.1 Q 546.6 181.4, 547.6 179.9 Q 548.6 178.4, 550.7 178.4 Q 552.8 178.4, 553.8 179.9 Q 554.9 181.4, 554.9 184.1 Q 554.9 186.9, 553.8 188.4 Q 552.8 189.9, 550.7 189.9 M 550.7 188.7 Q 551.9 188.7, 552.6 187.5 Q 553.3 186.4, 553.3 184.1 Q 553.3 181.9, 552.6 180.8 Q 551.9 179.6, 550.7 179.6 Q 549.5 179.6, 548.8 180.8 Q 548.2 181.9, 548.2 184.1 Q 548.2 186.4, 548.8 187.5 Q 549.5 188.7, 550.7 188.7 " fill="#000000"/>
<path class="legend" d="M 556.4 188.2 L 558.0 188.2 L 558.0 189.8 L 556.4 189.8 L 556.4 188.2 " fill="#000000"/>
<path class="legend" d="M 565.4 179.8 L 559.5 179.8 L 559.5 178.5 L 567.0 178.5 L 567.0 179.6 L 562.5 189.8 L 560.9 189.8 L 565.4 179.8 " fill="#000000"/>
<path class="legend" d="M 572.1 182.7 Q 573.1 182.7, 573.9 183.2 Q 574.7 183.6, 575.2 184.4 Q 575.6 185.2, 575.6 186.2 Q 575.6 187.4, 575.1 188.2 Q 574.5 189.1, 573.6 189.5 Q 572.6 189.9, 571.6 189.9 Q 570.6 189.9, 569.6 189.6 Q 568.6 189.2, 568.0 188.4 L 568.9 187.4 Q 569.5 188.0, 570.2 188.3 Q 570.9 188.6, 571.6 188.6 Q 572.6 188.6, 573.3 188.0 Q 574.0 187.4, 574.0 186.3 Q 574.0 185.1, 573.3 184.5 Q 572.6 183.9, 571.5 183.9 Q 570.6 183.9, 569.4 184.4 L 568.6 183.9 L 569.1 178.5 L 574.9 178.5 L 574.8 179.8 L 570.4 179.8 L 570.1 183.1 Q 571.1 182.7, 572.1 182.7 " fill="#000000"/>
<path class="bond-0 atom-0 atom-1" d="M 91.3,273.9 L 99.8,280.8" style="fill:none;fill-rule:evenodd;stroke:#000000;stroke-width:2.0px;stroke-linecap:butt;stroke-linejoin:miter;stroke-opacity:1"/>
<path class="bond-1 atom-1 atom-2" d="M 99.8,280.8 L 97.0,298.9" style="fill:none;fill-rule:evenodd;stroke:#000000;stroke-width:2.0px;stroke-linecap:butt;stroke-linejoin:miter;stroke-opacity:1"/>
<path class="bond-2 atom-2 atom-3" d="M 97.0,298.9 L 111.3,310.4" style="fill:none;fill-rule:evenodd;stroke:#000000;stroke-width:2.0px;stroke-linecap:butt;stroke-linejoin:miter;stroke-opacity:1"/>
<path class="bond-3 atom-3 atom-4" d="M 111.3,310.4 L 128.4,303.7" style="fill:none;fill-rule:evenodd;stroke:#000000;stroke-width:2.0px;stroke-linecap:butt;stroke-linejoin:miter;stroke-opacity:1"/>
<path class="bond-4 atom-4 atom-5" d="M 128.4,303.7 L 131.2,285.6" style="fill:none;fill-rule:evenodd;stroke:#000000;stroke-width:2.0px;stroke-linecap:butt;stroke-linejoin:miter;stroke-opacity:1"/>
<path class="bond-5 atom-5 atom-6" d="M 131.2,285.6 L 91.4,291.2" style="fill:none;fill-rule:evenodd;stroke:#000000;stroke-width:2.0px;stroke-linecap:butt;stroke-linejoin:miter;stroke-opacity:1"/>
<path class="bond-6 atom-6 atom-7" d="M 91.4,291.2 L 79.9,305.5" style="fill:none;fill-rule:evenodd;stroke:#000000;stroke-width:2.0px;stroke-linecap:butt;stroke-linejoin:miter;stroke-opacity:1"/>
<path class="bond-7 atom-7 atom-8" d="M 79.9,305.5 L 94.2,317.0" style="fill:none;fill-rule:evenodd;stroke:#000000;stroke-width:2.0px;stroke-linecap:butt;stroke-linejoin:miter;stroke-opacity:1"/>
<path class="bond-8 atom-7 atom-9" d="M 79.9,305.5 L 82.7,287.4" style="fill:none;fill-rule:evenodd;stroke:#000000;stroke-width:2.0px;stroke-linecap:butt;stroke-linejoin:miter;stroke-opacity:1"/>
<path class="bond-9 atom-5 atom-10" d="M 131.2,285.6 L 116.9,274.2" style="fill:none;fill-rule:evenodd;stroke:#000000;stroke-width:2.0px;stroke-linecap:butt;stroke-linejoin:miter;stroke-opacity:1"/>
<path class="bond-10 atom-9 atom-1" d="M 82.7,287.4 L 99.8,280.8" style="fill:none;fill-rule:evenodd;stroke:#000000;stroke-width:2.0px;stroke-linecap:butt;stroke-linejoin:miter;stroke-opacity:1"/>
<path class="bond-11 atom-10 atom-1" d="M 116.9,274.2 L 99.8,280.8" style="fill:none;fill-rule:evenodd;stroke:#000000;stroke-width:2.0px;stroke-linecap:butt;stroke-linejoin:miter;stroke-opacity:1"/>
<path class="bond-12 atom-8 atom-3" d="M 94.2,317.0 L 111.3,310.4" style="fill:none;fill-rule:evenodd;stroke:#000000;stroke-width:2.0px;stroke-linecap:butt;stroke-linejoin:miter;stroke-opacity:1"/>
<path d="M 97.1,298.0 L 97.0,298.9 L 97.7,299.5" style="fill:none;stroke:#000000;stroke-width:2.0px;stroke-linecap:butt;stroke-linejoin:miter;stroke-opacity:1;"/>
<path d="M 127.5,304.1 L 128.4,303.7 L 128.5,302.8" style="fill:none;stroke:#000000;stroke-width:2.0px;stroke-linecap:butt;stroke-linejoin:miter;stroke-opacity:1;"/>
<path d="M 93.4,291.0 L 91.4,291.2 L 90.8,292.0" style="fill:none;stroke:#000000;stroke-width:2.0px;stroke-linecap:butt;stroke-linejoin:miter;stroke-opacity:1;"/>
<path d="M 93.5,316.4 L 94.2,317.0 L 95.1,316.7" style="fill:none;stroke:#000000;stroke-width:2.0px;stroke-linecap:butt;stroke-linejoin:miter;stroke-opacity:1;"/>
<path d="M 82.6,288.3 L 82.7,287.4 L 83.6,287.1" style="fill:none;stroke:#000000;stroke-width:2.0px;stroke-linecap:butt;stroke-linejoin:miter;stroke-opacity:1;"/>
<path d="M 117.6,274.7 L 116.9,274.2 L 116.0,274.5" style="fill:none;stroke:#000000;stroke-width:2.0px;stroke-linecap:butt;stroke-linejoin:miter;stroke-opacity:1;"/>
<path class="atom-0" d="M 68.8 265.0 L 70.0 265.0 L 70.0 268.7 L 74.4 268.7 L 74.4 265.0 L 75.6 265.0 L 75.6 273.6 L 74.4 273.6 L 74.4 269.6 L 70.0 269.6 L 70.0 273.6 L 68.8 273.6 L 68.8 265.0 " fill="#000000"/>
<path class="atom-0" d="M 77.3 273.3 Q 77.5 272.8, 78.0 272.5 Q 78.5 272.2, 79.2 272.2 Q 80.0 272.2, 80.5 272.7 Q 81.0 273.1, 81.0 274.0 Q 81.0 274.8, 80.4 275.6 Q 79.8 276.4, 78.5 277.3 L 81.1 277.3 L 81.1 278.0 L 77.3 278.0 L 77.3 277.4 Q 78.3 276.7, 79.0 276.1 Q 79.6 275.5, 79.9 275.0 Q 80.2 274.5, 80.2 274.0 Q 80.2 273.4, 79.9 273.1 Q 79.7 272.8, 79.2 272.8 Q 78.7 272.8, 78.4 273.0 Q 78.1 273.2, 77.9 273.6 L 77.3 273.3 " fill="#000000"/>
<path class="atom-0" d="M 83.6 265.0 L 86.4 269.6 Q 86.7 270.0, 87.2 270.8 Q 87.6 271.7, 87.6 271.7 L 87.6 265.0 L 88.8 265.0 L 88.8 273.6 L 87.6 273.6 L 84.6 268.6 Q 84.2 268.0, 83.8 267.4 Q 83.5 266.7, 83.4 266.5 L 83.4 273.6 L 82.2 273.6 L 82.2 265.0 L 83.6 265.0 " fill="#000000"/>
<path class="legend" d="M 26.5 379.8 L 23.0 379.8 L 23.0 378.5 L 31.3 378.5 L 31.3 379.8 L 28.0 379.8 L 28.0 389.8 L 26.5 389.8 L 26.5 379.8 " fill="#000000"/>
<path class="legend" d="M 31.8 387.6 Q 31.8 386.3, 32.9 385.6 Q 34.0 384.8, 35.9 384.8 L 37.1 384.8 L 37.1 384.5 Q 37.1 383.5, 36.7 383.1 Q 36.3 382.6, 35.2 382.6 Q 34.6 382.6, 34.1 382.8 Q 33.6 382.9, 32.8 383.2 L 32.3 382.2 Q 33.8 381.4, 35.3 381.4 Q 37.0 381.4, 37.8 382.2 Q 38.6 382.9, 38.6 384.5 L 38.6 389.8 L 37.4 389.8 Q 37.4 389.7, 37.4 389.5 Q 37.3 389.2, 37.2 388.8 Q 36.1 390.0, 34.5 390.0 Q 33.3 390.0, 32.6 389.3 Q 31.8 388.7, 31.8 387.6 M 33.3 387.6 Q 33.3 388.2, 33.7 388.5 Q 34.1 388.8, 34.8 388.8 Q 35.5 388.8, 36.1 388.5 Q 36.7 388.2, 37.1 387.7 L 37.1 386.0 L 36.0 386.0 Q 34.7 386.0, 34.0 386.4 Q 33.3 386.8, 33.3 387.6 " fill="#000000"/>
<path class="legend" d="M 44.6 381.4 Q 45.9 381.4, 46.6 382.2 Q 47.3 382.9, 47.3 384.4 L 47.3 389.8 L 45.8 389.8 L 45.8 384.5 Q 45.8 383.5, 45.4 383.1 Q 45.1 382.6, 44.2 382.6 Q 43.5 382.6, 42.9 383.0 Q 42.2 383.3, 41.8 383.9 L 41.8 389.8 L 40.3 389.8 L 40.3 381.6 L 41.6 381.6 L 41.7 382.7 Q 42.8 381.4, 44.6 381.4 " fill="#000000"/>
<path class="legend" d="M 49.1 378.5 L 50.5 378.5 L 50.5 379.9 L 49.1 379.9 L 49.1 378.5 M 49.1 381.6 L 50.5 381.6 L 50.5 389.8 L 49.1 389.8 L 49.1 381.6 " fill="#000000"/>
<path class="legend" d="M 52.4 387.9 L 54.0 387.9 L 54.0 389.5 L 52.4 389.5 L 52.4 387.9 M 52.4 382.4 L 54.0 382.4 L 54.0 384.0 L 52.4 384.0 L 52.4 382.4 " fill="#000000"/>
<path class="legend" d="" fill="#000000"/>
<path class="legend" d="M 65.7 389.9 Q 63.6 389.9, 62.5 388.4 Q 61.5 386.9, 61.5 384.1 Q 61.5 381.4, 62.5 379.9 Q 63.6 378.4, 65.7 378.4 Q 67.8 378.4, 68.8 379.9 Q 69.8 381.4, 69.8 384.1 Q 69.8 386.9, 68.8 388.4 Q 67.7 389.9, 65.7 389.9 M 65.7 388.7 Q 66.9 388.7, 67.6 387.5 Q 68.2 386.4, 68.2 384.1 Q 68.2 381.9, 67.6 380.8 Q 66.9 379.6, 65.7 379.6 Q 64.5 379.6, 63.8 380.8 Q 63.1 381.9, 63.1 384.1 Q 63.1 386.4, 63.8 387.5 Q 64.5 388.7, 65.7 388.7 " fill="#000000"/>
<path class="legend" d="M 71.3 388.2 L 72.9 388.2 L 72.9 389.8 L 71.3 389.8 L 71.3 388.2 " fill="#000000"/>
<path class="legend" d="M 78.6 389.9 Q 76.5 389.9, 75.5 388.4 Q 74.5 386.9, 74.5 384.1 Q 74.5 381.4, 75.5 379.9 Q 76.5 378.4, 78.6 378.4 Q 80.7 378.4, 81.7 379.9 Q 82.8 381.4, 82.8 384.1 Q 82.8 386.9, 81.7 388.4 Q 80.7 389.9, 78.6 389.9 M 78.6 388.7 Q 79.9 388.7, 80.5 387.5 Q 81.2 386.4, 81.2 384.1 Q 81.2 381.9, 80.5 380.8 Q 79.9 379.6, 78.6 379.6 Q 77.4 379.6, 76.7 380.8 Q 76.1 381.9, 76.1 384.1 Q 76.1 386.4, 76.7 387.5 Q 77.4 388.7, 78.6 388.7 " fill="#000000"/>
<path class="legend" d="M 88.5 389.9 Q 86.4 389.9, 85.3 388.4 Q 84.3 386.9, 84.3 384.1 Q 84.3 381.4, 85.3 379.9 Q 86.4 378.4, 88.5 378.4 Q 90.5 378.4, 91.6 379.9 Q 92.6 381.4, 92.6 384.1 Q 92.6 386.9, 91.6 388.4 Q 90.5 389.9, 88.5 389.9 M 88.5 388.7 Q 89.7 388.7, 90.3 387.5 Q 91.0 386.4, 91.0 384.1 Q 91.0 381.9, 90.3 380.8 Q 89.7 379.6, 88.5 379.6 Q 87.2 379.6, 86.6 380.8 Q 85.9 381.9, 85.9 384.1 Q 85.9 386.4, 86.6 387.5 Q 87.2 388.7, 88.5 388.7 " fill="#000000"/>
<path class="legend" d="" fill="#000000"/>
<path class="legend" d="M 111.0 378.5 Q 113.5 378.5, 114.9 380.0 Q 116.2 381.4, 116.2 384.1 Q 116.2 386.8, 114.8 388.3 Q 113.5 389.8, 111.0 389.8 L 107.3 389.8 L 107.3 378.5 L 111.0 378.5 M 111.0 388.5 Q 112.7 388.5, 113.7 387.4 Q 114.6 386.3, 114.6 384.1 Q 114.6 381.9, 113.7 380.8 Q 112.7 379.8, 111.0 379.8 L 108.9 379.8 L 108.9 388.5 L 111.0 388.5 " fill="#000000"/>
<path class="legend" d="M 117.4 378.5 L 118.9 378.5 L 118.9 379.9 L 117.4 379.9 L 117.4 378.5 M 117.4 381.6 L 118.9 381.6 L 118.9 389.8 L 117.4 389.8 L 117.4 381.6 " fill="#000000"/>
<path class="legend" d="M 120.8 385.7 Q 120.8 383.7, 121.8 382.6 Q 122.7 381.4, 124.7 381.4 Q 126.6 381.4, 127.5 382.8 L 126.5 383.6 Q 126.2 383.1, 125.7 382.9 Q 125.3 382.6, 124.7 382.6 Q 123.6 382.6, 122.9 383.4 Q 122.3 384.2, 122.3 385.7 Q 122.3 387.2, 122.9 388.0 Q 123.6 388.8, 124.8 388.8 Q 125.5 388.8, 125.9 388.6 Q 126.4 388.4, 127.0 388.2 L 127.4 389.2 Q 126.2 389.9, 124.7 389.9 Q 122.7 389.9, 121.8 388.8 Q 120.8 387.7, 120.8 385.7 " fill="#000000"/>
<path class="legend" d="M 128.4 385.7 Q 128.4 383.7, 129.4 382.6 Q 130.4 381.4, 132.3 381.4 Q 134.1 381.4, 134.9 382.5 Q 135.7 383.6, 135.7 385.6 L 135.7 385.9 L 130.0 385.9 Q 130.0 387.3, 130.6 388.0 Q 131.2 388.8, 132.4 388.8 Q 133.1 388.8, 133.6 388.6 Q 134.2 388.4, 135.0 388.1 L 135.4 389.2 Q 134.6 389.6, 133.8 389.8 Q 133.1 389.9, 132.3 389.9 Q 130.5 389.9, 129.5 388.8 Q 128.4 387.7, 128.4 385.7 M 132.3 382.6 Q 131.3 382.6, 130.8 383.2 Q 130.2 383.7, 130.0 384.8 L 134.1 384.8 Q 134.0 383.7, 133.6 383.2 Q 133.1 382.6, 132.3 382.6 " fill="#000000"/>
<path class="legend" d="M 136.8 387.9 L 138.4 387.9 L 138.4 389.5 L 136.8 389.5 L 136.8 387.9 M 136.8 382.4 L 138.4 382.4 L 138.4 384.0 L 136.8 384.0 L 136.8 382.4 " fill="#000000"/>
<path class="legend" d="" fill="#000000"/>
<path class="legend" d="M 150.1 389.9 Q 148.0 389.9, 147.0 388.4 Q 145.9 386.9, 145.9 384.1 Q 145.9 381.4, 147.0 379.9 Q 148.0 378.4, 150.1 378.4 Q 152.2 378.4, 153.2 379.9 Q 154.2 381.4, 154.2 384.1 Q 154.2 386.9, 153.2 388.4 Q 152.2 389.9, 150.1 389.9 M 150.1 388.7 Q 151.3 388.7, 152.0 387.5 Q 152.6 386.4, 152.6 384.1 Q 152.6 381.9, 152.0 380.8 Q 151.3 379.6, 150.1 379.6 Q 148.9 379.6, 148.2 380.8 Q 147.5 381.9, 147.5 384.1 Q 147.5 386.4, 148.2 387.5 Q 148.9 388.7, 150.1 388.7 " fill="#000000"/>
<path class="legend" d="M 155.8 388.2 L 157.4 388.2 L 157.4 389.8 L 155.8 389.8 L 155.8 388.2 " fill="#000000"/>
<path class="legend" d="M 163.0 389.9 Q 161.0 389.9, 159.9 388.4 Q 158.9 386.9, 158.9 384.1 Q 158.9 381.4, 159.9 379.9 Q 160.9 378.4, 163.0 378.4 Q 165.1 378.4, 166.2 379.9 Q 167.2 381.4, 167.2 384.1 Q 167.2 386.9, 166.1 388.4 Q 165.1 389.9, 163.0 389.9 M 163.0 388.7 Q 164.3 388.7, 164.9 387.5 Q 165.6 386.4, 165.6 384.1 Q 165.6 381.9, 164.9 380.8 Q 164.3 379.6, 163.0 379.6 Q 161.8 379.6, 161.2 380.8 Q 160.5 381.9, 160.5 384.1 Q 160.5 386.4, 161.2 387.5 Q 161.8 388.7, 163.0 388.7 " fill="#000000"/>
<path class="legend" d="M 172.9 389.9 Q 170.8 389.9, 169.7 388.4 Q 168.7 386.9, 168.7 384.1 Q 168.7 381.4, 169.7 379.9 Q 170.8 378.4, 172.9 378.4 Q 175.0 378.4, 176.0 379.9 Q 177.0 381.4, 177.0 384.1 Q 177.0 386.9, 176.0 388.4 Q 174.9 389.9, 172.9 389.9 M 172.9 388.7 Q 174.1 388.7, 174.8 387.5 Q 175.4 386.4, 175.4 384.1 Q 175.4 381.9, 174.8 380.8 Q 174.1 379.6, 172.9 379.6 Q 171.6 379.6, 171.0 380.8 Q 170.3 381.9, 170.3 384.1 Q 170.3 386.4, 171.0 387.5 Q 171.6 388.7, 172.9 388.7 " fill="#000000"/>
<path class="bond-0 atom-0 atom-1" d="M 353.5,271.5 L 349.7,289.4" style="fill:none;fill-rule:evenodd;stroke:#000000;stroke-width:2.0px;stroke-linecap:butt;stroke-linejoin:miter;stroke-opacity:1"/>
<path class="bond-1 atom-1 atom-2" d="M 349.7,289.4 L 336.1,277.2" style="fill:none;fill-rule:evenodd;stroke:#000000;stroke-width:2.0px;stroke-linecap:butt;stroke-linejoin:miter;stroke-opacity:1"/>
<path class="bond-2 atom-2 atom-3" d="M 336.1,277.2 L 318.6,282.8" style="fill:none;fill-rule:evenodd;stroke:#000000;stroke-width:2.0px;stroke-linecap:butt;stroke-linejoin:miter;stroke-opacity:1"/>
<path class="bond-3 atom-3 atom-4" d="M 318.6,282.8 L 322.5,264.9" style="fill:none;fill-rule:evenodd;stroke:#000000;stroke-width:2.0px;stroke-linecap:butt;stroke-linejoin:miter;stroke-opacity:1"/>
<path class="bond-4 atom-4 atom-5" d="M 322.5,264.9 L 339.9,259.2" style="fill:none;fill-rule:evenodd;stroke:#000000;stroke-width:2.0px;stroke-linecap:butt;stroke-linejoin:miter;stroke-opacity:1"/>
<path class="bond-5 atom-5 atom-6" d="M 339.9,259.2 L 340.7,299.4" style="fill:none;fill-rule:evenodd;stroke:#000000;stroke-width:2.0px;stroke-linecap:butt;stroke-linejoin:miter;stroke-opacity:1"/>
<path class="bond-6 atom-6 atom-7" d="M 340.7,299.4 L 328.5,313.0" style="fill:none;fill-rule:evenodd;stroke:#000000;stroke-width:2.0px;stroke-linecap:butt;stroke-linejoin:miter;stroke-opacity:1"/>
<path class="bond-7 atom-7 atom-8" d="M 328.5,313.0 L 345.9,307.4" style="fill:none;fill-rule:evenodd;stroke:#000000;stroke-width:2.0px;stroke-linecap:butt;stroke-linejoin:miter;stroke-opacity:1"/>
<path class="bond-8 atom-7 atom-9" d="M 328.5,313.0 L 314.8,300.8" style="fill:none;fill-rule:evenodd;stroke:#000000;stroke-width:2.0px;stroke-linecap:butt;stroke-linejoin:miter;stroke-opacity:1"/>
<path class="bond-9 atom-9 atom-10" d="M 314.8,300.8 L 309.2,318.2" style="fill:none;fill-rule:evenodd;stroke:#000000;stroke-width:2.0px;stroke-linecap:butt;stroke-linejoin:miter;stroke-opacity:1"/>
<path class="bond-10 atom-10 atom-11" d="M 309.2,318.2 L 296.1,318.2" style="fill:none;fill-rule:evenodd;stroke:#000000;stroke-width:2.0px;stroke-linecap:butt;stroke-linejoin:miter;stroke-opacity:1"/>
<path class="bond-11 atom-11 atom-12" d="M 288.6,311.4 L 285.2,300.8" style="fill:none;fill-rule:evenodd;stroke:#000000;stroke-width:2.0px;stroke-linecap:butt;stroke-linejoin:miter;stroke-opacity:1"/>
<path class="bond-12 atom-12 atom-13" d="M 285.2,300.8 L 294.7,293.8" style="fill:none;fill-rule:evenodd;stroke:#000000;stroke-width:2.0px;stroke-linecap:butt;stroke-linejoin:miter;stroke-opacity:1"/>
<path class="bond-13 atom-12 atom-14" d="M 285.2,300.8 L 281.4,282.8" style="fill:none;fill-rule:evenodd;stroke:#000000;stroke-width:2.0px;stroke-linecap:butt;stroke-linejoin:miter;stroke-opacity:1"/>
<path class="bond-14 atom-14 atom-15" d="M 281.4,282.8 L 263.9,277.2" style="fill:none;fill-rule:evenodd;stroke:#000000;stroke-width:2.0px;stroke-linecap:butt;stroke-linejoin:miter;stroke-opacity:1"/>
<path class="bond-15 atom-15 atom-16" d="M 263.9,277.2 L 250.3,289.4" style="fill:none;fill-rule:evenodd;stroke:#000000;stroke-width:2.0px;stroke-linecap:butt;stroke-linejoin:miter;stroke-opacity:1"/>
<path class="bond-16 atom-16 atom-17" d="M 250.3,289.4 L 246.5,271.5" style="fill:none;fill-rule:evenodd;stroke:#000000;stroke-width:2.0px;stroke-linecap:butt;stroke-linejoin:miter;stroke-opacity:1"/>
<path class="bond-17 atom-17 atom-18" d="M 246.5,271.5 L 260.1,259.2" style="fill:none;fill-rule:evenodd;stroke:#000000;stroke-width:2.0px;stroke-linecap:butt;stroke-linejoin:miter;stroke-opacity:1"/>
<path class="bond-18 atom-18 atom-19" d="M 260.1,259.2 L 277.5,264.9" style="fill:none;fill-rule:evenodd;stroke:#000000;stroke-width:2.0px;stroke-linecap:butt;stroke-linejoin:miter;stroke-opacity:1"/>
<path class="bond-19 atom-18 atom-20" d="M 260.1,259.2 L 259.3,299.4" style="fill:none;fill-rule:evenodd;stroke:#000000;stroke-width:2.0px;stroke-linecap:butt;stroke-linejoin:miter;stroke-opacity:1"/>
<path class="bond-20 atom-20 atom-21" d="M 259.3,299.4 L 271.5,313.0" style="fill:none;fill-rule:evenodd;stroke:#000000;stroke-width:2.0px;stroke-linecap:butt;stroke-linejoin:miter;stroke-opacity:1"/>
<path class="bond-21 atom-21 atom-22" d="M 271.5,313.0 L 254.1,307.4" style="fill:none;fill-rule:evenodd;stroke:#000000;stroke-width:2.0px;stroke-linecap:butt;stroke-linejoin:miter;stroke-opacity:1"/>
<path class="bond-22 atom-5 atom-0" d="M 339.9,259.2 L 353.5,271.5" style="fill:none;fill-rule:evenodd;stroke:#000000;stroke-width:2.0px;stroke-linecap:butt;stroke-linejoin:miter;stroke-opacity:1"/>
<path class="bond-23 atom-13 atom-9" d="M 305.3,293.8 L 314.8,300.8" style="fill:none;fill-rule:evenodd;stroke:#000000;stroke-width:2.0px;stroke-linecap:butt;stroke-linejoin:miter;stroke-opacity:1"/>
<path class="bond-24 atom-19 atom-14" d="M 277.5,264.9 L 281.4,282.8" style="fill:none;fill-rule:evenodd;stroke:#000000;stroke-width:2.0px;stroke-linecap:butt;stroke-linejoin:miter;stroke-opacity:1"/>
<path class="bond-25 atom-8 atom-1" d="M 345.9,307.4 L 349.7,289.4" style="fill:none;fill-rule:evenodd;stroke:#000000;stroke-width:2.0px;stroke-linecap:butt;stroke-linejoin:miter;stroke-opacity:1"/>
<path class="bond-26 atom-21 atom-12" d="M 271.5,313.0 L 285.2,300.8" style="fill:none;fill-rule:evenodd;stroke:#000000;stroke-width:2.0px;stroke-linecap:butt;stroke-linejoin:miter;stroke-opacity:1"/>
<path class="bond-27 atom-9 atom-3" d="M 314.8,300.8 L 318.6,282.8" style="fill:none;fill-rule:evenodd;stroke:#000000;stroke-width:2.0px;stroke-linecap:butt;stroke-linejoin:miter;stroke-opacity:1"/>
<path class="bond-28 atom-22 atom-16" d="M 254.1,307.4 L 250.3,289.4" style="fill:none;fill-rule:evenodd;stroke:#000000;stroke-width:2.0px;stroke-linecap:butt;stroke-linejoin:miter;stroke-opacity:1"/>
<path d="M 353.3,272.4 L 353.5,271.5 L 352.8,270.9" style="fill:none;stroke:#000000;stroke-width:2.0px;stroke-linecap:butt;stroke-linejoin:miter;stroke-opacity:1;"/>
<path d="M 336.8,277.8 L 336.1,277.2 L 335.2,277.5" style="fill:none;stroke:#000000;stroke-width:2.0px;stroke-linecap:butt;stroke-linejoin:miter;stroke-opacity:1;"/>
<path d="M 322.3,265.8 L 322.5,264.9 L 323.3,264.6" style="fill:none;stroke:#000000;stroke-width:2.0px;stroke-linecap:butt;stroke-linejoin:miter;stroke-opacity:1;"/>
<path d="M 340.7,297.4 L 340.7,299.4 L 340.1,300.1" style="fill:none;stroke:#000000;stroke-width:2.0px;stroke-linecap:butt;stroke-linejoin:miter;stroke-opacity:1;"/>
<path d="M 345.0,307.7 L 345.9,307.4 L 346.1,306.5" style="fill:none;stroke:#000000;stroke-width:2.0px;stroke-linecap:butt;stroke-linejoin:miter;stroke-opacity:1;"/>
<path d="M 309.4,317.3 L 309.2,318.2 L 308.5,318.2" style="fill:none;stroke:#000000;stroke-width:2.0px;stroke-linecap:butt;stroke-linejoin:miter;stroke-opacity:1;"/>
<path d="M 264.8,277.5 L 263.9,277.2 L 263.2,277.8" style="fill:none;stroke:#000000;stroke-width:2.0px;stroke-linecap:butt;stroke-linejoin:miter;stroke-opacity:1;"/>
<path d="M 246.7,272.4 L 246.5,271.5 L 247.2,270.9" style="fill:none;stroke:#000000;stroke-width:2.0px;stroke-linecap:butt;stroke-linejoin:miter;stroke-opacity:1;"/>
<path d="M 276.7,264.6 L 277.5,264.9 L 277.7,265.8" style="fill:none;stroke:#000000;stroke-width:2.0px;stroke-linecap:butt;stroke-linejoin:miter;stroke-opacity:1;"/>
<path d="M 259.3,297.4 L 259.3,299.4 L 259.9,300.1" style="fill:none;stroke:#000000;stroke-width:2.0px;stroke-linecap:butt;stroke-linejoin:miter;stroke-opacity:1;"/>
<path d="M 255.0,307.7 L 254.1,307.4 L 253.9,306.5" style="fill:none;stroke:#000000;stroke-width:2.0px;stroke-linecap:butt;stroke-linejoin:miter;stroke-opacity:1;"/>
<path class="atom-11" d="M 288.4 321.2 Q 288.5 321.2, 288.9 321.4 Q 289.3 321.6, 289.7 321.7 Q 290.2 321.8, 290.6 321.8 Q 291.4 321.8, 291.9 321.4 Q 292.4 321.0, 292.4 320.3 Q 292.4 319.8, 292.2 319.5 Q 291.9 319.2, 291.6 319.0 Q 291.2 318.9, 290.6 318.7 Q 289.8 318.5, 289.3 318.3 Q 288.9 318.0, 288.6 317.6 Q 288.2 317.1, 288.2 316.3 Q 288.2 315.2, 289.0 314.6 Q 289.7 313.9, 291.2 313.9 Q 292.2 313.9, 293.3 314.4 L 293.0 315.3 Q 292.0 314.9, 291.2 314.9 Q 290.4 314.9, 289.9 315.2 Q 289.5 315.6, 289.5 316.2 Q 289.5 316.6, 289.7 316.9 Q 289.9 317.2, 290.3 317.4 Q 290.6 317.5, 291.2 317.7 Q 292.0 317.9, 292.5 318.2 Q 292.9 318.4, 293.3 318.9 Q 293.6 319.4, 293.6 320.3 Q 293.6 321.5, 292.8 322.1 Q 292.0 322.8, 290.7 322.8 Q 289.9 322.8, 289.3 322.6 Q 288.7 322.4, 288.1 322.1 L 288.4 321.2 " fill="#000000"/>
<path class="atom-13" d="M 297.6 293.0 Q 297.7 293.0, 298.1 293.2 Q 298.5 293.3, 298.9 293.5 Q 299.4 293.6, 299.8 293.6 Q 300.6 293.6, 301.1 293.2 Q 301.6 292.8, 301.6 292.1 Q 301.6 291.6, 301.3 291.3 Q 301.1 291.0, 300.7 290.8 Q 300.4 290.7, 299.7 290.5 Q 299.0 290.3, 298.5 290.0 Q 298.1 289.8, 297.7 289.4 Q 297.4 288.9, 297.4 288.1 Q 297.4 287.0, 298.1 286.4 Q 298.9 285.7, 300.4 285.7 Q 301.4 285.7, 302.5 286.2 L 302.2 287.1 Q 301.2 286.7, 300.4 286.7 Q 299.5 286.7, 299.1 287.0 Q 298.6 287.4, 298.6 288.0 Q 298.6 288.4, 298.9 288.7 Q 299.1 289.0, 299.5 289.2 Q 299.8 289.3, 300.4 289.5 Q 301.2 289.7, 301.6 290.0 Q 302.1 290.2, 302.4 290.7 Q 302.8 291.2, 302.8 292.1 Q 302.8 293.3, 302.0 293.9 Q 301.2 294.5, 299.8 294.5 Q 299.1 294.5, 298.5 294.4 Q 297.9 294.2, 297.2 293.9 L 297.6 293.0 " fill="#000000"/>
<path class="legend" d="M 226.5 379.8 L 223.0 379.8 L 223.0 378.5 L 231.3 378.5 L 231.3 379.8 L 228.0 379.8 L 228.0 389.8 L 226.5 389.8 L 226.5 379.8 " fill="#000000"/>
<path class="legend" d="M 231.8 387.6 Q 231.8 386.3, 232.9 385.6 Q 234.0 384.8, 235.9 384.8 L 237.1 384.8 L 237.1 384.5 Q 237.1 383.5, 236.7 383.1 Q 236.3 382.6, 235.2 382.6 Q 234.6 382.6, 234.1 382.8 Q 233.6 382.9, 232.8 383.2 L 232.3 382.2 Q 233.8 381.4, 235.3 381.4 Q 237.0 381.4, 237.8 382.2 Q 238.6 382.9, 238.6 384.5 L 238.6 389.8 L 237.4 389.8 Q 237.4 389.7, 237.4 389.5 Q 237.3 389.2, 237.2 388.8 Q 236.1 390.0, 234.5 390.0 Q 233.3 390.0, 232.6 389.3 Q 231.8 388.7, 231.8 387.6 M 233.3 387.6 Q 233.3 388.2, 233.7 388.5 Q 234.1 388.8, 234.8 388.8 Q 235.5 388.8, 236.1 388.5 Q 236.7 388.2, 237.1 387.7 L 237.1 386.0 L 236.0 386.0 Q 234.7 386.0, 234.0 386.4 Q 233.3 386.8, 233.3 387.6 " fill="#000000"/>
<path class="legend" d="M 244.6 381.4 Q 245.9 381.4, 246.6 382.2 Q 247.3 382.9, 247.3 384.4 L 247.3 389.8 L 245.8 389.8 L 245.8 384.5 Q 245.8 383.5, 245.4 383.1 Q 245.1 382.6, 244.2 382.6 Q 243.5 382.6, 242.9 383.0 Q 242.2 383.3, 241.8 383.9 L 241.8 389.8 L 240.3 389.8 L 240.3 381.6 L 241.6 381.6 L 241.7 382.7 Q 242.8 381.4, 244.6 381.4 " fill="#000000"/>
<path class="legend" d="M 249.1 378.5 L 250.5 378.5 L 250.5 379.9 L 249.1 379.9 L 249.1 378.5 M 249.1 381.6 L 250.5 381.6 L 250.5 389.8 L 249.1 389.8 L 249.1 381.6 " fill="#000000"/>
<path class="legend" d="M 252.4 387.9 L 254.0 387.9 L 254.0 389.5 L 252.4 389.5 L 252.4 387.9 M 252.4 382.4 L 254.0 382.4 L 254.0 384.0 L 252.4 384.0 L 252.4 382.4 " fill="#000000"/>
<path class="legend" d="" fill="#000000"/>
<path class="legend" d="M 265.7 389.9 Q 263.6 389.9, 262.5 388.4 Q 261.5 386.9, 261.5 384.1 Q 261.5 381.4, 262.5 379.9 Q 263.6 378.4, 265.7 378.4 Q 267.8 378.4, 268.8 379.9 Q 269.8 381.4, 269.8 384.1 Q 269.8 386.9, 268.8 388.4 Q 267.7 389.9, 265.7 389.9 M 265.7 388.7 Q 266.9 388.7, 267.6 387.5 Q 268.2 386.4, 268.2 384.1 Q 268.2 381.9, 267.6 380.8 Q 266.9 379.6, 265.7 379.6 Q 264.5 379.6, 263.8 380.8 Q 263.1 381.9, 263.1 384.1 Q 263.1 386.4, 263.8 387.5 Q 264.5 388.7, 265.7 388.7 " fill="#000000"/>
<path class="legend" d="M 271.3 388.2 L 272.9 388.2 L 272.9 389.8 L 271.3 389.8 L 271.3 388.2 " fill="#000000"/>
<path class="legend" d="M 278.6 389.9 Q 276.5 389.9, 275.5 388.4 Q 274.5 386.9, 274.5 384.1 Q 274.5 381.4, 275.5 379.9 Q 276.5 378.4, 278.6 378.4 Q 280.7 378.4, 281.7 379.9 Q 282.8 381.4, 282.8 384.1 Q 282.8 386.9, 281.7 388.4 Q 280.7 389.9, 278.6 389.9 M 278.6 388.7 Q 279.9 388.7, 280.5 387.5 Q 281.2 386.4, 281.2 384.1 Q 281.2 381.9, 280.5 380.8 Q 279.9 379.6, 278.6 379.6 Q 277.4 379.6, 276.7 380.8 Q 276.1 381.9, 276.1 384.1 Q 276.1 386.4, 276.7 387.5 Q 277.4 388.7, 278.6 388.7 " fill="#000000"/>
<path class="legend" d="M 288.5 389.9 Q 286.4 389.9, 285.3 388.4 Q 284.3 386.9, 284.3 384.1 Q 284.3 381.4, 285.3 379.9 Q 286.4 378.4, 288.5 378.4 Q 290.5 378.4, 291.6 379.9 Q 292.6 381.4, 292.6 384.1 Q 292.6 386.9, 291.6 388.4 Q 290.5 389.9, 288.5 389.9 M 288.5 388.7 Q 289.7 388.7, 290.3 387.5 Q 291.0 386.4, 291.0 384.1 Q 291.0 381.9, 290.3 380.8 Q 289.7 379.6, 288.5 379.6 Q 287.2 379.6, 286.6 380.8 Q 285.9 381.9, 285.9 384.1 Q 285.9 386.4, 286.6 387.5 Q 287.2 388.7, 288.5 388.7 " fill="#000000"/>
<path class="legend" d="" fill="#000000"/>
<path class="legend" d="M 311.0 378.5 Q 313.5 378.5, 314.9 380.0 Q 316.2 381.4, 316.2 384.1 Q 316.2 386.8, 314.8 388.3 Q 313.5 389.8, 311.0 389.8 L 307.3 389.8 L 307.3 378.5 L 311.0 378.5 M 311.0 388.5 Q 312.7 388.5, 313.7 387.4 Q 314.6 386.3, 314.6 384.1 Q 314.6 381.9, 313.7 380.8 Q 312.7 379.8, 311.0 379.8 L 308.9 379.8 L 308.9 388.5 L 311.0 388.5 " fill="#000000"/>
<path class="legend" d="M 317.4 378.5 L 318.9 378.5 L 318.9 379.9 L 317.4 379.9 L 317.4 378.5 M 317.4 381.6 L 318.9 381.6 L 318.9 389.8 L 317.4 389.8 L 317.4 381.6 " fill="#000000"/>
<path class="legend" d="M 320.8 385.7 Q 320.8 383.7, 321.8 382.6 Q 322.7 381.4, 324.7 381.4 Q 326.6 381.4, 327.5 382.8 L 326.5 383.6 Q 326.2 383.1, 325.7 382.9 Q 325.3 382.6, 324.7 382.6 Q 323.6 382.6, 322.9 383.4 Q 322.3 384.2, 322.3 385.7 Q 322.3 387.2, 322.9 388.0 Q 323.6 388.8, 324.8 388.8 Q 325.5 388.8, 325.9 388.6 Q 326.4 388.4, 327.0 388.2 L 327.4 389.2 Q 326.2 389.9, 324.7 389.9 Q 322.7 389.9, 321.8 388.8 Q 320.8 387.7, 320.8 385.7 " fill="#000000"/>
<path class="legend" d="M 328.4 385.7 Q 328.4 383.7, 329.4 382.6 Q 330.4 381.4, 332.3 381.4 Q 334.1 381.4, 334.9 382.5 Q 335.7 383.6, 335.7 385.6 L 335.7 385.9 L 330.0 385.9 Q 330.0 387.3, 330.6 388.0 Q 331.2 388.8, 332.4 388.8 Q 333.1 388.8, 333.6 388.6 Q 334.2 388.4, 335.0 388.1 L 335.4 389.2 Q 334.6 389.6, 333.8 389.8 Q 333.1 389.9, 332.3 389.9 Q 330.5 389.9, 329.5 388.8 Q 328.4 387.7, 328.4 385.7 M 332.3 382.6 Q 331.3 382.6, 330.8 383.2 Q 330.2 383.7, 330.0 384.8 L 334.1 384.8 Q 334.0 383.7, 333.6 383.2 Q 333.1 382.6, 332.3 382.6 " fill="#000000"/>
<path class="legend" d="M 336.8 387.9 L 338.4 387.9 L 338.4 389.5 L 336.8 389.5 L 336.8 387.9 M 336.8 382.4 L 338.4 382.4 L 338.4 384.0 L 336.8 384.0 L 336.8 382.4 " fill="#000000"/>
<path class="legend" d="" fill="#000000"/>
<path class="legend" d="M 350.1 389.9 Q 348.0 389.9, 347.0 388.4 Q 345.9 386.9, 345.9 384.1 Q 345.9 381.4, 347.0 379.9 Q 348.0 378.4, 350.1 378.4 Q 352.2 378.4, 353.2 379.9 Q 354.2 381.4, 354.2 384.1 Q 354.2 386.9, 353.2 388.4 Q 352.2 389.9, 350.1 389.9 M 350.1 388.7 Q 351.3 388.7, 352.0 387.5 Q 352.6 386.4, 352.6 384.1 Q 352.6 381.9, 352.0 380.8 Q 351.3 379.6, 350.1 379.6 Q 348.9 379.6, 348.2 380.8 Q 347.5 381.9, 347.5 384.1 Q 347.5 386.4, 348.2 387.5 Q 348.9 388.7, 350.1 388.7 " fill="#000000"/>
<path class="legend" d="M 355.8 388.2 L 357.4 388.2 L 357.4 389.8 L 355.8 389.8 L 355.8 388.2 " fill="#000000"/>
<path class="legend" d="M 363.0 389.9 Q 361.0 389.9, 359.9 388.4 Q 358.9 386.9, 358.9 384.1 Q 358.9 381.4, 359.9 379.9 Q 360.9 378.4, 363.0 378.4 Q 365.1 378.4, 366.2 379.9 Q 367.2 381.4, 367.2 384.1 Q 367.2 386.9, 366.1 388.4 Q 365.1 389.9, 363.0 389.9 M 363.0 388.7 Q 364.3 388.7, 364.9 387.5 Q 365.6 386.4, 365.6 384.1 Q 365.6 381.9, 364.9 380.8 Q 364.3 379.6, 363.0 379.6 Q 361.8 379.6, 361.2 380.8 Q 360.5 381.9, 360.5 384.1 Q 360.5 386.4, 361.2 387.5 Q 361.8 388.7, 363.0 388.7 " fill="#000000"/>
<path class="legend" d="M 372.9 389.9 Q 370.8 389.9, 369.7 388.4 Q 368.7 386.9, 368.7 384.1 Q 368.7 381.4, 369.7 379.9 Q 370.8 378.4, 372.9 378.4 Q 375.0 378.4, 376.0 379.9 Q 377.0 381.4, 377.0 384.1 Q 377.0 386.9, 376.0 388.4 Q 374.9 389.9, 372.9 389.9 M 372.9 388.7 Q 374.1 388.7, 374.8 387.5 Q 375.4 386.4, 375.4 384.1 Q 375.4 381.9, 374.8 380.8 Q 374.1 379.6, 372.9 379.6 Q 371.6 379.6, 371.0 380.8 Q 370.3 381.9, 370.3 384.1 Q 370.3 386.4, 371.0 387.5 Q 371.6 388.7, 372.9 388.7 " fill="#000000"/>
<path class="bond-0 atom-0 atom-1" d="M 468.4,304.9 L 468.4,286.6" style="fill:none;fill-rule:evenodd;stroke:#000000;stroke-width:2.0px;stroke-linecap:butt;stroke-linejoin:miter;stroke-opacity:1"/>
<path class="bond-1 atom-1 atom-2" d="M 468.4,286.6 L 484.3,277.4" style="fill:none;fill-rule:evenodd;stroke:#000000;stroke-width:2.0px;stroke-linecap:butt;stroke-linejoin:miter;stroke-opacity:1"/>
<path class="bond-2 atom-2 atom-3" d="M 484.3,277.4 L 500.1,286.6" style="fill:none;fill-rule:evenodd;stroke:#000000;stroke-width:2.0px;stroke-linecap:butt;stroke-linejoin:miter;stroke-opacity:1"/>
<path class="bond-3 atom-3 atom-4" d="M 500.1,286.6 L 511.8,282.8" style="fill:none;fill-rule:evenodd;stroke:#000000;stroke-width:2.0px;stroke-linecap:butt;stroke-linejoin:miter;stroke-opacity:1"/>
<path class="bond-4 atom-4 atom-5" d="M 522.5,287.7 L 523.4,289.0" style="fill:none;fill-rule:evenodd;stroke:#000000;stroke-width:2.0px;stroke-linecap:butt;stroke-linejoin:miter;stroke-opacity:1"/>
<path class="bond-5 atom-5 atom-6" d="M 523.4,302.5 L 522.5,303.8" style="fill:none;fill-rule:evenodd;stroke:#000000;stroke-width:2.0px;stroke-linecap:butt;stroke-linejoin:miter;stroke-opacity:1"/>
<path class="bond-5 atom-5 atom-6" d="M 521.2,300.9 L 520.3,302.2" style="fill:none;fill-rule:evenodd;stroke:#000000;stroke-width:2.0px;stroke-linecap:butt;stroke-linejoin:miter;stroke-opacity:1"/>
<path class="bond-6 atom-6 atom-7" d="M 511.8,308.7 L 500.1,304.9" style="fill:none;fill-rule:evenodd;stroke:#000000;stroke-width:2.0px;stroke-linecap:butt;stroke-linejoin:miter;stroke-opacity:1"/>
<path class="bond-7 atom-7 atom-8" d="M 500.1,304.9 L 484.3,314.1" style="fill:none;fill-rule:evenodd;stroke:#000000;stroke-width:2.0px;stroke-linecap:butt;stroke-linejoin:miter;stroke-opacity:1"/>
<path class="bond-8 atom-8 atom-0" d="M 484.3,314.1 L 468.4,304.9" style="fill:none;fill-rule:evenodd;stroke:#000000;stroke-width:2.0px;stroke-linecap:butt;stroke-linejoin:miter;stroke-opacity:1"/>
<path class="bond-9 atom-7 atom-3" d="M 500.1,304.9 L 500.1,286.6" style="fill:none;fill-rule:evenodd;stroke:#000000;stroke-width:2.0px;stroke-linecap:butt;stroke-linejoin:miter;stroke-opacity:1"/>
<path d="M 468.4,304.0 L 468.4,304.9 L 469.2,305.4" style="fill:none;stroke:#000000;stroke-width:2.0px;stroke-linecap:butt;stroke-linejoin:miter;stroke-opacity:1;"/>
<path d="M 468.4,287.5 L 468.4,286.6 L 469.2,286.1" style="fill:none;stroke:#000000;stroke-width:2.0px;stroke-linecap:butt;stroke-linejoin:miter;stroke-opacity:1;"/>
<path d="M 483.5,277.9 L 484.3,277.4 L 485.0,277.9" style="fill:none;stroke:#000000;stroke-width:2.0px;stroke-linecap:butt;stroke-linejoin:miter;stroke-opacity:1;"/>
<path d="M 485.0,313.6 L 484.3,314.1 L 483.5,313.6" style="fill:none;stroke:#000000;stroke-width:2.0px;stroke-linecap:butt;stroke-linejoin:miter;stroke-opacity:1;"/>
<path class="atom-4" d="M 515.7 276.6 L 518.5 281.2 Q 518.8 281.6, 519.2 282.5 Q 519.7 283.3, 519.7 283.3 L 519.7 276.6 L 520.8 276.6 L 520.8 285.3 L 519.7 285.3 L 516.6 280.2 Q 516.3 279.7, 515.9 279.0 Q 515.5 278.3, 515.4 278.1 L 515.4 285.3 L 514.3 285.3 L 514.3 276.6 L 515.7 276.6 " fill="#000000"/>
<path class="atom-4" d="M 514.2 267.1 L 515.4 267.1 L 515.4 270.8 L 519.8 270.8 L 519.8 267.1 L 520.9 267.1 L 520.9 275.7 L 519.8 275.7 L 519.8 271.7 L 515.4 271.7 L 515.4 275.7 L 514.2 275.7 L 514.2 267.1 " fill="#000000"/>
<path class="atom-5" d="M 526.4 291.4 L 529.3 296.0 Q 529.5 296.5, 530.0 297.3 Q 530.4 298.1, 530.5 298.2 L 530.5 291.4 L 531.6 291.4 L 531.6 300.1 L 530.4 300.1 L 527.4 295.1 Q 527.0 294.5, 526.7 293.8 Q 526.3 293.1, 526.2 292.9 L 526.2 300.1 L 525.1 300.1 L 525.1 291.4 L 526.4 291.4 " fill="#000000"/>
<path class="atom-6" d="M 515.7 306.3 L 518.5 310.8 Q 518.8 311.3, 519.2 312.1 Q 519.7 312.9, 519.7 313.0 L 519.7 306.3 L 520.8 306.3 L 520.8 314.9 L 519.7 314.9 L 516.6 309.9 Q 516.3 309.3, 515.9 308.6 Q 515.5 308.0, 515.4 307.8 L 515.4 314.9 L 514.3 314.9 L 514.3 306.3 L 515.7 306.3 " fill="#000000"/>
<path class="legend" d="M 426.5 379.8 L 423.0 379.8 L 423.0 378.5 L 431.3 378.5 L 431.3 379.8 L 428.0 379.8 L 428.0 389.8 L 426.5 389.8 L 426.5 379.8 " fill="#000000"/>
<path class="legend" d="M 431.8 387.6 Q 431.8 386.3, 432.9 385.6 Q 434.0 384.8, 435.9 384.8 L 437.1 384.8 L 437.1 384.5 Q 437.1 383.5, 436.7 383.1 Q 436.3 382.6, 435.2 382.6 Q 434.6 382.6, 434.1 382.8 Q 433.6 382.9, 432.8 383.2 L 432.3 382.2 Q 433.8 381.4, 435.3 381.4 Q 437.0 381.4, 437.8 382.2 Q 438.6 382.9, 438.6 384.5 L 438.6 389.8 L 437.4 389.8 Q 437.4 389.7, 437.4 389.5 Q 437.3 389.2, 437.2 388.8 Q 436.1 390.0, 434.5 390.0 Q 433.3 390.0, 432.6 389.3 Q 431.8 388.7, 431.8 387.6 M 433.3 387.6 Q 433.3 388.2, 433.7 388.5 Q 434.1 388.8, 434.8 388.8 Q 435.5 388.8, 436.1 388.5 Q 436.7 388.2, 437.1 387.7 L 437.1 386.0 L 436.0 386.0 Q 434.7 386.0, 434.0 386.4 Q 433.3 386.8, 433.3 387.6 " fill="#000000"/>
<path class="legend" d="M 444.6 381.4 Q 445.9 381.4, 446.6 382.2 Q 447.3 382.9, 447.3 384.4 L 447.3 389.8 L 445.8 389.8 L 445.8 384.5 Q 445.8 383.5, 445.4 383.1 Q 445.1 382.6, 444.2 382.6 Q 443.5 382.6, 442.9 383.0 Q 442.2 383.3, 441.8 383.9 L 441.8 389.8 L 440.3 389.8 L 440.3 381.6 L 441.6 381.6 L 441.7 382.7 Q 442.8 381.4, 444.6 381.4 " fill="#000000"/>
<path class="legend" d="M 449.1 378.5 L 450.5 378.5 L 450.5 379.9 L 449.1 379.9 L 449.1 378.5 M 449.1 381.6 L 450.5 381.6 L 450.5 389.8 L 449.1 389.8 L 449.1 381.6 " fill="#000000"/>
<path class="legend" d="M 452.4 387.9 L 454.0 387.9 L 454.0 389.5 L 452.4 389.5 L 452.4 387.9 M 452.4 382.4 L 454.0 382.4 L 454.0 384.0 L 452.4 384.0 L 452.4 382.4 " fill="#000000"/>
<path class="legend" d="" fill="#000000"/>
<path class="legend" d="M 465.7 389.9 Q 463.6 389.9, 462.5 388.4 Q 461.5 386.9, 461.5 384.1 Q 461.5 381.4, 462.5 379.9 Q 463.6 378.4, 465.7 378.4 Q 467.8 378.4, 468.8 379.9 Q 469.8 381.4, 469.8 384.1 Q 469.8 386.9, 468.8 388.4 Q 467.7 389.9, 465.7 389.9 M 465.7 388.7 Q 466.9 388.7, 467.6 387.5 Q 468.2 386.4, 468.2 384.1 Q 468.2 381.9, 467.6 380.8 Q 466.9 379.6, 465.7 379.6 Q 464.5 379.6, 463.8 380.8 Q 463.1 381.9, 463.1 384.1 Q 463.1 386.4, 463.8 387.5 Q 464.5 388.7, 465.7 388.7 " fill="#000000"/>
<path class="legend" d="M 471.3 388.2 L 472.9 388.2 L 472.9 389.8 L 471.3 389.8 L 471.3 388.2 " fill="#000000"/>
<path class="legend" d="M 478.6 389.9 Q 476.5 389.9, 475.5 388.4 Q 474.5 386.9, 474.5 384.1 Q 474.5 381.4, 475.5 379.9 Q 476.5 378.4, 478.6 378.4 Q 480.7 378.4, 481.7 379.9 Q 482.8 381.4, 482.8 384.1 Q 482.8 386.9, 481.7 388.4 Q 480.7 389.9, 478.6 389.9 M 478.6 388.7 Q 479.9 388.7, 480.5 387.5 Q 481.2 386.4, 481.2 384.1 Q 481.2 381.9, 480.5 380.8 Q 479.9 379.6, 478.6 379.6 Q 477.4 379.6, 476.7 380.8 Q 476.1 381.9, 476.1 384.1 Q 476.1 386.4, 476.7 387.5 Q 477.4 388.7, 478.6 388.7 " fill="#000000"/>
<path class="legend" d="M 488.5 389.9 Q 486.4 389.9, 485.3 388.4 Q 484.3 386.9, 484.3 384.1 Q 484.3 381.4, 485.3 379.9 Q 486.4 378.4, 488.5 378.4 Q 490.5 378.4, 491.6 379.9 Q 492.6 381.4, 492.6 384.1 Q 492.6 386.9, 491.6 388.4 Q 490.5 389.9, 488.5 389.9 M 488.5 388.7 Q 489.7 388.7, 490.3 387.5 Q 491.0 386.4, 491.0 384.1 Q 491.0 381.9, 490.3 380.8 Q 489.7 379.6, 488.5 379.6 Q 487.2 379.6, 486.6 380.8 Q 485.9 381.9, 485.9 384.1 Q 485.9 386.4, 486.6 387.5 Q 487.2 388.7, 488.5 388.7 " fill="#000000"/>
<path class="legend" d="" fill="#000000"/>
<path class="legend" d="M 511.0 378.5 Q 513.5 378.5, 514.9 380.0 Q 516.2 381.4, 516.2 384.1 Q 516.2 386.8, 514.8 388.3 Q 513.5 389.8, 511.0 389.8 L 507.3 389.8 L 507.3 378.5 L 511.0 378.5 M 511.0 388.5 Q 512.7 388.5, 513.7 387.4 Q 514.6 386.3, 514.6 384.1 Q 514.6 381.9, 513.7 380.8 Q 512.7 379.8, 511.0 379.8 L 508.9 379.8 L 508.9 388.5 L 511.0 388.5 " fill="#000000"/>
<path class="legend" d="M 517.4 378.5 L 518.9 378.5 L 518.9 379.9 L 517.4 379.9 L 517.4 378.5 M 517.4 381.6 L 518.9 381.6 L 518.9 389.8 L 517.4 389.8 L 517.4 381.6 " fill="#000000"/>
<path class="legend" d="M 520.8 385.7 Q 520.8 383.7, 521.8 382.6 Q 522.7 381.4, 524.7 381.4 Q 526.6 381.4, 527.5 382.8 L 526.5 383.6 Q 526.2 383.1, 525.7 382.9 Q 525.3 382.6, 524.7 382.6 Q 523.6 382.6, 522.9 383.4 Q 522.3 384.2, 522.3 385.7 Q 522.3 387.2, 522.9 388.0 Q 523.6 388.8, 524.8 388.8 Q 525.5 388.8, 525.9 388.6 Q 526.4 388.4, 527.0 388.2 L 527.4 389.2 Q 526.2 389.9, 524.7 389.9 Q 522.7 389.9, 521.8 388.8 Q 520.8 387.7, 520.8 385.7 " fill="#000000"/>
<path class="legend" d="M 528.4 385.7 Q 528.4 383.7, 529.4 382.6 Q 530.4 381.4, 532.3 381.4 Q 534.1 381.4, 534.9 382.5 Q 535.7 383.6, 535.7 385.6 L 535.7 385.9 L 530.0 385.9 Q 530.0 387.3, 530.6 388.0 Q 531.2 388.8, 532.4 388.8 Q 533.1 388.8, 533.6 388.6 Q 534.2 388.4, 535.0 388.1 L 535.4 389.2 Q 534.6 389.6, 533.8 389.8 Q 533.1 389.9, 532.3 389.9 Q 530.5 389.9, 529.5 388.8 Q 528.4 387.7, 528.4 385.7 M 532.3 382.6 Q 531.3 382.6, 530.8 383.2 Q 530.2 383.7, 530.0 384.8 L 534.1 384.8 Q 534.0 383.7, 533.6 383.2 Q 533.1 382.6, 532.3 382.6 " fill="#000000"/>
<path class="legend" d="M 536.8 387.9 L 538.4 387.9 L 538.4 389.5 L 536.8 389.5 L 536.8 387.9 M 536.8 382.4 L 538.4 382.4 L 538.4 384.0 L 536.8 384.0 L 536.8 382.4 " fill="#000000"/>
<path class="legend" d="" fill="#000000"/>
<path class="legend" d="M 550.1 389.9 Q 548.0 389.9, 547.0 388.4 Q 545.9 386.9, 545.9 384.1 Q 545.9 381.4, 547.0 379.9 Q 548.0 378.4, 550.1 378.4 Q 552.2 378.4, 553.2 379.9 Q 554.2 381.4, 554.2 384.1 Q 554.2 386.9, 553.2 388.4 Q 552.2 389.9, 550.1 389.9 M 550.1 388.7 Q 551.3 388.7, 552.0 387.5 Q 552.6 386.4, 552.6 384.1 Q 552.6 381.9, 552.0 380.8 Q 551.3 379.6, 550.1 379.6 Q 548.9 379.6, 548.2 380.8 Q 547.5 381.9, 547.5 384.1 Q 547.5 386.4, 548.2 387.5 Q 548.9 388.7, 550.1 388.7 " fill="#000000"/>
<path class="legend" d="M 555.8 388.2 L 557.4 388.2 L 557.4 389.8 L 555.8 389.8 L 555.8 388.2 " fill="#000000"/>
<path class="legend" d="M 563.0 389.9 Q 561.0 389.9, 559.9 388.4 Q 558.9 386.9, 558.9 384.1 Q 558.9 381.4, 559.9 379.9 Q 560.9 378.4, 563.0 378.4 Q 565.1 378.4, 566.2 379.9 Q 567.2 381.4, 567.2 384.1 Q 567.2 386.9, 566.1 388.4 Q 565.1 389.9, 563.0 389.9 M 563.0 388.7 Q 564.3 388.7, 564.9 387.5 Q 565.6 386.4, 565.6 384.1 Q 565.6 381.9, 564.9 380.8 Q 564.3 379.6, 563.0 379.6 Q 561.8 379.6, 561.2 380.8 Q 560.5 381.9, 560.5 384.1 Q 560.5 386.4, 561.2 387.5 Q 561.8 388.7, 563.0 388.7 " fill="#000000"/>
<path class="legend" d="M 572.9 389.9 Q 570.8 389.9, 569.7 388.4 Q 568.7 386.9, 568.7 384.1 Q 568.7 381.4, 569.7 379.9 Q 570.8 378.4, 572.9 378.4 Q 575.0 378.4, 576.0 379.9 Q 577.0 381.4, 577.0 384.1 Q 577.0 386.9, 576.0 388.4 Q 574.9 389.9, 572.9 389.9 M 572.9 388.7 Q 574.1 388.7, 574.8 387.5 Q 575.4 386.4, 575.4 384.1 Q 575.4 381.9, 574.8 380.8 Q 574.1 379.6, 572.9 379.6 Q 571.6 379.6, 571.0 380.8 Q 570.3 381.9, 570.3 384.1 Q 570.3 386.4, 571.0 387.5 Q 571.6 388.7, 572.9 388.7 " fill="#000000"/>
</svg>