<svg xmlns="http://www.w3.org/2000/svg" xmlns:rdkit="http://www.rdkit.org/xml" xmlns:xlink="http://www.w3.org/1999/xlink" version="1.1" baseProfile="full" xml:space="preserve" width="400px" height="300px" viewBox="0 0 400 300">
<!-- END OF HEADER -->
<rect style="opacity:1.0;fill:#FFFFFF;stroke:none" width="400.0" height="300.0" x="0.0" y="0.0"> </rect>
<path class="bond-0 atom-0 atom-1" d="M 355.2,199.2 L 353.1,180.6" style="fill:none;fill-rule:evenodd;stroke:#000000;stroke-width:2.0px;stroke-linecap:butt;stroke-linejoin:miter;stroke-opacity:1"/>
<path class="bond-1 atom-1 atom-2" d="M 332.7,152.7 L 315.3,145.1" style="fill:none;fill-rule:evenodd;stroke:#000000;stroke-width:2.0px;stroke-linecap:butt;stroke-linejoin:miter;stroke-opacity:1"/>
<path class="bond-2 atom-2 atom-3" d="M 315.3,145.1 L 284.1,168.1" style="fill:none;fill-rule:evenodd;stroke:#000000;stroke-width:2.0px;stroke-linecap:butt;stroke-linejoin:miter;stroke-opacity:1"/>
<path class="bond-2 atom-2 atom-3" d="M 309.2,142.4 L 283.3,161.5" style="fill:none;fill-rule:evenodd;stroke:#000000;stroke-width:2.0px;stroke-linecap:butt;stroke-linejoin:miter;stroke-opacity:1"/>
<path class="bond-3 atom-3 atom-4" d="M 284.1,168.1 L 248.5,152.6" style="fill:none;fill-rule:evenodd;stroke:#000000;stroke-width:2.0px;stroke-linecap:butt;stroke-linejoin:miter;stroke-opacity:1"/>
<path class="bond-4 atom-4 atom-5" d="M 248.5,152.6 L 244.2,114.0" style="fill:none;fill-rule:evenodd;stroke:#000000;stroke-width:2.0px;stroke-linecap:butt;stroke-linejoin:miter;stroke-opacity:1"/>
<path class="bond-4 atom-4 atom-5" d="M 253.9,148.6 L 250.4,116.7" style="fill:none;fill-rule:evenodd;stroke:#000000;stroke-width:2.0px;stroke-linecap:butt;stroke-linejoin:miter;stroke-opacity:1"/>
<path class="bond-5 atom-5 atom-6" d="M 244.2,114.0 L 224.5,105.4" style="fill:none;fill-rule:evenodd;stroke:#000000;stroke-width:2.0px;stroke-linecap:butt;stroke-linejoin:miter;stroke-opacity:1"/>
<path class="bond-6 atom-6 atom-7" d="M 201.1,79.2 L 194.5,62.4" style="fill:none;fill-rule:evenodd;stroke:#000000;stroke-width:2.0px;stroke-linecap:butt;stroke-linejoin:miter;stroke-opacity:1"/>
<path class="bond-7 atom-7 atom-8" d="M 196.0,66.2 L 204.0,47.9" style="fill:none;fill-rule:evenodd;stroke:#000000;stroke-width:2.0px;stroke-linecap:butt;stroke-linejoin:miter;stroke-opacity:1"/>
<path class="bond-7 atom-7 atom-8" d="M 190.6,63.9 L 198.6,45.5" style="fill:none;fill-rule:evenodd;stroke:#000000;stroke-width:2.0px;stroke-linecap:butt;stroke-linejoin:miter;stroke-opacity:1"/>
<path class="bond-8 atom-7 atom-9" d="M 194.5,62.4 L 158.3,76.5" style="fill:none;fill-rule:evenodd;stroke:#000000;stroke-width:2.0px;stroke-linecap:butt;stroke-linejoin:miter;stroke-opacity:1"/>
<path class="bond-9 atom-9 atom-10" d="M 158.3,76.5 L 172.5,112.7" style="fill:none;fill-rule:evenodd;stroke:#000000;stroke-width:2.0px;stroke-linecap:butt;stroke-linejoin:miter;stroke-opacity:1"/>
<path class="bond-10 atom-10 atom-11" d="M 172.5,112.7 L 186.7,148.8" style="fill:none;fill-rule:evenodd;stroke:#000000;stroke-width:2.0px;stroke-linecap:butt;stroke-linejoin:miter;stroke-opacity:1"/>
<path class="bond-11 atom-11 atom-12" d="M 184.6,151.4 L 206.4,154.7" style="fill:none;fill-rule:evenodd;stroke:#000000;stroke-width:2.0px;stroke-linecap:butt;stroke-linejoin:miter;stroke-opacity:1"/>
<path class="bond-11 atom-11 atom-12" d="M 185.4,145.7 L 207.3,149.0" style="fill:none;fill-rule:evenodd;stroke:#000000;stroke-width:2.0px;stroke-linecap:butt;stroke-linejoin:miter;stroke-opacity:1"/>
<path class="bond-12 atom-11 atom-13" d="M 186.7,148.8 L 177.9,159.8" style="fill:none;fill-rule:evenodd;stroke:#000000;stroke-width:2.0px;stroke-linecap:butt;stroke-linejoin:miter;stroke-opacity:1"/>
<path class="bond-13 atom-13 atom-14" d="M 170.0,198.4 L 176.6,215.3" style="fill:none;fill-rule:evenodd;stroke:#000000;stroke-width:2.0px;stroke-linecap:butt;stroke-linejoin:miter;stroke-opacity:1"/>
<path class="bond-14 atom-14 atom-15" d="M 176.6,215.3 L 152.4,245.6" style="fill:none;fill-rule:evenodd;stroke:#000000;stroke-width:2.0px;stroke-linecap:butt;stroke-linejoin:miter;stroke-opacity:1"/>
<path class="bond-14 atom-14 atom-15" d="M 179.1,221.5 L 159.0,246.6" style="fill:none;fill-rule:evenodd;stroke:#000000;stroke-width:2.0px;stroke-linecap:butt;stroke-linejoin:miter;stroke-opacity:1"/>
<path class="bond-15 atom-15 atom-16" d="M 152.4,245.6 L 114.0,239.8" style="fill:none;fill-rule:evenodd;stroke:#000000;stroke-width:2.0px;stroke-linecap:butt;stroke-linejoin:miter;stroke-opacity:1"/>
<path class="bond-16 atom-15 atom-17" d="M 152.4,245.6 L 166.6,281.7" style="fill:none;fill-rule:evenodd;stroke:#000000;stroke-width:2.0px;stroke-linecap:butt;stroke-linejoin:miter;stroke-opacity:1"/>
<path class="bond-17 atom-17 atom-18" d="M 166.6,281.7 L 204.9,287.5" style="fill:none;fill-rule:evenodd;stroke:#000000;stroke-width:2.0px;stroke-linecap:butt;stroke-linejoin:miter;stroke-opacity:1"/>
<path class="bond-17 atom-17 atom-18" d="M 170.7,276.5 L 202.5,281.3" style="fill:none;fill-rule:evenodd;stroke:#000000;stroke-width:2.0px;stroke-linecap:butt;stroke-linejoin:miter;stroke-opacity:1"/>
<path class="bond-18 atom-18 atom-19" d="M 204.9,287.5 L 229.1,257.2" style="fill:none;fill-rule:evenodd;stroke:#000000;stroke-width:2.0px;stroke-linecap:butt;stroke-linejoin:miter;stroke-opacity:1"/>
<path class="bond-19 atom-19 atom-20" d="M 229.1,257.2 L 215.0,221.1" style="fill:none;fill-rule:evenodd;stroke:#000000;stroke-width:2.0px;stroke-linecap:butt;stroke-linejoin:miter;stroke-opacity:1"/>
<path class="bond-19 atom-19 atom-20" d="M 222.5,256.2 L 210.8,226.3" style="fill:none;fill-rule:evenodd;stroke:#000000;stroke-width:2.0px;stroke-linecap:butt;stroke-linejoin:miter;stroke-opacity:1"/>
<path class="bond-20 atom-20 atom-21" d="M 215.0,221.1 L 239.2,190.7" style="fill:none;fill-rule:evenodd;stroke:#000000;stroke-width:2.0px;stroke-linecap:butt;stroke-linejoin:miter;stroke-opacity:1"/>
<path class="bond-21 atom-10 atom-22" d="M 172.5,112.7 L 136.4,126.8" style="fill:none;fill-rule:evenodd;stroke:#000000;stroke-width:2.0px;stroke-linecap:butt;stroke-linejoin:miter;stroke-opacity:1"/>
<path class="bond-22 atom-22 atom-23" d="M 136.4,126.8 L 126.6,164.4" style="fill:none;fill-rule:evenodd;stroke:#000000;stroke-width:2.0px;stroke-linecap:butt;stroke-linejoin:miter;stroke-opacity:1"/>
<path class="bond-22 atom-22 atom-23" d="M 129.7,129.4 L 122.0,158.8" style="fill:none;fill-rule:evenodd;stroke:#000000;stroke-width:2.0px;stroke-linecap:butt;stroke-linejoin:miter;stroke-opacity:1"/>
<path class="bond-23 atom-23 atom-24" d="M 126.6,164.4 L 87.8,166.7" style="fill:none;fill-rule:evenodd;stroke:#000000;stroke-width:2.0px;stroke-linecap:butt;stroke-linejoin:miter;stroke-opacity:1"/>
<path class="bond-24 atom-24 atom-25" d="M 87.8,166.7 L 73.7,130.5" style="fill:none;fill-rule:evenodd;stroke:#000000;stroke-width:2.0px;stroke-linecap:butt;stroke-linejoin:miter;stroke-opacity:1"/>
<path class="bond-24 atom-24 atom-25" d="M 91.7,160.6 L 80.6,132.4" style="fill:none;fill-rule:evenodd;stroke:#000000;stroke-width:2.0px;stroke-linecap:butt;stroke-linejoin:miter;stroke-opacity:1"/>
<path class="bond-25 atom-25 atom-26" d="M 73.7,130.5 L 36.1,120.8" style="fill:none;fill-rule:evenodd;stroke:#000000;stroke-width:2.0px;stroke-linecap:butt;stroke-linejoin:miter;stroke-opacity:1"/>
<path class="bond-26 atom-25 atom-27" d="M 73.7,130.5 L 85.5,120.8" style="fill:none;fill-rule:evenodd;stroke:#000000;stroke-width:2.0px;stroke-linecap:butt;stroke-linejoin:miter;stroke-opacity:1"/>
<path class="bond-27 atom-5 atom-28" d="M 244.2,114.0 L 275.4,91.0" style="fill:none;fill-rule:evenodd;stroke:#000000;stroke-width:2.0px;stroke-linecap:butt;stroke-linejoin:miter;stroke-opacity:1"/>
<path class="bond-28 atom-28 atom-29" d="M 275.4,91.0 L 311.0,106.5" style="fill:none;fill-rule:evenodd;stroke:#000000;stroke-width:2.0px;stroke-linecap:butt;stroke-linejoin:miter;stroke-opacity:1"/>
<path class="bond-28 atom-28 atom-29" d="M 276.2,97.7 L 305.6,110.5" style="fill:none;fill-rule:evenodd;stroke:#000000;stroke-width:2.0px;stroke-linecap:butt;stroke-linejoin:miter;stroke-opacity:1"/>
<path class="bond-29 atom-29 atom-2" d="M 311.0,106.5 L 315.3,145.1" style="fill:none;fill-rule:evenodd;stroke:#000000;stroke-width:2.0px;stroke-linecap:butt;stroke-linejoin:miter;stroke-opacity:1"/>
<path class="bond-30 atom-10 atom-6" d="M 172.5,112.7 L 192.7,104.7" style="fill:none;fill-rule:evenodd;stroke:#000000;stroke-width:2.0px;stroke-linecap:butt;stroke-linejoin:miter;stroke-opacity:1"/>
<path class="bond-31 atom-20 atom-14" d="M 215.0,221.1 L 176.6,215.3" style="fill:none;fill-rule:evenodd;stroke:#000000;stroke-width:2.0px;stroke-linecap:butt;stroke-linejoin:miter;stroke-opacity:1"/>
<path class="bond-32 atom-27 atom-22" d="M 121.8,117.5 L 136.4,126.8" style="fill:none;fill-rule:evenodd;stroke:#000000;stroke-width:2.0px;stroke-linecap:butt;stroke-linejoin:miter;stroke-opacity:1"/>
<path d="M 285.6,167.0 L 284.1,168.1 L 282.3,167.4" style="fill:none;stroke:#000000;stroke-width:2.0px;stroke-linecap:butt;stroke-linejoin:miter;stroke-miterlimit:10;stroke-opacity:1;"/>
<path d="M 250.3,153.4 L 248.5,152.6 L 248.3,150.7" style="fill:none;stroke:#000000;stroke-width:2.0px;stroke-linecap:butt;stroke-linejoin:miter;stroke-miterlimit:10;stroke-opacity:1;"/>
<path d="M 194.8,63.2 L 194.5,62.4 L 192.7,63.1" style="fill:none;stroke:#000000;stroke-width:2.0px;stroke-linecap:butt;stroke-linejoin:miter;stroke-miterlimit:10;stroke-opacity:1;"/>
<path d="M 160.1,75.8 L 158.3,76.5 L 159.0,78.3" style="fill:none;stroke:#000000;stroke-width:2.0px;stroke-linecap:butt;stroke-linejoin:miter;stroke-miterlimit:10;stroke-opacity:1;"/>
<path d="M 185.9,147.0 L 186.7,148.8 L 186.2,149.3" style="fill:none;stroke:#000000;stroke-width:2.0px;stroke-linecap:butt;stroke-linejoin:miter;stroke-miterlimit:10;stroke-opacity:1;"/>
<path d="M 165.8,279.9 L 166.6,281.7 L 168.5,282.0" style="fill:none;stroke:#000000;stroke-width:2.0px;stroke-linecap:butt;stroke-linejoin:miter;stroke-miterlimit:10;stroke-opacity:1;"/>
<path d="M 203.0,287.2 L 204.9,287.5 L 206.1,286.0" style="fill:none;stroke:#000000;stroke-width:2.0px;stroke-linecap:butt;stroke-linejoin:miter;stroke-miterlimit:10;stroke-opacity:1;"/>
<path d="M 227.9,258.7 L 229.1,257.2 L 228.4,255.4" style="fill:none;stroke:#000000;stroke-width:2.0px;stroke-linecap:butt;stroke-linejoin:miter;stroke-miterlimit:10;stroke-opacity:1;"/>
<path d="M 127.1,162.5 L 126.6,164.4 L 124.6,164.5" style="fill:none;stroke:#000000;stroke-width:2.0px;stroke-linecap:butt;stroke-linejoin:miter;stroke-miterlimit:10;stroke-opacity:1;"/>
<path d="M 89.8,166.6 L 87.8,166.7 L 87.1,164.9" style="fill:none;stroke:#000000;stroke-width:2.0px;stroke-linecap:butt;stroke-linejoin:miter;stroke-miterlimit:10;stroke-opacity:1;"/>
<path d="M 273.9,92.1 L 275.4,91.0 L 277.2,91.8" style="fill:none;stroke:#000000;stroke-width:2.0px;stroke-linecap:butt;stroke-linejoin:miter;stroke-miterlimit:10;stroke-opacity:1;"/>
<path d="M 309.2,105.8 L 311.0,106.5 L 311.2,108.5" style="fill:none;stroke:#000000;stroke-width:2.0px;stroke-linecap:butt;stroke-linejoin:miter;stroke-miterlimit:10;stroke-opacity:1;"/>
<path class="atom-1" d="M 337.9 160.7 Q 337.9 153.9, 341.3 150.1 Q 344.6 146.3, 350.9 146.3 Q 357.2 146.3, 360.5 150.1 Q 363.9 153.9, 363.9 160.7 Q 363.9 167.6, 360.5 171.5 Q 357.1 175.4, 350.9 175.4 Q 344.7 175.4, 341.3 171.5 Q 337.9 167.6, 337.9 160.7 M 350.9 172.2 Q 355.2 172.2, 357.5 169.3 Q 359.9 166.4, 359.9 160.7 Q 359.9 155.2, 357.5 152.4 Q 355.2 149.5, 350.9 149.5 Q 346.6 149.5, 344.2 152.3 Q 341.9 155.1, 341.9 160.7 Q 341.9 166.4, 344.2 169.3 Q 346.6 172.2, 350.9 172.2 " fill="#000000"/>
<path class="atom-6" d="M 202.4 84.3 L 211.6 99.3 Q 212.6 100.8, 214.0 103.5 Q 215.5 106.2, 215.6 106.3 L 215.6 84.3 L 219.4 84.3 L 219.4 112.7 L 215.5 112.7 L 205.5 96.3 Q 204.4 94.3, 203.1 92.1 Q 201.9 89.9, 201.6 89.3 L 201.6 112.7 L 197.9 112.7 L 197.9 84.3 L 202.4 84.3 " fill="#000000"/>
<path class="atom-8" d="M 197.0 26.9 Q 197.0 20.1, 200.4 16.3 Q 203.7 12.5, 210.0 12.5 Q 216.3 12.5, 219.6 16.3 Q 223.0 20.1, 223.0 26.9 Q 223.0 33.8, 219.6 37.7 Q 216.2 41.6, 210.0 41.6 Q 203.8 41.6, 200.4 37.7 Q 197.0 33.8, 197.0 26.9 M 210.0 38.4 Q 214.3 38.4, 216.6 35.5 Q 219.0 32.6, 219.0 26.9 Q 219.0 21.3, 216.6 18.5 Q 214.3 15.7, 210.0 15.7 Q 205.7 15.7, 203.3 18.5 Q 201.0 21.3, 201.0 26.9 Q 201.0 32.6, 203.3 35.5 Q 205.7 38.4, 210.0 38.4 " fill="#000000"/>
<path class="atom-12" d="M 212.0 154.7 Q 212.0 147.9, 215.4 144.1 Q 218.7 140.3, 225.0 140.3 Q 231.3 140.3, 234.7 144.1 Q 238.0 147.9, 238.0 154.7 Q 238.0 161.6, 234.6 165.5 Q 231.2 169.4, 225.0 169.4 Q 218.8 169.4, 215.4 165.5 Q 212.0 161.6, 212.0 154.7 M 225.0 166.2 Q 229.3 166.2, 231.7 163.3 Q 234.0 160.4, 234.0 154.7 Q 234.0 149.1, 231.7 146.3 Q 229.3 143.5, 225.0 143.5 Q 220.7 143.5, 218.3 146.3 Q 216.0 149.1, 216.0 154.7 Q 216.0 160.4, 218.3 163.3 Q 220.7 166.2, 225.0 166.2 " fill="#000000"/>
<path class="atom-13" d="M 124.0 165.0 L 127.8 165.0 L 127.8 177.0 L 142.3 177.0 L 142.3 165.0 L 146.1 165.0 L 146.1 193.3 L 142.3 193.3 L 142.3 180.2 L 127.8 180.2 L 127.8 193.3 L 124.0 193.3 L 124.0 165.0 " fill="#000000"/>
<path class="atom-13" d="M 156.2 165.0 L 165.5 180.0 Q 166.4 181.4, 167.9 184.1 Q 169.3 186.8, 169.4 187.0 L 169.4 165.0 L 173.2 165.0 L 173.2 193.3 L 169.3 193.3 L 159.3 176.9 Q 158.2 175.0, 156.9 172.8 Q 155.7 170.6, 155.4 169.9 L 155.4 193.3 L 151.7 193.3 L 151.7 165.0 L 156.2 165.0 " fill="#000000"/>
<path class="atom-27" d="M 90.7 106.0 Q 90.7 99.2, 94.0 95.4 Q 97.4 91.6, 103.7 91.6 Q 109.9 91.6, 113.3 95.4 Q 116.7 99.2, 116.7 106.0 Q 116.7 112.9, 113.3 116.8 Q 109.9 120.7, 103.7 120.7 Q 97.4 120.7, 94.0 116.8 Q 90.7 112.9, 90.7 106.0 M 103.7 117.5 Q 108.0 117.5, 110.3 114.6 Q 112.7 111.7, 112.7 106.0 Q 112.7 100.4, 110.3 97.6 Q 108.0 94.8, 103.7 94.8 Q 99.3 94.8, 97.0 97.6 Q 94.7 100.4, 94.7 106.0 Q 94.7 111.7, 97.0 114.6 Q 99.3 117.5, 103.7 117.5 " fill="#000000"/>
</svg>