<svg xmlns="http://www.w3.org/2000/svg" xmlns:rdkit="http://www.rdkit.org/xml" xmlns:xlink="http://www.w3.org/1999/xlink" version="1.1" baseProfile="full" xml:space="preserve" width="400px" height="300px" viewBox="0 0 400 300">
<!-- END OF HEADER -->
<rect style="opacity:1.0;fill:#FFFFFF;stroke:none" width="400.0" height="300.0" x="0.0" y="0.0"> </rect>
<path class="bond-0 atom-0 atom-1" d="M 380.0,196.3 L 374.0,169.4" style="fill:none;fill-rule:evenodd;stroke:#000000;stroke-width:2.0px;stroke-linecap:butt;stroke-linejoin:miter;stroke-opacity:1"/>
<path class="bond-1 atom-1 atom-2" d="M 361.4,155.4 L 334.7,147.0" style="fill:none;fill-rule:evenodd;stroke:#000000;stroke-width:2.0px;stroke-linecap:butt;stroke-linejoin:miter;stroke-opacity:1"/>
<path class="bond-2 atom-2 atom-3" d="M 334.7,147.0 L 306.2,173.2" style="fill:none;fill-rule:evenodd;stroke:#000000;stroke-width:2.0px;stroke-linecap:butt;stroke-linejoin:miter;stroke-opacity:1"/>
<path class="bond-2 atom-2 atom-3" d="M 328.3,145.0 L 304.7,166.6" style="fill:none;fill-rule:evenodd;stroke:#000000;stroke-width:2.0px;stroke-linecap:butt;stroke-linejoin:miter;stroke-opacity:1"/>
<path class="bond-3 atom-3 atom-4" d="M 306.2,173.2 L 269.3,161.6" style="fill:none;fill-rule:evenodd;stroke:#000000;stroke-width:2.0px;stroke-linecap:butt;stroke-linejoin:miter;stroke-opacity:1"/>
<path class="bond-4 atom-4 atom-5" d="M 269.3,161.6 L 260.9,123.9" style="fill:none;fill-rule:evenodd;stroke:#000000;stroke-width:2.0px;stroke-linecap:butt;stroke-linejoin:miter;stroke-opacity:1"/>
<path class="bond-4 atom-4 atom-5" d="M 274.2,157.1 L 267.3,125.9" style="fill:none;fill-rule:evenodd;stroke:#000000;stroke-width:2.0px;stroke-linecap:butt;stroke-linejoin:miter;stroke-opacity:1"/>
<path class="bond-5 atom-5 atom-6" d="M 260.9,123.9 L 233.3,115.2" style="fill:none;fill-rule:evenodd;stroke:#000000;stroke-width:2.0px;stroke-linecap:butt;stroke-linejoin:miter;stroke-opacity:1"/>
<path class="bond-6 atom-6 atom-7" d="M 218.4,101.7 L 206.1,78.0" style="fill:none;fill-rule:evenodd;stroke:#000000;stroke-width:2.0px;stroke-linecap:butt;stroke-linejoin:miter;stroke-opacity:1"/>
<path class="bond-7 atom-7 atom-8" d="M 208.0,81.7 L 217.0,52.8" style="fill:none;fill-rule:evenodd;stroke:#000000;stroke-width:2.0px;stroke-linecap:butt;stroke-linejoin:miter;stroke-opacity:1"/>
<path class="bond-7 atom-7 atom-8" d="M 202.4,79.9 L 211.5,51.1" style="fill:none;fill-rule:evenodd;stroke:#000000;stroke-width:2.0px;stroke-linecap:butt;stroke-linejoin:miter;stroke-opacity:1"/>
<path class="bond-8 atom-7 atom-9" d="M 206.1,78.0 L 171.8,95.9" style="fill:none;fill-rule:evenodd;stroke:#000000;stroke-width:2.0px;stroke-linecap:butt;stroke-linejoin:miter;stroke-opacity:1"/>
<path class="bond-9 atom-9 atom-10" d="M 171.8,95.9 L 189.7,130.2" style="fill:none;fill-rule:evenodd;stroke:#000000;stroke-width:2.0px;stroke-linecap:butt;stroke-linejoin:miter;stroke-opacity:1"/>
<path class="bond-10 atom-10 atom-11" d="M 189.7,130.2 L 155.4,148.1" style="fill:none;fill-rule:evenodd;stroke:#000000;stroke-width:2.0px;stroke-linecap:butt;stroke-linejoin:miter;stroke-opacity:1"/>
<path class="bond-11 atom-11 atom-12" d="M 152.6,146.3 L 151.4,175.9" style="fill:none;fill-rule:evenodd;stroke:#000000;stroke-width:2.0px;stroke-linecap:butt;stroke-linejoin:miter;stroke-opacity:1"/>
<path class="bond-11 atom-11 atom-12" d="M 158.4,146.6 L 157.2,176.2" style="fill:none;fill-rule:evenodd;stroke:#000000;stroke-width:2.0px;stroke-linecap:butt;stroke-linejoin:miter;stroke-opacity:1"/>
<path class="bond-12 atom-11 atom-13" d="M 155.4,148.1 L 132.1,133.3" style="fill:none;fill-rule:evenodd;stroke:#000000;stroke-width:2.0px;stroke-linecap:butt;stroke-linejoin:miter;stroke-opacity:1"/>
<path class="bond-13 atom-13 atom-14" d="M 113.5,132.3 L 88.5,145.3" style="fill:none;fill-rule:evenodd;stroke:#000000;stroke-width:2.0px;stroke-linecap:butt;stroke-linejoin:miter;stroke-opacity:1"/>
<path class="bond-14 atom-14 atom-15" d="M 88.5,145.3 L 55.9,124.6" style="fill:none;fill-rule:evenodd;stroke:#000000;stroke-width:2.0px;stroke-linecap:butt;stroke-linejoin:miter;stroke-opacity:1"/>
<path class="bond-14 atom-14 atom-15" d="M 82.6,148.4 L 55.6,131.3" style="fill:none;fill-rule:evenodd;stroke:#000000;stroke-width:2.0px;stroke-linecap:butt;stroke-linejoin:miter;stroke-opacity:1"/>
<path class="bond-15 atom-15 atom-16" d="M 55.9,124.6 L 57.5,85.9" style="fill:none;fill-rule:evenodd;stroke:#000000;stroke-width:2.0px;stroke-linecap:butt;stroke-linejoin:miter;stroke-opacity:1"/>
<path class="bond-16 atom-15 atom-17" d="M 55.9,124.6 L 21.6,142.5" style="fill:none;fill-rule:evenodd;stroke:#000000;stroke-width:2.0px;stroke-linecap:butt;stroke-linejoin:miter;stroke-opacity:1"/>
<path class="bond-17 atom-17 atom-18" d="M 21.6,142.5 L 20.0,181.1" style="fill:none;fill-rule:evenodd;stroke:#000000;stroke-width:2.0px;stroke-linecap:butt;stroke-linejoin:miter;stroke-opacity:1"/>
<path class="bond-17 atom-17 atom-18" d="M 27.3,146.1 L 25.9,178.0" style="fill:none;fill-rule:evenodd;stroke:#000000;stroke-width:2.0px;stroke-linecap:butt;stroke-linejoin:miter;stroke-opacity:1"/>
<path class="bond-18 atom-18 atom-19" d="M 20.0,181.1 L 52.6,201.8" style="fill:none;fill-rule:evenodd;stroke:#000000;stroke-width:2.0px;stroke-linecap:butt;stroke-linejoin:miter;stroke-opacity:1"/>
<path class="bond-19 atom-19 atom-20" d="M 52.6,201.8 L 86.9,183.9" style="fill:none;fill-rule:evenodd;stroke:#000000;stroke-width:2.0px;stroke-linecap:butt;stroke-linejoin:miter;stroke-opacity:1"/>
<path class="bond-19 atom-19 atom-20" d="M 52.9,195.2 L 81.3,180.3" style="fill:none;fill-rule:evenodd;stroke:#000000;stroke-width:2.0px;stroke-linecap:butt;stroke-linejoin:miter;stroke-opacity:1"/>
<path class="bond-20 atom-20 atom-21" d="M 86.9,183.9 L 119.6,204.7" style="fill:none;fill-rule:evenodd;stroke:#000000;stroke-width:2.0px;stroke-linecap:butt;stroke-linejoin:miter;stroke-opacity:1"/>
<path class="bond-21 atom-10 atom-22" d="M 189.7,130.2 L 207.6,164.5" style="fill:none;fill-rule:evenodd;stroke:#000000;stroke-width:2.0px;stroke-linecap:butt;stroke-linejoin:miter;stroke-opacity:1"/>
<path class="bond-22 atom-22 atom-23" d="M 207.6,164.5 L 245.9,170.1" style="fill:none;fill-rule:evenodd;stroke:#000000;stroke-width:2.0px;stroke-linecap:butt;stroke-linejoin:miter;stroke-opacity:1"/>
<path class="bond-22 atom-22 atom-23" d="M 210.9,170.8 L 240.9,175.2" style="fill:none;fill-rule:evenodd;stroke:#000000;stroke-width:2.0px;stroke-linecap:butt;stroke-linejoin:miter;stroke-opacity:1"/>
<path class="bond-23 atom-23 atom-24" d="M 245.9,170.1 L 252.3,208.2" style="fill:none;fill-rule:evenodd;stroke:#000000;stroke-width:2.0px;stroke-linecap:butt;stroke-linejoin:miter;stroke-opacity:1"/>
<path class="bond-24 atom-24 atom-25" d="M 252.3,208.2 L 218.1,226.2" style="fill:none;fill-rule:evenodd;stroke:#000000;stroke-width:2.0px;stroke-linecap:butt;stroke-linejoin:miter;stroke-opacity:1"/>
<path class="bond-24 atom-24 atom-25" d="M 245.9,205.1 L 219.1,219.1" style="fill:none;fill-rule:evenodd;stroke:#000000;stroke-width:2.0px;stroke-linecap:butt;stroke-linejoin:miter;stroke-opacity:1"/>
<path class="bond-25 atom-25 atom-26" d="M 218.1,226.2 L 212.4,264.4" style="fill:none;fill-rule:evenodd;stroke:#000000;stroke-width:2.0px;stroke-linecap:butt;stroke-linejoin:miter;stroke-opacity:1"/>
<path class="bond-26 atom-25 atom-27" d="M 218.1,226.2 L 200.6,209.1" style="fill:none;fill-rule:evenodd;stroke:#000000;stroke-width:2.0px;stroke-linecap:butt;stroke-linejoin:miter;stroke-opacity:1"/>
<path class="bond-27 atom-5 atom-28" d="M 260.9,123.9 L 289.3,97.7" style="fill:none;fill-rule:evenodd;stroke:#000000;stroke-width:2.0px;stroke-linecap:butt;stroke-linejoin:miter;stroke-opacity:1"/>
<path class="bond-28 atom-28 atom-29" d="M 289.3,97.7 L 326.2,109.3" style="fill:none;fill-rule:evenodd;stroke:#000000;stroke-width:2.0px;stroke-linecap:butt;stroke-linejoin:miter;stroke-opacity:1"/>
<path class="bond-28 atom-28 atom-29" d="M 290.8,104.2 L 321.3,113.8" style="fill:none;fill-rule:evenodd;stroke:#000000;stroke-width:2.0px;stroke-linecap:butt;stroke-linejoin:miter;stroke-opacity:1"/>
<path class="bond-29 atom-29 atom-2" d="M 326.2,109.3 L 334.7,147.0" style="fill:none;fill-rule:evenodd;stroke:#000000;stroke-width:2.0px;stroke-linecap:butt;stroke-linejoin:miter;stroke-opacity:1"/>
<path class="bond-30 atom-10 atom-6" d="M 189.7,130.2 L 214.7,117.1" style="fill:none;fill-rule:evenodd;stroke:#000000;stroke-width:2.0px;stroke-linecap:butt;stroke-linejoin:miter;stroke-opacity:1"/>
<path class="bond-31 atom-20 atom-14" d="M 86.9,183.9 L 88.5,145.3" style="fill:none;fill-rule:evenodd;stroke:#000000;stroke-width:2.0px;stroke-linecap:butt;stroke-linejoin:miter;stroke-opacity:1"/>
<path class="bond-32 atom-27 atom-22" d="M 195.7,188.4 L 207.6,164.5" style="fill:none;fill-rule:evenodd;stroke:#000000;stroke-width:2.0px;stroke-linecap:butt;stroke-linejoin:miter;stroke-opacity:1"/>
<path d="M 307.6,171.9 L 306.2,173.2 L 304.4,172.6" style="fill:none;stroke:#000000;stroke-width:2.0px;stroke-linecap:butt;stroke-linejoin:miter;stroke-opacity:1;"/>
<path d="M 271.2,162.2 L 269.3,161.6 L 268.9,159.7" style="fill:none;stroke:#000000;stroke-width:2.0px;stroke-linecap:butt;stroke-linejoin:miter;stroke-opacity:1;"/>
<path d="M 206.7,79.2 L 206.1,78.0 L 204.4,78.9" style="fill:none;stroke:#000000;stroke-width:2.0px;stroke-linecap:butt;stroke-linejoin:miter;stroke-opacity:1;"/>
<path d="M 173.5,95.0 L 171.8,95.9 L 172.7,97.6" style="fill:none;stroke:#000000;stroke-width:2.0px;stroke-linecap:butt;stroke-linejoin:miter;stroke-opacity:1;"/>
<path d="M 157.2,147.2 L 155.4,148.1 L 154.3,147.4" style="fill:none;stroke:#000000;stroke-width:2.0px;stroke-linecap:butt;stroke-linejoin:miter;stroke-opacity:1;"/>
<path d="M 23.3,141.6 L 21.6,142.5 L 21.5,144.4" style="fill:none;stroke:#000000;stroke-width:2.0px;stroke-linecap:butt;stroke-linejoin:miter;stroke-opacity:1;"/>
<path d="M 20.1,179.2 L 20.0,181.1 L 21.6,182.2" style="fill:none;stroke:#000000;stroke-width:2.0px;stroke-linecap:butt;stroke-linejoin:miter;stroke-opacity:1;"/>
<path d="M 51.0,200.8 L 52.6,201.8 L 54.4,201.0" style="fill:none;stroke:#000000;stroke-width:2.0px;stroke-linecap:butt;stroke-linejoin:miter;stroke-opacity:1;"/>
<path d="M 244.0,169.8 L 245.9,170.1 L 246.2,172.0" style="fill:none;stroke:#000000;stroke-width:2.0px;stroke-linecap:butt;stroke-linejoin:miter;stroke-opacity:1;"/>
<path d="M 252.0,206.3 L 252.3,208.2 L 250.6,209.1" style="fill:none;stroke:#000000;stroke-width:2.0px;stroke-linecap:butt;stroke-linejoin:miter;stroke-opacity:1;"/>
<path d="M 287.9,99.0 L 289.3,97.7 L 291.2,98.3" style="fill:none;stroke:#000000;stroke-width:2.0px;stroke-linecap:butt;stroke-linejoin:miter;stroke-opacity:1;"/>
<path d="M 324.4,108.7 L 326.2,109.3 L 326.7,111.1" style="fill:none;stroke:#000000;stroke-width:2.0px;stroke-linecap:butt;stroke-linejoin:miter;stroke-opacity:1;"/>
<path class="atom-1" d="M 366.5 158.6 Q 366.5 156.0, 367.8 154.5 Q 369.1 153.0, 371.6 153.0 Q 374.0 153.0, 375.3 154.5 Q 376.6 156.0, 376.6 158.6 Q 376.6 161.2, 375.3 162.8 Q 374.0 164.3, 371.6 164.3 Q 369.2 164.3, 367.8 162.8 Q 366.5 161.3, 366.5 158.6 M 371.6 163.0 Q 373.2 163.0, 374.1 161.9 Q 375.0 160.8, 375.0 158.6 Q 375.0 156.4, 374.1 155.4 Q 373.2 154.3, 371.6 154.3 Q 369.9 154.3, 369.0 155.3 Q 368.1 156.4, 368.1 158.6 Q 368.1 160.8, 369.0 161.9 Q 369.9 163.0, 371.6 163.0 " fill="#000000"/>
<path class="atom-6" d="M 221.6 106.8 L 225.2 112.6 Q 225.5 113.2, 226.1 114.2 Q 226.7 115.3, 226.7 115.3 L 226.7 106.8 L 228.1 106.8 L 228.1 117.8 L 226.6 117.8 L 222.8 111.4 Q 222.3 110.7, 221.9 109.8 Q 221.4 109.0, 221.3 108.7 L 221.3 117.8 L 219.8 117.8 L 219.8 106.8 L 221.6 106.8 " fill="#000000"/>
<path class="atom-8" d="M 212.6 41.2 Q 212.6 38.5, 213.9 37.1 Q 215.2 35.6, 217.6 35.6 Q 220.1 35.6, 221.4 37.1 Q 222.7 38.5, 222.7 41.2 Q 222.7 43.8, 221.4 45.3 Q 220.0 46.8, 217.6 46.8 Q 215.2 46.8, 213.9 45.3 Q 212.6 43.8, 212.6 41.2 M 217.6 45.6 Q 219.3 45.6, 220.2 44.5 Q 221.1 43.4, 221.1 41.2 Q 221.1 39.0, 220.2 37.9 Q 219.3 36.8, 217.6 36.8 Q 216.0 36.8, 215.1 37.9 Q 214.2 39.0, 214.2 41.2 Q 214.2 43.4, 215.1 44.5 Q 216.0 45.6, 217.6 45.6 " fill="#000000"/>
<path class="atom-12" d="M 148.8 186.8 Q 148.8 184.1, 150.1 182.7 Q 151.4 181.2, 153.8 181.2 Q 156.3 181.2, 157.6 182.7 Q 158.9 184.1, 158.9 186.8 Q 158.9 189.4, 157.5 191.0 Q 156.2 192.5, 153.8 192.5 Q 151.4 192.5, 150.1 191.0 Q 148.8 189.5, 148.8 186.8 M 153.8 191.2 Q 155.5 191.2, 156.4 190.1 Q 157.3 189.0, 157.3 186.8 Q 157.3 184.6, 156.4 183.5 Q 155.5 182.4, 153.8 182.4 Q 152.2 182.4, 151.2 183.5 Q 150.3 184.6, 150.3 186.8 Q 150.3 189.0, 151.2 190.1 Q 152.2 191.2, 153.8 191.2 " fill="#000000"/>
<path class="atom-13" d="M 120.4 121.9 L 124.0 127.7 Q 124.3 128.3, 124.9 129.3 Q 125.5 130.4, 125.5 130.4 L 125.5 121.9 L 127.0 121.9 L 127.0 132.9 L 125.5 132.9 L 121.6 126.5 Q 121.2 125.8, 120.7 124.9 Q 120.2 124.1, 120.1 123.8 L 120.1 132.9 L 118.7 132.9 L 118.7 121.9 L 120.4 121.9 " fill="#000000"/>
<path class="atom-13" d="M 118.5 109.9 L 120.0 109.9 L 120.0 114.5 L 125.6 114.5 L 125.6 109.9 L 127.1 109.9 L 127.1 120.8 L 125.6 120.8 L 125.6 115.8 L 120.0 115.8 L 120.0 120.8 L 118.5 120.8 L 118.5 109.9 " fill="#000000"/>
<path class="atom-27" d="M 185.4 199.1 Q 185.4 196.5, 186.7 195.0 Q 188.0 193.6, 190.4 193.6 Q 192.9 193.6, 194.2 195.0 Q 195.5 196.5, 195.5 199.1 Q 195.5 201.8, 194.1 203.3 Q 192.8 204.8, 190.4 204.8 Q 188.0 204.8, 186.7 203.3 Q 185.4 201.8, 185.4 199.1 M 190.4 203.6 Q 192.1 203.6, 193.0 202.5 Q 193.9 201.3, 193.9 199.1 Q 193.9 197.0, 193.0 195.9 Q 192.1 194.8, 190.4 194.8 Q 188.8 194.8, 187.8 195.9 Q 187.0 197.0, 187.0 199.1 Q 187.0 201.3, 187.8 202.5 Q 188.8 203.6, 190.4 203.6 " fill="#000000"/>
</svg>