<svg xmlns="http://www.w3.org/2000/svg" xmlns:rdkit="http://www.rdkit.org/xml" xmlns:xlink="http://www.w3.org/1999/xlink" version="1.1" baseProfile="full" xml:space="preserve" width="400px" height="300px" viewBox="0 0 400 300">
<!-- END OF HEADER -->
<rect style="opacity:1.0;fill:#FFFFFF;stroke:none" width="400.0" height="300.0" x="0.0" y="0.0"> </rect>
<path class="bond-0 atom-0 atom-1" d="M 336.0,81.4 L 320.1,98.8" style="fill:none;fill-rule:evenodd;stroke:#000000;stroke-width:2.0px;stroke-linecap:butt;stroke-linejoin:miter;stroke-opacity:1"/>
<path class="bond-1 atom-1 atom-2" d="M 320.1,98.8 L 282.9,90.5" style="fill:none;fill-rule:evenodd;stroke:#000000;stroke-width:2.0px;stroke-linecap:butt;stroke-linejoin:miter;stroke-opacity:1"/>
<path class="bond-1 atom-1 atom-2" d="M 315.6,103.6 L 284.9,96.8" style="fill:none;fill-rule:evenodd;stroke:#000000;stroke-width:2.0px;stroke-linecap:butt;stroke-linejoin:miter;stroke-opacity:1"/>
<path class="bond-2 atom-2 atom-3" d="M 282.9,90.5 L 257.2,118.5" style="fill:none;fill-rule:evenodd;stroke:#000000;stroke-width:2.0px;stroke-linecap:butt;stroke-linejoin:miter;stroke-opacity:1"/>
<path class="bond-3 atom-3 atom-4" d="M 257.2,118.5 L 268.6,154.8" style="fill:none;fill-rule:evenodd;stroke:#000000;stroke-width:2.0px;stroke-linecap:butt;stroke-linejoin:miter;stroke-opacity:1"/>
<path class="bond-3 atom-3 atom-4" d="M 263.6,120.0 L 273.0,150.0" style="fill:none;fill-rule:evenodd;stroke:#000000;stroke-width:2.0px;stroke-linecap:butt;stroke-linejoin:miter;stroke-opacity:1"/>
<path class="bond-4 atom-4 atom-5" d="M 268.6,154.8 L 242.8,182.9" style="fill:none;fill-rule:evenodd;stroke:#000000;stroke-width:2.0px;stroke-linecap:butt;stroke-linejoin:miter;stroke-opacity:1"/>
<path class="bond-5 atom-5 atom-6" d="M 242.8,182.9 L 214.8,176.6" style="fill:none;fill-rule:evenodd;stroke:#000000;stroke-width:2.0px;stroke-linecap:butt;stroke-linejoin:miter;stroke-opacity:1"/>
<path class="bond-6 atom-6 atom-7" d="M 202.4,164.1 L 194.3,138.3" style="fill:none;fill-rule:evenodd;stroke:#000000;stroke-width:2.0px;stroke-linecap:butt;stroke-linejoin:miter;stroke-opacity:1"/>
<path class="bond-7 atom-7 atom-8" d="M 194.3,138.3 L 157.2,130.0" style="fill:none;fill-rule:evenodd;stroke:#000000;stroke-width:2.0px;stroke-linecap:butt;stroke-linejoin:miter;stroke-opacity:1"/>
<path class="bond-8 atom-8 atom-9" d="M 157.2,130.0 L 140.6,148.1" style="fill:none;fill-rule:evenodd;stroke:#000000;stroke-width:2.0px;stroke-linecap:butt;stroke-linejoin:miter;stroke-opacity:1"/>
<path class="bond-9 atom-9 atom-10" d="M 122.3,156.0 L 94.3,149.7" style="fill:none;fill-rule:evenodd;stroke:#000000;stroke-width:2.0px;stroke-linecap:butt;stroke-linejoin:miter;stroke-opacity:1"/>
<path class="bond-10 atom-10 atom-11" d="M 94.3,149.7 L 82.9,113.4" style="fill:none;fill-rule:evenodd;stroke:#000000;stroke-width:2.0px;stroke-linecap:butt;stroke-linejoin:miter;stroke-opacity:1"/>
<path class="bond-10 atom-10 atom-11" d="M 87.8,148.3 L 78.4,118.3" style="fill:none;fill-rule:evenodd;stroke:#000000;stroke-width:2.0px;stroke-linecap:butt;stroke-linejoin:miter;stroke-opacity:1"/>
<path class="bond-11 atom-11 atom-12" d="M 82.9,113.4 L 45.7,105.2" style="fill:none;fill-rule:evenodd;stroke:#000000;stroke-width:2.0px;stroke-linecap:butt;stroke-linejoin:miter;stroke-opacity:1"/>
<path class="bond-12 atom-12 atom-13" d="M 45.7,105.2 L 20.0,133.2" style="fill:none;fill-rule:evenodd;stroke:#000000;stroke-width:2.0px;stroke-linecap:butt;stroke-linejoin:miter;stroke-opacity:1"/>
<path class="bond-12 atom-12 atom-13" d="M 47.7,111.4 L 26.4,134.6" style="fill:none;fill-rule:evenodd;stroke:#000000;stroke-width:2.0px;stroke-linecap:butt;stroke-linejoin:miter;stroke-opacity:1"/>
<path class="bond-13 atom-13 atom-14" d="M 20.0,133.2 L 31.4,169.5" style="fill:none;fill-rule:evenodd;stroke:#000000;stroke-width:2.0px;stroke-linecap:butt;stroke-linejoin:miter;stroke-opacity:1"/>
<path class="bond-14 atom-14 atom-15" d="M 31.4,169.5 L 59.4,175.7" style="fill:none;fill-rule:evenodd;stroke:#000000;stroke-width:2.0px;stroke-linecap:butt;stroke-linejoin:miter;stroke-opacity:1"/>
<path class="bond-14 atom-14 atom-15" d="M 35.9,164.6 L 60.6,170.2" style="fill:none;fill-rule:evenodd;stroke:#000000;stroke-width:2.0px;stroke-linecap:butt;stroke-linejoin:miter;stroke-opacity:1"/>
<path class="bond-15 atom-9 atom-16" d="M 134.7,168.5 L 142.8,194.3" style="fill:none;fill-rule:evenodd;stroke:#000000;stroke-width:2.0px;stroke-linecap:butt;stroke-linejoin:miter;stroke-opacity:1"/>
<path class="bond-16 atom-16 atom-17" d="M 142.8,194.3 L 180.0,202.6" style="fill:none;fill-rule:evenodd;stroke:#000000;stroke-width:2.0px;stroke-linecap:butt;stroke-linejoin:miter;stroke-opacity:1"/>
<path class="bond-17 atom-4 atom-18" d="M 268.6,154.8 L 305.7,163.1" style="fill:none;fill-rule:evenodd;stroke:#000000;stroke-width:2.0px;stroke-linecap:butt;stroke-linejoin:miter;stroke-opacity:1"/>
<path class="bond-18 atom-18 atom-19" d="M 305.7,163.1 L 317.1,199.4" style="fill:none;fill-rule:evenodd;stroke:#000000;stroke-width:2.0px;stroke-linecap:butt;stroke-linejoin:miter;stroke-opacity:1"/>
<path class="bond-18 atom-18 atom-19" d="M 312.2,164.5 L 321.6,194.6" style="fill:none;fill-rule:evenodd;stroke:#000000;stroke-width:2.0px;stroke-linecap:butt;stroke-linejoin:miter;stroke-opacity:1"/>
<path class="bond-19 atom-19 atom-20" d="M 317.1,199.4 L 354.3,207.7" style="fill:none;fill-rule:evenodd;stroke:#000000;stroke-width:2.0px;stroke-linecap:butt;stroke-linejoin:miter;stroke-opacity:1"/>
<path class="bond-20 atom-20 atom-21" d="M 354.3,207.7 L 380.0,179.7" style="fill:none;fill-rule:evenodd;stroke:#000000;stroke-width:2.0px;stroke-linecap:butt;stroke-linejoin:miter;stroke-opacity:1"/>
<path class="bond-20 atom-20 atom-21" d="M 352.3,201.4 L 373.6,178.2" style="fill:none;fill-rule:evenodd;stroke:#000000;stroke-width:2.0px;stroke-linecap:butt;stroke-linejoin:miter;stroke-opacity:1"/>
<path class="bond-21 atom-21 atom-22" d="M 380.0,179.7 L 371.9,153.8" style="fill:none;fill-rule:evenodd;stroke:#000000;stroke-width:2.0px;stroke-linecap:butt;stroke-linejoin:miter;stroke-opacity:1"/>
<path class="bond-22 atom-22 atom-23" d="M 359.5,141.3 L 331.5,135.1" style="fill:none;fill-rule:evenodd;stroke:#000000;stroke-width:2.0px;stroke-linecap:butt;stroke-linejoin:miter;stroke-opacity:1"/>
<path class="bond-22 atom-22 atom-23" d="M 358.2,146.9 L 333.4,141.4" style="fill:none;fill-rule:evenodd;stroke:#000000;stroke-width:2.0px;stroke-linecap:butt;stroke-linejoin:miter;stroke-opacity:1"/>
<path class="bond-23 atom-23 atom-1" d="M 331.5,135.1 L 320.1,98.8" style="fill:none;fill-rule:evenodd;stroke:#000000;stroke-width:2.0px;stroke-linecap:butt;stroke-linejoin:miter;stroke-opacity:1"/>
<path class="bond-24 atom-17 atom-6" d="M 180.0,202.6 L 196.6,184.5" style="fill:none;fill-rule:evenodd;stroke:#000000;stroke-width:2.0px;stroke-linecap:butt;stroke-linejoin:miter;stroke-opacity:1"/>
<path class="bond-25 atom-23 atom-18" d="M 331.5,135.1 L 305.7,163.1" style="fill:none;fill-rule:evenodd;stroke:#000000;stroke-width:2.0px;stroke-linecap:butt;stroke-linejoin:miter;stroke-opacity:1"/>
<path class="bond-26 atom-15 atom-10" d="M 77.7,167.8 L 94.3,149.7" style="fill:none;fill-rule:evenodd;stroke:#000000;stroke-width:2.0px;stroke-linecap:butt;stroke-linejoin:miter;stroke-opacity:1"/>
<path d="M 284.8,90.9 L 282.9,90.5 L 281.6,91.9" style="fill:none;stroke:#000000;stroke-width:2.0px;stroke-linecap:butt;stroke-linejoin:miter;stroke-opacity:1;"/>
<path d="M 258.5,117.1 L 257.2,118.5 L 257.7,120.3" style="fill:none;stroke:#000000;stroke-width:2.0px;stroke-linecap:butt;stroke-linejoin:miter;stroke-opacity:1;"/>
<path d="M 244.1,181.5 L 242.8,182.9 L 241.4,182.5" style="fill:none;stroke:#000000;stroke-width:2.0px;stroke-linecap:butt;stroke-linejoin:miter;stroke-opacity:1;"/>
<path d="M 194.7,139.6 L 194.3,138.3 L 192.4,137.9" style="fill:none;stroke:#000000;stroke-width:2.0px;stroke-linecap:butt;stroke-linejoin:miter;stroke-opacity:1;"/>
<path d="M 159.0,130.4 L 157.2,130.0 L 156.3,130.9" style="fill:none;stroke:#000000;stroke-width:2.0px;stroke-linecap:butt;stroke-linejoin:miter;stroke-opacity:1;"/>
<path d="M 83.4,115.3 L 82.9,113.4 L 81.0,113.0" style="fill:none;stroke:#000000;stroke-width:2.0px;stroke-linecap:butt;stroke-linejoin:miter;stroke-opacity:1;"/>
<path d="M 47.6,105.6 L 45.7,105.2 L 44.5,106.6" style="fill:none;stroke:#000000;stroke-width:2.0px;stroke-linecap:butt;stroke-linejoin:miter;stroke-opacity:1;"/>
<path d="M 21.3,131.8 L 20.0,133.2 L 20.6,135.0" style="fill:none;stroke:#000000;stroke-width:2.0px;stroke-linecap:butt;stroke-linejoin:miter;stroke-opacity:1;"/>
<path d="M 30.8,167.7 L 31.4,169.5 L 32.8,169.8" style="fill:none;stroke:#000000;stroke-width:2.0px;stroke-linecap:butt;stroke-linejoin:miter;stroke-opacity:1;"/>
<path d="M 142.4,193.0 L 142.8,194.3 L 144.7,194.7" style="fill:none;stroke:#000000;stroke-width:2.0px;stroke-linecap:butt;stroke-linejoin:miter;stroke-opacity:1;"/>
<path d="M 178.1,202.2 L 180.0,202.6 L 180.8,201.7" style="fill:none;stroke:#000000;stroke-width:2.0px;stroke-linecap:butt;stroke-linejoin:miter;stroke-opacity:1;"/>
<path d="M 316.6,197.6 L 317.1,199.4 L 319.0,199.8" style="fill:none;stroke:#000000;stroke-width:2.0px;stroke-linecap:butt;stroke-linejoin:miter;stroke-opacity:1;"/>
<path d="M 352.4,207.3 L 354.3,207.7 L 355.5,206.3" style="fill:none;stroke:#000000;stroke-width:2.0px;stroke-linecap:butt;stroke-linejoin:miter;stroke-opacity:1;"/>
<path d="M 378.7,181.1 L 380.0,179.7 L 379.6,178.4" style="fill:none;stroke:#000000;stroke-width:2.0px;stroke-linecap:butt;stroke-linejoin:miter;stroke-opacity:1;"/>
<path class="atom-0" d="M 340.9 70.8 Q 340.9 68.2, 342.1 66.8 Q 343.4 65.3, 345.8 65.3 Q 348.2 65.3, 349.5 66.8 Q 350.7 68.2, 350.7 70.8 Q 350.7 73.4, 349.5 74.9 Q 348.2 76.4, 345.8 76.4 Q 343.4 76.4, 342.1 74.9 Q 340.9 73.4, 340.9 70.8 M 345.8 75.2 Q 347.4 75.2, 348.3 74.1 Q 349.2 72.9, 349.2 70.8 Q 349.2 68.7, 348.3 67.6 Q 347.4 66.5, 345.8 66.5 Q 344.2 66.5, 343.3 67.6 Q 342.4 68.7, 342.4 70.8 Q 342.4 73.0, 343.3 74.1 Q 344.2 75.2, 345.8 75.2 " fill="#000000"/>
<path class="atom-0" d="M 352.4 65.4 L 353.9 65.4 L 353.9 70.0 L 359.4 70.0 L 359.4 65.4 L 360.9 65.4 L 360.9 76.2 L 359.4 76.2 L 359.4 71.2 L 353.9 71.2 L 353.9 76.2 L 352.4 76.2 L 352.4 65.4 " fill="#000000"/>
<path class="atom-6" d="M 203.3 169.2 L 206.8 174.9 Q 207.2 175.5, 207.8 176.5 Q 208.3 177.5, 208.4 177.6 L 208.4 169.2 L 209.8 169.2 L 209.8 180.0 L 208.3 180.0 L 204.5 173.7 Q 204.1 173.0, 203.6 172.2 Q 203.2 171.3, 203.0 171.1 L 203.0 180.0 L 201.6 180.0 L 201.6 169.2 L 203.3 169.2 " fill="#000000"/>
<path class="atom-9" d="M 129.0 152.6 L 132.6 158.3 Q 132.9 158.9, 133.5 159.9 Q 134.0 160.9, 134.1 161.0 L 134.1 152.6 L 135.5 152.6 L 135.5 163.4 L 134.0 163.4 L 130.2 157.2 Q 129.8 156.4, 129.3 155.6 Q 128.9 154.8, 128.7 154.5 L 128.7 163.4 L 127.3 163.4 L 127.3 152.6 L 129.0 152.6 " fill="#000000"/>
<path class="atom-15" d="M 66.2 172.4 L 69.7 178.1 Q 70.0 178.7, 70.6 179.7 Q 71.2 180.7, 71.2 180.8 L 71.2 172.4 L 72.6 172.4 L 72.6 183.2 L 71.2 183.2 L 67.4 176.9 Q 66.9 176.2, 66.4 175.3 Q 66.0 174.5, 65.9 174.3 L 65.9 183.2 L 64.5 183.2 L 64.5 172.4 L 66.2 172.4 " fill="#000000"/>
<path class="atom-22" d="M 366.2 138.0 L 369.7 143.7 Q 370.1 144.2, 370.7 145.3 Q 371.2 146.3, 371.3 146.3 L 371.3 138.0 L 372.7 138.0 L 372.7 148.8 L 371.2 148.8 L 367.4 142.5 Q 367.0 141.8, 366.5 140.9 Q 366.0 140.1, 365.9 139.8 L 365.9 148.8 L 364.5 148.8 L 364.5 138.0 L 366.2 138.0 " fill="#000000"/>
<path class="legend" d="M 138.7 275.3 Q 138.7 272.6, 140.0 271.0 Q 141.4 269.5, 143.9 269.5 Q 146.4 269.5, 147.7 271.0 Q 149.1 272.6, 149.1 275.3 Q 149.1 278.0, 147.7 279.6 Q 146.4 281.2, 143.9 281.2 Q 141.4 281.2, 140.0 279.6 Q 138.7 278.1, 138.7 275.3 M 143.9 279.9 Q 145.6 279.9, 146.5 278.7 Q 147.5 277.6, 147.5 275.3 Q 147.5 273.1, 146.5 271.9 Q 145.6 270.8, 143.9 270.8 Q 142.1 270.8, 141.2 271.9 Q 140.3 273.0, 140.3 275.3 Q 140.3 277.6, 141.2 278.7 Q 142.1 279.9, 143.9 279.9 " fill="#000000"/>
<path class="legend" d="M 151.6 272.8 L 151.8 273.9 Q 152.7 272.6, 154.1 272.6 Q 154.5 272.6, 155.1 272.8 L 154.9 274.1 Q 154.2 274.0, 153.8 274.0 Q 153.2 274.0, 152.7 274.2 Q 152.3 274.5, 151.9 275.1 L 151.9 281.0 L 150.4 281.0 L 150.4 272.8 L 151.6 272.8 " fill="#000000"/>
<path class="legend" d="M 155.9 269.7 L 157.4 269.7 L 157.4 271.0 L 155.9 271.0 L 155.9 269.7 M 155.9 272.8 L 157.4 272.8 L 157.4 281.0 L 155.9 281.0 L 155.9 272.8 " fill="#000000"/>
<path class="legend" d="M 166.8 272.7 L 166.8 281.5 Q 166.8 285.0, 163.0 285.0 Q 161.2 285.0, 159.6 284.2 L 160.1 283.1 Q 161.0 283.5, 161.6 283.7 Q 162.2 283.8, 163.0 283.8 Q 164.2 283.8, 164.8 283.3 Q 165.3 282.7, 165.3 281.5 L 165.3 280.1 Q 164.4 281.1, 162.9 281.1 Q 161.2 281.1, 160.3 280.1 Q 159.3 279.0, 159.3 277.0 Q 159.3 274.9, 160.4 273.8 Q 161.6 272.6, 163.5 272.6 Q 164.6 272.6, 165.5 272.9 L 165.6 272.7 L 166.8 272.7 M 163.0 279.9 Q 163.9 279.9, 164.5 279.5 Q 165.1 279.0, 165.3 278.2 L 165.3 274.0 Q 164.5 273.8, 163.6 273.8 Q 162.3 273.8, 161.6 274.6 Q 160.9 275.5, 160.9 277.0 Q 160.9 278.4, 161.4 279.2 Q 162.0 279.9, 163.0 279.9 " fill="#000000"/>
<path class="legend" d="M 168.7 269.7 L 170.1 269.7 L 170.1 271.0 L 168.7 271.0 L 168.7 269.7 M 168.7 272.8 L 170.1 272.8 L 170.1 281.0 L 168.7 281.0 L 168.7 272.8 " fill="#000000"/>
<path class="legend" d="M 176.3 272.6 Q 177.7 272.6, 178.3 273.4 Q 179.0 274.1, 179.0 275.5 L 179.0 281.0 L 177.5 281.0 L 177.5 275.7 Q 177.5 274.7, 177.2 274.2 Q 176.8 273.8, 176.0 273.8 Q 175.2 273.8, 174.6 274.2 Q 174.0 274.5, 173.6 275.1 L 173.6 281.0 L 172.1 281.0 L 172.1 272.8 L 173.3 272.8 L 173.5 273.9 Q 174.6 272.6, 176.3 272.6 " fill="#000000"/>
<path class="legend" d="M 180.8 278.8 Q 180.8 277.4, 181.9 276.7 Q 182.9 276.0, 184.9 276.0 L 186.1 276.0 L 186.1 275.7 Q 186.1 274.7, 185.7 274.2 Q 185.2 273.8, 184.2 273.8 Q 183.6 273.8, 183.0 273.9 Q 182.5 274.0, 181.7 274.4 L 181.3 273.4 Q 182.8 272.6, 184.2 272.6 Q 186.0 272.6, 186.8 273.4 Q 187.6 274.1, 187.6 275.7 L 187.6 281.0 L 186.4 281.0 Q 186.4 280.9, 186.4 280.7 Q 186.3 280.4, 186.2 280.0 Q 185.1 281.2, 183.5 281.2 Q 182.3 281.2, 181.6 280.5 Q 180.8 279.9, 180.8 278.8 M 182.3 278.7 Q 182.3 279.3, 182.7 279.7 Q 183.1 280.0, 183.8 280.0 Q 184.5 280.0, 185.1 279.7 Q 185.7 279.4, 186.1 278.9 L 186.1 277.1 L 185.0 277.1 Q 183.7 277.1, 183.0 277.5 Q 182.3 277.9, 182.3 278.7 " fill="#000000"/>
<path class="legend" d="M 189.4 268.8 L 190.8 268.8 L 190.8 281.0 L 189.4 281.0 L 189.4 268.8 " fill="#000000"/>
<path class="legend" d="" fill="#000000"/>
<path class="legend" d="M 211.6 281.0 L 210.1 281.0 L 208.9 271.7 L 205.9 281.0 L 204.3 281.0 L 201.3 271.7 L 200.1 281.0 L 198.6 281.0 L 200.1 269.7 L 202.0 269.7 L 205.1 278.8 L 208.2 269.7 L 210.1 269.7 L 211.6 281.0 " fill="#000000"/>
<path class="legend" d="M 213.2 276.9 Q 213.2 274.9, 214.2 273.7 Q 215.2 272.6, 217.1 272.6 Q 219.0 272.6, 220.0 273.7 Q 221.0 274.9, 221.0 276.9 Q 221.0 278.9, 220.0 280.0 Q 219.0 281.1, 217.1 281.1 Q 215.2 281.1, 214.2 280.0 Q 213.2 278.9, 213.2 276.9 M 214.7 276.9 Q 214.7 278.4, 215.3 279.1 Q 215.9 279.9, 217.1 279.9 Q 218.2 279.9, 218.8 279.1 Q 219.4 278.4, 219.4 276.9 Q 219.4 275.4, 218.8 274.6 Q 218.2 273.8, 217.1 273.8 Q 215.9 273.8, 215.3 274.6 Q 214.7 275.4, 214.7 276.9 " fill="#000000"/>
<path class="legend" d="M 222.3 268.8 L 223.7 268.8 L 223.7 281.0 L 222.3 281.0 L 222.3 268.8 " fill="#000000"/>
<path class="legend" d="M 225.7 276.9 Q 225.7 274.8, 226.7 273.7 Q 227.7 272.6, 229.5 272.6 Q 231.3 272.6, 232.1 273.7 Q 232.9 274.8, 232.9 276.8 L 232.9 277.1 L 227.2 277.1 Q 227.2 278.5, 227.9 279.2 Q 228.5 279.9, 229.6 279.9 Q 230.3 279.9, 230.9 279.8 Q 231.5 279.6, 232.2 279.3 L 232.6 280.3 Q 231.8 280.7, 231.1 280.9 Q 230.3 281.1, 229.6 281.1 Q 227.7 281.1, 226.7 280.0 Q 225.7 278.9, 225.7 276.9 M 229.5 273.8 Q 228.6 273.8, 228.0 274.3 Q 227.4 274.9, 227.3 275.9 L 231.4 275.9 Q 231.2 274.8, 230.8 274.3 Q 230.3 273.8, 229.5 273.8 " fill="#000000"/>
<path class="legend" d="M 234.1 276.9 Q 234.1 274.9, 235.1 273.8 Q 236.1 272.6, 238.0 272.6 Q 239.9 272.6, 240.9 274.0 L 239.9 274.7 Q 239.5 274.3, 239.0 274.0 Q 238.6 273.8, 238.0 273.8 Q 236.9 273.8, 236.3 274.6 Q 235.6 275.4, 235.6 276.9 Q 235.6 278.4, 236.3 279.2 Q 236.9 279.9, 238.1 279.9 Q 238.8 279.9, 239.3 279.8 Q 239.7 279.6, 240.3 279.4 L 240.7 280.4 Q 239.5 281.1, 238.0 281.1 Q 236.1 281.1, 235.1 280.0 Q 234.1 278.8, 234.1 276.9 " fill="#000000"/>
<path class="legend" d="M 248.8 272.8 L 248.8 281.0 L 247.6 281.0 L 247.4 279.8 Q 246.3 281.1, 244.6 281.1 Q 243.2 281.1, 242.5 280.4 Q 241.8 279.6, 241.8 278.2 L 241.8 272.8 L 243.3 272.8 L 243.3 278.1 Q 243.3 279.1, 243.7 279.5 Q 244.1 279.9, 244.9 279.9 Q 245.6 279.9, 246.3 279.6 Q 246.9 279.3, 247.3 278.6 L 247.3 272.8 L 248.8 272.8 " fill="#000000"/>
<path class="legend" d="M 250.7 268.8 L 252.1 268.8 L 252.1 281.0 L 250.7 281.0 L 250.7 268.8 " fill="#000000"/>
<path class="legend" d="M 254.0 276.9 Q 254.0 274.8, 255.1 273.7 Q 256.1 272.6, 257.9 272.6 Q 259.7 272.6, 260.5 273.7 Q 261.3 274.8, 261.3 276.8 L 261.3 277.1 L 255.6 277.1 Q 255.6 278.5, 256.2 279.2 Q 256.9 279.9, 258.0 279.9 Q 258.7 279.9, 259.3 279.8 Q 259.9 279.6, 260.6 279.3 L 261.0 280.3 Q 260.2 280.7, 259.5 280.9 Q 258.7 281.1, 258.0 281.1 Q 256.1 281.1, 255.1 280.0 Q 254.0 278.9, 254.0 276.9 M 257.9 273.8 Q 257.0 273.8, 256.4 274.3 Q 255.8 274.9, 255.6 275.9 L 259.7 275.9 Q 259.6 274.8, 259.2 274.3 Q 258.7 273.8, 257.9 273.8 " fill="#000000"/>
</svg>