<svg xmlns="http://www.w3.org/2000/svg" xmlns:rdkit="http://www.rdkit.org/xml" xmlns:xlink="http://www.w3.org/1999/xlink" version="1.1" baseProfile="full" xml:space="preserve" width="150px" height="150px" viewBox="0 0 150 150">
<!-- END OF HEADER -->
<rect style="opacity:1.0;fill:#FFFFFF;stroke:none" width="150.0" height="150.0" x="0.0" y="0.0"> </rect>
<ellipse cx="86.3" cy="100.7" rx="15.1" ry="15.1" class="atom-1" style="fill:#9999E5;fill-rule:evenodd;stroke:#9999E5;stroke-width:1.0px;stroke-linecap:butt;stroke-linejoin:miter;stroke-opacity:1"/>
<path class="bond-0 atom-0 atom-1" d="M 136.1,46.5 L 86.3,100.7" style="fill:none;fill-rule:evenodd;stroke:#E5E5E5;stroke-width:4.0px;stroke-linecap:butt;stroke-linejoin:miter;stroke-opacity:1"/>
<path class="bond-1 atom-1 atom-2" d="M 86.3,100.7 L 18.9,85.7" style="fill:none;fill-rule:evenodd;stroke:#E5E5E5;stroke-width:4.0px;stroke-linecap:butt;stroke-linejoin:miter;stroke-opacity:1"/>
<path d="M 88.8,98.0 L 86.3,100.7 L 82.9,100.0" style="fill:none;stroke:#E5E5E5;stroke-width:4.0px;stroke-linecap:butt;stroke-linejoin:miter;stroke-opacity:1;"/>
<path class="atom-0" d="M 133.4 42.7 L 136.5 39.5 L 132.4 38.6 L 133.0 36.5 L 136.8 38.4 L 136.3 34.2 L 138.6 34.2 L 137.9 38.4 L 141.8 36.6 L 142.5 38.6 L 138.3 39.4 L 141.3 42.6 L 139.4 44.0 L 137.4 40.0 L 135.2 44.0 L 133.4 42.7 " fill="#191919"/>
<path class="atom-2" d="M 8.5 81.9 L 11.7 78.7 L 7.5 77.8 L 8.1 75.7 L 12.0 77.6 L 11.4 73.4 L 13.7 73.4 L 13.1 77.6 L 17.0 75.8 L 17.6 77.8 L 13.4 78.6 L 16.4 81.9 L 14.6 83.2 L 12.5 79.2 L 10.4 83.2 L 8.5 81.9 " fill="#191919"/>
</svg>