<svg xmlns="http://www.w3.org/2000/svg" xmlns:rdkit="http://www.rdkit.org/xml" xmlns:xlink="http://www.w3.org/1999/xlink" version="1.1" baseProfile="full" xml:space="preserve" width="400px" height="300px" viewBox="0 0 400 300">
<!-- END OF HEADER -->
<rect style="opacity:1.0;fill:#FFFFFF;stroke:none" width="400.0" height="300.0" x="0.0" y="0.0"> </rect>
<path class="bond-0 atom-0 atom-1" d="M 325.1,94.9 L 317.4,103.2" style="fill:none;fill-rule:evenodd;stroke:#000000;stroke-width:2.0px;stroke-linecap:butt;stroke-linejoin:miter;stroke-opacity:1"/>
<path class="bond-1 atom-1 atom-2" d="M 317.4,103.2 L 280.2,94.9" style="fill:none;fill-rule:evenodd;stroke:#000000;stroke-width:2.0px;stroke-linecap:butt;stroke-linejoin:miter;stroke-opacity:1"/>
<path class="bond-1 atom-1 atom-2" d="M 312.9,108.1 L 282.2,101.2" style="fill:none;fill-rule:evenodd;stroke:#000000;stroke-width:2.0px;stroke-linecap:butt;stroke-linejoin:miter;stroke-opacity:1"/>
<path class="bond-2 atom-2 atom-3" d="M 280.2,94.9 L 254.5,123.0" style="fill:none;fill-rule:evenodd;stroke:#000000;stroke-width:2.0px;stroke-linecap:butt;stroke-linejoin:miter;stroke-opacity:1"/>
<path class="bond-3 atom-3 atom-4" d="M 254.5,123.0 L 265.9,159.3" style="fill:none;fill-rule:evenodd;stroke:#000000;stroke-width:2.0px;stroke-linecap:butt;stroke-linejoin:miter;stroke-opacity:1"/>
<path class="bond-3 atom-3 atom-4" d="M 260.9,124.4 L 270.4,154.4" style="fill:none;fill-rule:evenodd;stroke:#000000;stroke-width:2.0px;stroke-linecap:butt;stroke-linejoin:miter;stroke-opacity:1"/>
<path class="bond-4 atom-4 atom-5" d="M 265.9,159.3 L 240.2,187.3" style="fill:none;fill-rule:evenodd;stroke:#000000;stroke-width:2.0px;stroke-linecap:butt;stroke-linejoin:miter;stroke-opacity:1"/>
<path class="bond-5 atom-5 atom-6" d="M 240.2,187.3 L 218.8,182.5" style="fill:none;fill-rule:evenodd;stroke:#000000;stroke-width:2.0px;stroke-linecap:butt;stroke-linejoin:miter;stroke-opacity:1"/>
<path class="bond-6 atom-6 atom-7" d="M 197.0,159.8 L 191.6,142.7" style="fill:none;fill-rule:evenodd;stroke:#000000;stroke-width:2.0px;stroke-linecap:butt;stroke-linejoin:miter;stroke-opacity:1"/>
<path class="bond-7 atom-7 atom-8" d="M 191.6,142.7 L 154.5,134.4" style="fill:none;fill-rule:evenodd;stroke:#000000;stroke-width:2.0px;stroke-linecap:butt;stroke-linejoin:miter;stroke-opacity:1"/>
<path class="bond-8 atom-8 atom-9" d="M 154.5,134.4 L 144.5,145.3" style="fill:none;fill-rule:evenodd;stroke:#000000;stroke-width:2.0px;stroke-linecap:butt;stroke-linejoin:miter;stroke-opacity:1"/>
<path class="bond-9 atom-9 atom-10" d="M 112.9,158.9 L 91.6,154.2" style="fill:none;fill-rule:evenodd;stroke:#000000;stroke-width:2.0px;stroke-linecap:butt;stroke-linejoin:miter;stroke-opacity:1"/>
<path class="bond-10 atom-10 atom-11" d="M 91.6,154.2 L 80.2,117.9" style="fill:none;fill-rule:evenodd;stroke:#000000;stroke-width:2.0px;stroke-linecap:butt;stroke-linejoin:miter;stroke-opacity:1"/>
<path class="bond-10 atom-10 atom-11" d="M 85.2,152.7 L 75.7,122.7" style="fill:none;fill-rule:evenodd;stroke:#000000;stroke-width:2.0px;stroke-linecap:butt;stroke-linejoin:miter;stroke-opacity:1"/>
<path class="bond-11 atom-11 atom-12" d="M 80.2,117.9 L 43.1,109.6" style="fill:none;fill-rule:evenodd;stroke:#000000;stroke-width:2.0px;stroke-linecap:butt;stroke-linejoin:miter;stroke-opacity:1"/>
<path class="bond-12 atom-12 atom-13" d="M 43.1,109.6 L 17.3,137.6" style="fill:none;fill-rule:evenodd;stroke:#000000;stroke-width:2.0px;stroke-linecap:butt;stroke-linejoin:miter;stroke-opacity:1"/>
<path class="bond-12 atom-12 atom-13" d="M 45.0,115.9 L 23.7,139.1" style="fill:none;fill-rule:evenodd;stroke:#000000;stroke-width:2.0px;stroke-linecap:butt;stroke-linejoin:miter;stroke-opacity:1"/>
<path class="bond-13 atom-13 atom-14" d="M 17.3,137.6 L 28.7,173.9" style="fill:none;fill-rule:evenodd;stroke:#000000;stroke-width:2.0px;stroke-linecap:butt;stroke-linejoin:miter;stroke-opacity:1"/>
<path class="bond-14 atom-14 atom-15" d="M 28.7,173.9 L 50.1,178.7" style="fill:none;fill-rule:evenodd;stroke:#000000;stroke-width:2.0px;stroke-linecap:butt;stroke-linejoin:miter;stroke-opacity:1"/>
<path class="bond-14 atom-14 atom-15" d="M 33.2,169.1 L 51.3,173.1" style="fill:none;fill-rule:evenodd;stroke:#000000;stroke-width:2.0px;stroke-linecap:butt;stroke-linejoin:miter;stroke-opacity:1"/>
<path class="bond-15 atom-9 atom-16" d="M 134.8,181.7 L 140.1,198.8" style="fill:none;fill-rule:evenodd;stroke:#000000;stroke-width:2.0px;stroke-linecap:butt;stroke-linejoin:miter;stroke-opacity:1"/>
<path class="bond-16 atom-16 atom-17" d="M 140.1,198.8 L 177.3,207.0" style="fill:none;fill-rule:evenodd;stroke:#000000;stroke-width:2.0px;stroke-linecap:butt;stroke-linejoin:miter;stroke-opacity:1"/>
<path class="bond-17 atom-4 atom-18" d="M 265.9,159.3 L 303.0,167.5" style="fill:none;fill-rule:evenodd;stroke:#000000;stroke-width:2.0px;stroke-linecap:butt;stroke-linejoin:miter;stroke-opacity:1"/>
<path class="bond-18 atom-18 atom-19" d="M 303.0,167.5 L 314.4,203.8" style="fill:none;fill-rule:evenodd;stroke:#000000;stroke-width:2.0px;stroke-linecap:butt;stroke-linejoin:miter;stroke-opacity:1"/>
<path class="bond-18 atom-18 atom-19" d="M 309.5,169.0 L 318.9,199.0" style="fill:none;fill-rule:evenodd;stroke:#000000;stroke-width:2.0px;stroke-linecap:butt;stroke-linejoin:miter;stroke-opacity:1"/>
<path class="bond-19 atom-19 atom-20" d="M 314.4,203.8 L 351.6,212.1" style="fill:none;fill-rule:evenodd;stroke:#000000;stroke-width:2.0px;stroke-linecap:butt;stroke-linejoin:miter;stroke-opacity:1"/>
<path class="bond-20 atom-20 atom-21" d="M 351.6,212.1 L 377.3,184.1" style="fill:none;fill-rule:evenodd;stroke:#000000;stroke-width:2.0px;stroke-linecap:butt;stroke-linejoin:miter;stroke-opacity:1"/>
<path class="bond-20 atom-20 atom-21" d="M 349.6,205.8 L 370.9,182.7" style="fill:none;fill-rule:evenodd;stroke:#000000;stroke-width:2.0px;stroke-linecap:butt;stroke-linejoin:miter;stroke-opacity:1"/>
<path class="bond-21 atom-21 atom-22" d="M 377.3,184.1 L 372.0,167.0" style="fill:none;fill-rule:evenodd;stroke:#000000;stroke-width:2.0px;stroke-linecap:butt;stroke-linejoin:miter;stroke-opacity:1"/>
<path class="bond-22 atom-22 atom-23" d="M 350.1,144.3 L 328.8,139.5" style="fill:none;fill-rule:evenodd;stroke:#000000;stroke-width:2.0px;stroke-linecap:butt;stroke-linejoin:miter;stroke-opacity:1"/>
<path class="bond-22 atom-22 atom-23" d="M 348.9,149.8 L 330.8,145.8" style="fill:none;fill-rule:evenodd;stroke:#000000;stroke-width:2.0px;stroke-linecap:butt;stroke-linejoin:miter;stroke-opacity:1"/>
<path class="bond-23 atom-23 atom-1" d="M 328.8,139.5 L 317.4,103.2" style="fill:none;fill-rule:evenodd;stroke:#000000;stroke-width:2.0px;stroke-linecap:butt;stroke-linejoin:miter;stroke-opacity:1"/>
<path class="bond-24 atom-17 atom-6" d="M 177.3,207.0 L 187.2,196.2" style="fill:none;fill-rule:evenodd;stroke:#000000;stroke-width:2.0px;stroke-linecap:butt;stroke-linejoin:miter;stroke-opacity:1"/>
<path class="bond-25 atom-23 atom-18" d="M 328.8,139.5 L 303.0,167.5" style="fill:none;fill-rule:evenodd;stroke:#000000;stroke-width:2.0px;stroke-linecap:butt;stroke-linejoin:miter;stroke-opacity:1"/>
<path class="bond-26 atom-15 atom-10" d="M 81.7,165.0 L 91.6,154.2" style="fill:none;fill-rule:evenodd;stroke:#000000;stroke-width:2.0px;stroke-linecap:butt;stroke-linejoin:miter;stroke-opacity:1"/>
<path d="M 282.1,95.4 L 280.2,94.9 L 278.9,96.3" style="fill:none;stroke:#000000;stroke-width:2.0px;stroke-linecap:butt;stroke-linejoin:miter;stroke-miterlimit:10;stroke-opacity:1;"/>
<path d="M 255.8,121.6 L 254.5,123.0 L 255.1,124.8" style="fill:none;stroke:#000000;stroke-width:2.0px;stroke-linecap:butt;stroke-linejoin:miter;stroke-miterlimit:10;stroke-opacity:1;"/>
<path d="M 241.4,185.9 L 240.2,187.3 L 239.1,187.1" style="fill:none;stroke:#000000;stroke-width:2.0px;stroke-linecap:butt;stroke-linejoin:miter;stroke-miterlimit:10;stroke-opacity:1;"/>
<path d="M 191.9,143.6 L 191.6,142.7 L 189.8,142.3" style="fill:none;stroke:#000000;stroke-width:2.0px;stroke-linecap:butt;stroke-linejoin:miter;stroke-miterlimit:10;stroke-opacity:1;"/>
<path d="M 156.3,134.8 L 154.5,134.4 L 154.0,135.0" style="fill:none;stroke:#000000;stroke-width:2.0px;stroke-linecap:butt;stroke-linejoin:miter;stroke-miterlimit:10;stroke-opacity:1;"/>
<path d="M 80.8,119.7 L 80.2,117.9 L 78.3,117.5" style="fill:none;stroke:#000000;stroke-width:2.0px;stroke-linecap:butt;stroke-linejoin:miter;stroke-miterlimit:10;stroke-opacity:1;"/>
<path d="M 44.9,110.0 L 43.1,109.6 L 41.8,111.0" style="fill:none;stroke:#000000;stroke-width:2.0px;stroke-linecap:butt;stroke-linejoin:miter;stroke-miterlimit:10;stroke-opacity:1;"/>
<path d="M 18.6,136.2 L 17.3,137.6 L 17.9,139.4" style="fill:none;stroke:#000000;stroke-width:2.0px;stroke-linecap:butt;stroke-linejoin:miter;stroke-miterlimit:10;stroke-opacity:1;"/>
<path d="M 28.1,172.1 L 28.7,173.9 L 29.8,174.2" style="fill:none;stroke:#000000;stroke-width:2.0px;stroke-linecap:butt;stroke-linejoin:miter;stroke-miterlimit:10;stroke-opacity:1;"/>
<path d="M 139.9,197.9 L 140.1,198.8 L 142.0,199.2" style="fill:none;stroke:#000000;stroke-width:2.0px;stroke-linecap:butt;stroke-linejoin:miter;stroke-miterlimit:10;stroke-opacity:1;"/>
<path d="M 175.4,206.6 L 177.3,207.0 L 177.8,206.5" style="fill:none;stroke:#000000;stroke-width:2.0px;stroke-linecap:butt;stroke-linejoin:miter;stroke-miterlimit:10;stroke-opacity:1;"/>
<path d="M 313.9,202.0 L 314.4,203.8 L 316.3,204.3" style="fill:none;stroke:#000000;stroke-width:2.0px;stroke-linecap:butt;stroke-linejoin:miter;stroke-miterlimit:10;stroke-opacity:1;"/>
<path d="M 349.7,211.7 L 351.6,212.1 L 352.9,210.7" style="fill:none;stroke:#000000;stroke-width:2.0px;stroke-linecap:butt;stroke-linejoin:miter;stroke-miterlimit:10;stroke-opacity:1;"/>
<path d="M 376.0,185.5 L 377.3,184.1 L 377.0,183.2" style="fill:none;stroke:#000000;stroke-width:2.0px;stroke-linecap:butt;stroke-linejoin:miter;stroke-miterlimit:10;stroke-opacity:1;"/>
<path class="atom-0" d="M 330.1 75.3 Q 330.1 68.5, 333.5 64.7 Q 336.8 60.9, 343.1 60.9 Q 349.4 60.9, 352.8 64.7 Q 356.1 68.5, 356.1 75.3 Q 356.1 82.2, 352.7 86.1 Q 349.3 90.0, 343.1 90.0 Q 336.9 90.0, 333.5 86.1 Q 330.1 82.2, 330.1 75.3 M 343.1 86.8 Q 347.4 86.8, 349.8 83.9 Q 352.1 81.0, 352.1 75.3 Q 352.1 69.7, 349.8 66.9 Q 347.4 64.1, 343.1 64.1 Q 338.8 64.1, 336.4 66.9 Q 334.1 69.7, 334.1 75.3 Q 334.1 81.0, 336.4 83.9 Q 338.8 86.8, 343.1 86.8 " fill="#000000"/>
<path class="atom-0" d="M 360.5 61.2 L 364.4 61.2 L 364.4 73.2 L 378.8 73.2 L 378.8 61.2 L 382.7 61.2 L 382.7 89.5 L 378.8 89.5 L 378.8 76.4 L 364.4 76.4 L 364.4 89.5 L 360.5 89.5 L 360.5 61.2 " fill="#000000"/>
<path class="atom-6" d="M 196.8 164.9 L 206.0 179.9 Q 207.0 181.3, 208.4 184.0 Q 209.9 186.7, 210.0 186.9 L 210.0 164.9 L 213.8 164.9 L 213.8 193.2 L 209.9 193.2 L 199.9 176.8 Q 198.8 174.9, 197.5 172.7 Q 196.3 170.5, 196.0 169.8 L 196.0 193.2 L 192.3 193.2 L 192.3 164.9 L 196.8 164.9 " fill="#000000"/>
<path class="atom-9" d="M 122.5 148.3 L 131.8 163.3 Q 132.7 164.8, 134.2 167.5 Q 135.6 170.1, 135.7 170.3 L 135.7 148.3 L 139.5 148.3 L 139.5 176.6 L 135.6 176.6 L 125.6 160.2 Q 124.5 158.3, 123.2 156.1 Q 122.0 153.9, 121.7 153.2 L 121.7 176.6 L 118.0 176.6 L 118.0 148.3 L 122.5 148.3 " fill="#000000"/>
<path class="atom-15" d="M 59.6 168.0 L 68.9 183.0 Q 69.8 184.5, 71.3 187.2 Q 72.8 189.9, 72.8 190.0 L 72.8 168.0 L 76.6 168.0 L 76.6 196.4 L 72.7 196.4 L 62.8 180.0 Q 61.6 178.0, 60.4 175.8 Q 59.2 173.6, 58.8 173.0 L 58.8 196.4 L 55.1 196.4 L 55.1 168.0 L 59.6 168.0 " fill="#000000"/>
<path class="atom-22" d="M 359.7 133.6 L 368.9 148.6 Q 369.9 150.1, 371.3 152.8 Q 372.8 155.5, 372.9 155.6 L 372.9 133.6 L 376.7 133.6 L 376.7 162.0 L 372.8 162.0 L 362.8 145.6 Q 361.7 143.6, 360.4 141.4 Q 359.2 139.2, 358.9 138.6 L 358.9 162.0 L 355.2 162.0 L 355.2 133.6 L 359.7 133.6 " fill="#000000"/>
<path class="legend" d="M 138.7 275.3 Q 138.7 272.6, 140.0 271.0 Q 141.4 269.5, 143.9 269.5 Q 146.4 269.5, 147.7 271.0 Q 149.1 272.6, 149.1 275.3 Q 149.1 278.0, 147.7 279.6 Q 146.4 281.2, 143.9 281.2 Q 141.4 281.2, 140.0 279.6 Q 138.7 278.1, 138.7 275.3 M 143.9 279.9 Q 145.6 279.9, 146.5 278.7 Q 147.5 277.6, 147.5 275.3 Q 147.5 273.1, 146.5 271.9 Q 145.6 270.8, 143.9 270.8 Q 142.1 270.8, 141.2 271.9 Q 140.3 273.0, 140.3 275.3 Q 140.3 277.6, 141.2 278.7 Q 142.1 279.9, 143.9 279.9 " fill="#000000"/>
<path class="legend" d="M 151.6 272.8 L 151.8 273.9 Q 152.7 272.6, 154.1 272.6 Q 154.5 272.6, 155.1 272.8 L 154.9 274.1 Q 154.2 274.0, 153.8 274.0 Q 153.2 274.0, 152.7 274.2 Q 152.3 274.5, 151.9 275.1 L 151.9 281.0 L 150.4 281.0 L 150.4 272.8 L 151.6 272.8 " fill="#000000"/>
<path class="legend" d="M 155.9 269.7 L 157.4 269.7 L 157.4 271.0 L 155.9 271.0 L 155.9 269.7 M 155.9 272.8 L 157.4 272.8 L 157.4 281.0 L 155.9 281.0 L 155.9 272.8 " fill="#000000"/>
<path class="legend" d="M 166.8 272.7 L 166.8 281.5 Q 166.8 285.0, 163.0 285.0 Q 161.2 285.0, 159.6 284.2 L 160.1 283.1 Q 161.0 283.5, 161.6 283.7 Q 162.2 283.8, 163.0 283.8 Q 164.2 283.8, 164.8 283.3 Q 165.3 282.7, 165.3 281.5 L 165.3 280.1 Q 164.4 281.1, 162.9 281.1 Q 161.2 281.1, 160.3 280.1 Q 159.3 279.0, 159.3 277.0 Q 159.3 274.9, 160.4 273.8 Q 161.6 272.6, 163.5 272.6 Q 164.6 272.6, 165.5 272.9 L 165.6 272.7 L 166.8 272.7 M 163.0 279.9 Q 163.9 279.9, 164.5 279.5 Q 165.1 279.0, 165.3 278.2 L 165.3 274.0 Q 164.5 273.8, 163.6 273.8 Q 162.3 273.8, 161.6 274.6 Q 160.9 275.5, 160.9 277.0 Q 160.9 278.4, 161.4 279.2 Q 162.0 279.9, 163.0 279.9 " fill="#000000"/>
<path class="legend" d="M 168.7 269.7 L 170.1 269.7 L 170.1 271.0 L 168.7 271.0 L 168.7 269.7 M 168.7 272.8 L 170.1 272.8 L 170.1 281.0 L 168.7 281.0 L 168.7 272.8 " fill="#000000"/>
<path class="legend" d="M 176.3 272.6 Q 177.7 272.6, 178.3 273.4 Q 179.0 274.1, 179.0 275.5 L 179.0 281.0 L 177.5 281.0 L 177.5 275.7 Q 177.5 274.7, 177.2 274.2 Q 176.8 273.8, 176.0 273.8 Q 175.2 273.8, 174.6 274.2 Q 174.0 274.5, 173.6 275.1 L 173.6 281.0 L 172.1 281.0 L 172.1 272.8 L 173.3 272.8 L 173.5 273.9 Q 174.6 272.6, 176.3 272.6 " fill="#000000"/>
<path class="legend" d="M 180.8 278.8 Q 180.8 277.4, 181.9 276.7 Q 182.9 276.0, 184.9 276.0 L 186.1 276.0 L 186.1 275.7 Q 186.1 274.7, 185.7 274.2 Q 185.2 273.8, 184.2 273.8 Q 183.6 273.8, 183.0 273.9 Q 182.5 274.0, 181.7 274.4 L 181.3 273.4 Q 182.8 272.6, 184.2 272.6 Q 186.0 272.6, 186.8 273.4 Q 187.6 274.1, 187.6 275.7 L 187.6 281.0 L 186.4 281.0 Q 186.4 280.9, 186.4 280.7 Q 186.3 280.4, 186.2 280.0 Q 185.1 281.2, 183.5 281.2 Q 182.3 281.2, 181.6 280.5 Q 180.8 279.9, 180.8 278.8 M 182.3 278.7 Q 182.3 279.3, 182.7 279.7 Q 183.1 280.0, 183.8 280.0 Q 184.5 280.0, 185.1 279.7 Q 185.7 279.4, 186.1 278.9 L 186.1 277.1 L 185.0 277.1 Q 183.7 277.1, 183.0 277.5 Q 182.3 277.9, 182.3 278.7 " fill="#000000"/>
<path class="legend" d="M 189.4 268.8 L 190.8 268.8 L 190.8 281.0 L 189.4 281.0 L 189.4 268.8 " fill="#000000"/>
<path class="legend" d="" fill="#000000"/>
<path class="legend" d="M 211.6 281.0 L 210.1 281.0 L 208.9 271.7 L 205.9 281.0 L 204.3 281.0 L 201.3 271.7 L 200.1 281.0 L 198.6 281.0 L 200.1 269.7 L 202.0 269.7 L 205.1 278.8 L 208.2 269.7 L 210.1 269.7 L 211.6 281.0 " fill="#000000"/>
<path class="legend" d="M 213.2 276.9 Q 213.2 274.9, 214.2 273.7 Q 215.2 272.6, 217.1 272.6 Q 219.0 272.6, 220.0 273.7 Q 221.0 274.9, 221.0 276.9 Q 221.0 278.9, 220.0 280.0 Q 219.0 281.1, 217.1 281.1 Q 215.2 281.1, 214.2 280.0 Q 213.2 278.9, 213.2 276.9 M 214.7 276.9 Q 214.7 278.4, 215.3 279.1 Q 215.9 279.9, 217.1 279.9 Q 218.2 279.9, 218.8 279.1 Q 219.4 278.4, 219.4 276.9 Q 219.4 275.4, 218.8 274.6 Q 218.2 273.8, 217.1 273.8 Q 215.9 273.8, 215.3 274.6 Q 214.7 275.4, 214.7 276.9 " fill="#000000"/>
<path class="legend" d="M 222.3 268.8 L 223.7 268.8 L 223.7 281.0 L 222.3 281.0 L 222.3 268.8 " fill="#000000"/>
<path class="legend" d="M 225.7 276.9 Q 225.7 274.8, 226.7 273.7 Q 227.7 272.6, 229.5 272.6 Q 231.3 272.6, 232.1 273.7 Q 232.9 274.8, 232.9 276.8 L 232.9 277.1 L 227.2 277.1 Q 227.2 278.5, 227.9 279.2 Q 228.5 279.9, 229.6 279.9 Q 230.3 279.9, 230.9 279.8 Q 231.5 279.6, 232.2 279.3 L 232.6 280.3 Q 231.8 280.7, 231.1 280.9 Q 230.3 281.1, 229.6 281.1 Q 227.7 281.1, 226.7 280.0 Q 225.7 278.9, 225.7 276.9 M 229.5 273.8 Q 228.6 273.8, 228.0 274.3 Q 227.4 274.9, 227.3 275.9 L 231.4 275.9 Q 231.2 274.8, 230.8 274.3 Q 230.3 273.8, 229.5 273.8 " fill="#000000"/>
<path class="legend" d="M 234.1 276.9 Q 234.1 274.9, 235.1 273.8 Q 236.1 272.6, 238.0 272.6 Q 239.9 272.6, 240.9 274.0 L 239.9 274.7 Q 239.5 274.3, 239.0 274.0 Q 238.6 273.8, 238.0 273.8 Q 236.9 273.8, 236.3 274.6 Q 235.6 275.4, 235.6 276.9 Q 235.6 278.4, 236.3 279.2 Q 236.9 279.9, 238.1 279.9 Q 238.8 279.9, 239.3 279.8 Q 239.7 279.6, 240.3 279.4 L 240.7 280.4 Q 239.5 281.1, 238.0 281.1 Q 236.1 281.1, 235.1 280.0 Q 234.1 278.8, 234.1 276.9 " fill="#000000"/>
<path class="legend" d="M 248.8 272.8 L 248.8 281.0 L 247.6 281.0 L 247.4 279.8 Q 246.3 281.1, 244.6 281.1 Q 243.2 281.1, 242.5 280.4 Q 241.8 279.6, 241.8 278.2 L 241.8 272.8 L 243.3 272.8 L 243.3 278.1 Q 243.3 279.1, 243.7 279.5 Q 244.1 279.9, 244.9 279.9 Q 245.6 279.9, 246.3 279.6 Q 246.9 279.3, 247.3 278.6 L 247.3 272.8 L 248.8 272.8 " fill="#000000"/>
<path class="legend" d="M 250.7 268.8 L 252.1 268.8 L 252.1 281.0 L 250.7 281.0 L 250.7 268.8 " fill="#000000"/>
<path class="legend" d="M 254.0 276.9 Q 254.0 274.8, 255.1 273.7 Q 256.1 272.6, 257.9 272.6 Q 259.7 272.6, 260.5 273.7 Q 261.3 274.8, 261.3 276.8 L 261.3 277.1 L 255.6 277.1 Q 255.6 278.5, 256.2 279.2 Q 256.9 279.9, 258.0 279.9 Q 258.7 279.9, 259.3 279.8 Q 259.9 279.6, 260.6 279.3 L 261.0 280.3 Q 260.2 280.7, 259.5 280.9 Q 258.7 281.1, 258.0 281.1 Q 256.1 281.1, 255.1 280.0 Q 254.0 278.9, 254.0 276.9 M 257.9 273.8 Q 257.0 273.8, 256.4 274.3 Q 255.8 274.9, 255.6 275.9 L 259.7 275.9 Q 259.6 274.8, 259.2 274.3 Q 258.7 273.8, 257.9 273.8 " fill="#000000"/>
</svg>