<svg xmlns="http://www.w3.org/2000/svg" xmlns:rdkit="http://www.rdkit.org/xml" xmlns:xlink="http://www.w3.org/1999/xlink" version="1.1" baseProfile="full" xml:space="preserve" width="600px" height="400px" viewBox="0 0 600 400">
<!-- END OF HEADER -->
<rect style="opacity:1.0;fill:#FFFFFF;stroke:none" width="600.0" height="400.0" x="0.0" y="0.0"> </rect>
<path class="bond-0 atom-0 atom-1" d="M 51.2,89.0 L 70.2,99.9" style="fill:none;fill-rule:evenodd;stroke:#000000;stroke-width:2.0px;stroke-linecap:butt;stroke-linejoin:miter;stroke-opacity:1"/>
<path class="bond-0 atom-0 atom-1" d="M 53.6,84.9 L 70.2,94.5" style="fill:none;fill-rule:evenodd;stroke:#000000;stroke-width:2.0px;stroke-linecap:butt;stroke-linejoin:miter;stroke-opacity:1"/>
<path class="bond-1 atom-1 atom-2" d="M 70.2,99.9 L 80.0,94.2" style="fill:none;fill-rule:evenodd;stroke:#7F7F7F;stroke-width:2.0px;stroke-linecap:butt;stroke-linejoin:miter;stroke-opacity:1"/>
<path class="bond-1 atom-1 atom-2" d="M 80.0,94.2 L 89.9,88.5" style="fill:none;fill-rule:evenodd;stroke:#7F7F7F;stroke-width:2.0px;stroke-linecap:butt;stroke-linejoin:miter;stroke-opacity:1"/>
<path class="bond-1 atom-1 atom-2" d="M 78.9,89.5 L 87.5,84.5" style="fill:none;fill-rule:evenodd;stroke:#7F7F7F;stroke-width:2.0px;stroke-linecap:butt;stroke-linejoin:miter;stroke-opacity:1;stroke-dasharray:1,1.33333"/>
<path class="bond-2 atom-2 atom-3" d="M 106.2,86.5 L 118.3,93.5" style="fill:none;fill-rule:evenodd;stroke:#000000;stroke-width:2.0px;stroke-linecap:butt;stroke-linejoin:miter;stroke-opacity:1"/>
<path class="bond-2 atom-2 atom-3" d="M 103.8,90.6 L 115.9,97.6" style="fill:none;fill-rule:evenodd;stroke:#000000;stroke-width:2.0px;stroke-linecap:butt;stroke-linejoin:miter;stroke-opacity:1"/>
<path class="bond-3 atom-3 atom-4" d="M 139.0,94.4 L 145.5,90.6" style="fill:none;fill-rule:evenodd;stroke:#000000;stroke-width:2.0px;stroke-linecap:butt;stroke-linejoin:miter;stroke-opacity:1"/>
<path class="bond-3 atom-3 atom-4" d="M 136.6,90.3 L 143.2,86.5" style="fill:none;fill-rule:evenodd;stroke:#000000;stroke-width:2.0px;stroke-linecap:butt;stroke-linejoin:miter;stroke-opacity:1"/>
<path d="M 69.7,99.6 L 70.2,99.9 L 70.4,99.8" style="fill:none;stroke:#000000;stroke-width:2.0px;stroke-linecap:butt;stroke-linejoin:miter;stroke-opacity:1;"/>
<path class="atom-0" d="M 40.1 82.2 Q 40.1 80.0, 41.1 78.8 Q 42.2 77.6, 44.1 77.6 Q 46.1 77.6, 47.2 78.8 Q 48.2 80.0, 48.2 82.2 Q 48.2 84.3, 47.2 85.6 Q 46.1 86.8, 44.1 86.8 Q 42.2 86.8, 41.1 85.6 Q 40.1 84.3, 40.1 82.2 M 44.1 85.8 Q 45.5 85.8, 46.2 84.9 Q 47.0 84.0, 47.0 82.2 Q 47.0 80.4, 46.2 79.5 Q 45.5 78.6, 44.1 78.6 Q 42.8 78.6, 42.0 79.5 Q 41.3 80.4, 41.3 82.2 Q 41.3 84.0, 42.0 84.9 Q 42.8 85.8, 44.1 85.8 " fill="#000000"/>
<path class="atom-2" d="M 95.5 79.7 L 98.4 84.4 Q 98.7 84.9, 99.1 85.8 Q 99.6 86.6, 99.6 86.6 L 99.6 79.7 L 100.8 79.7 L 100.8 88.6 L 99.6 88.6 L 96.5 83.5 Q 96.1 82.9, 95.7 82.2 Q 95.3 81.5, 95.2 81.3 L 95.2 88.6 L 94.1 88.6 L 94.1 79.7 L 95.5 79.7 " fill="#000000"/>
<path class="atom-3" d="M 122.7 95.5 L 125.6 100.2 Q 125.9 100.6, 126.4 101.5 Q 126.8 102.3, 126.9 102.4 L 126.9 95.5 L 128.0 95.5 L 128.0 104.4 L 126.8 104.4 L 123.7 99.2 Q 123.3 98.6, 122.9 97.9 Q 122.6 97.2, 122.5 97.0 L 122.5 104.4 L 121.3 104.4 L 121.3 95.5 L 122.7 95.5 " fill="#000000"/>
<path class="atom-3" d="M 129.7 97.1 L 131.3 97.1 L 131.3 95.4 L 132.0 95.4 L 132.0 97.1 L 133.6 97.1 L 133.6 97.7 L 132.0 97.7 L 132.0 99.3 L 131.3 99.3 L 131.3 97.7 L 129.7 97.7 L 129.7 97.1 " fill="#000000"/>
<path class="atom-4" d="M 149.9 79.7 L 152.9 84.4 Q 153.1 84.9, 153.6 85.8 Q 154.1 86.6, 154.1 86.6 L 154.1 79.7 L 155.3 79.7 L 155.3 88.6 L 154.1 88.6 L 150.9 83.5 Q 150.6 82.9, 150.2 82.2 Q 149.8 81.5, 149.7 81.3 L 149.7 88.6 L 148.5 88.6 L 148.5 79.7 L 149.9 79.7 " fill="#000000"/>
<path class="atom-4" d="M 156.9 81.2 L 159.9 81.2 L 159.9 81.9 L 156.9 81.9 L 156.9 81.2 " fill="#000000"/>
<path class="legend" d="M 61.8 184.1 Q 61.8 181.3, 63.1 179.8 Q 64.5 178.4, 67.0 178.4 Q 69.3 178.4, 70.5 180.0 L 69.5 180.9 Q 68.6 179.7, 67.0 179.7 Q 65.3 179.7, 64.3 180.8 Q 63.4 182.0, 63.4 184.1 Q 63.4 186.4, 64.4 187.5 Q 65.3 188.7, 67.1 188.7 Q 68.4 188.7, 69.8 187.9 L 70.3 189.1 Q 69.7 189.5, 68.8 189.7 Q 67.9 190.0, 66.9 190.0 Q 64.5 190.0, 63.1 188.4 Q 61.8 186.9, 61.8 184.1 " fill="#000000"/>
<path class="legend" d="M 71.8 187.6 Q 71.8 186.3, 72.9 185.6 Q 73.9 184.8, 75.9 184.8 L 77.1 184.8 L 77.1 184.5 Q 77.1 183.5, 76.6 183.1 Q 76.2 182.6, 75.2 182.6 Q 74.6 182.6, 74.0 182.8 Q 73.5 182.9, 72.7 183.2 L 72.3 182.2 Q 73.8 181.4, 75.2 181.4 Q 77.0 181.4, 77.8 182.2 Q 78.6 182.9, 78.6 184.5 L 78.6 189.8 L 77.4 189.8 Q 77.4 189.7, 77.4 189.5 Q 77.3 189.2, 77.2 188.8 Q 76.1 190.0, 74.5 190.0 Q 73.3 190.0, 72.6 189.3 Q 71.8 188.7, 71.8 187.6 M 73.3 187.6 Q 73.3 188.2, 73.7 188.5 Q 74.1 188.8, 74.8 188.8 Q 75.4 188.8, 76.1 188.5 Q 76.7 188.2, 77.1 187.7 L 77.1 186.0 L 76.0 186.0 Q 74.6 186.0, 74.0 186.4 Q 73.3 186.8, 73.3 187.6 " fill="#000000"/>
<path class="legend" d="M 81.7 181.6 L 81.8 182.7 Q 82.7 181.4, 84.1 181.4 Q 84.6 181.4, 85.2 181.6 L 84.9 182.9 Q 84.2 182.8, 83.9 182.8 Q 83.2 182.8, 82.7 183.1 Q 82.3 183.3, 81.9 183.9 L 81.9 189.8 L 80.4 189.8 L 80.4 181.6 L 81.7 181.6 " fill="#000000"/>
<path class="legend" d="M 89.9 181.4 Q 91.6 181.4, 92.5 182.5 Q 93.5 183.6, 93.5 185.6 Q 93.5 187.6, 92.4 188.8 Q 91.2 189.9, 89.3 189.9 Q 88.0 189.9, 86.8 189.5 L 86.0 189.3 L 86.0 177.7 L 87.5 177.7 L 87.5 182.5 Q 88.4 181.4, 89.9 181.4 M 89.2 188.8 Q 90.5 188.8, 91.2 187.9 Q 92.0 187.1, 92.0 185.6 Q 92.0 184.1, 91.4 183.4 Q 90.8 182.6, 89.8 182.6 Q 88.9 182.6, 88.4 183.1 Q 87.8 183.5, 87.5 184.3 L 87.5 188.5 Q 88.4 188.8, 89.2 188.8 " fill="#000000"/>
<path class="legend" d="M 94.9 187.6 Q 94.9 186.3, 95.9 185.6 Q 97.0 184.8, 98.9 184.8 L 100.1 184.8 L 100.1 184.5 Q 100.1 183.5, 99.7 183.1 Q 99.3 182.6, 98.2 182.6 Q 97.6 182.6, 97.1 182.8 Q 96.6 182.9, 95.8 183.2 L 95.3 182.2 Q 96.8 181.4, 98.3 181.4 Q 100.0 181.4, 100.8 182.2 Q 101.6 182.9, 101.6 184.5 L 101.6 189.8 L 100.5 189.8 Q 100.4 189.7, 100.4 189.5 Q 100.3 189.2, 100.2 188.8 Q 99.1 190.0, 97.6 190.0 Q 96.3 190.0, 95.6 189.3 Q 94.9 188.7, 94.9 187.6 M 96.4 187.6 Q 96.4 188.2, 96.7 188.5 Q 97.1 188.8, 97.8 188.8 Q 98.5 188.8, 99.1 188.5 Q 99.7 188.2, 100.1 187.7 L 100.1 186.0 L 99.0 186.0 Q 97.7 186.0, 97.0 186.4 Q 96.4 186.8, 96.4 187.6 " fill="#000000"/>
<path class="legend" d="M 105.3 188.6 L 109.8 188.6 L 109.8 189.8 L 103.5 189.8 L 103.5 188.8 L 107.8 182.8 L 103.7 182.8 L 103.7 181.6 L 109.6 181.6 L 109.6 182.5 L 105.3 188.6 " fill="#000000"/>
<path class="legend" d="M 111.0 178.5 L 112.5 178.5 L 112.5 179.9 L 111.0 179.9 L 111.0 178.5 M 111.0 181.6 L 112.5 181.6 L 112.5 189.8 L 111.0 189.8 L 111.0 181.6 " fill="#000000"/>
<path class="legend" d="M 121.9 177.7 L 121.9 189.8 L 120.7 189.8 L 120.5 188.8 Q 119.6 189.9, 118.1 189.9 Q 116.4 189.9, 115.4 188.9 Q 114.5 187.8, 114.5 185.8 Q 114.5 183.8, 115.6 182.6 Q 116.7 181.4, 118.7 181.4 Q 119.5 181.4, 120.4 181.7 L 120.4 177.7 L 121.9 177.7 M 118.2 188.8 Q 119.0 188.8, 119.6 188.3 Q 120.2 187.8, 120.4 187.0 L 120.4 182.9 Q 119.6 182.6, 118.7 182.6 Q 117.4 182.6, 116.7 183.5 Q 116.0 184.3, 116.0 185.8 Q 116.0 187.2, 116.6 188.0 Q 117.1 188.8, 118.2 188.8 " fill="#000000"/>
<path class="legend" d="M 123.8 185.7 Q 123.8 183.7, 124.9 182.6 Q 125.9 181.4, 127.7 181.4 Q 129.5 181.4, 130.3 182.5 Q 131.1 183.6, 131.1 185.6 L 131.1 185.9 L 125.4 185.9 Q 125.4 187.3, 126.0 188.0 Q 126.7 188.8, 127.8 188.8 Q 128.5 188.8, 129.1 188.6 Q 129.7 188.4, 130.4 188.1 L 130.8 189.2 Q 130.0 189.6, 129.3 189.8 Q 128.5 189.9, 127.8 189.9 Q 125.9 189.9, 124.9 188.8 Q 123.8 187.7, 123.8 185.7 M 127.7 182.6 Q 126.8 182.6, 126.2 183.2 Q 125.6 183.7, 125.4 184.8 L 129.5 184.8 Q 129.4 183.7, 129.0 183.2 Q 128.5 182.6, 127.7 182.6 " fill="#000000"/>
<path class="legend" d="M 132.8 188.1 Q 133.5 188.4, 134.1 188.6 Q 134.6 188.7, 135.1 188.7 Q 135.9 188.7, 136.3 188.4 Q 136.7 188.1, 136.7 187.5 Q 136.7 187.1, 136.5 186.9 Q 136.3 186.7, 136.0 186.6 Q 135.7 186.4, 135.0 186.2 Q 134.9 186.2, 134.2 185.9 Q 133.4 185.7, 133.0 185.1 Q 132.6 184.6, 132.6 183.8 Q 132.6 182.8, 133.4 182.1 Q 134.2 181.4, 135.7 181.4 Q 136.3 181.4, 136.8 181.6 Q 137.4 181.7, 138.0 182.0 L 137.6 183.2 Q 137.1 182.9, 136.6 182.8 Q 136.2 182.7, 135.7 182.7 Q 134.9 182.7, 134.5 183.0 Q 134.1 183.3, 134.1 183.8 Q 134.1 184.2, 134.4 184.4 Q 134.7 184.6, 135.4 184.9 Q 135.6 184.9, 135.7 185.0 L 136.1 185.1 Q 136.8 185.4, 137.2 185.6 Q 137.6 185.8, 137.9 186.3 Q 138.2 186.7, 138.2 187.5 Q 138.2 188.7, 137.3 189.3 Q 136.5 190.0, 135.2 190.0 Q 134.4 190.0, 133.7 189.8 Q 133.0 189.6, 132.4 189.3 L 132.8 188.1 " fill="#000000"/>
<path class="bond-0 atom-0 atom-1" d="M 241.5,63.9 L 253.1,63.9" style="fill:none;fill-rule:evenodd;stroke:#7F7F7F;stroke-width:2.0px;stroke-linecap:butt;stroke-linejoin:miter;stroke-opacity:1"/>
<path class="bond-0 atom-0 atom-1" d="M 253.1,61.5 L 264.6,61.5" style="fill:none;fill-rule:evenodd;stroke:#7F7F7F;stroke-width:2.0px;stroke-linecap:butt;stroke-linejoin:miter;stroke-opacity:1"/>
<path class="bond-0 atom-0 atom-1" d="M 253.1,66.2 L 264.6,66.2" style="fill:none;fill-rule:evenodd;stroke:#7F7F7F;stroke-width:2.0px;stroke-linecap:butt;stroke-linejoin:miter;stroke-opacity:1;stroke-dasharray:1,1.33333"/>
<path class="bond-1 atom-1 atom-2" d="M 278.0,72.7 L 280.8,77.6" style="fill:none;fill-rule:evenodd;stroke:#7F7F7F;stroke-width:2.0px;stroke-linecap:butt;stroke-linejoin:miter;stroke-opacity:1"/>
<path class="bond-1 atom-1 atom-2" d="M 282.9,76.4 L 285.7,81.3" style="fill:none;fill-rule:evenodd;stroke:#7F7F7F;stroke-width:2.0px;stroke-linecap:butt;stroke-linejoin:miter;stroke-opacity:1"/>
<path class="bond-1 atom-1 atom-2" d="M 278.8,78.8 L 281.6,83.7" style="fill:none;fill-rule:evenodd;stroke:#7F7F7F;stroke-width:2.0px;stroke-linecap:butt;stroke-linejoin:miter;stroke-opacity:1;stroke-dasharray:0.5,0.666667"/>
<path class="bond-2 atom-2 atom-3" d="M 281.5,98.8 L 275.9,108.5" style="fill:none;fill-rule:evenodd;stroke:#000000;stroke-width:2.0px;stroke-linecap:butt;stroke-linejoin:miter;stroke-opacity:1"/>
<path class="bond-2 atom-2 atom-3" d="M 285.6,101.2 L 280.0,110.8" style="fill:none;fill-rule:evenodd;stroke:#000000;stroke-width:2.0px;stroke-linecap:butt;stroke-linejoin:miter;stroke-opacity:1"/>
<path class="bond-3 atom-2 atom-4" d="M 295.7,91.1 L 303.7,91.1" style="fill:none;fill-rule:evenodd;stroke:#7F7F7F;stroke-width:2.0px;stroke-linecap:butt;stroke-linejoin:miter;stroke-opacity:1"/>
<path class="bond-3 atom-2 atom-4" d="M 303.7,88.8 L 311.8,88.8" style="fill:none;fill-rule:evenodd;stroke:#7F7F7F;stroke-width:2.0px;stroke-linecap:butt;stroke-linejoin:miter;stroke-opacity:1"/>
<path class="bond-3 atom-2 atom-4" d="M 303.7,93.5 L 311.8,93.5" style="fill:none;fill-rule:evenodd;stroke:#7F7F7F;stroke-width:2.0px;stroke-linecap:butt;stroke-linejoin:miter;stroke-opacity:1;stroke-dasharray:1,1.33333"/>
<path class="bond-4 atom-4 atom-5" d="M 325.1,82.4 L 327.7,77.9" style="fill:none;fill-rule:evenodd;stroke:#7F7F7F;stroke-width:2.0px;stroke-linecap:butt;stroke-linejoin:miter;stroke-opacity:1"/>
<path class="bond-4 atom-4 atom-5" d="M 329.7,79.1 L 332.3,74.6" style="fill:none;fill-rule:evenodd;stroke:#7F7F7F;stroke-width:2.0px;stroke-linecap:butt;stroke-linejoin:miter;stroke-opacity:1"/>
<path class="bond-4 atom-4 atom-5" d="M 325.7,76.8 L 328.2,72.3" style="fill:none;fill-rule:evenodd;stroke:#7F7F7F;stroke-width:2.0px;stroke-linecap:butt;stroke-linejoin:miter;stroke-opacity:1;stroke-dasharray:0.5,0.666667"/>
<path class="atom-1" d="M 268.8 63.9 Q 268.8 61.8, 269.9 60.6 Q 270.9 59.4, 272.9 59.4 Q 274.9 59.4, 275.9 60.6 Q 277.0 61.8, 277.0 63.9 Q 277.0 66.1, 275.9 67.3 Q 274.9 68.5, 272.9 68.5 Q 271.0 68.5, 269.9 67.3 Q 268.8 66.1, 268.8 63.9 M 272.9 67.5 Q 274.3 67.5, 275.0 66.6 Q 275.7 65.7, 275.7 63.9 Q 275.7 62.2, 275.0 61.3 Q 274.3 60.4, 272.9 60.4 Q 271.6 60.4, 270.8 61.3 Q 270.1 62.1, 270.1 63.9 Q 270.1 65.7, 270.8 66.6 Q 271.6 67.5, 272.9 67.5 " fill="#000000"/>
<path class="atom-2" d="M 286.1 94.2 Q 286.2 94.2, 286.6 94.4 Q 287.1 94.6, 287.5 94.7 Q 288.0 94.8, 288.4 94.8 Q 289.3 94.8, 289.8 94.4 Q 290.3 94.0, 290.3 93.2 Q 290.3 92.7, 290.0 92.4 Q 289.8 92.1, 289.4 92.0 Q 289.0 91.8, 288.4 91.6 Q 287.6 91.4, 287.1 91.2 Q 286.6 90.9, 286.3 90.5 Q 286.0 90.0, 286.0 89.2 Q 286.0 88.1, 286.7 87.4 Q 287.5 86.7, 289.0 86.7 Q 290.0 86.7, 291.2 87.2 L 290.9 88.1 Q 289.8 87.7, 289.0 87.7 Q 288.2 87.7, 287.7 88.1 Q 287.2 88.4, 287.2 89.0 Q 287.2 89.5, 287.5 89.8 Q 287.7 90.1, 288.1 90.2 Q 288.4 90.4, 289.0 90.6 Q 289.8 90.8, 290.3 91.1 Q 290.8 91.4, 291.1 91.9 Q 291.5 92.4, 291.5 93.2 Q 291.5 94.5, 290.7 95.1 Q 289.8 95.8, 288.5 95.8 Q 287.7 95.8, 287.1 95.6 Q 286.5 95.5, 285.8 95.2 L 286.1 94.2 " fill="#000000"/>
<path class="atom-3" d="M 268.8 118.4 Q 268.8 116.2, 269.9 115.0 Q 270.9 113.8, 272.9 113.8 Q 274.9 113.8, 275.9 115.0 Q 277.0 116.2, 277.0 118.4 Q 277.0 120.5, 275.9 121.8 Q 274.9 123.0, 272.9 123.0 Q 271.0 123.0, 269.9 121.8 Q 268.8 120.6, 268.8 118.4 M 272.9 122.0 Q 274.3 122.0, 275.0 121.1 Q 275.7 120.2, 275.7 118.4 Q 275.7 116.6, 275.0 115.7 Q 274.3 114.9, 272.9 114.9 Q 271.6 114.9, 270.8 115.7 Q 270.1 116.6, 270.1 118.4 Q 270.1 120.2, 270.8 121.1 Q 271.6 122.0, 272.9 122.0 " fill="#000000"/>
<path class="atom-4" d="M 316.0 91.1 Q 316.0 89.0, 317.1 87.8 Q 318.1 86.6, 320.1 86.6 Q 322.1 86.6, 323.1 87.8 Q 324.2 89.0, 324.2 91.1 Q 324.2 93.3, 323.1 94.5 Q 322.0 95.8, 320.1 95.8 Q 318.1 95.8, 317.1 94.5 Q 316.0 93.3, 316.0 91.1 M 320.1 94.7 Q 321.4 94.7, 322.2 93.8 Q 322.9 92.9, 322.9 91.1 Q 322.9 89.4, 322.2 88.5 Q 321.4 87.6, 320.1 87.6 Q 318.7 87.6, 318.0 88.5 Q 317.3 89.4, 317.3 91.1 Q 317.3 92.9, 318.0 93.8 Q 318.7 94.7, 320.1 94.7 " fill="#000000"/>
<path class="atom-5" d="M 334.5 59.0 L 337.2 59.0 L 337.2 59.9 L 335.5 59.9 L 335.5 70.3 L 337.2 70.3 L 337.2 71.2 L 334.5 71.2 L 334.5 59.0 " fill="#000000"/>
<path class="atom-5" d="M 337.8 64.3 Q 337.8 62.1, 338.8 60.9 Q 339.9 59.7, 341.9 59.7 Q 343.7 59.7, 344.7 61.0 L 343.9 61.7 Q 343.1 60.8, 341.9 60.8 Q 340.5 60.8, 339.8 61.7 Q 339.1 62.6, 339.1 64.3 Q 339.1 66.0, 339.8 66.9 Q 340.6 67.9, 342.0 67.9 Q 343.0 67.9, 344.1 67.3 L 344.5 68.2 Q 344.0 68.5, 343.3 68.7 Q 342.6 68.9, 341.8 68.9 Q 339.9 68.9, 338.8 67.7 Q 337.8 66.5, 337.8 64.3 " fill="#000000"/>
<path class="atom-5" d="M 345.6 67.5 L 346.8 67.5 L 346.8 68.5 L 346.6 70.2 L 346.2 70.2 L 346.2 68.7 L 345.6 68.7 L 345.6 67.5 " fill="#000000"/>
<path class="atom-5" d="M 348.1 64.3 Q 348.1 62.1, 349.1 60.9 Q 350.1 59.7, 352.1 59.7 Q 354.0 59.7, 354.9 61.0 L 354.1 61.7 Q 353.4 60.8, 352.1 60.8 Q 350.8 60.8, 350.1 61.7 Q 349.4 62.6, 349.4 64.3 Q 349.4 66.0, 350.1 66.9 Q 350.8 67.9, 352.3 67.9 Q 353.2 67.9, 354.4 67.3 L 354.7 68.2 Q 354.3 68.5, 353.6 68.7 Q 352.9 68.9, 352.1 68.9 Q 350.1 68.9, 349.1 67.7 Q 348.1 66.5, 348.1 64.3 " fill="#000000"/>
<path class="atom-5" d="M 358.5 59.0 L 358.5 71.2 L 355.9 71.2 L 355.9 70.3 L 357.5 70.3 L 357.5 59.9 L 355.9 59.9 L 355.9 59.0 L 358.5 59.0 " fill="#000000"/>
<path class="legend" d="M 245.4 184.3 Q 245.5 184.4, 246.1 184.6 Q 246.6 184.8, 247.2 185.0 Q 247.8 185.1, 248.3 185.1 Q 249.4 185.1, 250.0 184.6 Q 250.7 184.0, 250.7 183.1 Q 250.7 182.5, 250.3 182.1 Q 250.0 181.7, 249.6 181.5 Q 249.1 181.3, 248.3 181.1 Q 247.3 180.8, 246.7 180.5 Q 246.1 180.2, 245.6 179.6 Q 245.2 179.0, 245.2 178.0 Q 245.2 176.5, 246.2 175.7 Q 247.2 174.8, 249.1 174.8 Q 250.4 174.8, 251.9 175.4 L 251.5 176.6 Q 250.2 176.1, 249.1 176.1 Q 248.0 176.1, 247.4 176.5 Q 246.8 177.0, 246.8 177.8 Q 246.8 178.4, 247.1 178.8 Q 247.4 179.1, 247.9 179.3 Q 248.4 179.5, 249.1 179.8 Q 250.2 180.1, 250.8 180.4 Q 251.4 180.7, 251.8 181.4 Q 252.2 182.0, 252.2 183.1 Q 252.2 184.7, 251.2 185.6 Q 250.2 186.4, 248.4 186.4 Q 247.4 186.4, 246.6 186.2 Q 245.9 186.0, 245.0 185.6 L 245.4 184.3 " fill="#000000"/>
<path class="legend" d="M 260.6 177.9 L 260.6 186.1 L 259.3 186.1 L 259.2 184.9 Q 258.1 186.2, 256.4 186.2 Q 255.0 186.2, 254.3 185.5 Q 253.6 184.7, 253.6 183.3 L 253.6 177.9 L 255.1 177.9 L 255.1 183.2 Q 255.1 184.2, 255.4 184.6 Q 255.8 185.0, 256.7 185.0 Q 257.4 185.0, 258.0 184.7 Q 258.7 184.4, 259.1 183.7 L 259.1 177.9 L 260.6 177.9 " fill="#000000"/>
<path class="legend" d="M 262.5 173.9 L 263.9 173.9 L 263.9 186.1 L 262.5 186.1 L 262.5 173.9 " fill="#000000"/>
<path class="legend" d="M 269.7 177.7 Q 271.4 177.7, 272.4 178.8 Q 273.3 179.8, 273.3 181.8 Q 273.3 183.9, 272.2 185.1 Q 271.1 186.2, 269.1 186.2 Q 268.2 186.2, 267.4 186.0 L 267.4 190.0 L 265.9 190.0 L 265.9 177.9 L 267.1 177.9 L 267.3 178.8 Q 267.7 178.3, 268.3 178.0 Q 269.0 177.7, 269.7 177.7 M 269.1 185.0 Q 270.3 185.0, 271.1 184.2 Q 271.8 183.3, 271.8 181.8 Q 271.8 180.4, 271.2 179.7 Q 270.6 178.9, 269.6 178.9 Q 268.8 178.9, 268.2 179.3 Q 267.6 179.8, 267.4 180.5 L 267.4 184.8 Q 268.2 185.0, 269.1 185.0 " fill="#000000"/>
<path class="legend" d="M 278.9 177.7 Q 280.2 177.7, 280.9 178.5 Q 281.6 179.2, 281.6 180.6 L 281.6 186.1 L 280.1 186.1 L 280.1 180.8 Q 280.1 179.8, 279.7 179.3 Q 279.4 178.9, 278.5 178.9 Q 277.8 178.9, 277.1 179.2 Q 276.5 179.6, 276.1 180.2 L 276.1 186.1 L 274.6 186.1 L 274.6 173.9 L 276.1 173.9 L 276.1 178.9 Q 277.2 177.7, 278.9 177.7 " fill="#000000"/>
<path class="legend" d="M 283.4 183.9 Q 283.4 182.5, 284.5 181.8 Q 285.5 181.1, 287.5 181.1 L 288.7 181.1 L 288.7 180.8 Q 288.7 179.8, 288.2 179.3 Q 287.8 178.9, 286.8 178.9 Q 286.2 178.9, 285.6 179.0 Q 285.1 179.1, 284.3 179.5 L 283.9 178.4 Q 285.4 177.7, 286.8 177.7 Q 288.6 177.7, 289.4 178.5 Q 290.2 179.2, 290.2 180.8 L 290.2 186.1 L 289.0 186.1 Q 289.0 186.0, 289.0 185.8 Q 288.9 185.5, 288.8 185.1 Q 287.7 186.3, 286.1 186.3 Q 284.9 186.3, 284.2 185.6 Q 283.4 185.0, 283.4 183.9 M 284.9 183.8 Q 284.9 184.4, 285.3 184.8 Q 285.7 185.1, 286.4 185.1 Q 287.0 185.1, 287.7 184.8 Q 288.3 184.5, 288.7 184.0 L 288.7 182.2 L 287.6 182.2 Q 286.2 182.2, 285.6 182.6 Q 284.9 183.0, 284.9 183.8 " fill="#000000"/>
<path class="legend" d="M 292.0 179.0 L 292.0 177.9 L 293.6 177.9 L 293.8 175.5 L 294.9 175.5 L 294.9 177.9 L 297.4 177.9 L 297.4 179.0 L 294.9 179.0 L 294.9 183.6 Q 294.9 185.0, 296.1 185.0 Q 296.6 185.0, 297.3 184.8 L 297.6 185.8 Q 296.7 186.2, 295.9 186.2 Q 294.8 186.2, 294.1 185.5 Q 293.4 184.9, 293.4 183.6 L 293.4 179.0 L 292.0 179.0 " fill="#000000"/>
<path class="legend" d="M 298.5 182.0 Q 298.5 179.9, 299.6 178.8 Q 300.6 177.7, 302.4 177.7 Q 304.2 177.7, 305.0 178.8 Q 305.8 179.9, 305.8 181.9 L 305.8 182.2 L 300.1 182.2 Q 300.1 183.6, 300.7 184.3 Q 301.4 185.0, 302.5 185.0 Q 303.2 185.0, 303.8 184.9 Q 304.4 184.7, 305.1 184.4 L 305.5 185.4 Q 304.7 185.8, 304.0 186.0 Q 303.2 186.2, 302.5 186.2 Q 300.6 186.2, 299.6 185.1 Q 298.5 184.0, 298.5 182.0 M 302.4 178.9 Q 301.5 178.9, 300.9 179.4 Q 300.3 180.0, 300.1 181.0 L 304.2 181.0 Q 304.1 179.9, 303.7 179.4 Q 303.2 178.9, 302.4 178.9 " fill="#000000"/>
<path class="legend" d="" fill="#000000"/>
<path class="legend" d="M 312.9 182.0 Q 312.9 179.9, 313.9 178.8 Q 314.9 177.7, 316.8 177.7 Q 318.6 177.7, 319.4 178.8 Q 320.2 179.9, 320.2 181.9 L 320.2 182.2 L 314.5 182.2 Q 314.5 183.6, 315.1 184.3 Q 315.7 185.0, 316.9 185.0 Q 317.5 185.0, 318.1 184.9 Q 318.7 184.7, 319.4 184.4 L 319.9 185.4 Q 319.1 185.8, 318.3 186.0 Q 317.6 186.2, 316.8 186.2 Q 315.0 186.2, 313.9 185.1 Q 312.9 184.0, 312.9 182.0 M 316.8 178.9 Q 315.8 178.9, 315.3 179.4 Q 314.7 180.0, 314.5 181.0 L 318.6 181.0 Q 318.5 179.9, 318.1 179.4 Q 317.6 178.9, 316.8 178.9 " fill="#000000"/>
<path class="legend" d="M 321.8 184.4 Q 322.6 184.7, 323.1 184.8 Q 323.6 185.0, 324.2 185.0 Q 324.9 185.0, 325.3 184.7 Q 325.7 184.4, 325.7 183.8 Q 325.7 183.4, 325.5 183.2 Q 325.3 182.9, 325.0 182.8 Q 324.7 182.7, 324.0 182.5 Q 323.9 182.4, 323.2 182.2 Q 322.4 181.9, 322.0 181.4 Q 321.7 180.8, 321.7 180.0 Q 321.7 179.1, 322.4 178.4 Q 323.2 177.7, 324.7 177.7 Q 325.3 177.7, 325.8 177.9 Q 326.4 178.0, 327.0 178.2 L 326.6 179.4 Q 326.1 179.2, 325.6 179.1 Q 325.2 179.0, 324.7 179.0 Q 323.9 179.0, 323.5 179.3 Q 323.2 179.6, 323.2 180.0 Q 323.2 180.5, 323.5 180.7 Q 323.8 180.9, 324.4 181.2 Q 324.6 181.2, 324.8 181.3 L 325.1 181.4 Q 325.8 181.6, 326.2 181.9 Q 326.6 182.1, 326.9 182.5 Q 327.2 183.0, 327.2 183.7 Q 327.2 184.9, 326.4 185.6 Q 325.5 186.2, 324.2 186.2 Q 323.4 186.2, 322.7 186.1 Q 322.1 185.9, 321.4 185.6 L 321.8 184.4 " fill="#000000"/>
<path class="legend" d="M 328.6 179.0 L 328.6 177.9 L 330.2 177.9 L 330.5 175.5 L 331.6 175.5 L 331.6 177.9 L 334.1 177.9 L 334.1 179.0 L 331.6 179.0 L 331.6 183.6 Q 331.6 185.0, 332.8 185.0 Q 333.3 185.0, 334.0 184.8 L 334.2 185.8 Q 333.3 186.2, 332.5 186.2 Q 331.4 186.2, 330.7 185.5 Q 330.1 184.9, 330.1 183.6 L 330.1 179.0 L 328.6 179.0 " fill="#000000"/>
<path class="legend" d="M 335.2 182.0 Q 335.2 179.9, 336.2 178.8 Q 337.2 177.7, 339.0 177.7 Q 340.9 177.7, 341.7 178.8 Q 342.5 179.9, 342.5 181.9 L 342.5 182.2 L 336.7 182.2 Q 336.8 183.6, 337.4 184.3 Q 338.0 185.0, 339.2 185.0 Q 339.8 185.0, 340.4 184.9 Q 341.0 184.7, 341.7 184.4 L 342.2 185.4 Q 341.3 185.8, 340.6 186.0 Q 339.9 186.2, 339.1 186.2 Q 337.2 186.2, 336.2 185.1 Q 335.2 184.0, 335.2 182.0 M 339.0 178.9 Q 338.1 178.9, 337.5 179.4 Q 337.0 180.0, 336.8 181.0 L 340.9 181.0 Q 340.8 179.9, 340.3 179.4 Q 339.9 178.9, 339.0 178.9 " fill="#000000"/>
<path class="legend" d="M 344.9 177.9 L 345.0 179.0 Q 345.9 177.7, 347.3 177.7 Q 347.8 177.7, 348.4 177.9 L 348.1 179.2 Q 347.4 179.1, 347.1 179.1 Q 346.4 179.1, 345.9 179.3 Q 345.5 179.6, 345.2 180.2 L 345.2 186.1 L 343.7 186.1 L 343.7 177.9 L 344.9 177.9 " fill="#000000"/>
<path class="legend" d="M 349.7 184.4 Q 350.4 184.7, 350.9 184.8 Q 351.4 185.0, 352.0 185.0 Q 352.7 185.0, 353.1 184.7 Q 353.5 184.4, 353.5 183.8 Q 353.5 183.4, 353.3 183.2 Q 353.1 182.9, 352.8 182.8 Q 352.6 182.7, 351.8 182.5 Q 351.7 182.4, 351.0 182.2 Q 350.2 181.9, 349.8 181.4 Q 349.5 180.8, 349.5 180.0 Q 349.5 179.1, 350.2 178.4 Q 351.0 177.7, 352.5 177.7 Q 353.1 177.7, 353.7 177.9 Q 354.2 178.0, 354.8 178.2 L 354.4 179.4 Q 353.9 179.2, 353.4 179.1 Q 353.0 179.0, 352.5 179.0 Q 351.7 179.0, 351.4 179.3 Q 351.0 179.6, 351.0 180.0 Q 351.0 180.5, 351.3 180.7 Q 351.6 180.9, 352.2 181.2 Q 352.4 181.2, 352.6 181.3 L 353.0 181.4 Q 353.6 181.6, 354.0 181.9 Q 354.4 182.1, 354.7 182.5 Q 355.0 183.0, 355.0 183.7 Q 355.0 184.9, 354.2 185.6 Q 353.3 186.2, 352.0 186.2 Q 351.2 186.2, 350.5 186.1 Q 349.9 185.9, 349.2 185.6 L 349.7 184.4 " fill="#000000"/>
<path class="bond-0 atom-0 atom-1" d="M 546.5,91.1 L 537.0,85.6" style="fill:none;fill-rule:evenodd;stroke:#7F7F7F;stroke-width:2.0px;stroke-linecap:butt;stroke-linejoin:miter;stroke-opacity:1"/>
<path class="bond-0 atom-0 atom-1" d="M 535.8,87.7 L 526.3,82.2" style="fill:none;fill-rule:evenodd;stroke:#7F7F7F;stroke-width:2.0px;stroke-linecap:butt;stroke-linejoin:miter;stroke-opacity:1"/>
<path class="bond-0 atom-0 atom-1" d="M 538.2,83.6 L 528.7,78.1" style="fill:none;fill-rule:evenodd;stroke:#7F7F7F;stroke-width:2.0px;stroke-linecap:butt;stroke-linejoin:miter;stroke-opacity:1;stroke-dasharray:1,1.33333"/>
<path class="bond-1 atom-1 atom-2" d="M 511.0,80.2 L 505.0,83.6" style="fill:none;fill-rule:evenodd;stroke:#7F7F7F;stroke-width:2.0px;stroke-linecap:butt;stroke-linejoin:miter;stroke-opacity:1"/>
<path class="bond-1 atom-1 atom-2" d="M 506.2,85.6 L 500.2,89.1" style="fill:none;fill-rule:evenodd;stroke:#7F7F7F;stroke-width:2.0px;stroke-linecap:butt;stroke-linejoin:miter;stroke-opacity:1"/>
<path class="bond-1 atom-1 atom-2" d="M 503.8,81.6 L 497.8,85.0" style="fill:none;fill-rule:evenodd;stroke:#7F7F7F;stroke-width:2.0px;stroke-linecap:butt;stroke-linejoin:miter;stroke-opacity:1;stroke-dasharray:0.5,0.666667"/>
<path class="bond-2 atom-2 atom-3" d="M 495.1,101.2 L 500.7,110.8" style="fill:none;fill-rule:evenodd;stroke:#000000;stroke-width:2.0px;stroke-linecap:butt;stroke-linejoin:miter;stroke-opacity:1"/>
<path class="bond-2 atom-2 atom-3" d="M 499.1,98.8 L 504.7,108.5" style="fill:none;fill-rule:evenodd;stroke:#000000;stroke-width:2.0px;stroke-linecap:butt;stroke-linejoin:miter;stroke-opacity:1"/>
<path class="bond-3 atom-2 atom-4" d="M 483.8,93.1 L 471.8,100.0" style="fill:none;fill-rule:evenodd;stroke:#000000;stroke-width:2.0px;stroke-linecap:butt;stroke-linejoin:miter;stroke-opacity:1"/>
<path class="bond-3 atom-2 atom-4" d="M 486.1,97.2 L 474.2,104.1" style="fill:none;fill-rule:evenodd;stroke:#000000;stroke-width:2.0px;stroke-linecap:butt;stroke-linejoin:miter;stroke-opacity:1"/>
<path class="bond-4 atom-2 atom-5" d="M 487.0,82.5 L 484.4,78.0" style="fill:none;fill-rule:evenodd;stroke:#7F7F7F;stroke-width:2.0px;stroke-linecap:butt;stroke-linejoin:miter;stroke-opacity:1"/>
<path class="bond-4 atom-2 atom-5" d="M 486.4,76.8 L 483.8,72.3" style="fill:none;fill-rule:evenodd;stroke:#7F7F7F;stroke-width:2.0px;stroke-linecap:butt;stroke-linejoin:miter;stroke-opacity:1"/>
<path class="bond-4 atom-2 atom-5" d="M 482.4,79.1 L 479.7,74.6" style="fill:none;fill-rule:evenodd;stroke:#7F7F7F;stroke-width:2.0px;stroke-linecap:butt;stroke-linejoin:miter;stroke-opacity:1;stroke-dasharray:0.5,0.666667"/>
<path class="atom-1" d="M 515.1 75.4 Q 515.1 73.3, 516.2 72.1 Q 517.2 70.9, 519.2 70.9 Q 521.2 70.9, 522.3 72.1 Q 523.3 73.3, 523.3 75.4 Q 523.3 77.6, 522.2 78.8 Q 521.2 80.0, 519.2 80.0 Q 517.3 80.0, 516.2 78.8 Q 515.1 77.6, 515.1 75.4 M 519.2 79.0 Q 520.6 79.0, 521.3 78.1 Q 522.1 77.2, 522.1 75.4 Q 522.1 73.7, 521.3 72.8 Q 520.6 71.9, 519.2 71.9 Q 517.9 71.9, 517.1 72.8 Q 516.4 73.7, 516.4 75.4 Q 516.4 77.2, 517.1 78.1 Q 517.9 79.0, 519.2 79.0 " fill="#000000"/>
<path class="atom-2" d="M 489.5 94.2 Q 489.6 94.2, 490.0 94.4 Q 490.4 94.6, 490.9 94.7 Q 491.3 94.8, 491.8 94.8 Q 492.6 94.8, 493.1 94.4 Q 493.6 94.0, 493.6 93.2 Q 493.6 92.7, 493.3 92.4 Q 493.1 92.1, 492.7 92.0 Q 492.4 91.8, 491.7 91.6 Q 490.9 91.4, 490.5 91.2 Q 490.0 90.9, 489.6 90.5 Q 489.3 90.0, 489.3 89.2 Q 489.3 88.1, 490.1 87.4 Q 490.8 86.7, 492.4 86.7 Q 493.4 86.7, 494.6 87.2 L 494.3 88.1 Q 493.2 87.7, 492.4 87.7 Q 491.5 87.7, 491.0 88.1 Q 490.6 88.4, 490.6 89.0 Q 490.6 89.5, 490.8 89.8 Q 491.1 90.1, 491.4 90.2 Q 491.8 90.4, 492.4 90.6 Q 493.2 90.8, 493.7 91.1 Q 494.1 91.4, 494.5 91.9 Q 494.8 92.4, 494.8 93.2 Q 494.8 94.5, 494.0 95.1 Q 493.2 95.8, 491.8 95.8 Q 491.0 95.8, 490.4 95.6 Q 489.8 95.5, 489.1 95.2 L 489.5 94.2 " fill="#000000"/>
<path class="atom-3" d="M 503.6 118.4 Q 503.6 116.2, 504.7 115.0 Q 505.7 113.8, 507.7 113.8 Q 509.7 113.8, 510.7 115.0 Q 511.8 116.2, 511.8 118.4 Q 511.8 120.5, 510.7 121.8 Q 509.7 123.0, 507.7 123.0 Q 505.7 123.0, 504.7 121.8 Q 503.6 120.6, 503.6 118.4 M 507.7 122.0 Q 509.1 122.0, 509.8 121.1 Q 510.5 120.2, 510.5 118.4 Q 510.5 116.6, 509.8 115.7 Q 509.1 114.9, 507.7 114.9 Q 506.4 114.9, 505.6 115.7 Q 504.9 116.6, 504.9 118.4 Q 504.9 120.2, 505.6 121.1 Q 506.4 122.0, 507.7 122.0 " fill="#000000"/>
<path class="atom-4" d="M 460.7 106.9 Q 460.7 104.7, 461.7 103.5 Q 462.8 102.3, 464.8 102.3 Q 466.7 102.3, 467.8 103.5 Q 468.8 104.7, 468.8 106.9 Q 468.8 109.0, 467.8 110.3 Q 466.7 111.5, 464.8 111.5 Q 462.8 111.5, 461.7 110.3 Q 460.7 109.0, 460.7 106.9 M 464.8 110.5 Q 466.1 110.5, 466.8 109.6 Q 467.6 108.6, 467.6 106.9 Q 467.6 105.1, 466.8 104.2 Q 466.1 103.3, 464.8 103.3 Q 463.4 103.3, 462.6 104.2 Q 461.9 105.1, 461.9 106.9 Q 461.9 108.7, 462.6 109.6 Q 463.4 110.5, 464.8 110.5 " fill="#000000"/>
<path class="atom-5" d="M 453.5 59.0 L 456.2 59.0 L 456.2 59.9 L 454.6 59.9 L 454.6 70.3 L 456.2 70.3 L 456.2 71.2 L 453.5 71.2 L 453.5 59.0 " fill="#000000"/>
<path class="atom-5" d="M 456.9 64.3 Q 456.9 62.1, 457.9 60.9 Q 459.0 59.7, 460.9 59.7 Q 462.8 59.7, 463.8 61.0 L 462.9 61.7 Q 462.2 60.8, 460.9 60.8 Q 459.6 60.8, 458.9 61.7 Q 458.2 62.6, 458.2 64.3 Q 458.2 66.0, 458.9 66.9 Q 459.6 67.9, 461.1 67.9 Q 462.1 67.9, 463.2 67.3 L 463.5 68.2 Q 463.1 68.5, 462.4 68.7 Q 461.7 68.9, 460.9 68.9 Q 459.0 68.9, 457.9 67.7 Q 456.9 66.5, 456.9 64.3 " fill="#000000"/>
<path class="atom-5" d="M 464.7 67.5 L 465.9 67.5 L 465.9 68.5 L 465.7 70.2 L 465.2 70.2 L 465.2 68.7 L 464.7 68.7 L 464.7 67.5 " fill="#000000"/>
<path class="atom-5" d="M 467.1 64.3 Q 467.1 62.1, 468.2 60.9 Q 469.2 59.7, 471.2 59.7 Q 473.0 59.7, 474.0 61.0 L 473.2 61.7 Q 472.5 60.8, 471.2 60.8 Q 469.8 60.8, 469.1 61.7 Q 468.4 62.6, 468.4 64.3 Q 468.4 66.0, 469.2 66.9 Q 469.9 67.9, 471.3 67.9 Q 472.3 67.9, 473.5 67.3 L 473.8 68.2 Q 473.3 68.5, 472.6 68.7 Q 471.9 68.9, 471.2 68.9 Q 469.2 68.9, 468.2 67.7 Q 467.1 66.5, 467.1 64.3 " fill="#000000"/>
<path class="atom-5" d="M 477.6 59.0 L 477.6 71.2 L 474.9 71.2 L 474.9 70.3 L 476.5 70.3 L 476.5 59.9 L 474.9 59.9 L 474.9 59.0 L 477.6 59.0 " fill="#000000"/>
<path class="legend" d="M 457.2 184.3 Q 457.4 184.4, 457.9 184.6 Q 458.4 184.8, 459.0 185.0 Q 459.6 185.1, 460.2 185.1 Q 461.2 185.1, 461.8 184.6 Q 462.5 184.0, 462.5 183.1 Q 462.5 182.5, 462.2 182.1 Q 461.8 181.7, 461.4 181.5 Q 460.9 181.3, 460.1 181.1 Q 459.1 180.8, 458.5 180.5 Q 457.9 180.2, 457.4 179.6 Q 457.0 179.0, 457.0 178.0 Q 457.0 176.5, 458.0 175.7 Q 459.0 174.8, 460.9 174.8 Q 462.2 174.8, 463.7 175.4 L 463.3 176.6 Q 462.0 176.1, 460.9 176.1 Q 459.8 176.1, 459.2 176.5 Q 458.6 177.0, 458.6 177.8 Q 458.6 178.4, 458.9 178.8 Q 459.3 179.1, 459.7 179.3 Q 460.2 179.5, 460.9 179.8 Q 462.0 180.1, 462.6 180.4 Q 463.2 180.7, 463.6 181.4 Q 464.1 182.0, 464.1 183.1 Q 464.1 184.7, 463.0 185.6 Q 462.0 186.4, 460.2 186.4 Q 459.2 186.4, 458.4 186.2 Q 457.7 186.0, 456.8 185.6 L 457.2 184.3 " fill="#000000"/>
<path class="legend" d="M 472.4 177.9 L 472.4 186.1 L 471.2 186.1 L 471.0 184.9 Q 470.0 186.2, 468.2 186.2 Q 466.9 186.2, 466.2 185.5 Q 465.4 184.7, 465.4 183.3 L 465.4 177.9 L 467.0 177.9 L 467.0 183.2 Q 467.0 184.2, 467.3 184.6 Q 467.7 185.0, 468.5 185.0 Q 469.3 185.0, 469.9 184.7 Q 470.5 184.4, 470.9 183.7 L 470.9 177.9 L 472.4 177.9 " fill="#000000"/>
<path class="legend" d="M 474.4 173.9 L 475.9 173.9 L 475.9 186.1 L 474.4 186.1 L 474.4 173.9 " fill="#000000"/>
<path class="legend" d="M 481.7 177.7 Q 483.4 177.7, 484.4 178.8 Q 485.3 179.8, 485.3 181.8 Q 485.3 183.9, 484.2 185.1 Q 483.1 186.2, 481.1 186.2 Q 480.2 186.2, 479.4 186.0 L 479.4 190.0 L 477.9 190.0 L 477.9 177.9 L 479.1 177.9 L 479.3 178.8 Q 479.7 178.3, 480.3 178.0 Q 481.0 177.7, 481.7 177.7 M 481.1 185.0 Q 482.3 185.0, 483.1 184.2 Q 483.8 183.3, 483.8 181.8 Q 483.8 180.4, 483.2 179.7 Q 482.6 178.9, 481.6 178.9 Q 480.8 178.9, 480.2 179.3 Q 479.6 179.8, 479.4 180.5 L 479.4 184.8 Q 480.2 185.0, 481.1 185.0 " fill="#000000"/>
<path class="legend" d="M 491.0 177.7 Q 492.3 177.7, 493.0 178.5 Q 493.7 179.2, 493.7 180.6 L 493.7 186.1 L 492.2 186.1 L 492.2 180.8 Q 492.2 179.8, 491.8 179.3 Q 491.4 178.9, 490.6 178.9 Q 489.8 178.9, 489.2 179.2 Q 488.6 179.6, 488.2 180.2 L 488.2 186.1 L 486.7 186.1 L 486.7 173.9 L 488.2 173.9 L 488.2 178.9 Q 489.3 177.7, 491.0 177.7 " fill="#000000"/>
<path class="legend" d="M 495.5 182.0 Q 495.5 180.0, 496.6 178.8 Q 497.6 177.7, 499.4 177.7 Q 501.3 177.7, 502.3 178.8 Q 503.4 180.0, 503.4 182.0 Q 503.4 184.0, 502.3 185.1 Q 501.3 186.2, 499.4 186.2 Q 497.6 186.2, 496.6 185.1 Q 495.5 184.0, 495.5 182.0 M 497.1 182.0 Q 497.1 183.5, 497.7 184.2 Q 498.3 185.0, 499.4 185.0 Q 500.6 185.0, 501.2 184.2 Q 501.8 183.5, 501.8 182.0 Q 501.8 180.4, 501.2 179.7 Q 500.6 178.9, 499.4 178.9 Q 498.3 178.9, 497.7 179.7 Q 497.1 180.4, 497.1 182.0 " fill="#000000"/>
<path class="legend" d="M 509.0 177.7 Q 510.3 177.7, 511.0 178.5 Q 511.7 179.2, 511.7 180.6 L 511.7 186.1 L 510.2 186.1 L 510.2 180.8 Q 510.2 179.8, 509.8 179.3 Q 509.5 178.9, 508.6 178.9 Q 507.9 178.9, 507.3 179.2 Q 506.6 179.6, 506.2 180.2 L 506.2 186.1 L 504.7 186.1 L 504.7 177.9 L 506.0 177.9 L 506.1 179.0 Q 507.2 177.7, 509.0 177.7 " fill="#000000"/>
<path class="legend" d="M 513.6 183.9 Q 513.6 182.5, 514.6 181.8 Q 515.7 181.1, 517.6 181.1 L 518.9 181.1 L 518.9 180.8 Q 518.9 179.8, 518.4 179.3 Q 518.0 178.9, 517.0 178.9 Q 516.3 178.9, 515.8 179.0 Q 515.3 179.1, 514.5 179.5 L 514.1 178.4 Q 515.6 177.7, 517.0 177.7 Q 518.8 177.7, 519.6 178.5 Q 520.4 179.2, 520.4 180.8 L 520.4 186.1 L 519.2 186.1 Q 519.2 186.0, 519.1 185.8 Q 519.1 185.5, 519.0 185.1 Q 517.8 186.3, 516.3 186.3 Q 515.1 186.3, 514.3 185.6 Q 513.6 185.0, 513.6 183.9 M 515.1 183.8 Q 515.1 184.4, 515.5 184.8 Q 515.9 185.1, 516.6 185.1 Q 517.2 185.1, 517.8 184.8 Q 518.4 184.5, 518.9 184.0 L 518.9 182.2 L 517.7 182.2 Q 516.4 182.2, 515.8 182.6 Q 515.1 183.0, 515.1 183.8 " fill="#000000"/>
<path class="legend" d="M 522.2 179.0 L 522.2 177.9 L 523.8 177.9 L 524.1 175.5 L 525.2 175.5 L 525.2 177.9 L 527.7 177.9 L 527.7 179.0 L 525.2 179.0 L 525.2 183.6 Q 525.2 185.0, 526.4 185.0 Q 526.9 185.0, 527.6 184.8 L 527.8 185.8 Q 526.9 186.2, 526.1 186.2 Q 525.0 186.2, 524.3 185.5 Q 523.7 184.9, 523.7 183.6 L 523.7 179.0 L 522.2 179.0 " fill="#000000"/>
<path class="legend" d="M 528.9 182.0 Q 528.9 179.9, 529.9 178.8 Q 530.9 177.7, 532.7 177.7 Q 534.5 177.7, 535.3 178.8 Q 536.1 179.9, 536.1 181.9 L 536.1 182.2 L 530.4 182.2 Q 530.4 183.6, 531.0 184.3 Q 531.7 185.0, 532.8 185.0 Q 533.5 185.0, 534.1 184.9 Q 534.7 184.7, 535.4 184.4 L 535.8 185.4 Q 535.0 185.8, 534.3 186.0 Q 533.5 186.2, 532.8 186.2 Q 530.9 186.2, 529.9 185.1 Q 528.9 184.0, 528.9 182.0 M 532.7 178.9 Q 531.8 178.9, 531.2 179.4 Q 530.6 180.0, 530.5 181.0 L 534.6 181.0 Q 534.4 179.9, 534.0 179.4 Q 533.5 178.9, 532.7 178.9 " fill="#000000"/>
<path class="legend" d="M 537.8 184.4 Q 538.6 184.7, 539.1 184.8 Q 539.6 185.0, 540.2 185.0 Q 540.9 185.0, 541.3 184.7 Q 541.7 184.4, 541.7 183.8 Q 541.7 183.4, 541.5 183.2 Q 541.3 182.9, 541.0 182.8 Q 540.7 182.7, 540.0 182.5 Q 539.9 182.4, 539.2 182.2 Q 538.4 181.9, 538.0 181.4 Q 537.7 180.8, 537.7 180.0 Q 537.7 179.1, 538.4 178.4 Q 539.2 177.7, 540.7 177.7 Q 541.3 177.7, 541.8 177.9 Q 542.4 178.0, 543.0 178.2 L 542.6 179.4 Q 542.1 179.2, 541.6 179.1 Q 541.2 179.0, 540.7 179.0 Q 539.9 179.0, 539.5 179.3 Q 539.2 179.6, 539.2 180.0 Q 539.2 180.5, 539.5 180.7 Q 539.8 180.9, 540.4 181.2 Q 540.6 181.2, 540.8 181.3 L 541.1 181.4 Q 541.8 181.6, 542.2 181.9 Q 542.6 182.1, 542.9 182.5 Q 543.2 183.0, 543.2 183.7 Q 543.2 184.9, 542.4 185.6 Q 541.5 186.2, 540.2 186.2 Q 539.4 186.2, 538.7 186.1 Q 538.1 185.9, 537.4 185.6 L 537.8 184.4 " fill="#000000"/>
<path class="bond-0 atom-0 atom-1" d="M 127.2,300.1 L 146.2,289.1" style="fill:none;fill-rule:evenodd;stroke:#000000;stroke-width:2.0px;stroke-linecap:butt;stroke-linejoin:miter;stroke-opacity:1"/>
<path class="bond-0 atom-0 atom-1" d="M 127.2,294.6 L 143.8,285.1" style="fill:none;fill-rule:evenodd;stroke:#000000;stroke-width:2.0px;stroke-linecap:butt;stroke-linejoin:miter;stroke-opacity:1"/>
<path class="bond-1 atom-0 atom-2" d="M 127.2,300.1 L 117.8,294.6" style="fill:none;fill-rule:evenodd;stroke:#7F7F7F;stroke-width:2.0px;stroke-linecap:butt;stroke-linejoin:miter;stroke-opacity:1"/>
<path class="bond-1 atom-0 atom-2" d="M 117.8,294.6 L 108.3,289.1" style="fill:none;fill-rule:evenodd;stroke:#7F7F7F;stroke-width:2.0px;stroke-linecap:butt;stroke-linejoin:miter;stroke-opacity:1"/>
<path class="bond-1 atom-0 atom-2" d="M 118.9,289.9 L 110.6,285.1" style="fill:none;fill-rule:evenodd;stroke:#7F7F7F;stroke-width:2.0px;stroke-linecap:butt;stroke-linejoin:miter;stroke-opacity:1;stroke-dasharray:1,1.33333"/>
<path class="bond-2 atom-2 atom-3" d="M 91.7,289.1 L 82.2,294.6" style="fill:none;fill-rule:evenodd;stroke:#7F7F7F;stroke-width:2.0px;stroke-linecap:butt;stroke-linejoin:miter;stroke-opacity:1"/>
<path class="bond-2 atom-2 atom-3" d="M 82.2,294.6 L 72.8,300.1" style="fill:none;fill-rule:evenodd;stroke:#7F7F7F;stroke-width:2.0px;stroke-linecap:butt;stroke-linejoin:miter;stroke-opacity:1"/>
<path class="bond-2 atom-2 atom-3" d="M 84.6,298.7 L 75.1,304.2" style="fill:none;fill-rule:evenodd;stroke:#7F7F7F;stroke-width:2.0px;stroke-linecap:butt;stroke-linejoin:miter;stroke-opacity:1;stroke-dasharray:1,1.33333"/>
<path class="bond-3 atom-3 atom-4" d="M 72.8,300.1 L 53.8,289.1" style="fill:none;fill-rule:evenodd;stroke:#000000;stroke-width:2.0px;stroke-linecap:butt;stroke-linejoin:miter;stroke-opacity:1"/>
<path class="bond-3 atom-3 atom-4" d="M 72.8,294.6 L 56.2,285.1" style="fill:none;fill-rule:evenodd;stroke:#000000;stroke-width:2.0px;stroke-linecap:butt;stroke-linejoin:miter;stroke-opacity:1"/>
<path d="M 127.7,299.8 L 127.2,300.1 L 127.0,300.0" style="fill:none;stroke:#000000;stroke-width:2.0px;stroke-linecap:butt;stroke-linejoin:miter;stroke-opacity:1;"/>
<path d="M 73.0,300.0 L 72.8,300.1 L 72.3,299.8" style="fill:none;stroke:#7F7F7F;stroke-width:2.0px;stroke-linecap:butt;stroke-linejoin:miter;stroke-opacity:1;"/>
<path class="atom-1" d="M 149.2 282.4 Q 149.2 280.2, 150.3 279.0 Q 151.3 277.8, 153.3 277.8 Q 155.3 277.8, 156.3 279.0 Q 157.4 280.2, 157.4 282.4 Q 157.4 284.5, 156.3 285.7 Q 155.2 287.0, 153.3 287.0 Q 151.3 287.0, 150.3 285.7 Q 149.2 284.5, 149.2 282.4 M 153.3 286.0 Q 154.7 286.0, 155.4 285.1 Q 156.1 284.1, 156.1 282.4 Q 156.1 280.6, 155.4 279.7 Q 154.7 278.8, 153.3 278.8 Q 151.9 278.8, 151.2 279.7 Q 150.5 280.6, 150.5 282.4 Q 150.5 284.1, 151.2 285.1 Q 151.9 286.0, 153.3 286.0 " fill="#000000"/>
<path class="atom-2" d="M 95.9 284.4 Q 95.9 282.3, 97.0 281.1 Q 98.0 279.9, 100.0 279.9 Q 102.0 279.9, 103.0 281.1 Q 104.1 282.3, 104.1 284.4 Q 104.1 286.6, 103.0 287.8 Q 101.9 289.0, 100.0 289.0 Q 98.0 289.0, 97.0 287.8 Q 95.9 286.6, 95.9 284.4 M 100.0 288.0 Q 101.4 288.0, 102.1 287.1 Q 102.8 286.2, 102.8 284.4 Q 102.8 282.6, 102.1 281.8 Q 101.4 280.9, 100.0 280.9 Q 98.6 280.9, 97.9 281.8 Q 97.2 282.6, 97.2 284.4 Q 97.2 286.2, 97.9 287.1 Q 98.6 288.0, 100.0 288.0 " fill="#000000"/>
<path class="atom-4" d="M 42.6 282.4 Q 42.6 280.2, 43.7 279.0 Q 44.7 277.8, 46.7 277.8 Q 48.7 277.8, 49.7 279.0 Q 50.8 280.2, 50.8 282.4 Q 50.8 284.5, 49.7 285.7 Q 48.7 287.0, 46.7 287.0 Q 44.7 287.0, 43.7 285.7 Q 42.6 284.5, 42.6 282.4 M 46.7 286.0 Q 48.1 286.0, 48.8 285.1 Q 49.5 284.1, 49.5 282.4 Q 49.5 280.6, 48.8 279.7 Q 48.1 278.8, 46.7 278.8 Q 45.3 278.8, 44.6 279.7 Q 43.9 280.6, 43.9 282.4 Q 43.9 284.1, 44.6 285.1 Q 45.3 286.0, 46.7 286.0 " fill="#000000"/>
<path class="legend" d="M 51.5 386.1 L 50.3 382.7 L 45.8 382.7 L 44.6 386.1 L 43.1 386.1 L 47.0 374.7 L 48.9 374.7 L 52.9 386.1 L 51.5 386.1 M 46.2 381.5 L 49.8 381.5 L 48.0 376.3 L 46.2 381.5 " fill="#000000"/>
<path class="legend" d="M 53.7 381.9 Q 53.7 380.0, 54.7 378.8 Q 55.7 377.7, 57.7 377.7 Q 59.5 377.7, 60.5 379.1 L 59.5 379.8 Q 59.1 379.3, 58.7 379.1 Q 58.2 378.9, 57.7 378.9 Q 56.5 378.9, 55.9 379.7 Q 55.3 380.4, 55.3 381.9 Q 55.3 383.5, 55.9 384.2 Q 56.6 385.0, 57.8 385.0 Q 58.4 385.0, 58.9 384.9 Q 59.4 384.7, 59.9 384.4 L 60.3 385.5 Q 59.2 386.2, 57.6 386.2 Q 55.7 386.2, 54.7 385.0 Q 53.7 383.9, 53.7 381.9 " fill="#000000"/>
<path class="legend" d="M 61.5 374.7 L 62.9 374.7 L 62.9 376.1 L 61.5 376.1 L 61.5 374.7 M 61.5 377.8 L 62.9 377.8 L 62.9 386.1 L 61.5 386.1 L 61.5 377.8 " fill="#000000"/>
<path class="legend" d="M 72.4 373.9 L 72.4 386.0 L 71.2 386.0 L 71.0 385.0 Q 70.0 386.2, 68.5 386.2 Q 66.8 386.2, 65.9 385.1 Q 64.9 384.1, 64.9 382.1 Q 64.9 380.0, 66.0 378.9 Q 67.2 377.7, 69.1 377.7 Q 70.0 377.7, 70.9 377.9 L 70.9 373.9 L 72.4 373.9 M 68.6 385.0 Q 69.5 385.0, 70.0 384.6 Q 70.7 384.1, 70.9 383.3 L 70.9 379.1 Q 70.1 378.9, 69.2 378.9 Q 67.9 378.9, 67.2 379.7 Q 66.4 380.6, 66.4 382.1 Q 66.4 383.5, 67.0 384.3 Q 67.6 385.0, 68.6 385.0 " fill="#000000"/>
<path class="legend" d="" fill="#000000"/>
<path class="legend" d="M 80.2 383.8 Q 80.2 382.5, 81.2 381.8 Q 82.3 381.1, 84.2 381.1 L 85.4 381.1 L 85.4 380.8 Q 85.4 379.7, 85.0 379.3 Q 84.6 378.9, 83.6 378.9 Q 82.9 378.9, 82.4 379.0 Q 81.9 379.1, 81.1 379.5 L 80.6 378.4 Q 82.1 377.7, 83.6 377.7 Q 85.3 377.7, 86.1 378.4 Q 86.9 379.2, 86.9 380.8 L 86.9 386.1 L 85.8 386.1 Q 85.8 386.0, 85.7 385.8 Q 85.7 385.5, 85.6 385.1 Q 84.4 386.3, 82.9 386.3 Q 81.6 386.3, 80.9 385.6 Q 80.2 384.9, 80.2 383.8 M 81.7 383.8 Q 81.7 384.4, 82.1 384.8 Q 82.4 385.1, 83.2 385.1 Q 83.8 385.1, 84.4 384.8 Q 85.0 384.5, 85.4 384.0 L 85.4 382.2 L 84.3 382.2 Q 83.0 382.2, 82.3 382.6 Q 81.7 383.0, 81.7 383.8 " fill="#000000"/>
<path class="legend" d="M 93.1 377.7 Q 94.4 377.7, 95.1 378.4 Q 95.8 379.2, 95.8 380.6 L 95.8 386.1 L 94.3 386.1 L 94.3 380.7 Q 94.3 379.8, 93.9 379.3 Q 93.5 378.9, 92.7 378.9 Q 91.9 378.9, 91.3 379.2 Q 90.7 379.6, 90.3 380.2 L 90.3 386.1 L 88.8 386.1 L 88.8 377.8 L 90.0 377.8 L 90.2 379.0 Q 91.3 377.7, 93.1 377.7 " fill="#000000"/>
<path class="legend" d="M 101.9 377.7 Q 103.2 377.7, 103.9 378.4 Q 104.6 379.2, 104.6 380.6 L 104.6 386.1 L 103.1 386.1 L 103.1 380.7 Q 103.1 379.8, 102.7 379.3 Q 102.3 378.9, 101.5 378.9 Q 100.7 378.9, 100.1 379.2 Q 99.5 379.6, 99.1 380.2 L 99.1 386.1 L 97.6 386.1 L 97.6 373.9 L 99.1 373.9 L 99.1 378.9 Q 100.2 377.7, 101.9 377.7 " fill="#000000"/>
<path class="legend" d="M 112.7 377.8 L 114.2 377.8 L 109.9 390.0 L 108.6 390.0 L 109.9 386.1 L 109.3 386.1 L 106.4 377.8 L 107.9 377.8 L 110.4 384.8 L 112.7 377.8 " fill="#000000"/>
<path class="legend" d="M 122.4 373.9 L 122.4 386.0 L 121.2 386.0 L 121.0 385.0 Q 120.1 386.2, 118.5 386.2 Q 116.8 386.2, 115.9 385.1 Q 114.9 384.1, 114.9 382.1 Q 114.9 380.0, 116.1 378.9 Q 117.2 377.7, 119.2 377.7 Q 120.0 377.7, 120.9 377.9 L 120.9 373.9 L 122.4 373.9 M 118.6 385.0 Q 119.5 385.0, 120.1 384.6 Q 120.7 384.1, 120.9 383.3 L 120.9 379.1 Q 120.1 378.9, 119.2 378.9 Q 117.9 378.9, 117.2 379.7 Q 116.5 380.6, 116.5 382.1 Q 116.5 383.5, 117.0 384.3 Q 117.6 385.0, 118.6 385.0 " fill="#000000"/>
<path class="legend" d="M 125.5 377.8 L 125.7 379.0 Q 126.5 377.7, 127.9 377.7 Q 128.4 377.7, 129.0 377.9 L 128.8 379.2 Q 128.1 379.0, 127.7 379.0 Q 127.0 379.0, 126.6 379.3 Q 126.1 379.6, 125.8 380.2 L 125.8 386.1 L 124.3 386.1 L 124.3 377.8 L 125.5 377.8 " fill="#000000"/>
<path class="legend" d="M 129.8 374.7 L 131.3 374.7 L 131.3 376.1 L 129.8 376.1 L 129.8 374.7 M 129.8 377.8 L 131.3 377.8 L 131.3 386.1 L 129.8 386.1 L 129.8 377.8 " fill="#000000"/>
<path class="legend" d="M 140.7 373.9 L 140.7 386.0 L 139.5 386.0 L 139.3 385.0 Q 138.4 386.2, 136.9 386.2 Q 135.2 386.2, 134.2 385.1 Q 133.3 384.1, 133.3 382.1 Q 133.3 380.0, 134.4 378.9 Q 135.5 377.7, 137.5 377.7 Q 138.3 377.7, 139.2 377.9 L 139.2 373.9 L 140.7 373.9 M 137.0 385.0 Q 137.8 385.0, 138.4 384.6 Q 139.0 384.1, 139.2 383.3 L 139.2 379.1 Q 138.4 378.9, 137.5 378.9 Q 136.2 378.9, 135.5 379.7 Q 134.8 380.6, 134.8 382.1 Q 134.8 383.5, 135.4 384.3 Q 135.9 385.0, 137.0 385.0 " fill="#000000"/>
<path class="legend" d="M 142.6 381.9 Q 142.6 379.9, 143.6 378.8 Q 144.6 377.7, 146.5 377.7 Q 148.3 377.7, 149.1 378.8 Q 149.9 379.9, 149.9 381.9 L 149.9 382.1 L 144.1 382.1 Q 144.2 383.5, 144.8 384.3 Q 145.4 385.0, 146.6 385.0 Q 147.2 385.0, 147.8 384.9 Q 148.4 384.7, 149.1 384.4 L 149.6 385.4 Q 148.7 385.8, 148.0 386.0 Q 147.3 386.2, 146.5 386.2 Q 144.6 386.2, 143.6 385.1 Q 142.6 384.0, 142.6 381.9 M 146.5 378.9 Q 145.5 378.9, 144.9 379.4 Q 144.4 380.0, 144.2 381.0 L 148.3 381.0 Q 148.2 379.9, 147.7 379.4 Q 147.3 378.9, 146.5 378.9 " fill="#000000"/>
<path class="legend" d="M 151.5 384.4 Q 152.3 384.7, 152.8 384.8 Q 153.3 385.0, 153.9 385.0 Q 154.6 385.0, 155.0 384.7 Q 155.4 384.4, 155.4 383.8 Q 155.4 383.4, 155.2 383.2 Q 155.0 382.9, 154.7 382.8 Q 154.4 382.7, 153.7 382.5 Q 153.6 382.4, 152.9 382.2 Q 152.1 381.9, 151.7 381.4 Q 151.3 380.8, 151.3 380.0 Q 151.3 379.0, 152.1 378.4 Q 152.9 377.7, 154.4 377.7 Q 155.0 377.7, 155.5 377.8 Q 156.1 378.0, 156.7 378.2 L 156.3 379.4 Q 155.8 379.2, 155.3 379.1 Q 154.9 378.9, 154.4 378.9 Q 153.6 378.9, 153.2 379.2 Q 152.9 379.5, 152.9 380.0 Q 152.9 380.5, 153.2 380.7 Q 153.5 380.9, 154.1 381.1 Q 154.3 381.2, 154.5 381.2 L 154.8 381.4 Q 155.5 381.6, 155.9 381.8 Q 156.3 382.1, 156.6 382.5 Q 156.9 383.0, 156.9 383.7 Q 156.9 384.9, 156.1 385.6 Q 155.2 386.2, 153.9 386.2 Q 153.1 386.2, 152.4 386.0 Q 151.7 385.9, 151.1 385.6 L 151.5 384.4 " fill="#000000"/>
<path class="bond-0 atom-0 atom-1" d="M 292.5,290.9 L 300.0,290.9" style="fill:none;fill-rule:evenodd;stroke:#7F7F7F;stroke-width:2.0px;stroke-linecap:butt;stroke-linejoin:miter;stroke-opacity:1"/>
<path class="bond-0 atom-0 atom-1" d="M 300.0,288.6 L 307.5,288.6" style="fill:none;fill-rule:evenodd;stroke:#7F7F7F;stroke-width:2.0px;stroke-linecap:butt;stroke-linejoin:miter;stroke-opacity:1"/>
<path class="bond-0 atom-0 atom-1" d="M 300.0,293.3 L 307.5,293.3" style="fill:none;fill-rule:evenodd;stroke:#7F7F7F;stroke-width:2.0px;stroke-linecap:butt;stroke-linejoin:miter;stroke-opacity:1;stroke-dasharray:1,1.33333"/>
<path class="atom-0" d="M 280.2 291.0 Q 280.2 288.8, 281.2 287.6 Q 282.3 286.4, 284.3 286.4 Q 286.3 286.4, 287.3 287.6 Q 288.4 288.8, 288.4 291.0 Q 288.4 293.1, 287.3 294.4 Q 286.2 295.6, 284.3 295.6 Q 282.3 295.6, 281.2 294.4 Q 280.2 293.1, 280.2 291.0 M 284.3 294.6 Q 285.6 294.6, 286.4 293.7 Q 287.1 292.7, 287.1 291.0 Q 287.1 289.2, 286.4 288.3 Q 285.6 287.4, 284.3 287.4 Q 282.9 287.4, 282.2 288.3 Q 281.4 289.2, 281.4 291.0 Q 281.4 292.8, 282.2 293.7 Q 282.9 294.6, 284.3 294.6 " fill="#000000"/>
<path class="atom-1" d="M 311.6 291.0 Q 311.6 288.8, 312.7 287.6 Q 313.7 286.4, 315.7 286.4 Q 317.7 286.4, 318.8 287.6 Q 319.8 288.8, 319.8 291.0 Q 319.8 293.1, 318.7 294.4 Q 317.7 295.6, 315.7 295.6 Q 313.8 295.6, 312.7 294.4 Q 311.6 293.1, 311.6 291.0 M 315.7 294.6 Q 317.1 294.6, 317.8 293.7 Q 318.6 292.7, 318.6 291.0 Q 318.6 289.2, 317.8 288.3 Q 317.1 287.4, 315.7 287.4 Q 314.4 287.4, 313.6 288.3 Q 312.9 289.2, 312.9 291.0 Q 312.9 292.8, 313.6 293.7 Q 314.4 294.6, 315.7 294.6 " fill="#000000"/>
<path class="legend" d="M 269.5 378.5 Q 271.5 378.5, 272.4 379.4 Q 273.4 380.3, 273.4 381.9 Q 273.4 383.4, 272.4 384.3 Q 271.4 385.2, 269.5 385.2 L 267.7 385.2 L 267.7 389.9 L 266.2 389.9 L 266.2 378.5 L 269.5 378.5 M 269.5 383.9 Q 270.6 383.9, 271.2 383.4 Q 271.8 382.9, 271.8 381.9 Q 271.8 380.8, 271.2 380.3 Q 270.6 379.8, 269.5 379.8 L 267.7 379.8 L 267.7 383.9 L 269.5 383.9 " fill="#000000"/>
<path class="legend" d="M 274.8 385.7 Q 274.8 383.7, 275.8 382.6 Q 276.8 381.5, 278.6 381.5 Q 280.5 381.5, 281.3 382.6 Q 282.1 383.6, 282.1 385.7 L 282.1 385.9 L 276.3 385.9 Q 276.4 387.3, 277.0 388.1 Q 277.6 388.8, 278.8 388.8 Q 279.4 388.8, 280.0 388.7 Q 280.6 388.5, 281.3 388.2 L 281.8 389.2 Q 280.9 389.6, 280.2 389.8 Q 279.5 390.0, 278.7 390.0 Q 276.8 390.0, 275.8 388.9 Q 274.8 387.7, 274.8 385.7 M 278.6 382.7 Q 277.7 382.7, 277.1 383.2 Q 276.6 383.8, 276.4 384.8 L 280.5 384.8 Q 280.4 383.7, 279.9 383.2 Q 279.5 382.7, 278.6 382.7 " fill="#000000"/>
<path class="legend" d="M 284.5 381.6 L 284.7 382.8 Q 285.6 381.5, 287.0 381.5 Q 287.4 381.5, 288.0 381.6 L 287.8 383.0 Q 287.1 382.8, 286.7 382.8 Q 286.0 382.8, 285.6 383.1 Q 285.2 383.4, 284.8 384.0 L 284.8 389.9 L 283.3 389.9 L 283.3 381.6 L 284.5 381.6 " fill="#000000"/>
<path class="legend" d="M 288.9 385.7 Q 288.9 383.7, 289.9 382.6 Q 290.9 381.5, 292.8 381.5 Q 294.7 381.5, 295.7 382.6 Q 296.7 383.7, 296.7 385.7 Q 296.7 387.7, 295.7 388.9 Q 294.7 390.0, 292.8 390.0 Q 290.9 390.0, 289.9 388.9 Q 288.9 387.7, 288.9 385.7 M 290.4 385.7 Q 290.4 387.2, 291.0 388.0 Q 291.7 388.8, 292.8 388.8 Q 293.9 388.8, 294.6 388.0 Q 295.2 387.2, 295.2 385.7 Q 295.2 384.2, 294.6 383.5 Q 293.9 382.7, 292.8 382.7 Q 291.7 382.7, 291.0 383.5 Q 290.4 384.2, 290.4 385.7 " fill="#000000"/>
<path class="legend" d="M 301.1 385.6 L 298.3 381.6 L 300.0 381.6 L 302.0 384.4 L 304.0 381.6 L 305.6 381.6 L 302.8 385.6 L 305.8 389.9 L 304.1 389.9 L 301.9 386.8 L 299.7 389.9 L 298.1 389.9 L 301.1 385.6 " fill="#000000"/>
<path class="legend" d="M 306.6 378.5 L 308.1 378.5 L 308.1 379.9 L 306.6 379.9 L 306.6 378.5 M 306.6 381.6 L 308.1 381.6 L 308.1 389.9 L 306.6 389.9 L 306.6 381.6 " fill="#000000"/>
<path class="legend" d="M 317.6 377.7 L 317.6 389.8 L 316.4 389.8 L 316.1 388.8 Q 315.2 390.0, 313.7 390.0 Q 312.0 390.0, 311.0 388.9 Q 310.1 387.9, 310.1 385.9 Q 310.1 383.8, 311.2 382.7 Q 312.4 381.5, 314.3 381.5 Q 315.2 381.5, 316.1 381.7 L 316.1 377.7 L 317.6 377.7 M 313.8 388.8 Q 314.6 388.8, 315.2 388.4 Q 315.8 387.9, 316.1 387.1 L 316.1 382.9 Q 315.2 382.7, 314.3 382.7 Q 313.1 382.7, 312.4 383.5 Q 311.6 384.4, 311.6 385.9 Q 311.6 387.3, 312.2 388.0 Q 312.8 388.8, 313.8 388.8 " fill="#000000"/>
<path class="legend" d="M 319.5 385.7 Q 319.5 383.7, 320.5 382.6 Q 321.5 381.5, 323.3 381.5 Q 325.1 381.5, 325.9 382.6 Q 326.8 383.6, 326.8 385.7 L 326.8 385.9 L 321.0 385.9 Q 321.0 387.3, 321.7 388.1 Q 322.3 388.8, 323.5 388.8 Q 324.1 388.8, 324.7 388.7 Q 325.3 388.5, 326.0 388.2 L 326.4 389.2 Q 325.6 389.6, 324.9 389.8 Q 324.2 390.0, 323.4 390.0 Q 321.5 390.0, 320.5 388.9 Q 319.5 387.7, 319.5 385.7 M 323.3 382.7 Q 322.4 382.7, 321.8 383.2 Q 321.3 383.8, 321.1 384.8 L 325.2 384.8 Q 325.1 383.7, 324.6 383.2 Q 324.2 382.7, 323.3 382.7 " fill="#000000"/>
<path class="legend" d="M 328.5 388.2 Q 329.2 388.5, 329.7 388.6 Q 330.2 388.8, 330.8 388.8 Q 331.5 388.8, 331.9 388.4 Q 332.3 388.1, 332.3 387.6 Q 332.3 387.2, 332.1 387.0 Q 331.9 386.7, 331.6 386.6 Q 331.4 386.5, 330.6 386.3 Q 330.5 386.2, 329.8 386.0 Q 329.1 385.7, 328.7 385.2 Q 328.3 384.6, 328.3 383.8 Q 328.3 382.8, 329.0 382.2 Q 329.8 381.5, 331.3 381.5 Q 331.9 381.5, 332.5 381.6 Q 333.0 381.8, 333.6 382.0 L 333.2 383.2 Q 332.7 383.0, 332.2 382.9 Q 331.8 382.7, 331.3 382.7 Q 330.5 382.7, 330.2 383.0 Q 329.8 383.3, 329.8 383.8 Q 329.8 384.3, 330.1 384.5 Q 330.4 384.7, 331.1 384.9 Q 331.2 385.0, 331.4 385.0 L 331.8 385.2 Q 332.4 385.4, 332.8 385.6 Q 333.2 385.9, 333.5 386.3 Q 333.8 386.8, 333.8 387.5 Q 333.8 388.7, 333.0 389.4 Q 332.1 390.0, 330.8 390.0 Q 330.0 390.0, 329.3 389.8 Q 328.7 389.7, 328.0 389.4 L 328.5 388.2 " fill="#000000"/>
<path class="bond-0 atom-0 atom-1" d="M 443.7,286.0 L 421.7,292.2" style="fill:none;fill-rule:evenodd;stroke:#000000;stroke-width:2.0px;stroke-linecap:butt;stroke-linejoin:miter;stroke-opacity:1"/>
<path class="bond-0 atom-0 atom-1" d="M 442.4,291.3 L 423.0,296.7" style="fill:none;fill-rule:evenodd;stroke:#000000;stroke-width:2.0px;stroke-linecap:butt;stroke-linejoin:miter;stroke-opacity:1"/>
<path class="bond-1 atom-0 atom-2" d="M 443.7,286.0 L 450.8,292.9" style="fill:none;fill-rule:evenodd;stroke:#7F7F7F;stroke-width:2.0px;stroke-linecap:butt;stroke-linejoin:miter;stroke-opacity:1"/>
<path class="bond-1 atom-0 atom-2" d="M 450.8,292.9 L 458.0,299.9" style="fill:none;fill-rule:evenodd;stroke:#7F7F7F;stroke-width:2.0px;stroke-linecap:butt;stroke-linejoin:miter;stroke-opacity:1"/>
<path class="bond-1 atom-0 atom-2" d="M 448.5,297.3 L 454.7,303.3" style="fill:none;fill-rule:evenodd;stroke:#7F7F7F;stroke-width:2.0px;stroke-linecap:butt;stroke-linejoin:miter;stroke-opacity:1;stroke-dasharray:1,1.33333"/>
<path class="bond-2 atom-2 atom-3" d="M 474.5,305.7 L 485.5,302.6" style="fill:none;fill-rule:evenodd;stroke:#7F7F7F;stroke-width:2.0px;stroke-linecap:butt;stroke-linejoin:miter;stroke-opacity:1"/>
<path class="bond-2 atom-2 atom-3" d="M 485.5,302.6 L 496.5,299.5" style="fill:none;fill-rule:evenodd;stroke:#7F7F7F;stroke-width:2.0px;stroke-linecap:butt;stroke-linejoin:miter;stroke-opacity:1"/>
<path class="bond-2 atom-2 atom-3" d="M 482.9,298.4 L 492.6,295.7" style="fill:none;fill-rule:evenodd;stroke:#7F7F7F;stroke-width:2.0px;stroke-linecap:butt;stroke-linejoin:miter;stroke-opacity:1;stroke-dasharray:1,1.33333"/>
<path class="bond-3 atom-3 atom-4" d="M 496.5,299.5 L 500.4,284.3" style="fill:none;fill-rule:evenodd;stroke:#7F7F7F;stroke-width:2.0px;stroke-linecap:butt;stroke-linejoin:miter;stroke-opacity:1"/>
<path class="bond-3 atom-3 atom-4" d="M 500.4,284.3 L 504.3,269.0" style="fill:none;fill-rule:evenodd;stroke:#7F7F7F;stroke-width:2.0px;stroke-linecap:butt;stroke-linejoin:miter;stroke-opacity:1"/>
<path class="bond-3 atom-3 atom-4" d="M 505.0,285.4 L 508.2,272.8" style="fill:none;fill-rule:evenodd;stroke:#7F7F7F;stroke-width:2.0px;stroke-linecap:butt;stroke-linejoin:miter;stroke-opacity:1;stroke-dasharray:1,1.33333"/>
<path class="bond-4 atom-4 atom-5" d="M 504.3,269.0 L 496.5,261.4" style="fill:none;fill-rule:evenodd;stroke:#7F7F7F;stroke-width:2.0px;stroke-linecap:butt;stroke-linejoin:miter;stroke-opacity:1"/>
<path class="bond-4 atom-4 atom-5" d="M 498.6,260.2 L 490.3,252.0" style="fill:none;fill-rule:evenodd;stroke:#7F7F7F;stroke-width:2.0px;stroke-linecap:butt;stroke-linejoin:miter;stroke-opacity:1"/>
<path class="bond-4 atom-4 atom-5" d="M 495.3,263.5 L 487.0,255.4" style="fill:none;fill-rule:evenodd;stroke:#7F7F7F;stroke-width:2.0px;stroke-linecap:butt;stroke-linejoin:miter;stroke-opacity:1;stroke-dasharray:1,1.33333"/>
<path class="bond-5 atom-4 atom-6" d="M 504.3,269.0 L 519.4,264.8" style="fill:none;fill-rule:evenodd;stroke:#7F7F7F;stroke-width:2.0px;stroke-linecap:butt;stroke-linejoin:miter;stroke-opacity:1"/>
<path class="bond-5 atom-4 atom-6" d="M 519.4,264.8 L 534.6,260.5" style="fill:none;fill-rule:evenodd;stroke:#7F7F7F;stroke-width:2.0px;stroke-linecap:butt;stroke-linejoin:miter;stroke-opacity:1"/>
<path class="bond-5 atom-4 atom-6" d="M 520.7,269.3 L 533.2,265.8" style="fill:none;fill-rule:evenodd;stroke:#7F7F7F;stroke-width:2.0px;stroke-linecap:butt;stroke-linejoin:miter;stroke-opacity:1;stroke-dasharray:1,1.33333"/>
<path class="bond-6 atom-6 atom-7" d="M 534.6,260.5 L 537.4,249.6" style="fill:none;fill-rule:evenodd;stroke:#7F7F7F;stroke-width:2.0px;stroke-linecap:butt;stroke-linejoin:miter;stroke-opacity:1"/>
<path class="bond-6 atom-6 atom-7" d="M 539.5,250.9 L 542.4,239.3" style="fill:none;fill-rule:evenodd;stroke:#7F7F7F;stroke-width:2.0px;stroke-linecap:butt;stroke-linejoin:miter;stroke-opacity:1"/>
<path class="bond-6 atom-6 atom-7" d="M 534.9,249.7 L 537.9,238.1" style="fill:none;fill-rule:evenodd;stroke:#7F7F7F;stroke-width:2.0px;stroke-linecap:butt;stroke-linejoin:miter;stroke-opacity:1;stroke-dasharray:1,1.33333"/>
<path class="bond-7 atom-6 atom-8" d="M 534.6,260.5 L 545.8,271.5" style="fill:none;fill-rule:evenodd;stroke:#7F7F7F;stroke-width:2.0px;stroke-linecap:butt;stroke-linejoin:miter;stroke-opacity:1"/>
<path class="bond-7 atom-6 atom-8" d="M 545.8,271.5 L 557.1,282.5" style="fill:none;fill-rule:evenodd;stroke:#7F7F7F;stroke-width:2.0px;stroke-linecap:butt;stroke-linejoin:miter;stroke-opacity:1"/>
<path class="bond-7 atom-6 atom-8" d="M 542.5,274.9 L 551.8,284.0" style="fill:none;fill-rule:evenodd;stroke:#7F7F7F;stroke-width:2.0px;stroke-linecap:butt;stroke-linejoin:miter;stroke-opacity:1;stroke-dasharray:1,1.33333"/>
<path class="bond-8 atom-8 atom-9" d="M 557.1,282.5 L 568.8,279.2" style="fill:none;fill-rule:evenodd;stroke:#7F7F7F;stroke-width:2.0px;stroke-linecap:butt;stroke-linejoin:miter;stroke-opacity:1"/>
<path class="bond-8 atom-8 atom-9" d="M 568.8,281.7 L 581.2,278.2" style="fill:none;fill-rule:evenodd;stroke:#7F7F7F;stroke-width:2.0px;stroke-linecap:butt;stroke-linejoin:miter;stroke-opacity:1"/>
<path class="bond-8 atom-8 atom-9" d="M 567.5,277.1 L 579.9,273.7" style="fill:none;fill-rule:evenodd;stroke:#7F7F7F;stroke-width:2.0px;stroke-linecap:butt;stroke-linejoin:miter;stroke-opacity:1;stroke-dasharray:1,1.33333"/>
<path class="bond-9 atom-8 atom-10" d="M 557.1,282.5 L 553.2,297.7" style="fill:none;fill-rule:evenodd;stroke:#7F7F7F;stroke-width:2.0px;stroke-linecap:butt;stroke-linejoin:miter;stroke-opacity:1"/>
<path class="bond-9 atom-8 atom-10" d="M 553.2,297.7 L 549.3,313.0" style="fill:none;fill-rule:evenodd;stroke:#7F7F7F;stroke-width:2.0px;stroke-linecap:butt;stroke-linejoin:miter;stroke-opacity:1"/>
<path class="bond-9 atom-8 atom-10" d="M 548.6,296.6 L 545.4,309.2" style="fill:none;fill-rule:evenodd;stroke:#7F7F7F;stroke-width:2.0px;stroke-linecap:butt;stroke-linejoin:miter;stroke-opacity:1;stroke-dasharray:1,1.33333"/>
<path class="bond-10 atom-10 atom-11" d="M 549.3,313.0 L 557.1,320.6" style="fill:none;fill-rule:evenodd;stroke:#7F7F7F;stroke-width:2.0px;stroke-linecap:butt;stroke-linejoin:miter;stroke-opacity:1"/>
<path class="bond-10 atom-10 atom-11" d="M 555.0,321.8 L 563.3,330.0" style="fill:none;fill-rule:evenodd;stroke:#7F7F7F;stroke-width:2.0px;stroke-linecap:butt;stroke-linejoin:miter;stroke-opacity:1"/>
<path class="bond-10 atom-10 atom-11" d="M 558.3,318.5 L 566.6,326.6" style="fill:none;fill-rule:evenodd;stroke:#7F7F7F;stroke-width:2.0px;stroke-linecap:butt;stroke-linejoin:miter;stroke-opacity:1;stroke-dasharray:1,1.33333"/>
<path class="bond-11 atom-10 atom-12" d="M 549.3,313.0 L 534.1,317.2" style="fill:none;fill-rule:evenodd;stroke:#7F7F7F;stroke-width:2.0px;stroke-linecap:butt;stroke-linejoin:miter;stroke-opacity:1"/>
<path class="bond-11 atom-10 atom-12" d="M 534.1,317.2 L 519.0,321.5" style="fill:none;fill-rule:evenodd;stroke:#7F7F7F;stroke-width:2.0px;stroke-linecap:butt;stroke-linejoin:miter;stroke-opacity:1"/>
<path class="bond-11 atom-10 atom-12" d="M 532.9,312.7 L 520.3,316.2" style="fill:none;fill-rule:evenodd;stroke:#7F7F7F;stroke-width:2.0px;stroke-linecap:butt;stroke-linejoin:miter;stroke-opacity:1;stroke-dasharray:1,1.33333"/>
<path class="bond-12 atom-12 atom-13" d="M 519.0,321.5 L 516.2,332.4" style="fill:none;fill-rule:evenodd;stroke:#7F7F7F;stroke-width:2.0px;stroke-linecap:butt;stroke-linejoin:miter;stroke-opacity:1"/>
<path class="bond-12 atom-12 atom-13" d="M 514.1,331.1 L 511.1,342.7" style="fill:none;fill-rule:evenodd;stroke:#7F7F7F;stroke-width:2.0px;stroke-linecap:butt;stroke-linejoin:miter;stroke-opacity:1"/>
<path class="bond-12 atom-12 atom-13" d="M 518.7,332.3 L 515.7,343.9" style="fill:none;fill-rule:evenodd;stroke:#7F7F7F;stroke-width:2.0px;stroke-linecap:butt;stroke-linejoin:miter;stroke-opacity:1;stroke-dasharray:1,1.33333"/>
<path class="bond-13 atom-12 atom-3" d="M 519.0,321.5 L 507.8,310.5" style="fill:none;fill-rule:evenodd;stroke:#7F7F7F;stroke-width:2.0px;stroke-linecap:butt;stroke-linejoin:miter;stroke-opacity:1"/>
<path class="bond-13 atom-12 atom-3" d="M 507.8,310.5 L 496.5,299.5" style="fill:none;fill-rule:evenodd;stroke:#7F7F7F;stroke-width:2.0px;stroke-linecap:butt;stroke-linejoin:miter;stroke-opacity:1"/>
<path class="bond-13 atom-12 atom-3" d="M 511.0,307.1 L 501.8,298.0" style="fill:none;fill-rule:evenodd;stroke:#7F7F7F;stroke-width:2.0px;stroke-linecap:butt;stroke-linejoin:miter;stroke-opacity:1;stroke-dasharray:1,1.33333"/>
<path d="M 443.2,286.1 L 443.7,286.0 L 443.9,286.2" style="fill:none;stroke:#000000;stroke-width:2.0px;stroke-linecap:butt;stroke-linejoin:miter;stroke-opacity:1;"/>
<path class="atom-1" d="M 410.0 296.8 Q 410.0 294.6, 411.1 293.4 Q 412.1 292.2, 414.1 292.2 Q 416.1 292.2, 417.1 293.4 Q 418.2 294.6, 418.2 296.8 Q 418.2 298.9, 417.1 300.2 Q 416.0 301.4, 414.1 301.4 Q 412.1 301.4, 411.1 300.2 Q 410.0 299.0, 410.0 296.8 M 414.1 300.4 Q 415.4 300.4, 416.2 299.5 Q 416.9 298.6, 416.9 296.8 Q 416.9 295.0, 416.2 294.1 Q 415.4 293.3, 414.1 293.3 Q 412.7 293.3, 412.0 294.1 Q 411.3 295.0, 411.3 296.8 Q 411.3 298.6, 412.0 299.5 Q 412.7 300.4, 414.1 300.4 " fill="#000000"/>
<path class="atom-2" d="M 462.1 308.0 Q 462.1 305.9, 463.2 304.7 Q 464.2 303.5, 466.2 303.5 Q 468.2 303.5, 469.3 304.7 Q 470.3 305.9, 470.3 308.0 Q 470.3 310.2, 469.2 311.4 Q 468.2 312.6, 466.2 312.6 Q 464.3 312.6, 463.2 311.4 Q 462.1 310.2, 462.1 308.0 M 466.2 311.6 Q 467.6 311.6, 468.3 310.7 Q 469.1 309.8, 469.1 308.0 Q 469.1 306.3, 468.3 305.4 Q 467.6 304.5, 466.2 304.5 Q 464.9 304.5, 464.1 305.4 Q 463.4 306.2, 463.4 308.0 Q 463.4 309.8, 464.1 310.7 Q 464.9 311.6, 466.2 311.6 " fill="#000000"/>
<path class="atom-5" d="M 479.2 242.6 L 484.5 242.6 L 484.5 243.6 L 480.4 243.6 L 480.4 246.3 L 484.0 246.3 L 484.0 247.3 L 480.4 247.3 L 480.4 251.5 L 479.2 251.5 L 479.2 242.6 " fill="#000000"/>
<path class="atom-7" d="M 539.7 225.6 L 545.0 225.6 L 545.0 226.6 L 540.9 226.6 L 540.9 229.3 L 544.6 229.3 L 544.6 230.4 L 540.9 230.4 L 540.9 234.5 L 539.7 234.5 L 539.7 225.6 " fill="#000000"/>
<path class="atom-9" d="M 584.7 269.6 L 590.0 269.6 L 590.0 270.6 L 585.9 270.6 L 585.9 273.3 L 589.5 273.3 L 589.5 274.3 L 585.9 274.3 L 585.9 278.5 L 584.7 278.5 L 584.7 269.6 " fill="#000000"/>
<path class="atom-11" d="M 569.1 330.5 L 574.4 330.5 L 574.4 331.5 L 570.3 331.5 L 570.3 334.2 L 574.0 334.2 L 574.0 335.3 L 570.3 335.3 L 570.3 339.4 L 569.1 339.4 L 569.1 330.5 " fill="#000000"/>
<path class="atom-13" d="M 508.6 347.5 L 513.9 347.5 L 513.9 348.5 L 509.8 348.5 L 509.8 351.2 L 513.4 351.2 L 513.4 352.2 L 509.8 352.2 L 509.8 356.4 L 508.6 356.4 L 508.6 347.5 " fill="#000000"/>
<path class="legend" d="M 414.1 374.7 Q 416.0 374.7, 417.0 375.6 Q 418.0 376.5, 418.0 378.1 Q 418.0 379.6, 417.0 380.5 Q 416.0 381.4, 414.1 381.4 L 412.3 381.4 L 412.3 386.1 L 410.8 386.1 L 410.8 374.7 L 414.1 374.7 M 414.1 380.1 Q 415.2 380.1, 415.8 379.6 Q 416.4 379.1, 416.4 378.1 Q 416.4 377.1, 415.8 376.5 Q 415.2 376.0, 414.1 376.0 L 412.3 376.0 L 412.3 380.1 L 414.1 380.1 " fill="#000000"/>
<path class="legend" d="M 419.3 381.9 Q 419.3 379.9, 420.4 378.8 Q 421.4 377.7, 423.2 377.7 Q 425.0 377.7, 425.8 378.8 Q 426.6 379.9, 426.6 381.9 L 426.6 382.1 L 420.9 382.1 Q 420.9 383.5, 421.5 384.3 Q 422.2 385.0, 423.3 385.0 Q 424.0 385.0, 424.6 384.9 Q 425.2 384.7, 425.9 384.4 L 426.3 385.4 Q 425.5 385.8, 424.8 386.0 Q 424.0 386.2, 423.3 386.2 Q 421.4 386.2, 420.4 385.1 Q 419.3 384.0, 419.3 381.9 M 423.2 378.9 Q 422.3 378.9, 421.7 379.4 Q 421.1 380.0, 420.9 381.0 L 425.0 381.0 Q 424.9 379.9, 424.5 379.4 Q 424.0 378.9, 423.2 378.9 " fill="#000000"/>
<path class="legend" d="M 432.1 377.7 Q 433.4 377.7, 434.1 378.4 Q 434.8 379.2, 434.8 380.6 L 434.8 386.1 L 433.3 386.1 L 433.3 380.7 Q 433.3 379.8, 432.9 379.3 Q 432.6 378.9, 431.7 378.9 Q 431.0 378.9, 430.4 379.2 Q 429.7 379.6, 429.3 380.2 L 429.3 386.1 L 427.8 386.1 L 427.8 377.8 L 429.1 377.8 L 429.2 379.0 Q 430.3 377.7, 432.1 377.7 " fill="#000000"/>
<path class="legend" d="M 436.7 379.0 L 436.7 377.8 L 438.2 377.8 L 438.5 375.4 L 439.6 375.4 L 439.6 377.8 L 442.1 377.8 L 442.1 379.0 L 439.6 379.0 L 439.6 383.5 Q 439.6 385.0, 440.8 385.0 Q 441.3 385.0, 442.0 384.7 L 442.2 385.8 Q 441.4 386.2, 440.5 386.2 Q 439.5 386.2, 438.8 385.5 Q 438.1 384.9, 438.1 383.6 L 438.1 379.0 L 436.7 379.0 " fill="#000000"/>
<path class="legend" d="M 443.2 383.8 Q 443.2 382.5, 444.3 381.8 Q 445.3 381.1, 447.3 381.1 L 448.5 381.1 L 448.5 380.8 Q 448.5 379.7, 448.1 379.3 Q 447.7 378.9, 446.6 378.9 Q 446.0 378.9, 445.5 379.0 Q 444.9 379.1, 444.1 379.5 L 443.7 378.4 Q 445.2 377.7, 446.7 377.7 Q 448.4 377.7, 449.2 378.4 Q 450.0 379.2, 450.0 380.8 L 450.0 386.1 L 448.8 386.1 Q 448.8 386.0, 448.8 385.8 Q 448.7 385.5, 448.6 385.1 Q 447.5 386.3, 445.9 386.3 Q 444.7 386.3, 444.0 385.6 Q 443.2 384.9, 443.2 383.8 M 444.7 383.8 Q 444.7 384.4, 445.1 384.8 Q 445.5 385.1, 446.2 385.1 Q 446.9 385.1, 447.5 384.8 Q 448.1 384.5, 448.5 384.0 L 448.5 382.2 L 447.4 382.2 Q 446.1 382.2, 445.4 382.6 Q 444.7 383.0, 444.7 383.8 " fill="#000000"/>
<path class="legend" d="M 451.8 379.0 L 451.8 377.8 L 453.3 377.8 L 453.3 376.6 Q 453.3 375.2, 454.0 374.6 Q 454.7 373.9, 455.9 373.9 Q 456.5 373.9, 456.9 374.0 Q 457.4 374.1, 457.9 374.3 L 457.4 375.4 Q 456.7 375.1, 456.0 375.1 Q 455.4 375.1, 455.1 375.5 Q 454.8 375.8, 454.8 376.5 L 454.8 377.8 L 457.3 377.8 L 457.3 379.0 L 454.8 379.0 L 454.8 388.6 L 453.3 388.6 L 453.3 379.0 L 451.8 379.0 " fill="#000000"/>
<path class="legend" d="M 458.0 373.9 L 459.5 373.9 L 459.5 386.1 L 458.0 386.1 L 458.0 373.9 " fill="#000000"/>
<path class="legend" d="M 468.5 377.8 L 468.5 386.1 L 467.2 386.1 L 467.1 384.9 Q 466.0 386.2, 464.3 386.2 Q 462.9 386.2, 462.2 385.5 Q 461.5 384.7, 461.5 383.3 L 461.5 377.8 L 463.0 377.8 L 463.0 383.2 Q 463.0 384.1, 463.4 384.6 Q 463.7 385.0, 464.6 385.0 Q 465.3 385.0, 466.0 384.7 Q 466.6 384.3, 467.0 383.7 L 467.0 377.8 L 468.5 377.8 " fill="#000000"/>
<path class="legend" d="M 470.4 381.9 Q 470.4 379.9, 471.4 378.8 Q 472.4 377.7, 474.3 377.7 Q 476.2 377.7, 477.2 378.8 Q 478.2 379.9, 478.2 381.9 Q 478.2 383.9, 477.2 385.1 Q 476.2 386.2, 474.3 386.2 Q 472.4 386.2, 471.4 385.1 Q 470.4 383.9, 470.4 381.9 M 471.9 381.9 Q 471.9 383.4, 472.5 384.2 Q 473.2 385.0, 474.3 385.0 Q 475.4 385.0, 476.0 384.2 Q 476.7 383.4, 476.7 381.9 Q 476.7 380.4, 476.0 379.7 Q 475.4 378.9, 474.3 378.9 Q 473.2 378.9, 472.5 379.7 Q 471.9 380.4, 471.9 381.9 " fill="#000000"/>
<path class="legend" d="M 480.7 377.8 L 480.9 379.0 Q 481.8 377.7, 483.2 377.7 Q 483.6 377.7, 484.2 377.9 L 484.0 379.2 Q 483.3 379.0, 482.9 379.0 Q 482.3 379.0, 481.8 379.3 Q 481.4 379.6, 481.0 380.2 L 481.0 386.1 L 479.5 386.1 L 479.5 377.8 L 480.7 377.8 " fill="#000000"/>
<path class="legend" d="M 485.1 381.9 Q 485.1 379.9, 486.1 378.8 Q 487.1 377.7, 489.0 377.7 Q 490.9 377.7, 491.9 378.8 Q 492.9 379.9, 492.9 381.9 Q 492.9 383.9, 491.9 385.1 Q 490.9 386.2, 489.0 386.2 Q 487.1 386.2, 486.1 385.1 Q 485.1 383.9, 485.1 381.9 M 486.6 381.9 Q 486.6 383.4, 487.2 384.2 Q 487.9 385.0, 489.0 385.0 Q 490.1 385.0, 490.7 384.2 Q 491.4 383.4, 491.4 381.9 Q 491.4 380.4, 490.7 379.7 Q 490.1 378.9, 489.0 378.9 Q 487.9 378.9, 487.2 379.7 Q 486.6 380.4, 486.6 381.9 " fill="#000000"/>
<path class="legend" d="M 498.1 377.7 Q 499.8 377.7, 500.7 378.8 Q 501.7 379.8, 501.7 381.8 Q 501.7 383.9, 500.5 385.0 Q 499.4 386.2, 497.4 386.2 Q 496.5 386.2, 495.7 386.0 L 495.7 390.0 L 494.2 390.0 L 494.2 377.8 L 495.4 377.8 L 495.6 378.8 Q 496.1 378.3, 496.7 378.0 Q 497.3 377.7, 498.1 377.7 M 497.4 385.0 Q 498.7 385.0, 499.4 384.2 Q 500.1 383.3, 500.1 381.8 Q 500.1 380.4, 499.6 379.6 Q 499.0 378.9, 498.0 378.9 Q 497.1 378.9, 496.5 379.3 Q 496.0 379.7, 495.7 380.5 L 495.7 384.8 Q 496.5 385.0, 497.4 385.0 " fill="#000000"/>
<path class="legend" d="M 507.3 377.7 Q 508.6 377.7, 509.3 378.4 Q 510.0 379.2, 510.0 380.6 L 510.0 386.1 L 508.5 386.1 L 508.5 380.7 Q 508.5 379.8, 508.1 379.3 Q 507.7 378.9, 506.9 378.9 Q 506.1 378.9, 505.5 379.2 Q 504.9 379.6, 504.5 380.2 L 504.5 386.1 L 503.0 386.1 L 503.0 373.9 L 504.5 373.9 L 504.5 378.9 Q 505.6 377.7, 507.3 377.7 " fill="#000000"/>
<path class="legend" d="M 511.8 381.9 Q 511.8 379.9, 512.8 378.8 Q 513.8 377.7, 515.7 377.7 Q 517.5 377.7, 518.3 378.8 Q 519.1 379.9, 519.1 381.9 L 519.1 382.1 L 513.3 382.1 Q 513.4 383.5, 514.0 384.3 Q 514.6 385.0, 515.8 385.0 Q 516.4 385.0, 517.0 384.9 Q 517.6 384.7, 518.3 384.4 L 518.8 385.4 Q 517.9 385.8, 517.2 386.0 Q 516.5 386.2, 515.7 386.2 Q 513.9 386.2, 512.8 385.1 Q 511.8 384.0, 511.8 381.9 M 515.7 378.9 Q 514.7 378.9, 514.1 379.4 Q 513.6 380.0, 513.4 381.0 L 517.5 381.0 Q 517.4 379.9, 516.9 379.4 Q 516.5 378.9, 515.7 378.9 " fill="#000000"/>
<path class="legend" d="M 524.6 377.7 Q 525.9 377.7, 526.6 378.4 Q 527.3 379.2, 527.3 380.6 L 527.3 386.1 L 525.8 386.1 L 525.8 380.7 Q 525.8 379.8, 525.4 379.3 Q 525.0 378.9, 524.2 378.9 Q 523.4 378.9, 522.8 379.2 Q 522.2 379.6, 521.8 380.2 L 521.8 386.1 L 520.3 386.1 L 520.3 377.8 L 521.5 377.8 L 521.7 379.0 Q 522.8 377.7, 524.6 377.7 " fill="#000000"/>
<path class="legend" d="M 535.4 377.8 L 536.9 377.8 L 532.7 390.0 L 531.3 390.0 L 532.6 386.1 L 532.0 386.1 L 529.1 377.8 L 530.7 377.8 L 533.1 384.8 L 535.4 377.8 " fill="#000000"/>
<path class="legend" d="M 537.7 373.9 L 539.1 373.9 L 539.1 386.1 L 537.7 386.1 L 537.7 373.9 " fill="#000000"/>
<path class="legend" d="" fill="#000000"/>
<path class="legend" d="M 547.0 381.9 Q 547.0 379.9, 548.0 378.8 Q 549.0 377.7, 550.9 377.7 Q 552.7 377.7, 553.5 378.8 Q 554.3 379.9, 554.3 381.9 L 554.3 382.1 L 548.6 382.1 Q 548.6 383.5, 549.2 384.3 Q 549.8 385.0, 551.0 385.0 Q 551.7 385.0, 552.2 384.9 Q 552.8 384.7, 553.6 384.4 L 554.0 385.4 Q 553.2 385.8, 552.4 386.0 Q 551.7 386.2, 550.9 386.2 Q 549.1 386.2, 548.1 385.1 Q 547.0 384.0, 547.0 381.9 M 550.9 378.9 Q 549.9 378.9, 549.4 379.4 Q 548.8 380.0, 548.6 381.0 L 552.7 381.0 Q 552.6 379.9, 552.2 379.4 Q 551.7 378.9, 550.9 378.9 " fill="#000000"/>
<path class="legend" d="M 556.0 384.4 Q 556.7 384.7, 557.2 384.8 Q 557.7 385.0, 558.3 385.0 Q 559.0 385.0, 559.4 384.7 Q 559.8 384.4, 559.8 383.8 Q 559.8 383.4, 559.6 383.2 Q 559.4 382.9, 559.1 382.8 Q 558.9 382.7, 558.2 382.5 Q 558.0 382.4, 557.3 382.2 Q 556.6 381.9, 556.2 381.4 Q 555.8 380.8, 555.8 380.0 Q 555.8 379.0, 556.6 378.4 Q 557.3 377.7, 558.8 377.7 Q 559.4 377.7, 560.0 377.8 Q 560.5 378.0, 561.1 378.2 L 560.7 379.4 Q 560.2 379.2, 559.8 379.1 Q 559.3 378.9, 558.8 378.9 Q 558.1 378.9, 557.7 379.2 Q 557.3 379.5, 557.3 380.0 Q 557.3 380.5, 557.6 380.7 Q 557.9 380.9, 558.6 381.1 Q 558.7 381.2, 558.9 381.2 L 559.3 381.4 Q 559.9 381.6, 560.3 381.8 Q 560.8 382.1, 561.1 382.5 Q 561.3 383.0, 561.3 383.7 Q 561.3 384.9, 560.5 385.6 Q 559.7 386.2, 558.3 386.2 Q 557.5 386.2, 556.9 386.0 Q 556.2 385.9, 555.5 385.6 L 556.0 384.4 " fill="#000000"/>
<path class="legend" d="M 562.8 379.0 L 562.8 377.8 L 564.4 377.8 L 564.6 375.4 L 565.7 375.4 L 565.7 377.8 L 568.2 377.8 L 568.2 379.0 L 565.7 379.0 L 565.7 383.5 Q 565.7 385.0, 566.9 385.0 Q 567.4 385.0, 568.1 384.7 L 568.4 385.8 Q 567.5 386.2, 566.7 386.2 Q 565.6 386.2, 564.9 385.5 Q 564.2 384.9, 564.2 383.6 L 564.2 379.0 L 562.8 379.0 " fill="#000000"/>
<path class="legend" d="M 569.4 381.9 Q 569.4 379.9, 570.4 378.8 Q 571.4 377.7, 573.2 377.7 Q 575.0 377.7, 575.8 378.8 Q 576.6 379.9, 576.6 381.9 L 576.6 382.1 L 570.9 382.1 Q 570.9 383.5, 571.6 384.3 Q 572.2 385.0, 573.3 385.0 Q 574.0 385.0, 574.6 384.9 Q 575.2 384.7, 575.9 384.4 L 576.3 385.4 Q 575.5 385.8, 574.8 386.0 Q 574.0 386.2, 573.3 386.2 Q 571.4 386.2, 570.4 385.1 Q 569.4 384.0, 569.4 381.9 M 573.2 378.9 Q 572.3 378.9, 571.7 379.4 Q 571.1 380.0, 571.0 381.0 L 575.1 381.0 Q 574.9 379.9, 574.5 379.4 Q 574.1 378.9, 573.2 378.9 " fill="#000000"/>
<path class="legend" d="M 579.1 377.8 L 579.2 379.0 Q 580.1 377.7, 581.5 377.7 Q 582.0 377.7, 582.6 377.9 L 582.3 379.2 Q 581.6 379.0, 581.3 379.0 Q 580.6 379.0, 580.1 379.3 Q 579.7 379.6, 579.4 380.2 L 579.4 386.1 L 577.9 386.1 L 577.9 377.8 L 579.1 377.8 " fill="#000000"/>
<path class="legend" d="M 583.9 384.4 Q 584.6 384.7, 585.1 384.8 Q 585.6 385.0, 586.2 385.0 Q 586.9 385.0, 587.3 384.7 Q 587.7 384.4, 587.7 383.8 Q 587.7 383.4, 587.5 383.2 Q 587.3 382.9, 587.0 382.8 Q 586.8 382.7, 586.0 382.5 Q 585.9 382.4, 585.2 382.2 Q 584.5 381.9, 584.1 381.4 Q 583.7 380.8, 583.7 380.0 Q 583.7 379.0, 584.4 378.4 Q 585.2 377.7, 586.7 377.7 Q 587.3 377.7, 587.9 377.8 Q 588.4 378.0, 589.0 378.2 L 588.6 379.4 Q 588.1 379.2, 587.6 379.1 Q 587.2 378.9, 586.7 378.9 Q 586.0 378.9, 585.6 379.2 Q 585.2 379.5, 585.2 380.0 Q 585.2 380.5, 585.5 380.7 Q 585.8 380.9, 586.5 381.1 Q 586.6 381.2, 586.8 381.2 L 587.2 381.4 Q 587.8 381.6, 588.2 381.8 Q 588.7 382.1, 588.9 382.5 Q 589.2 383.0, 589.2 383.7 Q 589.2 384.9, 588.4 385.6 Q 587.6 386.2, 586.2 386.2 Q 585.4 386.2, 584.8 386.0 Q 584.1 385.9, 583.4 385.6 L 583.9 384.4 " fill="#000000"/>
</svg>