<?xml version="1.0" encoding="utf-8" standalone="no"?>
<!DOCTYPE svg PUBLIC "-//W3C//DTD SVG 1.1//EN"
  "http://www.w3.org/Graphics/SVG/1.1/DTD/svg11.dtd">
<svg xmlns:xlink="http://www.w3.org/1999/xlink" width="731.663675pt" height="424.718594pt" viewBox="0 0 731.663675 424.718594" xmlns="http://www.w3.org/2000/svg" version="1.1">
 <metadata>
  <rdf:RDF xmlns:dc="http://purl.org/dc/elements/1.1/" xmlns:cc="http://creativecommons.org/ns#" xmlns:rdf="http://www.w3.org/1999/02/22-rdf-syntax-ns#">
   <cc:Work>
    <dc:type rdf:resource="http://purl.org/dc/dcmitype/StillImage"/>
    <dc:date>2026-07-07T21:28:23.577378</dc:date>
    <dc:format>image/svg+xml</dc:format>
    <dc:creator>
     <cc:Agent>
      <dc:title>Matplotlib v3.11.0, https://matplotlib.org/</dc:title>
     </cc:Agent>
    </dc:creator>
   </cc:Work>
  </rdf:RDF>
 </metadata>
 <defs>
  <style type="text/css">*{stroke-linejoin: round; stroke-linecap: butt}</style>
 </defs>
 <g id="figure_1">
  <g id="patch_1">
   <path d="M 0 424.718594 
L 731.663675 424.718594 
L 731.663675 0 
L 0 0 
z
" style="fill: #ffffff"/>
  </g>
  <g id="axes_1">
   <g id="patch_2">
    <path d="M 51.284844 380.5175 
L 353.540007 380.5175 
L 353.540007 25.3575 
L 51.284844 25.3575 
z
" style="fill: #ffffff"/>
   </g>
   <g id="matplotlib.axis_1">
    <g id="xtick_1">
     <g id="line2d_1">
      <defs>
       <path id="mde276980be" d="M 0 0 
L 0 3.5 
" style="stroke: #000000; stroke-width: 0.8"/>
      </defs>
      <g>
       <use xlink:href="#mde276980be" x="59.428829" y="380.5175" style="stroke: #000000; stroke-width: 0.8"/>
      </g>
     </g>
     <g id="text_1">
      <!-- 0 -->
      <g transform="translate(55.611329 396.634688) scale(0.12 -0.12)">
       <defs>
        <path id="DejaVuSans-13" d="M 2034 4250 
Q 1547 4250 1301 3770 
Q 1056 3291 1056 2328 
Q 1056 1369 1301 889 
Q 1547 409 2034 409 
Q 2525 409 2770 889 
Q 3016 1369 3016 2328 
Q 3016 3291 2770 3770 
Q 2525 4250 2034 4250 
z
M 2034 4750 
Q 2819 4750 3233 4129 
Q 3647 3509 3647 2328 
Q 3647 1150 3233 529 
Q 2819 -91 2034 -91 
Q 1250 -91 836 529 
Q 422 1150 422 2328 
Q 422 3509 836 4129 
Q 1250 4750 2034 4750 
z
" transform="scale(0.015625)"/>
       </defs>
       <use xlink:href="#DejaVuSans-13"/>
      </g>
     </g>
    </g>
    <g id="xtick_2">
     <g id="line2d_2">
      <g>
       <use xlink:href="#mde276980be" x="116.519504" y="380.5175" style="stroke: #000000; stroke-width: 0.8"/>
      </g>
     </g>
     <g id="text_2">
      <!-- 1000 -->
      <g transform="translate(101.249504 396.634688) scale(0.12 -0.12)">
       <defs>
        <path id="DejaVuSans-14" d="M 794 531 
L 1825 531 
L 1825 4091 
L 703 3866 
L 703 4441 
L 1819 4666 
L 2450 4666 
L 2450 531 
L 3481 531 
L 3481 0 
L 794 0 
L 794 531 
z
" transform="scale(0.015625)"/>
       </defs>
       <use xlink:href="#DejaVuSans-14"/>
       <use xlink:href="#DejaVuSans-13" transform="translate(63.625 0)"/>
       <use xlink:href="#DejaVuSans-13" transform="translate(127.25 0)"/>
       <use xlink:href="#DejaVuSans-13" transform="translate(190.875 0)"/>
      </g>
     </g>
    </g>
    <g id="xtick_3">
     <g id="line2d_3">
      <g>
       <use xlink:href="#mde276980be" x="173.61018" y="380.5175" style="stroke: #000000; stroke-width: 0.8"/>
      </g>
     </g>
     <g id="text_3">
      <!-- 2000 -->
      <g transform="translate(158.34018 396.634688) scale(0.12 -0.12)">
       <defs>
        <path id="DejaVuSans-15" d="M 1228 531 
L 3431 531 
L 3431 0 
L 469 0 
L 469 531 
Q 828 903 1448 1529 
Q 2069 2156 2228 2338 
Q 2531 2678 2651 2914 
Q 2772 3150 2772 3378 
Q 2772 3750 2511 3984 
Q 2250 4219 1831 4219 
Q 1534 4219 1204 4116 
Q 875 4013 500 3803 
L 500 4441 
Q 881 4594 1212 4672 
Q 1544 4750 1819 4750 
Q 2544 4750 2975 4387 
Q 3406 4025 3406 3419 
Q 3406 3131 3298 2873 
Q 3191 2616 2906 2266 
Q 2828 2175 2409 1742 
Q 1991 1309 1228 531 
z
" transform="scale(0.015625)"/>
       </defs>
       <use xlink:href="#DejaVuSans-15"/>
       <use xlink:href="#DejaVuSans-13" transform="translate(63.625 0)"/>
       <use xlink:href="#DejaVuSans-13" transform="translate(127.25 0)"/>
       <use xlink:href="#DejaVuSans-13" transform="translate(190.875 0)"/>
      </g>
     </g>
    </g>
    <g id="xtick_4">
     <g id="line2d_4">
      <g>
       <use xlink:href="#mde276980be" x="230.700855" y="380.5175" style="stroke: #000000; stroke-width: 0.8"/>
      </g>
     </g>
     <g id="text_4">
      <!-- 3000 -->
      <g transform="translate(215.430855 396.634688) scale(0.12 -0.12)">
       <defs>
        <path id="DejaVuSans-16" d="M 2597 2516 
Q 3050 2419 3304 2112 
Q 3559 1806 3559 1356 
Q 3559 666 3084 287 
Q 2609 -91 1734 -91 
Q 1441 -91 1130 -33 
Q 819 25 488 141 
L 488 750 
Q 750 597 1062 519 
Q 1375 441 1716 441 
Q 2309 441 2620 675 
Q 2931 909 2931 1356 
Q 2931 1769 2642 2001 
Q 2353 2234 1838 2234 
L 1294 2234 
L 1294 2753 
L 1863 2753 
Q 2328 2753 2575 2939 
Q 2822 3125 2822 3475 
Q 2822 3834 2567 4026 
Q 2313 4219 1838 4219 
Q 1578 4219 1281 4162 
Q 984 4106 628 3988 
L 628 4550 
Q 988 4650 1302 4700 
Q 1616 4750 1894 4750 
Q 2613 4750 3031 4423 
Q 3450 4097 3450 3541 
Q 3450 3153 3228 2886 
Q 3006 2619 2597 2516 
z
" transform="scale(0.015625)"/>
       </defs>
       <use xlink:href="#DejaVuSans-16"/>
       <use xlink:href="#DejaVuSans-13" transform="translate(63.625 0)"/>
       <use xlink:href="#DejaVuSans-13" transform="translate(127.25 0)"/>
       <use xlink:href="#DejaVuSans-13" transform="translate(190.875 0)"/>
      </g>
     </g>
    </g>
    <g id="xtick_5">
     <g id="line2d_5">
      <g>
       <use xlink:href="#mde276980be" x="287.791531" y="380.5175" style="stroke: #000000; stroke-width: 0.8"/>
      </g>
     </g>
     <g id="text_5">
      <!-- 4000 -->
      <g transform="translate(272.521531 396.634688) scale(0.12 -0.12)">
       <defs>
        <path id="DejaVuSans-17" d="M 2419 4116 
L 825 1625 
L 2419 1625 
L 2419 4116 
z
M 2253 4666 
L 3047 4666 
L 3047 1625 
L 3713 1625 
L 3713 1100 
L 3047 1100 
L 3047 0 
L 2419 0 
L 2419 1100 
L 313 1100 
L 313 1709 
L 2253 4666 
z
" transform="scale(0.015625)"/>
       </defs>
       <use xlink:href="#DejaVuSans-17"/>
       <use xlink:href="#DejaVuSans-13" transform="translate(63.625 0)"/>
       <use xlink:href="#DejaVuSans-13" transform="translate(127.25 0)"/>
       <use xlink:href="#DejaVuSans-13" transform="translate(190.875 0)"/>
      </g>
     </g>
    </g>
    <g id="xtick_6">
     <g id="line2d_6">
      <g>
       <use xlink:href="#mde276980be" x="344.882206" y="380.5175" style="stroke: #000000; stroke-width: 0.8"/>
      </g>
     </g>
     <g id="text_6">
      <!-- 5000 -->
      <g transform="translate(329.612206 396.634688) scale(0.12 -0.12)">
       <defs>
        <path id="DejaVuSans-18" d="M 691 4666 
L 3169 4666 
L 3169 4134 
L 1269 4134 
L 1269 2991 
Q 1406 3038 1543 3061 
Q 1681 3084 1819 3084 
Q 2600 3084 3056 2656 
Q 3513 2228 3513 1497 
Q 3513 744 3044 326 
Q 2575 -91 1722 -91 
Q 1428 -91 1123 -41 
Q 819 9 494 109 
L 494 744 
Q 775 591 1075 516 
Q 1375 441 1709 441 
Q 2250 441 2565 725 
Q 2881 1009 2881 1497 
Q 2881 1984 2565 2268 
Q 2250 2553 1709 2553 
Q 1456 2553 1204 2497 
Q 953 2441 691 2322 
L 691 4666 
z
" transform="scale(0.015625)"/>
       </defs>
       <use xlink:href="#DejaVuSans-18"/>
       <use xlink:href="#DejaVuSans-13" transform="translate(63.625 0)"/>
       <use xlink:href="#DejaVuSans-13" transform="translate(127.25 0)"/>
       <use xlink:href="#DejaVuSans-13" transform="translate(190.875 0)"/>
      </g>
     </g>
    </g>
    <g id="text_7">
     <!-- Number of samples in the training set -->
     <g transform="translate(69.415707 414.155313) scale(0.14 -0.14)">
      <defs>
       <path id="DejaVuSans-31" d="M 628 4666 
L 1478 4666 
L 3547 763 
L 3547 4666 
L 4159 4666 
L 4159 0 
L 3309 0 
L 1241 3903 
L 1241 0 
L 628 0 
L 628 4666 
z
" transform="scale(0.015625)"/>
       <path id="DejaVuSans-58" d="M 544 1381 
L 544 3500 
L 1119 3500 
L 1119 1403 
Q 1119 906 1312 657 
Q 1506 409 1894 409 
Q 2359 409 2629 706 
Q 2900 1003 2900 1516 
L 2900 3500 
L 3475 3500 
L 3475 0 
L 2900 0 
L 2900 538 
Q 2691 219 2414 64 
Q 2138 -91 1772 -91 
Q 1169 -91 856 284 
Q 544 659 544 1381 
z
M 1991 3584 
L 1991 3584 
z
" transform="scale(0.015625)"/>
       <path id="DejaVuSans-50" d="M 3328 2828 
Q 3544 3216 3844 3400 
Q 4144 3584 4550 3584 
Q 5097 3584 5394 3201 
Q 5691 2819 5691 2113 
L 5691 0 
L 5113 0 
L 5113 2094 
Q 5113 2597 4934 2840 
Q 4756 3084 4391 3084 
Q 3944 3084 3684 2787 
Q 3425 2491 3425 1978 
L 3425 0 
L 2847 0 
L 2847 2094 
Q 2847 2600 2669 2842 
Q 2491 3084 2119 3084 
Q 1678 3084 1418 2786 
Q 1159 2488 1159 1978 
L 1159 0 
L 581 0 
L 581 3500 
L 1159 3500 
L 1159 2956 
Q 1356 3278 1631 3431 
Q 1906 3584 2284 3584 
Q 2666 3584 2933 3390 
Q 3200 3197 3328 2828 
z
" transform="scale(0.015625)"/>
       <path id="DejaVuSans-45" d="M 3116 1747 
Q 3116 2381 2855 2742 
Q 2594 3103 2138 3103 
Q 1681 3103 1420 2742 
Q 1159 2381 1159 1747 
Q 1159 1113 1420 752 
Q 1681 391 2138 391 
Q 2594 391 2855 752 
Q 3116 1113 3116 1747 
z
M 1159 2969 
Q 1341 3281 1617 3432 
Q 1894 3584 2278 3584 
Q 2916 3584 3314 3078 
Q 3713 2572 3713 1747 
Q 3713 922 3314 415 
Q 2916 -91 2278 -91 
Q 1894 -91 1617 61 
Q 1341 213 1159 525 
L 1159 0 
L 581 0 
L 581 4863 
L 1159 4863 
L 1159 2969 
z
" transform="scale(0.015625)"/>
       <path id="DejaVuSans-48" d="M 3597 1894 
L 3597 1613 
L 953 1613 
Q 991 1019 1311 708 
Q 1631 397 2203 397 
Q 2534 397 2845 478 
Q 3156 559 3463 722 
L 3463 178 
Q 3153 47 2828 -22 
Q 2503 -91 2169 -91 
Q 1331 -91 842 396 
Q 353 884 353 1716 
Q 353 2575 817 3079 
Q 1281 3584 2069 3584 
Q 2775 3584 3186 3129 
Q 3597 2675 3597 1894 
z
M 3022 2063 
Q 3016 2534 2758 2815 
Q 2500 3097 2075 3097 
Q 1594 3097 1305 2825 
Q 1016 2553 972 2059 
L 3022 2063 
z
" transform="scale(0.015625)"/>
       <path id="DejaVuSans-55" d="M 2631 2963 
Q 2534 3019 2420 3045 
Q 2306 3072 2169 3072 
Q 1681 3072 1420 2755 
Q 1159 2438 1159 1844 
L 1159 0 
L 581 0 
L 581 3500 
L 1159 3500 
L 1159 2956 
Q 1341 3275 1631 3429 
Q 1922 3584 2338 3584 
Q 2397 3584 2469 3576 
Q 2541 3569 2628 3553 
L 2631 2963 
z
" transform="scale(0.015625)"/>
       <path id="DejaVuSans-3" transform="scale(0.015625)"/>
       <path id="DejaVuSans-52" d="M 1959 3097 
Q 1497 3097 1228 2736 
Q 959 2375 959 1747 
Q 959 1119 1226 758 
Q 1494 397 1959 397 
Q 2419 397 2687 759 
Q 2956 1122 2956 1747 
Q 2956 2369 2687 2733 
Q 2419 3097 1959 3097 
z
M 1959 3584 
Q 2709 3584 3137 3096 
Q 3566 2609 3566 1747 
Q 3566 888 3137 398 
Q 2709 -91 1959 -91 
Q 1206 -91 779 398 
Q 353 888 353 1747 
Q 353 2609 779 3096 
Q 1206 3584 1959 3584 
z
" transform="scale(0.015625)"/>
       <path id="DejaVuSans-49" d="M 2375 4863 
L 2375 4384 
L 1825 4384 
Q 1516 4384 1395 4259 
Q 1275 4134 1275 3809 
L 1275 3500 
L 2222 3500 
L 2222 3053 
L 1275 3053 
L 1275 0 
L 697 0 
L 697 3053 
L 147 3053 
L 147 3500 
L 697 3500 
L 697 3744 
Q 697 4328 969 4595 
Q 1241 4863 1831 4863 
L 2375 4863 
z
" transform="scale(0.015625)"/>
       <path id="DejaVuSans-56" d="M 2834 3397 
L 2834 2853 
Q 2591 2978 2328 3040 
Q 2066 3103 1784 3103 
Q 1356 3103 1142 2972 
Q 928 2841 928 2578 
Q 928 2378 1081 2264 
Q 1234 2150 1697 2047 
L 1894 2003 
Q 2506 1872 2764 1633 
Q 3022 1394 3022 966 
Q 3022 478 2636 193 
Q 2250 -91 1575 -91 
Q 1294 -91 989 -36 
Q 684 19 347 128 
L 347 722 
Q 666 556 975 473 
Q 1284 391 1588 391 
Q 1994 391 2212 530 
Q 2431 669 2431 922 
Q 2431 1156 2273 1281 
Q 2116 1406 1581 1522 
L 1381 1569 
Q 847 1681 609 1914 
Q 372 2147 372 2553 
Q 372 3047 722 3315 
Q 1072 3584 1716 3584 
Q 2034 3584 2315 3537 
Q 2597 3491 2834 3397 
z
" transform="scale(0.015625)"/>
       <path id="DejaVuSans-44" d="M 2194 1759 
Q 1497 1759 1228 1600 
Q 959 1441 959 1056 
Q 959 750 1161 570 
Q 1363 391 1709 391 
Q 2188 391 2477 730 
Q 2766 1069 2766 1631 
L 2766 1759 
L 2194 1759 
z
M 3341 1997 
L 3341 0 
L 2766 0 
L 2766 531 
Q 2569 213 2275 61 
Q 1981 -91 1556 -91 
Q 1019 -91 701 211 
Q 384 513 384 1019 
Q 384 1609 779 1909 
Q 1175 2209 1959 2209 
L 2766 2209 
L 2766 2266 
Q 2766 2663 2505 2880 
Q 2244 3097 1772 3097 
Q 1472 3097 1187 3025 
Q 903 2953 641 2809 
L 641 3341 
Q 956 3463 1253 3523 
Q 1550 3584 1831 3584 
Q 2591 3584 2966 3190 
Q 3341 2797 3341 1997 
z
" transform="scale(0.015625)"/>
       <path id="DejaVuSans-53" d="M 1159 525 
L 1159 -1331 
L 581 -1331 
L 581 3500 
L 1159 3500 
L 1159 2969 
Q 1341 3281 1617 3432 
Q 1894 3584 2278 3584 
Q 2916 3584 3314 3078 
Q 3713 2572 3713 1747 
Q 3713 922 3314 415 
Q 2916 -91 2278 -91 
Q 1894 -91 1617 61 
Q 1341 213 1159 525 
z
M 3116 1747 
Q 3116 2381 2855 2742 
Q 2594 3103 2138 3103 
Q 1681 3103 1420 2742 
Q 1159 2381 1159 1747 
Q 1159 1113 1420 752 
Q 1681 391 2138 391 
Q 2594 391 2855 752 
Q 3116 1113 3116 1747 
z
" transform="scale(0.015625)"/>
       <path id="DejaVuSans-4f" d="M 603 4863 
L 1178 4863 
L 1178 0 
L 603 0 
L 603 4863 
z
" transform="scale(0.015625)"/>
       <path id="DejaVuSans-4c" d="M 603 3500 
L 1178 3500 
L 1178 0 
L 603 0 
L 603 3500 
z
M 603 4863 
L 1178 4863 
L 1178 4134 
L 603 4134 
L 603 4863 
z
" transform="scale(0.015625)"/>
       <path id="DejaVuSans-51" d="M 3513 2113 
L 3513 0 
L 2938 0 
L 2938 2094 
Q 2938 2591 2744 2837 
Q 2550 3084 2163 3084 
Q 1697 3084 1428 2787 
Q 1159 2491 1159 1978 
L 1159 0 
L 581 0 
L 581 3500 
L 1159 3500 
L 1159 2956 
Q 1366 3272 1645 3428 
Q 1925 3584 2291 3584 
Q 2894 3584 3203 3211 
Q 3513 2838 3513 2113 
z
" transform="scale(0.015625)"/>
       <path id="DejaVuSans-57" d="M 1172 4494 
L 1172 3500 
L 2356 3500 
L 2356 3053 
L 1172 3053 
L 1172 1153 
Q 1172 725 1289 603 
Q 1406 481 1766 481 
L 2356 481 
L 2356 0 
L 1766 0 
Q 1100 0 847 248 
Q 594 497 594 1153 
L 594 3053 
L 172 3053 
L 172 3500 
L 594 3500 
L 594 4494 
L 1172 4494 
z
" transform="scale(0.015625)"/>
       <path id="DejaVuSans-4b" d="M 3513 2113 
L 3513 0 
L 2938 0 
L 2938 2094 
Q 2938 2591 2744 2837 
Q 2550 3084 2163 3084 
Q 1697 3084 1428 2787 
Q 1159 2491 1159 1978 
L 1159 0 
L 581 0 
L 581 4863 
L 1159 4863 
L 1159 2956 
Q 1366 3272 1645 3428 
Q 1925 3584 2291 3584 
Q 2894 3584 3203 3211 
Q 3513 2838 3513 2113 
z
" transform="scale(0.015625)"/>
       <path id="DejaVuSans-4a" d="M 2906 1791 
Q 2906 2416 2648 2759 
Q 2391 3103 1925 3103 
Q 1463 3103 1205 2759 
Q 947 2416 947 1791 
Q 947 1169 1205 825 
Q 1463 481 1925 481 
Q 2391 481 2648 825 
Q 2906 1169 2906 1791 
z
M 3481 434 
Q 3481 -459 3084 -895 
Q 2688 -1331 1869 -1331 
Q 1566 -1331 1297 -1286 
Q 1028 -1241 775 -1147 
L 775 -588 
Q 1028 -725 1275 -790 
Q 1522 -856 1778 -856 
Q 2344 -856 2625 -561 
Q 2906 -266 2906 331 
L 2906 616 
Q 2728 306 2450 153 
Q 2172 0 1784 0 
Q 1141 0 747 490 
Q 353 981 353 1791 
Q 353 2603 747 3093 
Q 1141 3584 1784 3584 
Q 2172 3584 2450 3431 
Q 2728 3278 2906 2969 
L 2906 3500 
L 3481 3500 
L 3481 434 
z
" transform="scale(0.015625)"/>
      </defs>
      <use xlink:href="#DejaVuSans-31"/>
      <use xlink:href="#DejaVuSans-58" transform="translate(74.8125 0)"/>
      <use xlink:href="#DejaVuSans-50" transform="translate(138.1875 0)"/>
      <use xlink:href="#DejaVuSans-45" transform="translate(235.59375 0)"/>
      <use xlink:href="#DejaVuSans-48" transform="translate(299.078125 0)"/>
      <use xlink:href="#DejaVuSans-55" transform="translate(360.609375 0)"/>
      <use xlink:href="#DejaVuSans-3" transform="translate(401.71875 0)"/>
      <use xlink:href="#DejaVuSans-52" transform="translate(433.5 0)"/>
      <use xlink:href="#DejaVuSans-49" transform="translate(494.6875 0)"/>
      <use xlink:href="#DejaVuSans-3" transform="translate(529.890625 0)"/>
      <use xlink:href="#DejaVuSans-56" transform="translate(561.671875 0)"/>
      <use xlink:href="#DejaVuSans-44" transform="translate(613.765625 0)"/>
      <use xlink:href="#DejaVuSans-50" transform="translate(675.046875 0)"/>
      <use xlink:href="#DejaVuSans-53" transform="translate(772.453125 0)"/>
      <use xlink:href="#DejaVuSans-4f" transform="translate(835.9375 0)"/>
      <use xlink:href="#DejaVuSans-48" transform="translate(863.71875 0)"/>
      <use xlink:href="#DejaVuSans-56" transform="translate(925.25 0)"/>
      <use xlink:href="#DejaVuSans-3" transform="translate(977.34375 0)"/>
      <use xlink:href="#DejaVuSans-4c" transform="translate(1009.125 0)"/>
      <use xlink:href="#DejaVuSans-51" transform="translate(1036.90625 0)"/>
      <use xlink:href="#DejaVuSans-3" transform="translate(1100.28125 0)"/>
      <use xlink:href="#DejaVuSans-57" transform="translate(1132.0625 0)"/>
      <use xlink:href="#DejaVuSans-4b" transform="translate(1171.265625 0)"/>
      <use xlink:href="#DejaVuSans-48" transform="translate(1234.640625 0)"/>
      <use xlink:href="#DejaVuSans-3" transform="translate(1296.171875 0)"/>
      <use xlink:href="#DejaVuSans-57" transform="translate(1327.953125 0)"/>
      <use xlink:href="#DejaVuSans-55" transform="translate(1367.15625 0)"/>
      <use xlink:href="#DejaVuSans-44" transform="translate(1408.265625 0)"/>
      <use xlink:href="#DejaVuSans-4c" transform="translate(1469.546875 0)"/>
      <use xlink:href="#DejaVuSans-51" transform="translate(1497.328125 0)"/>
      <use xlink:href="#DejaVuSans-4c" transform="translate(1560.703125 0)"/>
      <use xlink:href="#DejaVuSans-51" transform="translate(1588.484375 0)"/>
      <use xlink:href="#DejaVuSans-4a" transform="translate(1651.859375 0)"/>
      <use xlink:href="#DejaVuSans-3" transform="translate(1715.34375 0)"/>
      <use xlink:href="#DejaVuSans-56" transform="translate(1747.125 0)"/>
      <use xlink:href="#DejaVuSans-48" transform="translate(1799.21875 0)"/>
      <use xlink:href="#DejaVuSans-57" transform="translate(1860.75 0)"/>
     </g>
    </g>
   </g>
   <g id="matplotlib.axis_2">
    <g id="ytick_1">
     <g id="line2d_7">
      <defs>
       <path id="m5b6561184d" d="M 0 0 
L -3.5 0 
" style="stroke: #000000; stroke-width: 0.8"/>
      </defs>
      <g>
       <use xlink:href="#m5b6561184d" x="51.284844" y="373.624358" style="stroke: #000000; stroke-width: 0.8"/>
      </g>
     </g>
     <g id="text_8">
      <!-- 1.5 -->
      <g transform="translate(25.201094 378.182952) scale(0.12 -0.12)">
       <defs>
        <path id="DejaVuSans-11" d="M 684 794 
L 1344 794 
L 1344 0 
L 684 0 
L 684 794 
z
" transform="scale(0.015625)"/>
       </defs>
       <use xlink:href="#DejaVuSans-14"/>
       <use xlink:href="#DejaVuSans-11" transform="translate(63.625 0)"/>
       <use xlink:href="#DejaVuSans-18" transform="translate(95.40625 0)"/>
      </g>
     </g>
    </g>
    <g id="ytick_2">
     <g id="line2d_8">
      <g>
       <use xlink:href="#m5b6561184d" x="51.284844" y="332.323224" style="stroke: #000000; stroke-width: 0.8"/>
      </g>
     </g>
     <g id="text_9">
      <!-- 2.0 -->
      <g transform="translate(25.201094 336.881818) scale(0.12 -0.12)">
       <use xlink:href="#DejaVuSans-15"/>
       <use xlink:href="#DejaVuSans-11" transform="translate(63.625 0)"/>
       <use xlink:href="#DejaVuSans-13" transform="translate(95.40625 0)"/>
      </g>
     </g>
    </g>
    <g id="ytick_3">
     <g id="line2d_9">
      <g>
       <use xlink:href="#m5b6561184d" x="51.284844" y="291.02209" style="stroke: #000000; stroke-width: 0.8"/>
      </g>
     </g>
     <g id="text_10">
      <!-- 2.5 -->
      <g transform="translate(25.201094 295.580684) scale(0.12 -0.12)">
       <use xlink:href="#DejaVuSans-15"/>
       <use xlink:href="#DejaVuSans-11" transform="translate(63.625 0)"/>
       <use xlink:href="#DejaVuSans-18" transform="translate(95.40625 0)"/>
      </g>
     </g>
    </g>
    <g id="ytick_4">
     <g id="line2d_10">
      <g>
       <use xlink:href="#m5b6561184d" x="51.284844" y="249.720957" style="stroke: #000000; stroke-width: 0.8"/>
      </g>
     </g>
     <g id="text_11">
      <!-- 3.0 -->
      <g transform="translate(25.201094 254.27955) scale(0.12 -0.12)">
       <use xlink:href="#DejaVuSans-16"/>
       <use xlink:href="#DejaVuSans-11" transform="translate(63.625 0)"/>
       <use xlink:href="#DejaVuSans-13" transform="translate(95.40625 0)"/>
      </g>
     </g>
    </g>
    <g id="ytick_5">
     <g id="line2d_11">
      <g>
       <use xlink:href="#m5b6561184d" x="51.284844" y="208.419823" style="stroke: #000000; stroke-width: 0.8"/>
      </g>
     </g>
     <g id="text_12">
      <!-- 3.5 -->
      <g transform="translate(25.201094 212.978416) scale(0.12 -0.12)">
       <use xlink:href="#DejaVuSans-16"/>
       <use xlink:href="#DejaVuSans-11" transform="translate(63.625 0)"/>
       <use xlink:href="#DejaVuSans-18" transform="translate(95.40625 0)"/>
      </g>
     </g>
    </g>
    <g id="ytick_6">
     <g id="line2d_12">
      <g>
       <use xlink:href="#m5b6561184d" x="51.284844" y="167.118689" style="stroke: #000000; stroke-width: 0.8"/>
      </g>
     </g>
     <g id="text_13">
      <!-- 4.0 -->
      <g transform="translate(25.201094 171.677282) scale(0.12 -0.12)">
       <use xlink:href="#DejaVuSans-17"/>
       <use xlink:href="#DejaVuSans-11" transform="translate(63.625 0)"/>
       <use xlink:href="#DejaVuSans-13" transform="translate(95.40625 0)"/>
      </g>
     </g>
    </g>
    <g id="ytick_7">
     <g id="line2d_13">
      <g>
       <use xlink:href="#m5b6561184d" x="51.284844" y="125.817555" style="stroke: #000000; stroke-width: 0.8"/>
      </g>
     </g>
     <g id="text_14">
      <!-- 4.5 -->
      <g transform="translate(25.201094 130.376148) scale(0.12 -0.12)">
       <use xlink:href="#DejaVuSans-17"/>
       <use xlink:href="#DejaVuSans-11" transform="translate(63.625 0)"/>
       <use xlink:href="#DejaVuSans-18" transform="translate(95.40625 0)"/>
      </g>
     </g>
    </g>
    <g id="ytick_8">
     <g id="line2d_14">
      <g>
       <use xlink:href="#m5b6561184d" x="51.284844" y="84.516421" style="stroke: #000000; stroke-width: 0.8"/>
      </g>
     </g>
     <g id="text_15">
      <!-- 5.0 -->
      <g transform="translate(25.201094 89.075014) scale(0.12 -0.12)">
       <use xlink:href="#DejaVuSans-18"/>
       <use xlink:href="#DejaVuSans-11" transform="translate(63.625 0)"/>
       <use xlink:href="#DejaVuSans-13" transform="translate(95.40625 0)"/>
      </g>
     </g>
    </g>
    <g id="ytick_9">
     <g id="line2d_15">
      <g>
       <use xlink:href="#m5b6561184d" x="51.284844" y="43.215287" style="stroke: #000000; stroke-width: 0.8"/>
      </g>
     </g>
     <g id="text_16">
      <!-- 5.5 -->
      <g transform="translate(25.201094 47.77388) scale(0.12 -0.12)">
       <use xlink:href="#DejaVuSans-18"/>
       <use xlink:href="#DejaVuSans-11" transform="translate(63.625 0)"/>
       <use xlink:href="#DejaVuSans-18" transform="translate(95.40625 0)"/>
      </g>
     </g>
    </g>
    <g id="text_17">
     <!-- Mean squared error -->
     <g transform="translate(17.837813 271.697188) rotate(-90) scale(0.14 -0.14)">
      <defs>
       <path id="DejaVuSans-30" d="M 628 4666 
L 1569 4666 
L 2759 1491 
L 3956 4666 
L 4897 4666 
L 4897 0 
L 4281 0 
L 4281 4097 
L 3078 897 
L 2444 897 
L 1241 4097 
L 1241 0 
L 628 0 
L 628 4666 
z
" transform="scale(0.015625)"/>
       <path id="DejaVuSans-54" d="M 947 1747 
Q 947 1113 1208 752 
Q 1469 391 1925 391 
Q 2381 391 2643 752 
Q 2906 1113 2906 1747 
Q 2906 2381 2643 2742 
Q 2381 3103 1925 3103 
Q 1469 3103 1208 2742 
Q 947 2381 947 1747 
z
M 2906 525 
Q 2725 213 2448 61 
Q 2172 -91 1784 -91 
Q 1150 -91 751 415 
Q 353 922 353 1747 
Q 353 2572 751 3078 
Q 1150 3584 1784 3584 
Q 2172 3584 2448 3432 
Q 2725 3281 2906 2969 
L 2906 3500 
L 3481 3500 
L 3481 -1331 
L 2906 -1331 
L 2906 525 
z
" transform="scale(0.015625)"/>
       <path id="DejaVuSans-47" d="M 2906 2969 
L 2906 4863 
L 3481 4863 
L 3481 0 
L 2906 0 
L 2906 525 
Q 2725 213 2448 61 
Q 2172 -91 1784 -91 
Q 1150 -91 751 415 
Q 353 922 353 1747 
Q 353 2572 751 3078 
Q 1150 3584 1784 3584 
Q 2172 3584 2448 3432 
Q 2725 3281 2906 2969 
z
M 947 1747 
Q 947 1113 1208 752 
Q 1469 391 1925 391 
Q 2381 391 2643 752 
Q 2906 1113 2906 1747 
Q 2906 2381 2643 2742 
Q 2381 3103 1925 3103 
Q 1469 3103 1208 2742 
Q 947 2381 947 1747 
z
" transform="scale(0.015625)"/>
      </defs>
      <use xlink:href="#DejaVuSans-30"/>
      <use xlink:href="#DejaVuSans-48" transform="translate(86.28125 0)"/>
      <use xlink:href="#DejaVuSans-44" transform="translate(147.8125 0)"/>
      <use xlink:href="#DejaVuSans-51" transform="translate(209.09375 0)"/>
      <use xlink:href="#DejaVuSans-3" transform="translate(272.46875 0)"/>
      <use xlink:href="#DejaVuSans-56" transform="translate(304.25 0)"/>
      <use xlink:href="#DejaVuSans-54" transform="translate(356.34375 0)"/>
      <use xlink:href="#DejaVuSans-58" transform="translate(419.828125 0)"/>
      <use xlink:href="#DejaVuSans-44" transform="translate(483.203125 0)"/>
      <use xlink:href="#DejaVuSans-55" transform="translate(544.484375 0)"/>
      <use xlink:href="#DejaVuSans-48" transform="translate(583.390625 0)"/>
      <use xlink:href="#DejaVuSans-47" transform="translate(644.921875 0)"/>
      <use xlink:href="#DejaVuSans-3" transform="translate(708.40625 0)"/>
      <use xlink:href="#DejaVuSans-48" transform="translate(740.1875 0)"/>
      <use xlink:href="#DejaVuSans-55" transform="translate(801.71875 0)"/>
      <use xlink:href="#DejaVuSans-55" transform="translate(841.078125 0)"/>
      <use xlink:href="#DejaVuSans-52" transform="translate(879.984375 0)"/>
      <use xlink:href="#DejaVuSans-55" transform="translate(941.171875 0)"/>
     </g>
    </g>
   </g>
   <g id="line2d_16">
    <path d="M 65.023715 358.028271 
L 70.618601 344.42518 
L 76.213487 343.809913 
L 81.808373 337.637242 
L 87.46035 335.06879 
L 93.055236 337.630122 
L 98.650123 338.226335 
L 104.245009 338.309903 
L 109.839895 339.293518 
L 115.491872 338.737857 
L 121.086758 339.147815 
L 126.681644 339.414463 
L 132.276531 339.381963 
L 137.928507 339.226902 
L 143.523394 339.784918 
L 149.11828 339.643415 
L 154.713166 338.736017 
L 160.308052 338.92097 
L 165.960029 339.587787 
L 171.554915 340.139254 
L 177.149802 340.258434 
L 182.744688 339.880928 
L 188.396665 339.621746 
L 193.991551 339.378411 
L 199.586437 338.378861 
L 205.181323 338.213488 
L 210.776209 337.589033 
L 216.428186 337.533224 
L 222.023072 337.408607 
L 227.617959 337.671575 
L 233.212845 337.964149 
L 238.864822 338.178554 
L 244.459708 337.742055 
L 250.054594 337.3773 
L 255.64948 337.620273 
L 261.244367 337.435726 
L 266.896343 337.553868 
L 272.49123 337.483027 
L 278.086116 338.026975 
L 283.681002 337.759547 
L 289.332979 337.609806 
L 294.927865 337.526724 
L 300.522751 337.578532 
L 306.117638 337.675086 
L 311.712524 337.519579 
L 317.364501 337.360621 
L 322.959387 337.234069 
L 328.554273 337.178426 
L 334.149159 337.045029 
L 339.801136 337.101009 
" clip-path="url(#p6a97651b6a)" style="fill: none; stroke: #a20025; stroke-width: 1.5; stroke-linecap: square"/>
   </g>
   <g id="line2d_17">
    <path d="M 65.023715 278.13858 
L 70.618601 304.541011 
L 76.213487 314.837214 
L 81.808373 320.333805 
L 87.46035 324.965154 
L 93.055236 326.187811 
L 98.650123 328.690587 
L 104.245009 329.052809 
L 109.839895 329.632281 
L 115.491872 329.252577 
L 121.086758 330.22769 
L 126.681644 330.539939 
L 132.276531 331.429368 
L 137.928507 331.754385 
L 143.523394 331.47301 
L 149.11828 332.35214 
L 154.713166 332.807853 
L 160.308052 332.786577 
L 165.960029 333.342304 
L 171.554915 333.505821 
L 177.149802 334.117104 
L 182.744688 333.928364 
L 188.396665 334.358053 
L 193.991551 334.724653 
L 199.586437 335.033377 
L 205.181323 335.102212 
L 210.776209 335.000014 
L 216.428186 335.27801 
L 222.023072 335.338871 
L 227.617959 335.446842 
L 233.212845 335.548287 
L 238.864822 335.634566 
L 244.459708 335.674154 
L 250.054594 335.700731 
L 255.64948 335.853485 
L 261.244367 336.016745 
L 266.896343 335.935402 
L 272.49123 336.111883 
L 278.086116 336.253327 
L 283.681002 336.197147 
L 289.332979 336.474615 
L 294.927865 336.442231 
L 300.522751 336.719727 
L 306.117638 336.76332 
L 311.712524 337.004608 
L 317.364501 337.033925 
L 322.959387 336.897449 
L 328.554273 337.24276 
L 334.149159 337.193824 
L 339.801136 337.218383 
" clip-path="url(#p6a97651b6a)" style="fill: none; stroke: #6c8ebf; stroke-width: 1.5; stroke-linecap: square"/>
   </g>
   <g id="patch_3">
    <path d="M 51.284844 380.5175 
L 51.284844 25.3575 
" style="fill: none; stroke: #000000; stroke-width: 0.8; stroke-linejoin: miter; stroke-linecap: square"/>
   </g>
   <g id="patch_4">
    <path d="M 353.540007 380.5175 
L 353.540007 25.3575 
" style="fill: none; stroke: #000000; stroke-width: 0.8; stroke-linejoin: miter; stroke-linecap: square"/>
   </g>
   <g id="patch_5">
    <path d="M 51.284844 380.5175 
L 353.540007 380.5175 
" style="fill: none; stroke: #000000; stroke-width: 0.8; stroke-linejoin: miter; stroke-linecap: square"/>
   </g>
   <g id="patch_6">
    <path d="M 51.284844 25.3575 
L 353.540007 25.3575 
" style="fill: none; stroke: #000000; stroke-width: 0.8; stroke-linejoin: miter; stroke-linecap: square"/>
   </g>
   <g id="text_18">
    <!-- Learning Curve for RANSAC Regressor -->
    <g transform="translate(50.313675 19.3575) scale(0.16 -0.16)">
     <defs>
      <path id="DejaVuSans-2f" d="M 628 4666 
L 1259 4666 
L 1259 531 
L 3531 531 
L 3531 0 
L 628 0 
L 628 4666 
z
" transform="scale(0.015625)"/>
      <path id="DejaVuSans-26" d="M 4122 4306 
L 4122 3641 
Q 3803 3938 3442 4084 
Q 3081 4231 2675 4231 
Q 1875 4231 1450 3742 
Q 1025 3253 1025 2328 
Q 1025 1406 1450 917 
Q 1875 428 2675 428 
Q 3081 428 3442 575 
Q 3803 722 4122 1019 
L 4122 359 
Q 3791 134 3420 21 
Q 3050 -91 2638 -91 
Q 1578 -91 968 557 
Q 359 1206 359 2328 
Q 359 3453 968 4101 
Q 1578 4750 2638 4750 
Q 3056 4750 3426 4639 
Q 3797 4528 4122 4306 
z
" transform="scale(0.015625)"/>
      <path id="DejaVuSans-59" d="M 191 3500 
L 800 3500 
L 1894 563 
L 2988 3500 
L 3597 3500 
L 2284 0 
L 1503 0 
L 191 3500 
z
" transform="scale(0.015625)"/>
      <path id="DejaVuSans-35" d="M 2841 2188 
Q 3044 2119 3236 1894 
Q 3428 1669 3622 1275 
L 4263 0 
L 3584 0 
L 2988 1197 
Q 2756 1666 2539 1819 
Q 2322 1972 1947 1972 
L 1259 1972 
L 1259 0 
L 628 0 
L 628 4666 
L 2053 4666 
Q 2853 4666 3247 4331 
Q 3641 3997 3641 3322 
Q 3641 2881 3436 2590 
Q 3231 2300 2841 2188 
z
M 1259 4147 
L 1259 2491 
L 2053 2491 
Q 2509 2491 2742 2702 
Q 2975 2913 2975 3322 
Q 2975 3731 2742 3939 
Q 2509 4147 2053 4147 
L 1259 4147 
z
" transform="scale(0.015625)"/>
      <path id="DejaVuSans-24" d="M 2188 4044 
L 1331 1722 
L 3047 1722 
L 2188 4044 
z
M 1831 4666 
L 2547 4666 
L 4325 0 
L 3669 0 
L 3244 1197 
L 1141 1197 
L 716 0 
L 50 0 
L 1831 4666 
z
" transform="scale(0.015625)"/>
      <path id="DejaVuSans-36" d="M 3425 4513 
L 3425 3897 
Q 3066 4069 2747 4153 
Q 2428 4238 2131 4238 
Q 1616 4238 1336 4038 
Q 1056 3838 1056 3469 
Q 1056 3159 1242 3001 
Q 1428 2844 1947 2747 
L 2328 2669 
Q 3034 2534 3370 2195 
Q 3706 1856 3706 1288 
Q 3706 609 3251 259 
Q 2797 -91 1919 -91 
Q 1588 -91 1214 -16 
Q 841 59 441 206 
L 441 856 
Q 825 641 1194 531 
Q 1563 422 1919 422 
Q 2459 422 2753 634 
Q 3047 847 3047 1241 
Q 3047 1584 2836 1778 
Q 2625 1972 2144 2069 
L 1759 2144 
Q 1053 2284 737 2584 
Q 422 2884 422 3419 
Q 422 4038 858 4394 
Q 1294 4750 2059 4750 
Q 2388 4750 2728 4690 
Q 3069 4631 3425 4513 
z
" transform="scale(0.015625)"/>
     </defs>
     <use xlink:href="#DejaVuSans-2f"/>
     <use xlink:href="#DejaVuSans-48" transform="translate(53.96875 0)"/>
     <use xlink:href="#DejaVuSans-44" transform="translate(115.5 0)"/>
     <use xlink:href="#DejaVuSans-55" transform="translate(176.78125 0)"/>
     <use xlink:href="#DejaVuSans-51" transform="translate(216.140625 0)"/>
     <use xlink:href="#DejaVuSans-4c" transform="translate(279.515625 0)"/>
     <use xlink:href="#DejaVuSans-51" transform="translate(307.296875 0)"/>
     <use xlink:href="#DejaVuSans-4a" transform="translate(370.671875 0)"/>
     <use xlink:href="#DejaVuSans-3" transform="translate(434.15625 0)"/>
     <use xlink:href="#DejaVuSans-26" transform="translate(465.9375 0)"/>
     <use xlink:href="#DejaVuSans-58" transform="translate(535.765625 0)"/>
     <use xlink:href="#DejaVuSans-55" transform="translate(599.140625 0)"/>
     <use xlink:href="#DejaVuSans-59" transform="translate(640.25 0)"/>
     <use xlink:href="#DejaVuSans-48" transform="translate(699.4375 0)"/>
     <use xlink:href="#DejaVuSans-3" transform="translate(760.96875 0)"/>
     <use xlink:href="#DejaVuSans-49" transform="translate(792.75 0)"/>
     <use xlink:href="#DejaVuSans-52" transform="translate(827.953125 0)"/>
     <use xlink:href="#DejaVuSans-55" transform="translate(889.140625 0)"/>
     <use xlink:href="#DejaVuSans-3" transform="translate(930.25 0)"/>
     <use xlink:href="#DejaVuSans-35" transform="translate(962.03125 0)"/>
     <use xlink:href="#DejaVuSans-24" transform="translate(1027.46875 0)"/>
     <use xlink:href="#DejaVuSans-31" transform="translate(1095.875 0)"/>
     <use xlink:href="#DejaVuSans-36" transform="translate(1170.6875 0)"/>
     <use xlink:href="#DejaVuSans-24" transform="translate(1236.03125 0)"/>
     <use xlink:href="#DejaVuSans-26" transform="translate(1302.6875 0)"/>
     <use xlink:href="#DejaVuSans-3" transform="translate(1372.515625 0)"/>
     <use xlink:href="#DejaVuSans-35" transform="translate(1404.296875 0)"/>
     <use xlink:href="#DejaVuSans-48" transform="translate(1469.296875 0)"/>
     <use xlink:href="#DejaVuSans-4a" transform="translate(1530.828125 0)"/>
     <use xlink:href="#DejaVuSans-55" transform="translate(1594.3125 0)"/>
     <use xlink:href="#DejaVuSans-48" transform="translate(1633.21875 0)"/>
     <use xlink:href="#DejaVuSans-56" transform="translate(1694.75 0)"/>
     <use xlink:href="#DejaVuSans-56" transform="translate(1746.84375 0)"/>
     <use xlink:href="#DejaVuSans-52" transform="translate(1798.9375 0)"/>
     <use xlink:href="#DejaVuSans-55" transform="translate(1860.125 0)"/>
    </g>
   </g>
   <g id="legend_1">
    <g id="patch_7">
     <path d="M 265.350945 78.559687 
L 343.740007 78.559687 
Q 346.540007 78.559687 346.540007 75.759687 
L 346.540007 35.1575 
Q 346.540007 32.3575 343.740007 32.3575 
L 265.350945 32.3575 
Q 262.550945 32.3575 262.550945 35.1575 
L 262.550945 75.759687 
Q 262.550945 78.559687 265.350945 78.559687 
z
" style="fill: #ffffff; opacity: 0.8; stroke: #cccccc; stroke-linejoin: miter"/>
    </g>
    <g id="line2d_18">
     <path d="M 268.150945 43.695312 
L 282.150945 43.695312 
L 296.150945 43.695312 
" style="fill: none; stroke: #a20025; stroke-width: 1.5; stroke-linecap: square"/>
    </g>
    <g id="text_19">
     <!-- Train -->
     <g transform="translate(307.350945 48.595312) scale(0.14 -0.14)">
      <defs>
       <path id="DejaVuSans-37" d="M -19 4666 
L 3928 4666 
L 3928 4134 
L 2272 4134 
L 2272 0 
L 1638 0 
L 1638 4134 
L -19 4134 
L -19 4666 
z
" transform="scale(0.015625)"/>
      </defs>
      <use xlink:href="#DejaVuSans-37"/>
      <use xlink:href="#DejaVuSans-55" transform="translate(46.375 0)"/>
      <use xlink:href="#DejaVuSans-44" transform="translate(87.484375 0)"/>
      <use xlink:href="#DejaVuSans-4c" transform="translate(148.765625 0)"/>
      <use xlink:href="#DejaVuSans-51" transform="translate(176.546875 0)"/>
     </g>
    </g>
    <g id="line2d_19">
     <path d="M 268.150945 64.696406 
L 282.150945 64.696406 
L 296.150945 64.696406 
" style="fill: none; stroke: #6c8ebf; stroke-width: 1.5; stroke-linecap: square"/>
    </g>
    <g id="text_20">
     <!-- Test -->
     <g transform="translate(307.350945 69.596406) scale(0.14 -0.14)">
      <use xlink:href="#DejaVuSans-37"/>
      <use xlink:href="#DejaVuSans-48" transform="translate(44.09375 0)"/>
      <use xlink:href="#DejaVuSans-56" transform="translate(105.625 0)"/>
      <use xlink:href="#DejaVuSans-57" transform="translate(157.71875 0)"/>
     </g>
    </g>
   </g>
  </g>
  <g id="axes_2">
   <g id="patch_8">
    <path d="M 394.414844 380.5175 
L 696.670007 380.5175 
L 696.670007 25.3575 
L 394.414844 25.3575 
z
" style="fill: #ffffff"/>
   </g>
   <g id="matplotlib.axis_3">
    <g id="xtick_7">
     <g id="line2d_20">
      <g>
       <use xlink:href="#mde276980be" x="402.558829" y="380.5175" style="stroke: #000000; stroke-width: 0.8"/>
      </g>
     </g>
     <g id="text_21">
      <!-- 0 -->
      <g transform="translate(398.741329 396.634688) scale(0.12 -0.12)">
       <use xlink:href="#DejaVuSans-13"/>
      </g>
     </g>
    </g>
    <g id="xtick_8">
     <g id="line2d_21">
      <g>
       <use xlink:href="#mde276980be" x="459.649504" y="380.5175" style="stroke: #000000; stroke-width: 0.8"/>
      </g>
     </g>
     <g id="text_22">
      <!-- 1000 -->
      <g transform="translate(444.379504 396.634688) scale(0.12 -0.12)">
       <use xlink:href="#DejaVuSans-14"/>
       <use xlink:href="#DejaVuSans-13" transform="translate(63.625 0)"/>
       <use xlink:href="#DejaVuSans-13" transform="translate(127.25 0)"/>
       <use xlink:href="#DejaVuSans-13" transform="translate(190.875 0)"/>
      </g>
     </g>
    </g>
    <g id="xtick_9">
     <g id="line2d_22">
      <g>
       <use xlink:href="#mde276980be" x="516.74018" y="380.5175" style="stroke: #000000; stroke-width: 0.8"/>
      </g>
     </g>
     <g id="text_23">
      <!-- 2000 -->
      <g transform="translate(501.47018 396.634688) scale(0.12 -0.12)">
       <use xlink:href="#DejaVuSans-15"/>
       <use xlink:href="#DejaVuSans-13" transform="translate(63.625 0)"/>
       <use xlink:href="#DejaVuSans-13" transform="translate(127.25 0)"/>
       <use xlink:href="#DejaVuSans-13" transform="translate(190.875 0)"/>
      </g>
     </g>
    </g>
    <g id="xtick_10">
     <g id="line2d_23">
      <g>
       <use xlink:href="#mde276980be" x="573.830855" y="380.5175" style="stroke: #000000; stroke-width: 0.8"/>
      </g>
     </g>
     <g id="text_24">
      <!-- 3000 -->
      <g transform="translate(558.560855 396.634688) scale(0.12 -0.12)">
       <use xlink:href="#DejaVuSans-16"/>
       <use xlink:href="#DejaVuSans-13" transform="translate(63.625 0)"/>
       <use xlink:href="#DejaVuSans-13" transform="translate(127.25 0)"/>
       <use xlink:href="#DejaVuSans-13" transform="translate(190.875 0)"/>
      </g>
     </g>
    </g>
    <g id="xtick_11">
     <g id="line2d_24">
      <g>
       <use xlink:href="#mde276980be" x="630.921531" y="380.5175" style="stroke: #000000; stroke-width: 0.8"/>
      </g>
     </g>
     <g id="text_25">
      <!-- 4000 -->
      <g transform="translate(615.651531 396.634688) scale(0.12 -0.12)">
       <use xlink:href="#DejaVuSans-17"/>
       <use xlink:href="#DejaVuSans-13" transform="translate(63.625 0)"/>
       <use xlink:href="#DejaVuSans-13" transform="translate(127.25 0)"/>
       <use xlink:href="#DejaVuSans-13" transform="translate(190.875 0)"/>
      </g>
     </g>
    </g>
    <g id="xtick_12">
     <g id="line2d_25">
      <g>
       <use xlink:href="#mde276980be" x="688.012206" y="380.5175" style="stroke: #000000; stroke-width: 0.8"/>
      </g>
     </g>
     <g id="text_26">
      <!-- 5000 -->
      <g transform="translate(672.742206 396.634688) scale(0.12 -0.12)">
       <use xlink:href="#DejaVuSans-18"/>
       <use xlink:href="#DejaVuSans-13" transform="translate(63.625 0)"/>
       <use xlink:href="#DejaVuSans-13" transform="translate(127.25 0)"/>
       <use xlink:href="#DejaVuSans-13" transform="translate(190.875 0)"/>
      </g>
     </g>
    </g>
    <g id="text_27">
     <!-- Number of samples in the training set -->
     <g transform="translate(412.545707 414.155313) scale(0.14 -0.14)">
      <use xlink:href="#DejaVuSans-31"/>
      <use xlink:href="#DejaVuSans-58" transform="translate(74.8125 0)"/>
      <use xlink:href="#DejaVuSans-50" transform="translate(138.1875 0)"/>
      <use xlink:href="#DejaVuSans-45" transform="translate(235.59375 0)"/>
      <use xlink:href="#DejaVuSans-48" transform="translate(299.078125 0)"/>
      <use xlink:href="#DejaVuSans-55" transform="translate(360.609375 0)"/>
      <use xlink:href="#DejaVuSans-3" transform="translate(401.71875 0)"/>
      <use xlink:href="#DejaVuSans-52" transform="translate(433.5 0)"/>
      <use xlink:href="#DejaVuSans-49" transform="translate(494.6875 0)"/>
      <use xlink:href="#DejaVuSans-3" transform="translate(529.890625 0)"/>
      <use xlink:href="#DejaVuSans-56" transform="translate(561.671875 0)"/>
      <use xlink:href="#DejaVuSans-44" transform="translate(613.765625 0)"/>
      <use xlink:href="#DejaVuSans-50" transform="translate(675.046875 0)"/>
      <use xlink:href="#DejaVuSans-53" transform="translate(772.453125 0)"/>
      <use xlink:href="#DejaVuSans-4f" transform="translate(835.9375 0)"/>
      <use xlink:href="#DejaVuSans-48" transform="translate(863.71875 0)"/>
      <use xlink:href="#DejaVuSans-56" transform="translate(925.25 0)"/>
      <use xlink:href="#DejaVuSans-3" transform="translate(977.34375 0)"/>
      <use xlink:href="#DejaVuSans-4c" transform="translate(1009.125 0)"/>
      <use xlink:href="#DejaVuSans-51" transform="translate(1036.90625 0)"/>
      <use xlink:href="#DejaVuSans-3" transform="translate(1100.28125 0)"/>
      <use xlink:href="#DejaVuSans-57" transform="translate(1132.0625 0)"/>
      <use xlink:href="#DejaVuSans-4b" transform="translate(1171.265625 0)"/>
      <use xlink:href="#DejaVuSans-48" transform="translate(1234.640625 0)"/>
      <use xlink:href="#DejaVuSans-3" transform="translate(1296.171875 0)"/>
      <use xlink:href="#DejaVuSans-57" transform="translate(1327.953125 0)"/>
      <use xlink:href="#DejaVuSans-55" transform="translate(1367.15625 0)"/>
      <use xlink:href="#DejaVuSans-44" transform="translate(1408.265625 0)"/>
      <use xlink:href="#DejaVuSans-4c" transform="translate(1469.546875 0)"/>
      <use xlink:href="#DejaVuSans-51" transform="translate(1497.328125 0)"/>
      <use xlink:href="#DejaVuSans-4c" transform="translate(1560.703125 0)"/>
      <use xlink:href="#DejaVuSans-51" transform="translate(1588.484375 0)"/>
      <use xlink:href="#DejaVuSans-4a" transform="translate(1651.859375 0)"/>
      <use xlink:href="#DejaVuSans-3" transform="translate(1715.34375 0)"/>
      <use xlink:href="#DejaVuSans-56" transform="translate(1747.125 0)"/>
      <use xlink:href="#DejaVuSans-48" transform="translate(1799.21875 0)"/>
      <use xlink:href="#DejaVuSans-57" transform="translate(1860.75 0)"/>
     </g>
    </g>
   </g>
   <g id="matplotlib.axis_4">
    <g id="ytick_10">
     <g id="line2d_26">
      <g>
       <use xlink:href="#m5b6561184d" x="394.414844" y="373.624358" style="stroke: #000000; stroke-width: 0.8"/>
      </g>
     </g>
    </g>
    <g id="ytick_11">
     <g id="line2d_27">
      <g>
       <use xlink:href="#m5b6561184d" x="394.414844" y="332.323224" style="stroke: #000000; stroke-width: 0.8"/>
      </g>
     </g>
    </g>
    <g id="ytick_12">
     <g id="line2d_28">
      <g>
       <use xlink:href="#m5b6561184d" x="394.414844" y="291.02209" style="stroke: #000000; stroke-width: 0.8"/>
      </g>
     </g>
    </g>
    <g id="ytick_13">
     <g id="line2d_29">
      <g>
       <use xlink:href="#m5b6561184d" x="394.414844" y="249.720957" style="stroke: #000000; stroke-width: 0.8"/>
      </g>
     </g>
    </g>
    <g id="ytick_14">
     <g id="line2d_30">
      <g>
       <use xlink:href="#m5b6561184d" x="394.414844" y="208.419823" style="stroke: #000000; stroke-width: 0.8"/>
      </g>
     </g>
    </g>
    <g id="ytick_15">
     <g id="line2d_31">
      <g>
       <use xlink:href="#m5b6561184d" x="394.414844" y="167.118689" style="stroke: #000000; stroke-width: 0.8"/>
      </g>
     </g>
    </g>
    <g id="ytick_16">
     <g id="line2d_32">
      <g>
       <use xlink:href="#m5b6561184d" x="394.414844" y="125.817555" style="stroke: #000000; stroke-width: 0.8"/>
      </g>
     </g>
    </g>
    <g id="ytick_17">
     <g id="line2d_33">
      <g>
       <use xlink:href="#m5b6561184d" x="394.414844" y="84.516421" style="stroke: #000000; stroke-width: 0.8"/>
      </g>
     </g>
    </g>
    <g id="ytick_18">
     <g id="line2d_34">
      <g>
       <use xlink:href="#m5b6561184d" x="394.414844" y="43.215287" style="stroke: #000000; stroke-width: 0.8"/>
      </g>
     </g>
    </g>
    <g id="text_28">
     <!-- Mean squared error -->
     <g transform="translate(383.551562 271.697188) rotate(-90) scale(0.14 -0.14)">
      <use xlink:href="#DejaVuSans-30"/>
      <use xlink:href="#DejaVuSans-48" transform="translate(86.28125 0)"/>
      <use xlink:href="#DejaVuSans-44" transform="translate(147.8125 0)"/>
      <use xlink:href="#DejaVuSans-51" transform="translate(209.09375 0)"/>
      <use xlink:href="#DejaVuSans-3" transform="translate(272.46875 0)"/>
      <use xlink:href="#DejaVuSans-56" transform="translate(304.25 0)"/>
      <use xlink:href="#DejaVuSans-54" transform="translate(356.34375 0)"/>
      <use xlink:href="#DejaVuSans-58" transform="translate(419.828125 0)"/>
      <use xlink:href="#DejaVuSans-44" transform="translate(483.203125 0)"/>
      <use xlink:href="#DejaVuSans-55" transform="translate(544.484375 0)"/>
      <use xlink:href="#DejaVuSans-48" transform="translate(583.390625 0)"/>
      <use xlink:href="#DejaVuSans-47" transform="translate(644.921875 0)"/>
      <use xlink:href="#DejaVuSans-3" transform="translate(708.40625 0)"/>
      <use xlink:href="#DejaVuSans-48" transform="translate(740.1875 0)"/>
      <use xlink:href="#DejaVuSans-55" transform="translate(801.71875 0)"/>
      <use xlink:href="#DejaVuSans-55" transform="translate(841.078125 0)"/>
      <use xlink:href="#DejaVuSans-52" transform="translate(879.984375 0)"/>
      <use xlink:href="#DejaVuSans-55" transform="translate(941.171875 0)"/>
     </g>
    </g>
   </g>
   <g id="line2d_35">
    <path d="M 408.153715 252.63239 
L 413.748601 352.984053 
L 419.343487 364.373864 
L 424.938373 358.576052 
L 430.59035 356.442329 
L 436.185236 357.692083 
L 441.780123 357.587379 
L 447.375009 358.456172 
L 452.969895 357.47144 
L 458.621872 357.308591 
L 464.216758 356.972495 
L 469.811644 358.967661 
L 475.406531 355.320431 
L 481.058507 355.938882 
L 486.653394 356.25107 
L 492.24828 354.826879 
L 497.843166 356.033295 
L 503.438052 350.169973 
L 509.090029 354.334498 
L 514.684915 354.863203 
L 520.279802 356.007965 
L 525.874688 353.961509 
L 531.526665 352.854245 
L 537.121551 353.415329 
L 542.716437 354.180194 
L 548.311323 350.626935 
L 553.906209 352.365358 
L 559.558186 355.750391 
L 565.153072 353.690994 
L 570.747959 351.951808 
L 576.342845 350.075161 
L 581.994822 349.759191 
L 587.589708 352.611773 
L 593.184594 350.738578 
L 598.77948 350.832234 
L 604.374367 350.333699 
L 610.026343 351.995522 
L 615.62123 353.089273 
L 621.216116 351.696322 
L 626.811002 351.960415 
L 632.462979 352.111781 
L 638.057865 349.118006 
L 643.652751 349.756341 
L 649.247638 353.740452 
L 654.842524 345.831102 
L 660.494501 349.225357 
L 666.089387 349.8127 
L 671.684273 349.773113 
L 677.279159 350.330742 
L 682.931136 349.155948 
" clip-path="url(#p01b2aa88a8)" style="fill: none; stroke: #a20025; stroke-width: 1.5; stroke-linecap: square"/>
   </g>
   <g id="line2d_36">
    <path d="M 408.153715 41.501136 
L 413.748601 210.388474 
L 419.343487 290.570411 
L 424.938373 298.692751 
L 430.59035 301.556013 
L 436.185236 317.996289 
L 441.780123 308.21798 
L 447.375009 302.207007 
L 452.969895 313.703929 
L 458.621872 308.621822 
L 464.216758 310.221278 
L 469.811644 322.532299 
L 475.406531 320.170126 
L 481.058507 328.532147 
L 486.653394 328.065253 
L 492.24828 318.852896 
L 497.843166 320.492395 
L 503.438052 318.484144 
L 509.090029 316.904395 
L 514.684915 328.168549 
L 520.279802 322.887011 
L 525.874688 327.730647 
L 531.526665 324.72132 
L 537.121551 332.693029 
L 542.716437 326.002231 
L 548.311323 326.48725 
L 553.906209 327.09511 
L 559.558186 325.675441 
L 565.153072 322.652716 
L 570.747959 335.9305 
L 576.342845 325.967545 
L 581.994822 325.094044 
L 587.589708 324.993262 
L 593.184594 331.793226 
L 598.77948 323.794879 
L 604.374367 333.431605 
L 610.026343 329.615561 
L 615.62123 327.484693 
L 621.216116 324.7352 
L 626.811002 326.631455 
L 632.462979 328.935744 
L 638.057865 329.134057 
L 643.652751 325.021252 
L 649.247638 331.94943 
L 654.842524 334.779729 
L 660.494501 322.018349 
L 666.089387 328.419161 
L 671.684273 331.435533 
L 677.279159 339.280895 
L 682.931136 328.783653 
" clip-path="url(#p01b2aa88a8)" style="fill: none; stroke: #6c8ebf; stroke-width: 1.5; stroke-linecap: square"/>
   </g>
   <g id="patch_9">
    <path d="M 394.414844 380.5175 
L 394.414844 25.3575 
" style="fill: none; stroke: #000000; stroke-width: 0.8; stroke-linejoin: miter; stroke-linecap: square"/>
   </g>
   <g id="patch_10">
    <path d="M 696.670007 380.5175 
L 696.670007 25.3575 
" style="fill: none; stroke: #000000; stroke-width: 0.8; stroke-linejoin: miter; stroke-linecap: square"/>
   </g>
   <g id="patch_11">
    <path d="M 394.414844 380.5175 
L 696.670007 380.5175 
" style="fill: none; stroke: #000000; stroke-width: 0.8; stroke-linejoin: miter; stroke-linecap: square"/>
   </g>
   <g id="patch_12">
    <path d="M 394.414844 25.3575 
L 696.670007 25.3575 
" style="fill: none; stroke: #000000; stroke-width: 0.8; stroke-linejoin: miter; stroke-linecap: square"/>
   </g>
   <g id="text_29">
    <!-- Learning Curve for Support Vector Regressor -->
    <g transform="translate(366.621175 19.3575) scale(0.16 -0.16)">
     <defs>
      <path id="DejaVuSans-39" d="M 1831 0 
L 50 4666 
L 709 4666 
L 2188 738 
L 3669 4666 
L 4325 4666 
L 2547 0 
L 1831 0 
z
" transform="scale(0.015625)"/>
      <path id="DejaVuSans-46" d="M 3122 3366 
L 3122 2828 
Q 2878 2963 2633 3030 
Q 2388 3097 2138 3097 
Q 1578 3097 1268 2742 
Q 959 2388 959 1747 
Q 959 1106 1268 751 
Q 1578 397 2138 397 
Q 2388 397 2633 464 
Q 2878 531 3122 666 
L 3122 134 
Q 2881 22 2623 -34 
Q 2366 -91 2075 -91 
Q 1284 -91 818 406 
Q 353 903 353 1747 
Q 353 2603 823 3093 
Q 1294 3584 2113 3584 
Q 2378 3584 2631 3529 
Q 2884 3475 3122 3366 
z
" transform="scale(0.015625)"/>
     </defs>
     <use xlink:href="#DejaVuSans-2f"/>
     <use xlink:href="#DejaVuSans-48" transform="translate(53.96875 0)"/>
     <use xlink:href="#DejaVuSans-44" transform="translate(115.5 0)"/>
     <use xlink:href="#DejaVuSans-55" transform="translate(176.78125 0)"/>
     <use xlink:href="#DejaVuSans-51" transform="translate(216.140625 0)"/>
     <use xlink:href="#DejaVuSans-4c" transform="translate(279.515625 0)"/>
     <use xlink:href="#DejaVuSans-51" transform="translate(307.296875 0)"/>
     <use xlink:href="#DejaVuSans-4a" transform="translate(370.671875 0)"/>
     <use xlink:href="#DejaVuSans-3" transform="translate(434.15625 0)"/>
     <use xlink:href="#DejaVuSans-26" transform="translate(465.9375 0)"/>
     <use xlink:href="#DejaVuSans-58" transform="translate(535.765625 0)"/>
     <use xlink:href="#DejaVuSans-55" transform="translate(599.140625 0)"/>
     <use xlink:href="#DejaVuSans-59" transform="translate(640.25 0)"/>
     <use xlink:href="#DejaVuSans-48" transform="translate(699.4375 0)"/>
     <use xlink:href="#DejaVuSans-3" transform="translate(760.96875 0)"/>
     <use xlink:href="#DejaVuSans-49" transform="translate(792.75 0)"/>
     <use xlink:href="#DejaVuSans-52" transform="translate(827.953125 0)"/>
     <use xlink:href="#DejaVuSans-55" transform="translate(889.140625 0)"/>
     <use xlink:href="#DejaVuSans-3" transform="translate(930.25 0)"/>
     <use xlink:href="#DejaVuSans-36" transform="translate(962.03125 0)"/>
     <use xlink:href="#DejaVuSans-58" transform="translate(1025.515625 0)"/>
     <use xlink:href="#DejaVuSans-53" transform="translate(1088.890625 0)"/>
     <use xlink:href="#DejaVuSans-53" transform="translate(1152.375 0)"/>
     <use xlink:href="#DejaVuSans-52" transform="translate(1215.859375 0)"/>
     <use xlink:href="#DejaVuSans-55" transform="translate(1277.046875 0)"/>
     <use xlink:href="#DejaVuSans-57" transform="translate(1318.15625 0)"/>
     <use xlink:href="#DejaVuSans-3" transform="translate(1357.359375 0)"/>
     <use xlink:href="#DejaVuSans-39" transform="translate(1389.140625 0)"/>
     <use xlink:href="#DejaVuSans-48" transform="translate(1449.78125 0)"/>
     <use xlink:href="#DejaVuSans-46" transform="translate(1511.3125 0)"/>
     <use xlink:href="#DejaVuSans-57" transform="translate(1566.296875 0)"/>
     <use xlink:href="#DejaVuSans-52" transform="translate(1605.5 0)"/>
     <use xlink:href="#DejaVuSans-55" transform="translate(1666.6875 0)"/>
     <use xlink:href="#DejaVuSans-3" transform="translate(1707.796875 0)"/>
     <use xlink:href="#DejaVuSans-35" transform="translate(1739.578125 0)"/>
     <use xlink:href="#DejaVuSans-48" transform="translate(1804.578125 0)"/>
     <use xlink:href="#DejaVuSans-4a" transform="translate(1866.109375 0)"/>
     <use xlink:href="#DejaVuSans-55" transform="translate(1929.59375 0)"/>
     <use xlink:href="#DejaVuSans-48" transform="translate(1968.5 0)"/>
     <use xlink:href="#DejaVuSans-56" transform="translate(2030.03125 0)"/>
     <use xlink:href="#DejaVuSans-56" transform="translate(2082.125 0)"/>
     <use xlink:href="#DejaVuSans-52" transform="translate(2134.21875 0)"/>
     <use xlink:href="#DejaVuSans-55" transform="translate(2195.40625 0)"/>
    </g>
   </g>
   <g id="legend_2">
    <g id="patch_13">
     <path d="M 608.480945 78.559687 
L 686.870007 78.559687 
Q 689.670007 78.559687 689.670007 75.759687 
L 689.670007 35.1575 
Q 689.670007 32.3575 686.870007 32.3575 
L 608.480945 32.3575 
Q 605.680945 32.3575 605.680945 35.1575 
L 605.680945 75.759687 
Q 605.680945 78.559687 608.480945 78.559687 
z
" style="fill: #ffffff; opacity: 0.8; stroke: #cccccc; stroke-linejoin: miter"/>
    </g>
    <g id="line2d_37">
     <path d="M 611.280945 43.695312 
L 625.280945 43.695312 
L 639.280945 43.695312 
" style="fill: none; stroke: #a20025; stroke-width: 1.5; stroke-linecap: square"/>
    </g>
    <g id="text_30">
     <!-- Train -->
     <g transform="translate(650.480945 48.595312) scale(0.14 -0.14)">
      <use xlink:href="#DejaVuSans-37"/>
      <use xlink:href="#DejaVuSans-55" transform="translate(46.375 0)"/>
      <use xlink:href="#DejaVuSans-44" transform="translate(87.484375 0)"/>
      <use xlink:href="#DejaVuSans-4c" transform="translate(148.765625 0)"/>
      <use xlink:href="#DejaVuSans-51" transform="translate(176.546875 0)"/>
     </g>
    </g>
    <g id="line2d_38">
     <path d="M 611.280945 64.696406 
L 625.280945 64.696406 
L 639.280945 64.696406 
" style="fill: none; stroke: #6c8ebf; stroke-width: 1.5; stroke-linecap: square"/>
    </g>
    <g id="text_31">
     <!-- Test -->
     <g transform="translate(650.480945 69.596406) scale(0.14 -0.14)">
      <use xlink:href="#DejaVuSans-37"/>
      <use xlink:href="#DejaVuSans-48" transform="translate(44.09375 0)"/>
      <use xlink:href="#DejaVuSans-56" transform="translate(105.625 0)"/>
      <use xlink:href="#DejaVuSans-57" transform="translate(157.71875 0)"/>
     </g>
    </g>
   </g>
  </g>
 </g>
 <defs>
  <clipPath id="p6a97651b6a">
   <rect x="51.284844" y="25.3575" width="302.255163" height="355.16"/>
  </clipPath>
  <clipPath id="p01b2aa88a8">
   <rect x="394.414844" y="25.3575" width="302.255163" height="355.16"/>
  </clipPath>
 </defs>
</svg>
