<?xml version="1.0" encoding="utf-8" standalone="no"?>
<!DOCTYPE svg PUBLIC "-//W3C//DTD SVG 1.1//EN"
  "http://www.w3.org/Graphics/SVG/1.1/DTD/svg11.dtd">
<svg xmlns:xlink="http://www.w3.org/1999/xlink" width="710.829079pt" height="426.721094pt" viewBox="0 0 710.829079 426.721094" xmlns="http://www.w3.org/2000/svg" version="1.1">
 <metadata>
  <rdf:RDF xmlns:dc="http://purl.org/dc/elements/1.1/" xmlns:cc="http://creativecommons.org/ns#" xmlns:rdf="http://www.w3.org/1999/02/22-rdf-syntax-ns#">
   <cc:Work>
    <dc:type rdf:resource="http://purl.org/dc/dcmitype/StillImage"/>
    <dc:date>2026-07-07T20:59:47.590034</dc:date>
    <dc:format>image/svg+xml</dc:format>
    <dc:creator>
     <cc:Agent>
      <dc:title>Matplotlib v3.11.0, https://matplotlib.org/</dc:title>
     </cc:Agent>
    </dc:creator>
   </cc:Work>
  </rdf:RDF>
 </metadata>
 <defs>
  <style type="text/css">*{stroke-linejoin: round; stroke-linecap: butt}</style>
 </defs>
 <g id="figure_1">
  <g id="patch_1">
   <path d="M 0 426.721094 
L 710.829079 426.721094 
L 710.829079 0 
L 0 0 
z
" style="fill: #ffffff"/>
  </g>
  <g id="axes_1">
   <g id="patch_2">
    <path d="M 39.836094 380.357187 
L 237.14932 380.357187 
L 237.14932 50.642812 
L 39.836094 50.642812 
z
" style="fill: #ffffff"/>
   </g>
   <g id="matplotlib.axis_1">
    <g id="xtick_1">
     <g id="line2d_1">
      <defs>
       <path id="m86cf857110" d="M 0 0 
L 0 3.5 
" style="stroke: #000000; stroke-width: 0.8"/>
      </defs>
      <g>
       <use xlink:href="#m86cf857110" x="48.804877" y="380.357187" style="stroke: #000000; stroke-width: 0.8"/>
      </g>
     </g>
     <g id="text_1">
      <!-- $\mathdefault{10^{-4}}$ -->
      <g transform="translate(34.704877 398.517187) scale(0.12 -0.12)">
       <defs>
        <path id="DejaVuSans-14" d="M 794 531 
L 1825 531 
L 1825 4091 
L 703 3866 
L 703 4441 
L 1819 4666 
L 2450 4666 
L 2450 531 
L 3481 531 
L 3481 0 
L 794 0 
L 794 531 
z
" transform="scale(0.015625)"/>
        <path id="DejaVuSans-13" d="M 2034 4250 
Q 1547 4250 1301 3770 
Q 1056 3291 1056 2328 
Q 1056 1369 1301 889 
Q 1547 409 2034 409 
Q 2525 409 2770 889 
Q 3016 1369 3016 2328 
Q 3016 3291 2770 3770 
Q 2525 4250 2034 4250 
z
M 2034 4750 
Q 2819 4750 3233 4129 
Q 3647 3509 3647 2328 
Q 3647 1150 3233 529 
Q 2819 -91 2034 -91 
Q 1250 -91 836 529 
Q 422 1150 422 2328 
Q 422 3509 836 4129 
Q 1250 4750 2034 4750 
z
" transform="scale(0.015625)"/>
        <path id="DejaVuSans-c9c" d="M 678 2272 
L 4684 2272 
L 4684 1741 
L 678 1741 
L 678 2272 
z
" transform="scale(0.015625)"/>
        <path id="DejaVuSans-17" d="M 2419 4116 
L 825 1625 
L 2419 1625 
L 2419 4116 
z
M 2253 4666 
L 3047 4666 
L 3047 1625 
L 3713 1625 
L 3713 1100 
L 3047 1100 
L 3047 0 
L 2419 0 
L 2419 1100 
L 313 1100 
L 313 1709 
L 2253 4666 
z
" transform="scale(0.015625)"/>
       </defs>
       <use xlink:href="#DejaVuSans-14" transform="translate(0 0.665625)"/>
       <use xlink:href="#DejaVuSans-13" transform="translate(63.623047 0.665625)"/>
       <use xlink:href="#DejaVuSans-c9c" transform="translate(128.203125 41.965625) scale(0.7)"/>
       <use xlink:href="#DejaVuSans-17" transform="translate(186.855469 41.965625) scale(0.7)"/>
      </g>
     </g>
    </g>
    <g id="xtick_2">
     <g id="line2d_2">
      <g>
       <use xlink:href="#m86cf857110" x="108.596764" y="380.357187" style="stroke: #000000; stroke-width: 0.8"/>
      </g>
     </g>
     <g id="text_2">
      <!-- $\mathdefault{10^{-2}}$ -->
      <g transform="translate(94.496764 398.637187) scale(0.12 -0.12)">
       <defs>
        <path id="DejaVuSans-15" d="M 1228 531 
L 3431 531 
L 3431 0 
L 469 0 
L 469 531 
Q 828 903 1448 1529 
Q 2069 2156 2228 2338 
Q 2531 2678 2651 2914 
Q 2772 3150 2772 3378 
Q 2772 3750 2511 3984 
Q 2250 4219 1831 4219 
Q 1534 4219 1204 4116 
Q 875 4013 500 3803 
L 500 4441 
Q 881 4594 1212 4672 
Q 1544 4750 1819 4750 
Q 2544 4750 2975 4387 
Q 3406 4025 3406 3419 
Q 3406 3131 3298 2873 
Q 3191 2616 2906 2266 
Q 2828 2175 2409 1742 
Q 1991 1309 1228 531 
z
" transform="scale(0.015625)"/>
       </defs>
       <use xlink:href="#DejaVuSans-14" transform="translate(0 0.746875)"/>
       <use xlink:href="#DejaVuSans-13" transform="translate(63.623047 0.746875)"/>
       <use xlink:href="#DejaVuSans-c9c" transform="translate(128.203125 42.046875) scale(0.7)"/>
       <use xlink:href="#DejaVuSans-15" transform="translate(186.855469 42.046875) scale(0.7)"/>
      </g>
     </g>
    </g>
    <g id="xtick_3">
     <g id="line2d_3">
      <g>
       <use xlink:href="#m86cf857110" x="168.38865" y="380.357187" style="stroke: #000000; stroke-width: 0.8"/>
      </g>
     </g>
     <g id="text_3">
      <!-- $\mathdefault{10^{0}}$ -->
      <g transform="translate(157.82865 398.637187) scale(0.12 -0.12)">
       <use xlink:href="#DejaVuSans-14" transform="translate(0 0.746875)"/>
       <use xlink:href="#DejaVuSans-13" transform="translate(63.623047 0.746875)"/>
       <use xlink:href="#DejaVuSans-13" transform="translate(128.203125 42.046875) scale(0.7)"/>
      </g>
     </g>
    </g>
    <g id="xtick_4">
     <g id="line2d_4">
      <g>
       <use xlink:href="#m86cf857110" x="228.180537" y="380.357187" style="stroke: #000000; stroke-width: 0.8"/>
      </g>
     </g>
     <g id="text_4">
      <!-- $\mathdefault{10^{2}}$ -->
      <g transform="translate(217.620537 398.637187) scale(0.12 -0.12)">
       <use xlink:href="#DejaVuSans-14" transform="translate(0 0.746875)"/>
       <use xlink:href="#DejaVuSans-13" transform="translate(63.623047 0.746875)"/>
       <use xlink:href="#DejaVuSans-15" transform="translate(128.203125 42.046875) scale(0.7)"/>
      </g>
     </g>
    </g>
    <g id="text_5">
     <!-- sgdregressor__alpha -->
     <g transform="translate(66.595051 416.157812) scale(0.14 -0.14)">
      <defs>
       <path id="DejaVuSans-56" d="M 2834 3397 
L 2834 2853 
Q 2591 2978 2328 3040 
Q 2066 3103 1784 3103 
Q 1356 3103 1142 2972 
Q 928 2841 928 2578 
Q 928 2378 1081 2264 
Q 1234 2150 1697 2047 
L 1894 2003 
Q 2506 1872 2764 1633 
Q 3022 1394 3022 966 
Q 3022 478 2636 193 
Q 2250 -91 1575 -91 
Q 1294 -91 989 -36 
Q 684 19 347 128 
L 347 722 
Q 666 556 975 473 
Q 1284 391 1588 391 
Q 1994 391 2212 530 
Q 2431 669 2431 922 
Q 2431 1156 2273 1281 
Q 2116 1406 1581 1522 
L 1381 1569 
Q 847 1681 609 1914 
Q 372 2147 372 2553 
Q 372 3047 722 3315 
Q 1072 3584 1716 3584 
Q 2034 3584 2315 3537 
Q 2597 3491 2834 3397 
z
" transform="scale(0.015625)"/>
       <path id="DejaVuSans-4a" d="M 2906 1791 
Q 2906 2416 2648 2759 
Q 2391 3103 1925 3103 
Q 1463 3103 1205 2759 
Q 947 2416 947 1791 
Q 947 1169 1205 825 
Q 1463 481 1925 481 
Q 2391 481 2648 825 
Q 2906 1169 2906 1791 
z
M 3481 434 
Q 3481 -459 3084 -895 
Q 2688 -1331 1869 -1331 
Q 1566 -1331 1297 -1286 
Q 1028 -1241 775 -1147 
L 775 -588 
Q 1028 -725 1275 -790 
Q 1522 -856 1778 -856 
Q 2344 -856 2625 -561 
Q 2906 -266 2906 331 
L 2906 616 
Q 2728 306 2450 153 
Q 2172 0 1784 0 
Q 1141 0 747 490 
Q 353 981 353 1791 
Q 353 2603 747 3093 
Q 1141 3584 1784 3584 
Q 2172 3584 2450 3431 
Q 2728 3278 2906 2969 
L 2906 3500 
L 3481 3500 
L 3481 434 
z
" transform="scale(0.015625)"/>
       <path id="DejaVuSans-47" d="M 2906 2969 
L 2906 4863 
L 3481 4863 
L 3481 0 
L 2906 0 
L 2906 525 
Q 2725 213 2448 61 
Q 2172 -91 1784 -91 
Q 1150 -91 751 415 
Q 353 922 353 1747 
Q 353 2572 751 3078 
Q 1150 3584 1784 3584 
Q 2172 3584 2448 3432 
Q 2725 3281 2906 2969 
z
M 947 1747 
Q 947 1113 1208 752 
Q 1469 391 1925 391 
Q 2381 391 2643 752 
Q 2906 1113 2906 1747 
Q 2906 2381 2643 2742 
Q 2381 3103 1925 3103 
Q 1469 3103 1208 2742 
Q 947 2381 947 1747 
z
" transform="scale(0.015625)"/>
       <path id="DejaVuSans-55" d="M 2631 2963 
Q 2534 3019 2420 3045 
Q 2306 3072 2169 3072 
Q 1681 3072 1420 2755 
Q 1159 2438 1159 1844 
L 1159 0 
L 581 0 
L 581 3500 
L 1159 3500 
L 1159 2956 
Q 1341 3275 1631 3429 
Q 1922 3584 2338 3584 
Q 2397 3584 2469 3576 
Q 2541 3569 2628 3553 
L 2631 2963 
z
" transform="scale(0.015625)"/>
       <path id="DejaVuSans-48" d="M 3597 1894 
L 3597 1613 
L 953 1613 
Q 991 1019 1311 708 
Q 1631 397 2203 397 
Q 2534 397 2845 478 
Q 3156 559 3463 722 
L 3463 178 
Q 3153 47 2828 -22 
Q 2503 -91 2169 -91 
Q 1331 -91 842 396 
Q 353 884 353 1716 
Q 353 2575 817 3079 
Q 1281 3584 2069 3584 
Q 2775 3584 3186 3129 
Q 3597 2675 3597 1894 
z
M 3022 2063 
Q 3016 2534 2758 2815 
Q 2500 3097 2075 3097 
Q 1594 3097 1305 2825 
Q 1016 2553 972 2059 
L 3022 2063 
z
" transform="scale(0.015625)"/>
       <path id="DejaVuSans-52" d="M 1959 3097 
Q 1497 3097 1228 2736 
Q 959 2375 959 1747 
Q 959 1119 1226 758 
Q 1494 397 1959 397 
Q 2419 397 2687 759 
Q 2956 1122 2956 1747 
Q 2956 2369 2687 2733 
Q 2419 3097 1959 3097 
z
M 1959 3584 
Q 2709 3584 3137 3096 
Q 3566 2609 3566 1747 
Q 3566 888 3137 398 
Q 2709 -91 1959 -91 
Q 1206 -91 779 398 
Q 353 888 353 1747 
Q 353 2609 779 3096 
Q 1206 3584 1959 3584 
z
" transform="scale(0.015625)"/>
       <path id="DejaVuSans-42" d="M 3263 -1063 
L 3263 -1509 
L -63 -1509 
L -63 -1063 
L 3263 -1063 
z
" transform="scale(0.015625)"/>
       <path id="DejaVuSans-44" d="M 2194 1759 
Q 1497 1759 1228 1600 
Q 959 1441 959 1056 
Q 959 750 1161 570 
Q 1363 391 1709 391 
Q 2188 391 2477 730 
Q 2766 1069 2766 1631 
L 2766 1759 
L 2194 1759 
z
M 3341 1997 
L 3341 0 
L 2766 0 
L 2766 531 
Q 2569 213 2275 61 
Q 1981 -91 1556 -91 
Q 1019 -91 701 211 
Q 384 513 384 1019 
Q 384 1609 779 1909 
Q 1175 2209 1959 2209 
L 2766 2209 
L 2766 2266 
Q 2766 2663 2505 2880 
Q 2244 3097 1772 3097 
Q 1472 3097 1187 3025 
Q 903 2953 641 2809 
L 641 3341 
Q 956 3463 1253 3523 
Q 1550 3584 1831 3584 
Q 2591 3584 2966 3190 
Q 3341 2797 3341 1997 
z
" transform="scale(0.015625)"/>
       <path id="DejaVuSans-4f" d="M 603 4863 
L 1178 4863 
L 1178 0 
L 603 0 
L 603 4863 
z
" transform="scale(0.015625)"/>
       <path id="DejaVuSans-53" d="M 1159 525 
L 1159 -1331 
L 581 -1331 
L 581 3500 
L 1159 3500 
L 1159 2969 
Q 1341 3281 1617 3432 
Q 1894 3584 2278 3584 
Q 2916 3584 3314 3078 
Q 3713 2572 3713 1747 
Q 3713 922 3314 415 
Q 2916 -91 2278 -91 
Q 1894 -91 1617 61 
Q 1341 213 1159 525 
z
M 3116 1747 
Q 3116 2381 2855 2742 
Q 2594 3103 2138 3103 
Q 1681 3103 1420 2742 
Q 1159 2381 1159 1747 
Q 1159 1113 1420 752 
Q 1681 391 2138 391 
Q 2594 391 2855 752 
Q 3116 1113 3116 1747 
z
" transform="scale(0.015625)"/>
       <path id="DejaVuSans-4b" d="M 3513 2113 
L 3513 0 
L 2938 0 
L 2938 2094 
Q 2938 2591 2744 2837 
Q 2550 3084 2163 3084 
Q 1697 3084 1428 2787 
Q 1159 2491 1159 1978 
L 1159 0 
L 581 0 
L 581 4863 
L 1159 4863 
L 1159 2956 
Q 1366 3272 1645 3428 
Q 1925 3584 2291 3584 
Q 2894 3584 3203 3211 
Q 3513 2838 3513 2113 
z
" transform="scale(0.015625)"/>
      </defs>
      <use xlink:href="#DejaVuSans-56"/>
      <use xlink:href="#DejaVuSans-4a" transform="translate(52.09375 0)"/>
      <use xlink:href="#DejaVuSans-47" transform="translate(115.578125 0)"/>
      <use xlink:href="#DejaVuSans-55" transform="translate(179.0625 0)"/>
      <use xlink:href="#DejaVuSans-48" transform="translate(217.96875 0)"/>
      <use xlink:href="#DejaVuSans-4a" transform="translate(279.5 0)"/>
      <use xlink:href="#DejaVuSans-55" transform="translate(342.984375 0)"/>
      <use xlink:href="#DejaVuSans-48" transform="translate(381.890625 0)"/>
      <use xlink:href="#DejaVuSans-56" transform="translate(443.421875 0)"/>
      <use xlink:href="#DejaVuSans-56" transform="translate(495.515625 0)"/>
      <use xlink:href="#DejaVuSans-52" transform="translate(547.609375 0)"/>
      <use xlink:href="#DejaVuSans-55" transform="translate(608.796875 0)"/>
      <use xlink:href="#DejaVuSans-42" transform="translate(649.90625 0)"/>
      <use xlink:href="#DejaVuSans-42" transform="translate(699.90625 0)"/>
      <use xlink:href="#DejaVuSans-44" transform="translate(749.90625 0)"/>
      <use xlink:href="#DejaVuSans-4f" transform="translate(811.1875 0)"/>
      <use xlink:href="#DejaVuSans-53" transform="translate(838.96875 0)"/>
      <use xlink:href="#DejaVuSans-4b" transform="translate(902.453125 0)"/>
      <use xlink:href="#DejaVuSans-44" transform="translate(965.828125 0)"/>
     </g>
    </g>
   </g>
   <g id="matplotlib.axis_2">
    <g id="ytick_1">
     <g id="line2d_5">
      <defs>
       <path id="mf0a85cb18a" d="M 0 0 
L -3.5 0 
" style="stroke: #000000; stroke-width: 0.8"/>
      </defs>
      <g>
       <use xlink:href="#mf0a85cb18a" x="39.836094" y="380.357187" style="stroke: #000000; stroke-width: 0.8"/>
      </g>
     </g>
     <g id="text_6">
      <!-- 0 -->
      <g transform="translate(25.201094 384.915781) scale(0.12 -0.12)">
       <use xlink:href="#DejaVuSans-13"/>
      </g>
     </g>
    </g>
    <g id="ytick_2">
     <g id="line2d_6">
      <g>
       <use xlink:href="#mf0a85cb18a" x="39.836094" y="325.404792" style="stroke: #000000; stroke-width: 0.8"/>
      </g>
     </g>
     <g id="text_7">
      <!-- 1 -->
      <g transform="translate(25.201094 329.963385) scale(0.12 -0.12)">
       <use xlink:href="#DejaVuSans-14"/>
      </g>
     </g>
    </g>
    <g id="ytick_3">
     <g id="line2d_7">
      <g>
       <use xlink:href="#mf0a85cb18a" x="39.836094" y="270.452396" style="stroke: #000000; stroke-width: 0.8"/>
      </g>
     </g>
     <g id="text_8">
      <!-- 2 -->
      <g transform="translate(25.201094 275.01099) scale(0.12 -0.12)">
       <use xlink:href="#DejaVuSans-15"/>
      </g>
     </g>
    </g>
    <g id="ytick_4">
     <g id="line2d_8">
      <g>
       <use xlink:href="#mf0a85cb18a" x="39.836094" y="215.5" style="stroke: #000000; stroke-width: 0.8"/>
      </g>
     </g>
     <g id="text_9">
      <!-- 3 -->
      <g transform="translate(25.201094 220.058594) scale(0.12 -0.12)">
       <defs>
        <path id="DejaVuSans-16" d="M 2597 2516 
Q 3050 2419 3304 2112 
Q 3559 1806 3559 1356 
Q 3559 666 3084 287 
Q 2609 -91 1734 -91 
Q 1441 -91 1130 -33 
Q 819 25 488 141 
L 488 750 
Q 750 597 1062 519 
Q 1375 441 1716 441 
Q 2309 441 2620 675 
Q 2931 909 2931 1356 
Q 2931 1769 2642 2001 
Q 2353 2234 1838 2234 
L 1294 2234 
L 1294 2753 
L 1863 2753 
Q 2328 2753 2575 2939 
Q 2822 3125 2822 3475 
Q 2822 3834 2567 4026 
Q 2313 4219 1838 4219 
Q 1578 4219 1281 4162 
Q 984 4106 628 3988 
L 628 4550 
Q 988 4650 1302 4700 
Q 1616 4750 1894 4750 
Q 2613 4750 3031 4423 
Q 3450 4097 3450 3541 
Q 3450 3153 3228 2886 
Q 3006 2619 2597 2516 
z
" transform="scale(0.015625)"/>
       </defs>
       <use xlink:href="#DejaVuSans-16"/>
      </g>
     </g>
    </g>
    <g id="ytick_5">
     <g id="line2d_9">
      <g>
       <use xlink:href="#mf0a85cb18a" x="39.836094" y="160.547604" style="stroke: #000000; stroke-width: 0.8"/>
      </g>
     </g>
     <g id="text_10">
      <!-- 4 -->
      <g transform="translate(25.201094 165.106198) scale(0.12 -0.12)">
       <use xlink:href="#DejaVuSans-17"/>
      </g>
     </g>
    </g>
    <g id="ytick_6">
     <g id="line2d_10">
      <g>
       <use xlink:href="#mf0a85cb18a" x="39.836094" y="105.595208" style="stroke: #000000; stroke-width: 0.8"/>
      </g>
     </g>
     <g id="text_11">
      <!-- 5 -->
      <g transform="translate(25.201094 110.153802) scale(0.12 -0.12)">
       <defs>
        <path id="DejaVuSans-18" d="M 691 4666 
L 3169 4666 
L 3169 4134 
L 1269 4134 
L 1269 2991 
Q 1406 3038 1543 3061 
Q 1681 3084 1819 3084 
Q 2600 3084 3056 2656 
Q 3513 2228 3513 1497 
Q 3513 744 3044 326 
Q 2575 -91 1722 -91 
Q 1428 -91 1123 -41 
Q 819 9 494 109 
L 494 744 
Q 775 591 1075 516 
Q 1375 441 1709 441 
Q 2250 441 2565 725 
Q 2881 1009 2881 1497 
Q 2881 1984 2565 2268 
Q 2250 2553 1709 2553 
Q 1456 2553 1204 2497 
Q 953 2441 691 2322 
L 691 4666 
z
" transform="scale(0.015625)"/>
       </defs>
       <use xlink:href="#DejaVuSans-18"/>
      </g>
     </g>
    </g>
    <g id="ytick_7">
     <g id="line2d_11">
      <g>
       <use xlink:href="#mf0a85cb18a" x="39.836094" y="50.642812" style="stroke: #000000; stroke-width: 0.8"/>
      </g>
     </g>
     <g id="text_12">
      <!-- 6 -->
      <g transform="translate(25.201094 55.201406) scale(0.12 -0.12)">
       <defs>
        <path id="DejaVuSans-19" d="M 2113 2584 
Q 1688 2584 1439 2293 
Q 1191 2003 1191 1497 
Q 1191 994 1439 701 
Q 1688 409 2113 409 
Q 2538 409 2786 701 
Q 3034 994 3034 1497 
Q 3034 2003 2786 2293 
Q 2538 2584 2113 2584 
z
M 3366 4563 
L 3366 3988 
Q 3128 4100 2886 4159 
Q 2644 4219 2406 4219 
Q 1781 4219 1451 3797 
Q 1122 3375 1075 2522 
Q 1259 2794 1537 2939 
Q 1816 3084 2150 3084 
Q 2853 3084 3261 2657 
Q 3669 2231 3669 1497 
Q 3669 778 3244 343 
Q 2819 -91 2113 -91 
Q 1303 -91 875 529 
Q 447 1150 447 2328 
Q 447 3434 972 4092 
Q 1497 4750 2381 4750 
Q 2619 4750 2861 4703 
Q 3103 4656 3366 4563 
z
" transform="scale(0.015625)"/>
       </defs>
       <use xlink:href="#DejaVuSans-19"/>
      </g>
     </g>
    </g>
    <g id="text_13">
     <!-- Mean squared error -->
     <g transform="translate(17.837813 284.259687) rotate(-90) scale(0.14 -0.14)">
      <defs>
       <path id="DejaVuSans-30" d="M 628 4666 
L 1569 4666 
L 2759 1491 
L 3956 4666 
L 4897 4666 
L 4897 0 
L 4281 0 
L 4281 4097 
L 3078 897 
L 2444 897 
L 1241 4097 
L 1241 0 
L 628 0 
L 628 4666 
z
" transform="scale(0.015625)"/>
       <path id="DejaVuSans-51" d="M 3513 2113 
L 3513 0 
L 2938 0 
L 2938 2094 
Q 2938 2591 2744 2837 
Q 2550 3084 2163 3084 
Q 1697 3084 1428 2787 
Q 1159 2491 1159 1978 
L 1159 0 
L 581 0 
L 581 3500 
L 1159 3500 
L 1159 2956 
Q 1366 3272 1645 3428 
Q 1925 3584 2291 3584 
Q 2894 3584 3203 3211 
Q 3513 2838 3513 2113 
z
" transform="scale(0.015625)"/>
       <path id="DejaVuSans-3" transform="scale(0.015625)"/>
       <path id="DejaVuSans-54" d="M 947 1747 
Q 947 1113 1208 752 
Q 1469 391 1925 391 
Q 2381 391 2643 752 
Q 2906 1113 2906 1747 
Q 2906 2381 2643 2742 
Q 2381 3103 1925 3103 
Q 1469 3103 1208 2742 
Q 947 2381 947 1747 
z
M 2906 525 
Q 2725 213 2448 61 
Q 2172 -91 1784 -91 
Q 1150 -91 751 415 
Q 353 922 353 1747 
Q 353 2572 751 3078 
Q 1150 3584 1784 3584 
Q 2172 3584 2448 3432 
Q 2725 3281 2906 2969 
L 2906 3500 
L 3481 3500 
L 3481 -1331 
L 2906 -1331 
L 2906 525 
z
" transform="scale(0.015625)"/>
       <path id="DejaVuSans-58" d="M 544 1381 
L 544 3500 
L 1119 3500 
L 1119 1403 
Q 1119 906 1312 657 
Q 1506 409 1894 409 
Q 2359 409 2629 706 
Q 2900 1003 2900 1516 
L 2900 3500 
L 3475 3500 
L 3475 0 
L 2900 0 
L 2900 538 
Q 2691 219 2414 64 
Q 2138 -91 1772 -91 
Q 1169 -91 856 284 
Q 544 659 544 1381 
z
M 1991 3584 
L 1991 3584 
z
" transform="scale(0.015625)"/>
      </defs>
      <use xlink:href="#DejaVuSans-30"/>
      <use xlink:href="#DejaVuSans-48" transform="translate(86.28125 0)"/>
      <use xlink:href="#DejaVuSans-44" transform="translate(147.8125 0)"/>
      <use xlink:href="#DejaVuSans-51" transform="translate(209.09375 0)"/>
      <use xlink:href="#DejaVuSans-3" transform="translate(272.46875 0)"/>
      <use xlink:href="#DejaVuSans-56" transform="translate(304.25 0)"/>
      <use xlink:href="#DejaVuSans-54" transform="translate(356.34375 0)"/>
      <use xlink:href="#DejaVuSans-58" transform="translate(419.828125 0)"/>
      <use xlink:href="#DejaVuSans-44" transform="translate(483.203125 0)"/>
      <use xlink:href="#DejaVuSans-55" transform="translate(544.484375 0)"/>
      <use xlink:href="#DejaVuSans-48" transform="translate(583.390625 0)"/>
      <use xlink:href="#DejaVuSans-47" transform="translate(644.921875 0)"/>
      <use xlink:href="#DejaVuSans-3" transform="translate(708.40625 0)"/>
      <use xlink:href="#DejaVuSans-48" transform="translate(740.1875 0)"/>
      <use xlink:href="#DejaVuSans-55" transform="translate(801.71875 0)"/>
      <use xlink:href="#DejaVuSans-55" transform="translate(841.078125 0)"/>
      <use xlink:href="#DejaVuSans-52" transform="translate(879.984375 0)"/>
      <use xlink:href="#DejaVuSans-55" transform="translate(941.171875 0)"/>
     </g>
    </g>
   </g>
   <g id="line2d_12">
    <path d="M 48.804877 283.954137 
L 78.70082 287.518233 
L 108.596764 285.468563 
L 138.492707 286.051509 
L 168.38865 252.281076 
L 198.284594 160.897659 
L 228.180537 123.071839 
" clip-path="url(#p37595827ca)" style="fill: none; stroke: #a20025; stroke-width: 3; stroke-linecap: square"/>
    <defs>
     <path id="mc75ac4d255" d="M 0 3 
C 0.795609 3 1.55874 2.683901 2.12132 2.12132 
C 2.683901 1.55874 3 0.795609 3 0 
C 3 -0.795609 2.683901 -1.55874 2.12132 -2.12132 
C 1.55874 -2.683901 0.795609 -3 0 -3 
C -0.795609 -3 -1.55874 -2.683901 -2.12132 -2.12132 
C -2.683901 -1.55874 -3 -0.795609 -3 0 
C -3 0.795609 -2.683901 1.55874 -2.12132 2.12132 
C -1.55874 2.683901 -0.795609 3 0 3 
z
" style="stroke: #a20025"/>
    </defs>
    <g clip-path="url(#p37595827ca)">
     <use xlink:href="#mc75ac4d255" x="48.804877" y="283.954137" style="fill: #a20025; stroke: #a20025"/>
     <use xlink:href="#mc75ac4d255" x="78.70082" y="287.518233" style="fill: #a20025; stroke: #a20025"/>
     <use xlink:href="#mc75ac4d255" x="108.596764" y="285.468563" style="fill: #a20025; stroke: #a20025"/>
     <use xlink:href="#mc75ac4d255" x="138.492707" y="286.051509" style="fill: #a20025; stroke: #a20025"/>
     <use xlink:href="#mc75ac4d255" x="168.38865" y="252.281076" style="fill: #a20025; stroke: #a20025"/>
     <use xlink:href="#mc75ac4d255" x="198.284594" y="160.897659" style="fill: #a20025; stroke: #a20025"/>
     <use xlink:href="#mc75ac4d255" x="228.180537" y="123.071839" style="fill: #a20025; stroke: #a20025"/>
    </g>
   </g>
   <g id="line2d_13">
    <path d="M 48.804877 182.085653 
L 78.70082 183.749355 
L 108.596764 245.382761 
L 138.492707 253.410167 
L 168.38865 238.808207 
L 198.284594 139.409873 
L 228.180537 108.207235 
" clip-path="url(#p37595827ca)" style="fill: none; stroke: #6c8ebf; stroke-width: 3; stroke-linecap: square"/>
    <defs>
     <path id="m2e083712b3" d="M 0 3 
C 0.795609 3 1.55874 2.683901 2.12132 2.12132 
C 2.683901 1.55874 3 0.795609 3 0 
C 3 -0.795609 2.683901 -1.55874 2.12132 -2.12132 
C 1.55874 -2.683901 0.795609 -3 0 -3 
C -0.795609 -3 -1.55874 -2.683901 -2.12132 -2.12132 
C -2.683901 -1.55874 -3 -0.795609 -3 0 
C -3 0.795609 -2.683901 1.55874 -2.12132 2.12132 
C -1.55874 2.683901 -0.795609 3 0 3 
z
" style="stroke: #6c8ebf"/>
    </defs>
    <g clip-path="url(#p37595827ca)">
     <use xlink:href="#m2e083712b3" x="48.804877" y="182.085653" style="fill: #6c8ebf; stroke: #6c8ebf"/>
     <use xlink:href="#m2e083712b3" x="78.70082" y="183.749355" style="fill: #6c8ebf; stroke: #6c8ebf"/>
     <use xlink:href="#m2e083712b3" x="108.596764" y="245.382761" style="fill: #6c8ebf; stroke: #6c8ebf"/>
     <use xlink:href="#m2e083712b3" x="138.492707" y="253.410167" style="fill: #6c8ebf; stroke: #6c8ebf"/>
     <use xlink:href="#m2e083712b3" x="168.38865" y="238.808207" style="fill: #6c8ebf; stroke: #6c8ebf"/>
     <use xlink:href="#m2e083712b3" x="198.284594" y="139.409873" style="fill: #6c8ebf; stroke: #6c8ebf"/>
     <use xlink:href="#m2e083712b3" x="228.180537" y="108.207235" style="fill: #6c8ebf; stroke: #6c8ebf"/>
    </g>
   </g>
   <g id="patch_3">
    <path d="M 39.836094 380.357187 
L 39.836094 50.642812 
" style="fill: none; stroke: #000000; stroke-width: 0.8; stroke-linejoin: miter; stroke-linecap: square"/>
   </g>
   <g id="patch_4">
    <path d="M 237.14932 380.357187 
L 237.14932 50.642812 
" style="fill: none; stroke: #000000; stroke-width: 0.8; stroke-linejoin: miter; stroke-linecap: square"/>
   </g>
   <g id="patch_5">
    <path d="M 39.836094 380.357187 
L 237.14932 380.357187 
" style="fill: none; stroke: #000000; stroke-width: 0.8; stroke-linejoin: miter; stroke-linecap: square"/>
   </g>
   <g id="patch_6">
    <path d="M 39.836094 50.642812 
L 237.14932 50.642812 
" style="fill: none; stroke: #000000; stroke-width: 0.8; stroke-linejoin: miter; stroke-linecap: square"/>
   </g>
   <g id="text_14">
    <!-- L2 Regularization -->
    <g transform="translate(69.070207 44.642812) scale(0.16 -0.16)">
     <defs>
      <path id="DejaVuSans-2f" d="M 628 4666 
L 1259 4666 
L 1259 531 
L 3531 531 
L 3531 0 
L 628 0 
L 628 4666 
z
" transform="scale(0.015625)"/>
      <path id="DejaVuSans-35" d="M 2841 2188 
Q 3044 2119 3236 1894 
Q 3428 1669 3622 1275 
L 4263 0 
L 3584 0 
L 2988 1197 
Q 2756 1666 2539 1819 
Q 2322 1972 1947 1972 
L 1259 1972 
L 1259 0 
L 628 0 
L 628 4666 
L 2053 4666 
Q 2853 4666 3247 4331 
Q 3641 3997 3641 3322 
Q 3641 2881 3436 2590 
Q 3231 2300 2841 2188 
z
M 1259 4147 
L 1259 2491 
L 2053 2491 
Q 2509 2491 2742 2702 
Q 2975 2913 2975 3322 
Q 2975 3731 2742 3939 
Q 2509 4147 2053 4147 
L 1259 4147 
z
" transform="scale(0.015625)"/>
      <path id="DejaVuSans-4c" d="M 603 3500 
L 1178 3500 
L 1178 0 
L 603 0 
L 603 3500 
z
M 603 4863 
L 1178 4863 
L 1178 4134 
L 603 4134 
L 603 4863 
z
" transform="scale(0.015625)"/>
      <path id="DejaVuSans-5d" d="M 353 3500 
L 3084 3500 
L 3084 2975 
L 922 459 
L 3084 459 
L 3084 0 
L 275 0 
L 275 525 
L 2438 3041 
L 353 3041 
L 353 3500 
z
" transform="scale(0.015625)"/>
      <path id="DejaVuSans-57" d="M 1172 4494 
L 1172 3500 
L 2356 3500 
L 2356 3053 
L 1172 3053 
L 1172 1153 
Q 1172 725 1289 603 
Q 1406 481 1766 481 
L 2356 481 
L 2356 0 
L 1766 0 
Q 1100 0 847 248 
Q 594 497 594 1153 
L 594 3053 
L 172 3053 
L 172 3500 
L 594 3500 
L 594 4494 
L 1172 4494 
z
" transform="scale(0.015625)"/>
     </defs>
     <use xlink:href="#DejaVuSans-2f"/>
     <use xlink:href="#DejaVuSans-15" transform="translate(55.71875 0)"/>
     <use xlink:href="#DejaVuSans-3" transform="translate(119.34375 0)"/>
     <use xlink:href="#DejaVuSans-35" transform="translate(151.125 0)"/>
     <use xlink:href="#DejaVuSans-48" transform="translate(216.125 0)"/>
     <use xlink:href="#DejaVuSans-4a" transform="translate(277.65625 0)"/>
     <use xlink:href="#DejaVuSans-58" transform="translate(341.140625 0)"/>
     <use xlink:href="#DejaVuSans-4f" transform="translate(404.515625 0)"/>
     <use xlink:href="#DejaVuSans-44" transform="translate(432.296875 0)"/>
     <use xlink:href="#DejaVuSans-55" transform="translate(493.578125 0)"/>
     <use xlink:href="#DejaVuSans-4c" transform="translate(534.6875 0)"/>
     <use xlink:href="#DejaVuSans-5d" transform="translate(562.46875 0)"/>
     <use xlink:href="#DejaVuSans-44" transform="translate(614.953125 0)"/>
     <use xlink:href="#DejaVuSans-57" transform="translate(676.234375 0)"/>
     <use xlink:href="#DejaVuSans-4c" transform="translate(715.4375 0)"/>
     <use xlink:href="#DejaVuSans-52" transform="translate(743.21875 0)"/>
     <use xlink:href="#DejaVuSans-51" transform="translate(804.40625 0)"/>
    </g>
   </g>
   <g id="legend_1">
    <g id="patch_7">
     <path d="M 148.960258 103.845 
L 227.34932 103.845 
Q 230.14932 103.845 230.14932 101.045 
L 230.14932 60.442812 
Q 230.14932 57.642812 227.34932 57.642812 
L 148.960258 57.642812 
Q 146.160258 57.642812 146.160258 60.442812 
L 146.160258 101.045 
Q 146.160258 103.845 148.960258 103.845 
z
" style="fill: #ffffff; opacity: 0.8; stroke: #cccccc; stroke-linejoin: miter"/>
    </g>
    <g id="line2d_14">
     <path d="M 151.760258 68.980625 
L 165.760258 68.980625 
L 179.760258 68.980625 
" style="fill: none; stroke: #a20025; stroke-width: 3; stroke-linecap: square"/>
     <g>
      <use xlink:href="#mc75ac4d255" x="165.760258" y="68.980625" style="fill: #a20025; stroke: #a20025"/>
     </g>
    </g>
    <g id="text_15">
     <!-- Train -->
     <g transform="translate(190.960258 73.880625) scale(0.14 -0.14)">
      <defs>
       <path id="DejaVuSans-37" d="M -19 4666 
L 3928 4666 
L 3928 4134 
L 2272 4134 
L 2272 0 
L 1638 0 
L 1638 4134 
L -19 4134 
L -19 4666 
z
" transform="scale(0.015625)"/>
      </defs>
      <use xlink:href="#DejaVuSans-37"/>
      <use xlink:href="#DejaVuSans-55" transform="translate(46.375 0)"/>
      <use xlink:href="#DejaVuSans-44" transform="translate(87.484375 0)"/>
      <use xlink:href="#DejaVuSans-4c" transform="translate(148.765625 0)"/>
      <use xlink:href="#DejaVuSans-51" transform="translate(176.546875 0)"/>
     </g>
    </g>
    <g id="line2d_15">
     <path d="M 151.760258 89.981719 
L 165.760258 89.981719 
L 179.760258 89.981719 
" style="fill: none; stroke: #6c8ebf; stroke-width: 3; stroke-linecap: square"/>
     <g>
      <use xlink:href="#m2e083712b3" x="165.760258" y="89.981719" style="fill: #6c8ebf; stroke: #6c8ebf"/>
     </g>
    </g>
    <g id="text_16">
     <!-- Test -->
     <g transform="translate(190.960258 94.881719) scale(0.14 -0.14)">
      <use xlink:href="#DejaVuSans-37"/>
      <use xlink:href="#DejaVuSans-48" transform="translate(44.09375 0)"/>
      <use xlink:href="#DejaVuSans-56" transform="translate(105.625 0)"/>
      <use xlink:href="#DejaVuSans-57" transform="translate(157.71875 0)"/>
     </g>
    </g>
   </g>
  </g>
  <g id="axes_2">
   <g id="patch_8">
    <path d="M 272.789427 380.357187 
L 470.102653 380.357187 
L 470.102653 50.642812 
L 272.789427 50.642812 
z
" style="fill: #ffffff"/>
   </g>
   <g id="matplotlib.axis_3">
    <g id="xtick_5">
     <g id="line2d_16">
      <g>
       <use xlink:href="#m86cf857110" x="281.75821" y="380.357187" style="stroke: #000000; stroke-width: 0.8"/>
      </g>
     </g>
     <g id="text_17">
      <!-- 1 -->
      <g transform="translate(277.94071 396.474375) scale(0.12 -0.12)">
       <use xlink:href="#DejaVuSans-14"/>
      </g>
     </g>
    </g>
    <g id="xtick_6">
     <g id="line2d_17">
      <g>
       <use xlink:href="#m86cf857110" x="341.550097" y="380.357187" style="stroke: #000000; stroke-width: 0.8"/>
      </g>
     </g>
     <g id="text_18">
      <!-- 2 -->
      <g transform="translate(337.732597 396.474375) scale(0.12 -0.12)">
       <use xlink:href="#DejaVuSans-15"/>
      </g>
     </g>
    </g>
    <g id="xtick_7">
     <g id="line2d_18">
      <g>
       <use xlink:href="#m86cf857110" x="401.341984" y="380.357187" style="stroke: #000000; stroke-width: 0.8"/>
      </g>
     </g>
     <g id="text_19">
      <!-- 3 -->
      <g transform="translate(397.524484 396.474375) scale(0.12 -0.12)">
       <use xlink:href="#DejaVuSans-16"/>
      </g>
     </g>
    </g>
    <g id="xtick_8">
     <g id="line2d_19">
      <g>
       <use xlink:href="#m86cf857110" x="461.13387" y="380.357187" style="stroke: #000000; stroke-width: 0.8"/>
      </g>
     </g>
     <g id="text_20">
      <!-- 4 -->
      <g transform="translate(457.31637 396.474375) scale(0.12 -0.12)">
       <use xlink:href="#DejaVuSans-17"/>
      </g>
     </g>
    </g>
    <g id="text_21">
     <!-- polynomialfeatures__degree -->
     <g transform="translate(272.462759 413.995) scale(0.14 -0.14)">
      <defs>
       <path id="DejaVuSans-5c" d="M 2059 -325 
Q 1816 -950 1584 -1140 
Q 1353 -1331 966 -1331 
L 506 -1331 
L 506 -850 
L 844 -850 
Q 1081 -850 1212 -737 
Q 1344 -625 1503 -206 
L 1606 56 
L 191 3500 
L 800 3500 
L 1894 763 
L 2988 3500 
L 3597 3500 
L 2059 -325 
z
" transform="scale(0.015625)"/>
       <path id="DejaVuSans-50" d="M 3328 2828 
Q 3544 3216 3844 3400 
Q 4144 3584 4550 3584 
Q 5097 3584 5394 3201 
Q 5691 2819 5691 2113 
L 5691 0 
L 5113 0 
L 5113 2094 
Q 5113 2597 4934 2840 
Q 4756 3084 4391 3084 
Q 3944 3084 3684 2787 
Q 3425 2491 3425 1978 
L 3425 0 
L 2847 0 
L 2847 2094 
Q 2847 2600 2669 2842 
Q 2491 3084 2119 3084 
Q 1678 3084 1418 2786 
Q 1159 2488 1159 1978 
L 1159 0 
L 581 0 
L 581 3500 
L 1159 3500 
L 1159 2956 
Q 1356 3278 1631 3431 
Q 1906 3584 2284 3584 
Q 2666 3584 2933 3390 
Q 3200 3197 3328 2828 
z
" transform="scale(0.015625)"/>
       <path id="DejaVuSans-49" d="M 2375 4863 
L 2375 4384 
L 1825 4384 
Q 1516 4384 1395 4259 
Q 1275 4134 1275 3809 
L 1275 3500 
L 2222 3500 
L 2222 3053 
L 1275 3053 
L 1275 0 
L 697 0 
L 697 3053 
L 147 3053 
L 147 3500 
L 697 3500 
L 697 3744 
Q 697 4328 969 4595 
Q 1241 4863 1831 4863 
L 2375 4863 
z
" transform="scale(0.015625)"/>
      </defs>
      <use xlink:href="#DejaVuSans-53"/>
      <use xlink:href="#DejaVuSans-52" transform="translate(63.484375 0)"/>
      <use xlink:href="#DejaVuSans-4f" transform="translate(124.671875 0)"/>
      <use xlink:href="#DejaVuSans-5c" transform="translate(152.453125 0)"/>
      <use xlink:href="#DejaVuSans-51" transform="translate(211.640625 0)"/>
      <use xlink:href="#DejaVuSans-52" transform="translate(275.015625 0)"/>
      <use xlink:href="#DejaVuSans-50" transform="translate(336.203125 0)"/>
      <use xlink:href="#DejaVuSans-4c" transform="translate(433.609375 0)"/>
      <use xlink:href="#DejaVuSans-44" transform="translate(461.390625 0)"/>
      <use xlink:href="#DejaVuSans-4f" transform="translate(522.671875 0)"/>
      <use xlink:href="#DejaVuSans-49" transform="translate(550.453125 0)"/>
      <use xlink:href="#DejaVuSans-48" transform="translate(585.65625 0)"/>
      <use xlink:href="#DejaVuSans-44" transform="translate(647.1875 0)"/>
      <use xlink:href="#DejaVuSans-57" transform="translate(708.46875 0)"/>
      <use xlink:href="#DejaVuSans-58" transform="translate(747.671875 0)"/>
      <use xlink:href="#DejaVuSans-55" transform="translate(811.046875 0)"/>
      <use xlink:href="#DejaVuSans-48" transform="translate(849.953125 0)"/>
      <use xlink:href="#DejaVuSans-56" transform="translate(911.484375 0)"/>
      <use xlink:href="#DejaVuSans-42" transform="translate(963.578125 0)"/>
      <use xlink:href="#DejaVuSans-42" transform="translate(1013.578125 0)"/>
      <use xlink:href="#DejaVuSans-47" transform="translate(1063.578125 0)"/>
      <use xlink:href="#DejaVuSans-48" transform="translate(1127.0625 0)"/>
      <use xlink:href="#DejaVuSans-4a" transform="translate(1188.59375 0)"/>
      <use xlink:href="#DejaVuSans-55" transform="translate(1252.078125 0)"/>
      <use xlink:href="#DejaVuSans-48" transform="translate(1290.984375 0)"/>
      <use xlink:href="#DejaVuSans-48" transform="translate(1352.515625 0)"/>
     </g>
    </g>
   </g>
   <g id="matplotlib.axis_4">
    <g id="ytick_8">
     <g id="line2d_20">
      <g>
       <use xlink:href="#mf0a85cb18a" x="272.789427" y="380.357187" style="stroke: #000000; stroke-width: 0.8"/>
      </g>
     </g>
    </g>
    <g id="ytick_9">
     <g id="line2d_21">
      <g>
       <use xlink:href="#mf0a85cb18a" x="272.789427" y="325.404792" style="stroke: #000000; stroke-width: 0.8"/>
      </g>
     </g>
    </g>
    <g id="ytick_10">
     <g id="line2d_22">
      <g>
       <use xlink:href="#mf0a85cb18a" x="272.789427" y="270.452396" style="stroke: #000000; stroke-width: 0.8"/>
      </g>
     </g>
    </g>
    <g id="ytick_11">
     <g id="line2d_23">
      <g>
       <use xlink:href="#mf0a85cb18a" x="272.789427" y="215.5" style="stroke: #000000; stroke-width: 0.8"/>
      </g>
     </g>
    </g>
    <g id="ytick_12">
     <g id="line2d_24">
      <g>
       <use xlink:href="#mf0a85cb18a" x="272.789427" y="160.547604" style="stroke: #000000; stroke-width: 0.8"/>
      </g>
     </g>
    </g>
    <g id="ytick_13">
     <g id="line2d_25">
      <g>
       <use xlink:href="#mf0a85cb18a" x="272.789427" y="105.595208" style="stroke: #000000; stroke-width: 0.8"/>
      </g>
     </g>
    </g>
    <g id="ytick_14">
     <g id="line2d_26">
      <g>
       <use xlink:href="#mf0a85cb18a" x="272.789427" y="50.642812" style="stroke: #000000; stroke-width: 0.8"/>
      </g>
     </g>
    </g>
    <g id="text_22">
     <!-- Mean squared error -->
     <g transform="translate(261.926146 284.259687) rotate(-90) scale(0.14 -0.14)">
      <use xlink:href="#DejaVuSans-30"/>
      <use xlink:href="#DejaVuSans-48" transform="translate(86.28125 0)"/>
      <use xlink:href="#DejaVuSans-44" transform="translate(147.8125 0)"/>
      <use xlink:href="#DejaVuSans-51" transform="translate(209.09375 0)"/>
      <use xlink:href="#DejaVuSans-3" transform="translate(272.46875 0)"/>
      <use xlink:href="#DejaVuSans-56" transform="translate(304.25 0)"/>
      <use xlink:href="#DejaVuSans-54" transform="translate(356.34375 0)"/>
      <use xlink:href="#DejaVuSans-58" transform="translate(419.828125 0)"/>
      <use xlink:href="#DejaVuSans-44" transform="translate(483.203125 0)"/>
      <use xlink:href="#DejaVuSans-55" transform="translate(544.484375 0)"/>
      <use xlink:href="#DejaVuSans-48" transform="translate(583.390625 0)"/>
      <use xlink:href="#DejaVuSans-47" transform="translate(644.921875 0)"/>
      <use xlink:href="#DejaVuSans-3" transform="translate(708.40625 0)"/>
      <use xlink:href="#DejaVuSans-48" transform="translate(740.1875 0)"/>
      <use xlink:href="#DejaVuSans-55" transform="translate(801.71875 0)"/>
      <use xlink:href="#DejaVuSans-55" transform="translate(841.078125 0)"/>
      <use xlink:href="#DejaVuSans-52" transform="translate(879.984375 0)"/>
      <use xlink:href="#DejaVuSans-55" transform="translate(941.171875 0)"/>
     </g>
    </g>
   </g>
   <g id="line2d_27">
    <path d="M 281.75821 266.679703 
L 341.550097 286.117954 
L 401.341984 45.456878 
L 401.521128 -1 
" clip-path="url(#p5214b5439c)" style="fill: none; stroke: #a20025; stroke-width: 3; stroke-linecap: square"/>
    <g clip-path="url(#p5214b5439c)">
     <use xlink:href="#mc75ac4d255" x="281.75821" y="266.679703" style="fill: #a20025; stroke: #a20025"/>
     <use xlink:href="#mc75ac4d255" x="341.550097" y="286.117954" style="fill: #a20025; stroke: #a20025"/>
     <use xlink:href="#mc75ac4d255" x="401.341984" y="45.456878" style="fill: #a20025; stroke: #a20025"/>
     <use xlink:href="#mc75ac4d255" x="401.521128" y="-1" style="fill: #a20025; stroke: #a20025"/>
    </g>
   </g>
   <g id="line2d_28">
    <path d="M 281.75821 260.67163 
L 341.550097 248.945047 
L 356.453799 -1 
" clip-path="url(#p5214b5439c)" style="fill: none; stroke: #6c8ebf; stroke-width: 3; stroke-linecap: square"/>
    <g clip-path="url(#p5214b5439c)">
     <use xlink:href="#m2e083712b3" x="281.75821" y="260.67163" style="fill: #6c8ebf; stroke: #6c8ebf"/>
     <use xlink:href="#m2e083712b3" x="341.550097" y="248.945047" style="fill: #6c8ebf; stroke: #6c8ebf"/>
     <use xlink:href="#m2e083712b3" x="356.453799" y="-1" style="fill: #6c8ebf; stroke: #6c8ebf"/>
    </g>
   </g>
   <g id="patch_9">
    <path d="M 272.789427 380.357187 
L 272.789427 50.642812 
" style="fill: none; stroke: #000000; stroke-width: 0.8; stroke-linejoin: miter; stroke-linecap: square"/>
   </g>
   <g id="patch_10">
    <path d="M 470.102653 380.357187 
L 470.102653 50.642812 
" style="fill: none; stroke: #000000; stroke-width: 0.8; stroke-linejoin: miter; stroke-linecap: square"/>
   </g>
   <g id="patch_11">
    <path d="M 272.789427 380.357187 
L 470.102653 380.357187 
" style="fill: none; stroke: #000000; stroke-width: 0.8; stroke-linejoin: miter; stroke-linecap: square"/>
   </g>
   <g id="patch_12">
    <path d="M 272.789427 50.642812 
L 470.102653 50.642812 
" style="fill: none; stroke: #000000; stroke-width: 0.8; stroke-linejoin: miter; stroke-linecap: square"/>
   </g>
   <g id="text_23">
    <!-- Polynomial Degree -->
    <g transform="translate(296.28854 44.642812) scale(0.16 -0.16)">
     <defs>
      <path id="DejaVuSans-33" d="M 1259 4147 
L 1259 2394 
L 2053 2394 
Q 2494 2394 2734 2622 
Q 2975 2850 2975 3272 
Q 2975 3691 2734 3919 
Q 2494 4147 2053 4147 
L 1259 4147 
z
M 628 4666 
L 2053 4666 
Q 2838 4666 3239 4311 
Q 3641 3956 3641 3272 
Q 3641 2581 3239 2228 
Q 2838 1875 2053 1875 
L 1259 1875 
L 1259 0 
L 628 0 
L 628 4666 
z
" transform="scale(0.015625)"/>
      <path id="DejaVuSans-27" d="M 1259 4147 
L 1259 519 
L 2022 519 
Q 2988 519 3436 956 
Q 3884 1394 3884 2338 
Q 3884 3275 3436 3711 
Q 2988 4147 2022 4147 
L 1259 4147 
z
M 628 4666 
L 1925 4666 
Q 3281 4666 3915 4102 
Q 4550 3538 4550 2338 
Q 4550 1131 3912 565 
Q 3275 0 1925 0 
L 628 0 
L 628 4666 
z
" transform="scale(0.015625)"/>
     </defs>
     <use xlink:href="#DejaVuSans-33"/>
     <use xlink:href="#DejaVuSans-52" transform="translate(56.734375 0)"/>
     <use xlink:href="#DejaVuSans-4f" transform="translate(117.921875 0)"/>
     <use xlink:href="#DejaVuSans-5c" transform="translate(145.703125 0)"/>
     <use xlink:href="#DejaVuSans-51" transform="translate(204.890625 0)"/>
     <use xlink:href="#DejaVuSans-52" transform="translate(268.265625 0)"/>
     <use xlink:href="#DejaVuSans-50" transform="translate(329.453125 0)"/>
     <use xlink:href="#DejaVuSans-4c" transform="translate(426.859375 0)"/>
     <use xlink:href="#DejaVuSans-44" transform="translate(454.640625 0)"/>
     <use xlink:href="#DejaVuSans-4f" transform="translate(515.921875 0)"/>
     <use xlink:href="#DejaVuSans-3" transform="translate(543.703125 0)"/>
     <use xlink:href="#DejaVuSans-27" transform="translate(575.484375 0)"/>
     <use xlink:href="#DejaVuSans-48" transform="translate(652.484375 0)"/>
     <use xlink:href="#DejaVuSans-4a" transform="translate(714.015625 0)"/>
     <use xlink:href="#DejaVuSans-55" transform="translate(777.5 0)"/>
     <use xlink:href="#DejaVuSans-48" transform="translate(816.40625 0)"/>
     <use xlink:href="#DejaVuSans-48" transform="translate(877.9375 0)"/>
    </g>
   </g>
   <g id="legend_2">
    <g id="patch_13">
     <path d="M 282.589427 373.357187 
L 360.97849 373.357187 
Q 363.77849 373.357187 363.77849 370.557187 
L 363.77849 329.955 
Q 363.77849 327.155 360.97849 327.155 
L 282.589427 327.155 
Q 279.789427 327.155 279.789427 329.955 
L 279.789427 370.557187 
Q 279.789427 373.357187 282.589427 373.357187 
z
" style="fill: #ffffff; opacity: 0.8; stroke: #cccccc; stroke-linejoin: miter"/>
    </g>
    <g id="line2d_29">
     <path d="M 285.389427 338.492813 
L 299.389427 338.492813 
L 313.389427 338.492813 
" style="fill: none; stroke: #a20025; stroke-width: 3; stroke-linecap: square"/>
     <g>
      <use xlink:href="#mc75ac4d255" x="299.389427" y="338.492813" style="fill: #a20025; stroke: #a20025"/>
     </g>
    </g>
    <g id="text_24">
     <!-- Train -->
     <g transform="translate(324.589427 343.392812) scale(0.14 -0.14)">
      <use xlink:href="#DejaVuSans-37"/>
      <use xlink:href="#DejaVuSans-55" transform="translate(46.375 0)"/>
      <use xlink:href="#DejaVuSans-44" transform="translate(87.484375 0)"/>
      <use xlink:href="#DejaVuSans-4c" transform="translate(148.765625 0)"/>
      <use xlink:href="#DejaVuSans-51" transform="translate(176.546875 0)"/>
     </g>
    </g>
    <g id="line2d_30">
     <path d="M 285.389427 359.493906 
L 299.389427 359.493906 
L 313.389427 359.493906 
" style="fill: none; stroke: #6c8ebf; stroke-width: 3; stroke-linecap: square"/>
     <g>
      <use xlink:href="#m2e083712b3" x="299.389427" y="359.493906" style="fill: #6c8ebf; stroke: #6c8ebf"/>
     </g>
    </g>
    <g id="text_25">
     <!-- Test -->
     <g transform="translate(324.589427 364.393906) scale(0.14 -0.14)">
      <use xlink:href="#DejaVuSans-37"/>
      <use xlink:href="#DejaVuSans-48" transform="translate(44.09375 0)"/>
      <use xlink:href="#DejaVuSans-56" transform="translate(105.625 0)"/>
      <use xlink:href="#DejaVuSans-57" transform="translate(157.71875 0)"/>
     </g>
    </g>
   </g>
  </g>
  <g id="axes_3">
   <g id="patch_14">
    <path d="M 505.74276 380.357187 
L 703.055987 380.357187 
L 703.055987 50.642812 
L 505.74276 50.642812 
z
" style="fill: #ffffff"/>
   </g>
   <g id="matplotlib.axis_5">
    <g id="xtick_9">
     <g id="line2d_31">
      <g>
       <use xlink:href="#m86cf857110" x="514.711543" y="380.357187" style="stroke: #000000; stroke-width: 0.8"/>
      </g>
     </g>
     <g id="text_26">
      <!-- 0.0 -->
      <g transform="translate(505.169668 396.474375) scale(0.12 -0.12)">
       <defs>
        <path id="DejaVuSans-11" d="M 684 794 
L 1344 794 
L 1344 0 
L 684 0 
L 684 794 
z
" transform="scale(0.015625)"/>
       </defs>
       <use xlink:href="#DejaVuSans-13"/>
       <use xlink:href="#DejaVuSans-11" transform="translate(63.625 0)"/>
       <use xlink:href="#DejaVuSans-13" transform="translate(95.40625 0)"/>
      </g>
     </g>
    </g>
    <g id="xtick_10">
     <g id="line2d_32">
      <g>
       <use xlink:href="#m86cf857110" x="574.50343" y="380.357187" style="stroke: #000000; stroke-width: 0.8"/>
      </g>
     </g>
     <g id="text_27">
      <!-- 0.1 -->
      <g transform="translate(564.961555 396.474375) scale(0.12 -0.12)">
       <use xlink:href="#DejaVuSans-13"/>
       <use xlink:href="#DejaVuSans-11" transform="translate(63.625 0)"/>
       <use xlink:href="#DejaVuSans-14" transform="translate(95.40625 0)"/>
      </g>
     </g>
    </g>
    <g id="xtick_11">
     <g id="line2d_33">
      <g>
       <use xlink:href="#m86cf857110" x="634.295317" y="380.357187" style="stroke: #000000; stroke-width: 0.8"/>
      </g>
     </g>
     <g id="text_28">
      <!-- 0.2 -->
      <g transform="translate(624.753442 396.474375) scale(0.12 -0.12)">
       <use xlink:href="#DejaVuSans-13"/>
       <use xlink:href="#DejaVuSans-11" transform="translate(63.625 0)"/>
       <use xlink:href="#DejaVuSans-15" transform="translate(95.40625 0)"/>
      </g>
     </g>
    </g>
    <g id="xtick_12">
     <g id="line2d_34">
      <g>
       <use xlink:href="#m86cf857110" x="694.087204" y="380.357187" style="stroke: #000000; stroke-width: 0.8"/>
      </g>
     </g>
     <g id="text_29">
      <!-- 0.3 -->
      <g transform="translate(684.545329 396.474375) scale(0.12 -0.12)">
       <use xlink:href="#DejaVuSans-13"/>
       <use xlink:href="#DejaVuSans-11" transform="translate(63.625 0)"/>
       <use xlink:href="#DejaVuSans-16" transform="translate(95.40625 0)"/>
      </g>
     </g>
    </g>
    <g id="text_30">
     <!-- sgdregressor__epsilon -->
     <g transform="translate(526.89953 413.995) scale(0.14 -0.14)">
      <use xlink:href="#DejaVuSans-56"/>
      <use xlink:href="#DejaVuSans-4a" transform="translate(52.09375 0)"/>
      <use xlink:href="#DejaVuSans-47" transform="translate(115.578125 0)"/>
      <use xlink:href="#DejaVuSans-55" transform="translate(179.0625 0)"/>
      <use xlink:href="#DejaVuSans-48" transform="translate(217.96875 0)"/>
      <use xlink:href="#DejaVuSans-4a" transform="translate(279.5 0)"/>
      <use xlink:href="#DejaVuSans-55" transform="translate(342.984375 0)"/>
      <use xlink:href="#DejaVuSans-48" transform="translate(381.890625 0)"/>
      <use xlink:href="#DejaVuSans-56" transform="translate(443.421875 0)"/>
      <use xlink:href="#DejaVuSans-56" transform="translate(495.515625 0)"/>
      <use xlink:href="#DejaVuSans-52" transform="translate(547.609375 0)"/>
      <use xlink:href="#DejaVuSans-55" transform="translate(608.796875 0)"/>
      <use xlink:href="#DejaVuSans-42" transform="translate(649.90625 0)"/>
      <use xlink:href="#DejaVuSans-42" transform="translate(699.90625 0)"/>
      <use xlink:href="#DejaVuSans-48" transform="translate(749.90625 0)"/>
      <use xlink:href="#DejaVuSans-53" transform="translate(811.4375 0)"/>
      <use xlink:href="#DejaVuSans-56" transform="translate(874.921875 0)"/>
      <use xlink:href="#DejaVuSans-4c" transform="translate(927.015625 0)"/>
      <use xlink:href="#DejaVuSans-4f" transform="translate(954.796875 0)"/>
      <use xlink:href="#DejaVuSans-52" transform="translate(982.578125 0)"/>
      <use xlink:href="#DejaVuSans-51" transform="translate(1043.765625 0)"/>
     </g>
    </g>
   </g>
   <g id="matplotlib.axis_6">
    <g id="ytick_15">
     <g id="line2d_35">
      <g>
       <use xlink:href="#mf0a85cb18a" x="505.74276" y="380.357187" style="stroke: #000000; stroke-width: 0.8"/>
      </g>
     </g>
    </g>
    <g id="ytick_16">
     <g id="line2d_36">
      <g>
       <use xlink:href="#mf0a85cb18a" x="505.74276" y="325.404792" style="stroke: #000000; stroke-width: 0.8"/>
      </g>
     </g>
    </g>
    <g id="ytick_17">
     <g id="line2d_37">
      <g>
       <use xlink:href="#mf0a85cb18a" x="505.74276" y="270.452396" style="stroke: #000000; stroke-width: 0.8"/>
      </g>
     </g>
    </g>
    <g id="ytick_18">
     <g id="line2d_38">
      <g>
       <use xlink:href="#mf0a85cb18a" x="505.74276" y="215.5" style="stroke: #000000; stroke-width: 0.8"/>
      </g>
     </g>
    </g>
    <g id="ytick_19">
     <g id="line2d_39">
      <g>
       <use xlink:href="#mf0a85cb18a" x="505.74276" y="160.547604" style="stroke: #000000; stroke-width: 0.8"/>
      </g>
     </g>
    </g>
    <g id="ytick_20">
     <g id="line2d_40">
      <g>
       <use xlink:href="#mf0a85cb18a" x="505.74276" y="105.595208" style="stroke: #000000; stroke-width: 0.8"/>
      </g>
     </g>
    </g>
    <g id="ytick_21">
     <g id="line2d_41">
      <g>
       <use xlink:href="#mf0a85cb18a" x="505.74276" y="50.642812" style="stroke: #000000; stroke-width: 0.8"/>
      </g>
     </g>
    </g>
    <g id="text_31">
     <!-- Mean squared error -->
     <g transform="translate(494.879479 284.259687) rotate(-90) scale(0.14 -0.14)">
      <use xlink:href="#DejaVuSans-30"/>
      <use xlink:href="#DejaVuSans-48" transform="translate(86.28125 0)"/>
      <use xlink:href="#DejaVuSans-44" transform="translate(147.8125 0)"/>
      <use xlink:href="#DejaVuSans-51" transform="translate(209.09375 0)"/>
      <use xlink:href="#DejaVuSans-3" transform="translate(272.46875 0)"/>
      <use xlink:href="#DejaVuSans-56" transform="translate(304.25 0)"/>
      <use xlink:href="#DejaVuSans-54" transform="translate(356.34375 0)"/>
      <use xlink:href="#DejaVuSans-58" transform="translate(419.828125 0)"/>
      <use xlink:href="#DejaVuSans-44" transform="translate(483.203125 0)"/>
      <use xlink:href="#DejaVuSans-55" transform="translate(544.484375 0)"/>
      <use xlink:href="#DejaVuSans-48" transform="translate(583.390625 0)"/>
      <use xlink:href="#DejaVuSans-47" transform="translate(644.921875 0)"/>
      <use xlink:href="#DejaVuSans-3" transform="translate(708.40625 0)"/>
      <use xlink:href="#DejaVuSans-48" transform="translate(740.1875 0)"/>
      <use xlink:href="#DejaVuSans-55" transform="translate(801.71875 0)"/>
      <use xlink:href="#DejaVuSans-55" transform="translate(841.078125 0)"/>
      <use xlink:href="#DejaVuSans-52" transform="translate(879.984375 0)"/>
      <use xlink:href="#DejaVuSans-55" transform="translate(941.171875 0)"/>
     </g>
    </g>
   </g>
   <g id="line2d_42">
    <path d="M 514.711543 284.4853 
L 574.50343 284.022195 
L 634.295317 275.742782 
L 694.087204 287.098822 
" clip-path="url(#p71fe2b9898)" style="fill: none; stroke: #a20025; stroke-width: 3; stroke-linecap: square"/>
    <g clip-path="url(#p71fe2b9898)">
     <use xlink:href="#mc75ac4d255" x="514.711543" y="284.4853" style="fill: #a20025; stroke: #a20025"/>
     <use xlink:href="#mc75ac4d255" x="574.50343" y="284.022195" style="fill: #a20025; stroke: #a20025"/>
     <use xlink:href="#mc75ac4d255" x="634.295317" y="275.742782" style="fill: #a20025; stroke: #a20025"/>
     <use xlink:href="#mc75ac4d255" x="694.087204" y="287.098822" style="fill: #a20025; stroke: #a20025"/>
    </g>
   </g>
   <g id="line2d_43">
    <path d="M 514.711543 248.100235 
L 574.50343 265.089445 
L 634.295317 264.224484 
L 694.087204 262.34417 
" clip-path="url(#p71fe2b9898)" style="fill: none; stroke: #6c8ebf; stroke-width: 3; stroke-linecap: square"/>
    <g clip-path="url(#p71fe2b9898)">
     <use xlink:href="#m2e083712b3" x="514.711543" y="248.100235" style="fill: #6c8ebf; stroke: #6c8ebf"/>
     <use xlink:href="#m2e083712b3" x="574.50343" y="265.089445" style="fill: #6c8ebf; stroke: #6c8ebf"/>
     <use xlink:href="#m2e083712b3" x="634.295317" y="264.224484" style="fill: #6c8ebf; stroke: #6c8ebf"/>
     <use xlink:href="#m2e083712b3" x="694.087204" y="262.34417" style="fill: #6c8ebf; stroke: #6c8ebf"/>
    </g>
   </g>
   <g id="patch_15">
    <path d="M 505.74276 380.357187 
L 505.74276 50.642812 
" style="fill: none; stroke: #000000; stroke-width: 0.8; stroke-linejoin: miter; stroke-linecap: square"/>
   </g>
   <g id="patch_16">
    <path d="M 703.055987 380.357187 
L 703.055987 50.642812 
" style="fill: none; stroke: #000000; stroke-width: 0.8; stroke-linejoin: miter; stroke-linecap: square"/>
   </g>
   <g id="patch_17">
    <path d="M 505.74276 380.357187 
L 703.055987 380.357187 
" style="fill: none; stroke: #000000; stroke-width: 0.8; stroke-linejoin: miter; stroke-linecap: square"/>
   </g>
   <g id="patch_18">
    <path d="M 505.74276 50.642812 
L 703.055987 50.642812 
" style="fill: none; stroke: #000000; stroke-width: 0.8; stroke-linejoin: miter; stroke-linecap: square"/>
   </g>
   <g id="text_32">
    <!-- Epsilon Tube -->
    <g transform="translate(554.403124 44.642812) scale(0.16 -0.16)">
     <defs>
      <path id="DejaVuSans-28" d="M 628 4666 
L 3578 4666 
L 3578 4134 
L 1259 4134 
L 1259 2753 
L 3481 2753 
L 3481 2222 
L 1259 2222 
L 1259 531 
L 3634 531 
L 3634 0 
L 628 0 
L 628 4666 
z
" transform="scale(0.015625)"/>
      <path id="DejaVuSans-45" d="M 3116 1747 
Q 3116 2381 2855 2742 
Q 2594 3103 2138 3103 
Q 1681 3103 1420 2742 
Q 1159 2381 1159 1747 
Q 1159 1113 1420 752 
Q 1681 391 2138 391 
Q 2594 391 2855 752 
Q 3116 1113 3116 1747 
z
M 1159 2969 
Q 1341 3281 1617 3432 
Q 1894 3584 2278 3584 
Q 2916 3584 3314 3078 
Q 3713 2572 3713 1747 
Q 3713 922 3314 415 
Q 2916 -91 2278 -91 
Q 1894 -91 1617 61 
Q 1341 213 1159 525 
L 1159 0 
L 581 0 
L 581 4863 
L 1159 4863 
L 1159 2969 
z
" transform="scale(0.015625)"/>
     </defs>
     <use xlink:href="#DejaVuSans-28"/>
     <use xlink:href="#DejaVuSans-53" transform="translate(63.1875 0)"/>
     <use xlink:href="#DejaVuSans-56" transform="translate(126.671875 0)"/>
     <use xlink:href="#DejaVuSans-4c" transform="translate(178.765625 0)"/>
     <use xlink:href="#DejaVuSans-4f" transform="translate(206.546875 0)"/>
     <use xlink:href="#DejaVuSans-52" transform="translate(234.328125 0)"/>
     <use xlink:href="#DejaVuSans-51" transform="translate(295.515625 0)"/>
     <use xlink:href="#DejaVuSans-3" transform="translate(358.890625 0)"/>
     <use xlink:href="#DejaVuSans-37" transform="translate(390.671875 0)"/>
     <use xlink:href="#DejaVuSans-58" transform="translate(436.5625 0)"/>
     <use xlink:href="#DejaVuSans-45" transform="translate(499.9375 0)"/>
     <use xlink:href="#DejaVuSans-48" transform="translate(563.421875 0)"/>
    </g>
   </g>
   <g id="legend_3">
    <g id="patch_19">
     <path d="M 614.866924 103.845 
L 693.255987 103.845 
Q 696.055987 103.845 696.055987 101.045 
L 696.055987 60.442812 
Q 696.055987 57.642812 693.255987 57.642812 
L 614.866924 57.642812 
Q 612.066924 57.642812 612.066924 60.442812 
L 612.066924 101.045 
Q 612.066924 103.845 614.866924 103.845 
z
" style="fill: #ffffff; opacity: 0.8; stroke: #cccccc; stroke-linejoin: miter"/>
    </g>
    <g id="line2d_44">
     <path d="M 617.666924 68.980625 
L 631.666924 68.980625 
L 645.666924 68.980625 
" style="fill: none; stroke: #a20025; stroke-width: 3; stroke-linecap: square"/>
     <g>
      <use xlink:href="#mc75ac4d255" x="631.666924" y="68.980625" style="fill: #a20025; stroke: #a20025"/>
     </g>
    </g>
    <g id="text_33">
     <!-- Train -->
     <g transform="translate(656.866924 73.880625) scale(0.14 -0.14)">
      <use xlink:href="#DejaVuSans-37"/>
      <use xlink:href="#DejaVuSans-55" transform="translate(46.375 0)"/>
      <use xlink:href="#DejaVuSans-44" transform="translate(87.484375 0)"/>
      <use xlink:href="#DejaVuSans-4c" transform="translate(148.765625 0)"/>
      <use xlink:href="#DejaVuSans-51" transform="translate(176.546875 0)"/>
     </g>
    </g>
    <g id="line2d_45">
     <path d="M 617.666924 89.981719 
L 631.666924 89.981719 
L 645.666924 89.981719 
" style="fill: none; stroke: #6c8ebf; stroke-width: 3; stroke-linecap: square"/>
     <g>
      <use xlink:href="#m2e083712b3" x="631.666924" y="89.981719" style="fill: #6c8ebf; stroke: #6c8ebf"/>
     </g>
    </g>
    <g id="text_34">
     <!-- Test -->
     <g transform="translate(656.866924 94.881719) scale(0.14 -0.14)">
      <use xlink:href="#DejaVuSans-37"/>
      <use xlink:href="#DejaVuSans-48" transform="translate(44.09375 0)"/>
      <use xlink:href="#DejaVuSans-56" transform="translate(105.625 0)"/>
      <use xlink:href="#DejaVuSans-57" transform="translate(157.71875 0)"/>
     </g>
    </g>
   </g>
  </g>
  <g id="text_35">
   <!-- Validation Curves -->
   <g transform="translate(303.753906 16.318125) scale(0.12 -0.12)">
    <defs>
     <path id="DejaVuSans-39" d="M 1831 0 
L 50 4666 
L 709 4666 
L 2188 738 
L 3669 4666 
L 4325 4666 
L 2547 0 
L 1831 0 
z
" transform="scale(0.015625)"/>
     <path id="DejaVuSans-26" d="M 4122 4306 
L 4122 3641 
Q 3803 3938 3442 4084 
Q 3081 4231 2675 4231 
Q 1875 4231 1450 3742 
Q 1025 3253 1025 2328 
Q 1025 1406 1450 917 
Q 1875 428 2675 428 
Q 3081 428 3442 575 
Q 3803 722 4122 1019 
L 4122 359 
Q 3791 134 3420 21 
Q 3050 -91 2638 -91 
Q 1578 -91 968 557 
Q 359 1206 359 2328 
Q 359 3453 968 4101 
Q 1578 4750 2638 4750 
Q 3056 4750 3426 4639 
Q 3797 4528 4122 4306 
z
" transform="scale(0.015625)"/>
     <path id="DejaVuSans-59" d="M 191 3500 
L 800 3500 
L 1894 563 
L 2988 3500 
L 3597 3500 
L 2284 0 
L 1503 0 
L 191 3500 
z
" transform="scale(0.015625)"/>
    </defs>
    <use xlink:href="#DejaVuSans-39"/>
    <use xlink:href="#DejaVuSans-44" transform="translate(60.640625 0)"/>
    <use xlink:href="#DejaVuSans-4f" transform="translate(121.921875 0)"/>
    <use xlink:href="#DejaVuSans-4c" transform="translate(149.703125 0)"/>
    <use xlink:href="#DejaVuSans-47" transform="translate(177.484375 0)"/>
    <use xlink:href="#DejaVuSans-44" transform="translate(240.96875 0)"/>
    <use xlink:href="#DejaVuSans-57" transform="translate(302.25 0)"/>
    <use xlink:href="#DejaVuSans-4c" transform="translate(341.453125 0)"/>
    <use xlink:href="#DejaVuSans-52" transform="translate(369.234375 0)"/>
    <use xlink:href="#DejaVuSans-51" transform="translate(430.421875 0)"/>
    <use xlink:href="#DejaVuSans-3" transform="translate(493.796875 0)"/>
    <use xlink:href="#DejaVuSans-26" transform="translate(525.578125 0)"/>
    <use xlink:href="#DejaVuSans-58" transform="translate(595.40625 0)"/>
    <use xlink:href="#DejaVuSans-55" transform="translate(658.78125 0)"/>
    <use xlink:href="#DejaVuSans-59" transform="translate(699.890625 0)"/>
    <use xlink:href="#DejaVuSans-48" transform="translate(759.078125 0)"/>
    <use xlink:href="#DejaVuSans-56" transform="translate(820.609375 0)"/>
   </g>
  </g>
 </g>
 <defs>
  <clipPath id="p37595827ca">
   <rect x="39.836094" y="50.642812" width="197.313226" height="329.714375"/>
  </clipPath>
  <clipPath id="p5214b5439c">
   <rect x="272.789427" y="50.642812" width="197.313226" height="329.714375"/>
  </clipPath>
  <clipPath id="p71fe2b9898">
   <rect x="505.74276" y="50.642812" width="197.313226" height="329.714375"/>
  </clipPath>
 </defs>
</svg>
